<?xml version="1.0" encoding="utf-8" standalone="no"?>
<!DOCTYPE svg PUBLIC "-//W3C//DTD SVG 1.1//EN"
  "http://www.w3.org/Graphics/SVG/1.1/DTD/svg11.dtd">
<svg xmlns:xlink="http://www.w3.org/1999/xlink" width="678.39375pt" height="374.5875pt" viewBox="0 0 678.39375 374.5875" xmlns="http://www.w3.org/2000/svg" version="1.1">
 <metadata>
  <rdf:RDF xmlns:dc="http://purl.org/dc/elements/1.1/" xmlns:cc="http://creativecommons.org/ns#" xmlns:rdf="http://www.w3.org/1999/02/22-rdf-syntax-ns#">
   <cc:Work>
    <dc:type rdf:resource="http://purl.org/dc/dcmitype/StillImage"/>
    <dc:date>2024-08-29T01:13:25.374430</dc:date>
    <dc:format>image/svg+xml</dc:format>
    <dc:creator>
     <cc:Agent>
      <dc:title>Matplotlib v3.8.2, https://matplotlib.org/</dc:title>
     </cc:Agent>
    </dc:creator>
   </cc:Work>
  </rdf:RDF>
 </metadata>
 <defs>
  <style type="text/css">*{stroke-linejoin: round; stroke-linecap: butt}</style>
 </defs>
 <g id="figure_1">
  <g id="patch_1">
   <path d="M -0 374.5875 
L 678.39375 374.5875 
L 678.39375 0 
L -0 0 
z
" style="fill: #ffffff"/>
  </g>
  <g id="axes_1">
   <g id="patch_2">
    <path d="M 45.08375 333.16 
L 671.19375 333.16 
L 671.19375 7.2 
L 45.08375 7.2 
z
" style="fill: #ffffff"/>
   </g>
   <g id="matplotlib.axis_1">
    <g id="xtick_1">
     <g id="line2d_1">
      <path d="M 117.582444 333.16 
L 117.582444 7.2 
" clip-path="url(#p993d6694b2)" style="fill: none; stroke: #e6e6e6; stroke-width: 0.8; stroke-linecap: square"/>
     </g>
     <g id="line2d_2">
      <defs>
       <path id="mb0b04e6583" d="M 0 0 
L 0 3.5 
" style="stroke: #000000; stroke-width: 0.8"/>
      </defs>
      <g>
       <use xlink:href="#mb0b04e6583" x="117.582444" y="333.16" style="stroke: #000000; stroke-width: 0.8"/>
      </g>
     </g>
     <g id="text_1">
      <!-- 250 -->
      <g transform="translate(106.129944 349.278125) scale(0.12 -0.12)">
       <defs>
        <path id="DejaVuSans-32" d="M 1228 531 
L 3431 531 
L 3431 0 
L 469 0 
L 469 531 
Q 828 903 1448 1529 
Q 2069 2156 2228 2338 
Q 2531 2678 2651 2914 
Q 2772 3150 2772 3378 
Q 2772 3750 2511 3984 
Q 2250 4219 1831 4219 
Q 1534 4219 1204 4116 
Q 875 4013 500 3803 
L 500 4441 
Q 881 4594 1212 4672 
Q 1544 4750 1819 4750 
Q 2544 4750 2975 4387 
Q 3406 4025 3406 3419 
Q 3406 3131 3298 2873 
Q 3191 2616 2906 2266 
Q 2828 2175 2409 1742 
Q 1991 1309 1228 531 
z
" transform="scale(0.015625)"/>
        <path id="DejaVuSans-35" d="M 691 4666 
L 3169 4666 
L 3169 4134 
L 1269 4134 
L 1269 2991 
Q 1406 3038 1543 3061 
Q 1681 3084 1819 3084 
Q 2600 3084 3056 2656 
Q 3513 2228 3513 1497 
Q 3513 744 3044 326 
Q 2575 -91 1722 -91 
Q 1428 -91 1123 -41 
Q 819 9 494 109 
L 494 744 
Q 775 591 1075 516 
Q 1375 441 1709 441 
Q 2250 441 2565 725 
Q 2881 1009 2881 1497 
Q 2881 1984 2565 2268 
Q 2250 2553 1709 2553 
Q 1456 2553 1204 2497 
Q 953 2441 691 2322 
L 691 4666 
z
" transform="scale(0.015625)"/>
        <path id="DejaVuSans-30" d="M 2034 4250 
Q 1547 4250 1301 3770 
Q 1056 3291 1056 2328 
Q 1056 1369 1301 889 
Q 1547 409 2034 409 
Q 2525 409 2770 889 
Q 3016 1369 3016 2328 
Q 3016 3291 2770 3770 
Q 2525 4250 2034 4250 
z
M 2034 4750 
Q 2819 4750 3233 4129 
Q 3647 3509 3647 2328 
Q 3647 1150 3233 529 
Q 2819 -91 2034 -91 
Q 1250 -91 836 529 
Q 422 1150 422 2328 
Q 422 3509 836 4129 
Q 1250 4750 2034 4750 
z
" transform="scale(0.015625)"/>
       </defs>
       <use xlink:href="#DejaVuSans-32"/>
       <use xlink:href="#DejaVuSans-35" x="63.623047"/>
       <use xlink:href="#DejaVuSans-30" x="127.246094"/>
      </g>
     </g>
    </g>
    <g id="xtick_2">
     <g id="line2d_3">
      <path d="M 200.532894 333.16 
L 200.532894 7.2 
" clip-path="url(#p993d6694b2)" style="fill: none; stroke: #e6e6e6; stroke-width: 0.8; stroke-linecap: square"/>
     </g>
     <g id="line2d_4">
      <g>
       <use xlink:href="#mb0b04e6583" x="200.532894" y="333.16" style="stroke: #000000; stroke-width: 0.8"/>
      </g>
     </g>
     <g id="text_2">
      <!-- 500 -->
      <g transform="translate(189.080394 349.278125) scale(0.12 -0.12)">
       <use xlink:href="#DejaVuSans-35"/>
       <use xlink:href="#DejaVuSans-30" x="63.623047"/>
       <use xlink:href="#DejaVuSans-30" x="127.246094"/>
      </g>
     </g>
    </g>
    <g id="xtick_3">
     <g id="line2d_5">
      <path d="M 283.483345 333.16 
L 283.483345 7.2 
" clip-path="url(#p993d6694b2)" style="fill: none; stroke: #e6e6e6; stroke-width: 0.8; stroke-linecap: square"/>
     </g>
     <g id="line2d_6">
      <g>
       <use xlink:href="#mb0b04e6583" x="283.483345" y="333.16" style="stroke: #000000; stroke-width: 0.8"/>
      </g>
     </g>
     <g id="text_3">
      <!-- 750 -->
      <g transform="translate(272.030845 349.278125) scale(0.12 -0.12)">
       <defs>
        <path id="DejaVuSans-37" d="M 525 4666 
L 3525 4666 
L 3525 4397 
L 1831 0 
L 1172 0 
L 2766 4134 
L 525 4134 
L 525 4666 
z
" transform="scale(0.015625)"/>
       </defs>
       <use xlink:href="#DejaVuSans-37"/>
       <use xlink:href="#DejaVuSans-35" x="63.623047"/>
       <use xlink:href="#DejaVuSans-30" x="127.246094"/>
      </g>
     </g>
    </g>
    <g id="xtick_4">
     <g id="line2d_7">
      <path d="M 366.433795 333.16 
L 366.433795 7.2 
" clip-path="url(#p993d6694b2)" style="fill: none; stroke: #e6e6e6; stroke-width: 0.8; stroke-linecap: square"/>
     </g>
     <g id="line2d_8">
      <g>
       <use xlink:href="#mb0b04e6583" x="366.433795" y="333.16" style="stroke: #000000; stroke-width: 0.8"/>
      </g>
     </g>
     <g id="text_4">
      <!-- 1000 -->
      <g transform="translate(351.163795 349.278125) scale(0.12 -0.12)">
       <defs>
        <path id="DejaVuSans-31" d="M 794 531 
L 1825 531 
L 1825 4091 
L 703 3866 
L 703 4441 
L 1819 4666 
L 2450 4666 
L 2450 531 
L 3481 531 
L 3481 0 
L 794 0 
L 794 531 
z
" transform="scale(0.015625)"/>
       </defs>
       <use xlink:href="#DejaVuSans-31"/>
       <use xlink:href="#DejaVuSans-30" x="63.623047"/>
       <use xlink:href="#DejaVuSans-30" x="127.246094"/>
       <use xlink:href="#DejaVuSans-30" x="190.869141"/>
      </g>
     </g>
    </g>
    <g id="xtick_5">
     <g id="line2d_9">
      <path d="M 449.384245 333.16 
L 449.384245 7.2 
" clip-path="url(#p993d6694b2)" style="fill: none; stroke: #e6e6e6; stroke-width: 0.8; stroke-linecap: square"/>
     </g>
     <g id="line2d_10">
      <g>
       <use xlink:href="#mb0b04e6583" x="449.384245" y="333.16" style="stroke: #000000; stroke-width: 0.8"/>
      </g>
     </g>
     <g id="text_5">
      <!-- 1250 -->
      <g transform="translate(434.114245 349.278125) scale(0.12 -0.12)">
       <use xlink:href="#DejaVuSans-31"/>
       <use xlink:href="#DejaVuSans-32" x="63.623047"/>
       <use xlink:href="#DejaVuSans-35" x="127.246094"/>
       <use xlink:href="#DejaVuSans-30" x="190.869141"/>
      </g>
     </g>
    </g>
    <g id="xtick_6">
     <g id="line2d_11">
      <path d="M 532.334696 333.16 
L 532.334696 7.2 
" clip-path="url(#p993d6694b2)" style="fill: none; stroke: #e6e6e6; stroke-width: 0.8; stroke-linecap: square"/>
     </g>
     <g id="line2d_12">
      <g>
       <use xlink:href="#mb0b04e6583" x="532.334696" y="333.16" style="stroke: #000000; stroke-width: 0.8"/>
      </g>
     </g>
     <g id="text_6">
      <!-- 1500 -->
      <g transform="translate(517.064696 349.278125) scale(0.12 -0.12)">
       <use xlink:href="#DejaVuSans-31"/>
       <use xlink:href="#DejaVuSans-35" x="63.623047"/>
       <use xlink:href="#DejaVuSans-30" x="127.246094"/>
       <use xlink:href="#DejaVuSans-30" x="190.869141"/>
      </g>
     </g>
    </g>
    <g id="xtick_7">
     <g id="line2d_13">
      <path d="M 615.285146 333.16 
L 615.285146 7.2 
" clip-path="url(#p993d6694b2)" style="fill: none; stroke: #e6e6e6; stroke-width: 0.8; stroke-linecap: square"/>
     </g>
     <g id="line2d_14">
      <g>
       <use xlink:href="#mb0b04e6583" x="615.285146" y="333.16" style="stroke: #000000; stroke-width: 0.8"/>
      </g>
     </g>
     <g id="text_7">
      <!-- 1750 -->
      <g transform="translate(600.015146 349.278125) scale(0.12 -0.12)">
       <use xlink:href="#DejaVuSans-31"/>
       <use xlink:href="#DejaVuSans-37" x="63.623047"/>
       <use xlink:href="#DejaVuSans-35" x="127.246094"/>
       <use xlink:href="#DejaVuSans-30" x="190.869141"/>
      </g>
     </g>
    </g>
    <g id="text_8">
     <!-- Python's Loss -->
     <g transform="translate(317.499062 364.891875) scale(0.12 -0.12)">
      <defs>
       <path id="DejaVuSans-50" d="M 1259 4147 
L 1259 2394 
L 2053 2394 
Q 2494 2394 2734 2622 
Q 2975 2850 2975 3272 
Q 2975 3691 2734 3919 
Q 2494 4147 2053 4147 
L 1259 4147 
z
M 628 4666 
L 2053 4666 
Q 2838 4666 3239 4311 
Q 3641 3956 3641 3272 
Q 3641 2581 3239 2228 
Q 2838 1875 2053 1875 
L 1259 1875 
L 1259 0 
L 628 0 
L 628 4666 
z
" transform="scale(0.015625)"/>
       <path id="DejaVuSans-79" d="M 2059 -325 
Q 1816 -950 1584 -1140 
Q 1353 -1331 966 -1331 
L 506 -1331 
L 506 -850 
L 844 -850 
Q 1081 -850 1212 -737 
Q 1344 -625 1503 -206 
L 1606 56 
L 191 3500 
L 800 3500 
L 1894 763 
L 2988 3500 
L 3597 3500 
L 2059 -325 
z
" transform="scale(0.015625)"/>
       <path id="DejaVuSans-74" d="M 1172 4494 
L 1172 3500 
L 2356 3500 
L 2356 3053 
L 1172 3053 
L 1172 1153 
Q 1172 725 1289 603 
Q 1406 481 1766 481 
L 2356 481 
L 2356 0 
L 1766 0 
Q 1100 0 847 248 
Q 594 497 594 1153 
L 594 3053 
L 172 3053 
L 172 3500 
L 594 3500 
L 594 4494 
L 1172 4494 
z
" transform="scale(0.015625)"/>
       <path id="DejaVuSans-68" d="M 3513 2113 
L 3513 0 
L 2938 0 
L 2938 2094 
Q 2938 2591 2744 2837 
Q 2550 3084 2163 3084 
Q 1697 3084 1428 2787 
Q 1159 2491 1159 1978 
L 1159 0 
L 581 0 
L 581 4863 
L 1159 4863 
L 1159 2956 
Q 1366 3272 1645 3428 
Q 1925 3584 2291 3584 
Q 2894 3584 3203 3211 
Q 3513 2838 3513 2113 
z
" transform="scale(0.015625)"/>
       <path id="DejaVuSans-6f" d="M 1959 3097 
Q 1497 3097 1228 2736 
Q 959 2375 959 1747 
Q 959 1119 1226 758 
Q 1494 397 1959 397 
Q 2419 397 2687 759 
Q 2956 1122 2956 1747 
Q 2956 2369 2687 2733 
Q 2419 3097 1959 3097 
z
M 1959 3584 
Q 2709 3584 3137 3096 
Q 3566 2609 3566 1747 
Q 3566 888 3137 398 
Q 2709 -91 1959 -91 
Q 1206 -91 779 398 
Q 353 888 353 1747 
Q 353 2609 779 3096 
Q 1206 3584 1959 3584 
z
" transform="scale(0.015625)"/>
       <path id="DejaVuSans-6e" d="M 3513 2113 
L 3513 0 
L 2938 0 
L 2938 2094 
Q 2938 2591 2744 2837 
Q 2550 3084 2163 3084 
Q 1697 3084 1428 2787 
Q 1159 2491 1159 1978 
L 1159 0 
L 581 0 
L 581 3500 
L 1159 3500 
L 1159 2956 
Q 1366 3272 1645 3428 
Q 1925 3584 2291 3584 
Q 2894 3584 3203 3211 
Q 3513 2838 3513 2113 
z
" transform="scale(0.015625)"/>
       <path id="DejaVuSans-27" d="M 1147 4666 
L 1147 2931 
L 616 2931 
L 616 4666 
L 1147 4666 
z
" transform="scale(0.015625)"/>
       <path id="DejaVuSans-73" d="M 2834 3397 
L 2834 2853 
Q 2591 2978 2328 3040 
Q 2066 3103 1784 3103 
Q 1356 3103 1142 2972 
Q 928 2841 928 2578 
Q 928 2378 1081 2264 
Q 1234 2150 1697 2047 
L 1894 2003 
Q 2506 1872 2764 1633 
Q 3022 1394 3022 966 
Q 3022 478 2636 193 
Q 2250 -91 1575 -91 
Q 1294 -91 989 -36 
Q 684 19 347 128 
L 347 722 
Q 666 556 975 473 
Q 1284 391 1588 391 
Q 1994 391 2212 530 
Q 2431 669 2431 922 
Q 2431 1156 2273 1281 
Q 2116 1406 1581 1522 
L 1381 1569 
Q 847 1681 609 1914 
Q 372 2147 372 2553 
Q 372 3047 722 3315 
Q 1072 3584 1716 3584 
Q 2034 3584 2315 3537 
Q 2597 3491 2834 3397 
z
" transform="scale(0.015625)"/>
       <path id="DejaVuSans-20" transform="scale(0.015625)"/>
       <path id="DejaVuSans-4c" d="M 628 4666 
L 1259 4666 
L 1259 531 
L 3531 531 
L 3531 0 
L 628 0 
L 628 4666 
z
" transform="scale(0.015625)"/>
      </defs>
      <use xlink:href="#DejaVuSans-50"/>
      <use xlink:href="#DejaVuSans-79" x="60.302734"/>
      <use xlink:href="#DejaVuSans-74" x="119.482422"/>
      <use xlink:href="#DejaVuSans-68" x="158.691406"/>
      <use xlink:href="#DejaVuSans-6f" x="222.070312"/>
      <use xlink:href="#DejaVuSans-6e" x="283.251953"/>
      <use xlink:href="#DejaVuSans-27" x="346.630859"/>
      <use xlink:href="#DejaVuSans-73" x="374.121094"/>
      <use xlink:href="#DejaVuSans-20" x="426.220703"/>
      <use xlink:href="#DejaVuSans-4c" x="458.007812"/>
      <use xlink:href="#DejaVuSans-6f" x="511.970703"/>
      <use xlink:href="#DejaVuSans-73" x="573.152344"/>
      <use xlink:href="#DejaVuSans-73" x="625.251953"/>
     </g>
    </g>
   </g>
   <g id="matplotlib.axis_2">
    <g id="ytick_1">
     <g id="line2d_15">
      <path d="M 45.08375 333.16 
L 671.19375 333.16 
" clip-path="url(#p993d6694b2)" style="fill: none; stroke: #e6e6e6; stroke-width: 0.8; stroke-linecap: square"/>
     </g>
     <g id="line2d_16">
      <defs>
       <path id="m5ef8042c62" d="M 0 0 
L -3.5 0 
" style="stroke: #000000; stroke-width: 0.8"/>
      </defs>
      <g>
       <use xlink:href="#m5ef8042c62" x="45.08375" y="333.16" style="stroke: #000000; stroke-width: 0.8"/>
      </g>
     </g>
     <g id="text_9">
      <!-- 0 -->
      <g transform="translate(30.44875 337.719062) scale(0.12 -0.12)">
       <use xlink:href="#DejaVuSans-30"/>
      </g>
     </g>
    </g>
    <g id="ytick_2">
     <g id="line2d_17">
      <path d="M 45.08375 284.654048 
L 671.19375 284.654048 
" clip-path="url(#p993d6694b2)" style="fill: none; stroke: #e6e6e6; stroke-width: 0.8; stroke-linecap: square"/>
     </g>
     <g id="line2d_18">
      <g>
       <use xlink:href="#m5ef8042c62" x="45.08375" y="284.654048" style="stroke: #000000; stroke-width: 0.8"/>
      </g>
     </g>
     <g id="text_10">
      <!-- 5 -->
      <g transform="translate(30.44875 289.21311) scale(0.12 -0.12)">
       <use xlink:href="#DejaVuSans-35"/>
      </g>
     </g>
    </g>
    <g id="ytick_3">
     <g id="line2d_19">
      <path d="M 45.08375 236.148095 
L 671.19375 236.148095 
" clip-path="url(#p993d6694b2)" style="fill: none; stroke: #e6e6e6; stroke-width: 0.8; stroke-linecap: square"/>
     </g>
     <g id="line2d_20">
      <g>
       <use xlink:href="#m5ef8042c62" x="45.08375" y="236.148095" style="stroke: #000000; stroke-width: 0.8"/>
      </g>
     </g>
     <g id="text_11">
      <!-- 10 -->
      <g transform="translate(22.81375 240.707158) scale(0.12 -0.12)">
       <use xlink:href="#DejaVuSans-31"/>
       <use xlink:href="#DejaVuSans-30" x="63.623047"/>
      </g>
     </g>
    </g>
    <g id="ytick_4">
     <g id="line2d_21">
      <path d="M 45.08375 187.642143 
L 671.19375 187.642143 
" clip-path="url(#p993d6694b2)" style="fill: none; stroke: #e6e6e6; stroke-width: 0.8; stroke-linecap: square"/>
     </g>
     <g id="line2d_22">
      <g>
       <use xlink:href="#m5ef8042c62" x="45.08375" y="187.642143" style="stroke: #000000; stroke-width: 0.8"/>
      </g>
     </g>
     <g id="text_12">
      <!-- 15 -->
      <g transform="translate(22.81375 192.201205) scale(0.12 -0.12)">
       <use xlink:href="#DejaVuSans-31"/>
       <use xlink:href="#DejaVuSans-35" x="63.623047"/>
      </g>
     </g>
    </g>
    <g id="ytick_5">
     <g id="line2d_23">
      <path d="M 45.08375 139.13619 
L 671.19375 139.13619 
" clip-path="url(#p993d6694b2)" style="fill: none; stroke: #e6e6e6; stroke-width: 0.8; stroke-linecap: square"/>
     </g>
     <g id="line2d_24">
      <g>
       <use xlink:href="#m5ef8042c62" x="45.08375" y="139.13619" style="stroke: #000000; stroke-width: 0.8"/>
      </g>
     </g>
     <g id="text_13">
      <!-- 20 -->
      <g transform="translate(22.81375 143.695253) scale(0.12 -0.12)">
       <use xlink:href="#DejaVuSans-32"/>
       <use xlink:href="#DejaVuSans-30" x="63.623047"/>
      </g>
     </g>
    </g>
    <g id="ytick_6">
     <g id="line2d_25">
      <path d="M 45.08375 90.630238 
L 671.19375 90.630238 
" clip-path="url(#p993d6694b2)" style="fill: none; stroke: #e6e6e6; stroke-width: 0.8; stroke-linecap: square"/>
     </g>
     <g id="line2d_26">
      <g>
       <use xlink:href="#m5ef8042c62" x="45.08375" y="90.630238" style="stroke: #000000; stroke-width: 0.8"/>
      </g>
     </g>
     <g id="text_14">
      <!-- 25 -->
      <g transform="translate(22.81375 95.189301) scale(0.12 -0.12)">
       <use xlink:href="#DejaVuSans-32"/>
       <use xlink:href="#DejaVuSans-35" x="63.623047"/>
      </g>
     </g>
    </g>
    <g id="ytick_7">
     <g id="line2d_27">
      <path d="M 45.08375 42.124286 
L 671.19375 42.124286 
" clip-path="url(#p993d6694b2)" style="fill: none; stroke: #e6e6e6; stroke-width: 0.8; stroke-linecap: square"/>
     </g>
     <g id="line2d_28">
      <g>
       <use xlink:href="#m5ef8042c62" x="45.08375" y="42.124286" style="stroke: #000000; stroke-width: 0.8"/>
      </g>
     </g>
     <g id="text_15">
      <!-- 30 -->
      <g transform="translate(22.81375 46.683348) scale(0.12 -0.12)">
       <defs>
        <path id="DejaVuSans-33" d="M 2597 2516 
Q 3050 2419 3304 2112 
Q 3559 1806 3559 1356 
Q 3559 666 3084 287 
Q 2609 -91 1734 -91 
Q 1441 -91 1130 -33 
Q 819 25 488 141 
L 488 750 
Q 750 597 1062 519 
Q 1375 441 1716 441 
Q 2309 441 2620 675 
Q 2931 909 2931 1356 
Q 2931 1769 2642 2001 
Q 2353 2234 1838 2234 
L 1294 2234 
L 1294 2753 
L 1863 2753 
Q 2328 2753 2575 2939 
Q 2822 3125 2822 3475 
Q 2822 3834 2567 4026 
Q 2313 4219 1838 4219 
Q 1578 4219 1281 4162 
Q 984 4106 628 3988 
L 628 4550 
Q 988 4650 1302 4700 
Q 1616 4750 1894 4750 
Q 2613 4750 3031 4423 
Q 3450 4097 3450 3541 
Q 3450 3153 3228 2886 
Q 3006 2619 2597 2516 
z
" transform="scale(0.015625)"/>
       </defs>
       <use xlink:href="#DejaVuSans-33"/>
       <use xlink:href="#DejaVuSans-30" x="63.623047"/>
      </g>
     </g>
    </g>
    <g id="text_16">
     <!-- Frequency -->
     <g transform="translate(16.318125 201.175625) rotate(-90) scale(0.12 -0.12)">
      <defs>
       <path id="DejaVuSans-46" d="M 628 4666 
L 3309 4666 
L 3309 4134 
L 1259 4134 
L 1259 2759 
L 3109 2759 
L 3109 2228 
L 1259 2228 
L 1259 0 
L 628 0 
L 628 4666 
z
" transform="scale(0.015625)"/>
       <path id="DejaVuSans-72" d="M 2631 2963 
Q 2534 3019 2420 3045 
Q 2306 3072 2169 3072 
Q 1681 3072 1420 2755 
Q 1159 2438 1159 1844 
L 1159 0 
L 581 0 
L 581 3500 
L 1159 3500 
L 1159 2956 
Q 1341 3275 1631 3429 
Q 1922 3584 2338 3584 
Q 2397 3584 2469 3576 
Q 2541 3569 2628 3553 
L 2631 2963 
z
" transform="scale(0.015625)"/>
       <path id="DejaVuSans-65" d="M 3597 1894 
L 3597 1613 
L 953 1613 
Q 991 1019 1311 708 
Q 1631 397 2203 397 
Q 2534 397 2845 478 
Q 3156 559 3463 722 
L 3463 178 
Q 3153 47 2828 -22 
Q 2503 -91 2169 -91 
Q 1331 -91 842 396 
Q 353 884 353 1716 
Q 353 2575 817 3079 
Q 1281 3584 2069 3584 
Q 2775 3584 3186 3129 
Q 3597 2675 3597 1894 
z
M 3022 2063 
Q 3016 2534 2758 2815 
Q 2500 3097 2075 3097 
Q 1594 3097 1305 2825 
Q 1016 2553 972 2059 
L 3022 2063 
z
" transform="scale(0.015625)"/>
       <path id="DejaVuSans-71" d="M 947 1747 
Q 947 1113 1208 752 
Q 1469 391 1925 391 
Q 2381 391 2643 752 
Q 2906 1113 2906 1747 
Q 2906 2381 2643 2742 
Q 2381 3103 1925 3103 
Q 1469 3103 1208 2742 
Q 947 2381 947 1747 
z
M 2906 525 
Q 2725 213 2448 61 
Q 2172 -91 1784 -91 
Q 1150 -91 751 415 
Q 353 922 353 1747 
Q 353 2572 751 3078 
Q 1150 3584 1784 3584 
Q 2172 3584 2448 3432 
Q 2725 3281 2906 2969 
L 2906 3500 
L 3481 3500 
L 3481 -1331 
L 2906 -1331 
L 2906 525 
z
" transform="scale(0.015625)"/>
       <path id="DejaVuSans-75" d="M 544 1381 
L 544 3500 
L 1119 3500 
L 1119 1403 
Q 1119 906 1312 657 
Q 1506 409 1894 409 
Q 2359 409 2629 706 
Q 2900 1003 2900 1516 
L 2900 3500 
L 3475 3500 
L 3475 0 
L 2900 0 
L 2900 538 
Q 2691 219 2414 64 
Q 2138 -91 1772 -91 
Q 1169 -91 856 284 
Q 544 659 544 1381 
z
M 1991 3584 
L 1991 3584 
z
" transform="scale(0.015625)"/>
       <path id="DejaVuSans-63" d="M 3122 3366 
L 3122 2828 
Q 2878 2963 2633 3030 
Q 2388 3097 2138 3097 
Q 1578 3097 1268 2742 
Q 959 2388 959 1747 
Q 959 1106 1268 751 
Q 1578 397 2138 397 
Q 2388 397 2633 464 
Q 2878 531 3122 666 
L 3122 134 
Q 2881 22 2623 -34 
Q 2366 -91 2075 -91 
Q 1284 -91 818 406 
Q 353 903 353 1747 
Q 353 2603 823 3093 
Q 1294 3584 2113 3584 
Q 2378 3584 2631 3529 
Q 2884 3475 3122 3366 
z
" transform="scale(0.015625)"/>
      </defs>
      <use xlink:href="#DejaVuSans-46"/>
      <use xlink:href="#DejaVuSans-72" x="50.269531"/>
      <use xlink:href="#DejaVuSans-65" x="89.132812"/>
      <use xlink:href="#DejaVuSans-71" x="150.65625"/>
      <use xlink:href="#DejaVuSans-75" x="214.132812"/>
      <use xlink:href="#DejaVuSans-65" x="277.511719"/>
      <use xlink:href="#DejaVuSans-6e" x="339.035156"/>
      <use xlink:href="#DejaVuSans-63" x="402.414062"/>
      <use xlink:href="#DejaVuSans-79" x="457.394531"/>
     </g>
    </g>
   </g>
   <g id="patch_3">
    <path d="M 51.222083 333.16 
L 54.540101 333.16 
L 54.540101 22.721905 
L 51.222083 22.721905 
z
" clip-path="url(#p993d6694b2)" style="fill: #0e5599"/>
   </g>
   <g id="patch_4">
    <path d="M 54.540101 333.16 
L 57.858119 333.16 
L 57.858119 313.757619 
L 54.540101 313.757619 
z
" clip-path="url(#p993d6694b2)" style="fill: #0e5599"/>
   </g>
   <g id="patch_5">
    <path d="M 57.858119 333.16 
L 61.176137 333.16 
L 61.176137 284.654048 
L 57.858119 284.654048 
z
" clip-path="url(#p993d6694b2)" style="fill: #0e5599"/>
   </g>
   <g id="patch_6">
    <path d="M 61.176137 333.16 
L 64.494155 333.16 
L 64.494155 313.757619 
L 61.176137 313.757619 
z
" clip-path="url(#p993d6694b2)" style="fill: #0e5599"/>
   </g>
   <g id="patch_7">
    <path d="M 64.494155 333.16 
L 67.812173 333.16 
L 67.812173 313.757619 
L 64.494155 313.757619 
z
" clip-path="url(#p993d6694b2)" style="fill: #0e5599"/>
   </g>
   <g id="patch_8">
    <path d="M 67.812173 333.16 
L 71.130191 333.16 
L 71.130191 313.757619 
L 67.812173 313.757619 
z
" clip-path="url(#p993d6694b2)" style="fill: #0e5599"/>
   </g>
   <g id="patch_9">
    <path d="M 71.130191 333.16 
L 74.448209 333.16 
L 74.448209 313.757619 
L 71.130191 313.757619 
z
" clip-path="url(#p993d6694b2)" style="fill: #0e5599"/>
   </g>
   <g id="patch_10">
    <path d="M 74.448209 333.16 
L 77.766227 333.16 
L 77.766227 323.45881 
L 74.448209 323.45881 
z
" clip-path="url(#p993d6694b2)" style="fill: #0e5599"/>
   </g>
   <g id="patch_11">
    <path d="M 77.766227 333.16 
L 81.084245 333.16 
L 81.084245 333.16 
L 77.766227 333.16 
z
" clip-path="url(#p993d6694b2)" style="fill: #0e5599"/>
   </g>
   <g id="patch_12">
    <path d="M 81.084245 333.16 
L 84.402264 333.16 
L 84.402264 323.45881 
L 81.084245 323.45881 
z
" clip-path="url(#p993d6694b2)" style="fill: #0e5599"/>
   </g>
   <g id="patch_13">
    <path d="M 84.402264 333.16 
L 87.720282 333.16 
L 87.720282 333.16 
L 84.402264 333.16 
z
" clip-path="url(#p993d6694b2)" style="fill: #0e5599"/>
   </g>
   <g id="patch_14">
    <path d="M 87.720282 333.16 
L 91.0383 333.16 
L 91.0383 333.16 
L 87.720282 333.16 
z
" clip-path="url(#p993d6694b2)" style="fill: #0e5599"/>
   </g>
   <g id="patch_15">
    <path d="M 91.0383 333.16 
L 94.356318 333.16 
L 94.356318 333.16 
L 91.0383 333.16 
z
" clip-path="url(#p993d6694b2)" style="fill: #0e5599"/>
   </g>
   <g id="patch_16">
    <path d="M 94.356318 333.16 
L 97.674336 333.16 
L 97.674336 313.757619 
L 94.356318 313.757619 
z
" clip-path="url(#p993d6694b2)" style="fill: #0e5599"/>
   </g>
   <g id="patch_17">
    <path d="M 97.674336 333.16 
L 100.992354 333.16 
L 100.992354 313.757619 
L 97.674336 313.757619 
z
" clip-path="url(#p993d6694b2)" style="fill: #0e5599"/>
   </g>
   <g id="patch_18">
    <path d="M 100.992354 333.16 
L 104.310372 333.16 
L 104.310372 333.16 
L 100.992354 333.16 
z
" clip-path="url(#p993d6694b2)" style="fill: #0e5599"/>
   </g>
   <g id="patch_19">
    <path d="M 104.310372 333.16 
L 107.62839 333.16 
L 107.62839 333.16 
L 104.310372 333.16 
z
" clip-path="url(#p993d6694b2)" style="fill: #0e5599"/>
   </g>
   <g id="patch_20">
    <path d="M 107.62839 333.16 
L 110.946408 333.16 
L 110.946408 304.056429 
L 107.62839 304.056429 
z
" clip-path="url(#p993d6694b2)" style="fill: #0e5599"/>
   </g>
   <g id="patch_21">
    <path d="M 110.946408 333.16 
L 114.264426 333.16 
L 114.264426 323.45881 
L 110.946408 323.45881 
z
" clip-path="url(#p993d6694b2)" style="fill: #0e5599"/>
   </g>
   <g id="patch_22">
    <path d="M 114.264426 333.16 
L 117.582444 333.16 
L 117.582444 323.45881 
L 114.264426 323.45881 
z
" clip-path="url(#p993d6694b2)" style="fill: #0e5599"/>
   </g>
   <g id="patch_23">
    <path d="M 117.582444 333.16 
L 120.900462 333.16 
L 120.900462 333.16 
L 117.582444 333.16 
z
" clip-path="url(#p993d6694b2)" style="fill: #0e5599"/>
   </g>
   <g id="patch_24">
    <path d="M 120.900462 333.16 
L 124.21848 333.16 
L 124.21848 333.16 
L 120.900462 333.16 
z
" clip-path="url(#p993d6694b2)" style="fill: #0e5599"/>
   </g>
   <g id="patch_25">
    <path d="M 124.21848 333.16 
L 127.536498 333.16 
L 127.536498 313.757619 
L 124.21848 313.757619 
z
" clip-path="url(#p993d6694b2)" style="fill: #0e5599"/>
   </g>
   <g id="patch_26">
    <path d="M 127.536498 333.16 
L 130.854516 333.16 
L 130.854516 333.16 
L 127.536498 333.16 
z
" clip-path="url(#p993d6694b2)" style="fill: #0e5599"/>
   </g>
   <g id="patch_27">
    <path d="M 130.854516 333.16 
L 134.172534 333.16 
L 134.172534 313.757619 
L 130.854516 313.757619 
z
" clip-path="url(#p993d6694b2)" style="fill: #0e5599"/>
   </g>
   <g id="patch_28">
    <path d="M 134.172534 333.16 
L 137.490552 333.16 
L 137.490552 284.654048 
L 134.172534 284.654048 
z
" clip-path="url(#p993d6694b2)" style="fill: #0e5599"/>
   </g>
   <g id="patch_29">
    <path d="M 137.490552 333.16 
L 140.80857 333.16 
L 140.80857 265.251667 
L 137.490552 265.251667 
z
" clip-path="url(#p993d6694b2)" style="fill: #0e5599"/>
   </g>
   <g id="patch_30">
    <path d="M 140.80857 333.16 
L 144.126588 333.16 
L 144.126588 333.16 
L 140.80857 333.16 
z
" clip-path="url(#p993d6694b2)" style="fill: #0e5599"/>
   </g>
   <g id="patch_31">
    <path d="M 144.126588 333.16 
L 147.444606 333.16 
L 147.444606 333.16 
L 144.126588 333.16 
z
" clip-path="url(#p993d6694b2)" style="fill: #0e5599"/>
   </g>
   <g id="patch_32">
    <path d="M 147.444606 333.16 
L 150.762624 333.16 
L 150.762624 313.757619 
L 147.444606 313.757619 
z
" clip-path="url(#p993d6694b2)" style="fill: #0e5599"/>
   </g>
   <g id="patch_33">
    <path d="M 150.762624 333.16 
L 154.080642 333.16 
L 154.080642 333.16 
L 150.762624 333.16 
z
" clip-path="url(#p993d6694b2)" style="fill: #0e5599"/>
   </g>
   <g id="patch_34">
    <path d="M 154.080642 333.16 
L 157.39866 333.16 
L 157.39866 333.16 
L 154.080642 333.16 
z
" clip-path="url(#p993d6694b2)" style="fill: #0e5599"/>
   </g>
   <g id="patch_35">
    <path d="M 157.39866 333.16 
L 160.716678 333.16 
L 160.716678 333.16 
L 157.39866 333.16 
z
" clip-path="url(#p993d6694b2)" style="fill: #0e5599"/>
   </g>
   <g id="patch_36">
    <path d="M 160.716678 333.16 
L 164.034696 333.16 
L 164.034696 323.45881 
L 160.716678 323.45881 
z
" clip-path="url(#p993d6694b2)" style="fill: #0e5599"/>
   </g>
   <g id="patch_37">
    <path d="M 164.034696 333.16 
L 167.352714 333.16 
L 167.352714 333.16 
L 164.034696 333.16 
z
" clip-path="url(#p993d6694b2)" style="fill: #0e5599"/>
   </g>
   <g id="patch_38">
    <path d="M 167.352714 333.16 
L 170.670732 333.16 
L 170.670732 323.45881 
L 167.352714 323.45881 
z
" clip-path="url(#p993d6694b2)" style="fill: #0e5599"/>
   </g>
   <g id="patch_39">
    <path d="M 170.670732 333.16 
L 173.98875 333.16 
L 173.98875 333.16 
L 170.670732 333.16 
z
" clip-path="url(#p993d6694b2)" style="fill: #0e5599"/>
   </g>
   <g id="patch_40">
    <path d="M 173.98875 333.16 
L 177.306768 333.16 
L 177.306768 323.45881 
L 173.98875 323.45881 
z
" clip-path="url(#p993d6694b2)" style="fill: #0e5599"/>
   </g>
   <g id="patch_41">
    <path d="M 177.306768 333.16 
L 180.624786 333.16 
L 180.624786 333.16 
L 177.306768 333.16 
z
" clip-path="url(#p993d6694b2)" style="fill: #0e5599"/>
   </g>
   <g id="patch_42">
    <path d="M 180.624786 333.16 
L 183.942804 333.16 
L 183.942804 323.45881 
L 180.624786 323.45881 
z
" clip-path="url(#p993d6694b2)" style="fill: #0e5599"/>
   </g>
   <g id="patch_43">
    <path d="M 183.942804 333.16 
L 187.260822 333.16 
L 187.260822 313.757619 
L 183.942804 313.757619 
z
" clip-path="url(#p993d6694b2)" style="fill: #0e5599"/>
   </g>
   <g id="patch_44">
    <path d="M 187.260822 333.16 
L 190.57884 333.16 
L 190.57884 333.16 
L 187.260822 333.16 
z
" clip-path="url(#p993d6694b2)" style="fill: #0e5599"/>
   </g>
   <g id="patch_45">
    <path d="M 190.57884 333.16 
L 193.896858 333.16 
L 193.896858 333.16 
L 190.57884 333.16 
z
" clip-path="url(#p993d6694b2)" style="fill: #0e5599"/>
   </g>
   <g id="patch_46">
    <path d="M 193.896858 333.16 
L 197.214876 333.16 
L 197.214876 333.16 
L 193.896858 333.16 
z
" clip-path="url(#p993d6694b2)" style="fill: #0e5599"/>
   </g>
   <g id="patch_47">
    <path d="M 197.214876 333.16 
L 200.532894 333.16 
L 200.532894 333.16 
L 197.214876 333.16 
z
" clip-path="url(#p993d6694b2)" style="fill: #0e5599"/>
   </g>
   <g id="patch_48">
    <path d="M 200.532894 333.16 
L 203.850912 333.16 
L 203.850912 333.16 
L 200.532894 333.16 
z
" clip-path="url(#p993d6694b2)" style="fill: #0e5599"/>
   </g>
   <g id="patch_49">
    <path d="M 203.850912 333.16 
L 207.16893 333.16 
L 207.16893 333.16 
L 203.850912 333.16 
z
" clip-path="url(#p993d6694b2)" style="fill: #0e5599"/>
   </g>
   <g id="patch_50">
    <path d="M 207.16893 333.16 
L 210.486948 333.16 
L 210.486948 333.16 
L 207.16893 333.16 
z
" clip-path="url(#p993d6694b2)" style="fill: #0e5599"/>
   </g>
   <g id="patch_51">
    <path d="M 210.486948 333.16 
L 213.804966 333.16 
L 213.804966 333.16 
L 210.486948 333.16 
z
" clip-path="url(#p993d6694b2)" style="fill: #0e5599"/>
   </g>
   <g id="patch_52">
    <path d="M 213.804966 333.16 
L 217.122984 333.16 
L 217.122984 333.16 
L 213.804966 333.16 
z
" clip-path="url(#p993d6694b2)" style="fill: #0e5599"/>
   </g>
   <g id="patch_53">
    <path d="M 217.122984 333.16 
L 220.441002 333.16 
L 220.441002 333.16 
L 217.122984 333.16 
z
" clip-path="url(#p993d6694b2)" style="fill: #0e5599"/>
   </g>
   <g id="patch_54">
    <path d="M 220.441002 333.16 
L 223.75902 333.16 
L 223.75902 323.45881 
L 220.441002 323.45881 
z
" clip-path="url(#p993d6694b2)" style="fill: #0e5599"/>
   </g>
   <g id="patch_55">
    <path d="M 223.75902 333.16 
L 227.077038 333.16 
L 227.077038 323.45881 
L 223.75902 323.45881 
z
" clip-path="url(#p993d6694b2)" style="fill: #0e5599"/>
   </g>
   <g id="patch_56">
    <path d="M 227.077038 333.16 
L 230.395056 333.16 
L 230.395056 333.16 
L 227.077038 333.16 
z
" clip-path="url(#p993d6694b2)" style="fill: #0e5599"/>
   </g>
   <g id="patch_57">
    <path d="M 230.395056 333.16 
L 233.713074 333.16 
L 233.713074 333.16 
L 230.395056 333.16 
z
" clip-path="url(#p993d6694b2)" style="fill: #0e5599"/>
   </g>
   <g id="patch_58">
    <path d="M 233.713074 333.16 
L 237.031092 333.16 
L 237.031092 333.16 
L 233.713074 333.16 
z
" clip-path="url(#p993d6694b2)" style="fill: #0e5599"/>
   </g>
   <g id="patch_59">
    <path d="M 237.031092 333.16 
L 240.34911 333.16 
L 240.34911 333.16 
L 237.031092 333.16 
z
" clip-path="url(#p993d6694b2)" style="fill: #0e5599"/>
   </g>
   <g id="patch_60">
    <path d="M 240.34911 333.16 
L 243.667128 333.16 
L 243.667128 333.16 
L 240.34911 333.16 
z
" clip-path="url(#p993d6694b2)" style="fill: #0e5599"/>
   </g>
   <g id="patch_61">
    <path d="M 243.667128 333.16 
L 246.985146 333.16 
L 246.985146 333.16 
L 243.667128 333.16 
z
" clip-path="url(#p993d6694b2)" style="fill: #0e5599"/>
   </g>
   <g id="patch_62">
    <path d="M 246.985146 333.16 
L 250.303164 333.16 
L 250.303164 333.16 
L 246.985146 333.16 
z
" clip-path="url(#p993d6694b2)" style="fill: #0e5599"/>
   </g>
   <g id="patch_63">
    <path d="M 250.303164 333.16 
L 253.621182 333.16 
L 253.621182 333.16 
L 250.303164 333.16 
z
" clip-path="url(#p993d6694b2)" style="fill: #0e5599"/>
   </g>
   <g id="patch_64">
    <path d="M 253.621182 333.16 
L 256.9392 333.16 
L 256.9392 333.16 
L 253.621182 333.16 
z
" clip-path="url(#p993d6694b2)" style="fill: #0e5599"/>
   </g>
   <g id="patch_65">
    <path d="M 256.9392 333.16 
L 260.257218 333.16 
L 260.257218 333.16 
L 256.9392 333.16 
z
" clip-path="url(#p993d6694b2)" style="fill: #0e5599"/>
   </g>
   <g id="patch_66">
    <path d="M 260.257218 333.16 
L 263.575236 333.16 
L 263.575236 333.16 
L 260.257218 333.16 
z
" clip-path="url(#p993d6694b2)" style="fill: #0e5599"/>
   </g>
   <g id="patch_67">
    <path d="M 263.575236 333.16 
L 266.893255 333.16 
L 266.893255 333.16 
L 263.575236 333.16 
z
" clip-path="url(#p993d6694b2)" style="fill: #0e5599"/>
   </g>
   <g id="patch_68">
    <path d="M 266.893255 333.16 
L 270.211273 333.16 
L 270.211273 333.16 
L 266.893255 333.16 
z
" clip-path="url(#p993d6694b2)" style="fill: #0e5599"/>
   </g>
   <g id="patch_69">
    <path d="M 270.211273 333.16 
L 273.529291 333.16 
L 273.529291 333.16 
L 270.211273 333.16 
z
" clip-path="url(#p993d6694b2)" style="fill: #0e5599"/>
   </g>
   <g id="patch_70">
    <path d="M 273.529291 333.16 
L 276.847309 333.16 
L 276.847309 333.16 
L 273.529291 333.16 
z
" clip-path="url(#p993d6694b2)" style="fill: #0e5599"/>
   </g>
   <g id="patch_71">
    <path d="M 276.847309 333.16 
L 280.165327 333.16 
L 280.165327 333.16 
L 276.847309 333.16 
z
" clip-path="url(#p993d6694b2)" style="fill: #0e5599"/>
   </g>
   <g id="patch_72">
    <path d="M 280.165327 333.16 
L 283.483345 333.16 
L 283.483345 323.45881 
L 280.165327 323.45881 
z
" clip-path="url(#p993d6694b2)" style="fill: #0e5599"/>
   </g>
   <g id="patch_73">
    <path d="M 283.483345 333.16 
L 286.801363 333.16 
L 286.801363 333.16 
L 283.483345 333.16 
z
" clip-path="url(#p993d6694b2)" style="fill: #0e5599"/>
   </g>
   <g id="patch_74">
    <path d="M 286.801363 333.16 
L 290.119381 333.16 
L 290.119381 333.16 
L 286.801363 333.16 
z
" clip-path="url(#p993d6694b2)" style="fill: #0e5599"/>
   </g>
   <g id="patch_75">
    <path d="M 290.119381 333.16 
L 293.437399 333.16 
L 293.437399 323.45881 
L 290.119381 323.45881 
z
" clip-path="url(#p993d6694b2)" style="fill: #0e5599"/>
   </g>
   <g id="patch_76">
    <path d="M 293.437399 333.16 
L 296.755417 333.16 
L 296.755417 333.16 
L 293.437399 333.16 
z
" clip-path="url(#p993d6694b2)" style="fill: #0e5599"/>
   </g>
   <g id="patch_77">
    <path d="M 296.755417 333.16 
L 300.073435 333.16 
L 300.073435 333.16 
L 296.755417 333.16 
z
" clip-path="url(#p993d6694b2)" style="fill: #0e5599"/>
   </g>
   <g id="patch_78">
    <path d="M 300.073435 333.16 
L 303.391453 333.16 
L 303.391453 333.16 
L 300.073435 333.16 
z
" clip-path="url(#p993d6694b2)" style="fill: #0e5599"/>
   </g>
   <g id="patch_79">
    <path d="M 303.391453 333.16 
L 306.709471 333.16 
L 306.709471 333.16 
L 303.391453 333.16 
z
" clip-path="url(#p993d6694b2)" style="fill: #0e5599"/>
   </g>
   <g id="patch_80">
    <path d="M 306.709471 333.16 
L 310.027489 333.16 
L 310.027489 333.16 
L 306.709471 333.16 
z
" clip-path="url(#p993d6694b2)" style="fill: #0e5599"/>
   </g>
   <g id="patch_81">
    <path d="M 310.027489 333.16 
L 313.345507 333.16 
L 313.345507 333.16 
L 310.027489 333.16 
z
" clip-path="url(#p993d6694b2)" style="fill: #0e5599"/>
   </g>
   <g id="patch_82">
    <path d="M 313.345507 333.16 
L 316.663525 333.16 
L 316.663525 333.16 
L 313.345507 333.16 
z
" clip-path="url(#p993d6694b2)" style="fill: #0e5599"/>
   </g>
   <g id="patch_83">
    <path d="M 316.663525 333.16 
L 319.981543 333.16 
L 319.981543 333.16 
L 316.663525 333.16 
z
" clip-path="url(#p993d6694b2)" style="fill: #0e5599"/>
   </g>
   <g id="patch_84">
    <path d="M 319.981543 333.16 
L 323.299561 333.16 
L 323.299561 333.16 
L 319.981543 333.16 
z
" clip-path="url(#p993d6694b2)" style="fill: #0e5599"/>
   </g>
   <g id="patch_85">
    <path d="M 323.299561 333.16 
L 326.617579 333.16 
L 326.617579 333.16 
L 323.299561 333.16 
z
" clip-path="url(#p993d6694b2)" style="fill: #0e5599"/>
   </g>
   <g id="patch_86">
    <path d="M 326.617579 333.16 
L 329.935597 333.16 
L 329.935597 333.16 
L 326.617579 333.16 
z
" clip-path="url(#p993d6694b2)" style="fill: #0e5599"/>
   </g>
   <g id="patch_87">
    <path d="M 329.935597 333.16 
L 333.253615 333.16 
L 333.253615 333.16 
L 329.935597 333.16 
z
" clip-path="url(#p993d6694b2)" style="fill: #0e5599"/>
   </g>
   <g id="patch_88">
    <path d="M 333.253615 333.16 
L 336.571633 333.16 
L 336.571633 333.16 
L 333.253615 333.16 
z
" clip-path="url(#p993d6694b2)" style="fill: #0e5599"/>
   </g>
   <g id="patch_89">
    <path d="M 336.571633 333.16 
L 339.889651 333.16 
L 339.889651 333.16 
L 336.571633 333.16 
z
" clip-path="url(#p993d6694b2)" style="fill: #0e5599"/>
   </g>
   <g id="patch_90">
    <path d="M 339.889651 333.16 
L 343.207669 333.16 
L 343.207669 333.16 
L 339.889651 333.16 
z
" clip-path="url(#p993d6694b2)" style="fill: #0e5599"/>
   </g>
   <g id="patch_91">
    <path d="M 343.207669 333.16 
L 346.525687 333.16 
L 346.525687 333.16 
L 343.207669 333.16 
z
" clip-path="url(#p993d6694b2)" style="fill: #0e5599"/>
   </g>
   <g id="patch_92">
    <path d="M 346.525687 333.16 
L 349.843705 333.16 
L 349.843705 333.16 
L 346.525687 333.16 
z
" clip-path="url(#p993d6694b2)" style="fill: #0e5599"/>
   </g>
   <g id="patch_93">
    <path d="M 349.843705 333.16 
L 353.161723 333.16 
L 353.161723 333.16 
L 349.843705 333.16 
z
" clip-path="url(#p993d6694b2)" style="fill: #0e5599"/>
   </g>
   <g id="patch_94">
    <path d="M 353.161723 333.16 
L 356.479741 333.16 
L 356.479741 333.16 
L 353.161723 333.16 
z
" clip-path="url(#p993d6694b2)" style="fill: #0e5599"/>
   </g>
   <g id="patch_95">
    <path d="M 356.479741 333.16 
L 359.797759 333.16 
L 359.797759 333.16 
L 356.479741 333.16 
z
" clip-path="url(#p993d6694b2)" style="fill: #0e5599"/>
   </g>
   <g id="patch_96">
    <path d="M 359.797759 333.16 
L 363.115777 333.16 
L 363.115777 333.16 
L 359.797759 333.16 
z
" clip-path="url(#p993d6694b2)" style="fill: #0e5599"/>
   </g>
   <g id="patch_97">
    <path d="M 363.115777 333.16 
L 366.433795 333.16 
L 366.433795 333.16 
L 363.115777 333.16 
z
" clip-path="url(#p993d6694b2)" style="fill: #0e5599"/>
   </g>
   <g id="patch_98">
    <path d="M 366.433795 333.16 
L 369.751813 333.16 
L 369.751813 333.16 
L 366.433795 333.16 
z
" clip-path="url(#p993d6694b2)" style="fill: #0e5599"/>
   </g>
   <g id="patch_99">
    <path d="M 369.751813 333.16 
L 373.069831 333.16 
L 373.069831 333.16 
L 369.751813 333.16 
z
" clip-path="url(#p993d6694b2)" style="fill: #0e5599"/>
   </g>
   <g id="patch_100">
    <path d="M 373.069831 333.16 
L 376.387849 333.16 
L 376.387849 333.16 
L 373.069831 333.16 
z
" clip-path="url(#p993d6694b2)" style="fill: #0e5599"/>
   </g>
   <g id="patch_101">
    <path d="M 376.387849 333.16 
L 379.705867 333.16 
L 379.705867 333.16 
L 376.387849 333.16 
z
" clip-path="url(#p993d6694b2)" style="fill: #0e5599"/>
   </g>
   <g id="patch_102">
    <path d="M 379.705867 333.16 
L 383.023885 333.16 
L 383.023885 333.16 
L 379.705867 333.16 
z
" clip-path="url(#p993d6694b2)" style="fill: #0e5599"/>
   </g>
   <g id="patch_103">
    <path d="M 383.023885 333.16 
L 386.341903 333.16 
L 386.341903 333.16 
L 383.023885 333.16 
z
" clip-path="url(#p993d6694b2)" style="fill: #0e5599"/>
   </g>
   <g id="patch_104">
    <path d="M 386.341903 333.16 
L 389.659921 333.16 
L 389.659921 333.16 
L 386.341903 333.16 
z
" clip-path="url(#p993d6694b2)" style="fill: #0e5599"/>
   </g>
   <g id="patch_105">
    <path d="M 389.659921 333.16 
L 392.977939 333.16 
L 392.977939 333.16 
L 389.659921 333.16 
z
" clip-path="url(#p993d6694b2)" style="fill: #0e5599"/>
   </g>
   <g id="patch_106">
    <path d="M 392.977939 333.16 
L 396.295957 333.16 
L 396.295957 333.16 
L 392.977939 333.16 
z
" clip-path="url(#p993d6694b2)" style="fill: #0e5599"/>
   </g>
   <g id="patch_107">
    <path d="M 396.295957 333.16 
L 399.613975 333.16 
L 399.613975 333.16 
L 396.295957 333.16 
z
" clip-path="url(#p993d6694b2)" style="fill: #0e5599"/>
   </g>
   <g id="patch_108">
    <path d="M 399.613975 333.16 
L 402.931993 333.16 
L 402.931993 333.16 
L 399.613975 333.16 
z
" clip-path="url(#p993d6694b2)" style="fill: #0e5599"/>
   </g>
   <g id="patch_109">
    <path d="M 402.931993 333.16 
L 406.250011 333.16 
L 406.250011 333.16 
L 402.931993 333.16 
z
" clip-path="url(#p993d6694b2)" style="fill: #0e5599"/>
   </g>
   <g id="patch_110">
    <path d="M 406.250011 333.16 
L 409.568029 333.16 
L 409.568029 333.16 
L 406.250011 333.16 
z
" clip-path="url(#p993d6694b2)" style="fill: #0e5599"/>
   </g>
   <g id="patch_111">
    <path d="M 409.568029 333.16 
L 412.886047 333.16 
L 412.886047 333.16 
L 409.568029 333.16 
z
" clip-path="url(#p993d6694b2)" style="fill: #0e5599"/>
   </g>
   <g id="patch_112">
    <path d="M 412.886047 333.16 
L 416.204065 333.16 
L 416.204065 333.16 
L 412.886047 333.16 
z
" clip-path="url(#p993d6694b2)" style="fill: #0e5599"/>
   </g>
   <g id="patch_113">
    <path d="M 416.204065 333.16 
L 419.522083 333.16 
L 419.522083 333.16 
L 416.204065 333.16 
z
" clip-path="url(#p993d6694b2)" style="fill: #0e5599"/>
   </g>
   <g id="patch_114">
    <path d="M 419.522083 333.16 
L 422.840101 333.16 
L 422.840101 333.16 
L 419.522083 333.16 
z
" clip-path="url(#p993d6694b2)" style="fill: #0e5599"/>
   </g>
   <g id="patch_115">
    <path d="M 422.840101 333.16 
L 426.158119 333.16 
L 426.158119 333.16 
L 422.840101 333.16 
z
" clip-path="url(#p993d6694b2)" style="fill: #0e5599"/>
   </g>
   <g id="patch_116">
    <path d="M 426.158119 333.16 
L 429.476137 333.16 
L 429.476137 333.16 
L 426.158119 333.16 
z
" clip-path="url(#p993d6694b2)" style="fill: #0e5599"/>
   </g>
   <g id="patch_117">
    <path d="M 429.476137 333.16 
L 432.794155 333.16 
L 432.794155 333.16 
L 429.476137 333.16 
z
" clip-path="url(#p993d6694b2)" style="fill: #0e5599"/>
   </g>
   <g id="patch_118">
    <path d="M 432.794155 333.16 
L 436.112173 333.16 
L 436.112173 333.16 
L 432.794155 333.16 
z
" clip-path="url(#p993d6694b2)" style="fill: #0e5599"/>
   </g>
   <g id="patch_119">
    <path d="M 436.112173 333.16 
L 439.430191 333.16 
L 439.430191 333.16 
L 436.112173 333.16 
z
" clip-path="url(#p993d6694b2)" style="fill: #0e5599"/>
   </g>
   <g id="patch_120">
    <path d="M 439.430191 333.16 
L 442.748209 333.16 
L 442.748209 333.16 
L 439.430191 333.16 
z
" clip-path="url(#p993d6694b2)" style="fill: #0e5599"/>
   </g>
   <g id="patch_121">
    <path d="M 442.748209 333.16 
L 446.066227 333.16 
L 446.066227 333.16 
L 442.748209 333.16 
z
" clip-path="url(#p993d6694b2)" style="fill: #0e5599"/>
   </g>
   <g id="patch_122">
    <path d="M 446.066227 333.16 
L 449.384245 333.16 
L 449.384245 333.16 
L 446.066227 333.16 
z
" clip-path="url(#p993d6694b2)" style="fill: #0e5599"/>
   </g>
   <g id="patch_123">
    <path d="M 449.384245 333.16 
L 452.702264 333.16 
L 452.702264 333.16 
L 449.384245 333.16 
z
" clip-path="url(#p993d6694b2)" style="fill: #0e5599"/>
   </g>
   <g id="patch_124">
    <path d="M 452.702264 333.16 
L 456.020282 333.16 
L 456.020282 333.16 
L 452.702264 333.16 
z
" clip-path="url(#p993d6694b2)" style="fill: #0e5599"/>
   </g>
   <g id="patch_125">
    <path d="M 456.020282 333.16 
L 459.3383 333.16 
L 459.3383 323.45881 
L 456.020282 323.45881 
z
" clip-path="url(#p993d6694b2)" style="fill: #0e5599"/>
   </g>
   <g id="patch_126">
    <path d="M 459.3383 333.16 
L 462.656318 333.16 
L 462.656318 333.16 
L 459.3383 333.16 
z
" clip-path="url(#p993d6694b2)" style="fill: #0e5599"/>
   </g>
   <g id="patch_127">
    <path d="M 462.656318 333.16 
L 465.974336 333.16 
L 465.974336 333.16 
L 462.656318 333.16 
z
" clip-path="url(#p993d6694b2)" style="fill: #0e5599"/>
   </g>
   <g id="patch_128">
    <path d="M 465.974336 333.16 
L 469.292354 333.16 
L 469.292354 333.16 
L 465.974336 333.16 
z
" clip-path="url(#p993d6694b2)" style="fill: #0e5599"/>
   </g>
   <g id="patch_129">
    <path d="M 469.292354 333.16 
L 472.610372 333.16 
L 472.610372 333.16 
L 469.292354 333.16 
z
" clip-path="url(#p993d6694b2)" style="fill: #0e5599"/>
   </g>
   <g id="patch_130">
    <path d="M 472.610372 333.16 
L 475.92839 333.16 
L 475.92839 333.16 
L 472.610372 333.16 
z
" clip-path="url(#p993d6694b2)" style="fill: #0e5599"/>
   </g>
   <g id="patch_131">
    <path d="M 475.92839 333.16 
L 479.246408 333.16 
L 479.246408 333.16 
L 475.92839 333.16 
z
" clip-path="url(#p993d6694b2)" style="fill: #0e5599"/>
   </g>
   <g id="patch_132">
    <path d="M 479.246408 333.16 
L 482.564426 333.16 
L 482.564426 333.16 
L 479.246408 333.16 
z
" clip-path="url(#p993d6694b2)" style="fill: #0e5599"/>
   </g>
   <g id="patch_133">
    <path d="M 482.564426 333.16 
L 485.882444 333.16 
L 485.882444 333.16 
L 482.564426 333.16 
z
" clip-path="url(#p993d6694b2)" style="fill: #0e5599"/>
   </g>
   <g id="patch_134">
    <path d="M 485.882444 333.16 
L 489.200462 333.16 
L 489.200462 333.16 
L 485.882444 333.16 
z
" clip-path="url(#p993d6694b2)" style="fill: #0e5599"/>
   </g>
   <g id="patch_135">
    <path d="M 489.200462 333.16 
L 492.51848 333.16 
L 492.51848 333.16 
L 489.200462 333.16 
z
" clip-path="url(#p993d6694b2)" style="fill: #0e5599"/>
   </g>
   <g id="patch_136">
    <path d="M 492.51848 333.16 
L 495.836498 333.16 
L 495.836498 333.16 
L 492.51848 333.16 
z
" clip-path="url(#p993d6694b2)" style="fill: #0e5599"/>
   </g>
   <g id="patch_137">
    <path d="M 495.836498 333.16 
L 499.154516 333.16 
L 499.154516 333.16 
L 495.836498 333.16 
z
" clip-path="url(#p993d6694b2)" style="fill: #0e5599"/>
   </g>
   <g id="patch_138">
    <path d="M 499.154516 333.16 
L 502.472534 333.16 
L 502.472534 333.16 
L 499.154516 333.16 
z
" clip-path="url(#p993d6694b2)" style="fill: #0e5599"/>
   </g>
   <g id="patch_139">
    <path d="M 502.472534 333.16 
L 505.790552 333.16 
L 505.790552 333.16 
L 502.472534 333.16 
z
" clip-path="url(#p993d6694b2)" style="fill: #0e5599"/>
   </g>
   <g id="patch_140">
    <path d="M 505.790552 333.16 
L 509.10857 333.16 
L 509.10857 333.16 
L 505.790552 333.16 
z
" clip-path="url(#p993d6694b2)" style="fill: #0e5599"/>
   </g>
   <g id="patch_141">
    <path d="M 509.10857 333.16 
L 512.426588 333.16 
L 512.426588 333.16 
L 509.10857 333.16 
z
" clip-path="url(#p993d6694b2)" style="fill: #0e5599"/>
   </g>
   <g id="patch_142">
    <path d="M 512.426588 333.16 
L 515.744606 333.16 
L 515.744606 333.16 
L 512.426588 333.16 
z
" clip-path="url(#p993d6694b2)" style="fill: #0e5599"/>
   </g>
   <g id="patch_143">
    <path d="M 515.744606 333.16 
L 519.062624 333.16 
L 519.062624 333.16 
L 515.744606 333.16 
z
" clip-path="url(#p993d6694b2)" style="fill: #0e5599"/>
   </g>
   <g id="patch_144">
    <path d="M 519.062624 333.16 
L 522.380642 333.16 
L 522.380642 333.16 
L 519.062624 333.16 
z
" clip-path="url(#p993d6694b2)" style="fill: #0e5599"/>
   </g>
   <g id="patch_145">
    <path d="M 522.380642 333.16 
L 525.69866 333.16 
L 525.69866 333.16 
L 522.380642 333.16 
z
" clip-path="url(#p993d6694b2)" style="fill: #0e5599"/>
   </g>
   <g id="patch_146">
    <path d="M 525.69866 333.16 
L 529.016678 333.16 
L 529.016678 323.45881 
L 525.69866 323.45881 
z
" clip-path="url(#p993d6694b2)" style="fill: #0e5599"/>
   </g>
   <g id="patch_147">
    <path d="M 529.016678 333.16 
L 532.334696 333.16 
L 532.334696 333.16 
L 529.016678 333.16 
z
" clip-path="url(#p993d6694b2)" style="fill: #0e5599"/>
   </g>
   <g id="patch_148">
    <path d="M 532.334696 333.16 
L 535.652714 333.16 
L 535.652714 333.16 
L 532.334696 333.16 
z
" clip-path="url(#p993d6694b2)" style="fill: #0e5599"/>
   </g>
   <g id="patch_149">
    <path d="M 535.652714 333.16 
L 538.970732 333.16 
L 538.970732 333.16 
L 535.652714 333.16 
z
" clip-path="url(#p993d6694b2)" style="fill: #0e5599"/>
   </g>
   <g id="patch_150">
    <path d="M 538.970732 333.16 
L 542.28875 333.16 
L 542.28875 333.16 
L 538.970732 333.16 
z
" clip-path="url(#p993d6694b2)" style="fill: #0e5599"/>
   </g>
   <g id="patch_151">
    <path d="M 542.28875 333.16 
L 545.606768 333.16 
L 545.606768 333.16 
L 542.28875 333.16 
z
" clip-path="url(#p993d6694b2)" style="fill: #0e5599"/>
   </g>
   <g id="patch_152">
    <path d="M 545.606768 333.16 
L 548.924786 333.16 
L 548.924786 333.16 
L 545.606768 333.16 
z
" clip-path="url(#p993d6694b2)" style="fill: #0e5599"/>
   </g>
   <g id="patch_153">
    <path d="M 548.924786 333.16 
L 552.242804 333.16 
L 552.242804 333.16 
L 548.924786 333.16 
z
" clip-path="url(#p993d6694b2)" style="fill: #0e5599"/>
   </g>
   <g id="patch_154">
    <path d="M 552.242804 333.16 
L 555.560822 333.16 
L 555.560822 333.16 
L 552.242804 333.16 
z
" clip-path="url(#p993d6694b2)" style="fill: #0e5599"/>
   </g>
   <g id="patch_155">
    <path d="M 555.560822 333.16 
L 558.87884 333.16 
L 558.87884 333.16 
L 555.560822 333.16 
z
" clip-path="url(#p993d6694b2)" style="fill: #0e5599"/>
   </g>
   <g id="patch_156">
    <path d="M 558.87884 333.16 
L 562.196858 333.16 
L 562.196858 333.16 
L 558.87884 333.16 
z
" clip-path="url(#p993d6694b2)" style="fill: #0e5599"/>
   </g>
   <g id="patch_157">
    <path d="M 562.196858 333.16 
L 565.514876 333.16 
L 565.514876 333.16 
L 562.196858 333.16 
z
" clip-path="url(#p993d6694b2)" style="fill: #0e5599"/>
   </g>
   <g id="patch_158">
    <path d="M 565.514876 333.16 
L 568.832894 333.16 
L 568.832894 333.16 
L 565.514876 333.16 
z
" clip-path="url(#p993d6694b2)" style="fill: #0e5599"/>
   </g>
   <g id="patch_159">
    <path d="M 568.832894 333.16 
L 572.150912 333.16 
L 572.150912 333.16 
L 568.832894 333.16 
z
" clip-path="url(#p993d6694b2)" style="fill: #0e5599"/>
   </g>
   <g id="patch_160">
    <path d="M 572.150912 333.16 
L 575.46893 333.16 
L 575.46893 333.16 
L 572.150912 333.16 
z
" clip-path="url(#p993d6694b2)" style="fill: #0e5599"/>
   </g>
   <g id="patch_161">
    <path d="M 575.46893 333.16 
L 578.786948 333.16 
L 578.786948 333.16 
L 575.46893 333.16 
z
" clip-path="url(#p993d6694b2)" style="fill: #0e5599"/>
   </g>
   <g id="patch_162">
    <path d="M 578.786948 333.16 
L 582.104966 333.16 
L 582.104966 333.16 
L 578.786948 333.16 
z
" clip-path="url(#p993d6694b2)" style="fill: #0e5599"/>
   </g>
   <g id="patch_163">
    <path d="M 582.104966 333.16 
L 585.422984 333.16 
L 585.422984 333.16 
L 582.104966 333.16 
z
" clip-path="url(#p993d6694b2)" style="fill: #0e5599"/>
   </g>
   <g id="patch_164">
    <path d="M 585.422984 333.16 
L 588.741002 333.16 
L 588.741002 333.16 
L 585.422984 333.16 
z
" clip-path="url(#p993d6694b2)" style="fill: #0e5599"/>
   </g>
   <g id="patch_165">
    <path d="M 588.741002 333.16 
L 592.05902 333.16 
L 592.05902 333.16 
L 588.741002 333.16 
z
" clip-path="url(#p993d6694b2)" style="fill: #0e5599"/>
   </g>
   <g id="patch_166">
    <path d="M 592.05902 333.16 
L 595.377038 333.16 
L 595.377038 333.16 
L 592.05902 333.16 
z
" clip-path="url(#p993d6694b2)" style="fill: #0e5599"/>
   </g>
   <g id="patch_167">
    <path d="M 595.377038 333.16 
L 598.695056 333.16 
L 598.695056 333.16 
L 595.377038 333.16 
z
" clip-path="url(#p993d6694b2)" style="fill: #0e5599"/>
   </g>
   <g id="patch_168">
    <path d="M 598.695056 333.16 
L 602.013074 333.16 
L 602.013074 333.16 
L 598.695056 333.16 
z
" clip-path="url(#p993d6694b2)" style="fill: #0e5599"/>
   </g>
   <g id="patch_169">
    <path d="M 602.013074 333.16 
L 605.331092 333.16 
L 605.331092 333.16 
L 602.013074 333.16 
z
" clip-path="url(#p993d6694b2)" style="fill: #0e5599"/>
   </g>
   <g id="patch_170">
    <path d="M 605.331092 333.16 
L 608.64911 333.16 
L 608.64911 333.16 
L 605.331092 333.16 
z
" clip-path="url(#p993d6694b2)" style="fill: #0e5599"/>
   </g>
   <g id="patch_171">
    <path d="M 608.64911 333.16 
L 611.967128 333.16 
L 611.967128 333.16 
L 608.64911 333.16 
z
" clip-path="url(#p993d6694b2)" style="fill: #0e5599"/>
   </g>
   <g id="patch_172">
    <path d="M 611.967128 333.16 
L 615.285146 333.16 
L 615.285146 333.16 
L 611.967128 333.16 
z
" clip-path="url(#p993d6694b2)" style="fill: #0e5599"/>
   </g>
   <g id="patch_173">
    <path d="M 615.285146 333.16 
L 618.603164 333.16 
L 618.603164 333.16 
L 615.285146 333.16 
z
" clip-path="url(#p993d6694b2)" style="fill: #0e5599"/>
   </g>
   <g id="patch_174">
    <path d="M 618.603164 333.16 
L 621.921182 333.16 
L 621.921182 333.16 
L 618.603164 333.16 
z
" clip-path="url(#p993d6694b2)" style="fill: #0e5599"/>
   </g>
   <g id="patch_175">
    <path d="M 621.921182 333.16 
L 625.2392 333.16 
L 625.2392 333.16 
L 621.921182 333.16 
z
" clip-path="url(#p993d6694b2)" style="fill: #0e5599"/>
   </g>
   <g id="patch_176">
    <path d="M 625.2392 333.16 
L 628.557218 333.16 
L 628.557218 333.16 
L 625.2392 333.16 
z
" clip-path="url(#p993d6694b2)" style="fill: #0e5599"/>
   </g>
   <g id="patch_177">
    <path d="M 628.557218 333.16 
L 631.875236 333.16 
L 631.875236 333.16 
L 628.557218 333.16 
z
" clip-path="url(#p993d6694b2)" style="fill: #0e5599"/>
   </g>
   <g id="patch_178">
    <path d="M 631.875236 333.16 
L 635.193255 333.16 
L 635.193255 333.16 
L 631.875236 333.16 
z
" clip-path="url(#p993d6694b2)" style="fill: #0e5599"/>
   </g>
   <g id="patch_179">
    <path d="M 635.193255 333.16 
L 638.511273 333.16 
L 638.511273 333.16 
L 635.193255 333.16 
z
" clip-path="url(#p993d6694b2)" style="fill: #0e5599"/>
   </g>
   <g id="patch_180">
    <path d="M 638.511273 333.16 
L 641.829291 333.16 
L 641.829291 333.16 
L 638.511273 333.16 
z
" clip-path="url(#p993d6694b2)" style="fill: #0e5599"/>
   </g>
   <g id="patch_181">
    <path d="M 641.829291 333.16 
L 645.147309 333.16 
L 645.147309 333.16 
L 641.829291 333.16 
z
" clip-path="url(#p993d6694b2)" style="fill: #0e5599"/>
   </g>
   <g id="patch_182">
    <path d="M 645.147309 333.16 
L 648.465327 333.16 
L 648.465327 333.16 
L 645.147309 333.16 
z
" clip-path="url(#p993d6694b2)" style="fill: #0e5599"/>
   </g>
   <g id="patch_183">
    <path d="M 648.465327 333.16 
L 651.783345 333.16 
L 651.783345 333.16 
L 648.465327 333.16 
z
" clip-path="url(#p993d6694b2)" style="fill: #0e5599"/>
   </g>
   <g id="patch_184">
    <path d="M 651.783345 333.16 
L 655.101363 333.16 
L 655.101363 333.16 
L 651.783345 333.16 
z
" clip-path="url(#p993d6694b2)" style="fill: #0e5599"/>
   </g>
   <g id="patch_185">
    <path d="M 655.101363 333.16 
L 658.419381 333.16 
L 658.419381 333.16 
L 655.101363 333.16 
z
" clip-path="url(#p993d6694b2)" style="fill: #0e5599"/>
   </g>
   <g id="patch_186">
    <path d="M 658.419381 333.16 
L 661.737399 333.16 
L 661.737399 333.16 
L 658.419381 333.16 
z
" clip-path="url(#p993d6694b2)" style="fill: #0e5599"/>
   </g>
   <g id="patch_187">
    <path d="M 661.737399 333.16 
L 665.055417 333.16 
L 665.055417 323.45881 
L 661.737399 323.45881 
z
" clip-path="url(#p993d6694b2)" style="fill: #0e5599"/>
   </g>
   <g id="line2d_29">
    <path d="M 53.287685 333.16 
L 53.287685 7.2 
" clip-path="url(#p993d6694b2)" style="fill: none; stroke-dasharray: 5.55,2.4; stroke-dashoffset: 0; stroke: #f87530; stroke-width: 1.5"/>
   </g>
   <g id="patch_188">
    <path d="M 45.08375 333.16 
L 45.08375 7.2 
" style="fill: none; stroke: #000000; stroke-width: 0.7; stroke-linejoin: miter; stroke-linecap: square"/>
   </g>
   <g id="patch_189">
    <path d="M 671.19375 333.16 
L 671.19375 7.2 
" style="fill: none; stroke: #000000; stroke-width: 0.7; stroke-linejoin: miter; stroke-linecap: square"/>
   </g>
   <g id="patch_190">
    <path d="M 45.08375 333.16 
L 671.19375 333.16 
" style="fill: none; stroke: #000000; stroke-width: 0.7; stroke-linejoin: miter; stroke-linecap: square"/>
   </g>
   <g id="patch_191">
    <path d="M 45.08375 7.2 
L 671.19375 7.2 
" style="fill: none; stroke: #000000; stroke-width: 0.7; stroke-linejoin: miter; stroke-linecap: square"/>
   </g>
   <g id="legend_1">
    <g id="patch_192">
     <path d="M 556.1175 34.41375 
L 662.79375 34.41375 
Q 665.19375 34.41375 665.19375 32.01375 
L 665.19375 15.6 
Q 665.19375 13.2 662.79375 13.2 
L 556.1175 13.2 
Q 553.7175 13.2 553.7175 15.6 
L 553.7175 32.01375 
Q 553.7175 34.41375 556.1175 34.41375 
z
" style="fill: #ffffff; opacity: 0.8; stroke: #cccccc; stroke-linejoin: miter"/>
    </g>
    <g id="line2d_30">
     <path d="M 558.5175 22.918125 
L 570.5175 22.918125 
L 582.5175 22.918125 
" style="fill: none; stroke-dasharray: 5.55,2.4; stroke-dashoffset: 0; stroke: #f87530; stroke-width: 1.5"/>
    </g>
    <g id="text_17">
     <!-- Stata's loss -->
     <g transform="translate(592.1175 27.118125) scale(0.12 -0.12)">
      <defs>
       <path id="DejaVuSans-53" d="M 3425 4513 
L 3425 3897 
Q 3066 4069 2747 4153 
Q 2428 4238 2131 4238 
Q 1616 4238 1336 4038 
Q 1056 3838 1056 3469 
Q 1056 3159 1242 3001 
Q 1428 2844 1947 2747 
L 2328 2669 
Q 3034 2534 3370 2195 
Q 3706 1856 3706 1288 
Q 3706 609 3251 259 
Q 2797 -91 1919 -91 
Q 1588 -91 1214 -16 
Q 841 59 441 206 
L 441 856 
Q 825 641 1194 531 
Q 1563 422 1919 422 
Q 2459 422 2753 634 
Q 3047 847 3047 1241 
Q 3047 1584 2836 1778 
Q 2625 1972 2144 2069 
L 1759 2144 
Q 1053 2284 737 2584 
Q 422 2884 422 3419 
Q 422 4038 858 4394 
Q 1294 4750 2059 4750 
Q 2388 4750 2728 4690 
Q 3069 4631 3425 4513 
z
" transform="scale(0.015625)"/>
       <path id="DejaVuSans-61" d="M 2194 1759 
Q 1497 1759 1228 1600 
Q 959 1441 959 1056 
Q 959 750 1161 570 
Q 1363 391 1709 391 
Q 2188 391 2477 730 
Q 2766 1069 2766 1631 
L 2766 1759 
L 2194 1759 
z
M 3341 1997 
L 3341 0 
L 2766 0 
L 2766 531 
Q 2569 213 2275 61 
Q 1981 -91 1556 -91 
Q 1019 -91 701 211 
Q 384 513 384 1019 
Q 384 1609 779 1909 
Q 1175 2209 1959 2209 
L 2766 2209 
L 2766 2266 
Q 2766 2663 2505 2880 
Q 2244 3097 1772 3097 
Q 1472 3097 1187 3025 
Q 903 2953 641 2809 
L 641 3341 
Q 956 3463 1253 3523 
Q 1550 3584 1831 3584 
Q 2591 3584 2966 3190 
Q 3341 2797 3341 1997 
z
" transform="scale(0.015625)"/>
       <path id="DejaVuSans-6c" d="M 603 4863 
L 1178 4863 
L 1178 0 
L 603 0 
L 603 4863 
z
" transform="scale(0.015625)"/>
      </defs>
      <use xlink:href="#DejaVuSans-53"/>
      <use xlink:href="#DejaVuSans-74" x="63.476562"/>
      <use xlink:href="#DejaVuSans-61" x="102.685547"/>
      <use xlink:href="#DejaVuSans-74" x="163.964844"/>
      <use xlink:href="#DejaVuSans-61" x="203.173828"/>
      <use xlink:href="#DejaVuSans-27" x="264.453125"/>
      <use xlink:href="#DejaVuSans-73" x="291.943359"/>
      <use xlink:href="#DejaVuSans-20" x="344.042969"/>
      <use xlink:href="#DejaVuSans-6c" x="375.830078"/>
      <use xlink:href="#DejaVuSans-6f" x="403.613281"/>
      <use xlink:href="#DejaVuSans-73" x="464.794922"/>
      <use xlink:href="#DejaVuSans-73" x="516.894531"/>
     </g>
    </g>
   </g>
  </g>
 </g>
 <defs>
  <clipPath id="p993d6694b2">
   <rect x="45.08375" y="7.2" width="626.11" height="325.96"/>
  </clipPath>
 </defs>
</svg>
