<?xml version="1.0" encoding="utf-8" standalone="no"?>
<!DOCTYPE svg PUBLIC "-//W3C//DTD SVG 1.1//EN"
  "http://www.w3.org/Graphics/SVG/1.1/DTD/svg11.dtd">
<svg xmlns:xlink="http://www.w3.org/1999/xlink" width="678.40875pt" height="375.93375pt" viewBox="0 0 678.40875 375.93375" xmlns="http://www.w3.org/2000/svg" version="1.1">
 <metadata>
  <rdf:RDF xmlns:dc="http://purl.org/dc/elements/1.1/" xmlns:cc="http://creativecommons.org/ns#" xmlns:rdf="http://www.w3.org/1999/02/22-rdf-syntax-ns#">
   <cc:Work>
    <dc:type rdf:resource="http://purl.org/dc/dcmitype/StillImage"/>
    <dc:date>2024-08-22T22:46:57.775886</dc:date>
    <dc:format>image/svg+xml</dc:format>
    <dc:creator>
     <cc:Agent>
      <dc:title>Matplotlib v3.8.2, https://matplotlib.org/</dc:title>
     </cc:Agent>
    </dc:creator>
   </cc:Work>
  </rdf:RDF>
 </metadata>
 <defs>
  <style type="text/css">*{stroke-linejoin: round; stroke-linecap: butt}</style>
 </defs>
 <g id="figure_1">
  <g id="patch_1">
   <path d="M 0 375.93375 
L 678.40875 375.93375 
L 678.40875 0 
L 0 0 
z
" style="fill: #ffffff"/>
  </g>
  <g id="axes_1">
   <g id="patch_2">
    <path d="M 70.65875 350.12 
L 671.20875 350.12 
L 671.20875 7.2 
L 70.65875 7.2 
z
" style="fill: #ffffff"/>
   </g>
   <g id="matplotlib.axis_1">
    <g id="xtick_1">
     <g id="line2d_1">
      <path d="M 122.772593 350.12 
L 122.772593 7.2 
" clip-path="url(#pfdf61e0645)" style="fill: none; stroke: #e6e6e6; stroke-width: 0.8; stroke-linecap: square"/>
     </g>
     <g id="line2d_2">
      <defs>
       <path id="m459a6ac112" d="M 0 0 
L 0 3.5 
" style="stroke: #000000; stroke-width: 0.8"/>
      </defs>
      <g>
       <use xlink:href="#m459a6ac112" x="122.772593" y="350.12" style="stroke: #000000; stroke-width: 0.8"/>
      </g>
     </g>
     <g id="text_1">
      <!-- Stata -->
      <g transform="translate(106.905405 366.238125) scale(0.12 -0.12)">
       <defs>
        <path id="DejaVuSans-53" d="M 3425 4513 
L 3425 3897 
Q 3066 4069 2747 4153 
Q 2428 4238 2131 4238 
Q 1616 4238 1336 4038 
Q 1056 3838 1056 3469 
Q 1056 3159 1242 3001 
Q 1428 2844 1947 2747 
L 2328 2669 
Q 3034 2534 3370 2195 
Q 3706 1856 3706 1288 
Q 3706 609 3251 259 
Q 2797 -91 1919 -91 
Q 1588 -91 1214 -16 
Q 841 59 441 206 
L 441 856 
Q 825 641 1194 531 
Q 1563 422 1919 422 
Q 2459 422 2753 634 
Q 3047 847 3047 1241 
Q 3047 1584 2836 1778 
Q 2625 1972 2144 2069 
L 1759 2144 
Q 1053 2284 737 2584 
Q 422 2884 422 3419 
Q 422 4038 858 4394 
Q 1294 4750 2059 4750 
Q 2388 4750 2728 4690 
Q 3069 4631 3425 4513 
z
" transform="scale(0.015625)"/>
        <path id="DejaVuSans-74" d="M 1172 4494 
L 1172 3500 
L 2356 3500 
L 2356 3053 
L 1172 3053 
L 1172 1153 
Q 1172 725 1289 603 
Q 1406 481 1766 481 
L 2356 481 
L 2356 0 
L 1766 0 
Q 1100 0 847 248 
Q 594 497 594 1153 
L 594 3053 
L 172 3053 
L 172 3500 
L 594 3500 
L 594 4494 
L 1172 4494 
z
" transform="scale(0.015625)"/>
        <path id="DejaVuSans-61" d="M 2194 1759 
Q 1497 1759 1228 1600 
Q 959 1441 959 1056 
Q 959 750 1161 570 
Q 1363 391 1709 391 
Q 2188 391 2477 730 
Q 2766 1069 2766 1631 
L 2766 1759 
L 2194 1759 
z
M 3341 1997 
L 3341 0 
L 2766 0 
L 2766 531 
Q 2569 213 2275 61 
Q 1981 -91 1556 -91 
Q 1019 -91 701 211 
Q 384 513 384 1019 
Q 384 1609 779 1909 
Q 1175 2209 1959 2209 
L 2766 2209 
L 2766 2266 
Q 2766 2663 2505 2880 
Q 2244 3097 1772 3097 
Q 1472 3097 1187 3025 
Q 903 2953 641 2809 
L 641 3341 
Q 956 3463 1253 3523 
Q 1550 3584 1831 3584 
Q 2591 3584 2966 3190 
Q 3341 2797 3341 1997 
z
" transform="scale(0.015625)"/>
       </defs>
       <use xlink:href="#DejaVuSans-53"/>
       <use xlink:href="#DejaVuSans-74" x="63.476562"/>
       <use xlink:href="#DejaVuSans-61" x="102.685547"/>
       <use xlink:href="#DejaVuSans-74" x="163.964844"/>
       <use xlink:href="#DejaVuSans-61" x="203.173828"/>
      </g>
     </g>
    </g>
    <g id="xtick_2">
     <g id="line2d_3">
      <path d="M 288.213364 350.12 
L 288.213364 7.2 
" clip-path="url(#pfdf61e0645)" style="fill: none; stroke: #e6e6e6; stroke-width: 0.8; stroke-linecap: square"/>
     </g>
     <g id="line2d_4">
      <g>
       <use xlink:href="#m459a6ac112" x="288.213364" y="350.12" style="stroke: #000000; stroke-width: 0.8"/>
      </g>
     </g>
     <g id="text_2">
      <!-- SciPy -->
      <g transform="translate(272.269302 366.238125) scale(0.12 -0.12)">
       <defs>
        <path id="DejaVuSans-63" d="M 3122 3366 
L 3122 2828 
Q 2878 2963 2633 3030 
Q 2388 3097 2138 3097 
Q 1578 3097 1268 2742 
Q 959 2388 959 1747 
Q 959 1106 1268 751 
Q 1578 397 2138 397 
Q 2388 397 2633 464 
Q 2878 531 3122 666 
L 3122 134 
Q 2881 22 2623 -34 
Q 2366 -91 2075 -91 
Q 1284 -91 818 406 
Q 353 903 353 1747 
Q 353 2603 823 3093 
Q 1294 3584 2113 3584 
Q 2378 3584 2631 3529 
Q 2884 3475 3122 3366 
z
" transform="scale(0.015625)"/>
        <path id="DejaVuSans-69" d="M 603 3500 
L 1178 3500 
L 1178 0 
L 603 0 
L 603 3500 
z
M 603 4863 
L 1178 4863 
L 1178 4134 
L 603 4134 
L 603 4863 
z
" transform="scale(0.015625)"/>
        <path id="DejaVuSans-50" d="M 1259 4147 
L 1259 2394 
L 2053 2394 
Q 2494 2394 2734 2622 
Q 2975 2850 2975 3272 
Q 2975 3691 2734 3919 
Q 2494 4147 2053 4147 
L 1259 4147 
z
M 628 4666 
L 2053 4666 
Q 2838 4666 3239 4311 
Q 3641 3956 3641 3272 
Q 3641 2581 3239 2228 
Q 2838 1875 2053 1875 
L 1259 1875 
L 1259 0 
L 628 0 
L 628 4666 
z
" transform="scale(0.015625)"/>
        <path id="DejaVuSans-79" d="M 2059 -325 
Q 1816 -950 1584 -1140 
Q 1353 -1331 966 -1331 
L 506 -1331 
L 506 -850 
L 844 -850 
Q 1081 -850 1212 -737 
Q 1344 -625 1503 -206 
L 1606 56 
L 191 3500 
L 800 3500 
L 1894 763 
L 2988 3500 
L 3597 3500 
L 2059 -325 
z
" transform="scale(0.015625)"/>
       </defs>
       <use xlink:href="#DejaVuSans-53"/>
       <use xlink:href="#DejaVuSans-63" x="63.476562"/>
       <use xlink:href="#DejaVuSans-69" x="118.457031"/>
       <use xlink:href="#DejaVuSans-50" x="146.240234"/>
       <use xlink:href="#DejaVuSans-79" x="206.542969"/>
      </g>
     </g>
    </g>
    <g id="xtick_3">
     <g id="line2d_5">
      <path d="M 453.654136 350.12 
L 453.654136 7.2 
" clip-path="url(#pfdf61e0645)" style="fill: none; stroke: #e6e6e6; stroke-width: 0.8; stroke-linecap: square"/>
     </g>
     <g id="line2d_6">
      <g>
       <use xlink:href="#m459a6ac112" x="453.654136" y="350.12" style="stroke: #000000; stroke-width: 0.8"/>
      </g>
     </g>
     <g id="text_3">
      <!-- SciPy (with Jacobian) -->
      <g transform="translate(391.113511 366.238125) scale(0.12 -0.12)">
       <defs>
        <path id="DejaVuSans-20" transform="scale(0.015625)"/>
        <path id="DejaVuSans-28" d="M 1984 4856 
Q 1566 4138 1362 3434 
Q 1159 2731 1159 2009 
Q 1159 1288 1364 580 
Q 1569 -128 1984 -844 
L 1484 -844 
Q 1016 -109 783 600 
Q 550 1309 550 2009 
Q 550 2706 781 3412 
Q 1013 4119 1484 4856 
L 1984 4856 
z
" transform="scale(0.015625)"/>
        <path id="DejaVuSans-77" d="M 269 3500 
L 844 3500 
L 1563 769 
L 2278 3500 
L 2956 3500 
L 3675 769 
L 4391 3500 
L 4966 3500 
L 4050 0 
L 3372 0 
L 2619 2869 
L 1863 0 
L 1184 0 
L 269 3500 
z
" transform="scale(0.015625)"/>
        <path id="DejaVuSans-68" d="M 3513 2113 
L 3513 0 
L 2938 0 
L 2938 2094 
Q 2938 2591 2744 2837 
Q 2550 3084 2163 3084 
Q 1697 3084 1428 2787 
Q 1159 2491 1159 1978 
L 1159 0 
L 581 0 
L 581 4863 
L 1159 4863 
L 1159 2956 
Q 1366 3272 1645 3428 
Q 1925 3584 2291 3584 
Q 2894 3584 3203 3211 
Q 3513 2838 3513 2113 
z
" transform="scale(0.015625)"/>
        <path id="DejaVuSans-4a" d="M 628 4666 
L 1259 4666 
L 1259 325 
Q 1259 -519 939 -900 
Q 619 -1281 -91 -1281 
L -331 -1281 
L -331 -750 
L -134 -750 
Q 284 -750 456 -515 
Q 628 -281 628 325 
L 628 4666 
z
" transform="scale(0.015625)"/>
        <path id="DejaVuSans-6f" d="M 1959 3097 
Q 1497 3097 1228 2736 
Q 959 2375 959 1747 
Q 959 1119 1226 758 
Q 1494 397 1959 397 
Q 2419 397 2687 759 
Q 2956 1122 2956 1747 
Q 2956 2369 2687 2733 
Q 2419 3097 1959 3097 
z
M 1959 3584 
Q 2709 3584 3137 3096 
Q 3566 2609 3566 1747 
Q 3566 888 3137 398 
Q 2709 -91 1959 -91 
Q 1206 -91 779 398 
Q 353 888 353 1747 
Q 353 2609 779 3096 
Q 1206 3584 1959 3584 
z
" transform="scale(0.015625)"/>
        <path id="DejaVuSans-62" d="M 3116 1747 
Q 3116 2381 2855 2742 
Q 2594 3103 2138 3103 
Q 1681 3103 1420 2742 
Q 1159 2381 1159 1747 
Q 1159 1113 1420 752 
Q 1681 391 2138 391 
Q 2594 391 2855 752 
Q 3116 1113 3116 1747 
z
M 1159 2969 
Q 1341 3281 1617 3432 
Q 1894 3584 2278 3584 
Q 2916 3584 3314 3078 
Q 3713 2572 3713 1747 
Q 3713 922 3314 415 
Q 2916 -91 2278 -91 
Q 1894 -91 1617 61 
Q 1341 213 1159 525 
L 1159 0 
L 581 0 
L 581 4863 
L 1159 4863 
L 1159 2969 
z
" transform="scale(0.015625)"/>
        <path id="DejaVuSans-6e" d="M 3513 2113 
L 3513 0 
L 2938 0 
L 2938 2094 
Q 2938 2591 2744 2837 
Q 2550 3084 2163 3084 
Q 1697 3084 1428 2787 
Q 1159 2491 1159 1978 
L 1159 0 
L 581 0 
L 581 3500 
L 1159 3500 
L 1159 2956 
Q 1366 3272 1645 3428 
Q 1925 3584 2291 3584 
Q 2894 3584 3203 3211 
Q 3513 2838 3513 2113 
z
" transform="scale(0.015625)"/>
        <path id="DejaVuSans-29" d="M 513 4856 
L 1013 4856 
Q 1481 4119 1714 3412 
Q 1947 2706 1947 2009 
Q 1947 1309 1714 600 
Q 1481 -109 1013 -844 
L 513 -844 
Q 928 -128 1133 580 
Q 1338 1288 1338 2009 
Q 1338 2731 1133 3434 
Q 928 4138 513 4856 
z
" transform="scale(0.015625)"/>
       </defs>
       <use xlink:href="#DejaVuSans-53"/>
       <use xlink:href="#DejaVuSans-63" x="63.476562"/>
       <use xlink:href="#DejaVuSans-69" x="118.457031"/>
       <use xlink:href="#DejaVuSans-50" x="146.240234"/>
       <use xlink:href="#DejaVuSans-79" x="206.542969"/>
       <use xlink:href="#DejaVuSans-20" x="265.722656"/>
       <use xlink:href="#DejaVuSans-28" x="297.509766"/>
       <use xlink:href="#DejaVuSans-77" x="336.523438"/>
       <use xlink:href="#DejaVuSans-69" x="418.310547"/>
       <use xlink:href="#DejaVuSans-74" x="446.09375"/>
       <use xlink:href="#DejaVuSans-68" x="485.302734"/>
       <use xlink:href="#DejaVuSans-20" x="548.681641"/>
       <use xlink:href="#DejaVuSans-4a" x="580.46875"/>
       <use xlink:href="#DejaVuSans-61" x="609.960938"/>
       <use xlink:href="#DejaVuSans-63" x="671.240234"/>
       <use xlink:href="#DejaVuSans-6f" x="726.220703"/>
       <use xlink:href="#DejaVuSans-62" x="787.402344"/>
       <use xlink:href="#DejaVuSans-69" x="850.878906"/>
       <use xlink:href="#DejaVuSans-61" x="878.662109"/>
       <use xlink:href="#DejaVuSans-6e" x="939.941406"/>
       <use xlink:href="#DejaVuSans-29" x="1003.320312"/>
      </g>
     </g>
    </g>
    <g id="xtick_4">
     <g id="line2d_7">
      <path d="M 619.094907 350.12 
L 619.094907 7.2 
" clip-path="url(#pfdf61e0645)" style="fill: none; stroke: #e6e6e6; stroke-width: 0.8; stroke-linecap: square"/>
     </g>
     <g id="line2d_8">
      <g>
       <use xlink:href="#m459a6ac112" x="619.094907" y="350.12" style="stroke: #000000; stroke-width: 0.8"/>
      </g>
     </g>
     <g id="text_4">
      <!-- CVXPY -->
      <g transform="translate(599.543345 366.238125) scale(0.12 -0.12)">
       <defs>
        <path id="DejaVuSans-43" d="M 4122 4306 
L 4122 3641 
Q 3803 3938 3442 4084 
Q 3081 4231 2675 4231 
Q 1875 4231 1450 3742 
Q 1025 3253 1025 2328 
Q 1025 1406 1450 917 
Q 1875 428 2675 428 
Q 3081 428 3442 575 
Q 3803 722 4122 1019 
L 4122 359 
Q 3791 134 3420 21 
Q 3050 -91 2638 -91 
Q 1578 -91 968 557 
Q 359 1206 359 2328 
Q 359 3453 968 4101 
Q 1578 4750 2638 4750 
Q 3056 4750 3426 4639 
Q 3797 4528 4122 4306 
z
" transform="scale(0.015625)"/>
        <path id="DejaVuSans-56" d="M 1831 0 
L 50 4666 
L 709 4666 
L 2188 738 
L 3669 4666 
L 4325 4666 
L 2547 0 
L 1831 0 
z
" transform="scale(0.015625)"/>
        <path id="DejaVuSans-58" d="M 403 4666 
L 1081 4666 
L 2241 2931 
L 3406 4666 
L 4084 4666 
L 2584 2425 
L 4184 0 
L 3506 0 
L 2194 1984 
L 872 0 
L 191 0 
L 1856 2491 
L 403 4666 
z
" transform="scale(0.015625)"/>
        <path id="DejaVuSans-59" d="M -13 4666 
L 666 4666 
L 1959 2747 
L 3244 4666 
L 3922 4666 
L 2272 2222 
L 2272 0 
L 1638 0 
L 1638 2222 
L -13 4666 
z
" transform="scale(0.015625)"/>
       </defs>
       <use xlink:href="#DejaVuSans-43"/>
       <use xlink:href="#DejaVuSans-56" x="69.824219"/>
       <use xlink:href="#DejaVuSans-58" x="138.232422"/>
       <use xlink:href="#DejaVuSans-50" x="206.738281"/>
       <use xlink:href="#DejaVuSans-59" x="264.791016"/>
      </g>
     </g>
    </g>
   </g>
   <g id="matplotlib.axis_2">
    <g id="ytick_1">
     <g id="line2d_9">
      <path d="M 70.65875 350.12 
L 671.20875 350.12 
" clip-path="url(#pfdf61e0645)" style="fill: none; stroke: #e6e6e6; stroke-width: 0.8; stroke-linecap: square"/>
     </g>
     <g id="line2d_10">
      <defs>
       <path id="m1618ce8abf" d="M 0 0 
L -3.5 0 
" style="stroke: #000000; stroke-width: 0.8"/>
      </defs>
      <g>
       <use xlink:href="#m1618ce8abf" x="70.65875" y="350.12" style="stroke: #000000; stroke-width: 0.8"/>
      </g>
     </g>
     <g id="text_5">
      <!-- 10ms -->
      <g transform="translate(30.44875 354.679062) scale(0.12 -0.12)">
       <defs>
        <path id="DejaVuSans-31" d="M 794 531 
L 1825 531 
L 1825 4091 
L 703 3866 
L 703 4441 
L 1819 4666 
L 2450 4666 
L 2450 531 
L 3481 531 
L 3481 0 
L 794 0 
L 794 531 
z
" transform="scale(0.015625)"/>
        <path id="DejaVuSans-30" d="M 2034 4250 
Q 1547 4250 1301 3770 
Q 1056 3291 1056 2328 
Q 1056 1369 1301 889 
Q 1547 409 2034 409 
Q 2525 409 2770 889 
Q 3016 1369 3016 2328 
Q 3016 3291 2770 3770 
Q 2525 4250 2034 4250 
z
M 2034 4750 
Q 2819 4750 3233 4129 
Q 3647 3509 3647 2328 
Q 3647 1150 3233 529 
Q 2819 -91 2034 -91 
Q 1250 -91 836 529 
Q 422 1150 422 2328 
Q 422 3509 836 4129 
Q 1250 4750 2034 4750 
z
" transform="scale(0.015625)"/>
        <path id="DejaVuSans-6d" d="M 3328 2828 
Q 3544 3216 3844 3400 
Q 4144 3584 4550 3584 
Q 5097 3584 5394 3201 
Q 5691 2819 5691 2113 
L 5691 0 
L 5113 0 
L 5113 2094 
Q 5113 2597 4934 2840 
Q 4756 3084 4391 3084 
Q 3944 3084 3684 2787 
Q 3425 2491 3425 1978 
L 3425 0 
L 2847 0 
L 2847 2094 
Q 2847 2600 2669 2842 
Q 2491 3084 2119 3084 
Q 1678 3084 1418 2786 
Q 1159 2488 1159 1978 
L 1159 0 
L 581 0 
L 581 3500 
L 1159 3500 
L 1159 2956 
Q 1356 3278 1631 3431 
Q 1906 3584 2284 3584 
Q 2666 3584 2933 3390 
Q 3200 3197 3328 2828 
z
" transform="scale(0.015625)"/>
        <path id="DejaVuSans-73" d="M 2834 3397 
L 2834 2853 
Q 2591 2978 2328 3040 
Q 2066 3103 1784 3103 
Q 1356 3103 1142 2972 
Q 928 2841 928 2578 
Q 928 2378 1081 2264 
Q 1234 2150 1697 2047 
L 1894 2003 
Q 2506 1872 2764 1633 
Q 3022 1394 3022 966 
Q 3022 478 2636 193 
Q 2250 -91 1575 -91 
Q 1294 -91 989 -36 
Q 684 19 347 128 
L 347 722 
Q 666 556 975 473 
Q 1284 391 1588 391 
Q 1994 391 2212 530 
Q 2431 669 2431 922 
Q 2431 1156 2273 1281 
Q 2116 1406 1581 1522 
L 1381 1569 
Q 847 1681 609 1914 
Q 372 2147 372 2553 
Q 372 3047 722 3315 
Q 1072 3584 1716 3584 
Q 2034 3584 2315 3537 
Q 2597 3491 2834 3397 
z
" transform="scale(0.015625)"/>
       </defs>
       <use xlink:href="#DejaVuSans-31"/>
       <use xlink:href="#DejaVuSans-30" x="63.623047"/>
       <use xlink:href="#DejaVuSans-6d" x="127.246094"/>
       <use xlink:href="#DejaVuSans-73" x="224.658203"/>
      </g>
     </g>
    </g>
    <g id="ytick_2">
     <g id="line2d_11">
      <path d="M 70.65875 277.744494 
L 671.20875 277.744494 
" clip-path="url(#pfdf61e0645)" style="fill: none; stroke: #e6e6e6; stroke-width: 0.8; stroke-linecap: square"/>
     </g>
     <g id="line2d_12">
      <g>
       <use xlink:href="#m1618ce8abf" x="70.65875" y="277.744494" style="stroke: #000000; stroke-width: 0.8"/>
      </g>
     </g>
     <g id="text_6">
      <!-- 30ms -->
      <g transform="translate(30.44875 282.303557) scale(0.12 -0.12)">
       <defs>
        <path id="DejaVuSans-33" d="M 2597 2516 
Q 3050 2419 3304 2112 
Q 3559 1806 3559 1356 
Q 3559 666 3084 287 
Q 2609 -91 1734 -91 
Q 1441 -91 1130 -33 
Q 819 25 488 141 
L 488 750 
Q 750 597 1062 519 
Q 1375 441 1716 441 
Q 2309 441 2620 675 
Q 2931 909 2931 1356 
Q 2931 1769 2642 2001 
Q 2353 2234 1838 2234 
L 1294 2234 
L 1294 2753 
L 1863 2753 
Q 2328 2753 2575 2939 
Q 2822 3125 2822 3475 
Q 2822 3834 2567 4026 
Q 2313 4219 1838 4219 
Q 1578 4219 1281 4162 
Q 984 4106 628 3988 
L 628 4550 
Q 988 4650 1302 4700 
Q 1616 4750 1894 4750 
Q 2613 4750 3031 4423 
Q 3450 4097 3450 3541 
Q 3450 3153 3228 2886 
Q 3006 2619 2597 2516 
z
" transform="scale(0.015625)"/>
       </defs>
       <use xlink:href="#DejaVuSans-33"/>
       <use xlink:href="#DejaVuSans-30" x="63.623047"/>
       <use xlink:href="#DejaVuSans-6d" x="127.246094"/>
       <use xlink:href="#DejaVuSans-73" x="224.658203"/>
      </g>
     </g>
    </g>
    <g id="ytick_3">
     <g id="line2d_13">
      <path d="M 70.65875 198.42794 
L 671.20875 198.42794 
" clip-path="url(#pfdf61e0645)" style="fill: none; stroke: #e6e6e6; stroke-width: 0.8; stroke-linecap: square"/>
     </g>
     <g id="line2d_14">
      <g>
       <use xlink:href="#m1618ce8abf" x="70.65875" y="198.42794" style="stroke: #000000; stroke-width: 0.8"/>
      </g>
     </g>
     <g id="text_7">
      <!-- 100ms -->
      <g transform="translate(22.81375 202.987003) scale(0.12 -0.12)">
       <use xlink:href="#DejaVuSans-31"/>
       <use xlink:href="#DejaVuSans-30" x="63.623047"/>
       <use xlink:href="#DejaVuSans-30" x="127.246094"/>
       <use xlink:href="#DejaVuSans-6d" x="190.869141"/>
       <use xlink:href="#DejaVuSans-73" x="288.28125"/>
      </g>
     </g>
    </g>
    <g id="ytick_4">
     <g id="line2d_15">
      <path d="M 70.65875 126.052435 
L 671.20875 126.052435 
" clip-path="url(#pfdf61e0645)" style="fill: none; stroke: #e6e6e6; stroke-width: 0.8; stroke-linecap: square"/>
     </g>
     <g id="line2d_16">
      <g>
       <use xlink:href="#m1618ce8abf" x="70.65875" y="126.052435" style="stroke: #000000; stroke-width: 0.8"/>
      </g>
     </g>
     <g id="text_8">
      <!-- 300ms -->
      <g transform="translate(22.81375 130.611497) scale(0.12 -0.12)">
       <use xlink:href="#DejaVuSans-33"/>
       <use xlink:href="#DejaVuSans-30" x="63.623047"/>
       <use xlink:href="#DejaVuSans-30" x="127.246094"/>
       <use xlink:href="#DejaVuSans-6d" x="190.869141"/>
       <use xlink:href="#DejaVuSans-73" x="288.28125"/>
      </g>
     </g>
    </g>
    <g id="ytick_5">
     <g id="line2d_17">
      <path d="M 70.65875 46.735881 
L 671.20875 46.735881 
" clip-path="url(#pfdf61e0645)" style="fill: none; stroke: #e6e6e6; stroke-width: 0.8; stroke-linecap: square"/>
     </g>
     <g id="line2d_18">
      <g>
       <use xlink:href="#m1618ce8abf" x="70.65875" y="46.735881" style="stroke: #000000; stroke-width: 0.8"/>
      </g>
     </g>
     <g id="text_9">
      <!-- 1s -->
      <g transform="translate(49.7725 51.294943) scale(0.12 -0.12)">
       <use xlink:href="#DejaVuSans-31"/>
       <use xlink:href="#DejaVuSans-73" x="63.623047"/>
      </g>
     </g>
    </g>
    <g id="ytick_6">
     <g id="line2d_19">
      <defs>
       <path id="m6bf5444979" d="M 0 0 
L -2 0 
" style="stroke: #000000; stroke-width: 0.6"/>
      </defs>
      <g>
       <use xlink:href="#m6bf5444979" x="70.65875" y="304.45614" style="stroke: #000000; stroke-width: 0.6"/>
      </g>
     </g>
    </g>
    <g id="ytick_7">
     <g id="line2d_20">
      <g>
       <use xlink:href="#m6bf5444979" x="70.65875" y="258.79228" style="stroke: #000000; stroke-width: 0.6"/>
      </g>
     </g>
    </g>
    <g id="ytick_8">
     <g id="line2d_21">
      <g>
       <use xlink:href="#m6bf5444979" x="70.65875" y="244.0918" style="stroke: #000000; stroke-width: 0.6"/>
      </g>
     </g>
    </g>
    <g id="ytick_9">
     <g id="line2d_22">
      <g>
       <use xlink:href="#m6bf5444979" x="70.65875" y="232.080634" style="stroke: #000000; stroke-width: 0.6"/>
      </g>
     </g>
    </g>
    <g id="ytick_10">
     <g id="line2d_23">
      <g>
       <use xlink:href="#m6bf5444979" x="70.65875" y="221.925338" style="stroke: #000000; stroke-width: 0.6"/>
      </g>
     </g>
    </g>
    <g id="ytick_11">
     <g id="line2d_24">
      <g>
       <use xlink:href="#m6bf5444979" x="70.65875" y="213.12842" style="stroke: #000000; stroke-width: 0.6"/>
      </g>
     </g>
    </g>
    <g id="ytick_12">
     <g id="line2d_25">
      <g>
       <use xlink:href="#m6bf5444979" x="70.65875" y="205.368988" style="stroke: #000000; stroke-width: 0.6"/>
      </g>
     </g>
    </g>
    <g id="ytick_13">
     <g id="line2d_26">
      <g>
       <use xlink:href="#m6bf5444979" x="70.65875" y="152.76408" style="stroke: #000000; stroke-width: 0.6"/>
      </g>
     </g>
    </g>
    <g id="ytick_14">
     <g id="line2d_27">
      <g>
       <use xlink:href="#m6bf5444979" x="70.65875" y="107.10022" style="stroke: #000000; stroke-width: 0.6"/>
      </g>
     </g>
    </g>
    <g id="ytick_15">
     <g id="line2d_28">
      <g>
       <use xlink:href="#m6bf5444979" x="70.65875" y="92.399741" style="stroke: #000000; stroke-width: 0.6"/>
      </g>
     </g>
    </g>
    <g id="ytick_16">
     <g id="line2d_29">
      <g>
       <use xlink:href="#m6bf5444979" x="70.65875" y="80.388575" style="stroke: #000000; stroke-width: 0.6"/>
      </g>
     </g>
    </g>
    <g id="ytick_17">
     <g id="line2d_30">
      <g>
       <use xlink:href="#m6bf5444979" x="70.65875" y="70.233278" style="stroke: #000000; stroke-width: 0.6"/>
      </g>
     </g>
    </g>
    <g id="ytick_18">
     <g id="line2d_31">
      <g>
       <use xlink:href="#m6bf5444979" x="70.65875" y="61.43636" style="stroke: #000000; stroke-width: 0.6"/>
      </g>
     </g>
    </g>
    <g id="ytick_19">
     <g id="line2d_32">
      <g>
       <use xlink:href="#m6bf5444979" x="70.65875" y="53.676929" style="stroke: #000000; stroke-width: 0.6"/>
      </g>
     </g>
    </g>
    <g id="text_10">
     <!-- Time -->
     <g transform="translate(16.318125 193.340312) rotate(-90) scale(0.12 -0.12)">
      <defs>
       <path id="DejaVuSans-54" d="M -19 4666 
L 3928 4666 
L 3928 4134 
L 2272 4134 
L 2272 0 
L 1638 0 
L 1638 4134 
L -19 4134 
L -19 4666 
z
" transform="scale(0.015625)"/>
       <path id="DejaVuSans-65" d="M 3597 1894 
L 3597 1613 
L 953 1613 
Q 991 1019 1311 708 
Q 1631 397 2203 397 
Q 2534 397 2845 478 
Q 3156 559 3463 722 
L 3463 178 
Q 3153 47 2828 -22 
Q 2503 -91 2169 -91 
Q 1331 -91 842 396 
Q 353 884 353 1716 
Q 353 2575 817 3079 
Q 1281 3584 2069 3584 
Q 2775 3584 3186 3129 
Q 3597 2675 3597 1894 
z
M 3022 2063 
Q 3016 2534 2758 2815 
Q 2500 3097 2075 3097 
Q 1594 3097 1305 2825 
Q 1016 2553 972 2059 
L 3022 2063 
z
" transform="scale(0.015625)"/>
      </defs>
      <use xlink:href="#DejaVuSans-54"/>
      <use xlink:href="#DejaVuSans-69" x="57.958984"/>
      <use xlink:href="#DejaVuSans-6d" x="85.742188"/>
      <use xlink:href="#DejaVuSans-65" x="183.154297"/>
     </g>
    </g>
   </g>
   <g id="PolyCollection_1">
    <path d="M 124.216276 57.909148 
L 121.32891 57.909148 
L 120.648577 57.440905 
L 119.799873 56.975966 
L 118.781089 56.514286 
L 117.595146 56.055819 
L 116.245196 55.60052 
L 114.727818 55.148346 
L 113.030569 54.699255 
L 111.141348 54.253204 
L 109.068028 53.810153 
L 106.8562 53.370062 
L 104.594046 52.932891 
L 102.406873 52.498602 
L 100.452963 52.067158 
L 98.922997 51.63852 
L 98.027626 51.212654 
L 97.956477 50.789523 
L 98.814377 50.369092 
L 100.565673 49.951327 
L 103.020564 49.536195 
L 105.876078 49.123662 
L 108.795604 48.713697 
L 111.491899 48.306267 
L 113.779135 47.901341 
L 115.580047 47.498889 
L 116.901703 47.09888 
L 117.806236 46.701286 
L 118.391914 46.306077 
L 118.779604 45.913225 
L 119.092287 45.522701 
L 119.426133 45.134479 
L 119.826179 44.748531 
L 120.281751 44.364831 
L 120.744763 43.983353 
L 121.159125 43.604071 
L 121.48415 43.22696 
L 121.702305 42.851996 
L 121.814584 42.479154 
L 121.833822 42.10841 
L 121.782504 41.739741 
L 121.692657 41.373123 
L 121.601465 41.008535 
L 121.540992 40.645953 
L 121.527818 40.285355 
L 121.560044 39.926721 
L 121.623527 39.570028 
L 121.702287 39.215257 
L 121.786052 38.862385 
L 121.871498 38.511394 
L 121.958908 38.162263 
L 122.048306 37.814972 
L 122.137685 37.469502 
L 122.223224 37.125835 
L 122.300254 36.783951 
L 122.364243 36.443832 
L 122.411727 36.105461 
L 122.441147 35.768818 
L 122.453366 35.433887 
L 122.451668 35.10065 
L 122.44124 34.76909 
L 122.428377 34.43919 
L 122.419779 34.110934 
L 122.421817 33.784306 
L 122.439133 33.459289 
L 122.472391 33.135868 
L 122.516597 32.814027 
L 122.562128 32.49375 
L 122.599021 32.175023 
L 122.622191 31.857831 
L 122.633911 31.542158 
L 122.641718 31.227991 
L 122.653301 30.915315 
L 122.672028 30.604116 
L 122.695839 30.29438 
L 122.719376 29.986094 
L 122.737052 29.679243 
L 122.744855 29.373816 
L 122.740532 29.069797 
L 122.723396 28.767175 
L 122.694927 28.465937 
L 122.659905 28.16607 
L 122.626437 27.867562 
L 122.603549 27.570401 
L 122.597094 27.274573 
L 122.606747 26.980068 
L 122.626579 26.686874 
L 122.648987 26.394979 
L 122.669001 26.104372 
L 122.685891 25.815041 
L 122.701466 25.526975 
L 122.71717 25.240163 
L 122.732446 24.954594 
L 122.745139 24.670258 
L 122.752894 24.387144 
L 122.754262 24.105242 
L 122.749176 23.82454 
L 122.739142 23.54503 
L 122.727265 23.2667 
L 122.717657 22.989541 
L 122.713986 22.713544 
L 122.8312 22.713544 
L 122.8312 22.713544 
L 122.827528 22.989541 
L 122.817921 23.2667 
L 122.806044 23.54503 
L 122.79601 23.82454 
L 122.790923 24.105242 
L 122.792292 24.387144 
L 122.800047 24.670258 
L 122.81274 24.954594 
L 122.828016 25.240163 
L 122.84372 25.526975 
L 122.859295 25.815041 
L 122.876185 26.104372 
L 122.896199 26.394979 
L 122.918607 26.686874 
L 122.938439 26.980068 
L 122.948092 27.274573 
L 122.941637 27.570401 
L 122.918749 27.867562 
L 122.885281 28.16607 
L 122.850259 28.465937 
L 122.82179 28.767175 
L 122.804654 29.069797 
L 122.800331 29.373816 
L 122.808134 29.679243 
L 122.82581 29.986094 
L 122.849347 30.29438 
L 122.873158 30.604116 
L 122.891885 30.915315 
L 122.903468 31.227991 
L 122.911275 31.542158 
L 122.922995 31.857831 
L 122.946165 32.175023 
L 122.983058 32.49375 
L 123.028589 32.814027 
L 123.072795 33.135868 
L 123.106053 33.459289 
L 123.123369 33.784306 
L 123.125407 34.110934 
L 123.116809 34.43919 
L 123.103946 34.76909 
L 123.093518 35.10065 
L 123.09182 35.433887 
L 123.104039 35.768818 
L 123.133459 36.105461 
L 123.180943 36.443832 
L 123.244932 36.783951 
L 123.321962 37.125835 
L 123.407501 37.469502 
L 123.49688 37.814972 
L 123.586278 38.162263 
L 123.673688 38.511394 
L 123.759134 38.862385 
L 123.842899 39.215257 
L 123.921659 39.570028 
L 123.985142 39.926721 
L 124.017368 40.285355 
L 124.004194 40.645953 
L 123.943721 41.008535 
L 123.852529 41.373123 
L 123.762682 41.739741 
L 123.711364 42.10841 
L 123.730602 42.479154 
L 123.842881 42.851996 
L 124.061036 43.22696 
L 124.386061 43.604071 
L 124.800423 43.983353 
L 125.263435 44.364831 
L 125.719007 44.748531 
L 126.119053 45.134479 
L 126.452899 45.522701 
L 126.765582 45.913225 
L 127.153272 46.306077 
L 127.73895 46.701286 
L 128.643483 47.09888 
L 129.965139 47.498889 
L 131.766051 47.901341 
L 134.053286 48.306267 
L 136.749582 48.713697 
L 139.669108 49.123662 
L 142.524622 49.536195 
L 144.979513 49.951327 
L 146.730809 50.369092 
L 147.588709 50.789523 
L 147.51756 51.212654 
L 146.622189 51.63852 
L 145.092223 52.067158 
L 143.138313 52.498602 
L 140.95114 52.932891 
L 138.688986 53.370062 
L 136.477158 53.810153 
L 134.403838 54.253204 
L 132.514617 54.699255 
L 130.817368 55.148346 
L 129.29999 55.60052 
L 127.95004 56.055819 
L 126.764097 56.514286 
L 125.745313 56.975966 
L 124.896609 57.440905 
L 124.216276 57.909148 
z
" clip-path="url(#pfdf61e0645)" style="fill: #ff7f00; fill-opacity: 0.3"/>
   </g>
   <g id="PolyCollection_2">
    <path d="M 296.490103 276.183616 
L 279.936625 276.183616 
L 273.551028 274.933072 
L 267.19658 273.705825 
L 263.397249 272.501022 
L 263.498843 271.317858 
L 266.812664 270.155569 
L 271.470834 269.01343 
L 275.891015 267.890756 
L 279.437073 266.786894 
L 282.109504 265.701223 
L 284.060494 264.633155 
L 285.410026 263.582127 
L 286.260486 262.547603 
L 286.735645 261.529075 
L 286.987566 260.526054 
L 287.155929 259.538075 
L 287.316376 258.564694 
L 287.478391 257.605487 
L 287.618651 256.660045 
L 287.70454 255.727979 
L 287.715485 254.808917 
L 287.673854 253.902501 
L 287.642003 253.008386 
L 287.666636 252.126244 
L 287.744112 251.255758 
L 287.845694 250.396625 
L 287.943074 249.548552 
L 288.010827 248.711257 
L 288.036368 247.88447 
L 288.031134 247.067932 
L 288.022671 246.26139 
L 288.036014 245.464603 
L 288.077808 244.677338 
L 288.132232 243.89937 
L 288.176266 243.130482 
L 288.199224 242.370464 
L 288.203854 241.619115 
L 288.196004 240.876238 
L 288.181929 240.141644 
L 288.171277 239.415152 
L 288.172017 238.696584 
L 288.180507 237.985769 
L 288.183342 237.282541 
L 288.171199 236.586741 
L 288.149235 235.898214 
L 288.134071 235.216808 
L 288.138885 234.542377 
L 288.160818 233.874782 
L 288.185264 233.213884 
L 288.200073 232.55955 
L 288.201456 231.911651 
L 288.19041 231.270062 
L 288.171062 230.634661 
L 288.151579 230.00533 
L 288.140285 229.381955 
L 288.139569 228.764422 
L 288.145033 228.152625 
L 288.151066 227.546457 
L 288.157753 226.945815 
L 288.168485 226.350601 
L 288.18015 225.760716 
L 288.183847 225.176066 
L 288.177359 224.596558 
L 288.170321 224.022105 
L 288.173515 223.452617 
L 288.186524 222.888009 
L 288.200373 222.3282 
L 288.208856 221.773108 
L 288.212236 221.222653 
L 288.213096 220.67676 
L 288.212879 220.135353 
L 288.211147 219.59836 
L 288.205722 219.065708 
L 288.194472 218.537328 
L 288.179897 218.013152 
L 288.170879 217.493114 
L 288.174717 216.97715 
L 288.188172 216.465194 
L 288.201596 215.957187 
L 288.209425 215.453067 
L 288.21242 214.952775 
L 288.213202 214.456254 
L 288.213344 213.963447 
L 288.213363 213.4743 
L 288.213364 212.988757 
L 288.213364 212.506767 
L 288.213364 212.028278 
L 288.213364 211.553239 
L 288.213364 211.0816 
L 288.213364 210.613315 
L 288.213364 210.148334 
L 288.213363 209.686613 
L 288.213352 209.228105 
L 288.213258 208.772766 
L 288.2127 208.320552 
L 288.210387 207.871422 
L 288.203807 207.425333 
L 288.191378 206.982244 
L 288.177119 206.542116 
L 288.170548 206.104908 
L 288.256181 206.104908 
L 288.256181 206.104908 
L 288.249609 206.542116 
L 288.235351 206.982244 
L 288.222921 207.425333 
L 288.216341 207.871422 
L 288.214029 208.320552 
L 288.213471 208.772766 
L 288.213377 209.228105 
L 288.213365 209.686613 
L 288.213364 210.148334 
L 288.213364 210.613315 
L 288.213364 211.0816 
L 288.213364 211.553239 
L 288.213364 212.028278 
L 288.213364 212.506767 
L 288.213364 212.988757 
L 288.213366 213.4743 
L 288.213384 213.963447 
L 288.213527 214.456254 
L 288.214309 214.952775 
L 288.217303 215.453067 
L 288.225132 215.957187 
L 288.238557 216.465194 
L 288.252012 216.97715 
L 288.25585 217.493114 
L 288.246832 218.013152 
L 288.232256 218.537328 
L 288.221006 219.065708 
L 288.215582 219.59836 
L 288.21385 220.135353 
L 288.213633 220.67676 
L 288.214493 221.222653 
L 288.217873 221.773108 
L 288.226356 222.3282 
L 288.240205 222.888009 
L 288.253214 223.452617 
L 288.256408 224.022105 
L 288.24937 224.596558 
L 288.242882 225.176066 
L 288.246579 225.760716 
L 288.258244 226.350601 
L 288.268976 226.945815 
L 288.275662 227.546457 
L 288.281696 228.152625 
L 288.287159 228.764422 
L 288.286444 229.381955 
L 288.275149 230.00533 
L 288.255667 230.634661 
L 288.236319 231.270062 
L 288.225272 231.911651 
L 288.226656 232.55955 
L 288.241464 233.213884 
L 288.265911 233.874782 
L 288.287844 234.542377 
L 288.292657 235.216808 
L 288.277494 235.898214 
L 288.25553 236.586741 
L 288.243386 237.282541 
L 288.246222 237.985769 
L 288.254712 238.696584 
L 288.255451 239.415152 
L 288.2448 240.141644 
L 288.230725 240.876238 
L 288.222875 241.619115 
L 288.227505 242.370464 
L 288.250463 243.130482 
L 288.294497 243.89937 
L 288.34892 244.677338 
L 288.390714 245.464603 
L 288.404057 246.26139 
L 288.395595 247.067932 
L 288.390361 247.88447 
L 288.415902 248.711257 
L 288.483654 249.548552 
L 288.581035 250.396625 
L 288.682616 251.255758 
L 288.760093 252.126244 
L 288.784726 253.008386 
L 288.752875 253.902501 
L 288.711244 254.808917 
L 288.722189 255.727979 
L 288.808078 256.660045 
L 288.948338 257.605487 
L 289.110352 258.564694 
L 289.270799 259.538075 
L 289.439163 260.526054 
L 289.691084 261.529075 
L 290.166243 262.547603 
L 291.016702 263.582127 
L 292.366235 264.633155 
L 294.317225 265.701223 
L 296.989655 266.786894 
L 300.535713 267.890756 
L 304.955894 269.01343 
L 309.614064 270.155569 
L 312.927885 271.317858 
L 313.02948 272.501022 
L 309.230149 273.705825 
L 302.8757 274.933072 
L 296.490103 276.183616 
z
" clip-path="url(#pfdf61e0645)" style="fill: #1f78b4; fill-opacity: 0.3"/>
   </g>
   <g id="PolyCollection_3">
    <path d="M 456.810512 308.703016 
L 450.497759 308.703016 
L 445.454723 307.201734 
L 437.806722 305.733902 
L 431.274641 304.298063 
L 428.83802 302.892853 
L 430.265102 301.51699 
L 434.67566 300.169275 
L 440.083292 298.84858 
L 444.654251 297.553841 
L 448.037497 296.284058 
L 450.23122 295.038287 
L 451.49515 293.815638 
L 452.191181 292.615266 
L 452.567663 291.436376 
L 452.787638 290.278212 
L 452.950725 289.140056 
L 453.0775 288.021231 
L 453.138656 286.92109 
L 453.149477 285.839019 
L 453.179496 284.774434 
L 453.26507 283.72678 
L 453.353262 282.695526 
L 453.388681 281.680166 
L 453.372808 280.680218 
L 453.359862 279.695221 
L 453.402371 278.724735 
L 453.486482 277.768338 
L 453.560975 276.825627 
L 453.589997 275.896216 
L 453.581866 274.979735 
L 453.57352 274.075829 
L 453.586719 273.184157 
L 453.610225 272.304393 
L 453.61427 271.436223 
L 453.587158 270.579346 
L 453.561319 269.73347 
L 453.575048 268.898318 
L 453.614134 268.073621 
L 453.642167 267.25912 
L 453.652004 266.454566 
L 453.653706 265.65972 
L 453.652369 264.87435 
L 453.645278 264.098232 
L 453.626515 263.331151 
L 453.596494 262.572899 
L 453.560579 261.823275 
L 453.523674 261.082085 
L 453.510577 260.349142 
L 453.54509 259.624263 
L 453.600789 258.907273 
L 453.637752 258.198003 
L 453.651015 257.496288 
L 453.65377 256.801968 
L 453.65411 256.11489 
L 453.654135 255.434903 
L 453.654136 254.761864 
L 453.654136 254.095631 
L 453.654136 253.436069 
L 453.654136 252.783044 
L 453.654136 252.136429 
L 453.654136 251.496099 
L 453.654136 250.861933 
L 453.654136 250.233813 
L 453.654136 249.611626 
L 453.654136 248.99526 
L 453.654136 248.384607 
L 453.654136 247.779563 
L 453.654136 247.180025 
L 453.654136 246.585893 
L 453.654136 245.997073 
L 453.654136 245.413468 
L 453.654136 244.834988 
L 453.654136 244.261544 
L 453.654136 243.693048 
L 453.654136 243.129416 
L 453.654136 242.570565 
L 453.654136 242.016415 
L 453.654136 241.466887 
L 453.654136 240.921906 
L 453.654136 240.381396 
L 453.654136 239.845284 
L 453.654136 239.3135 
L 453.654136 238.785974 
L 453.654136 238.262639 
L 453.654136 237.743429 
L 453.654136 237.228278 
L 453.654136 236.717125 
L 453.654136 236.209907 
L 453.654136 235.706564 
L 453.654136 235.207038 
L 453.654136 234.711272 
L 453.654136 234.219208 
L 453.654136 233.730792 
L 453.654132 233.245971 
L 453.654071 232.764692 
L 453.653445 232.286903 
L 453.64977 231.812554 
L 453.637834 231.341596 
L 453.618201 230.873982 
L 453.607368 230.409663 
L 453.700903 230.409663 
L 453.700903 230.409663 
L 453.690071 230.873982 
L 453.670437 231.341596 
L 453.658502 231.812554 
L 453.654826 232.286903 
L 453.6542 232.764692 
L 453.654139 233.245971 
L 453.654136 233.730792 
L 453.654136 234.219208 
L 453.654136 234.711272 
L 453.654136 235.207038 
L 453.654136 235.706564 
L 453.654136 236.209907 
L 453.654136 236.717125 
L 453.654136 237.228278 
L 453.654136 237.743429 
L 453.654136 238.262639 
L 453.654136 238.785974 
L 453.654136 239.3135 
L 453.654136 239.845284 
L 453.654136 240.381396 
L 453.654136 240.921906 
L 453.654136 241.466887 
L 453.654136 242.016415 
L 453.654136 242.570565 
L 453.654136 243.129416 
L 453.654136 243.693048 
L 453.654136 244.261544 
L 453.654136 244.834988 
L 453.654136 245.413468 
L 453.654136 245.997073 
L 453.654136 246.585893 
L 453.654136 247.180025 
L 453.654136 247.779563 
L 453.654136 248.384607 
L 453.654136 248.99526 
L 453.654136 249.611626 
L 453.654136 250.233813 
L 453.654136 250.861933 
L 453.654136 251.496099 
L 453.654136 252.136429 
L 453.654136 252.783044 
L 453.654136 253.436069 
L 453.654136 254.095631 
L 453.654136 254.761864 
L 453.654137 255.434903 
L 453.654162 256.11489 
L 453.654501 256.801968 
L 453.657257 257.496288 
L 453.670519 258.198003 
L 453.707482 258.907273 
L 453.763182 259.624263 
L 453.797694 260.349142 
L 453.784598 261.082085 
L 453.747692 261.823275 
L 453.711777 262.572899 
L 453.681756 263.331151 
L 453.662994 264.098232 
L 453.655902 264.87435 
L 453.654565 265.65972 
L 453.656268 266.454566 
L 453.666104 267.25912 
L 453.694137 268.073621 
L 453.733223 268.898318 
L 453.746953 269.73347 
L 453.721114 270.579346 
L 453.694001 271.436223 
L 453.698046 272.304393 
L 453.721553 273.184157 
L 453.734751 274.075829 
L 453.726405 274.979735 
L 453.718274 275.896216 
L 453.747297 276.825627 
L 453.82179 277.768338 
L 453.9059 278.724735 
L 453.94841 279.695221 
L 453.935464 280.680218 
L 453.91959 281.680166 
L 453.95501 282.695526 
L 454.043201 283.72678 
L 454.128775 284.774434 
L 454.158795 285.839019 
L 454.169616 286.92109 
L 454.230772 288.021231 
L 454.357546 289.140056 
L 454.520634 290.278212 
L 454.740609 291.436376 
L 455.117091 292.615266 
L 455.813122 293.815638 
L 457.077052 295.038287 
L 459.270774 296.284058 
L 462.65402 297.553841 
L 467.224979 298.84858 
L 472.632611 300.169275 
L 477.043169 301.51699 
L 478.470251 302.892853 
L 476.03363 304.298063 
L 469.501549 305.733902 
L 461.853548 307.201734 
L 456.810512 308.703016 
z
" clip-path="url(#pfdf61e0645)" style="fill: #8fbbd9; fill-opacity: 0.3"/>
   </g>
   <g id="PolyCollection_4">
    <path d="M 621.176279 332.984418 
L 617.013535 332.984418 
L 614.819318 331.914869 
L 611.349704 330.862406 
L 606.92956 329.826493 
L 602.512752 328.806618 
L 599.100451 327.802291 
L 596.955271 326.813045 
L 595.564867 325.838434 
L 594.53114 324.878032 
L 594.278791 323.93143 
L 595.596052 322.998237 
L 598.582177 322.078078 
L 602.37246 321.170595 
L 605.915099 320.275443 
L 608.752803 319.392291 
L 610.999317 318.520821 
L 612.847549 317.66073 
L 614.324214 316.811723 
L 615.414842 315.973518 
L 616.198027 315.145845 
L 616.791214 314.32844 
L 617.249307 313.521054 
L 617.571162 312.723443 
L 617.770563 311.935374 
L 617.898796 311.156621 
L 618.008495 310.386965 
L 618.125442 309.626198 
L 618.256295 308.874116 
L 618.402018 308.130522 
L 618.554712 307.395229 
L 618.693196 306.668051 
L 618.794966 305.948813 
L 618.853854 305.237342 
L 618.881449 304.533473 
L 618.891118 303.837045 
L 618.885444 303.147902 
L 618.861687 302.465893 
L 618.825156 301.790873 
L 618.790958 301.122699 
L 618.772017 300.461234 
L 618.770046 299.806344 
L 618.780103 299.157901 
L 618.799526 298.515778 
L 618.828233 297.879853 
L 618.862576 297.250009 
L 618.893929 296.626129 
L 618.914317 296.008101 
L 618.920826 295.395818 
L 618.91363 294.789173 
L 618.893056 294.188064 
L 618.862722 293.592389 
L 618.834889 293.002053 
L 618.826888 292.416959 
L 618.847557 291.837016 
L 618.888 291.262134 
L 618.928643 290.692226 
L 618.955934 290.127205 
L 618.971461 289.566989 
L 618.985991 289.011497 
L 619.007087 288.460649 
L 619.033013 287.914369 
L 619.056201 287.372582 
L 619.069946 286.835214 
L 619.071994 286.302194 
L 619.064587 285.773452 
L 619.053314 285.24892 
L 619.045165 284.728532 
L 619.045232 284.212221 
L 619.053723 283.699926 
L 619.066123 283.191584 
L 619.076435 282.687134 
L 619.080356 282.186518 
L 619.0764 281.689677 
L 619.065846 281.196555 
L 619.052539 280.707097 
L 619.041543 280.221248 
L 619.036046 279.738957 
L 619.035077 279.26017 
L 619.035231 278.784839 
L 619.035091 278.312912 
L 619.037046 277.844342 
L 619.044242 277.379081 
L 619.056494 276.917083 
L 619.069877 276.458302 
L 619.079661 276.002694 
L 619.08284 275.550215 
L 619.078611 275.100823 
L 619.068243 274.654476 
L 619.055438 274.211133 
L 619.045768 273.770753 
L 619.043744 273.333297 
L 619.049231 272.898727 
L 619.056847 272.467005 
L 619.059467 272.038094 
L 619.052982 271.611957 
L 619.038745 271.188559 
L 619.02247 270.767864 
L 619.010953 270.349839 
L 619.008935 269.93445 
L 619.017511 269.521664 
L 619.172303 269.521664 
L 619.172303 269.521664 
L 619.180879 269.93445 
L 619.178861 270.349839 
L 619.167344 270.767864 
L 619.151069 271.188559 
L 619.136832 271.611957 
L 619.130347 272.038094 
L 619.132967 272.467005 
L 619.140583 272.898727 
L 619.14607 273.333297 
L 619.144046 273.770753 
L 619.134376 274.211133 
L 619.121571 274.654476 
L 619.111203 275.100823 
L 619.106974 275.550215 
L 619.110153 276.002694 
L 619.119937 276.458302 
L 619.13332 276.917083 
L 619.145572 277.379081 
L 619.152768 277.844342 
L 619.154723 278.312912 
L 619.154583 278.784839 
L 619.154737 279.26017 
L 619.153768 279.738957 
L 619.148271 280.221248 
L 619.137275 280.707097 
L 619.123968 281.196555 
L 619.113414 281.689677 
L 619.109458 282.186518 
L 619.113379 282.687134 
L 619.123691 283.191584 
L 619.136091 283.699926 
L 619.144582 284.212221 
L 619.144649 284.728532 
L 619.1365 285.24892 
L 619.125227 285.773452 
L 619.11782 286.302194 
L 619.119868 286.835214 
L 619.133613 287.372582 
L 619.156801 287.914369 
L 619.182727 288.460649 
L 619.203823 289.011497 
L 619.218353 289.566989 
L 619.23388 290.127205 
L 619.261171 290.692226 
L 619.301814 291.262134 
L 619.342257 291.837016 
L 619.362926 292.416959 
L 619.354925 293.002053 
L 619.327092 293.592389 
L 619.296758 294.188064 
L 619.276184 294.789173 
L 619.268988 295.395818 
L 619.275497 296.008101 
L 619.295885 296.626129 
L 619.327238 297.250009 
L 619.361581 297.879853 
L 619.390288 298.515778 
L 619.409711 299.157901 
L 619.419768 299.806344 
L 619.417797 300.461234 
L 619.398856 301.122699 
L 619.364658 301.790873 
L 619.328127 302.465893 
L 619.30437 303.147902 
L 619.298696 303.837045 
L 619.308365 304.533473 
L 619.33596 305.237342 
L 619.394848 305.948813 
L 619.496618 306.668051 
L 619.635102 307.395229 
L 619.787796 308.130522 
L 619.933519 308.874116 
L 620.064372 309.626198 
L 620.181319 310.386965 
L 620.291018 311.156621 
L 620.419251 311.935374 
L 620.618652 312.723443 
L 620.940507 313.521054 
L 621.3986 314.32844 
L 621.991787 315.145845 
L 622.774972 315.973518 
L 623.8656 316.811723 
L 625.342265 317.66073 
L 627.190497 318.520821 
L 629.437011 319.392291 
L 632.274715 320.275443 
L 635.817354 321.170595 
L 639.607637 322.078078 
L 642.593763 322.998237 
L 643.911023 323.93143 
L 643.658674 324.878032 
L 642.624947 325.838434 
L 641.234543 326.813045 
L 639.089363 327.802291 
L 635.677062 328.806618 
L 631.260255 329.826493 
L 626.84011 330.862406 
L 623.370496 331.914869 
L 621.176279 332.984418 
z
" clip-path="url(#pfdf61e0645)" style="fill: #b2df8a; fill-opacity: 0.3"/>
   </g>
   <g id="LineCollection_1">
    <path d="M 110.364535 50.069211 
L 135.180651 50.069211 
" clip-path="url(#pfdf61e0645)" style="fill: none; stroke: #ff7f00; stroke-width: 3; stroke-linecap: round"/>
    <path d="M 275.805306 269.443292 
L 300.621422 269.443292 
" clip-path="url(#pfdf61e0645)" style="fill: none; stroke: #1f78b4; stroke-width: 3; stroke-linecap: round"/>
    <path d="M 441.246078 300.611113 
L 466.062194 300.611113 
" clip-path="url(#pfdf61e0645)" style="fill: none; stroke: #8fbbd9; stroke-width: 3; stroke-linecap: round"/>
    <path d="M 606.686849 322.453074 
L 631.502965 322.453074 
" clip-path="url(#pfdf61e0645)" style="fill: none; stroke: #b2df8a; stroke-width: 3; stroke-linecap: round"/>
   </g>
   <g id="patch_3">
    <path d="M 70.65875 350.12 
L 70.65875 7.2 
" style="fill: none; stroke: #000000; stroke-width: 0.7; stroke-linejoin: miter; stroke-linecap: square"/>
   </g>
   <g id="patch_4">
    <path d="M 671.20875 350.12 
L 671.20875 7.2 
" style="fill: none; stroke: #000000; stroke-width: 0.7; stroke-linejoin: miter; stroke-linecap: square"/>
   </g>
   <g id="patch_5">
    <path d="M 70.65875 350.12 
L 671.20875 350.12 
" style="fill: none; stroke: #000000; stroke-width: 0.7; stroke-linejoin: miter; stroke-linecap: square"/>
   </g>
   <g id="patch_6">
    <path d="M 70.65875 7.2 
L 671.20875 7.2 
" style="fill: none; stroke: #000000; stroke-width: 0.7; stroke-linejoin: miter; stroke-linecap: square"/>
   </g>
  </g>
 </g>
 <defs>
  <clipPath id="pfdf61e0645">
   <rect x="70.65875" y="7.2" width="600.55" height="342.92"/>
  </clipPath>
 </defs>
</svg>
