<?xml version="1.0" encoding="utf-8" standalone="no"?>
<!DOCTYPE svg PUBLIC "-//W3C//DTD SVG 1.1//EN"
  "http://www.w3.org/Graphics/SVG/1.1/DTD/svg11.dtd">
<svg xmlns:xlink="http://www.w3.org/1999/xlink" width="678.40875pt" height="375.93375pt" viewBox="0 0 678.40875 375.93375" xmlns="http://www.w3.org/2000/svg" version="1.1">
 <metadata>
  <rdf:RDF xmlns:dc="http://purl.org/dc/elements/1.1/" xmlns:cc="http://creativecommons.org/ns#" xmlns:rdf="http://www.w3.org/1999/02/22-rdf-syntax-ns#">
   <cc:Work>
    <dc:type rdf:resource="http://purl.org/dc/dcmitype/StillImage"/>
    <dc:date>2024-08-20T01:13:33.527381</dc:date>
    <dc:format>image/svg+xml</dc:format>
    <dc:creator>
     <cc:Agent>
      <dc:title>Matplotlib v3.8.2, https://matplotlib.org/</dc:title>
     </cc:Agent>
    </dc:creator>
   </cc:Work>
  </rdf:RDF>
 </metadata>
 <defs>
  <style type="text/css">*{stroke-linejoin: round; stroke-linecap: butt}</style>
 </defs>
 <g id="figure_1">
  <g id="patch_1">
   <path d="M 0 375.93375 
L 678.40875 375.93375 
L 678.40875 0 
L 0 0 
z
" style="fill: #ffffff"/>
  </g>
  <g id="axes_1">
   <g id="patch_2">
    <path d="M 70.65875 350.12 
L 671.20875 350.12 
L 671.20875 7.2 
L 70.65875 7.2 
z
" style="fill: #ffffff"/>
   </g>
   <g id="matplotlib.axis_1">
    <g id="xtick_1">
     <g id="line2d_1">
      <path d="M 122.772593 350.12 
L 122.772593 7.2 
" clip-path="url(#pf19d9241b9)" style="fill: none; stroke: #e6e6e6; stroke-width: 0.8; stroke-linecap: square"/>
     </g>
     <g id="line2d_2">
      <defs>
       <path id="md81198676a" d="M 0 0 
L 0 3.5 
" style="stroke: #000000; stroke-width: 0.8"/>
      </defs>
      <g>
       <use xlink:href="#md81198676a" x="122.772593" y="350.12" style="stroke: #000000; stroke-width: 0.8"/>
      </g>
     </g>
     <g id="text_1">
      <!-- Stata -->
      <g transform="translate(106.905405 366.238125) scale(0.12 -0.12)">
       <defs>
        <path id="DejaVuSans-53" d="M 3425 4513 
L 3425 3897 
Q 3066 4069 2747 4153 
Q 2428 4238 2131 4238 
Q 1616 4238 1336 4038 
Q 1056 3838 1056 3469 
Q 1056 3159 1242 3001 
Q 1428 2844 1947 2747 
L 2328 2669 
Q 3034 2534 3370 2195 
Q 3706 1856 3706 1288 
Q 3706 609 3251 259 
Q 2797 -91 1919 -91 
Q 1588 -91 1214 -16 
Q 841 59 441 206 
L 441 856 
Q 825 641 1194 531 
Q 1563 422 1919 422 
Q 2459 422 2753 634 
Q 3047 847 3047 1241 
Q 3047 1584 2836 1778 
Q 2625 1972 2144 2069 
L 1759 2144 
Q 1053 2284 737 2584 
Q 422 2884 422 3419 
Q 422 4038 858 4394 
Q 1294 4750 2059 4750 
Q 2388 4750 2728 4690 
Q 3069 4631 3425 4513 
z
" transform="scale(0.015625)"/>
        <path id="DejaVuSans-74" d="M 1172 4494 
L 1172 3500 
L 2356 3500 
L 2356 3053 
L 1172 3053 
L 1172 1153 
Q 1172 725 1289 603 
Q 1406 481 1766 481 
L 2356 481 
L 2356 0 
L 1766 0 
Q 1100 0 847 248 
Q 594 497 594 1153 
L 594 3053 
L 172 3053 
L 172 3500 
L 594 3500 
L 594 4494 
L 1172 4494 
z
" transform="scale(0.015625)"/>
        <path id="DejaVuSans-61" d="M 2194 1759 
Q 1497 1759 1228 1600 
Q 959 1441 959 1056 
Q 959 750 1161 570 
Q 1363 391 1709 391 
Q 2188 391 2477 730 
Q 2766 1069 2766 1631 
L 2766 1759 
L 2194 1759 
z
M 3341 1997 
L 3341 0 
L 2766 0 
L 2766 531 
Q 2569 213 2275 61 
Q 1981 -91 1556 -91 
Q 1019 -91 701 211 
Q 384 513 384 1019 
Q 384 1609 779 1909 
Q 1175 2209 1959 2209 
L 2766 2209 
L 2766 2266 
Q 2766 2663 2505 2880 
Q 2244 3097 1772 3097 
Q 1472 3097 1187 3025 
Q 903 2953 641 2809 
L 641 3341 
Q 956 3463 1253 3523 
Q 1550 3584 1831 3584 
Q 2591 3584 2966 3190 
Q 3341 2797 3341 1997 
z
" transform="scale(0.015625)"/>
       </defs>
       <use xlink:href="#DejaVuSans-53"/>
       <use xlink:href="#DejaVuSans-74" x="63.476562"/>
       <use xlink:href="#DejaVuSans-61" x="102.685547"/>
       <use xlink:href="#DejaVuSans-74" x="163.964844"/>
       <use xlink:href="#DejaVuSans-61" x="203.173828"/>
      </g>
     </g>
    </g>
    <g id="xtick_2">
     <g id="line2d_3">
      <path d="M 288.213364 350.12 
L 288.213364 7.2 
" clip-path="url(#pf19d9241b9)" style="fill: none; stroke: #e6e6e6; stroke-width: 0.8; stroke-linecap: square"/>
     </g>
     <g id="line2d_4">
      <g>
       <use xlink:href="#md81198676a" x="288.213364" y="350.12" style="stroke: #000000; stroke-width: 0.8"/>
      </g>
     </g>
     <g id="text_2">
      <!-- SciPy -->
      <g transform="translate(272.269302 366.238125) scale(0.12 -0.12)">
       <defs>
        <path id="DejaVuSans-63" d="M 3122 3366 
L 3122 2828 
Q 2878 2963 2633 3030 
Q 2388 3097 2138 3097 
Q 1578 3097 1268 2742 
Q 959 2388 959 1747 
Q 959 1106 1268 751 
Q 1578 397 2138 397 
Q 2388 397 2633 464 
Q 2878 531 3122 666 
L 3122 134 
Q 2881 22 2623 -34 
Q 2366 -91 2075 -91 
Q 1284 -91 818 406 
Q 353 903 353 1747 
Q 353 2603 823 3093 
Q 1294 3584 2113 3584 
Q 2378 3584 2631 3529 
Q 2884 3475 3122 3366 
z
" transform="scale(0.015625)"/>
        <path id="DejaVuSans-69" d="M 603 3500 
L 1178 3500 
L 1178 0 
L 603 0 
L 603 3500 
z
M 603 4863 
L 1178 4863 
L 1178 4134 
L 603 4134 
L 603 4863 
z
" transform="scale(0.015625)"/>
        <path id="DejaVuSans-50" d="M 1259 4147 
L 1259 2394 
L 2053 2394 
Q 2494 2394 2734 2622 
Q 2975 2850 2975 3272 
Q 2975 3691 2734 3919 
Q 2494 4147 2053 4147 
L 1259 4147 
z
M 628 4666 
L 2053 4666 
Q 2838 4666 3239 4311 
Q 3641 3956 3641 3272 
Q 3641 2581 3239 2228 
Q 2838 1875 2053 1875 
L 1259 1875 
L 1259 0 
L 628 0 
L 628 4666 
z
" transform="scale(0.015625)"/>
        <path id="DejaVuSans-79" d="M 2059 -325 
Q 1816 -950 1584 -1140 
Q 1353 -1331 966 -1331 
L 506 -1331 
L 506 -850 
L 844 -850 
Q 1081 -850 1212 -737 
Q 1344 -625 1503 -206 
L 1606 56 
L 191 3500 
L 800 3500 
L 1894 763 
L 2988 3500 
L 3597 3500 
L 2059 -325 
z
" transform="scale(0.015625)"/>
       </defs>
       <use xlink:href="#DejaVuSans-53"/>
       <use xlink:href="#DejaVuSans-63" x="63.476562"/>
       <use xlink:href="#DejaVuSans-69" x="118.457031"/>
       <use xlink:href="#DejaVuSans-50" x="146.240234"/>
       <use xlink:href="#DejaVuSans-79" x="206.542969"/>
      </g>
     </g>
    </g>
    <g id="xtick_3">
     <g id="line2d_5">
      <path d="M 453.654136 350.12 
L 453.654136 7.2 
" clip-path="url(#pf19d9241b9)" style="fill: none; stroke: #e6e6e6; stroke-width: 0.8; stroke-linecap: square"/>
     </g>
     <g id="line2d_6">
      <g>
       <use xlink:href="#md81198676a" x="453.654136" y="350.12" style="stroke: #000000; stroke-width: 0.8"/>
      </g>
     </g>
     <g id="text_3">
      <!-- SciPy (with Jacobian) -->
      <g transform="translate(391.113511 366.238125) scale(0.12 -0.12)">
       <defs>
        <path id="DejaVuSans-20" transform="scale(0.015625)"/>
        <path id="DejaVuSans-28" d="M 1984 4856 
Q 1566 4138 1362 3434 
Q 1159 2731 1159 2009 
Q 1159 1288 1364 580 
Q 1569 -128 1984 -844 
L 1484 -844 
Q 1016 -109 783 600 
Q 550 1309 550 2009 
Q 550 2706 781 3412 
Q 1013 4119 1484 4856 
L 1984 4856 
z
" transform="scale(0.015625)"/>
        <path id="DejaVuSans-77" d="M 269 3500 
L 844 3500 
L 1563 769 
L 2278 3500 
L 2956 3500 
L 3675 769 
L 4391 3500 
L 4966 3500 
L 4050 0 
L 3372 0 
L 2619 2869 
L 1863 0 
L 1184 0 
L 269 3500 
z
" transform="scale(0.015625)"/>
        <path id="DejaVuSans-68" d="M 3513 2113 
L 3513 0 
L 2938 0 
L 2938 2094 
Q 2938 2591 2744 2837 
Q 2550 3084 2163 3084 
Q 1697 3084 1428 2787 
Q 1159 2491 1159 1978 
L 1159 0 
L 581 0 
L 581 4863 
L 1159 4863 
L 1159 2956 
Q 1366 3272 1645 3428 
Q 1925 3584 2291 3584 
Q 2894 3584 3203 3211 
Q 3513 2838 3513 2113 
z
" transform="scale(0.015625)"/>
        <path id="DejaVuSans-4a" d="M 628 4666 
L 1259 4666 
L 1259 325 
Q 1259 -519 939 -900 
Q 619 -1281 -91 -1281 
L -331 -1281 
L -331 -750 
L -134 -750 
Q 284 -750 456 -515 
Q 628 -281 628 325 
L 628 4666 
z
" transform="scale(0.015625)"/>
        <path id="DejaVuSans-6f" d="M 1959 3097 
Q 1497 3097 1228 2736 
Q 959 2375 959 1747 
Q 959 1119 1226 758 
Q 1494 397 1959 397 
Q 2419 397 2687 759 
Q 2956 1122 2956 1747 
Q 2956 2369 2687 2733 
Q 2419 3097 1959 3097 
z
M 1959 3584 
Q 2709 3584 3137 3096 
Q 3566 2609 3566 1747 
Q 3566 888 3137 398 
Q 2709 -91 1959 -91 
Q 1206 -91 779 398 
Q 353 888 353 1747 
Q 353 2609 779 3096 
Q 1206 3584 1959 3584 
z
" transform="scale(0.015625)"/>
        <path id="DejaVuSans-62" d="M 3116 1747 
Q 3116 2381 2855 2742 
Q 2594 3103 2138 3103 
Q 1681 3103 1420 2742 
Q 1159 2381 1159 1747 
Q 1159 1113 1420 752 
Q 1681 391 2138 391 
Q 2594 391 2855 752 
Q 3116 1113 3116 1747 
z
M 1159 2969 
Q 1341 3281 1617 3432 
Q 1894 3584 2278 3584 
Q 2916 3584 3314 3078 
Q 3713 2572 3713 1747 
Q 3713 922 3314 415 
Q 2916 -91 2278 -91 
Q 1894 -91 1617 61 
Q 1341 213 1159 525 
L 1159 0 
L 581 0 
L 581 4863 
L 1159 4863 
L 1159 2969 
z
" transform="scale(0.015625)"/>
        <path id="DejaVuSans-6e" d="M 3513 2113 
L 3513 0 
L 2938 0 
L 2938 2094 
Q 2938 2591 2744 2837 
Q 2550 3084 2163 3084 
Q 1697 3084 1428 2787 
Q 1159 2491 1159 1978 
L 1159 0 
L 581 0 
L 581 3500 
L 1159 3500 
L 1159 2956 
Q 1366 3272 1645 3428 
Q 1925 3584 2291 3584 
Q 2894 3584 3203 3211 
Q 3513 2838 3513 2113 
z
" transform="scale(0.015625)"/>
        <path id="DejaVuSans-29" d="M 513 4856 
L 1013 4856 
Q 1481 4119 1714 3412 
Q 1947 2706 1947 2009 
Q 1947 1309 1714 600 
Q 1481 -109 1013 -844 
L 513 -844 
Q 928 -128 1133 580 
Q 1338 1288 1338 2009 
Q 1338 2731 1133 3434 
Q 928 4138 513 4856 
z
" transform="scale(0.015625)"/>
       </defs>
       <use xlink:href="#DejaVuSans-53"/>
       <use xlink:href="#DejaVuSans-63" x="63.476562"/>
       <use xlink:href="#DejaVuSans-69" x="118.457031"/>
       <use xlink:href="#DejaVuSans-50" x="146.240234"/>
       <use xlink:href="#DejaVuSans-79" x="206.542969"/>
       <use xlink:href="#DejaVuSans-20" x="265.722656"/>
       <use xlink:href="#DejaVuSans-28" x="297.509766"/>
       <use xlink:href="#DejaVuSans-77" x="336.523438"/>
       <use xlink:href="#DejaVuSans-69" x="418.310547"/>
       <use xlink:href="#DejaVuSans-74" x="446.09375"/>
       <use xlink:href="#DejaVuSans-68" x="485.302734"/>
       <use xlink:href="#DejaVuSans-20" x="548.681641"/>
       <use xlink:href="#DejaVuSans-4a" x="580.46875"/>
       <use xlink:href="#DejaVuSans-61" x="609.960938"/>
       <use xlink:href="#DejaVuSans-63" x="671.240234"/>
       <use xlink:href="#DejaVuSans-6f" x="726.220703"/>
       <use xlink:href="#DejaVuSans-62" x="787.402344"/>
       <use xlink:href="#DejaVuSans-69" x="850.878906"/>
       <use xlink:href="#DejaVuSans-61" x="878.662109"/>
       <use xlink:href="#DejaVuSans-6e" x="939.941406"/>
       <use xlink:href="#DejaVuSans-29" x="1003.320312"/>
      </g>
     </g>
    </g>
    <g id="xtick_4">
     <g id="line2d_7">
      <path d="M 619.094907 350.12 
L 619.094907 7.2 
" clip-path="url(#pf19d9241b9)" style="fill: none; stroke: #e6e6e6; stroke-width: 0.8; stroke-linecap: square"/>
     </g>
     <g id="line2d_8">
      <g>
       <use xlink:href="#md81198676a" x="619.094907" y="350.12" style="stroke: #000000; stroke-width: 0.8"/>
      </g>
     </g>
     <g id="text_4">
      <!-- CVXPY -->
      <g transform="translate(599.543345 366.238125) scale(0.12 -0.12)">
       <defs>
        <path id="DejaVuSans-43" d="M 4122 4306 
L 4122 3641 
Q 3803 3938 3442 4084 
Q 3081 4231 2675 4231 
Q 1875 4231 1450 3742 
Q 1025 3253 1025 2328 
Q 1025 1406 1450 917 
Q 1875 428 2675 428 
Q 3081 428 3442 575 
Q 3803 722 4122 1019 
L 4122 359 
Q 3791 134 3420 21 
Q 3050 -91 2638 -91 
Q 1578 -91 968 557 
Q 359 1206 359 2328 
Q 359 3453 968 4101 
Q 1578 4750 2638 4750 
Q 3056 4750 3426 4639 
Q 3797 4528 4122 4306 
z
" transform="scale(0.015625)"/>
        <path id="DejaVuSans-56" d="M 1831 0 
L 50 4666 
L 709 4666 
L 2188 738 
L 3669 4666 
L 4325 4666 
L 2547 0 
L 1831 0 
z
" transform="scale(0.015625)"/>
        <path id="DejaVuSans-58" d="M 403 4666 
L 1081 4666 
L 2241 2931 
L 3406 4666 
L 4084 4666 
L 2584 2425 
L 4184 0 
L 3506 0 
L 2194 1984 
L 872 0 
L 191 0 
L 1856 2491 
L 403 4666 
z
" transform="scale(0.015625)"/>
        <path id="DejaVuSans-59" d="M -13 4666 
L 666 4666 
L 1959 2747 
L 3244 4666 
L 3922 4666 
L 2272 2222 
L 2272 0 
L 1638 0 
L 1638 2222 
L -13 4666 
z
" transform="scale(0.015625)"/>
       </defs>
       <use xlink:href="#DejaVuSans-43"/>
       <use xlink:href="#DejaVuSans-56" x="69.824219"/>
       <use xlink:href="#DejaVuSans-58" x="138.232422"/>
       <use xlink:href="#DejaVuSans-50" x="206.738281"/>
       <use xlink:href="#DejaVuSans-59" x="264.791016"/>
      </g>
     </g>
    </g>
   </g>
   <g id="matplotlib.axis_2">
    <g id="ytick_1">
     <g id="line2d_9">
      <path d="M 70.65875 350.12 
L 671.20875 350.12 
" clip-path="url(#pf19d9241b9)" style="fill: none; stroke: #e6e6e6; stroke-width: 0.8; stroke-linecap: square"/>
     </g>
     <g id="line2d_10">
      <defs>
       <path id="mdad4d0e68f" d="M 0 0 
L -3.5 0 
" style="stroke: #000000; stroke-width: 0.8"/>
      </defs>
      <g>
       <use xlink:href="#mdad4d0e68f" x="70.65875" y="350.12" style="stroke: #000000; stroke-width: 0.8"/>
      </g>
     </g>
     <g id="text_5">
      <!-- 10ms -->
      <g transform="translate(30.44875 354.679062) scale(0.12 -0.12)">
       <defs>
        <path id="DejaVuSans-31" d="M 794 531 
L 1825 531 
L 1825 4091 
L 703 3866 
L 703 4441 
L 1819 4666 
L 2450 4666 
L 2450 531 
L 3481 531 
L 3481 0 
L 794 0 
L 794 531 
z
" transform="scale(0.015625)"/>
        <path id="DejaVuSans-30" d="M 2034 4250 
Q 1547 4250 1301 3770 
Q 1056 3291 1056 2328 
Q 1056 1369 1301 889 
Q 1547 409 2034 409 
Q 2525 409 2770 889 
Q 3016 1369 3016 2328 
Q 3016 3291 2770 3770 
Q 2525 4250 2034 4250 
z
M 2034 4750 
Q 2819 4750 3233 4129 
Q 3647 3509 3647 2328 
Q 3647 1150 3233 529 
Q 2819 -91 2034 -91 
Q 1250 -91 836 529 
Q 422 1150 422 2328 
Q 422 3509 836 4129 
Q 1250 4750 2034 4750 
z
" transform="scale(0.015625)"/>
        <path id="DejaVuSans-6d" d="M 3328 2828 
Q 3544 3216 3844 3400 
Q 4144 3584 4550 3584 
Q 5097 3584 5394 3201 
Q 5691 2819 5691 2113 
L 5691 0 
L 5113 0 
L 5113 2094 
Q 5113 2597 4934 2840 
Q 4756 3084 4391 3084 
Q 3944 3084 3684 2787 
Q 3425 2491 3425 1978 
L 3425 0 
L 2847 0 
L 2847 2094 
Q 2847 2600 2669 2842 
Q 2491 3084 2119 3084 
Q 1678 3084 1418 2786 
Q 1159 2488 1159 1978 
L 1159 0 
L 581 0 
L 581 3500 
L 1159 3500 
L 1159 2956 
Q 1356 3278 1631 3431 
Q 1906 3584 2284 3584 
Q 2666 3584 2933 3390 
Q 3200 3197 3328 2828 
z
" transform="scale(0.015625)"/>
        <path id="DejaVuSans-73" d="M 2834 3397 
L 2834 2853 
Q 2591 2978 2328 3040 
Q 2066 3103 1784 3103 
Q 1356 3103 1142 2972 
Q 928 2841 928 2578 
Q 928 2378 1081 2264 
Q 1234 2150 1697 2047 
L 1894 2003 
Q 2506 1872 2764 1633 
Q 3022 1394 3022 966 
Q 3022 478 2636 193 
Q 2250 -91 1575 -91 
Q 1294 -91 989 -36 
Q 684 19 347 128 
L 347 722 
Q 666 556 975 473 
Q 1284 391 1588 391 
Q 1994 391 2212 530 
Q 2431 669 2431 922 
Q 2431 1156 2273 1281 
Q 2116 1406 1581 1522 
L 1381 1569 
Q 847 1681 609 1914 
Q 372 2147 372 2553 
Q 372 3047 722 3315 
Q 1072 3584 1716 3584 
Q 2034 3584 2315 3537 
Q 2597 3491 2834 3397 
z
" transform="scale(0.015625)"/>
       </defs>
       <use xlink:href="#DejaVuSans-31"/>
       <use xlink:href="#DejaVuSans-30" x="63.623047"/>
       <use xlink:href="#DejaVuSans-6d" x="127.246094"/>
       <use xlink:href="#DejaVuSans-73" x="224.658203"/>
      </g>
     </g>
    </g>
    <g id="ytick_2">
     <g id="line2d_11">
      <path d="M 70.65875 250.863045 
L 671.20875 250.863045 
" clip-path="url(#pf19d9241b9)" style="fill: none; stroke: #e6e6e6; stroke-width: 0.8; stroke-linecap: square"/>
     </g>
     <g id="line2d_12">
      <g>
       <use xlink:href="#mdad4d0e68f" x="70.65875" y="250.863045" style="stroke: #000000; stroke-width: 0.8"/>
      </g>
     </g>
     <g id="text_6">
      <!-- 100ms -->
      <g transform="translate(22.81375 255.422108) scale(0.12 -0.12)">
       <use xlink:href="#DejaVuSans-31"/>
       <use xlink:href="#DejaVuSans-30" x="63.623047"/>
       <use xlink:href="#DejaVuSans-30" x="127.246094"/>
       <use xlink:href="#DejaVuSans-6d" x="190.869141"/>
       <use xlink:href="#DejaVuSans-73" x="288.28125"/>
      </g>
     </g>
    </g>
    <g id="ytick_3">
     <g id="line2d_13">
      <path d="M 70.65875 151.606091 
L 671.20875 151.606091 
" clip-path="url(#pf19d9241b9)" style="fill: none; stroke: #e6e6e6; stroke-width: 0.8; stroke-linecap: square"/>
     </g>
     <g id="line2d_14">
      <g>
       <use xlink:href="#mdad4d0e68f" x="70.65875" y="151.606091" style="stroke: #000000; stroke-width: 0.8"/>
      </g>
     </g>
     <g id="text_7">
      <!-- 1s -->
      <g transform="translate(49.7725 156.165153) scale(0.12 -0.12)">
       <use xlink:href="#DejaVuSans-31"/>
       <use xlink:href="#DejaVuSans-73" x="63.623047"/>
      </g>
     </g>
    </g>
    <g id="ytick_4">
     <g id="line2d_15">
      <path d="M 70.65875 52.349136 
L 671.20875 52.349136 
" clip-path="url(#pf19d9241b9)" style="fill: none; stroke: #e6e6e6; stroke-width: 0.8; stroke-linecap: square"/>
     </g>
     <g id="line2d_16">
      <g>
       <use xlink:href="#mdad4d0e68f" x="70.65875" y="52.349136" style="stroke: #000000; stroke-width: 0.8"/>
      </g>
     </g>
     <g id="text_8">
      <!-- 10s -->
      <g transform="translate(42.1375 56.908198) scale(0.12 -0.12)">
       <use xlink:href="#DejaVuSans-31"/>
       <use xlink:href="#DejaVuSans-30" x="63.623047"/>
       <use xlink:href="#DejaVuSans-73" x="127.246094"/>
      </g>
     </g>
    </g>
    <g id="ytick_5">
     <g id="line2d_17">
      <defs>
       <path id="m012412a188" d="M 0 0 
L -2 0 
" style="stroke: #000000; stroke-width: 0.6"/>
      </defs>
      <g>
       <use xlink:href="#m012412a188" x="70.65875" y="320.240679" style="stroke: #000000; stroke-width: 0.6"/>
      </g>
     </g>
    </g>
    <g id="ytick_6">
     <g id="line2d_18">
      <g>
       <use xlink:href="#m012412a188" x="70.65875" y="302.762397" style="stroke: #000000; stroke-width: 0.6"/>
      </g>
     </g>
    </g>
    <g id="ytick_7">
     <g id="line2d_19">
      <g>
       <use xlink:href="#m012412a188" x="70.65875" y="290.361359" style="stroke: #000000; stroke-width: 0.6"/>
      </g>
     </g>
    </g>
    <g id="ytick_8">
     <g id="line2d_20">
      <g>
       <use xlink:href="#m012412a188" x="70.65875" y="280.742366" style="stroke: #000000; stroke-width: 0.6"/>
      </g>
     </g>
    </g>
    <g id="ytick_9">
     <g id="line2d_21">
      <g>
       <use xlink:href="#m012412a188" x="70.65875" y="272.883077" style="stroke: #000000; stroke-width: 0.6"/>
      </g>
     </g>
    </g>
    <g id="ytick_10">
     <g id="line2d_22">
      <g>
       <use xlink:href="#m012412a188" x="70.65875" y="266.238142" style="stroke: #000000; stroke-width: 0.6"/>
      </g>
     </g>
    </g>
    <g id="ytick_11">
     <g id="line2d_23">
      <g>
       <use xlink:href="#m012412a188" x="70.65875" y="260.482038" style="stroke: #000000; stroke-width: 0.6"/>
      </g>
     </g>
    </g>
    <g id="ytick_12">
     <g id="line2d_24">
      <g>
       <use xlink:href="#m012412a188" x="70.65875" y="255.404794" style="stroke: #000000; stroke-width: 0.6"/>
      </g>
     </g>
    </g>
    <g id="ytick_13">
     <g id="line2d_25">
      <g>
       <use xlink:href="#m012412a188" x="70.65875" y="220.983725" style="stroke: #000000; stroke-width: 0.6"/>
      </g>
     </g>
    </g>
    <g id="ytick_14">
     <g id="line2d_26">
      <g>
       <use xlink:href="#m012412a188" x="70.65875" y="203.505443" style="stroke: #000000; stroke-width: 0.6"/>
      </g>
     </g>
    </g>
    <g id="ytick_15">
     <g id="line2d_27">
      <g>
       <use xlink:href="#m012412a188" x="70.65875" y="191.104404" style="stroke: #000000; stroke-width: 0.6"/>
      </g>
     </g>
    </g>
    <g id="ytick_16">
     <g id="line2d_28">
      <g>
       <use xlink:href="#m012412a188" x="70.65875" y="181.485411" style="stroke: #000000; stroke-width: 0.6"/>
      </g>
     </g>
    </g>
    <g id="ytick_17">
     <g id="line2d_29">
      <g>
       <use xlink:href="#m012412a188" x="70.65875" y="173.626122" style="stroke: #000000; stroke-width: 0.6"/>
      </g>
     </g>
    </g>
    <g id="ytick_18">
     <g id="line2d_30">
      <g>
       <use xlink:href="#m012412a188" x="70.65875" y="166.981187" style="stroke: #000000; stroke-width: 0.6"/>
      </g>
     </g>
    </g>
    <g id="ytick_19">
     <g id="line2d_31">
      <g>
       <use xlink:href="#m012412a188" x="70.65875" y="161.225083" style="stroke: #000000; stroke-width: 0.6"/>
      </g>
     </g>
    </g>
    <g id="ytick_20">
     <g id="line2d_32">
      <g>
       <use xlink:href="#m012412a188" x="70.65875" y="156.14784" style="stroke: #000000; stroke-width: 0.6"/>
      </g>
     </g>
    </g>
    <g id="ytick_21">
     <g id="line2d_33">
      <g>
       <use xlink:href="#m012412a188" x="70.65875" y="121.72677" style="stroke: #000000; stroke-width: 0.6"/>
      </g>
     </g>
    </g>
    <g id="ytick_22">
     <g id="line2d_34">
      <g>
       <use xlink:href="#m012412a188" x="70.65875" y="104.248488" style="stroke: #000000; stroke-width: 0.6"/>
      </g>
     </g>
    </g>
    <g id="ytick_23">
     <g id="line2d_35">
      <g>
       <use xlink:href="#m012412a188" x="70.65875" y="91.847449" style="stroke: #000000; stroke-width: 0.6"/>
      </g>
     </g>
    </g>
    <g id="ytick_24">
     <g id="line2d_36">
      <g>
       <use xlink:href="#m012412a188" x="70.65875" y="82.228456" style="stroke: #000000; stroke-width: 0.6"/>
      </g>
     </g>
    </g>
    <g id="ytick_25">
     <g id="line2d_37">
      <g>
       <use xlink:href="#m012412a188" x="70.65875" y="74.369167" style="stroke: #000000; stroke-width: 0.6"/>
      </g>
     </g>
    </g>
    <g id="ytick_26">
     <g id="line2d_38">
      <g>
       <use xlink:href="#m012412a188" x="70.65875" y="67.724233" style="stroke: #000000; stroke-width: 0.6"/>
      </g>
     </g>
    </g>
    <g id="ytick_27">
     <g id="line2d_39">
      <g>
       <use xlink:href="#m012412a188" x="70.65875" y="61.968129" style="stroke: #000000; stroke-width: 0.6"/>
      </g>
     </g>
    </g>
    <g id="ytick_28">
     <g id="line2d_40">
      <g>
       <use xlink:href="#m012412a188" x="70.65875" y="56.890885" style="stroke: #000000; stroke-width: 0.6"/>
      </g>
     </g>
    </g>
    <g id="ytick_29">
     <g id="line2d_41">
      <g>
       <use xlink:href="#m012412a188" x="70.65875" y="22.469815" style="stroke: #000000; stroke-width: 0.6"/>
      </g>
     </g>
    </g>
    <g id="text_9">
     <!-- Time -->
     <g transform="translate(16.318125 193.340312) rotate(-90) scale(0.12 -0.12)">
      <defs>
       <path id="DejaVuSans-54" d="M -19 4666 
L 3928 4666 
L 3928 4134 
L 2272 4134 
L 2272 0 
L 1638 0 
L 1638 4134 
L -19 4134 
L -19 4666 
z
" transform="scale(0.015625)"/>
       <path id="DejaVuSans-65" d="M 3597 1894 
L 3597 1613 
L 953 1613 
Q 991 1019 1311 708 
Q 1631 397 2203 397 
Q 2534 397 2845 478 
Q 3156 559 3463 722 
L 3463 178 
Q 3153 47 2828 -22 
Q 2503 -91 2169 -91 
Q 1331 -91 842 396 
Q 353 884 353 1716 
Q 353 2575 817 3079 
Q 1281 3584 2069 3584 
Q 2775 3584 3186 3129 
Q 3597 2675 3597 1894 
z
M 3022 2063 
Q 3016 2534 2758 2815 
Q 2500 3097 2075 3097 
Q 1594 3097 1305 2825 
Q 1016 2553 972 2059 
L 3022 2063 
z
" transform="scale(0.015625)"/>
      </defs>
      <use xlink:href="#DejaVuSans-54"/>
      <use xlink:href="#DejaVuSans-69" x="57.958984"/>
      <use xlink:href="#DejaVuSans-6d" x="85.742188"/>
      <use xlink:href="#DejaVuSans-65" x="183.154297"/>
     </g>
    </g>
   </g>
   <g id="PolyCollection_1">
    <path d="M 122.822745 42.578674 
L 122.722441 42.578674 
L 122.71717 42.324365 
L 122.715913 42.071548 
L 122.71676 41.820204 
L 122.719601 41.570318 
L 122.72215 41.321872 
L 122.722905 41.07485 
L 122.726144 40.829235 
L 122.736344 40.585012 
L 122.750622 40.342164 
L 122.76154 40.100678 
L 122.760642 39.860536 
L 122.723568 39.621725 
L 122.563629 39.384229 
L 122.056688 39.148035 
L 120.783508 38.913128 
L 118.17737 38.679494 
L 113.776895 38.44712 
L 107.780862 38.215991 
L 101.673538 37.986095 
L 97.956477 37.757419 
L 98.42113 37.529949 
L 102.514446 37.303674 
L 107.861608 37.07858 
L 112.341784 36.854655 
L 115.326443 36.631888 
L 117.228786 36.410265 
L 118.534951 36.189777 
L 119.449066 35.97041 
L 120.072537 35.752154 
L 120.528789 35.534998 
L 120.897465 35.31893 
L 121.189787 35.10394 
L 121.419392 34.890017 
L 121.626917 34.67715 
L 121.830837 34.465329 
L 122.007553 34.254543 
L 122.132142 34.044784 
L 122.21043 33.83604 
L 122.267096 33.628302 
L 122.324263 33.421561 
L 122.393796 33.215806 
L 122.474052 33.011029 
L 122.548822 32.80722 
L 122.597025 32.60437 
L 122.610276 32.40247 
L 122.601063 32.201512 
L 122.590122 32.001486 
L 122.585279 31.802383 
L 122.576977 31.604196 
L 122.552818 31.406917 
L 122.510627 31.210536 
L 122.463467 31.015045 
L 122.436356 30.820437 
L 122.447654 30.626704 
L 122.492224 30.433837 
L 122.550128 30.24183 
L 122.605538 30.050674 
L 122.651774 29.860362 
L 122.685264 29.670886 
L 122.700784 29.48224 
L 122.695829 29.294416 
L 122.679414 29.107406 
L 122.668046 28.921204 
L 122.669313 28.735804 
L 122.676857 28.551197 
L 122.682077 28.367377 
L 122.683557 28.184338 
L 122.686237 28.002073 
L 122.696184 27.820575 
L 122.714947 27.639838 
L 122.737305 27.459856 
L 122.755548 27.280622 
L 122.765603 27.10213 
L 122.767651 26.924375 
L 122.762556 26.747349 
L 122.751157 26.571047 
L 122.737815 26.395464 
L 122.730947 26.220593 
L 122.735857 26.046428 
L 122.748727 25.872964 
L 122.761174 25.700195 
L 122.768569 25.528117 
L 122.771549 25.356722 
L 122.772393 25.186006 
L 122.772565 25.015963 
L 122.77259 24.846589 
L 122.772593 24.677877 
L 122.772593 24.509824 
L 122.772593 24.342422 
L 122.772593 24.175669 
L 122.772591 24.009558 
L 122.77257 23.844084 
L 122.772423 23.679244 
L 122.771681 23.515031 
L 122.768983 23.351442 
L 122.762064 23.188471 
L 122.749975 23.026114 
L 122.736809 22.864366 
L 122.730896 22.703222 
L 122.81429 22.703222 
L 122.81429 22.703222 
L 122.808377 22.864366 
L 122.795211 23.026114 
L 122.783122 23.188471 
L 122.776203 23.351442 
L 122.773504 23.515031 
L 122.772762 23.679244 
L 122.772616 23.844084 
L 122.772595 24.009558 
L 122.772593 24.175669 
L 122.772593 24.342422 
L 122.772593 24.509824 
L 122.772593 24.677877 
L 122.772596 24.846589 
L 122.772621 25.015963 
L 122.772793 25.186006 
L 122.773637 25.356722 
L 122.776617 25.528117 
L 122.784012 25.700195 
L 122.796459 25.872964 
L 122.809329 26.046428 
L 122.814239 26.220593 
L 122.807371 26.395464 
L 122.794029 26.571047 
L 122.78263 26.747349 
L 122.777535 26.924375 
L 122.779583 27.10213 
L 122.789637 27.280622 
L 122.807881 27.459856 
L 122.830239 27.639838 
L 122.849002 27.820575 
L 122.858949 28.002073 
L 122.861629 28.184338 
L 122.863109 28.367377 
L 122.868329 28.551197 
L 122.875873 28.735804 
L 122.87714 28.921204 
L 122.865772 29.107406 
L 122.849357 29.294416 
L 122.844402 29.48224 
L 122.859922 29.670886 
L 122.893412 29.860362 
L 122.939648 30.050674 
L 122.995057 30.24183 
L 123.052962 30.433837 
L 123.097532 30.626704 
L 123.10883 30.820437 
L 123.081719 31.015045 
L 123.034559 31.210536 
L 122.992368 31.406917 
L 122.968209 31.604196 
L 122.959907 31.802383 
L 122.955064 32.001486 
L 122.944123 32.201512 
L 122.93491 32.40247 
L 122.948161 32.60437 
L 122.996364 32.80722 
L 123.071134 33.011029 
L 123.15139 33.215806 
L 123.220923 33.421561 
L 123.27809 33.628302 
L 123.334756 33.83604 
L 123.413044 34.044784 
L 123.537633 34.254543 
L 123.714349 34.465329 
L 123.918269 34.67715 
L 124.125794 34.890017 
L 124.355399 35.10394 
L 124.647721 35.31893 
L 125.016397 35.534998 
L 125.472649 35.752154 
L 126.09612 35.97041 
L 127.010235 36.189777 
L 128.3164 36.410265 
L 130.218743 36.631888 
L 133.203402 36.854655 
L 137.683578 37.07858 
L 143.03074 37.303674 
L 147.124056 37.529949 
L 147.588709 37.757419 
L 143.871648 37.986095 
L 137.764324 38.215991 
L 131.76829 38.44712 
L 127.367816 38.679494 
L 124.761678 38.913128 
L 123.488498 39.148035 
L 122.981557 39.384229 
L 122.821618 39.621725 
L 122.784544 39.860536 
L 122.783646 40.100678 
L 122.794564 40.342164 
L 122.808842 40.585012 
L 122.819042 40.829235 
L 122.822281 41.07485 
L 122.823036 41.321872 
L 122.825585 41.570318 
L 122.828425 41.820204 
L 122.829273 42.071548 
L 122.828016 42.324365 
L 122.822745 42.578674 
z
" clip-path="url(#pf19d9241b9)" style="fill: #ff7f00; fill-opacity: 0.3"/>
   </g>
   <g id="PolyCollection_2">
    <path d="M 305.659831 294.983674 
L 270.766898 294.983674 
L 265.926804 294.119146 
L 263.397249 293.271616 
L 263.807211 292.440428 
L 266.625022 291.624965 
L 270.625352 290.824642 
L 274.632594 290.038908 
L 277.967168 289.26724 
L 280.45158 288.509143 
L 282.194503 287.764148 
L 283.386612 287.03181 
L 284.19394 286.311707 
L 284.735127 285.603435 
L 285.100003 284.906613 
L 285.365251 284.220876 
L 285.58671 283.545877 
L 285.786225 282.881285 
L 285.959676 282.226784 
L 286.103624 281.582072 
L 286.234128 280.94686 
L 286.380512 280.320873 
L 286.562606 279.703847 
L 286.774073 279.095528 
L 286.985922 278.495674 
L 287.16514 277.904053 
L 287.292887 277.320442 
L 287.371182 276.744627 
L 287.417474 276.176402 
L 287.453115 275.615571 
L 287.492557 275.061942 
L 287.538212 274.515333 
L 287.58265 273.975569 
L 287.615176 273.442481 
L 287.628117 272.915904 
L 287.621727 272.395682 
L 287.607806 271.881664 
L 287.607643 271.373702 
L 287.640437 270.871657 
L 287.709222 270.375392 
L 287.797963 269.884775 
L 287.883678 269.399679 
L 287.951955 268.919981 
L 288.001878 268.445563 
L 288.038897 267.976309 
L 288.066388 267.512109 
L 288.08513 267.052854 
L 288.098032 266.59844 
L 288.110914 266.148767 
L 288.127216 265.703736 
L 288.144229 265.263253 
L 288.156508 264.827226 
L 288.162346 264.395564 
L 288.165564 263.968183 
L 288.17128 263.544997 
L 288.181089 263.125925 
L 288.192541 262.710888 
L 288.202192 262.299809 
L 288.208295 261.892613 
L 288.210994 261.489228 
L 288.21093 261.089583 
L 288.208083 260.693608 
L 288.201819 260.301238 
L 288.192129 259.912408 
L 288.181129 259.527053 
L 288.173049 259.145113 
L 288.171829 258.766527 
L 288.178114 258.391237 
L 288.188722 258.019186 
L 288.199173 257.650319 
L 288.206633 257.284581 
L 288.210734 256.921921 
L 288.212516 256.562286 
L 288.213127 256.205627 
L 288.213248 255.851894 
L 288.213058 255.501041 
L 288.212285 255.15302 
L 288.210142 254.807787 
L 288.205432 254.465296 
L 288.197276 254.125506 
L 288.186486 253.788372 
L 288.176374 253.453855 
L 288.171431 253.121914 
L 288.174206 252.792509 
L 288.183242 252.465603 
L 288.194277 252.141157 
L 288.203402 251.819135 
L 288.209081 251.4995 
L 288.211847 251.182218 
L 288.212921 250.867255 
L 288.213255 250.554576 
L 288.213327 250.244149 
L 288.213276 249.935941 
L 288.213 249.629921 
L 288.212083 249.326059 
L 288.209642 249.024323 
L 288.204456 248.724685 
L 288.195804 248.427115 
L 288.184851 248.131586 
L 288.175226 247.838068 
L 288.171343 247.546536 
L 288.255385 247.546536 
L 288.255385 247.546536 
L 288.251503 247.838068 
L 288.241878 248.131586 
L 288.230925 248.427115 
L 288.222273 248.724685 
L 288.217087 249.024323 
L 288.214646 249.326059 
L 288.213728 249.629921 
L 288.213453 249.935941 
L 288.213402 250.244149 
L 288.213473 250.554576 
L 288.213807 250.867255 
L 288.214882 251.182218 
L 288.217648 251.4995 
L 288.223327 251.819135 
L 288.232451 252.141157 
L 288.243486 252.465603 
L 288.252523 252.792509 
L 288.255298 253.121914 
L 288.250354 253.453855 
L 288.240243 253.788372 
L 288.229453 254.125506 
L 288.221297 254.465296 
L 288.216586 254.807787 
L 288.214444 255.15302 
L 288.21367 255.501041 
L 288.213481 255.851894 
L 288.213601 256.205627 
L 288.214213 256.562286 
L 288.215995 256.921921 
L 288.220096 257.284581 
L 288.227555 257.650319 
L 288.238007 258.019186 
L 288.248614 258.391237 
L 288.2549 258.766527 
L 288.25368 259.145113 
L 288.245599 259.527053 
L 288.234599 259.912408 
L 288.22491 260.301238 
L 288.218645 260.693608 
L 288.215799 261.089583 
L 288.215734 261.489228 
L 288.218434 261.892613 
L 288.224537 262.299809 
L 288.234187 262.710888 
L 288.24564 263.125925 
L 288.255449 263.544997 
L 288.261164 263.968183 
L 288.264383 264.395564 
L 288.270221 264.827226 
L 288.2825 265.263253 
L 288.299512 265.703736 
L 288.315815 266.148767 
L 288.328697 266.59844 
L 288.341599 267.052854 
L 288.36034 267.512109 
L 288.387832 267.976309 
L 288.424851 268.445563 
L 288.474773 268.919981 
L 288.54305 269.399679 
L 288.628766 269.884775 
L 288.717507 270.375392 
L 288.786291 270.871657 
L 288.819085 271.373702 
L 288.818923 271.881664 
L 288.805002 272.395682 
L 288.798611 272.915904 
L 288.811552 273.442481 
L 288.844078 273.975569 
L 288.888517 274.515333 
L 288.934171 275.061942 
L 288.973613 275.615571 
L 289.009255 276.176402 
L 289.055547 276.744627 
L 289.133842 277.320442 
L 289.261589 277.904053 
L 289.440806 278.495674 
L 289.652655 279.095528 
L 289.864122 279.703847 
L 290.046217 280.320873 
L 290.192601 280.94686 
L 290.323105 281.582072 
L 290.467052 282.226784 
L 290.640504 282.881285 
L 290.840019 283.545877 
L 291.061478 284.220876 
L 291.326726 284.906613 
L 291.691602 285.603435 
L 292.232789 286.311707 
L 293.040116 287.03181 
L 294.232225 287.764148 
L 295.975148 288.509143 
L 298.459561 289.26724 
L 301.794135 290.038908 
L 305.801377 290.824642 
L 309.801707 291.624965 
L 312.619518 292.440428 
L 313.02948 293.271616 
L 310.499924 294.119146 
L 305.659831 294.983674 
z
" clip-path="url(#pf19d9241b9)" style="fill: #1f78b4; fill-opacity: 0.3"/>
   </g>
   <g id="PolyCollection_3">
    <path d="M 456.547007 309.845816 
L 450.761264 309.845816 
L 448.969915 309.465254 
L 446.489339 309.088022 
L 443.193604 308.714063 
L 439.154466 308.34332 
L 434.866909 307.975738 
L 431.225459 307.611264 
L 429.10478 307.249847 
L 428.83802 306.891434 
L 430.085033 306.535977 
L 432.195778 306.183427 
L 434.651936 305.833736 
L 437.18342 305.48686 
L 439.624923 305.142753 
L 441.827064 304.801371 
L 443.715101 304.462671 
L 445.329408 304.126612 
L 446.747314 303.793153 
L 447.986627 303.462253 
L 449.005492 303.133874 
L 449.77107 302.807977 
L 450.303527 302.484526 
L 450.666921 302.163484 
L 450.941573 301.844815 
L 451.201183 301.528485 
L 451.491278 301.214459 
L 451.813475 300.902705 
L 452.131761 300.593188 
L 452.400302 300.285879 
L 452.590926 299.980744 
L 452.702958 299.677755 
L 452.757699 299.37688 
L 452.787467 299.07809 
L 452.823607 298.781358 
L 452.885113 298.486654 
L 452.972754 298.193951 
L 453.07311 297.903222 
L 453.169436 297.614441 
L 453.250755 297.327582 
L 453.313642 297.042619 
L 453.358662 296.759528 
L 453.386879 296.478283 
L 453.399377 296.198862 
L 453.399076 295.92124 
L 453.392567 295.645394 
L 453.389678 295.371303 
L 453.399586 295.098943 
L 453.425046 294.828294 
L 453.459218 294.559333 
L 453.488768 294.292039 
L 453.502126 294.026394 
L 453.497203 293.762375 
L 453.482816 293.499963 
L 453.472879 293.239139 
L 453.477909 292.979884 
L 453.499927 292.722178 
L 453.533261 292.466005 
L 453.569056 292.211344 
L 453.599578 291.958179 
L 453.620253 291.706493 
L 453.629693 291.456267 
L 453.629032 291.207485 
L 453.621457 290.960131 
L 453.61178 290.714188 
L 453.605212 290.469641 
L 453.60519 290.226473 
L 453.611484 289.984669 
L 453.620129 289.744214 
L 453.625227 289.505093 
L 453.621296 289.26729 
L 453.605147 289.030793 
L 453.577209 288.795586 
L 453.542104 288.561655 
L 453.50755 288.328987 
L 453.48137 288.097568 
L 453.468427 287.867385 
L 453.469818 287.638425 
L 453.484276 287.410674 
L 453.509448 287.18412 
L 453.541672 286.958751 
L 453.57564 286.734553 
L 453.605661 286.511516 
L 453.627945 286.289627 
L 453.641822 286.068874 
L 453.649 285.849246 
L 453.651804 285.630731 
L 453.651799 285.413318 
L 453.649322 285.196997 
L 453.643826 284.981755 
L 453.634829 284.767583 
L 453.623088 284.55447 
L 453.611082 284.342405 
L 453.601893 284.131378 
L 453.596786 283.92138 
L 453.593559 283.712399 
L 453.587858 283.504427 
L 453.577091 283.297453 
L 453.563722 283.091468 
L 453.554579 282.886463 
L 453.556225 282.682428 
L 453.752046 282.682428 
L 453.752046 282.682428 
L 453.753693 282.886463 
L 453.74455 283.091468 
L 453.731181 283.297453 
L 453.720414 283.504427 
L 453.714712 283.712399 
L 453.711486 283.92138 
L 453.706378 284.131378 
L 453.69719 284.342405 
L 453.685183 284.55447 
L 453.673442 284.767583 
L 453.664446 284.981755 
L 453.658949 285.196997 
L 453.656472 285.413318 
L 453.656468 285.630731 
L 453.659272 285.849246 
L 453.666449 286.068874 
L 453.680327 286.289627 
L 453.70261 286.511516 
L 453.732631 286.734553 
L 453.7666 286.958751 
L 453.798824 287.18412 
L 453.823995 287.410674 
L 453.838454 287.638425 
L 453.839844 287.867385 
L 453.826901 288.097568 
L 453.800721 288.328987 
L 453.766168 288.561655 
L 453.731063 288.795586 
L 453.703124 289.030793 
L 453.686976 289.26729 
L 453.683045 289.505093 
L 453.688142 289.744214 
L 453.696788 289.984669 
L 453.703082 290.226473 
L 453.703059 290.469641 
L 453.696492 290.714188 
L 453.686814 290.960131 
L 453.67924 291.207485 
L 453.678578 291.456267 
L 453.688018 291.706493 
L 453.708693 291.958179 
L 453.739216 292.211344 
L 453.77501 292.466005 
L 453.808345 292.722178 
L 453.830362 292.979884 
L 453.835393 293.239139 
L 453.825455 293.499963 
L 453.811068 293.762375 
L 453.806145 294.026394 
L 453.819504 294.292039 
L 453.849053 294.559333 
L 453.883225 294.828294 
L 453.908685 295.098943 
L 453.918593 295.371303 
L 453.915705 295.645394 
L 453.909195 295.92124 
L 453.908894 296.198862 
L 453.921392 296.478283 
L 453.949609 296.759528 
L 453.99463 297.042619 
L 454.057516 297.327582 
L 454.138835 297.614441 
L 454.235161 297.903222 
L 454.335517 298.193951 
L 454.423159 298.486654 
L 454.484664 298.781358 
L 454.520805 299.07809 
L 454.550572 299.37688 
L 454.605313 299.677755 
L 454.717346 299.980744 
L 454.907969 300.285879 
L 455.176511 300.593188 
L 455.494796 300.902705 
L 455.816994 301.214459 
L 456.107088 301.528485 
L 456.366698 301.844815 
L 456.64135 302.163484 
L 457.004744 302.484526 
L 457.537202 302.807977 
L 458.302779 303.133874 
L 459.321644 303.462253 
L 460.560957 303.793153 
L 461.978863 304.126612 
L 463.59317 304.462671 
L 465.481207 304.801371 
L 467.683349 305.142753 
L 470.124852 305.48686 
L 472.656336 305.833736 
L 475.112494 306.183427 
L 477.223238 306.535977 
L 478.470251 306.891434 
L 478.203492 307.249847 
L 476.082813 307.611264 
L 472.441363 307.975738 
L 468.153806 308.34332 
L 464.114667 308.714063 
L 460.818932 309.088022 
L 458.338356 309.465254 
L 456.547007 309.845816 
z
" clip-path="url(#pf19d9241b9)" style="fill: #8fbbd9; fill-opacity: 0.3"/>
   </g>
   <g id="PolyCollection_4">
    <path d="M 635.203441 332.76767 
L 602.986373 332.76767 
L 598.551177 331.816294 
L 595.368334 330.885463 
L 594.278791 329.974307 
L 595.667435 329.082013 
L 598.965614 328.207815 
L 602.964319 327.350994 
L 606.637583 326.510872 
L 609.535187 325.686811 
L 611.632913 324.878208 
L 613.091831 324.084495 
L 614.121054 323.305132 
L 614.91053 322.539609 
L 615.586357 321.787445 
L 616.183227 321.04818 
L 616.671857 320.321381 
L 617.025372 319.606632 
L 617.256357 318.903541 
L 617.407383 318.211735 
L 617.524531 317.530855 
L 617.640033 316.860564 
L 617.77162 316.200536 
L 617.924932 315.550461 
L 618.093425 314.910045 
L 618.264635 314.279004 
L 618.424236 313.657067 
L 618.550313 313.043976 
L 618.617354 312.439483 
L 618.618993 311.84335 
L 618.58446 311.255348 
L 618.563203 310.67526 
L 618.586168 310.102874 
L 618.64206 309.537989 
L 618.693963 308.98041 
L 618.716767 308.429952 
L 618.717429 307.886435 
L 618.72344 307.349685 
L 618.754825 306.819536 
L 618.807447 306.295829 
L 618.861445 305.778408 
L 618.900557 305.267124 
L 618.921396 304.761833 
L 618.929546 304.262396 
L 618.9319 303.76868 
L 618.932638 303.280555 
L 618.933597 302.797895 
L 618.935794 302.320579 
L 618.940486 301.848491 
L 618.949699 301.381517 
L 618.965124 300.919548 
L 618.98626 300.462477 
L 619.010696 300.010202 
L 619.035603 299.562622 
L 619.058065 299.119643 
L 619.075356 298.681169 
L 619.086273 298.24711 
L 619.091789 297.817379 
L 619.093991 297.391889 
L 619.09466 296.970558 
L 619.09469 296.553306 
L 619.094136 296.140053 
L 619.092255 295.730725 
L 619.087559 295.325247 
L 619.07863 294.923548 
L 619.066089 294.525557 
L 619.054129 294.131208 
L 619.048787 293.740433 
L 619.053218 293.353169 
L 619.064788 292.969353 
L 619.077515 292.588924 
L 619.08688 292.211824 
L 619.091946 291.837993 
L 619.094029 291.467377 
L 619.094668 291.09992 
L 619.094688 290.735569 
L 619.094122 290.374272 
L 619.092214 290.015978 
L 619.087467 289.660637 
L 619.078477 289.308202 
L 619.065908 288.958624 
L 619.053998 288.611859 
L 619.048781 288.267861 
L 619.05334 287.926587 
L 619.064968 287.587993 
L 619.077672 287.252038 
L 619.086977 286.918681 
L 619.091991 286.587882 
L 619.09405 286.259603 
L 619.094706 285.933804 
L 619.094869 285.61045 
L 619.094896 285.289503 
L 619.094871 284.970928 
L 619.094717 284.65469 
L 619.09409 284.340755 
L 619.092104 284.02909 
L 619.087225 283.719662 
L 619.078077 283.41244 
L 619.065438 283.107391 
L 619.053664 282.804486 
L 619.048775 282.503695 
L 619.141039 282.503695 
L 619.141039 282.503695 
L 619.13615 282.804486 
L 619.124376 283.107391 
L 619.111737 283.41244 
L 619.102589 283.719662 
L 619.09771 284.02909 
L 619.095724 284.340755 
L 619.095098 284.65469 
L 619.094943 284.970928 
L 619.094918 285.289503 
L 619.094945 285.61045 
L 619.095108 285.933804 
L 619.095764 286.259603 
L 619.097823 286.587882 
L 619.102837 286.918681 
L 619.112142 287.252038 
L 619.124846 287.587993 
L 619.136474 287.926587 
L 619.141033 288.267861 
L 619.135816 288.611859 
L 619.123906 288.958624 
L 619.111337 289.308202 
L 619.102347 289.660637 
L 619.0976 290.015978 
L 619.095692 290.374272 
L 619.095126 290.735569 
L 619.095146 291.09992 
L 619.095785 291.467377 
L 619.097868 291.837993 
L 619.102934 292.211824 
L 619.112299 292.588924 
L 619.125026 292.969353 
L 619.136596 293.353169 
L 619.141027 293.740433 
L 619.135686 294.131208 
L 619.123725 294.525557 
L 619.111184 294.923548 
L 619.102255 295.325247 
L 619.097559 295.730725 
L 619.095678 296.140053 
L 619.095124 296.553306 
L 619.095154 296.970558 
L 619.095823 297.391889 
L 619.098025 297.817379 
L 619.103541 298.24711 
L 619.114458 298.681169 
L 619.131749 299.119643 
L 619.154211 299.562622 
L 619.179118 300.010202 
L 619.203554 300.462477 
L 619.22469 300.919548 
L 619.240115 301.381517 
L 619.249328 301.848491 
L 619.25402 302.320579 
L 619.256217 302.797895 
L 619.257176 303.280555 
L 619.257914 303.76868 
L 619.260268 304.262396 
L 619.268418 304.761833 
L 619.289257 305.267124 
L 619.328369 305.778408 
L 619.382367 306.295829 
L 619.434989 306.819536 
L 619.466374 307.349685 
L 619.472385 307.886435 
L 619.473047 308.429952 
L 619.495851 308.98041 
L 619.547754 309.537989 
L 619.603646 310.102874 
L 619.626611 310.67526 
L 619.605354 311.255348 
L 619.570821 311.84335 
L 619.57246 312.439483 
L 619.639501 313.043976 
L 619.765578 313.657067 
L 619.925179 314.279004 
L 620.096389 314.910045 
L 620.264882 315.550461 
L 620.418194 316.200536 
L 620.549781 316.860564 
L 620.665283 317.530855 
L 620.782431 318.211735 
L 620.933457 318.903541 
L 621.164442 319.606632 
L 621.517957 320.321381 
L 622.006587 321.04818 
L 622.603457 321.787445 
L 623.279284 322.539609 
L 624.06876 323.305132 
L 625.097983 324.084495 
L 626.556901 324.878208 
L 628.654627 325.686811 
L 631.552231 326.510872 
L 635.225496 327.350994 
L 639.2242 328.207815 
L 642.522379 329.082013 
L 643.911023 329.974307 
L 642.82148 330.885463 
L 639.638637 331.816294 
L 635.203441 332.76767 
z
" clip-path="url(#pf19d9241b9)" style="fill: #b2df8a; fill-opacity: 0.3"/>
   </g>
   <g id="LineCollection_1">
    <path d="M 110.364535 37.110189 
L 135.180651 37.110189 
" clip-path="url(#pf19d9241b9)" style="fill: none; stroke: #ff7f00; stroke-width: 3; stroke-linecap: round"/>
    <path d="M 275.805306 289.646976 
L 300.621422 289.646976 
" clip-path="url(#pf19d9241b9)" style="fill: none; stroke: #1f78b4; stroke-width: 3; stroke-linecap: round"/>
    <path d="M 441.246078 305.587114 
L 466.062194 305.587114 
" clip-path="url(#pf19d9241b9)" style="fill: none; stroke: #8fbbd9; stroke-width: 3; stroke-linecap: round"/>
    <path d="M 606.686849 327.202386 
L 631.502965 327.202386 
" clip-path="url(#pf19d9241b9)" style="fill: none; stroke: #b2df8a; stroke-width: 3; stroke-linecap: round"/>
   </g>
   <g id="patch_3">
    <path d="M 70.65875 350.12 
L 70.65875 7.2 
" style="fill: none; stroke: #000000; stroke-width: 0.7; stroke-linejoin: miter; stroke-linecap: square"/>
   </g>
   <g id="patch_4">
    <path d="M 671.20875 350.12 
L 671.20875 7.2 
" style="fill: none; stroke: #000000; stroke-width: 0.7; stroke-linejoin: miter; stroke-linecap: square"/>
   </g>
   <g id="patch_5">
    <path d="M 70.65875 350.12 
L 671.20875 350.12 
" style="fill: none; stroke: #000000; stroke-width: 0.7; stroke-linejoin: miter; stroke-linecap: square"/>
   </g>
   <g id="patch_6">
    <path d="M 70.65875 7.2 
L 671.20875 7.2 
" style="fill: none; stroke: #000000; stroke-width: 0.7; stroke-linejoin: miter; stroke-linecap: square"/>
   </g>
   <g id="legend_1">
    <g id="patch_7">
     <path d="M 570.219375 87.58875 
L 662.80875 87.58875 
Q 665.20875 87.58875 665.20875 85.18875 
L 665.20875 15.6 
Q 665.20875 13.2 662.80875 13.2 
L 570.219375 13.2 
Q 567.819375 13.2 567.819375 15.6 
L 567.819375 85.18875 
Q 567.819375 87.58875 570.219375 87.58875 
z
" style="fill: #ffffff; opacity: 0.8; stroke: #cccccc; stroke-linejoin: miter"/>
    </g>
    <g id="patch_8">
     <path d="M 572.619375 27.118125 
L 596.619375 27.118125 
L 596.619375 18.718125 
L 572.619375 18.718125 
z
" style="fill: #ff7f00; stroke: #ff7f00; stroke-linejoin: miter"/>
    </g>
    <g id="text_10">
     <!-- stata -->
     <g transform="translate(606.219375 27.118125) scale(0.12 -0.12)">
      <use xlink:href="#DejaVuSans-73"/>
      <use xlink:href="#DejaVuSans-74" x="52.099609"/>
      <use xlink:href="#DejaVuSans-61" x="91.308594"/>
      <use xlink:href="#DejaVuSans-74" x="152.587891"/>
      <use xlink:href="#DejaVuSans-61" x="191.796875"/>
     </g>
    </g>
    <g id="patch_9">
     <path d="M 572.619375 44.731875 
L 596.619375 44.731875 
L 596.619375 36.331875 
L 572.619375 36.331875 
z
" style="fill: #1f78b4; stroke: #1f78b4; stroke-linejoin: miter"/>
    </g>
    <g id="text_11">
     <!-- scipy -->
     <g transform="translate(606.219375 44.731875) scale(0.12 -0.12)">
      <defs>
       <path id="DejaVuSans-70" d="M 1159 525 
L 1159 -1331 
L 581 -1331 
L 581 3500 
L 1159 3500 
L 1159 2969 
Q 1341 3281 1617 3432 
Q 1894 3584 2278 3584 
Q 2916 3584 3314 3078 
Q 3713 2572 3713 1747 
Q 3713 922 3314 415 
Q 2916 -91 2278 -91 
Q 1894 -91 1617 61 
Q 1341 213 1159 525 
z
M 3116 1747 
Q 3116 2381 2855 2742 
Q 2594 3103 2138 3103 
Q 1681 3103 1420 2742 
Q 1159 2381 1159 1747 
Q 1159 1113 1420 752 
Q 1681 391 2138 391 
Q 2594 391 2855 752 
Q 3116 1113 3116 1747 
z
" transform="scale(0.015625)"/>
      </defs>
      <use xlink:href="#DejaVuSans-73"/>
      <use xlink:href="#DejaVuSans-63" x="52.099609"/>
      <use xlink:href="#DejaVuSans-69" x="107.080078"/>
      <use xlink:href="#DejaVuSans-70" x="134.863281"/>
      <use xlink:href="#DejaVuSans-79" x="198.339844"/>
     </g>
    </g>
    <g id="patch_10">
     <path d="M 572.619375 62.345625 
L 596.619375 62.345625 
L 596.619375 53.945625 
L 572.619375 53.945625 
z
" style="fill: #8fbbd9; stroke: #8fbbd9; stroke-linejoin: miter"/>
    </g>
    <g id="text_12">
     <!-- scipy_jac -->
     <g transform="translate(606.219375 62.345625) scale(0.12 -0.12)">
      <defs>
       <path id="DejaVuSans-5f" d="M 3263 -1063 
L 3263 -1509 
L -63 -1509 
L -63 -1063 
L 3263 -1063 
z
" transform="scale(0.015625)"/>
       <path id="DejaVuSans-6a" d="M 603 3500 
L 1178 3500 
L 1178 -63 
Q 1178 -731 923 -1031 
Q 669 -1331 103 -1331 
L -116 -1331 
L -116 -844 
L 38 -844 
Q 366 -844 484 -692 
Q 603 -541 603 -63 
L 603 3500 
z
M 603 4863 
L 1178 4863 
L 1178 4134 
L 603 4134 
L 603 4863 
z
" transform="scale(0.015625)"/>
      </defs>
      <use xlink:href="#DejaVuSans-73"/>
      <use xlink:href="#DejaVuSans-63" x="52.099609"/>
      <use xlink:href="#DejaVuSans-69" x="107.080078"/>
      <use xlink:href="#DejaVuSans-70" x="134.863281"/>
      <use xlink:href="#DejaVuSans-79" x="198.339844"/>
      <use xlink:href="#DejaVuSans-5f" x="257.519531"/>
      <use xlink:href="#DejaVuSans-6a" x="307.519531"/>
      <use xlink:href="#DejaVuSans-61" x="335.302734"/>
      <use xlink:href="#DejaVuSans-63" x="396.582031"/>
     </g>
    </g>
    <g id="patch_11">
     <path d="M 572.619375 80.293125 
L 596.619375 80.293125 
L 596.619375 71.893125 
L 572.619375 71.893125 
z
" style="fill: #b2df8a; stroke: #b2df8a; stroke-linejoin: miter"/>
    </g>
    <g id="text_13">
     <!-- cvxpy -->
     <g transform="translate(606.219375 80.293125) scale(0.12 -0.12)">
      <defs>
       <path id="DejaVuSans-76" d="M 191 3500 
L 800 3500 
L 1894 563 
L 2988 3500 
L 3597 3500 
L 2284 0 
L 1503 0 
L 191 3500 
z
" transform="scale(0.015625)"/>
       <path id="DejaVuSans-78" d="M 3513 3500 
L 2247 1797 
L 3578 0 
L 2900 0 
L 1881 1375 
L 863 0 
L 184 0 
L 1544 1831 
L 300 3500 
L 978 3500 
L 1906 2253 
L 2834 3500 
L 3513 3500 
z
" transform="scale(0.015625)"/>
      </defs>
      <use xlink:href="#DejaVuSans-63"/>
      <use xlink:href="#DejaVuSans-76" x="54.980469"/>
      <use xlink:href="#DejaVuSans-78" x="114.160156"/>
      <use xlink:href="#DejaVuSans-70" x="173.339844"/>
      <use xlink:href="#DejaVuSans-79" x="236.816406"/>
     </g>
    </g>
   </g>
  </g>
 </g>
 <defs>
  <clipPath id="pf19d9241b9">
   <rect x="70.65875" y="7.2" width="600.55" height="342.92"/>
  </clipPath>
 </defs>
</svg>
