<?xml version="1.0" encoding="utf-8" standalone="no"?>
<!DOCTYPE svg PUBLIC "-//W3C//DTD SVG 1.1//EN"
  "http://www.w3.org/Graphics/SVG/1.1/DTD/svg11.dtd">
<svg xmlns:xlink="http://www.w3.org/1999/xlink" width="675.928125pt" height="379.146562pt" viewBox="0 0 675.928125 379.146562" xmlns="http://www.w3.org/2000/svg" version="1.1">
 <metadata>
  <rdf:RDF xmlns:dc="http://purl.org/dc/elements/1.1/" xmlns:cc="http://creativecommons.org/ns#" xmlns:rdf="http://www.w3.org/1999/02/22-rdf-syntax-ns#">
   <cc:Work>
    <dc:type rdf:resource="http://purl.org/dc/dcmitype/StillImage"/>
    <dc:date>2025-04-27T01:39:55.514071</dc:date>
    <dc:format>image/svg+xml</dc:format>
    <dc:creator>
     <cc:Agent>
      <dc:title>Matplotlib v3.8.4, https://matplotlib.org/</dc:title>
     </cc:Agent>
    </dc:creator>
   </cc:Work>
  </rdf:RDF>
 </metadata>
 <defs>
  <style type="text/css">*{stroke-linejoin: round; stroke-linecap: butt}</style>
 </defs>
 <g id="figure_1">
  <g id="patch_1">
   <path d="M 0 379.146562 
L 675.928125 379.146562 
L 675.928125 0 
L 0 0 
z
" style="fill: #ffffff"/>
  </g>
  <g id="axes_1">
   <g id="patch_2">
    <path d="M 49.88375 337.719062 
L 659.18625 337.719062 
L 659.18625 11.759062 
L 49.88375 11.759062 
z
" style="fill: #ffffff"/>
   </g>
   <g id="matplotlib.axis_1">
    <g id="xtick_1">
     <g id="line2d_1">
      <path d="M 49.88375 337.719062 
L 49.88375 11.759062 
" clip-path="url(#pba189dc71f)" style="fill: none; stroke: #e6e6e6; stroke-width: 0.8; stroke-linecap: square"/>
     </g>
     <g id="line2d_2">
      <defs>
       <path id="med80936a53" d="M 0 0 
L 0 3.5 
" style="stroke: #000000; stroke-width: 0.8"/>
      </defs>
      <g>
       <use xlink:href="#med80936a53" x="49.88375" y="337.719062" style="stroke: #000000; stroke-width: 0.8"/>
      </g>
     </g>
     <g id="text_1">
      <!-- 0.0 -->
      <g transform="translate(40.341875 353.837187) scale(0.12 -0.12)">
       <defs>
        <path id="DejaVuSans-30" d="M 2034 4250 
Q 1547 4250 1301 3770 
Q 1056 3291 1056 2328 
Q 1056 1369 1301 889 
Q 1547 409 2034 409 
Q 2525 409 2770 889 
Q 3016 1369 3016 2328 
Q 3016 3291 2770 3770 
Q 2525 4250 2034 4250 
z
M 2034 4750 
Q 2819 4750 3233 4129 
Q 3647 3509 3647 2328 
Q 3647 1150 3233 529 
Q 2819 -91 2034 -91 
Q 1250 -91 836 529 
Q 422 1150 422 2328 
Q 422 3509 836 4129 
Q 1250 4750 2034 4750 
z
" transform="scale(0.015625)"/>
        <path id="DejaVuSans-2e" d="M 684 794 
L 1344 794 
L 1344 0 
L 684 0 
L 684 794 
z
" transform="scale(0.015625)"/>
       </defs>
       <use xlink:href="#DejaVuSans-30"/>
       <use xlink:href="#DejaVuSans-2e" x="63.623047"/>
       <use xlink:href="#DejaVuSans-30" x="95.410156"/>
      </g>
     </g>
    </g>
    <g id="xtick_2">
     <g id="line2d_3">
      <path d="M 171.74425 337.719062 
L 171.74425 11.759062 
" clip-path="url(#pba189dc71f)" style="fill: none; stroke: #e6e6e6; stroke-width: 0.8; stroke-linecap: square"/>
     </g>
     <g id="line2d_4">
      <g>
       <use xlink:href="#med80936a53" x="171.74425" y="337.719062" style="stroke: #000000; stroke-width: 0.8"/>
      </g>
     </g>
     <g id="text_2">
      <!-- 0.2 -->
      <g transform="translate(162.202375 353.837187) scale(0.12 -0.12)">
       <defs>
        <path id="DejaVuSans-32" d="M 1228 531 
L 3431 531 
L 3431 0 
L 469 0 
L 469 531 
Q 828 903 1448 1529 
Q 2069 2156 2228 2338 
Q 2531 2678 2651 2914 
Q 2772 3150 2772 3378 
Q 2772 3750 2511 3984 
Q 2250 4219 1831 4219 
Q 1534 4219 1204 4116 
Q 875 4013 500 3803 
L 500 4441 
Q 881 4594 1212 4672 
Q 1544 4750 1819 4750 
Q 2544 4750 2975 4387 
Q 3406 4025 3406 3419 
Q 3406 3131 3298 2873 
Q 3191 2616 2906 2266 
Q 2828 2175 2409 1742 
Q 1991 1309 1228 531 
z
" transform="scale(0.015625)"/>
       </defs>
       <use xlink:href="#DejaVuSans-30"/>
       <use xlink:href="#DejaVuSans-2e" x="63.623047"/>
       <use xlink:href="#DejaVuSans-32" x="95.410156"/>
      </g>
     </g>
    </g>
    <g id="xtick_3">
     <g id="line2d_5">
      <path d="M 293.60475 337.719062 
L 293.60475 11.759062 
" clip-path="url(#pba189dc71f)" style="fill: none; stroke: #e6e6e6; stroke-width: 0.8; stroke-linecap: square"/>
     </g>
     <g id="line2d_6">
      <g>
       <use xlink:href="#med80936a53" x="293.60475" y="337.719062" style="stroke: #000000; stroke-width: 0.8"/>
      </g>
     </g>
     <g id="text_3">
      <!-- 0.4 -->
      <g transform="translate(284.062875 353.837187) scale(0.12 -0.12)">
       <defs>
        <path id="DejaVuSans-34" d="M 2419 4116 
L 825 1625 
L 2419 1625 
L 2419 4116 
z
M 2253 4666 
L 3047 4666 
L 3047 1625 
L 3713 1625 
L 3713 1100 
L 3047 1100 
L 3047 0 
L 2419 0 
L 2419 1100 
L 313 1100 
L 313 1709 
L 2253 4666 
z
" transform="scale(0.015625)"/>
       </defs>
       <use xlink:href="#DejaVuSans-30"/>
       <use xlink:href="#DejaVuSans-2e" x="63.623047"/>
       <use xlink:href="#DejaVuSans-34" x="95.410156"/>
      </g>
     </g>
    </g>
    <g id="xtick_4">
     <g id="line2d_7">
      <path d="M 415.46525 337.719062 
L 415.46525 11.759062 
" clip-path="url(#pba189dc71f)" style="fill: none; stroke: #e6e6e6; stroke-width: 0.8; stroke-linecap: square"/>
     </g>
     <g id="line2d_8">
      <g>
       <use xlink:href="#med80936a53" x="415.46525" y="337.719062" style="stroke: #000000; stroke-width: 0.8"/>
      </g>
     </g>
     <g id="text_4">
      <!-- 0.6 -->
      <g transform="translate(405.923375 353.837187) scale(0.12 -0.12)">
       <defs>
        <path id="DejaVuSans-36" d="M 2113 2584 
Q 1688 2584 1439 2293 
Q 1191 2003 1191 1497 
Q 1191 994 1439 701 
Q 1688 409 2113 409 
Q 2538 409 2786 701 
Q 3034 994 3034 1497 
Q 3034 2003 2786 2293 
Q 2538 2584 2113 2584 
z
M 3366 4563 
L 3366 3988 
Q 3128 4100 2886 4159 
Q 2644 4219 2406 4219 
Q 1781 4219 1451 3797 
Q 1122 3375 1075 2522 
Q 1259 2794 1537 2939 
Q 1816 3084 2150 3084 
Q 2853 3084 3261 2657 
Q 3669 2231 3669 1497 
Q 3669 778 3244 343 
Q 2819 -91 2113 -91 
Q 1303 -91 875 529 
Q 447 1150 447 2328 
Q 447 3434 972 4092 
Q 1497 4750 2381 4750 
Q 2619 4750 2861 4703 
Q 3103 4656 3366 4563 
z
" transform="scale(0.015625)"/>
       </defs>
       <use xlink:href="#DejaVuSans-30"/>
       <use xlink:href="#DejaVuSans-2e" x="63.623047"/>
       <use xlink:href="#DejaVuSans-36" x="95.410156"/>
      </g>
     </g>
    </g>
    <g id="xtick_5">
     <g id="line2d_9">
      <path d="M 537.32575 337.719062 
L 537.32575 11.759062 
" clip-path="url(#pba189dc71f)" style="fill: none; stroke: #e6e6e6; stroke-width: 0.8; stroke-linecap: square"/>
     </g>
     <g id="line2d_10">
      <g>
       <use xlink:href="#med80936a53" x="537.32575" y="337.719062" style="stroke: #000000; stroke-width: 0.8"/>
      </g>
     </g>
     <g id="text_5">
      <!-- 0.8 -->
      <g transform="translate(527.783875 353.837187) scale(0.12 -0.12)">
       <defs>
        <path id="DejaVuSans-38" d="M 2034 2216 
Q 1584 2216 1326 1975 
Q 1069 1734 1069 1313 
Q 1069 891 1326 650 
Q 1584 409 2034 409 
Q 2484 409 2743 651 
Q 3003 894 3003 1313 
Q 3003 1734 2745 1975 
Q 2488 2216 2034 2216 
z
M 1403 2484 
Q 997 2584 770 2862 
Q 544 3141 544 3541 
Q 544 4100 942 4425 
Q 1341 4750 2034 4750 
Q 2731 4750 3128 4425 
Q 3525 4100 3525 3541 
Q 3525 3141 3298 2862 
Q 3072 2584 2669 2484 
Q 3125 2378 3379 2068 
Q 3634 1759 3634 1313 
Q 3634 634 3220 271 
Q 2806 -91 2034 -91 
Q 1263 -91 848 271 
Q 434 634 434 1313 
Q 434 1759 690 2068 
Q 947 2378 1403 2484 
z
M 1172 3481 
Q 1172 3119 1398 2916 
Q 1625 2713 2034 2713 
Q 2441 2713 2670 2916 
Q 2900 3119 2900 3481 
Q 2900 3844 2670 4047 
Q 2441 4250 2034 4250 
Q 1625 4250 1398 4047 
Q 1172 3844 1172 3481 
z
" transform="scale(0.015625)"/>
       </defs>
       <use xlink:href="#DejaVuSans-30"/>
       <use xlink:href="#DejaVuSans-2e" x="63.623047"/>
       <use xlink:href="#DejaVuSans-38" x="95.410156"/>
      </g>
     </g>
    </g>
    <g id="xtick_6">
     <g id="line2d_11">
      <path d="M 659.18625 337.719062 
L 659.18625 11.759062 
" clip-path="url(#pba189dc71f)" style="fill: none; stroke: #e6e6e6; stroke-width: 0.8; stroke-linecap: square"/>
     </g>
     <g id="line2d_12">
      <g>
       <use xlink:href="#med80936a53" x="659.18625" y="337.719062" style="stroke: #000000; stroke-width: 0.8"/>
      </g>
     </g>
     <g id="text_6">
      <!-- 1.0 -->
      <g transform="translate(649.644375 353.837187) scale(0.12 -0.12)">
       <defs>
        <path id="DejaVuSans-31" d="M 794 531 
L 1825 531 
L 1825 4091 
L 703 3866 
L 703 4441 
L 1819 4666 
L 2450 4666 
L 2450 531 
L 3481 531 
L 3481 0 
L 794 0 
L 794 531 
z
" transform="scale(0.015625)"/>
       </defs>
       <use xlink:href="#DejaVuSans-31"/>
       <use xlink:href="#DejaVuSans-2e" x="63.623047"/>
       <use xlink:href="#DejaVuSans-30" x="95.410156"/>
      </g>
     </g>
    </g>
    <g id="text_7">
     <!-- $x_0$ -->
     <g transform="translate(348.595 369.450937) scale(0.12 -0.12)">
      <defs>
       <path id="Cmmi10-78" d="M 500 184 
Q 613 97 819 97 
Q 1019 97 1172 289 
Q 1325 481 1381 709 
L 1672 1844 
Q 1741 2153 1741 2266 
Q 1741 2425 1652 2544 
Q 1563 2663 1403 2663 
Q 1200 2663 1022 2536 
Q 844 2409 722 2214 
Q 600 2019 550 1819 
Q 538 1778 500 1778 
L 422 1778 
Q 372 1778 372 1838 
L 372 1856 
Q 434 2094 584 2320 
Q 734 2547 951 2687 
Q 1169 2828 1416 2828 
Q 1650 2828 1839 2703 
Q 2028 2578 2106 2363 
Q 2216 2559 2386 2693 
Q 2556 2828 2759 2828 
Q 2897 2828 3040 2779 
Q 3184 2731 3275 2631 
Q 3366 2531 3366 2381 
Q 3366 2219 3261 2101 
Q 3156 1984 2994 1984 
Q 2891 1984 2822 2050 
Q 2753 2116 2753 2216 
Q 2753 2350 2845 2451 
Q 2938 2553 3066 2572 
Q 2950 2663 2747 2663 
Q 2541 2663 2389 2472 
Q 2238 2281 2175 2047 
L 1894 916 
Q 1825 659 1825 494 
Q 1825 331 1917 214 
Q 2009 97 2163 97 
Q 2463 97 2698 361 
Q 2934 625 3009 941 
Q 3022 978 3059 978 
L 3138 978 
Q 3163 978 3178 961 
Q 3194 944 3194 922 
Q 3194 916 3188 903 
Q 3097 522 2806 225 
Q 2516 -72 2150 -72 
Q 1916 -72 1727 54 
Q 1538 181 1459 397 
Q 1359 209 1182 68 
Q 1006 -72 806 -72 
Q 669 -72 523 -23 
Q 378 25 287 125 
Q 197 225 197 378 
Q 197 528 301 651 
Q 406 775 563 775 
Q 669 775 741 711 
Q 813 647 813 544 
Q 813 409 723 309 
Q 634 209 500 184 
z
" transform="scale(0.015625)"/>
       <path id="Cmr10-30" d="M 1600 -141 
Q 816 -141 533 504 
Q 250 1150 250 2041 
Q 250 2597 351 3087 
Q 453 3578 754 3920 
Q 1056 4263 1600 4263 
Q 2022 4263 2290 4056 
Q 2559 3850 2700 3523 
Q 2841 3197 2892 2823 
Q 2944 2450 2944 2041 
Q 2944 1491 2842 1011 
Q 2741 531 2444 195 
Q 2147 -141 1600 -141 
z
M 1600 25 
Q 1956 25 2131 390 
Q 2306 756 2347 1200 
Q 2388 1644 2388 2144 
Q 2388 2625 2347 3031 
Q 2306 3438 2132 3767 
Q 1959 4097 1600 4097 
Q 1238 4097 1063 3765 
Q 888 3434 847 3029 
Q 806 2625 806 2144 
Q 806 1788 823 1472 
Q 841 1156 916 820 
Q 991 484 1158 254 
Q 1325 25 1600 25 
z
" transform="scale(0.015625)"/>
      </defs>
      <use xlink:href="#Cmmi10-78" transform="translate(0 0.8125)"/>
      <use xlink:href="#Cmr10-30" transform="translate(57.080078 -16.19375) scale(0.7)"/>
     </g>
    </g>
   </g>
   <g id="matplotlib.axis_2">
    <g id="ytick_1">
     <g id="line2d_13">
      <path d="M 49.88375 337.719062 
L 659.18625 337.719062 
" clip-path="url(#pba189dc71f)" style="fill: none; stroke: #e6e6e6; stroke-width: 0.8; stroke-linecap: square"/>
     </g>
     <g id="line2d_14">
      <defs>
       <path id="m2f617b1141" d="M 0 0 
L -3.5 0 
" style="stroke: #000000; stroke-width: 0.8"/>
      </defs>
      <g>
       <use xlink:href="#m2f617b1141" x="49.88375" y="337.719062" style="stroke: #000000; stroke-width: 0.8"/>
      </g>
     </g>
     <g id="text_8">
      <!-- 0.0 -->
      <g transform="translate(23.8 342.278125) scale(0.12 -0.12)">
       <use xlink:href="#DejaVuSans-30"/>
       <use xlink:href="#DejaVuSans-2e" x="63.623047"/>
       <use xlink:href="#DejaVuSans-30" x="95.410156"/>
      </g>
     </g>
    </g>
    <g id="ytick_2">
     <g id="line2d_15">
      <path d="M 49.88375 272.527062 
L 659.18625 272.527062 
" clip-path="url(#pba189dc71f)" style="fill: none; stroke: #e6e6e6; stroke-width: 0.8; stroke-linecap: square"/>
     </g>
     <g id="line2d_16">
      <g>
       <use xlink:href="#m2f617b1141" x="49.88375" y="272.527062" style="stroke: #000000; stroke-width: 0.8"/>
      </g>
     </g>
     <g id="text_9">
      <!-- 0.2 -->
      <g transform="translate(23.8 277.086125) scale(0.12 -0.12)">
       <use xlink:href="#DejaVuSans-30"/>
       <use xlink:href="#DejaVuSans-2e" x="63.623047"/>
       <use xlink:href="#DejaVuSans-32" x="95.410156"/>
      </g>
     </g>
    </g>
    <g id="ytick_3">
     <g id="line2d_17">
      <path d="M 49.88375 207.335062 
L 659.18625 207.335062 
" clip-path="url(#pba189dc71f)" style="fill: none; stroke: #e6e6e6; stroke-width: 0.8; stroke-linecap: square"/>
     </g>
     <g id="line2d_18">
      <g>
       <use xlink:href="#m2f617b1141" x="49.88375" y="207.335062" style="stroke: #000000; stroke-width: 0.8"/>
      </g>
     </g>
     <g id="text_10">
      <!-- 0.4 -->
      <g transform="translate(23.8 211.894125) scale(0.12 -0.12)">
       <use xlink:href="#DejaVuSans-30"/>
       <use xlink:href="#DejaVuSans-2e" x="63.623047"/>
       <use xlink:href="#DejaVuSans-34" x="95.410156"/>
      </g>
     </g>
    </g>
    <g id="ytick_4">
     <g id="line2d_19">
      <path d="M 49.88375 142.143062 
L 659.18625 142.143062 
" clip-path="url(#pba189dc71f)" style="fill: none; stroke: #e6e6e6; stroke-width: 0.8; stroke-linecap: square"/>
     </g>
     <g id="line2d_20">
      <g>
       <use xlink:href="#m2f617b1141" x="49.88375" y="142.143062" style="stroke: #000000; stroke-width: 0.8"/>
      </g>
     </g>
     <g id="text_11">
      <!-- 0.6 -->
      <g transform="translate(23.8 146.702125) scale(0.12 -0.12)">
       <use xlink:href="#DejaVuSans-30"/>
       <use xlink:href="#DejaVuSans-2e" x="63.623047"/>
       <use xlink:href="#DejaVuSans-36" x="95.410156"/>
      </g>
     </g>
    </g>
    <g id="ytick_5">
     <g id="line2d_21">
      <path d="M 49.88375 76.951062 
L 659.18625 76.951062 
" clip-path="url(#pba189dc71f)" style="fill: none; stroke: #e6e6e6; stroke-width: 0.8; stroke-linecap: square"/>
     </g>
     <g id="line2d_22">
      <g>
       <use xlink:href="#m2f617b1141" x="49.88375" y="76.951062" style="stroke: #000000; stroke-width: 0.8"/>
      </g>
     </g>
     <g id="text_12">
      <!-- 0.8 -->
      <g transform="translate(23.8 81.510125) scale(0.12 -0.12)">
       <use xlink:href="#DejaVuSans-30"/>
       <use xlink:href="#DejaVuSans-2e" x="63.623047"/>
       <use xlink:href="#DejaVuSans-38" x="95.410156"/>
      </g>
     </g>
    </g>
    <g id="ytick_6">
     <g id="line2d_23">
      <path d="M 49.88375 11.759062 
L 659.18625 11.759062 
" clip-path="url(#pba189dc71f)" style="fill: none; stroke: #e6e6e6; stroke-width: 0.8; stroke-linecap: square"/>
     </g>
     <g id="line2d_24">
      <g>
       <use xlink:href="#m2f617b1141" x="49.88375" y="11.759062" style="stroke: #000000; stroke-width: 0.8"/>
      </g>
     </g>
     <g id="text_13">
      <!-- 1.0 -->
      <g transform="translate(23.8 16.318125) scale(0.12 -0.12)">
       <use xlink:href="#DejaVuSans-31"/>
       <use xlink:href="#DejaVuSans-2e" x="63.623047"/>
       <use xlink:href="#DejaVuSans-30" x="95.410156"/>
      </g>
     </g>
    </g>
    <g id="text_14">
     <!-- $F_{X_0}(X_0\leq x_0)$ -->
     <g transform="translate(16.2 208.999062) rotate(-90) scale(0.12 -0.12)">
      <defs>
       <path id="Cmmi10-46" d="M 300 0 
Q 238 0 238 84 
Q 241 100 250 139 
Q 259 178 276 201 
Q 294 225 319 225 
Q 709 225 863 269 
Q 947 297 984 441 
L 1863 3956 
Q 1875 4019 1875 4044 
Q 1875 4113 1797 4122 
Q 1678 4147 1338 4147 
Q 1275 4147 1275 4231 
Q 1278 4247 1287 4286 
Q 1297 4325 1314 4348 
Q 1331 4372 1356 4372 
L 4738 4372 
Q 4800 4372 4800 4288 
L 4647 2963 
Q 4647 2944 4625 2925 
Q 4603 2906 4581 2906 
L 4525 2906 
Q 4459 2906 4459 2988 
Q 4500 3278 4500 3463 
Q 4500 3781 4362 3931 
Q 4225 4081 4015 4114 
Q 3806 4147 3438 4147 
L 2753 4147 
Q 2578 4147 2522 4117 
Q 2466 4088 2419 3928 
L 2009 2297 
L 2491 2297 
Q 2728 2297 2875 2322 
Q 3022 2347 3119 2419 
Q 3216 2491 3280 2627 
Q 3344 2763 3397 2988 
Q 3416 3047 3463 3047 
L 3519 3047 
Q 3584 3047 3584 2963 
L 3194 1381 
Q 3166 1325 3128 1325 
L 3072 1325 
Q 3009 1325 3009 1409 
Q 3025 1475 3034 1519 
Q 3044 1563 3058 1645 
Q 3072 1728 3072 1791 
Q 3072 1975 2909 2025 
Q 2747 2075 2484 2075 
L 1959 2075 
L 1544 416 
Q 1528 353 1528 353 
Q 1528 278 1575 269 
Q 1741 225 2228 225 
Q 2291 225 2291 141 
Q 2269 50 2256 25 
Q 2244 0 2181 0 
L 300 0 
z
" transform="scale(0.015625)"/>
       <path id="Cmmi10-58" d="M 231 0 
Q 166 0 166 84 
Q 169 100 180 140 
Q 191 181 208 203 
Q 225 225 256 225 
Q 838 225 1253 659 
Q 1259 666 1267 669 
Q 1275 672 1275 672 
L 2675 2181 
L 1913 4019 
Q 1847 4103 1700 4125 
Q 1553 4147 1356 4147 
Q 1294 4147 1294 4231 
Q 1316 4313 1328 4342 
Q 1341 4372 1403 4372 
L 3003 4372 
Q 3066 4372 3066 4288 
Q 3063 4272 3052 4231 
Q 3041 4191 3023 4169 
Q 3006 4147 2975 4147 
Q 2856 4147 2729 4108 
Q 2603 4069 2553 3981 
L 3103 2656 
L 4153 3781 
Q 4163 3803 4197 3858 
Q 4231 3913 4231 3963 
Q 4231 4056 4150 4101 
Q 4069 4147 3956 4147 
Q 3891 4147 3891 4231 
Q 3913 4313 3925 4342 
Q 3938 4372 4000 4372 
L 5388 4372 
Q 5422 4372 5437 4347 
Q 5453 4322 5453 4288 
Q 5450 4272 5440 4234 
Q 5431 4197 5415 4172 
Q 5400 4147 5369 4147 
Q 5072 4147 4823 4039 
Q 4575 3931 4366 3713 
Q 4363 3709 4358 3707 
Q 4353 3706 4347 3700 
L 3188 2450 
L 4063 353 
Q 4166 225 4622 225 
Q 4684 225 4684 141 
Q 4663 56 4648 28 
Q 4634 0 4575 0 
L 2975 0 
Q 2913 0 2913 84 
Q 2916 100 2925 139 
Q 2934 178 2951 201 
Q 2969 225 2994 225 
Q 3119 225 3247 264 
Q 3375 303 3425 391 
L 2759 1984 
L 1466 588 
Q 1456 566 1422 512 
Q 1388 459 1388 409 
Q 1388 316 1475 270 
Q 1563 225 1663 225 
Q 1728 225 1728 141 
Q 1706 50 1693 25 
Q 1681 0 1619 0 
L 231 0 
z
" transform="scale(0.015625)"/>
       <path id="Cmr10-28" d="M 1984 -1588 
Q 1628 -1306 1370 -942 
Q 1113 -578 948 -165 
Q 784 247 703 697 
Q 622 1147 622 1600 
Q 622 2059 703 2509 
Q 784 2959 951 3375 
Q 1119 3791 1378 4153 
Q 1638 4516 1984 4788 
Q 1984 4800 2016 4800 
L 2075 4800 
Q 2094 4800 2109 4783 
Q 2125 4766 2125 4744 
Q 2125 4716 2113 4703 
Q 1800 4397 1592 4047 
Q 1384 3697 1257 3301 
Q 1131 2906 1075 2482 
Q 1019 2059 1019 1600 
Q 1019 -434 2106 -1491 
Q 2125 -1509 2125 -1544 
Q 2125 -1559 2108 -1579 
Q 2091 -1600 2075 -1600 
L 2016 -1600 
Q 1984 -1600 1984 -1588 
z
" transform="scale(0.015625)"/>
       <path id="Cmsy10-2219" d="M 653 -878 
Q 600 -878 565 -837 
Q 531 -797 531 -750 
Q 531 -697 565 -659 
Q 600 -622 653 -622 
L 4325 -622 
Q 4375 -622 4408 -659 
Q 4441 -697 4441 -750 
Q 4441 -797 4408 -837 
Q 4375 -878 4325 -878 
L 653 -878 
z
M 594 2113 
Q 531 2131 531 2222 
Q 531 2303 616 2338 
L 4269 4063 
Q 4281 4072 4313 4072 
Q 4366 4072 4403 4034 
Q 4441 3997 4441 3944 
Q 4441 3859 4366 3828 
L 959 2222 
L 4384 603 
Q 4441 572 4441 494 
Q 4441 438 4403 402 
Q 4366 366 4313 366 
Q 4281 366 4269 378 
L 594 2113 
z
" transform="scale(0.015625)"/>
       <path id="Cmr10-29" d="M 416 -1600 
Q 359 -1600 359 -1544 
Q 359 -1516 372 -1503 
Q 1466 -434 1466 1600 
Q 1466 3634 384 4691 
Q 359 4706 359 4744 
Q 359 4766 376 4783 
Q 394 4800 416 4800 
L 475 4800 
Q 494 4800 506 4788 
Q 966 4425 1272 3906 
Q 1578 3388 1720 2800 
Q 1863 2213 1863 1600 
Q 1863 1147 1786 708 
Q 1709 269 1542 -157 
Q 1375 -584 1119 -945 
Q 863 -1306 506 -1588 
Q 494 -1600 475 -1600 
L 416 -1600 
z
" transform="scale(0.015625)"/>
      </defs>
      <use xlink:href="#Cmmi10-46"/>
      <use xlink:href="#Cmmi10-58" transform="translate(64.306641 -17.00625) scale(0.7)"/>
      <use xlink:href="#Cmr10-30" transform="translate(122.275391 -28.910625) scale(0.49)"/>
      <use xlink:href="#Cmr10-28" transform="translate(157.616875 0)"/>
      <use xlink:href="#Cmmi10-58" transform="translate(196.435234 0)"/>
      <use xlink:href="#Cmr10-30" transform="translate(279.247734 -17.00625) scale(0.7)"/>
      <use xlink:href="#Cmsy10-2219" transform="translate(338.183672 0)"/>
      <use xlink:href="#Cmmi10-78" transform="translate(433.427812 0)"/>
      <use xlink:href="#Cmr10-30" transform="translate(490.507891 -17.00625) scale(0.7)"/>
      <use xlink:href="#Cmr10-29" transform="translate(531.885234 0)"/>
     </g>
    </g>
   </g>
   <g id="line2d_25">
    <path d="M 49.88375 337.719062 
L 56.038321 336.056001 
L 62.192891 334.35865 
L 68.347462 332.625937 
L 74.502033 330.856747 
L 80.656604 329.049914 
L 86.811174 327.204224 
L 92.965745 325.31841 
L 99.120316 323.39115 
L 105.274886 321.421062 
L 111.429457 319.406703 
L 117.584028 317.346562 
L 123.738598 315.239062 
L 129.893169 313.082551 
L 136.04774 310.875298 
L 142.202311 308.615491 
L 148.356881 306.301231 
L 154.511452 303.930526 
L 160.666023 301.501285 
L 166.820593 299.011312 
L 172.975164 296.458303 
L 179.129735 293.839832 
L 185.284306 291.153348 
L 191.438876 288.396168 
L 197.593447 285.565462 
L 203.748018 282.658252 
L 209.902588 279.671391 
L 216.057159 276.601562 
L 222.21173 273.44526 
L 228.366301 270.198777 
L 234.520871 266.858193 
L 240.675442 263.419357 
L 246.830013 259.877868 
L 252.984583 256.229062 
L 259.139154 252.467986 
L 265.293725 248.589375 
L 271.448295 244.587634 
L 277.602866 240.456804 
L 283.757437 236.190538 
L 289.912008 231.782062 
L 296.066578 227.224147 
L 302.221149 222.509062 
L 308.37572 217.628536 
L 314.53029 212.573705 
L 320.684861 207.335062 
L 326.839432 201.902396 
L 332.994003 196.264723 
L 339.148573 190.410216 
L 345.303144 184.326121 
L 351.457715 177.998662 
L 357.612285 171.479462 
L 363.766856 165.152004 
L 369.921427 159.067909 
L 376.075997 153.213402 
L 382.230568 147.575729 
L 388.385139 142.143062 
L 394.53971 136.90442 
L 400.69428 131.849589 
L 406.848851 126.969062 
L 413.003422 122.253978 
L 419.157992 117.696062 
L 425.312563 113.287587 
L 431.467134 109.021321 
L 437.621705 104.890491 
L 443.776275 100.88875 
L 449.930846 97.010139 
L 456.085417 93.249062 
L 462.239987 89.600257 
L 468.394558 86.058768 
L 474.549129 82.619932 
L 480.703699 79.279348 
L 486.85827 76.032865 
L 493.012841 72.876562 
L 499.167412 69.806734 
L 505.321982 66.819873 
L 511.476553 63.912662 
L 517.631124 61.081957 
L 523.785694 58.324777 
L 529.940265 55.638293 
L 536.094836 53.019822 
L 542.249407 50.466812 
L 548.403977 47.97684 
L 554.558548 45.547599 
L 560.713119 43.176894 
L 566.867689 40.862634 
L 573.02226 38.602827 
L 579.176831 36.395574 
L 585.331402 34.239062 
L 591.485972 32.131562 
L 597.640543 30.071422 
L 603.795114 28.057062 
L 609.949684 26.086975 
L 616.104255 24.159715 
L 622.258826 22.273901 
L 628.413396 20.428211 
L 634.567967 18.621378 
L 640.722538 16.852187 
L 646.877109 15.119475 
L 653.031679 13.422124 
L 659.18625 11.759062 
" clip-path="url(#pba189dc71f)" style="fill: none; stroke: #000080; stroke-width: 1.5; stroke-linecap: square"/>
   </g>
   <g id="line2d_26">
    <path d="M 49.933891 337.719062 
L 49.933891 337.393102 
L 51.216651 337.393102 
L 51.216651 337.067142 
L 53.856235 337.067142 
L 53.856235 336.741182 
L 53.999367 336.741182 
L 53.999367 336.415222 
L 56.4911 336.415222 
L 56.495567 335.763302 
L 58.096944 335.763302 
L 58.096944 335.437342 
L 59.37983 335.437342 
L 59.37983 335.111382 
L 60.300916 335.111382 
L 60.300916 334.785422 
L 60.556588 334.785422 
L 60.556588 334.459462 
L 63.178398 334.459462 
L 63.178398 334.133502 
L 63.853852 334.133502 
L 63.853852 333.807542 
L 64.177238 333.807542 
L 64.177238 333.481582 
L 65.969616 333.481582 
L 65.969616 333.155622 
L 66.316147 333.155622 
L 66.316147 332.829662 
L 67.627067 332.829662 
L 67.627067 332.503702 
L 67.90697 332.503702 
L 67.916752 331.851782 
L 71.634724 331.851782 
L 71.634724 331.525822 
L 71.883574 331.525822 
L 71.883574 331.199862 
L 73.158122 331.199862 
L 73.158122 330.873902 
L 74.891009 330.873902 
L 74.891009 330.547942 
L 75.424257 330.547942 
L 75.424257 330.221982 
L 76.152508 330.221982 
L 76.152508 329.896022 
L 77.139954 329.896022 
L 77.139954 329.570062 
L 77.57156 329.570062 
L 77.57156 329.244102 
L 79.63314 329.244102 
L 79.63314 328.918142 
L 80.74749 328.918142 
L 80.74749 328.592182 
L 81.977899 328.592182 
L 81.977899 328.266222 
L 82.640611 328.266222 
L 82.640611 327.940262 
L 83.058258 327.940262 
L 83.058258 327.614302 
L 84.938454 327.614302 
L 84.938454 327.288342 
L 85.264454 327.288342 
L 85.264454 326.962382 
L 86.755092 326.962382 
L 86.755092 326.636422 
L 87.560031 326.636422 
L 87.560031 326.310462 
L 88.201381 326.310462 
L 88.302216 325.658542 
L 91.784023 325.658542 
L 91.784023 325.332582 
L 93.486867 325.332582 
L 93.486867 325.006622 
L 93.961496 325.006622 
L 93.961496 324.680662 
L 94.462534 324.680662 
L 94.462534 324.354702 
L 94.993725 324.354702 
L 94.993725 324.028742 
L 95.69737 324.028742 
L 95.69737 323.702782 
L 96.565219 323.702782 
L 96.565219 323.376822 
L 97.390955 323.376822 
L 97.445973 322.724902 
L 97.959214 322.724902 
L 97.959214 322.398942 
L 98.351852 322.398942 
L 98.351852 322.072982 
L 98.472897 322.072982 
L 98.472897 321.747022 
L 101.36968 321.747022 
L 101.36968 321.421062 
L 101.685441 321.421062 
L 101.685441 321.095102 
L 103.14763 321.095102 
L 103.14763 320.769142 
L 104.689063 320.769142 
L 104.689063 320.443182 
L 105.715829 320.443182 
L 105.715829 320.117222 
L 106.474769 320.117222 
L 106.474769 319.791262 
L 106.968291 319.791262 
L 106.968291 319.465302 
L 107.910224 319.465302 
L 107.910224 319.139342 
L 108.802625 319.139342 
L 108.802625 318.813382 
L 109.669392 318.813382 
L 109.669392 318.487422 
L 113.34023 318.487422 
L 113.34023 318.161462 
L 115.480471 318.161462 
L 115.501918 317.509542 
L 116.650551 317.509542 
L 116.650551 317.183582 
L 119.737579 317.183582 
L 119.737579 316.857622 
L 120.363406 316.857622 
L 120.363406 316.531662 
L 121.201258 316.531662 
L 121.201258 316.205702 
L 121.972578 316.205702 
L 121.972578 315.879742 
L 122.173214 315.879742 
L 122.284273 315.227822 
L 123.548056 315.227822 
L 123.548056 314.901862 
L 125.004762 314.901862 
L 125.062221 314.249942 
L 127.276566 314.249942 
L 127.276566 313.923982 
L 128.071763 313.923982 
L 128.071763 313.598022 
L 128.625468 313.598022 
L 128.625468 313.272062 
L 130.794243 313.272062 
L 130.794243 312.946102 
L 131.050844 312.946102 
L 131.050844 312.620142 
L 131.66984 312.620142 
L 131.66984 312.294182 
L 133.31046 312.294182 
L 133.31046 311.968222 
L 134.472114 311.968222 
L 134.510087 311.316302 
L 138.184606 311.316302 
L 138.184606 310.990342 
L 139.327535 310.990342 
L 139.327535 310.664382 
L 140.00894 310.664382 
L 140.00894 310.338422 
L 142.612213 310.338422 
L 142.612213 310.012462 
L 144.146162 310.012462 
L 144.146162 309.686502 
L 144.437612 309.686502 
L 144.437612 309.360542 
L 144.718246 309.360542 
L 144.718246 309.034582 
L 145.282943 309.034582 
L 145.282943 308.708622 
L 145.612362 308.708622 
L 145.612362 308.382662 
L 146.963953 308.382662 
L 146.963953 308.056702 
L 147.207619 308.056702 
L 147.207619 307.730742 
L 148.775434 307.730742 
L 148.775434 307.404782 
L 148.922738 307.404782 
L 148.922738 307.078822 
L 149.288385 307.078822 
L 149.288385 306.752862 
L 150.837964 306.752862 
L 150.941775 306.100942 
L 150.971927 306.100942 
L 150.971927 305.774982 
L 153.014513 305.774982 
L 153.014513 305.449022 
L 153.391251 305.449022 
L 153.391251 305.123062 
L 153.933747 305.123062 
L 154.019345 304.471142 
L 154.634936 304.471142 
L 154.634936 304.145182 
L 154.801985 304.145182 
L 154.801985 303.819222 
L 156.539425 303.819222 
L 156.539425 303.493262 
L 156.822642 303.493262 
L 156.822642 303.167302 
L 157.733361 303.167302 
L 157.733361 302.841342 
L 158.126586 302.841342 
L 158.126586 302.515382 
L 158.354676 302.515382 
L 158.354676 302.189422 
L 158.916059 302.189422 
L 158.916059 301.863462 
L 160.182952 301.863462 
L 160.182952 301.537502 
L 161.068024 301.537502 
L 161.068024 301.211542 
L 162.104452 301.211542 
L 162.119765 300.559622 
L 162.941704 300.559622 
L 162.941704 300.233662 
L 164.08032 300.233662 
L 164.08032 299.907702 
L 166.414201 299.907702 
L 166.414201 299.581742 
L 166.639128 299.581742 
L 166.639128 299.255782 
L 166.882112 299.255782 
L 166.882112 298.929822 
L 167.066503 298.929822 
L 167.128274 298.277902 
L 167.833044 298.277902 
L 167.833044 297.951942 
L 168.889275 297.951942 
L 168.889275 297.625982 
L 171.073924 297.625982 
L 171.150677 296.974062 
L 171.361284 296.974062 
L 171.361284 296.648102 
L 171.978776 296.648102 
L 171.978776 296.322142 
L 172.163528 296.322142 
L 172.163528 295.996182 
L 172.735041 295.996182 
L 172.735041 295.670222 
L 172.885779 295.670222 
L 172.890939 295.018302 
L 173.151374 295.018302 
L 173.151374 294.692342 
L 174.887449 294.692342 
L 174.887449 294.366382 
L 175.949989 294.366382 
L 175.949989 294.040422 
L 177.116275 294.040422 
L 177.119757 293.388502 
L 177.597718 293.388502 
L 177.597718 293.062542 
L 178.213873 293.062542 
L 178.213873 292.736582 
L 178.421622 292.736582 
L 178.421622 292.410622 
L 178.886307 292.410622 
L 178.996176 291.758702 
L 179.276249 291.758702 
L 179.276249 291.432742 
L 180.579065 291.432742 
L 180.579065 291.106782 
L 181.409999 291.106782 
L 181.409999 290.780822 
L 181.874387 290.780822 
L 181.874387 290.454862 
L 182.11541 290.454862 
L 182.11541 290.128902 
L 186.171847 290.128902 
L 186.232694 289.476982 
L 186.604508 289.476982 
L 186.604508 289.151022 
L 188.31537 289.151022 
L 188.31537 288.825062 
L 189.0873 288.825062 
L 189.0873 288.499102 
L 190.246336 288.499102 
L 190.246336 288.173142 
L 190.452542 288.173142 
L 190.452542 287.847182 
L 191.417067 287.847182 
L 191.417067 287.521222 
L 193.4451 287.521222 
L 193.540443 286.869302 
L 193.608758 286.869302 
L 193.608758 286.543342 
L 195.059438 286.543342 
L 195.144684 285.891422 
L 196.382378 285.891422 
L 196.382378 285.565462 
L 196.647332 285.565462 
L 196.718172 284.913542 
L 196.87391 284.913542 
L 196.89247 284.261622 
L 197.175839 284.261622 
L 197.175839 283.935662 
L 197.331981 283.935662 
L 197.331981 283.609702 
L 197.493701 283.609702 
L 197.493701 283.283742 
L 197.941927 283.283742 
L 197.941927 282.957782 
L 198.061227 282.957782 
L 198.061227 282.631822 
L 199.776222 282.631822 
L 199.885556 281.979902 
L 202.035574 281.979902 
L 202.035574 281.653942 
L 202.321478 281.653942 
L 202.321478 281.327982 
L 202.902488 281.327982 
L 202.902488 281.002022 
L 203.041624 281.002022 
L 203.041624 280.676062 
L 203.572836 280.676062 
L 203.572836 280.350102 
L 204.159336 280.350102 
L 204.159336 280.024142 
L 204.277091 280.024142 
L 204.277091 279.698182 
L 204.767706 279.698182 
L 204.767706 279.372222 
L 205.476969 279.372222 
L 205.476969 279.046262 
L 206.155698 279.046262 
L 206.155698 278.720302 
L 206.412717 278.720302 
L 206.412717 278.394342 
L 207.690595 278.394342 
L 207.756371 277.742422 
L 208.007249 277.742422 
L 208.007249 277.416462 
L 208.184313 277.416462 
L 208.184313 277.090502 
L 209.138689 277.090502 
L 209.138689 276.764542 
L 210.085603 276.764542 
L 210.092101 276.112622 
L 210.938266 276.112622 
L 210.938266 275.786662 
L 211.346674 275.786662 
L 211.346674 275.460702 
L 212.079166 275.460702 
L 212.079166 275.134742 
L 213.618726 275.134742 
L 213.715883 274.482822 
L 215.796336 274.482822 
L 215.796336 274.156862 
L 216.281629 274.156862 
L 216.281629 273.830902 
L 216.617063 273.830902 
L 216.617063 273.504942 
L 217.072055 273.504942 
L 217.072055 273.178982 
L 218.381461 273.178982 
L 218.426878 272.527062 
L 218.899703 272.527062 
L 218.899703 272.201102 
L 220.458987 272.201102 
L 220.458987 271.875142 
L 221.504719 271.875142 
L 221.504719 271.549182 
L 222.133106 271.549182 
L 222.133106 271.223222 
L 222.360425 271.223222 
L 222.360425 270.897262 
L 222.538539 270.897262 
L 222.538539 270.571302 
L 224.239602 270.571302 
L 224.239602 270.245342 
L 224.859602 270.245342 
L 224.859602 269.919382 
L 225.596997 269.919382 
L 225.596997 269.593422 
L 226.039661 269.593422 
L 226.039661 269.267462 
L 226.539967 269.267462 
L 226.539967 268.941502 
L 227.103242 268.941502 
L 227.103242 268.615542 
L 228.353001 268.615542 
L 228.353001 268.289582 
L 229.834172 268.289582 
L 229.834172 267.963622 
L 230.655566 267.963622 
L 230.655566 267.637662 
L 230.847133 267.637662 
L 230.847133 267.311702 
L 231.184108 267.311702 
L 231.184108 266.985742 
L 231.34338 266.985742 
L 231.34338 266.659782 
L 232.586226 266.659782 
L 232.586226 266.333822 
L 232.705158 266.333822 
L 232.705158 266.007862 
L 233.774825 266.007862 
L 233.832388 265.355942 
L 235.116564 265.355942 
L 235.201795 264.704022 
L 235.608255 264.704022 
L 235.608255 264.378062 
L 235.977017 264.378062 
L 235.977017 264.052102 
L 236.147155 264.052102 
L 236.147155 263.726142 
L 236.388479 263.726142 
L 236.388479 263.400182 
L 237.888597 263.400182 
L 237.888597 263.074222 
L 238.625572 263.074222 
L 238.625572 262.748262 
L 241.280279 262.748262 
L 241.280279 262.422302 
L 241.580258 262.422302 
L 241.580258 262.096342 
L 242.212718 262.096342 
L 242.212718 261.770382 
L 242.864014 261.770382 
L 242.864014 261.444422 
L 242.995214 261.444422 
L 242.995214 261.118462 
L 243.36734 261.118462 
L 243.401963 260.466542 
L 243.513014 260.466542 
L 243.513014 260.140582 
L 243.854712 260.140582 
L 243.854712 259.814622 
L 244.563338 259.814622 
L 244.563338 259.488662 
L 244.681038 259.488662 
L 244.681038 259.162702 
L 244.844478 259.162702 
L 244.844478 258.836742 
L 246.225576 258.836742 
L 246.225576 258.510782 
L 246.348556 258.510782 
L 246.348556 258.184822 
L 246.533553 258.184822 
L 246.533553 257.858862 
L 247.104703 257.858862 
L 247.104703 257.532902 
L 247.721193 257.532902 
L 247.721193 257.206942 
L 248.975318 257.206942 
L 248.975318 256.880982 
L 249.157739 256.880982 
L 249.157739 256.555022 
L 249.38928 256.555022 
L 249.38928 256.229062 
L 249.796563 256.229062 
L 249.796563 255.903102 
L 250.868688 255.903102 
L 250.868688 255.577142 
L 250.992006 255.577142 
L 250.992006 255.251182 
L 251.219196 255.251182 
L 251.316391 254.599262 
L 251.431947 254.599262 
L 251.431947 254.273302 
L 252.492926 254.273302 
L 252.529193 253.621382 
L 253.043009 253.621382 
L 253.043009 253.295422 
L 253.48593 253.295422 
L 253.48593 252.969462 
L 253.629986 252.969462 
L 253.629986 252.643502 
L 254.632063 252.643502 
L 254.632063 252.317542 
L 254.812501 252.317542 
L 254.812501 251.991582 
L 255.206771 251.991582 
L 255.270611 251.339662 
L 255.399906 251.339662 
L 255.399906 251.013702 
L 255.742278 251.013702 
L 255.742278 250.687742 
L 256.058938 250.687742 
L 256.058938 250.361782 
L 256.226972 250.361782 
L 256.226972 250.035822 
L 257.685013 250.035822 
L 257.773505 249.383902 
L 258.243672 249.383902 
L 258.243672 249.057942 
L 258.731247 249.057942 
L 258.731247 248.731982 
L 259.223288 248.731982 
L 259.293462 248.080062 
L 259.366315 248.080062 
L 259.366315 247.754102 
L 259.714622 247.754102 
L 259.72539 247.102182 
L 259.921371 247.102182 
L 259.921371 246.776222 
L 260.320364 246.776222 
L 260.320364 246.450262 
L 260.584517 246.450262 
L 260.584517 246.124302 
L 261.571634 246.124302 
L 261.571634 245.798342 
L 263.086252 245.798342 
L 263.086252 245.472382 
L 263.527419 245.472382 
L 263.527419 245.146422 
L 264.282744 245.146422 
L 264.282744 244.820462 
L 265.432512 244.820462 
L 265.432512 244.494502 
L 265.591256 244.494502 
L 265.591256 244.168542 
L 266.069131 244.168542 
L 266.069131 243.842582 
L 266.25417 243.842582 
L 266.25417 243.516622 
L 267.142973 243.516622 
L 267.142973 243.190662 
L 268.37736 243.190662 
L 268.37736 242.864702 
L 269.217813 242.864702 
L 269.217813 242.538742 
L 269.706011 242.538742 
L 269.718583 241.886822 
L 270.421134 241.886822 
L 270.473756 241.234902 
L 271.370032 241.234902 
L 271.370032 240.908942 
L 271.982481 240.908942 
L 271.982481 240.582982 
L 272.16494 240.582982 
L 272.16494 240.257022 
L 272.751345 240.257022 
L 272.751345 239.931062 
L 273.06168 239.931062 
L 273.06168 239.605102 
L 273.697228 239.605102 
L 273.697228 239.279142 
L 273.821571 239.279142 
L 273.85771 238.627222 
L 274.217393 238.627222 
L 274.217393 238.301262 
L 274.791947 238.301262 
L 274.791947 237.975302 
L 275.053315 237.975302 
L 275.053315 237.649342 
L 276.591465 237.649342 
L 276.591465 237.323382 
L 278.739055 237.323382 
L 278.739055 236.997422 
L 279.071501 236.997422 
L 279.071501 236.671462 
L 283.142112 236.671462 
L 283.142112 236.345502 
L 284.096875 236.345502 
L 284.096875 236.019542 
L 284.933522 236.019542 
L 284.933522 235.693582 
L 285.136507 235.693582 
L 285.168742 235.041662 
L 285.763905 235.041662 
L 285.763905 234.715702 
L 286.182775 234.715702 
L 286.182775 234.389742 
L 286.418205 234.389742 
L 286.418205 234.063782 
L 286.740271 234.063782 
L 286.740271 233.737822 
L 287.164127 233.737822 
L 287.164127 233.411862 
L 287.737526 233.411862 
L 287.737526 233.085902 
L 288.414839 233.085902 
L 288.414839 232.759942 
L 288.543319 232.759942 
L 288.574485 232.108022 
L 288.891215 232.108022 
L 288.904247 231.456102 
L 289.144576 231.456102 
L 289.144576 231.130142 
L 289.686784 231.130142 
L 289.686784 230.804182 
L 290.638893 230.804182 
L 290.638893 230.478222 
L 291.170874 230.478222 
L 291.170874 230.152262 
L 291.447749 230.152262 
L 291.447749 229.826302 
L 291.578867 229.826302 
L 291.578867 229.500342 
L 292.232186 229.500342 
L 292.317292 228.522462 
L 293.21209 228.522462 
L 293.21209 228.196502 
L 293.438065 228.196502 
L 293.438065 227.870542 
L 294.729792 227.870542 
L 294.831329 227.218622 
L 295.428004 227.218622 
L 295.428004 226.892662 
L 296.028066 226.892662 
L 296.028066 226.566702 
L 296.392071 226.566702 
L 296.461072 225.914782 
L 297.316056 225.914782 
L 297.316056 225.588822 
L 297.483038 225.588822 
L 297.483038 225.262862 
L 297.95151 225.262862 
L 297.95151 224.936902 
L 299.025798 224.936902 
L 299.025798 224.610942 
L 300.822302 224.610942 
L 300.822302 224.284982 
L 300.961796 224.284982 
L 300.961796 223.959022 
L 301.60715 223.959022 
L 301.60715 223.633062 
L 302.184001 223.633062 
L 302.184001 223.307102 
L 302.464448 223.307102 
L 302.464448 222.981142 
L 303.631489 222.981142 
L 303.631489 222.655182 
L 304.151324 222.655182 
L 304.151324 222.329222 
L 304.340019 222.329222 
L 304.340019 222.003262 
L 304.577684 222.003262 
L 304.577684 221.677302 
L 305.224916 221.677302 
L 305.224991 221.025382 
L 305.508143 221.025382 
L 305.508143 220.699422 
L 305.69219 220.699422 
L 305.726192 220.047502 
L 306.257979 220.047502 
L 306.306284 219.395582 
L 306.988622 219.395582 
L 306.988622 219.069622 
L 307.294003 219.069622 
L 307.294003 218.743662 
L 308.13152 218.743662 
L 308.13152 218.417702 
L 310.079444 218.417702 
L 310.079444 218.091742 
L 310.63434 218.091742 
L 310.640671 217.439822 
L 311.614215 217.439822 
L 311.614215 217.113862 
L 311.990832 217.113862 
L 311.990832 216.787902 
L 313.070395 216.787902 
L 313.070395 216.461942 
L 313.317305 216.461942 
L 313.317305 216.135982 
L 313.462031 216.135982 
L 313.462031 215.810022 
L 314.017863 215.810022 
L 314.028988 215.158102 
L 314.524594 215.158102 
L 314.567357 214.506182 
L 316.397905 214.506182 
L 316.397905 214.180222 
L 316.668601 214.180222 
L 316.668601 213.854262 
L 316.915084 213.854262 
L 316.915084 213.528302 
L 317.458825 213.528302 
L 317.458825 213.202342 
L 317.939164 213.202342 
L 317.939164 212.876382 
L 318.469181 212.876382 
L 318.469181 212.550422 
L 318.580885 212.550422 
L 318.580885 212.224462 
L 319.149469 212.224462 
L 319.149469 211.898502 
L 319.632331 211.898502 
L 319.632331 211.572542 
L 319.961006 211.572542 
L 319.961006 211.246582 
L 320.166321 211.246582 
L 320.166321 210.920622 
L 320.335351 210.920622 
L 320.335351 210.594662 
L 320.45163 210.594662 
L 320.45163 210.268702 
L 321.142871 210.268702 
L 321.210907 209.616782 
L 321.295424 209.616782 
L 321.295424 209.290822 
L 321.611622 209.290822 
L 321.611622 208.964862 
L 322.268197 208.964862 
L 322.268197 208.638902 
L 322.679473 208.638902 
L 322.679473 208.312942 
L 323.097692 208.312942 
L 323.10392 207.661022 
L 323.247132 207.661022 
L 323.247132 207.335062 
L 323.599677 207.335062 
L 323.599677 207.009102 
L 325.068984 207.009102 
L 325.131324 206.357182 
L 325.701519 206.357182 
L 325.701519 206.031222 
L 326.029875 206.031222 
L 326.029875 205.705262 
L 326.323921 205.705262 
L 326.323921 205.379302 
L 326.580342 205.379302 
L 326.623877 204.727382 
L 326.858796 204.727382 
L 326.863128 204.075462 
L 327.340289 204.075462 
L 327.384043 203.423542 
L 327.983848 203.423542 
L 328.018776 202.771622 
L 328.92281 202.771622 
L 328.92281 202.445662 
L 329.275693 202.445662 
L 329.275693 202.119702 
L 329.935255 202.119702 
L 329.935255 201.793742 
L 330.70581 201.793742 
L 330.70581 201.467782 
L 331.995581 201.467782 
L 331.995581 201.141822 
L 332.342917 201.141822 
L 332.360193 200.489902 
L 332.702015 200.489902 
L 332.702015 200.163942 
L 333.008918 200.163942 
L 333.008918 199.837982 
L 333.462154 199.837982 
L 333.462154 199.512022 
L 334.289777 199.512022 
L 334.289777 199.186062 
L 334.686581 199.186062 
L 334.686581 198.860102 
L 334.862856 198.860102 
L 334.862856 198.534142 
L 335.30046 198.534142 
L 335.30046 198.208182 
L 336.490247 198.208182 
L 336.523574 197.556262 
L 337.363995 197.556262 
L 337.363995 197.230302 
L 337.601734 197.230302 
L 337.601734 196.904342 
L 337.828797 196.904342 
L 337.828797 196.578382 
L 338.079468 196.578382 
L 338.079468 196.252422 
L 338.334997 196.252422 
L 338.334997 195.926462 
L 339.255785 195.926462 
L 339.255785 195.600502 
L 339.387003 195.600502 
L 339.387003 195.274542 
L 340.897245 195.274542 
L 340.946453 194.622622 
L 342.113759 194.622622 
L 342.113759 194.296662 
L 342.986014 194.296662 
L 343.065539 193.644742 
L 344.106836 193.644742 
L 344.129228 192.992822 
L 344.331467 192.992822 
L 344.331467 192.666862 
L 344.759383 192.666862 
L 344.802953 192.014942 
L 344.968442 192.014942 
L 345.010851 191.363022 
L 346.488996 191.363022 
L 346.488996 191.037062 
L 347.183481 191.037062 
L 347.183481 190.711102 
L 347.387212 190.711102 
L 347.478176 190.059182 
L 347.594502 190.059182 
L 347.594502 189.733222 
L 347.897694 189.733222 
L 347.897694 189.407262 
L 348.251494 189.407262 
L 348.301205 188.755342 
L 349.531993 188.755342 
L 349.611804 188.103422 
L 349.838861 188.103422 
L 349.838861 187.777462 
L 350.628325 187.777462 
L 350.660801 187.125542 
L 350.889158 187.125542 
L 350.889158 186.799582 
L 351.486644 186.799582 
L 351.573262 186.147662 
L 351.861493 186.147662 
L 351.941357 184.843822 
L 352.118962 184.843822 
L 352.215557 184.191902 
L 352.304951 184.191902 
L 352.304951 183.865942 
L 352.951653 183.865942 
L 352.951653 183.539982 
L 353.150051 183.539982 
L 353.150051 183.214022 
L 353.741411 183.214022 
L 353.741411 182.888062 
L 354.023849 182.888062 
L 354.023849 182.562102 
L 354.177536 182.562102 
L 354.221821 181.910182 
L 354.780445 181.910182 
L 354.780445 181.584222 
L 355.176569 181.584222 
L 355.228188 180.932302 
L 355.450133 180.932302 
L 355.450133 180.606342 
L 356.903991 180.606342 
L 357.011742 179.954422 
L 357.512299 179.954422 
L 357.512299 179.628462 
L 358.274921 179.628462 
L 358.274921 179.302502 
L 358.860426 179.302502 
L 358.860426 178.976542 
L 358.981051 178.976542 
L 358.981051 178.650582 
L 359.377449 178.650582 
L 359.377449 178.324622 
L 359.534632 178.324622 
L 359.534632 177.998662 
L 359.700786 177.998662 
L 359.700786 177.672702 
L 359.854748 177.672702 
L 359.861803 177.020782 
L 360.784286 177.020782 
L 360.784286 176.694822 
L 361.055387 176.694822 
L 361.055387 176.368862 
L 361.246364 176.368862 
L 361.309743 175.716942 
L 361.696159 175.716942 
L 361.696159 175.390982 
L 361.832434 175.390982 
L 361.832434 175.065022 
L 361.973665 175.065022 
L 362.067769 174.413102 
L 363.224052 174.413102 
L 363.224052 174.087142 
L 363.854532 174.087142 
L 363.910734 173.109262 
L 363.966397 173.109262 
L 363.966397 172.783302 
L 364.099357 172.783302 
L 364.176214 172.131382 
L 364.427773 172.131382 
L 364.427773 171.805422 
L 364.949244 171.805422 
L 364.985641 171.153502 
L 365.163639 171.153502 
L 365.163639 170.827542 
L 365.924743 170.827542 
L 365.924743 170.501582 
L 366.403323 170.501582 
L 366.403323 170.175622 
L 366.867227 170.175622 
L 366.867227 169.849662 
L 367.356837 169.849662 
L 367.356837 169.523702 
L 367.536942 169.523702 
L 367.536942 169.197742 
L 367.926486 169.197742 
L 367.926486 168.871782 
L 368.309168 168.871782 
L 368.309168 168.545822 
L 368.541013 168.545822 
L 368.631339 167.893902 
L 369.040818 167.893902 
L 369.040818 167.567942 
L 369.293966 167.567942 
L 369.293966 167.241982 
L 369.901305 167.241982 
L 369.999941 166.590062 
L 370.623823 166.590062 
L 370.669091 165.938142 
L 371.626608 165.938142 
L 371.626608 165.612182 
L 372.024592 165.612182 
L 372.024592 165.286222 
L 372.426327 165.286222 
L 372.426327 164.960262 
L 372.869798 164.960262 
L 372.886507 164.308342 
L 373.069214 164.308342 
L 373.102543 163.656422 
L 373.497804 163.656422 
L 373.497804 163.330462 
L 373.80502 163.330462 
L 373.80502 163.004502 
L 374.34631 163.004502 
L 374.43074 162.352582 
L 375.058006 162.352582 
L 375.058006 162.026622 
L 375.592191 162.026622 
L 375.666273 161.374702 
L 375.766198 161.374702 
L 375.807301 160.722782 
L 375.952556 160.722782 
L 375.977147 160.070862 
L 377.796279 160.070862 
L 377.906968 159.418942 
L 377.953192 159.418942 
L 377.975135 158.767022 
L 378.099394 158.767022 
L 378.099394 158.441062 
L 378.538783 158.441062 
L 378.610655 157.789142 
L 379.051816 157.789142 
L 379.051816 157.463182 
L 379.610787 157.463182 
L 379.610787 157.137222 
L 380.884321 157.137222 
L 380.884321 156.811262 
L 381.20477 156.811262 
L 381.20477 156.485302 
L 381.343676 156.485302 
L 381.343676 156.159342 
L 381.642415 156.159342 
L 381.751735 155.507422 
L 382.890187 155.507422 
L 382.890187 155.181462 
L 383.077425 155.181462 
L 383.077425 154.855502 
L 383.494597 154.855502 
L 383.595838 154.203582 
L 383.692929 154.203582 
L 383.692929 153.877622 
L 383.848398 153.877622 
L 383.848398 153.551662 
L 384.152021 153.551662 
L 384.152021 153.225702 
L 384.542002 153.225702 
L 384.646557 152.247822 
L 385.214024 152.247822 
L 385.214024 151.921862 
L 385.549351 151.921862 
L 385.549351 151.595902 
L 385.841997 151.595902 
L 385.841997 151.269942 
L 386.48433 151.269942 
L 386.48433 150.943982 
L 386.647455 150.943982 
L 386.732317 150.292062 
L 387.355333 150.292062 
L 387.355333 149.966102 
L 388.443835 149.966102 
L 388.443835 149.640142 
L 388.625419 149.640142 
L 388.625419 149.314182 
L 389.028197 149.314182 
L 389.028197 148.988222 
L 389.224638 148.988222 
L 389.22643 148.336302 
L 389.463119 148.336302 
L 389.463119 148.010342 
L 389.981657 148.010342 
L 389.981657 147.684382 
L 390.826321 147.684382 
L 390.826321 147.358422 
L 392.24552 147.358422 
L 392.24552 147.032462 
L 392.415218 147.032462 
L 392.525178 146.380542 
L 392.539101 146.380542 
L 392.55812 145.728622 
L 393.271358 145.728622 
L 393.271358 145.402662 
L 393.411829 145.402662 
L 393.411829 145.076702 
L 393.554025 145.076702 
L 393.55941 144.424782 
L 393.854043 144.424782 
L 393.92038 143.446902 
L 394.115952 143.446902 
L 394.115952 143.120942 
L 395.750557 143.120942 
L 395.750557 142.794982 
L 396.351463 142.794982 
L 396.351463 142.469022 
L 397.442845 142.469022 
L 397.442845 142.143062 
L 397.700077 142.143062 
L 397.700077 141.817102 
L 398.02938 141.817102 
L 398.02938 141.491142 
L 398.158594 141.491142 
L 398.158594 141.165182 
L 398.978053 141.165182 
L 398.978053 140.839222 
L 399.286227 140.839222 
L 399.286227 140.513262 
L 400.095634 140.513262 
L 400.155503 139.861342 
L 400.279449 139.861342 
L 400.279449 139.535382 
L 401.265912 139.535382 
L 401.265912 139.209422 
L 401.412513 139.209422 
L 401.412513 138.883462 
L 402.067197 138.883462 
L 402.067197 138.557502 
L 402.233328 138.557502 
L 402.233328 138.231542 
L 403.375745 138.231542 
L 403.427808 137.579622 
L 404.128086 137.579622 
L 404.128086 137.253662 
L 404.735968 137.253662 
L 404.739364 136.601742 
L 405.277731 136.601742 
L 405.277731 136.275782 
L 405.585973 136.275782 
L 405.585973 135.949822 
L 405.710803 135.949822 
L 405.710803 135.623862 
L 406.009112 135.623862 
L 406.020918 134.971942 
L 406.204751 134.971942 
L 406.204751 134.645982 
L 406.406762 134.645982 
L 406.406762 134.320022 
L 406.633852 134.320022 
L 406.664531 133.668102 
L 407.011255 133.668102 
L 407.011255 133.342142 
L 407.271215 133.342142 
L 407.33528 132.364262 
L 407.513303 132.364262 
L 407.535816 131.712342 
L 407.761122 131.712342 
L 407.765842 131.060422 
L 408.326299 131.060422 
L 408.326299 130.734462 
L 408.701453 130.734462 
L 408.716232 130.082542 
L 409.123263 130.082542 
L 409.123263 129.756582 
L 410.05481 129.756582 
L 410.05481 129.430622 
L 410.478588 129.430622 
L 410.478588 129.104662 
L 410.919332 129.104662 
L 410.919332 128.778702 
L 411.132943 128.778702 
L 411.164138 128.126782 
L 411.812469 128.126782 
L 411.812469 127.800822 
L 412.087142 127.800822 
L 412.087142 127.474862 
L 413.438116 127.474862 
L 413.438116 127.148902 
L 414.490456 127.148902 
L 414.490456 126.822942 
L 415.427806 126.822942 
L 415.525826 125.193142 
L 416.440947 125.193142 
L 416.440947 124.867182 
L 416.816541 124.867182 
L 416.816541 124.541222 
L 419.13008 124.541222 
L 419.13008 124.215262 
L 419.387039 124.215262 
L 419.387039 123.889302 
L 419.807793 123.889302 
L 419.807793 123.563342 
L 421.150188 123.563342 
L 421.150188 123.237382 
L 421.498423 123.237382 
L 421.498423 122.911422 
L 421.632326 122.911422 
L 421.632326 122.585462 
L 421.842664 122.585462 
L 421.842664 122.259502 
L 422.461166 122.259502 
L 422.461166 121.933542 
L 423.537661 121.933542 
L 423.537661 121.607582 
L 423.891226 121.607582 
L 423.891226 121.281622 
L 424.112311 121.281622 
L 424.112311 120.955662 
L 424.341761 120.955662 
L 424.341761 120.629702 
L 425.358291 120.629702 
L 425.358291 120.303742 
L 426.370121 120.303742 
L 426.370121 119.977782 
L 426.874648 119.977782 
L 426.874648 119.651822 
L 427.653455 119.651822 
L 427.653455 119.325862 
L 427.854953 119.325862 
L 427.919676 118.673942 
L 428.209532 118.673942 
L 428.209532 118.347982 
L 428.346374 118.347982 
L 428.346374 118.022022 
L 428.585058 118.022022 
L 428.598553 117.370102 
L 428.845475 117.370102 
L 428.845475 117.044142 
L 431.001675 117.044142 
L 431.001675 116.718182 
L 432.186795 116.718182 
L 432.186795 116.392222 
L 432.478064 116.392222 
L 432.478064 116.066262 
L 432.676724 116.066262 
L 432.765938 115.414342 
L 433.813665 115.414342 
L 433.899974 114.762422 
L 434.744259 114.762422 
L 434.744259 114.436462 
L 435.490555 114.436462 
L 435.490555 114.110502 
L 435.776463 114.110502 
L 435.776463 113.784542 
L 436.112261 113.784542 
L 436.184648 113.132622 
L 436.262655 113.132622 
L 436.324379 112.480702 
L 436.797259 112.480702 
L 436.797259 112.154742 
L 437.401024 112.154742 
L 437.401024 111.828782 
L 438.13433 111.828782 
L 438.13433 111.502822 
L 438.481071 111.502822 
L 438.481071 111.176862 
L 438.783569 111.176862 
L 438.783569 110.850902 
L 439.383276 110.850902 
L 439.414733 110.198982 
L 439.653465 110.198982 
L 439.653465 109.873022 
L 439.836911 109.873022 
L 439.836911 109.547062 
L 440.403495 109.547062 
L 440.403495 109.221102 
L 441.315109 109.221102 
L 441.315109 108.895142 
L 441.510269 108.895142 
L 441.531581 108.243222 
L 441.823466 108.243222 
L 441.853735 107.591302 
L 442.196065 107.591302 
L 442.251411 106.939382 
L 443.14916 106.939382 
L 443.14916 106.613422 
L 443.810653 106.613422 
L 443.885884 105.961502 
L 444.513453 105.961502 
L 444.513453 105.635542 
L 444.704689 105.635542 
L 444.704689 105.309582 
L 445.836519 105.309582 
L 445.836519 104.983622 
L 445.955921 104.983622 
L 445.955921 104.657662 
L 446.124594 104.657662 
L 446.124594 104.331702 
L 447.095511 104.331702 
L 447.181536 103.679782 
L 448.34965 103.679782 
L 448.398478 103.027862 
L 448.553328 103.027862 
L 448.553328 102.701902 
L 448.738512 102.701902 
L 448.738512 102.375942 
L 449.142714 102.375942 
L 449.208309 101.398062 
L 449.343132 101.398062 
L 449.343132 101.072102 
L 449.528719 101.072102 
L 449.528719 100.746142 
L 449.644576 100.746142 
L 449.644576 100.420182 
L 450.002158 100.420182 
L 450.002158 100.094222 
L 450.252956 100.094222 
L 450.252956 99.768262 
L 450.440851 99.768262 
L 450.440851 99.442302 
L 450.574134 99.442302 
L 450.574134 99.116342 
L 450.955408 99.116342 
L 450.955408 98.790382 
L 451.146083 98.790382 
L 451.146083 98.464422 
L 451.52115 98.464422 
L 451.52115 98.138462 
L 452.301705 98.138462 
L 452.301705 97.812502 
L 452.661683 97.812502 
L 452.661683 97.486542 
L 453.525556 97.486542 
L 453.525556 97.160582 
L 453.876695 97.160582 
L 453.876695 96.834622 
L 454.766562 96.834622 
L 454.766562 96.508662 
L 455.913934 96.508662 
L 456.015004 95.856742 
L 456.332577 95.856742 
L 456.363497 95.204822 
L 456.917998 95.204822 
L 456.917998 94.878862 
L 457.517181 94.878862 
L 457.517181 94.552902 
L 457.773905 94.552902 
L 457.882285 93.900982 
L 458.695881 93.900982 
L 458.772766 93.249062 
L 459.060415 93.249062 
L 459.060415 92.923102 
L 459.219428 92.923102 
L 459.219428 92.597142 
L 459.953144 92.597142 
L 459.953144 92.271182 
L 461.15466 92.271182 
L 461.15466 91.945222 
L 461.631718 91.945222 
L 461.657912 91.293302 
L 461.890863 91.293302 
L 461.890863 90.967342 
L 462.282895 90.967342 
L 462.282895 90.641382 
L 462.503328 90.641382 
L 462.503328 90.315422 
L 463.024946 90.315422 
L 463.024946 89.989462 
L 463.336814 89.989462 
L 463.421843 89.337542 
L 463.997851 89.337542 
L 464.104062 88.685622 
L 464.771478 88.685622 
L 464.819306 88.033702 
L 464.924488 88.033702 
L 464.924488 87.707742 
L 465.288803 87.707742 
L 465.288803 87.381782 
L 465.957065 87.381782 
L 465.957065 87.055822 
L 466.565512 87.055822 
L 466.565512 86.729862 
L 466.721762 86.729862 
L 466.721762 86.403902 
L 466.944055 86.403902 
L 466.944055 86.077942 
L 468.076078 86.077942 
L 468.076078 85.751982 
L 468.983226 85.751982 
L 468.983226 85.426022 
L 469.997112 85.426022 
L 469.997112 85.100062 
L 470.599518 85.100062 
L 470.599518 84.774102 
L 472.278469 84.774102 
L 472.28348 84.122182 
L 474.278055 84.122182 
L 474.278055 83.796222 
L 475.434269 83.796222 
L 475.484073 83.144302 
L 476.221874 83.144302 
L 476.221874 82.818342 
L 476.967339 82.818342 
L 476.967339 82.492382 
L 477.879755 82.492382 
L 477.879755 82.166422 
L 478.32433 82.166422 
L 478.32433 81.840462 
L 478.660163 81.840462 
L 478.660163 81.514502 
L 479.354746 81.514502 
L 479.383689 80.862582 
L 480.891433 80.862582 
L 480.891433 80.536622 
L 481.092534 80.536622 
L 481.092534 80.210662 
L 481.380894 80.210662 
L 481.380894 79.884702 
L 481.804784 79.884702 
L 481.804784 79.558742 
L 482.739452 79.558742 
L 482.739452 79.232782 
L 482.907443 79.232782 
L 482.907443 78.906822 
L 483.426089 78.906822 
L 483.426089 78.580862 
L 483.63065 78.580862 
L 483.661784 77.928942 
L 484.033218 77.928942 
L 484.033218 77.602982 
L 484.165387 77.602982 
L 484.165387 77.277022 
L 485.33299 77.277022 
L 485.33299 76.951062 
L 486.012328 76.951062 
L 486.012328 76.625102 
L 487.060487 76.625102 
L 487.060487 76.299142 
L 487.394158 76.299142 
L 487.394158 75.973182 
L 488.303784 75.973182 
L 488.303784 75.647222 
L 488.429818 75.647222 
L 488.531888 74.669342 
L 488.754654 74.669342 
L 488.754654 74.343382 
L 489.605926 74.343382 
L 489.605926 74.017422 
L 490.2576 74.017422 
L 490.2576 73.691462 
L 492.128319 73.691462 
L 492.190456 73.039542 
L 492.624321 73.039542 
L 492.624321 72.713582 
L 492.789361 72.713582 
L 492.789361 72.387622 
L 493.33599 72.387622 
L 493.33599 72.061662 
L 494.66692 72.061662 
L 494.765974 71.409742 
L 494.940621 71.409742 
L 494.940621 71.083782 
L 495.411869 71.083782 
L 495.519182 70.431862 
L 496.437827 70.431862 
L 496.437827 70.105902 
L 496.85356 70.105902 
L 496.85356 69.779942 
L 497.598183 69.779942 
L 497.608198 69.128022 
L 498.588913 69.128022 
L 498.588913 68.802062 
L 499.009802 68.802062 
L 499.009802 68.476102 
L 499.452964 68.476102 
L 499.452964 68.150142 
L 499.653418 68.150142 
L 499.653418 67.824182 
L 500.799187 67.824182 
L 500.799187 67.498222 
L 501.444984 67.498222 
L 501.444984 67.172262 
L 501.958848 67.172262 
L 502.052064 66.520342 
L 502.889338 66.520342 
L 502.889338 66.194382 
L 503.149639 66.194382 
L 503.149639 65.868422 
L 503.62773 65.868422 
L 503.700315 65.216502 
L 505.417548 65.216502 
L 505.417548 64.890542 
L 507.09796 64.890542 
L 507.09796 64.564582 
L 507.401539 64.564582 
L 507.501849 63.586702 
L 507.816799 63.586702 
L 507.816799 63.260742 
L 509.691815 63.260742 
L 509.691815 62.934782 
L 510.37181 62.934782 
L 510.468507 62.282862 
L 512.412126 62.282862 
L 512.412126 61.956902 
L 513.713603 61.956902 
L 513.713603 61.630942 
L 514.038447 61.630942 
L 514.038447 61.304982 
L 515.160923 61.304982 
L 515.231068 60.653062 
L 516.289813 60.653062 
L 516.289813 60.327102 
L 516.781208 60.327102 
L 516.781208 60.001142 
L 517.367193 60.001142 
L 517.367193 59.675182 
L 517.513898 59.675182 
L 517.513898 59.349222 
L 518.240352 59.349222 
L 518.240352 59.023262 
L 518.526816 59.023262 
L 518.526816 58.697302 
L 519.086572 58.697302 
L 519.086572 58.371342 
L 519.314786 58.371342 
L 519.314786 58.045382 
L 520.208576 58.045382 
L 520.208576 57.719422 
L 520.778564 57.719422 
L 520.817807 57.067502 
L 521.389952 57.067502 
L 521.389952 56.741542 
L 522.172749 56.741542 
L 522.172749 56.415582 
L 522.294559 56.415582 
L 522.294559 56.089622 
L 522.991104 56.089622 
L 522.991104 55.763662 
L 523.938749 55.763662 
L 523.938749 55.437702 
L 525.564879 55.437702 
L 525.564879 55.111742 
L 525.849735 55.111742 
L 525.849735 54.785782 
L 526.217952 54.785782 
L 526.217952 54.459822 
L 526.491574 54.459822 
L 526.530378 53.807902 
L 527.129096 53.807902 
L 527.129096 53.481942 
L 527.371812 53.481942 
L 527.371812 53.155982 
L 527.810007 53.155982 
L 527.810007 52.830022 
L 528.417283 52.830022 
L 528.417283 52.504062 
L 528.716887 52.504062 
L 528.716887 52.178102 
L 529.317556 52.178102 
L 529.317556 51.852142 
L 529.686298 51.852142 
L 529.686298 51.526182 
L 530.932257 51.526182 
L 530.932257 51.200222 
L 532.324216 51.200222 
L 532.324216 50.874262 
L 532.671767 50.874262 
L 532.671767 50.548302 
L 533.338018 50.548302 
L 533.338018 50.222342 
L 533.79998 50.222342 
L 533.79998 49.896382 
L 535.964171 49.896382 
L 535.964171 49.570422 
L 536.521213 49.570422 
L 536.521213 49.244462 
L 536.946695 49.244462 
L 536.946695 48.918502 
L 537.08559 48.918502 
L 537.08559 48.592542 
L 537.242432 48.592542 
L 537.242432 48.266582 
L 538.171461 48.266582 
L 538.20088 47.614662 
L 539.014107 47.614662 
L 539.014107 47.288702 
L 539.132674 47.288702 
L 539.132674 46.962742 
L 541.90919 46.962742 
L 541.90919 46.636782 
L 542.528195 46.636782 
L 542.528195 46.310822 
L 543.190946 46.310822 
L 543.190946 45.984862 
L 543.998747 45.984862 
L 543.998747 45.658902 
L 544.873558 45.658902 
L 544.873558 45.332942 
L 545.513517 45.332942 
L 545.513517 45.006982 
L 546.732056 45.006982 
L 546.810985 44.355062 
L 547.206614 44.355062 
L 547.206614 44.029102 
L 547.412196 44.029102 
L 547.428024 43.377182 
L 548.074636 43.377182 
L 548.074636 43.051222 
L 548.222979 43.051222 
L 548.222979 42.725262 
L 548.838102 42.725262 
L 548.838102 42.399302 
L 549.506043 42.399302 
L 549.561181 41.747382 
L 549.886571 41.747382 
L 549.886571 41.421422 
L 550.979998 41.421422 
L 550.996092 40.769502 
L 552.342211 40.769502 
L 552.342211 40.443542 
L 552.517342 40.443542 
L 552.517342 40.117582 
L 552.698244 40.117582 
L 552.698244 39.791622 
L 554.136199 39.791622 
L 554.136199 39.465662 
L 554.254308 39.465662 
L 554.254308 39.139702 
L 555.305382 39.139702 
L 555.305382 38.813742 
L 556.191608 38.813742 
L 556.191608 38.487782 
L 556.585983 38.487782 
L 556.585983 38.161822 
L 557.728702 38.161822 
L 557.728702 37.835862 
L 558.388418 37.835862 
L 558.463404 37.183942 
L 558.912053 37.183942 
L 558.912053 36.857982 
L 560.397291 36.857982 
L 560.397291 36.532022 
L 560.947471 36.532022 
L 560.947471 36.206062 
L 562.638057 36.206062 
L 562.638057 35.880102 
L 562.88912 35.880102 
L 562.88912 35.554142 
L 563.505956 35.554142 
L 563.505956 35.228182 
L 567.53207 35.228182 
L 567.53207 34.902222 
L 570.248959 34.902222 
L 570.248959 34.576262 
L 571.421003 34.576262 
L 571.527129 33.924342 
L 572.027381 33.924342 
L 572.027381 33.598382 
L 573.26893 33.598382 
L 573.26893 33.272422 
L 574.636704 33.272422 
L 574.636704 32.946462 
L 576.641246 32.946462 
L 576.641246 32.620502 
L 576.878238 32.620502 
L 576.910443 31.968582 
L 580.644997 31.968582 
L 580.644997 31.642622 
L 582.116657 31.642622 
L 582.116657 31.316662 
L 582.322953 31.316662 
L 582.322953 30.990702 
L 582.506949 30.990702 
L 582.506949 30.664742 
L 583.511233 30.664742 
L 583.511233 30.338782 
L 583.94291 30.338782 
L 583.94291 30.012822 
L 585.871994 30.012822 
L 585.871994 29.686862 
L 586.323368 29.686862 
L 586.323368 29.360902 
L 587.153479 29.360902 
L 587.153479 29.034942 
L 587.349593 29.034942 
L 587.349593 28.708982 
L 588.072401 28.708982 
L 588.072401 28.383022 
L 589.820569 28.383022 
L 589.820569 28.057062 
L 591.40114 28.057062 
L 591.40114 27.731102 
L 592.584578 27.731102 
L 592.584578 27.405142 
L 593.85191 27.405142 
L 593.85191 27.079182 
L 594.902448 27.079182 
L 594.902448 26.753222 
L 598.58334 26.753222 
L 598.618372 26.101302 
L 599.114337 26.101302 
L 599.114337 25.775342 
L 599.355073 25.775342 
L 599.355073 25.449382 
L 599.722905 25.449382 
L 599.722905 25.123422 
L 600.143114 25.123422 
L 600.143114 24.797462 
L 601.152046 24.797462 
L 601.152046 24.471502 
L 601.59495 24.471502 
L 601.59495 24.145542 
L 604.574948 24.145542 
L 604.574948 23.819582 
L 604.738132 23.819582 
L 604.738132 23.493622 
L 608.427532 23.493622 
L 608.427532 23.167662 
L 609.831232 23.167662 
L 609.831232 22.841702 
L 616.245885 22.841702 
L 616.245885 22.515742 
L 617.146094 22.515742 
L 617.243364 21.863822 
L 618.913327 21.863822 
L 618.913327 21.537862 
L 620.001056 21.537862 
L 620.001056 21.211902 
L 623.202515 21.211902 
L 623.202515 20.885942 
L 623.455677 20.885942 
L 623.455677 20.559982 
L 626.913201 20.559982 
L 626.913201 20.234022 
L 629.565827 20.234022 
L 629.565827 19.908062 
L 629.862147 19.908062 
L 629.862147 19.582102 
L 630.279785 19.582102 
L 630.279785 19.256142 
L 631.508057 19.256142 
L 631.508057 18.930182 
L 632.359551 18.930182 
L 632.359551 18.604222 
L 632.980054 18.604222 
L 632.980054 18.278262 
L 634.629984 18.278262 
L 634.629984 17.952302 
L 636.265408 17.952302 
L 636.265408 17.626342 
L 637.030139 17.626342 
L 637.030139 17.300382 
L 637.482565 17.300382 
L 637.482565 16.974422 
L 640.139836 16.974422 
L 640.139836 16.648462 
L 640.61031 16.648462 
L 640.61031 16.322502 
L 640.776776 16.322502 
L 640.876134 15.344622 
L 641.823306 15.344622 
L 641.823306 15.018662 
L 643.307618 15.018662 
L 643.307618 14.692702 
L 646.651935 14.692702 
L 646.651935 14.366742 
L 651.234686 14.366742 
L 651.234686 14.040782 
L 653.210427 14.040782 
L 653.210427 13.714822 
L 653.978659 13.714822 
L 654.065742 13.062902 
L 654.17697 13.062902 
L 654.17697 12.736942 
L 656.494148 12.736942 
L 656.494148 12.410982 
L 657.901424 12.410982 
L 657.901424 12.085022 
L 659.127 12.085022 
L 659.127 11.759062 
L 659.127 11.759062 
" clip-path="url(#pba189dc71f)" style="fill: none; stroke: #ffa500; stroke-width: 1.5; stroke-linecap: square"/>
   </g>
   <g id="patch_3">
    <path d="M 49.88375 337.719062 
L 49.88375 11.759062 
" style="fill: none; stroke: #000000; stroke-width: 0.7; stroke-linejoin: miter; stroke-linecap: square"/>
   </g>
   <g id="patch_4">
    <path d="M 49.88375 337.719062 
L 659.18625 337.719062 
" style="fill: none; stroke: #000000; stroke-width: 0.7; stroke-linejoin: miter; stroke-linecap: square"/>
   </g>
   <g id="legend_1">
    <g id="patch_5">
     <path d="M 58.28375 56.586562 
L 185.285 56.586562 
Q 187.685 56.586562 187.685 54.186562 
L 187.685 20.159062 
Q 187.685 17.759062 185.285 17.759062 
L 58.28375 17.759062 
Q 55.88375 17.759062 55.88375 20.159062 
L 55.88375 54.186562 
Q 55.88375 56.586562 58.28375 56.586562 
z
" style="fill: #ffffff; opacity: 0.8; stroke: #cccccc; stroke-linejoin: miter"/>
    </g>
    <g id="line2d_27">
     <path d="M 60.68375 27.477187 
L 72.68375 27.477187 
L 84.68375 27.477187 
" style="fill: none; stroke: #000080; stroke-width: 1.5; stroke-linecap: square"/>
    </g>
    <g id="text_15">
     <!-- c.d.f. -->
     <g transform="translate(94.28375 31.677187) scale(0.12 -0.12)">
      <defs>
       <path id="DejaVuSans-63" d="M 3122 3366 
L 3122 2828 
Q 2878 2963 2633 3030 
Q 2388 3097 2138 3097 
Q 1578 3097 1268 2742 
Q 959 2388 959 1747 
Q 959 1106 1268 751 
Q 1578 397 2138 397 
Q 2388 397 2633 464 
Q 2878 531 3122 666 
L 3122 134 
Q 2881 22 2623 -34 
Q 2366 -91 2075 -91 
Q 1284 -91 818 406 
Q 353 903 353 1747 
Q 353 2603 823 3093 
Q 1294 3584 2113 3584 
Q 2378 3584 2631 3529 
Q 2884 3475 3122 3366 
z
" transform="scale(0.015625)"/>
       <path id="DejaVuSans-64" d="M 2906 2969 
L 2906 4863 
L 3481 4863 
L 3481 0 
L 2906 0 
L 2906 525 
Q 2725 213 2448 61 
Q 2172 -91 1784 -91 
Q 1150 -91 751 415 
Q 353 922 353 1747 
Q 353 2572 751 3078 
Q 1150 3584 1784 3584 
Q 2172 3584 2448 3432 
Q 2725 3281 2906 2969 
z
M 947 1747 
Q 947 1113 1208 752 
Q 1469 391 1925 391 
Q 2381 391 2643 752 
Q 2906 1113 2906 1747 
Q 2906 2381 2643 2742 
Q 2381 3103 1925 3103 
Q 1469 3103 1208 2742 
Q 947 2381 947 1747 
z
" transform="scale(0.015625)"/>
       <path id="DejaVuSans-66" d="M 2375 4863 
L 2375 4384 
L 1825 4384 
Q 1516 4384 1395 4259 
Q 1275 4134 1275 3809 
L 1275 3500 
L 2222 3500 
L 2222 3053 
L 1275 3053 
L 1275 0 
L 697 0 
L 697 3053 
L 147 3053 
L 147 3500 
L 697 3500 
L 697 3744 
Q 697 4328 969 4595 
Q 1241 4863 1831 4863 
L 2375 4863 
z
" transform="scale(0.015625)"/>
      </defs>
      <use xlink:href="#DejaVuSans-63"/>
      <use xlink:href="#DejaVuSans-2e" x="54.980469"/>
      <use xlink:href="#DejaVuSans-64" x="86.767578"/>
      <use xlink:href="#DejaVuSans-2e" x="150.244141"/>
      <use xlink:href="#DejaVuSans-66" x="182.03125"/>
      <use xlink:href="#DejaVuSans-2e" x="209.986328"/>
     </g>
    </g>
    <g id="line2d_28">
     <path d="M 60.68375 45.090937 
L 72.68375 45.090937 
L 72.68375 45.090937 
L 84.68375 45.090937 
L 84.68375 45.090937 
" style="fill: none; stroke: #ffa500; stroke-width: 1.5; stroke-linecap: square"/>
    </g>
    <g id="text_16">
     <!-- Empirical c.d.f. -->
     <g transform="translate(94.28375 49.290937) scale(0.12 -0.12)">
      <defs>
       <path id="DejaVuSans-45" d="M 628 4666 
L 3578 4666 
L 3578 4134 
L 1259 4134 
L 1259 2753 
L 3481 2753 
L 3481 2222 
L 1259 2222 
L 1259 531 
L 3634 531 
L 3634 0 
L 628 0 
L 628 4666 
z
" transform="scale(0.015625)"/>
       <path id="DejaVuSans-6d" d="M 3328 2828 
Q 3544 3216 3844 3400 
Q 4144 3584 4550 3584 
Q 5097 3584 5394 3201 
Q 5691 2819 5691 2113 
L 5691 0 
L 5113 0 
L 5113 2094 
Q 5113 2597 4934 2840 
Q 4756 3084 4391 3084 
Q 3944 3084 3684 2787 
Q 3425 2491 3425 1978 
L 3425 0 
L 2847 0 
L 2847 2094 
Q 2847 2600 2669 2842 
Q 2491 3084 2119 3084 
Q 1678 3084 1418 2786 
Q 1159 2488 1159 1978 
L 1159 0 
L 581 0 
L 581 3500 
L 1159 3500 
L 1159 2956 
Q 1356 3278 1631 3431 
Q 1906 3584 2284 3584 
Q 2666 3584 2933 3390 
Q 3200 3197 3328 2828 
z
" transform="scale(0.015625)"/>
       <path id="DejaVuSans-70" d="M 1159 525 
L 1159 -1331 
L 581 -1331 
L 581 3500 
L 1159 3500 
L 1159 2969 
Q 1341 3281 1617 3432 
Q 1894 3584 2278 3584 
Q 2916 3584 3314 3078 
Q 3713 2572 3713 1747 
Q 3713 922 3314 415 
Q 2916 -91 2278 -91 
Q 1894 -91 1617 61 
Q 1341 213 1159 525 
z
M 3116 1747 
Q 3116 2381 2855 2742 
Q 2594 3103 2138 3103 
Q 1681 3103 1420 2742 
Q 1159 2381 1159 1747 
Q 1159 1113 1420 752 
Q 1681 391 2138 391 
Q 2594 391 2855 752 
Q 3116 1113 3116 1747 
z
" transform="scale(0.015625)"/>
       <path id="DejaVuSans-69" d="M 603 3500 
L 1178 3500 
L 1178 0 
L 603 0 
L 603 3500 
z
M 603 4863 
L 1178 4863 
L 1178 4134 
L 603 4134 
L 603 4863 
z
" transform="scale(0.015625)"/>
       <path id="DejaVuSans-72" d="M 2631 2963 
Q 2534 3019 2420 3045 
Q 2306 3072 2169 3072 
Q 1681 3072 1420 2755 
Q 1159 2438 1159 1844 
L 1159 0 
L 581 0 
L 581 3500 
L 1159 3500 
L 1159 2956 
Q 1341 3275 1631 3429 
Q 1922 3584 2338 3584 
Q 2397 3584 2469 3576 
Q 2541 3569 2628 3553 
L 2631 2963 
z
" transform="scale(0.015625)"/>
       <path id="DejaVuSans-61" d="M 2194 1759 
Q 1497 1759 1228 1600 
Q 959 1441 959 1056 
Q 959 750 1161 570 
Q 1363 391 1709 391 
Q 2188 391 2477 730 
Q 2766 1069 2766 1631 
L 2766 1759 
L 2194 1759 
z
M 3341 1997 
L 3341 0 
L 2766 0 
L 2766 531 
Q 2569 213 2275 61 
Q 1981 -91 1556 -91 
Q 1019 -91 701 211 
Q 384 513 384 1019 
Q 384 1609 779 1909 
Q 1175 2209 1959 2209 
L 2766 2209 
L 2766 2266 
Q 2766 2663 2505 2880 
Q 2244 3097 1772 3097 
Q 1472 3097 1187 3025 
Q 903 2953 641 2809 
L 641 3341 
Q 956 3463 1253 3523 
Q 1550 3584 1831 3584 
Q 2591 3584 2966 3190 
Q 3341 2797 3341 1997 
z
" transform="scale(0.015625)"/>
       <path id="DejaVuSans-6c" d="M 603 4863 
L 1178 4863 
L 1178 0 
L 603 0 
L 603 4863 
z
" transform="scale(0.015625)"/>
       <path id="DejaVuSans-20" transform="scale(0.015625)"/>
      </defs>
      <use xlink:href="#DejaVuSans-45"/>
      <use xlink:href="#DejaVuSans-6d" x="63.183594"/>
      <use xlink:href="#DejaVuSans-70" x="160.595703"/>
      <use xlink:href="#DejaVuSans-69" x="224.072266"/>
      <use xlink:href="#DejaVuSans-72" x="251.855469"/>
      <use xlink:href="#DejaVuSans-69" x="292.96875"/>
      <use xlink:href="#DejaVuSans-63" x="320.751953"/>
      <use xlink:href="#DejaVuSans-61" x="375.732422"/>
      <use xlink:href="#DejaVuSans-6c" x="437.011719"/>
      <use xlink:href="#DejaVuSans-20" x="464.794922"/>
      <use xlink:href="#DejaVuSans-63" x="496.582031"/>
      <use xlink:href="#DejaVuSans-2e" x="551.5625"/>
      <use xlink:href="#DejaVuSans-64" x="583.349609"/>
      <use xlink:href="#DejaVuSans-2e" x="646.826172"/>
      <use xlink:href="#DejaVuSans-66" x="678.613281"/>
      <use xlink:href="#DejaVuSans-2e" x="706.568359"/>
     </g>
    </g>
   </g>
  </g>
 </g>
 <defs>
  <clipPath id="pba189dc71f">
   <rect x="49.88375" y="11.759062" width="609.3025" height="325.96"/>
  </clipPath>
 </defs>
</svg>
