<?xml version="1.0" encoding="utf-8" standalone="no"?>
<!DOCTYPE svg PUBLIC "-//W3C//DTD SVG 1.1//EN"
  "http://www.w3.org/Graphics/SVG/1.1/DTD/svg11.dtd">
<svg xmlns:xlink="http://www.w3.org/1999/xlink" width="348.48pt" height="348.48pt" viewBox="0 0 348.48 348.48" xmlns="http://www.w3.org/2000/svg" version="1.1">
 <metadata>
  <rdf:RDF xmlns:dc="http://purl.org/dc/elements/1.1/" xmlns:cc="http://creativecommons.org/ns#" xmlns:rdf="http://www.w3.org/1999/02/22-rdf-syntax-ns#">
   <cc:Work>
    <dc:type rdf:resource="http://purl.org/dc/dcmitype/StillImage"/>
    <dc:date>2024-10-13T02:55:04.553166</dc:date>
    <dc:format>image/svg+xml</dc:format>
    <dc:creator>
     <cc:Agent>
      <dc:title>Matplotlib v3.8.4, https://matplotlib.org/</dc:title>
     </cc:Agent>
    </dc:creator>
   </cc:Work>
  </rdf:RDF>
 </metadata>
 <defs>
  <style type="text/css">*{stroke-linejoin: round; stroke-linecap: butt}</style>
 </defs>
 <g id="figure_1">
  <g id="patch_1">
   <path d="M 0 348.48 
L 348.48 348.48 
L 348.48 0 
L 0 0 
z
" style="fill: #ffffff"/>
  </g>
  <g id="axes_1">
   <g id="patch_2">
    <path d="M 7.2 341.28 
L 341.28 341.28 
L 341.28 7.2 
L 7.2 7.2 
z
" style="fill: #ffffff"/>
   </g>
   <g id="matplotlib.axis_1">
    <g id="xtick_1">
     <g id="line2d_1">
      <path d="M 40.608 341.28 
L 40.608 7.2 
" clip-path="url(#p5117232b5e)" style="fill: none; stroke: #e6e6e6; stroke-width: 0.8; stroke-linecap: square"/>
     </g>
    </g>
    <g id="xtick_2">
     <g id="line2d_2">
      <path d="M 107.424 341.28 
L 107.424 7.2 
" clip-path="url(#p5117232b5e)" style="fill: none; stroke: #e6e6e6; stroke-width: 0.8; stroke-linecap: square"/>
     </g>
    </g>
    <g id="xtick_3">
     <g id="line2d_3">
      <path d="M 174.24 341.28 
L 174.24 7.2 
" clip-path="url(#p5117232b5e)" style="fill: none; stroke: #e6e6e6; stroke-width: 0.8; stroke-linecap: square"/>
     </g>
    </g>
    <g id="xtick_4">
     <g id="line2d_4">
      <path d="M 241.056 341.28 
L 241.056 7.2 
" clip-path="url(#p5117232b5e)" style="fill: none; stroke: #e6e6e6; stroke-width: 0.8; stroke-linecap: square"/>
     </g>
    </g>
    <g id="xtick_5">
     <g id="line2d_5">
      <path d="M 307.872 341.28 
L 307.872 7.2 
" clip-path="url(#p5117232b5e)" style="fill: none; stroke: #e6e6e6; stroke-width: 0.8; stroke-linecap: square"/>
     </g>
    </g>
   </g>
   <g id="matplotlib.axis_2">
    <g id="ytick_1">
     <g id="line2d_6">
      <path d="M 7.2 307.872 
L 341.28 307.872 
" clip-path="url(#p5117232b5e)" style="fill: none; stroke: #e6e6e6; stroke-width: 0.8; stroke-linecap: square"/>
     </g>
    </g>
    <g id="ytick_2">
     <g id="line2d_7">
      <path d="M 7.2 241.056 
L 341.28 241.056 
" clip-path="url(#p5117232b5e)" style="fill: none; stroke: #e6e6e6; stroke-width: 0.8; stroke-linecap: square"/>
     </g>
    </g>
    <g id="ytick_3">
     <g id="line2d_8">
      <path d="M 7.2 174.24 
L 341.28 174.24 
" clip-path="url(#p5117232b5e)" style="fill: none; stroke: #e6e6e6; stroke-width: 0.8; stroke-linecap: square"/>
     </g>
    </g>
    <g id="ytick_4">
     <g id="line2d_9">
      <path d="M 7.2 107.424 
L 341.28 107.424 
" clip-path="url(#p5117232b5e)" style="fill: none; stroke: #e6e6e6; stroke-width: 0.8; stroke-linecap: square"/>
     </g>
    </g>
    <g id="ytick_5">
     <g id="line2d_10">
      <path d="M 7.2 40.608 
L 341.28 40.608 
" clip-path="url(#p5117232b5e)" style="fill: none; stroke: #e6e6e6; stroke-width: 0.8; stroke-linecap: square"/>
     </g>
    </g>
   </g>
   <g id="QuadContourSet_1">
    <path clip-path="url(#p5117232b5e)" style="fill: none; stroke: #ff0000; stroke-opacity: 0.5; stroke-width: 0.8"/>
    <path d="M 164.013061 240.217391 
L 157.979167 239.010612 
L 157.195102 238.836376 
L 150.377143 236.563722 
L 143.559184 233.533518 
L 141.145626 232.192653 
L 136.741224 229.439902 
L 131.320947 225.374694 
L 129.923265 224.176681 
L 124.303319 218.556735 
L 123.105306 217.159053 
L 119.040098 211.738776 
L 116.287347 207.334374 
L 114.946482 204.920816 
L 111.916278 198.102857 
L 109.643624 191.284898 
L 109.469388 190.500833 
L 108.262609 184.466939 
L 107.580813 177.64898 
L 107.580813 170.83102 
L 108.262609 164.013061 
L 109.469388 157.979167 
L 109.643624 157.195102 
L 111.916278 150.377143 
L 114.946482 143.559184 
L 116.287347 141.145626 
L 119.040098 136.741224 
L 123.105306 131.320947 
L 124.303319 129.923265 
L 129.923265 124.303319 
L 131.320947 123.105306 
L 136.741224 119.040098 
L 141.145626 116.287347 
L 143.559184 114.946482 
L 150.377143 111.916278 
L 157.195102 109.643624 
L 157.979167 109.469388 
L 164.013061 108.262609 
L 170.83102 107.580813 
L 177.64898 107.580813 
L 184.466939 108.262609 
L 190.500833 109.469388 
L 191.284898 109.643624 
L 198.102857 111.916278 
L 204.920816 114.946482 
L 207.334374 116.287347 
L 211.738776 119.040098 
L 217.159053 123.105306 
L 218.556735 124.303319 
L 224.176681 129.923265 
L 225.374694 131.320947 
L 229.439902 136.741224 
L 232.192653 141.145626 
L 233.533518 143.559184 
L 236.563722 150.377143 
L 238.836376 157.195102 
L 239.010612 157.979167 
L 240.217391 164.013061 
L 240.899187 170.83102 
L 240.899187 177.64898 
L 240.217391 184.466939 
L 239.010612 190.500833 
L 238.836376 191.284898 
L 236.563722 198.102857 
L 233.533518 204.920816 
L 232.192653 207.334374 
L 229.439902 211.738776 
L 225.374694 217.159053 
L 224.176681 218.556735 
L 218.556735 224.176681 
L 217.159053 225.374694 
L 211.738776 229.439902 
L 207.334374 232.192653 
L 204.920816 233.533518 
L 198.102857 236.563722 
L 191.284898 238.836376 
L 190.500833 239.010612 
L 184.466939 240.217391 
L 177.64898 240.899187 
L 170.83102 240.899187 
L 164.013061 240.217391 
" clip-path="url(#p5117232b5e)" style="fill: none; stroke: #ff1300; stroke-opacity: 0.5; stroke-width: 0.8"/>
    <path d="M 157.195102 267.154174 
L 153.127053 266.282449 
L 150.377143 265.647854 
L 143.559184 263.550021 
L 136.741224 260.927729 
L 133.570873 259.46449 
L 129.923265 257.640686 
L 123.105306 253.663543 
L 121.579788 252.646531 
L 116.287347 248.797483 
L 112.658678 245.828571 
L 109.469388 242.958211 
L 105.521789 239.010612 
L 102.651429 235.821322 
L 99.682517 232.192653 
L 95.833469 226.900212 
L 94.816457 225.374694 
L 90.839314 218.556735 
L 89.01551 214.909127 
L 87.552271 211.738776 
L 84.929979 204.920816 
L 82.832146 198.102857 
L 82.197551 195.352947 
L 81.325826 191.284898 
L 80.351832 184.466939 
L 79.864835 177.64898 
L 79.864835 170.83102 
L 80.351832 164.013061 
L 81.325826 157.195102 
L 82.197551 153.127053 
L 82.832146 150.377143 
L 84.929979 143.559184 
L 87.552271 136.741224 
L 89.01551 133.570873 
L 90.839314 129.923265 
L 94.816457 123.105306 
L 95.833469 121.579788 
L 99.682517 116.287347 
L 102.651429 112.658678 
L 105.521789 109.469388 
L 109.469388 105.521789 
L 112.658678 102.651429 
L 116.287347 99.682517 
L 121.579788 95.833469 
L 123.105306 94.816457 
L 129.923265 90.839314 
L 133.570873 89.01551 
L 136.741224 87.552271 
L 143.559184 84.929979 
L 150.377143 82.832146 
L 153.127053 82.197551 
L 157.195102 81.325826 
L 164.013061 80.351832 
L 170.83102 79.864835 
L 177.64898 79.864835 
L 184.466939 80.351832 
L 191.284898 81.325826 
L 195.352947 82.197551 
L 198.102857 82.832146 
L 204.920816 84.929979 
L 211.738776 87.552271 
L 214.909127 89.01551 
L 218.556735 90.839314 
L 225.374694 94.816457 
L 226.900212 95.833469 
L 232.192653 99.682517 
L 235.821322 102.651429 
L 239.010612 105.521789 
L 242.958211 109.469388 
L 245.828571 112.658678 
L 248.797483 116.287347 
L 252.646531 121.579788 
L 253.663543 123.105306 
L 257.640686 129.923265 
L 259.46449 133.570873 
L 260.927729 136.741224 
L 263.550021 143.559184 
L 265.647854 150.377143 
L 266.282449 153.127053 
L 267.154174 157.195102 
L 268.128168 164.013061 
L 268.615165 170.83102 
L 268.615165 177.64898 
L 268.128168 184.466939 
L 267.154174 191.284898 
L 266.282449 195.352947 
L 265.647854 198.102857 
L 263.550021 204.920816 
L 260.927729 211.738776 
L 259.46449 214.909127 
L 257.640686 218.556735 
L 253.663543 225.374694 
L 252.646531 226.900212 
L 248.797483 232.192653 
L 245.828571 235.821322 
L 242.958211 239.010612 
L 239.010612 242.958211 
L 235.821322 245.828571 
L 232.192653 248.797483 
L 226.900212 252.646531 
L 225.374694 253.663543 
L 218.556735 257.640686 
L 214.909127 259.46449 
L 211.738776 260.927729 
L 204.920816 263.550021 
L 198.102857 265.647854 
L 195.352947 266.282449 
L 191.284898 267.154174 
L 184.466939 268.128168 
L 177.64898 268.615165 
L 170.83102 268.615165 
L 164.013061 268.128168 
L 157.195102 267.154174 
" clip-path="url(#p5117232b5e)" style="fill: none; stroke: #ff2700; stroke-opacity: 0.5; stroke-width: 0.8"/>
    <path d="M 150.377143 287.462239 
L 147.292016 286.736327 
L 143.559184 285.803118 
L 136.741224 283.672506 
L 129.923265 281.115771 
L 127.186342 279.918367 
L 123.105306 278.013884 
L 116.287347 274.377639 
L 114.158629 273.100408 
L 109.469388 270.085896 
L 104.144562 266.282449 
L 102.651429 265.133885 
L 95.951234 259.46449 
L 95.833469 259.356539 
L 89.123461 252.646531 
L 89.01551 252.528766 
L 83.346115 245.828571 
L 82.197551 244.335438 
L 78.394104 239.010612 
L 75.379592 234.321371 
L 74.102361 232.192653 
L 70.466116 225.374694 
L 68.561633 221.293658 
L 67.364229 218.556735 
L 64.807494 211.738776 
L 62.676882 204.920816 
L 61.743673 201.187984 
L 61.017761 198.102857 
L 59.814592 191.284898 
L 59.012479 184.466939 
L 58.611423 177.64898 
L 58.611423 170.83102 
L 59.012479 164.013061 
L 59.814592 157.195102 
L 61.017761 150.377143 
L 61.743673 147.292016 
L 62.676882 143.559184 
L 64.807494 136.741224 
L 67.364229 129.923265 
L 68.561633 127.186342 
L 70.466116 123.105306 
L 74.102361 116.287347 
L 75.379592 114.158629 
L 78.394104 109.469388 
L 82.197551 104.144562 
L 83.346115 102.651429 
L 89.01551 95.951234 
L 89.123461 95.833469 
L 95.833469 89.123461 
L 95.951234 89.01551 
L 102.651429 83.346115 
L 104.144562 82.197551 
L 109.469388 78.394104 
L 114.158629 75.379592 
L 116.287347 74.102361 
L 123.105306 70.466116 
L 127.186342 68.561633 
L 129.923265 67.364229 
L 136.741224 64.807494 
L 143.559184 62.676882 
L 147.292016 61.743673 
L 150.377143 61.017761 
L 157.195102 59.814592 
L 164.013061 59.012479 
L 170.83102 58.611423 
L 177.64898 58.611423 
L 184.466939 59.012479 
L 191.284898 59.814592 
L 198.102857 61.017761 
L 201.187984 61.743673 
L 204.920816 62.676882 
L 211.738776 64.807494 
L 218.556735 67.364229 
L 221.293658 68.561633 
L 225.374694 70.466116 
L 232.192653 74.102361 
L 234.321371 75.379592 
L 239.010612 78.394104 
L 244.335438 82.197551 
L 245.828571 83.346115 
L 252.528766 89.01551 
L 252.646531 89.123461 
L 259.356539 95.833469 
L 259.46449 95.951234 
L 265.133885 102.651429 
L 266.282449 104.144562 
L 270.085896 109.469388 
L 273.100408 114.158629 
L 274.377639 116.287347 
L 278.013884 123.105306 
L 279.918367 127.186342 
L 281.115771 129.923265 
L 283.672506 136.741224 
L 285.803118 143.559184 
L 286.736327 147.292016 
L 287.462239 150.377143 
L 288.665408 157.195102 
L 289.467521 164.013061 
L 289.868577 170.83102 
L 289.868577 177.64898 
L 289.467521 184.466939 
L 288.665408 191.284898 
L 287.462239 198.102857 
L 286.736327 201.187984 
L 285.803118 204.920816 
L 283.672506 211.738776 
L 281.115771 218.556735 
L 279.918367 221.293658 
L 278.013884 225.374694 
L 274.377639 232.192653 
L 273.100408 234.321371 
L 270.085896 239.010612 
L 266.282449 244.335438 
L 265.133885 245.828571 
L 259.46449 252.528766 
L 259.356539 252.646531 
L 252.646531 259.356539 
L 252.528766 259.46449 
L 245.828571 265.133885 
L 244.335438 266.282449 
L 239.010612 270.085896 
L 234.321371 273.100408 
L 232.192653 274.377639 
L 225.374694 278.013884 
L 221.293658 279.918367 
L 218.556735 281.115771 
L 211.738776 283.672506 
L 204.920816 285.803118 
L 201.187984 286.736327 
L 198.102857 287.462239 
L 191.284898 288.665408 
L 184.466939 289.467521 
L 177.64898 289.868577 
L 170.83102 289.868577 
L 164.013061 289.467521 
L 157.195102 288.665408 
L 150.377143 287.462239 
z
" clip-path="url(#p5117232b5e)" style="fill: none; stroke: #ff3b00; stroke-opacity: 0.5; stroke-width: 0.8"/>
    <path d="M 164.013061 307.473149 
L 161.183608 307.190204 
L 157.195102 306.770361 
L 150.377143 305.693841 
L 143.559184 304.258482 
L 136.741224 302.464282 
L 130.116441 300.372245 
L 129.923265 300.307853 
L 123.105306 297.656424 
L 116.287347 294.62622 
L 114.143478 293.554286 
L 109.469388 291.079768 
L 102.651429 287.069203 
L 102.136983 286.736327 
L 95.833469 282.402661 
L 92.521078 279.918367 
L 89.01551 277.113913 
L 84.384543 273.100408 
L 82.197551 271.06963 
L 77.41037 266.282449 
L 75.379592 264.095457 
L 71.366087 259.46449 
L 68.561633 255.958922 
L 66.077339 252.646531 
L 61.743673 246.343017 
L 61.410797 245.828571 
L 57.400232 239.010612 
L 54.925714 234.336522 
L 53.85378 232.192653 
L 50.823576 225.374694 
L 48.172147 218.556735 
L 48.107755 218.363559 
L 46.015718 211.738776 
L 44.221518 204.920816 
L 42.786159 198.102857 
L 41.709639 191.284898 
L 41.289796 187.296392 
L 41.006851 184.466939 
L 40.665953 177.64898 
L 40.665953 170.83102 
L 41.006851 164.013061 
L 41.289796 161.183608 
L 41.709639 157.195102 
L 42.786159 150.377143 
L 44.221518 143.559184 
L 46.015718 136.741224 
L 48.107755 130.116441 
L 48.172147 129.923265 
L 50.823576 123.105306 
L 53.85378 116.287347 
L 54.925714 114.143478 
L 57.400232 109.469388 
L 61.410797 102.651429 
L 61.743673 102.136983 
L 66.077339 95.833469 
L 68.561633 92.521078 
L 71.366087 89.01551 
L 75.379592 84.384543 
L 77.41037 82.197551 
L 82.197551 77.41037 
L 84.384543 75.379592 
L 89.01551 71.366087 
L 92.521078 68.561633 
L 95.833469 66.077339 
L 102.136983 61.743673 
L 102.651429 61.410797 
L 109.469388 57.400232 
L 114.143478 54.925714 
L 116.287347 53.85378 
L 123.105306 50.823576 
L 129.923265 48.172147 
L 130.116441 48.107755 
L 136.741224 46.015718 
L 143.559184 44.221518 
L 150.377143 42.786159 
L 157.195102 41.709639 
L 161.183608 41.289796 
L 164.013061 41.006851 
L 170.83102 40.665953 
L 177.64898 40.665953 
L 184.466939 41.006851 
L 187.296392 41.289796 
L 191.284898 41.709639 
L 198.102857 42.786159 
L 204.920816 44.221518 
L 211.738776 46.015718 
L 218.363559 48.107755 
L 218.556735 48.172147 
L 225.374694 50.823576 
L 232.192653 53.85378 
L 234.336522 54.925714 
L 239.010612 57.400232 
L 245.828571 61.410797 
L 246.343017 61.743673 
L 252.646531 66.077339 
L 255.958922 68.561633 
L 259.46449 71.366087 
L 264.095457 75.379592 
L 266.282449 77.41037 
L 271.06963 82.197551 
L 273.100408 84.384543 
L 277.113913 89.01551 
L 279.918367 92.521078 
L 282.402661 95.833469 
L 286.736327 102.136983 
L 287.069203 102.651429 
L 291.079768 109.469388 
L 293.554286 114.143478 
L 294.62622 116.287347 
L 297.656424 123.105306 
L 300.307853 129.923265 
L 300.372245 130.116441 
L 302.464282 136.741224 
L 304.258482 143.559184 
L 305.693841 150.377143 
L 306.770361 157.195102 
L 307.190204 161.183608 
L 307.473149 164.013061 
L 307.814047 170.83102 
L 307.814047 177.64898 
L 307.473149 184.466939 
L 307.190204 187.296392 
L 306.770361 191.284898 
L 305.693841 198.102857 
L 304.258482 204.920816 
L 302.464282 211.738776 
L 300.372245 218.363559 
L 300.307853 218.556735 
L 297.656424 225.374694 
L 294.62622 232.192653 
L 293.554286 234.336522 
L 291.079768 239.010612 
L 287.069203 245.828571 
L 286.736327 246.343017 
L 282.402661 252.646531 
L 279.918367 255.958922 
L 277.113913 259.46449 
L 273.100408 264.095457 
L 271.06963 266.282449 
L 266.282449 271.06963 
L 264.095457 273.100408 
L 259.46449 277.113913 
L 255.958922 279.918367 
L 252.646531 282.402661 
L 246.343017 286.736327 
L 245.828571 287.069203 
L 239.010612 291.079768 
L 234.336522 293.554286 
L 232.192653 294.62622 
L 225.374694 297.656424 
L 218.556735 300.307853 
L 218.363559 300.372245 
L 211.738776 302.464282 
L 204.920816 304.258482 
L 198.102857 305.693841 
L 191.284898 306.770361 
L 187.296392 307.190204 
L 184.466939 307.473149 
L 177.64898 307.814047 
L 170.83102 307.814047 
L 164.013061 307.473149 
z
" clip-path="url(#p5117232b5e)" style="fill: none; stroke: #ff4e00; stroke-opacity: 0.5; stroke-width: 0.8"/>
    <path d="M 150.377143 321.709358 
L 145.519347 320.826122 
L 143.559184 320.452758 
L 136.741224 318.829434 
L 129.923265 316.881446 
L 123.105306 314.608793 
L 121.528653 314.008163 
L 116.287347 311.911641 
L 109.469388 308.843559 
L 106.162678 307.190204 
L 102.651429 305.342178 
L 95.833469 301.394939 
L 94.214204 300.372245 
L 89.01551 296.906449 
L 84.374053 293.554286 
L 82.197551 291.889902 
L 75.939638 286.736327 
L 75.379592 286.246286 
L 68.629812 279.918367 
L 68.561633 279.850188 
L 62.233714 273.100408 
L 61.743673 272.540362 
L 56.590098 266.282449 
L 54.925714 264.105947 
L 51.573551 259.46449 
L 48.107755 254.265796 
L 47.085061 252.646531 
L 43.137822 245.828571 
L 41.289796 242.317322 
L 39.636441 239.010612 
L 36.568359 232.192653 
L 34.471837 226.951347 
L 33.871207 225.374694 
L 31.598554 218.556735 
L 29.650566 211.738776 
L 28.027242 204.920816 
L 27.653878 202.960653 
L 26.770642 198.102857 
L 25.84092 191.284898 
L 25.221106 184.466939 
L 24.911199 177.64898 
L 24.911199 170.83102 
L 25.221106 164.013061 
L 25.84092 157.195102 
L 26.770642 150.377143 
L 27.653878 145.519347 
L 28.027242 143.559184 
L 29.650566 136.741224 
L 31.598554 129.923265 
L 33.871207 123.105306 
L 34.471837 121.528653 
L 36.568359 116.287347 
L 39.636441 109.469388 
L 41.289796 106.162678 
L 43.137822 102.651429 
L 47.085061 95.833469 
L 48.107755 94.214204 
L 51.573551 89.01551 
L 54.925714 84.374053 
L 56.590098 82.197551 
L 61.743673 75.939638 
L 62.233714 75.379592 
L 68.561633 68.629812 
L 68.629812 68.561633 
L 75.379592 62.233714 
L 75.939638 61.743673 
L 82.197551 56.590098 
L 84.374053 54.925714 
L 89.01551 51.573551 
L 94.214204 48.107755 
L 95.833469 47.085061 
L 102.651429 43.137822 
L 106.162678 41.289796 
L 109.469388 39.636441 
L 116.287347 36.568359 
L 121.528653 34.471837 
L 123.105306 33.871207 
L 129.923265 31.598554 
L 136.741224 29.650566 
L 143.559184 28.027242 
L 145.519347 27.653878 
L 150.377143 26.770642 
L 157.195102 25.84092 
L 164.013061 25.221106 
L 170.83102 24.911199 
L 177.64898 24.911199 
L 184.466939 25.221106 
L 191.284898 25.84092 
L 198.102857 26.770642 
L 202.960653 27.653878 
L 204.920816 28.027242 
L 211.738776 29.650566 
L 218.556735 31.598554 
L 225.374694 33.871207 
L 226.951347 34.471837 
L 232.192653 36.568359 
L 239.010612 39.636441 
L 242.317322 41.289796 
L 245.828571 43.137822 
L 252.646531 47.085061 
L 254.265796 48.107755 
L 259.46449 51.573551 
L 264.105947 54.925714 
L 266.282449 56.590098 
L 272.540362 61.743673 
L 273.100408 62.233714 
L 279.850188 68.561633 
L 279.918367 68.629812 
L 286.246286 75.379592 
L 286.736327 75.939638 
L 291.889902 82.197551 
L 293.554286 84.374053 
L 296.906449 89.01551 
L 300.372245 94.214204 
L 301.394939 95.833469 
L 305.342178 102.651429 
L 307.190204 106.162678 
L 308.843559 109.469388 
L 311.911641 116.287347 
L 314.008163 121.528653 
L 314.608793 123.105306 
L 316.881446 129.923265 
L 318.829434 136.741224 
L 320.452758 143.559184 
L 320.826122 145.519347 
L 321.709358 150.377143 
L 322.63908 157.195102 
L 323.258894 164.013061 
L 323.568801 170.83102 
L 323.568801 177.64898 
L 323.258894 184.466939 
L 322.63908 191.284898 
L 321.709358 198.102857 
L 320.826122 202.960653 
L 320.452758 204.920816 
L 318.829434 211.738776 
L 316.881446 218.556735 
L 314.608793 225.374694 
L 314.008163 226.951347 
L 311.911641 232.192653 
L 308.843559 239.010612 
L 307.190204 242.317322 
L 305.342178 245.828571 
L 301.394939 252.646531 
L 300.372245 254.265796 
L 296.906449 259.46449 
L 293.554286 264.105947 
L 291.889902 266.282449 
L 286.736327 272.540362 
L 286.246286 273.100408 
L 279.918367 279.850188 
L 279.850188 279.918367 
L 273.100408 286.246286 
L 272.540362 286.736327 
L 266.282449 291.889902 
L 264.105947 293.554286 
L 259.46449 296.906449 
L 254.265796 300.372245 
L 252.646531 301.394939 
L 245.828571 305.342178 
L 242.317322 307.190204 
L 239.010612 308.843559 
L 232.192653 311.911641 
L 226.951347 314.008163 
L 225.374694 314.608793 
L 218.556735 316.881446 
L 211.738776 318.829434 
L 204.920816 320.452758 
L 202.960653 320.826122 
L 198.102857 321.709358 
L 191.284898 322.63908 
L 184.466939 323.258894 
L 177.64898 323.568801 
L 170.83102 323.568801 
L 164.013061 323.258894 
L 157.195102 322.63908 
L 150.377143 321.709358 
z
" clip-path="url(#p5117232b5e)" style="fill: none; stroke: #ff6200; stroke-opacity: 0.5; stroke-width: 0.8"/>
    <path d="M 143.559184 334.993273 
L 136.741224 333.534206 
L 129.923265 331.755607 
L 123.105306 329.680576 
L 116.287347 327.293886 
L 109.469388 324.504721 
L 101.492376 320.826122 
L 95.833469 317.861934 
L 89.01551 313.963847 
L 82.197551 309.532173 
L 75.379592 304.631675 
L 68.561633 299.186678 
L 61.743673 293.101092 
L 54.925714 286.254808 
L 48.107755 278.495687 
L 43.848325 273.100408 
L 38.947827 266.282449 
L 34.471837 259.390629 
L 30.618066 252.646531 
L 27.074351 245.828571 
L 23.975279 239.010612 
L 20.835918 231.229616 
L 18.799424 225.374694 
L 16.724393 218.556735 
L 14.945794 211.738776 
L 13.486727 204.920816 
L 12.3504 198.102857 
L 11.498155 191.284898 
L 10.929992 184.466939 
L 10.64591 177.64898 
L 10.64591 170.83102 
L 10.929992 164.013061 
L 11.498155 157.195102 
L 12.3504 150.377143 
L 14.017959 141.009267 
L 14.945794 136.741224 
L 16.724393 129.923265 
L 18.799424 123.105306 
L 21.186114 116.287347 
L 23.975279 109.469388 
L 27.653878 101.492376 
L 30.618066 95.833469 
L 34.516153 89.01551 
L 38.947827 82.197551 
L 43.848325 75.379592 
L 49.293322 68.561633 
L 55.378908 61.743673 
L 62.225192 54.925714 
L 69.984313 48.107755 
L 75.379592 43.848325 
L 82.197551 38.947827 
L 89.089371 34.471837 
L 95.833469 30.618066 
L 102.651429 27.074351 
L 109.469388 23.975279 
L 117.250384 20.835918 
L 123.105306 18.799424 
L 129.923265 16.724393 
L 136.741224 14.945794 
L 143.559184 13.486727 
L 150.377143 12.3504 
L 157.195102 11.498155 
L 164.013061 10.929992 
L 170.83102 10.64591 
L 177.64898 10.64591 
L 184.466939 10.929992 
L 191.284898 11.498155 
L 198.102857 12.3504 
L 207.470733 14.017959 
L 211.738776 14.945794 
L 218.556735 16.724393 
L 225.374694 18.799424 
L 232.192653 21.186114 
L 239.010612 23.975279 
L 246.987624 27.653878 
L 252.646531 30.618066 
L 259.46449 34.516153 
L 266.282449 38.947827 
L 273.100408 43.848325 
L 279.918367 49.293322 
L 286.736327 55.378908 
L 293.554286 62.225192 
L 300.372245 69.984313 
L 304.631675 75.379592 
L 309.532173 82.197551 
L 314.008163 89.089371 
L 317.861934 95.833469 
L 321.405649 102.651429 
L 324.504721 109.469388 
L 327.644082 117.250384 
L 329.680576 123.105306 
L 331.755607 129.923265 
L 333.534206 136.741224 
L 334.993273 143.559184 
L 336.1296 150.377143 
L 336.981845 157.195102 
L 337.550008 164.013061 
L 337.83409 170.83102 
L 337.83409 177.64898 
L 337.550008 184.466939 
L 336.981845 191.284898 
L 336.1296 198.102857 
L 334.462041 207.470733 
L 333.534206 211.738776 
L 331.755607 218.556735 
L 329.680576 225.374694 
L 327.293886 232.192653 
L 324.504721 239.010612 
L 320.826122 246.987624 
L 317.861934 252.646531 
L 313.963847 259.46449 
L 309.532173 266.282449 
L 304.631675 273.100408 
L 299.186678 279.918367 
L 293.101092 286.736327 
L 286.254808 293.554286 
L 278.495687 300.372245 
L 273.100408 304.631675 
L 266.282449 309.532173 
L 259.390629 314.008163 
L 252.646531 317.861934 
L 245.828571 321.405649 
L 239.010612 324.504721 
L 231.229616 327.644082 
L 225.374694 329.680576 
L 218.556735 331.755607 
L 211.738776 333.534206 
L 204.920816 334.993273 
L 198.102857 336.1296 
L 191.284898 336.981845 
L 184.466939 337.550008 
L 177.64898 337.83409 
L 170.83102 337.83409 
L 164.013061 337.550008 
L 157.195102 336.981845 
L 150.377143 336.1296 
L 143.559184 334.993273 
L 143.559184 334.993273 
" clip-path="url(#p5117232b5e)" style="fill: none; stroke: #ff7600; stroke-opacity: 0.5; stroke-width: 0.8"/>
    <path d="M 116.381094 341.28 
L 116.287347 341.248751 
L 109.469388 338.692016 
L 102.651429 335.8512 
L 95.833469 332.650835 
L 86.450909 327.644082 
L 82.197551 325.130734 
L 75.379592 320.790409 
L 66.051771 314.008163 
L 61.743673 310.561685 
L 54.925714 304.638852 
L 48.107755 298.057927 
L 41.289796 290.702775 
L 37.918315 286.736327 
L 32.559562 279.918367 
L 27.653878 273.046838 
L 23.349266 266.282449 
L 19.386361 259.46449 
L 15.829165 252.646531 
L 12.6288 245.828571 
L 9.787984 239.010612 
L 7.2 232.098906 
M 341.28 232.098906 
L 341.248751 232.192653 
L 338.692016 239.010612 
L 335.8512 245.828571 
L 332.650835 252.646531 
L 327.644082 262.029091 
L 325.130734 266.282449 
L 320.790409 273.100408 
L 314.008163 282.428229 
L 310.561685 286.736327 
L 304.638852 293.554286 
L 298.057927 300.372245 
L 290.702775 307.190204 
L 286.736327 310.561685 
L 279.918367 315.920438 
L 273.046838 320.826122 
L 266.282449 325.130734 
L 259.46449 329.093639 
L 252.646531 332.650835 
L 245.828571 335.8512 
L 239.010612 338.692016 
L 232.098906 341.28 
M 7.2 116.381094 
L 7.231249 116.287347 
L 9.787984 109.469388 
L 12.6288 102.651429 
L 15.829165 95.833469 
L 20.835918 86.450909 
L 23.349266 82.197551 
L 27.689591 75.379592 
L 34.471837 66.051771 
L 37.918315 61.743673 
L 43.841148 54.925714 
L 50.422073 48.107755 
L 57.777225 41.289796 
L 61.743673 37.918315 
L 68.561633 32.559562 
L 75.433162 27.653878 
L 82.197551 23.349266 
L 89.01551 19.386361 
L 95.833469 15.829165 
L 102.651429 12.6288 
L 109.469388 9.787984 
L 116.381094 7.2 
M 232.098906 7.2 
L 232.192653 7.231249 
L 239.010612 9.787984 
L 245.828571 12.6288 
L 252.646531 15.829165 
L 262.029091 20.835918 
L 266.282449 23.349266 
L 273.100408 27.689591 
L 282.428229 34.471837 
L 286.736327 37.918315 
L 293.554286 43.841148 
L 300.372245 50.422073 
L 307.190204 57.777225 
L 310.561685 61.743673 
L 315.920438 68.561633 
L 320.826122 75.433162 
L 325.130734 82.197551 
L 329.093639 89.01551 
L 332.650835 95.833469 
L 335.8512 102.651429 
L 338.692016 109.469388 
L 341.28 116.381094 
L 341.28 116.381094 
" clip-path="url(#p5117232b5e)" style="fill: none; stroke: #ff8900; stroke-opacity: 0.5; stroke-width: 0.8"/>
    <path d="M 85.915961 341.28 
L 82.197551 339.265861 
L 75.379592 335.288718 
L 74.056908 334.462041 
L 68.561633 330.878166 
L 63.912637 327.644082 
L 61.743673 326.066654 
L 54.961809 320.826122 
L 54.925714 320.796903 
L 48.107755 314.952938 
L 47.063531 314.008163 
L 41.289796 308.523115 
L 39.956885 307.190204 
L 34.471837 301.416469 
L 33.527062 300.372245 
L 27.683097 293.554286 
L 27.653878 293.518191 
L 22.413346 286.736327 
L 20.835918 284.567363 
L 17.601834 279.918367 
L 14.017959 274.423092 
L 13.191282 273.100408 
L 9.214139 266.282449 
L 7.2 262.564039 
M 341.28 262.564039 
L 339.265861 266.282449 
L 335.288718 273.100408 
L 334.462041 274.423092 
L 330.878166 279.918367 
L 327.644082 284.567363 
L 326.066654 286.736327 
L 320.826122 293.518191 
L 320.796903 293.554286 
L 314.952938 300.372245 
L 314.008163 301.416469 
L 308.523115 307.190204 
L 307.190204 308.523115 
L 301.416469 314.008163 
L 300.372245 314.952938 
L 293.554286 320.796903 
L 293.518191 320.826122 
L 286.736327 326.066654 
L 284.567363 327.644082 
L 279.918367 330.878166 
L 274.423092 334.462041 
L 273.100408 335.288718 
L 266.282449 339.265861 
L 262.564039 341.28 
M 7.2 85.915961 
L 9.214139 82.197551 
L 13.191282 75.379592 
L 14.017959 74.056908 
L 17.601834 68.561633 
L 20.835918 63.912637 
L 22.413346 61.743673 
L 27.653878 54.961809 
L 27.683097 54.925714 
L 33.527062 48.107755 
L 34.471837 47.063531 
L 39.956885 41.289796 
L 41.289796 39.956885 
L 47.063531 34.471837 
L 48.107755 33.527062 
L 54.925714 27.683097 
L 54.961809 27.653878 
L 61.743673 22.413346 
L 63.912637 20.835918 
L 68.561633 17.601834 
L 74.056908 14.017959 
L 75.379592 13.191282 
L 82.197551 9.214139 
L 85.915961 7.2 
M 262.564039 7.2 
L 266.282449 9.214139 
L 273.100408 13.191282 
L 274.423092 14.017959 
L 279.918367 17.601834 
L 284.567363 20.835918 
L 286.736327 22.413346 
L 293.518191 27.653878 
L 293.554286 27.683097 
L 300.372245 33.527062 
L 301.416469 34.471837 
L 307.190204 39.956885 
L 308.523115 41.289796 
L 314.008163 47.063531 
L 314.952938 48.107755 
L 320.796903 54.925714 
L 320.826122 54.961809 
L 326.066654 61.743673 
L 327.644082 63.912637 
L 330.878166 68.561633 
L 334.462041 74.056908 
L 335.288718 75.379592 
L 339.265861 82.197551 
L 341.28 85.915961 
" clip-path="url(#p5117232b5e)" style="fill: none; stroke: #ff9d00; stroke-opacity: 0.5; stroke-width: 0.8"/>
    <path d="M 63.477992 341.28 
L 61.743673 340.123788 
L 54.925714 335.2944 
L 53.815902 334.462041 
L 48.107755 329.994795 
L 45.262154 327.644082 
L 41.289796 324.213409 
L 37.563781 320.826122 
L 34.471837 317.881413 
L 30.598587 314.008163 
L 27.653878 310.916219 
L 24.266591 307.190204 
L 20.835918 303.217846 
L 18.485205 300.372245 
L 14.017959 294.664098 
L 13.1856 293.554286 
L 8.356212 286.736327 
L 7.2 285.002008 
M 341.28 285.002008 
L 340.123788 286.736327 
L 335.2944 293.554286 
L 334.462041 294.664098 
L 329.994795 300.372245 
L 327.644082 303.217846 
L 324.213409 307.190204 
L 320.826122 310.916219 
L 317.881413 314.008163 
L 314.008163 317.881413 
L 310.916219 320.826122 
L 307.190204 324.213409 
L 303.217846 327.644082 
L 300.372245 329.994795 
L 294.664098 334.462041 
L 293.554286 335.2944 
L 286.736327 340.123788 
L 285.002008 341.28 
M 7.2 63.477992 
L 8.356212 61.743673 
L 13.1856 54.925714 
L 14.017959 53.815902 
L 18.485205 48.107755 
L 20.835918 45.262154 
L 24.266591 41.289796 
L 27.653878 37.563781 
L 30.598587 34.471837 
L 34.471837 30.598587 
L 37.563781 27.653878 
L 41.289796 24.266591 
L 45.262154 20.835918 
L 48.107755 18.485205 
L 53.815902 14.017959 
L 54.925714 13.1856 
L 61.743673 8.356212 
L 63.477992 7.2 
M 285.002008 7.2 
L 286.736327 8.356212 
L 293.554286 13.1856 
L 294.664098 14.017959 
L 300.372245 18.485205 
L 303.217846 20.835918 
L 307.190204 24.266591 
L 310.916219 27.653878 
L 314.008163 30.598587 
L 317.881413 34.471837 
L 320.826122 37.563781 
L 324.213409 41.289796 
L 327.644082 45.262154 
L 329.994795 48.107755 
L 334.462041 53.815902 
L 335.2944 54.925714 
L 340.123788 61.743673 
L 341.28 63.477992 
" clip-path="url(#p5117232b5e)" style="fill: none; stroke: #ffb100; stroke-opacity: 0.5; stroke-width: 0.8"/>
    <path d="M 44.896137 341.28 
L 41.289796 338.42498 
L 36.534269 334.462041 
L 34.471837 332.668621 
L 28.96877 327.644082 
L 27.653878 326.388957 
L 22.091043 320.826122 
L 20.835918 319.51123 
L 15.811379 314.008163 
L 14.017959 311.945731 
L 10.05502 307.190204 
L 7.2 303.583863 
M 341.28 303.583863 
L 338.42498 307.190204 
L 334.462041 311.945731 
L 332.668621 314.008163 
L 327.644082 319.51123 
L 326.388957 320.826122 
L 320.826122 326.388957 
L 319.51123 327.644082 
L 314.008163 332.668621 
L 311.945731 334.462041 
L 307.190204 338.42498 
L 303.583863 341.28 
M 7.2 44.896137 
L 10.05502 41.289796 
L 14.017959 36.534269 
L 15.811379 34.471837 
L 20.835918 28.96877 
L 22.091043 27.653878 
L 27.653878 22.091043 
L 28.96877 20.835918 
L 34.471837 15.811379 
L 36.534269 14.017959 
L 41.289796 10.05502 
L 44.896137 7.2 
M 303.583863 7.2 
L 307.190204 10.05502 
L 311.945731 14.017959 
L 314.008163 15.811379 
L 319.51123 20.835918 
L 320.826122 22.091043 
L 326.388957 27.653878 
L 327.644082 28.96877 
L 332.668621 34.471837 
L 334.462041 36.534269 
L 338.42498 41.289796 
L 341.28 44.896137 
" clip-path="url(#p5117232b5e)" style="fill: none; stroke: #ffc400; stroke-opacity: 0.5; stroke-width: 0.8"/>
    <path d="M 28.637612 341.28 
L 27.653878 340.419233 
L 21.155123 334.462041 
L 20.835918 334.156715 
L 14.323285 327.644082 
L 14.017959 327.324877 
L 8.060767 320.826122 
L 7.2 319.842388 
M 341.28 319.842388 
L 340.419233 320.826122 
L 334.462041 327.324877 
L 334.156715 327.644082 
L 327.644082 334.156715 
L 327.324877 334.462041 
L 320.826122 340.419233 
L 319.842388 341.28 
M 7.2 28.637612 
L 8.060767 27.653878 
L 14.017959 21.155123 
L 14.323285 20.835918 
L 20.835918 14.323285 
L 21.155123 14.017959 
L 27.653878 8.060767 
L 28.637612 7.2 
M 319.842388 7.2 
L 320.826122 8.060767 
L 327.324877 14.017959 
L 327.644082 14.323285 
L 334.156715 20.835918 
L 334.462041 21.155123 
L 340.419233 27.653878 
L 341.28 28.637612 
" clip-path="url(#p5117232b5e)" style="fill: none; stroke: #ffd800; stroke-opacity: 0.5; stroke-width: 0.8"/>
    <path d="M 14.020924 341.28 
L 14.017959 341.277159 
L 7.202841 334.462041 
L 7.2 334.459076 
M 341.28 334.459076 
L 341.277159 334.462041 
L 334.462041 341.277159 
L 334.459076 341.28 
M 7.2 14.020924 
L 7.202841 14.017959 
L 14.017959 7.202841 
L 14.020924 7.2 
M 334.459076 7.2 
L 334.462041 7.202841 
L 341.277159 14.017959 
L 341.28 14.020924 
" clip-path="url(#p5117232b5e)" style="fill: none; stroke: #ffec00; stroke-opacity: 0.5; stroke-width: 0.8"/>
    <path clip-path="url(#p5117232b5e)" style="fill: none; stroke: #ffff00; stroke-opacity: 0.5; stroke-width: 0.8"/>
   </g>
   <g id="Quiver_1">
    <path d="M 174.24 173.4048 
L 266.9472 173.4048 
L 266.112 171.7344 
L 274.464 174.24 
L 266.112 176.7456 
L 266.9472 175.0752 
L 174.24 175.0752 
L 174.24 173.4048 
" clip-path="url(#p5117232b5e)" style="fill: #800000"/>
   </g>
   <g id="Quiver_2">
    <path d="M 173.4048 174.24 
L 173.4048 81.5328 
L 171.7344 82.368 
L 174.24 74.016 
L 176.7456 82.368 
L 175.0752 81.5328 
L 175.0752 174.24 
L 173.4048 174.24 
" clip-path="url(#p5117232b5e)" style="fill: #000080"/>
   </g>
   <g id="patch_3">
    <path d="M 7.2 341.28 
L 7.2 7.2 
" style="fill: none; stroke: #000000; stroke-width: 0.7; stroke-linejoin: miter; stroke-linecap: square"/>
   </g>
   <g id="patch_4">
    <path d="M 341.28 341.28 
L 341.28 7.2 
" style="fill: none; stroke: #000000; stroke-width: 0.7; stroke-linejoin: miter; stroke-linecap: square"/>
   </g>
   <g id="patch_5">
    <path d="M 7.2 341.28 
L 341.28 341.28 
" style="fill: none; stroke: #000000; stroke-width: 0.7; stroke-linejoin: miter; stroke-linecap: square"/>
   </g>
   <g id="patch_6">
    <path d="M 7.2 7.2 
L 341.28 7.2 
" style="fill: none; stroke: #000000; stroke-width: 0.7; stroke-linejoin: miter; stroke-linecap: square"/>
   </g>
  </g>
 </g>
 <defs>
  <clipPath id="p5117232b5e">
   <rect x="7.2" y="7.2" width="334.08" height="334.08"/>
  </clipPath>
 </defs>
</svg>
