<?xml version="1.0" encoding="utf-8" standalone="no"?>
<!DOCTYPE svg PUBLIC "-//W3C//DTD SVG 1.1//EN"
  "http://www.w3.org/Graphics/SVG/1.1/DTD/svg11.dtd">
<svg xmlns:xlink="http://www.w3.org/1999/xlink" width="348.48pt" height="348.48pt" viewBox="0 0 348.48 348.48" xmlns="http://www.w3.org/2000/svg" version="1.1">
 <metadata>
  <rdf:RDF xmlns:dc="http://purl.org/dc/elements/1.1/" xmlns:cc="http://creativecommons.org/ns#" xmlns:rdf="http://www.w3.org/1999/02/22-rdf-syntax-ns#">
   <cc:Work>
    <dc:type rdf:resource="http://purl.org/dc/dcmitype/StillImage"/>
    <dc:date>2024-10-13T02:55:04.374049</dc:date>
    <dc:format>image/svg+xml</dc:format>
    <dc:creator>
     <cc:Agent>
      <dc:title>Matplotlib v3.8.4, https://matplotlib.org/</dc:title>
     </cc:Agent>
    </dc:creator>
   </cc:Work>
  </rdf:RDF>
 </metadata>
 <defs>
  <style type="text/css">*{stroke-linejoin: round; stroke-linecap: butt}</style>
 </defs>
 <g id="figure_1">
  <g id="patch_1">
   <path d="M 0 348.48 
L 348.48 348.48 
L 348.48 0 
L 0 0 
z
" style="fill: #ffffff"/>
  </g>
  <g id="axes_1">
   <g id="patch_2">
    <path d="M 7.2 341.28 
L 341.28 341.28 
L 341.28 7.2 
L 7.2 7.2 
z
" style="fill: #ffffff"/>
   </g>
   <g id="matplotlib.axis_1">
    <g id="xtick_1">
     <g id="line2d_1">
      <path d="M 40.608 341.28 
L 40.608 7.2 
" clip-path="url(#p2943be1a28)" style="fill: none; stroke: #e6e6e6; stroke-width: 0.8; stroke-linecap: square"/>
     </g>
    </g>
    <g id="xtick_2">
     <g id="line2d_2">
      <path d="M 107.424 341.28 
L 107.424 7.2 
" clip-path="url(#p2943be1a28)" style="fill: none; stroke: #e6e6e6; stroke-width: 0.8; stroke-linecap: square"/>
     </g>
    </g>
    <g id="xtick_3">
     <g id="line2d_3">
      <path d="M 174.24 341.28 
L 174.24 7.2 
" clip-path="url(#p2943be1a28)" style="fill: none; stroke: #e6e6e6; stroke-width: 0.8; stroke-linecap: square"/>
     </g>
    </g>
    <g id="xtick_4">
     <g id="line2d_4">
      <path d="M 241.056 341.28 
L 241.056 7.2 
" clip-path="url(#p2943be1a28)" style="fill: none; stroke: #e6e6e6; stroke-width: 0.8; stroke-linecap: square"/>
     </g>
    </g>
    <g id="xtick_5">
     <g id="line2d_5">
      <path d="M 307.872 341.28 
L 307.872 7.2 
" clip-path="url(#p2943be1a28)" style="fill: none; stroke: #e6e6e6; stroke-width: 0.8; stroke-linecap: square"/>
     </g>
    </g>
   </g>
   <g id="matplotlib.axis_2">
    <g id="ytick_1">
     <g id="line2d_6">
      <path d="M 7.2 307.872 
L 341.28 307.872 
" clip-path="url(#p2943be1a28)" style="fill: none; stroke: #e6e6e6; stroke-width: 0.8; stroke-linecap: square"/>
     </g>
    </g>
    <g id="ytick_2">
     <g id="line2d_7">
      <path d="M 7.2 241.056 
L 341.28 241.056 
" clip-path="url(#p2943be1a28)" style="fill: none; stroke: #e6e6e6; stroke-width: 0.8; stroke-linecap: square"/>
     </g>
    </g>
    <g id="ytick_3">
     <g id="line2d_8">
      <path d="M 7.2 174.24 
L 341.28 174.24 
" clip-path="url(#p2943be1a28)" style="fill: none; stroke: #e6e6e6; stroke-width: 0.8; stroke-linecap: square"/>
     </g>
    </g>
    <g id="ytick_4">
     <g id="line2d_9">
      <path d="M 7.2 107.424 
L 341.28 107.424 
" clip-path="url(#p2943be1a28)" style="fill: none; stroke: #e6e6e6; stroke-width: 0.8; stroke-linecap: square"/>
     </g>
    </g>
    <g id="ytick_5">
     <g id="line2d_10">
      <path d="M 7.2 40.608 
L 341.28 40.608 
" clip-path="url(#p2943be1a28)" style="fill: none; stroke: #e6e6e6; stroke-width: 0.8; stroke-linecap: square"/>
     </g>
    </g>
   </g>
   <g id="QuadContourSet_1">
    <path clip-path="url(#p2943be1a28)" style="fill: none; stroke: #ff0000; stroke-opacity: 0.5; stroke-width: 0.8"/>
    <path d="M 123.105306 246.14025 
L 122.543 245.828571 
L 116.287347 241.756099 
L 112.961513 239.010612 
L 109.469388 235.518487 
L 106.723901 232.192653 
L 102.651429 225.937 
L 102.33975 225.374694 
L 99.449625 218.556735 
L 97.474155 211.738776 
L 96.328036 204.920816 
L 95.936253 198.102857 
L 96.232569 191.284898 
L 97.158286 184.466939 
L 98.661194 177.64898 
L 100.694705 170.83102 
L 102.651429 165.573799 
L 103.271243 164.013061 
L 106.520224 157.195102 
L 109.469388 151.775699 
L 110.283472 150.377143 
L 114.772245 143.559184 
L 116.287347 141.482189 
L 119.996599 136.741224 
L 123.105306 133.10498 
L 126.038171 129.923265 
L 129.923265 126.038171 
L 133.10498 123.105306 
L 136.741224 119.996599 
L 141.482189 116.287347 
L 143.559184 114.772245 
L 150.377143 110.283472 
L 151.775699 109.469388 
L 157.195102 106.520224 
L 164.013061 103.271243 
L 165.573799 102.651429 
L 170.83102 100.694705 
L 177.64898 98.661194 
L 184.466939 97.158286 
L 191.284898 96.232569 
L 198.102857 95.936253 
L 204.920816 96.328036 
L 211.738776 97.474155 
L 218.556735 99.449625 
L 225.374694 102.33975 
L 225.937 102.651429 
L 232.192653 106.723901 
L 235.518487 109.469388 
L 239.010612 112.961513 
L 241.756099 116.287347 
L 245.828571 122.543 
L 246.14025 123.105306 
L 249.030375 129.923265 
L 251.005845 136.741224 
L 252.151964 143.559184 
L 252.543747 150.377143 
L 252.247431 157.195102 
L 251.321714 164.013061 
L 249.818806 170.83102 
L 247.785295 177.64898 
L 245.828571 182.906201 
L 245.208757 184.466939 
L 241.959776 191.284898 
L 239.010612 196.704301 
L 238.196528 198.102857 
L 233.707755 204.920816 
L 232.192653 206.997811 
L 228.483401 211.738776 
L 225.374694 215.37502 
L 222.441829 218.556735 
L 218.556735 222.441829 
L 215.37502 225.374694 
L 211.738776 228.483401 
L 206.997811 232.192653 
L 204.920816 233.707755 
L 198.102857 238.196528 
L 196.704301 239.010612 
L 191.284898 241.959776 
L 184.466939 245.208757 
L 182.906201 245.828571 
L 177.64898 247.785295 
L 170.83102 249.818806 
L 164.013061 251.321714 
L 157.195102 252.247431 
L 150.377143 252.543747 
L 143.559184 252.151964 
L 136.741224 251.005845 
L 129.923265 249.030375 
L 123.105306 246.14025 
" clip-path="url(#p2943be1a28)" style="fill: none; stroke: #ff1300; stroke-opacity: 0.5; stroke-width: 0.8"/>
    <path d="M 116.287347 281.603848 
L 111.075918 279.918367 
L 109.469388 279.34319 
L 102.651429 276.250478 
L 97.038146 273.100408 
L 95.833469 272.341062 
L 89.01551 267.230312 
L 87.929969 266.282449 
L 82.197551 260.550031 
L 81.249688 259.46449 
L 76.138938 252.646531 
L 75.379592 251.441854 
L 72.229522 245.828571 
L 69.13681 239.010612 
L 68.561633 237.404082 
L 66.876152 232.192653 
L 65.251823 225.374694 
L 64.182125 218.556735 
L 63.632272 211.738776 
L 63.570328 204.920816 
L 63.966921 198.102857 
L 64.79499 191.284898 
L 66.029561 184.466939 
L 67.647553 177.64898 
L 68.561633 174.533246 
L 69.697959 170.83102 
L 72.169194 164.013061 
L 74.979172 157.195102 
L 75.379592 156.33706 
L 78.290249 150.377143 
L 81.942155 143.559184 
L 82.197551 143.125998 
L 86.141729 136.741224 
L 89.01551 132.423184 
L 90.762765 129.923265 
L 95.833469 123.154239 
L 95.872062 123.105306 
L 101.632508 116.287347 
L 102.651429 115.15102 
L 108.023556 109.469388 
L 109.469388 108.023556 
L 115.15102 102.651429 
L 116.287347 101.632508 
L 123.105306 95.872062 
L 123.154239 95.833469 
L 129.923265 90.762765 
L 132.423184 89.01551 
L 136.741224 86.141729 
L 143.125998 82.197551 
L 143.559184 81.942155 
L 150.377143 78.290249 
L 156.33706 75.379592 
L 157.195102 74.979172 
L 164.013061 72.169194 
L 170.83102 69.697959 
L 174.533246 68.561633 
L 177.64898 67.647553 
L 184.466939 66.029561 
L 191.284898 64.79499 
L 198.102857 63.966921 
L 204.920816 63.570328 
L 211.738776 63.632272 
L 218.556735 64.182125 
L 225.374694 65.251823 
L 232.192653 66.876152 
L 237.404082 68.561633 
L 239.010612 69.13681 
L 245.828571 72.229522 
L 251.441854 75.379592 
L 252.646531 76.138938 
L 259.46449 81.249688 
L 260.550031 82.197551 
L 266.282449 87.929969 
L 267.230312 89.01551 
L 272.341062 95.833469 
L 273.100408 97.038146 
L 276.250478 102.651429 
L 279.34319 109.469388 
L 279.918367 111.075918 
L 281.603848 116.287347 
L 283.228177 123.105306 
L 284.297875 129.923265 
L 284.847728 136.741224 
L 284.909672 143.559184 
L 284.513079 150.377143 
L 283.68501 157.195102 
L 282.450439 164.013061 
L 280.832447 170.83102 
L 279.918367 173.946754 
L 278.782041 177.64898 
L 276.310806 184.466939 
L 273.500828 191.284898 
L 273.100408 192.14294 
L 270.189751 198.102857 
L 266.537845 204.920816 
L 266.282449 205.354002 
L 262.338271 211.738776 
L 259.46449 216.056816 
L 257.717235 218.556735 
L 252.646531 225.325761 
L 252.607938 225.374694 
L 246.847492 232.192653 
L 245.828571 233.32898 
L 240.456444 239.010612 
L 239.010612 240.456444 
L 233.32898 245.828571 
L 232.192653 246.847492 
L 225.374694 252.607938 
L 225.325761 252.646531 
L 218.556735 257.717235 
L 216.056816 259.46449 
L 211.738776 262.338271 
L 205.354002 266.282449 
L 204.920816 266.537845 
L 198.102857 270.189751 
L 192.14294 273.100408 
L 191.284898 273.500828 
L 184.466939 276.310806 
L 177.64898 278.782041 
L 173.946754 279.918367 
L 170.83102 280.832447 
L 164.013061 282.450439 
L 157.195102 283.68501 
L 150.377143 284.513079 
L 143.559184 284.909672 
L 136.741224 284.847728 
L 129.923265 284.297875 
L 123.105306 283.228177 
L 116.287347 281.603848 
z
" clip-path="url(#p2943be1a28)" style="fill: none; stroke: #ff2700; stroke-opacity: 0.5; stroke-width: 0.8"/>
    <path d="M 109.469388 307.349224 
L 108.812235 307.190204 
L 102.651429 305.577122 
L 95.833469 303.287964 
L 89.01551 300.461661 
L 88.832478 300.372245 
L 82.197551 296.828861 
L 76.976942 293.554286 
L 75.379592 292.449399 
L 68.561633 287.03996 
L 68.222277 286.736327 
L 61.743673 280.257723 
L 61.44004 279.918367 
L 56.030601 273.100408 
L 54.925714 271.503058 
L 51.651139 266.282449 
L 48.107755 259.647522 
L 48.018339 259.46449 
L 45.192036 252.646531 
L 42.902878 245.828571 
L 41.289796 239.667765 
L 41.130776 239.010612 
L 39.902761 232.192653 
L 39.100367 225.374694 
L 38.702371 218.556735 
L 38.68894 211.738776 
L 39.041514 204.920816 
L 39.742713 198.102857 
L 40.776235 191.284898 
L 41.289796 188.717095 
L 42.171904 184.466939 
L 43.912088 177.64898 
L 45.953778 170.83102 
L 48.107755 164.533516 
L 48.292524 164.013061 
L 51.034932 157.195102 
L 54.048864 150.377143 
L 54.925714 148.571305 
L 57.45226 143.559184 
L 61.158755 136.741224 
L 61.743673 135.744993 
L 65.29509 129.923265 
L 68.561633 124.890265 
L 69.767127 123.105306 
L 74.66089 116.287347 
L 75.379592 115.342536 
L 80.032798 109.469388 
L 82.197551 106.873225 
L 85.870384 102.651429 
L 89.01551 99.207781 
L 92.236941 95.833469 
L 95.833469 92.236941 
L 99.207781 89.01551 
L 102.651429 85.870384 
L 106.873225 82.197551 
L 109.469388 80.032798 
L 115.342536 75.379592 
L 116.287347 74.66089 
L 123.105306 69.767127 
L 124.890265 68.561633 
L 129.923265 65.29509 
L 135.744993 61.743673 
L 136.741224 61.158755 
L 143.559184 57.45226 
L 148.571305 54.925714 
L 150.377143 54.048864 
L 157.195102 51.034932 
L 164.013061 48.292524 
L 164.533516 48.107755 
L 170.83102 45.953778 
L 177.64898 43.912088 
L 184.466939 42.171904 
L 188.717095 41.289796 
L 191.284898 40.776235 
L 198.102857 39.742713 
L 204.920816 39.041514 
L 211.738776 38.68894 
L 218.556735 38.702371 
L 225.374694 39.100367 
L 232.192653 39.902761 
L 239.010612 41.130776 
L 239.667765 41.289796 
L 245.828571 42.902878 
L 252.646531 45.192036 
L 259.46449 48.018339 
L 259.647522 48.107755 
L 266.282449 51.651139 
L 271.503058 54.925714 
L 273.100408 56.030601 
L 279.918367 61.44004 
L 280.257723 61.743673 
L 286.736327 68.222277 
L 287.03996 68.561633 
L 292.449399 75.379592 
L 293.554286 76.976942 
L 296.828861 82.197551 
L 300.372245 88.832478 
L 300.461661 89.01551 
L 303.287964 95.833469 
L 305.577122 102.651429 
L 307.190204 108.812235 
L 307.349224 109.469388 
L 308.577239 116.287347 
L 309.379633 123.105306 
L 309.777629 129.923265 
L 309.79106 136.741224 
L 309.438486 143.559184 
L 308.737287 150.377143 
L 307.703765 157.195102 
L 307.190204 159.762905 
L 306.308096 164.013061 
L 304.567912 170.83102 
L 302.526222 177.64898 
L 300.372245 183.946484 
L 300.187476 184.466939 
L 297.445068 191.284898 
L 294.431136 198.102857 
L 293.554286 199.908695 
L 291.02774 204.920816 
L 287.321245 211.738776 
L 286.736327 212.735007 
L 283.18491 218.556735 
L 279.918367 223.589735 
L 278.712873 225.374694 
L 273.81911 232.192653 
L 273.100408 233.137464 
L 268.447202 239.010612 
L 266.282449 241.606775 
L 262.609616 245.828571 
L 259.46449 249.272219 
L 256.243059 252.646531 
L 252.646531 256.243059 
L 249.272219 259.46449 
L 245.828571 262.609616 
L 241.606775 266.282449 
L 239.010612 268.447202 
L 233.137464 273.100408 
L 232.192653 273.81911 
L 225.374694 278.712873 
L 223.589735 279.918367 
L 218.556735 283.18491 
L 212.735007 286.736327 
L 211.738776 287.321245 
L 204.920816 291.02774 
L 199.908695 293.554286 
L 198.102857 294.431136 
L 191.284898 297.445068 
L 184.466939 300.187476 
L 183.946484 300.372245 
L 177.64898 302.526222 
L 170.83102 304.567912 
L 164.013061 306.308096 
L 159.762905 307.190204 
L 157.195102 307.703765 
L 150.377143 308.737287 
L 143.559184 309.438486 
L 136.741224 309.79106 
L 129.923265 309.777629 
L 123.105306 309.379633 
L 116.287347 308.577239 
L 109.469388 307.349224 
z
" clip-path="url(#p2943be1a28)" style="fill: none; stroke: #ff3b00; stroke-opacity: 0.5; stroke-width: 0.8"/>
    <path d="M 102.651429 328.580048 
L 95.833469 327.083576 
L 89.01551 325.113031 
L 82.197551 322.696788 
L 75.379592 319.751219 
L 68.561633 316.166141 
L 64.979608 314.008163 
L 61.743673 311.890292 
L 54.925714 306.805919 
L 47.841627 300.372245 
L 41.289796 293.080392 
L 36.589708 286.736327 
L 34.471837 283.500392 
L 32.313859 279.918367 
L 28.728781 273.100408 
L 27.653878 270.729926 
L 25.783212 266.282449 
L 23.366969 259.46449 
L 21.396424 252.646531 
L 19.899952 245.828571 
L 18.814216 239.010612 
L 18.093732 232.192653 
L 17.722657 225.374694 
L 17.686054 218.556735 
L 17.969821 211.738776 
L 18.560641 204.920816 
L 19.445924 198.102857 
L 20.835918 190.244262 
L 22.109342 184.466939 
L 23.886058 177.64898 
L 25.922455 170.83102 
L 28.23396 164.013061 
L 30.874776 157.195102 
L 34.471837 148.815394 
L 36.970691 143.559184 
L 41.289796 135.202149 
L 44.275704 129.923265 
L 48.368689 123.105306 
L 54.925714 113.308975 
L 57.682093 109.469388 
L 62.856265 102.651429 
L 68.561633 95.679912 
L 75.379592 88.042919 
L 82.197551 80.99827 
L 89.01551 74.479621 
L 95.833469 68.430181 
L 104.076587 61.743673 
L 113.308975 54.925714 
L 116.287347 52.86042 
L 123.526335 48.107755 
L 129.923265 44.275704 
L 136.741224 40.447392 
L 143.559184 36.970691 
L 150.377143 33.752936 
L 157.195102 30.874776 
L 165.683232 27.653878 
L 170.83102 25.922455 
L 177.64898 23.886058 
L 184.466939 22.109342 
L 191.284898 20.61376 
L 198.102857 19.445924 
L 204.920816 18.560641 
L 211.738776 17.969821 
L 218.556735 17.686054 
L 225.374694 17.722657 
L 232.192653 18.093732 
L 239.010612 18.814216 
L 245.828571 19.899952 
L 252.646531 21.396424 
L 259.46449 23.366969 
L 266.282449 25.783212 
L 273.100408 28.728781 
L 279.918367 32.313859 
L 283.500392 34.471837 
L 286.736327 36.589708 
L 293.554286 41.674081 
L 300.638373 48.107755 
L 307.190204 55.399608 
L 311.890292 61.743673 
L 314.008163 64.979608 
L 316.166141 68.561633 
L 319.751219 75.379592 
L 320.826122 77.750074 
L 322.696788 82.197551 
L 325.113031 89.01551 
L 327.083576 95.833469 
L 328.580048 102.651429 
L 329.665784 109.469388 
L 330.386268 116.287347 
L 330.757343 123.105306 
L 330.793946 129.923265 
L 330.510179 136.741224 
L 329.919359 143.559184 
L 329.034076 150.377143 
L 327.644082 158.235738 
L 326.370658 164.013061 
L 324.593942 170.83102 
L 322.557545 177.64898 
L 320.24604 184.466939 
L 317.605224 191.284898 
L 314.008163 199.664606 
L 311.509309 204.920816 
L 307.190204 213.277851 
L 304.204296 218.556735 
L 300.111311 225.374694 
L 293.554286 235.171025 
L 290.797907 239.010612 
L 285.623735 245.828571 
L 279.918367 252.800088 
L 273.100408 260.437081 
L 266.282449 267.48173 
L 259.46449 274.000379 
L 252.646531 280.049819 
L 244.403413 286.736327 
L 235.171025 293.554286 
L 232.192653 295.61958 
L 224.953665 300.372245 
L 218.556735 304.204296 
L 211.738776 308.032608 
L 204.920816 311.509309 
L 198.102857 314.727064 
L 191.284898 317.605224 
L 182.796768 320.826122 
L 177.64898 322.557545 
L 170.83102 324.593942 
L 164.013061 326.370658 
L 157.195102 327.86624 
L 150.377143 329.034076 
L 143.559184 329.919359 
L 136.741224 330.510179 
L 129.923265 330.793946 
L 123.105306 330.757343 
L 116.287347 330.386268 
L 109.469388 329.665784 
L 102.651429 328.580048 
L 102.651429 328.580048 
" clip-path="url(#p2943be1a28)" style="fill: none; stroke: #ff4e00; stroke-opacity: 0.5; stroke-width: 0.8"/>
    <path d="M 74.087299 341.28 
L 68.561633 339.095434 
L 61.743673 335.965213 
L 58.865741 334.462041 
L 54.925714 332.253406 
L 47.690329 327.644082 
L 41.289796 322.789188 
L 38.950053 320.826122 
L 34.471837 316.739938 
L 31.740062 314.008163 
L 27.653878 309.529947 
L 25.690812 307.190204 
L 20.542883 300.372245 
L 16.226594 293.554286 
L 12.514787 286.736327 
L 9.384566 279.918367 
L 7.2 274.392701 
M 7.2 174.355952 
L 8.272805 170.83102 
L 10.588066 164.013061 
L 14.017959 154.990289 
L 15.945698 150.377143 
L 20.835918 139.787547 
L 22.349419 136.741224 
L 27.653878 126.907142 
L 29.853219 123.105306 
L 34.471837 115.567298 
L 41.289796 105.468945 
L 43.305942 102.651429 
L 48.409716 95.833469 
L 54.925714 87.801353 
L 61.743673 80.020841 
L 68.561633 72.794666 
L 75.379592 66.065623 
L 82.197551 59.784118 
L 89.01551 53.906939 
L 96.224833 48.107755 
L 105.468945 41.289796 
L 109.469388 38.514872 
L 116.287347 34.008621 
L 126.907142 27.653878 
L 129.923265 25.960063 
L 139.787547 20.835918 
L 143.559184 19.015929 
L 150.377143 15.945698 
L 157.195102 13.122672 
L 164.013061 10.588066 
L 170.83102 8.272805 
L 174.355952 7.2 
M 341.28 174.124048 
L 340.207195 177.64898 
L 337.891934 184.466939 
L 334.462041 193.489711 
L 332.534302 198.102857 
L 327.644082 208.692453 
L 326.130581 211.738776 
L 320.826122 221.572858 
L 318.626781 225.374694 
L 314.008163 232.912702 
L 307.190204 243.011055 
L 305.174058 245.828571 
L 300.070284 252.646531 
L 293.554286 260.678647 
L 286.736327 268.459159 
L 279.918367 275.685334 
L 273.100408 282.414377 
L 266.282449 288.695882 
L 259.46449 294.573061 
L 252.255167 300.372245 
L 243.011055 307.190204 
L 239.010612 309.965128 
L 232.192653 314.471379 
L 221.572858 320.826122 
L 218.556735 322.519937 
L 208.692453 327.644082 
L 204.920816 329.464071 
L 198.102857 332.534302 
L 191.284898 335.357328 
L 184.466939 337.891934 
L 177.64898 340.207195 
L 174.124048 341.28 
M 274.392701 7.2 
L 279.918367 9.384566 
L 286.736327 12.514787 
L 289.614259 14.017959 
L 293.554286 16.226594 
L 300.789671 20.835918 
L 307.190204 25.690812 
L 309.529947 27.653878 
L 314.008163 31.740062 
L 316.739938 34.471837 
L 320.826122 38.950053 
L 322.789188 41.289796 
L 327.937117 48.107755 
L 332.253406 54.925714 
L 335.965213 61.743673 
L 339.095434 68.561633 
L 341.28 74.087299 
L 341.28 74.087299 
" clip-path="url(#p2943be1a28)" style="fill: none; stroke: #ff6200; stroke-opacity: 0.5; stroke-width: 0.8"/>
    <path d="M 34.184633 341.28 
L 27.653878 336.200523 
L 25.61305 334.462041 
L 20.835918 330.067079 
L 18.412921 327.644082 
L 14.017959 322.86695 
L 12.279477 320.826122 
L 7.2 314.295367 
M 341.28 214.024196 
L 338.948232 218.556735 
L 335.247729 225.374694 
L 334.462041 226.745081 
L 331.253197 232.192653 
L 327.644082 238.04744 
L 327.03362 239.010612 
L 322.500114 245.828571 
L 320.826122 248.24123 
L 317.682053 252.646531 
L 314.008163 257.595655 
L 312.57998 259.46449 
L 307.190204 266.255322 
L 307.16802 266.282449 
L 301.37231 273.100408 
L 300.372245 274.236735 
L 295.217386 279.918367 
L 293.554286 281.691037 
L 288.669894 286.736327 
L 286.736327 288.669894 
L 281.691037 293.554286 
L 279.918367 295.217386 
L 274.236735 300.372245 
L 273.100408 301.37231 
L 266.282449 307.16802 
L 266.255322 307.190204 
L 259.46449 312.57998 
L 257.595655 314.008163 
L 252.646531 317.682053 
L 248.24123 320.826122 
L 245.828571 322.500114 
L 239.010612 327.03362 
L 238.04744 327.644082 
L 232.192653 331.253197 
L 226.745081 334.462041 
L 225.374694 335.247729 
L 218.556735 338.948232 
L 214.024196 341.28 
M 7.2 134.455804 
L 9.531768 129.923265 
L 13.232271 123.105306 
L 14.017959 121.734919 
L 17.226803 116.287347 
L 20.835918 110.43256 
L 21.44638 109.469388 
L 25.979886 102.651429 
L 27.653878 100.23877 
L 30.797947 95.833469 
L 34.471837 90.884345 
L 35.90002 89.01551 
L 41.289796 82.224678 
L 41.31198 82.197551 
L 47.10769 75.379592 
L 48.107755 74.243265 
L 53.262614 68.561633 
L 54.925714 66.788963 
L 59.810106 61.743673 
L 61.743673 59.810106 
L 66.788963 54.925714 
L 68.561633 53.262614 
L 74.243265 48.107755 
L 75.379592 47.10769 
L 82.197551 41.31198 
L 82.224678 41.289796 
L 89.01551 35.90002 
L 90.884345 34.471837 
L 95.833469 30.797947 
L 100.23877 27.653878 
L 102.651429 25.979886 
L 109.469388 21.44638 
L 110.43256 20.835918 
L 116.287347 17.226803 
L 121.734919 14.017959 
L 123.105306 13.232271 
L 129.923265 9.531768 
L 134.455804 7.2 
M 314.295367 7.2 
L 320.826122 12.279477 
L 322.86695 14.017959 
L 327.644082 18.412921 
L 330.067079 20.835918 
L 334.462041 25.61305 
L 336.200523 27.653878 
L 341.28 34.184633 
" clip-path="url(#p2943be1a28)" style="fill: none; stroke: #ff7600; stroke-opacity: 0.5; stroke-width: 0.8"/>
    <path d="M 341.28 241.014739 
L 338.203757 245.828571 
L 334.462041 251.456693 
L 333.650072 252.646531 
L 328.803772 259.46449 
L 327.644082 261.03521 
L 323.665848 266.282449 
L 320.826122 269.899801 
L 318.244173 273.100408 
L 314.008163 278.177612 
L 312.514574 279.918367 
L 307.190204 285.925036 
L 306.45005 286.736327 
L 300.372245 293.191467 
L 300.02035 293.554286 
L 293.554286 300.02035 
L 293.191467 300.372245 
L 286.736327 306.45005 
L 285.925036 307.190204 
L 279.918367 312.514574 
L 278.177612 314.008163 
L 273.100408 318.244173 
L 269.899801 320.826122 
L 266.282449 323.665848 
L 261.03521 327.644082 
L 259.46449 328.803772 
L 252.646531 333.650072 
L 251.456693 334.462041 
L 245.828571 338.203757 
L 241.014739 341.28 
M 7.2 107.465261 
L 10.276243 102.651429 
L 14.017959 97.023307 
L 14.829928 95.833469 
L 19.676228 89.01551 
L 20.835918 87.44479 
L 24.814152 82.197551 
L 27.653878 78.580199 
L 30.235827 75.379592 
L 34.471837 70.302388 
L 35.965426 68.561633 
L 41.289796 62.554964 
L 42.02995 61.743673 
L 48.107755 55.288533 
L 48.45965 54.925714 
L 54.925714 48.45965 
L 55.288533 48.107755 
L 61.743673 42.02995 
L 62.554964 41.289796 
L 68.561633 35.965426 
L 70.302388 34.471837 
L 75.379592 30.235827 
L 78.580199 27.653878 
L 82.197551 24.814152 
L 87.44479 20.835918 
L 89.01551 19.676228 
L 95.833469 14.829928 
L 97.023307 14.017959 
L 102.651429 10.276243 
L 107.465261 7.2 
" clip-path="url(#p2943be1a28)" style="fill: none; stroke: #ff8900; stroke-opacity: 0.5; stroke-width: 0.8"/>
    <path d="M 341.28 262.839966 
L 338.782512 266.282449 
L 334.462041 272.039657 
L 333.645631 273.100408 
L 328.217382 279.918367 
L 327.644082 280.615148 
L 322.476853 286.736327 
L 320.826122 288.633435 
L 316.430162 293.554286 
L 314.008163 296.186893 
L 310.052146 300.372245 
L 307.190204 303.314805 
L 303.314805 307.190204 
L 300.372245 310.052146 
L 296.186893 314.008163 
L 293.554286 316.430162 
L 288.633435 320.826122 
L 286.736327 322.476853 
L 280.615148 327.644082 
L 279.918367 328.217382 
L 273.100408 333.645631 
L 272.039657 334.462041 
L 266.282449 338.782512 
L 262.839966 341.28 
M 7.2 85.640034 
L 9.697488 82.197551 
L 14.017959 76.440343 
L 14.834369 75.379592 
L 20.262618 68.561633 
L 20.835918 67.864852 
L 26.003147 61.743673 
L 27.653878 59.846565 
L 32.049838 54.925714 
L 34.471837 52.293107 
L 38.427854 48.107755 
L 41.289796 45.165195 
L 45.165195 41.289796 
L 48.107755 38.427854 
L 52.293107 34.471837 
L 54.925714 32.049838 
L 59.846565 27.653878 
L 61.743673 26.003147 
L 67.864852 20.835918 
L 68.561633 20.262618 
L 75.379592 14.834369 
L 76.440343 14.017959 
L 82.197551 9.697488 
L 85.640034 7.2 
" clip-path="url(#p2943be1a28)" style="fill: none; stroke: #ff9d00; stroke-opacity: 0.5; stroke-width: 0.8"/>
    <path d="M 341.28 281.684905 
L 337.20571 286.736327 
L 334.462041 290.038997 
L 331.469379 293.554286 
L 327.644082 297.920534 
L 325.441547 300.372245 
L 320.826122 305.36851 
L 319.099414 307.190204 
L 314.008163 312.417741 
L 312.417741 314.008163 
L 307.190204 319.099414 
L 305.36851 320.826122 
L 300.372245 325.441547 
L 297.920534 327.644082 
L 293.554286 331.469379 
L 290.038997 334.462041 
L 286.736327 337.20571 
L 281.684905 341.28 
M 7.2 66.795095 
L 11.27429 61.743673 
L 14.017959 58.441003 
L 17.010621 54.925714 
L 20.835918 50.559466 
L 23.038453 48.107755 
L 27.653878 43.11149 
L 29.380586 41.289796 
L 34.471837 36.062259 
L 36.062259 34.471837 
L 41.289796 29.380586 
L 43.11149 27.653878 
L 48.107755 23.038453 
L 50.559466 20.835918 
L 54.925714 17.010621 
L 58.441003 14.017959 
L 61.743673 11.27429 
L 66.795095 7.2 
" clip-path="url(#p2943be1a28)" style="fill: none; stroke: #ffb100; stroke-opacity: 0.5; stroke-width: 0.8"/>
    <path d="M 341.28 298.496298 
L 339.670685 300.372245 
L 334.462041 306.280707 
L 333.640813 307.190204 
L 327.644082 313.657707 
L 327.311055 314.008163 
L 320.826122 320.658468 
L 320.658468 320.826122 
L 314.008163 327.311055 
L 313.657707 327.644082 
L 307.190204 333.640813 
L 306.280707 334.462041 
L 300.372245 339.670685 
L 298.496298 341.28 
M 7.2 49.983702 
L 8.809315 48.107755 
L 14.017959 42.199293 
L 14.839187 41.289796 
L 20.835918 34.822293 
L 21.168945 34.471837 
L 27.653878 27.821532 
L 27.821532 27.653878 
L 34.471837 21.168945 
L 34.822293 20.835918 
L 41.289796 14.839187 
L 42.199293 14.017959 
L 48.107755 8.809315 
L 49.983702 7.2 
" clip-path="url(#p2943be1a28)" style="fill: none; stroke: #ffc400; stroke-opacity: 0.5; stroke-width: 0.8"/>
    <path d="M 341.28 313.846128 
L 341.133012 314.008163 
L 334.786706 320.826122 
L 334.462041 321.166434 
L 328.136808 327.644082 
L 327.644082 328.136808 
L 321.166434 334.462041 
L 320.826122 334.786706 
L 314.008163 341.133012 
L 313.846128 341.28 
M 7.2 34.633872 
L 7.346988 34.471837 
L 13.693294 27.653878 
L 14.017959 27.313566 
L 20.343192 20.835918 
L 20.835918 20.343192 
L 27.313566 14.017959 
L 27.653878 13.693294 
L 34.471837 7.346988 
L 34.633872 7.2 
" clip-path="url(#p2943be1a28)" style="fill: none; stroke: #ffd800; stroke-opacity: 0.5; stroke-width: 0.8"/>
    <path d="M 341.28 328.020361 
L 334.983543 334.462041 
L 334.462041 334.983543 
L 328.020361 341.28 
M 7.2 20.459639 
L 13.496457 14.017959 
L 14.017959 13.496457 
L 20.459639 7.2 
" clip-path="url(#p2943be1a28)" style="fill: none; stroke: #ffec00; stroke-opacity: 0.5; stroke-width: 0.8"/>
    <path clip-path="url(#p2943be1a28)" style="fill: none; stroke: #ffff00; stroke-opacity: 0.5; stroke-width: 0.8"/>
   </g>
   <g id="Quiver_1">
    <path d="M 174.24 173.4048 
L 266.9472 173.4048 
L 266.112 171.7344 
L 274.464 174.24 
L 266.112 176.7456 
L 266.9472 175.0752 
L 174.24 175.0752 
L 174.24 173.4048 
" clip-path="url(#p2943be1a28)" style="fill: #800000"/>
   </g>
   <g id="Quiver_2">
    <path d="M 173.440023 174.000007 
L 200.079241 85.202614 
L 198.239295 85.522605 
L 203.039154 78.242818 
L 203.039154 86.962562 
L 201.679194 85.6826 
L 175.039977 174.479993 
L 173.440023 174.000007 
" clip-path="url(#p2943be1a28)" style="fill: #000080"/>
   </g>
   <g id="patch_3">
    <path d="M 7.2 341.28 
L 7.2 7.2 
" style="fill: none; stroke: #000000; stroke-width: 0.7; stroke-linejoin: miter; stroke-linecap: square"/>
   </g>
   <g id="patch_4">
    <path d="M 341.28 341.28 
L 341.28 7.2 
" style="fill: none; stroke: #000000; stroke-width: 0.7; stroke-linejoin: miter; stroke-linecap: square"/>
   </g>
   <g id="patch_5">
    <path d="M 7.2 341.28 
L 341.28 341.28 
" style="fill: none; stroke: #000000; stroke-width: 0.7; stroke-linejoin: miter; stroke-linecap: square"/>
   </g>
   <g id="patch_6">
    <path d="M 7.2 7.2 
L 341.28 7.2 
" style="fill: none; stroke: #000000; stroke-width: 0.7; stroke-linejoin: miter; stroke-linecap: square"/>
   </g>
  </g>
 </g>
 <defs>
  <clipPath id="p2943be1a28">
   <rect x="7.2" y="7.2" width="334.08" height="334.08"/>
  </clipPath>
 </defs>
</svg>
