<?xml version="1.0" encoding="utf-8" standalone="no"?>
<!DOCTYPE svg PUBLIC "-//W3C//DTD SVG 1.1//EN"
  "http://www.w3.org/Graphics/SVG/1.1/DTD/svg11.dtd">
<svg xmlns:xlink="http://www.w3.org/1999/xlink" width="348.48pt" height="348.48pt" viewBox="0 0 348.48 348.48" xmlns="http://www.w3.org/2000/svg" version="1.1">
 <metadata>
  <rdf:RDF xmlns:dc="http://purl.org/dc/elements/1.1/" xmlns:cc="http://creativecommons.org/ns#" xmlns:rdf="http://www.w3.org/1999/02/22-rdf-syntax-ns#">
   <cc:Work>
    <dc:type rdf:resource="http://purl.org/dc/dcmitype/StillImage"/>
    <dc:date>2024-10-13T02:55:04.882259</dc:date>
    <dc:format>image/svg+xml</dc:format>
    <dc:creator>
     <cc:Agent>
      <dc:title>Matplotlib v3.8.4, https://matplotlib.org/</dc:title>
     </cc:Agent>
    </dc:creator>
   </cc:Work>
  </rdf:RDF>
 </metadata>
 <defs>
  <style type="text/css">*{stroke-linejoin: round; stroke-linecap: butt}</style>
 </defs>
 <g id="figure_1">
  <g id="patch_1">
   <path d="M 0 348.48 
L 348.48 348.48 
L 348.48 0 
L 0 0 
z
" style="fill: #ffffff"/>
  </g>
  <g id="axes_1">
   <g id="patch_2">
    <path d="M 7.2 341.28 
L 341.28 341.28 
L 341.28 7.2 
L 7.2 7.2 
z
" style="fill: #ffffff"/>
   </g>
   <g id="matplotlib.axis_1">
    <g id="xtick_1">
     <g id="line2d_1">
      <path d="M 40.608 341.28 
L 40.608 7.2 
" clip-path="url(#p865e448766)" style="fill: none; stroke: #e6e6e6; stroke-width: 0.8; stroke-linecap: square"/>
     </g>
    </g>
    <g id="xtick_2">
     <g id="line2d_2">
      <path d="M 107.424 341.28 
L 107.424 7.2 
" clip-path="url(#p865e448766)" style="fill: none; stroke: #e6e6e6; stroke-width: 0.8; stroke-linecap: square"/>
     </g>
    </g>
    <g id="xtick_3">
     <g id="line2d_3">
      <path d="M 174.24 341.28 
L 174.24 7.2 
" clip-path="url(#p865e448766)" style="fill: none; stroke: #e6e6e6; stroke-width: 0.8; stroke-linecap: square"/>
     </g>
    </g>
    <g id="xtick_4">
     <g id="line2d_4">
      <path d="M 241.056 341.28 
L 241.056 7.2 
" clip-path="url(#p865e448766)" style="fill: none; stroke: #e6e6e6; stroke-width: 0.8; stroke-linecap: square"/>
     </g>
    </g>
    <g id="xtick_5">
     <g id="line2d_5">
      <path d="M 307.872 341.28 
L 307.872 7.2 
" clip-path="url(#p865e448766)" style="fill: none; stroke: #e6e6e6; stroke-width: 0.8; stroke-linecap: square"/>
     </g>
    </g>
   </g>
   <g id="matplotlib.axis_2">
    <g id="ytick_1">
     <g id="line2d_6">
      <path d="M 7.2 307.872 
L 341.28 307.872 
" clip-path="url(#p865e448766)" style="fill: none; stroke: #e6e6e6; stroke-width: 0.8; stroke-linecap: square"/>
     </g>
    </g>
    <g id="ytick_2">
     <g id="line2d_7">
      <path d="M 7.2 241.056 
L 341.28 241.056 
" clip-path="url(#p865e448766)" style="fill: none; stroke: #e6e6e6; stroke-width: 0.8; stroke-linecap: square"/>
     </g>
    </g>
    <g id="ytick_3">
     <g id="line2d_8">
      <path d="M 7.2 174.24 
L 341.28 174.24 
" clip-path="url(#p865e448766)" style="fill: none; stroke: #e6e6e6; stroke-width: 0.8; stroke-linecap: square"/>
     </g>
    </g>
    <g id="ytick_4">
     <g id="line2d_9">
      <path d="M 7.2 107.424 
L 341.28 107.424 
" clip-path="url(#p865e448766)" style="fill: none; stroke: #e6e6e6; stroke-width: 0.8; stroke-linecap: square"/>
     </g>
    </g>
    <g id="ytick_5">
     <g id="line2d_10">
      <path d="M 7.2 40.608 
L 341.28 40.608 
" clip-path="url(#p865e448766)" style="fill: none; stroke: #e6e6e6; stroke-width: 0.8; stroke-linecap: square"/>
     </g>
    </g>
   </g>
   <g id="QuadContourSet_1">
    <path clip-path="url(#p865e448766)" style="fill: none; stroke: #ff0000; stroke-opacity: 0.5; stroke-width: 0.8"/>
    <path d="M 266.282449 308.212898 
L 262.663686 307.190204 
L 259.46449 306.265992 
L 252.646531 303.836881 
L 245.828571 301.131225 
L 244.15249 300.372245 
L 239.010612 297.999071 
L 232.192653 294.637854 
L 230.169992 293.554286 
L 225.374694 290.938669 
L 218.556735 287.071447 
L 218.00751 286.736327 
L 211.738776 282.845388 
L 207.150473 279.918367 
L 204.920816 278.471046 
L 198.102857 273.87162 
L 197.008813 273.100408 
L 191.284898 268.998269 
L 187.581506 266.282449 
L 184.466939 263.959721 
L 178.573192 259.46449 
L 177.64898 258.747429 
L 170.83102 253.295336 
L 170.042276 252.646531 
L 164.013061 247.605712 
L 161.928339 245.828571 
L 157.195102 241.726433 
L 154.120588 239.010612 
L 150.377143 235.647856 
L 146.602014 232.192653 
L 143.559184 229.359673 
L 139.356842 225.374694 
L 136.741224 222.850853 
L 132.370426 218.556735 
L 129.923265 216.109574 
L 125.629147 211.738776 
L 123.105306 209.123158 
L 119.120327 204.920816 
L 116.287347 201.877986 
L 112.832144 198.102857 
L 109.469388 194.359412 
L 106.753567 191.284898 
L 102.651429 186.551661 
L 100.874288 184.466939 
L 95.833469 178.437724 
L 95.184664 177.64898 
L 89.732571 170.83102 
L 89.01551 169.906808 
L 84.520279 164.013061 
L 82.197551 160.898494 
L 79.481731 157.195102 
L 75.379592 151.471187 
L 74.60838 150.377143 
L 70.008954 143.559184 
L 68.561633 141.329527 
L 65.634612 136.741224 
L 61.743673 130.47249 
L 61.408553 129.923265 
L 57.541331 123.105306 
L 54.925714 118.310008 
L 53.842146 116.287347 
L 50.480929 109.469388 
L 48.107755 104.32751 
L 47.348775 102.651429 
L 44.643119 95.833469 
L 42.214008 89.01551 
L 41.289796 85.816314 
L 40.267102 82.197551 
L 38.871044 75.379592 
L 38.078178 68.561633 
L 38.101397 61.743673 
L 39.267135 54.925714 
L 41.289796 49.869061 
L 42.296257 48.107755 
L 48.107755 42.296257 
L 49.869061 41.289796 
L 54.925714 39.267135 
L 61.743673 38.101397 
L 68.561633 38.078178 
L 75.379592 38.871044 
L 82.197551 40.267102 
L 85.816314 41.289796 
L 89.01551 42.214008 
L 95.833469 44.643119 
L 102.651429 47.348775 
L 104.32751 48.107755 
L 109.469388 50.480929 
L 116.287347 53.842146 
L 118.310008 54.925714 
L 123.105306 57.541331 
L 129.923265 61.408553 
L 130.47249 61.743673 
L 136.741224 65.634612 
L 141.329527 68.561633 
L 143.559184 70.008954 
L 150.377143 74.60838 
L 151.471187 75.379592 
L 157.195102 79.481731 
L 160.898494 82.197551 
L 164.013061 84.520279 
L 169.906808 89.01551 
L 170.83102 89.732571 
L 177.64898 95.184664 
L 178.437724 95.833469 
L 184.466939 100.874288 
L 186.551661 102.651429 
L 191.284898 106.753567 
L 194.359412 109.469388 
L 198.102857 112.832144 
L 201.877986 116.287347 
L 204.920816 119.120327 
L 209.123158 123.105306 
L 211.738776 125.629147 
L 216.109574 129.923265 
L 218.556735 132.370426 
L 222.850853 136.741224 
L 225.374694 139.356842 
L 229.359673 143.559184 
L 232.192653 146.602014 
L 235.647856 150.377143 
L 239.010612 154.120588 
L 241.726433 157.195102 
L 245.828571 161.928339 
L 247.605712 164.013061 
L 252.646531 170.042276 
L 253.295336 170.83102 
L 258.747429 177.64898 
L 259.46449 178.573192 
L 263.959721 184.466939 
L 266.282449 187.581506 
L 268.998269 191.284898 
L 273.100408 197.008813 
L 273.87162 198.102857 
L 278.471046 204.920816 
L 279.918367 207.150473 
L 282.845388 211.738776 
L 286.736327 218.00751 
L 287.071447 218.556735 
L 290.938669 225.374694 
L 293.554286 230.169992 
L 294.637854 232.192653 
L 297.999071 239.010612 
L 300.372245 244.15249 
L 301.131225 245.828571 
L 303.836881 252.646531 
L 306.265992 259.46449 
L 307.190204 262.663686 
L 308.212898 266.282449 
L 309.608956 273.100408 
L 310.401822 279.918367 
L 310.378603 286.736327 
L 309.212865 293.554286 
L 307.190204 298.610939 
L 306.183743 300.372245 
L 300.372245 306.183743 
L 298.610939 307.190204 
L 293.554286 309.212865 
L 286.736327 310.378603 
L 279.918367 310.401822 
L 273.100408 309.608956 
L 266.282449 308.212898 
z
" clip-path="url(#p865e448766)" style="fill: none; stroke: #ff1100; stroke-opacity: 0.5; stroke-width: 0.8"/>
    <path d="M 250.101688 341.28 
L 239.010612 335.048219 
L 232.192653 330.931011 
L 225.374694 326.710873 
L 216.35916 320.826122 
L 204.920816 313.01457 
L 196.798787 307.190204 
L 184.466939 297.941318 
L 177.64898 292.654808 
L 170.250053 286.736327 
L 157.195102 275.831602 
L 146.22648 266.282449 
L 136.741224 257.722584 
L 129.923265 251.388154 
L 123.105306 244.895363 
L 116.287347 238.238198 
L 109.469388 231.410336 
L 97.091846 218.556735 
L 89.01551 209.834292 
L 78.541015 198.102857 
L 68.561633 186.460245 
L 61.269551 177.64898 
L 54.925714 169.682457 
L 45.376561 157.195102 
L 40.334489 150.377143 
L 34.471837 142.129805 
L 26.188828 129.923265 
L 20.835918 121.612173 
L 13.431781 109.469388 
L 7.2 98.378312 
M 98.378312 7.2 
L 109.469388 13.431781 
L 116.287347 17.548989 
L 123.105306 21.769127 
L 132.12084 27.653878 
L 143.559184 35.46543 
L 151.681213 41.289796 
L 164.013061 50.538682 
L 170.83102 55.825192 
L 178.229947 61.743673 
L 191.284898 72.648398 
L 202.25352 82.197551 
L 211.738776 90.757416 
L 218.556735 97.091846 
L 225.374694 103.584637 
L 232.192653 110.241802 
L 239.010612 117.069664 
L 251.388154 129.923265 
L 259.46449 138.645708 
L 269.938985 150.377143 
L 279.918367 162.019755 
L 287.210449 170.83102 
L 293.554286 178.797543 
L 303.103439 191.284898 
L 308.145511 198.102857 
L 314.008163 206.350195 
L 322.291172 218.556735 
L 327.644082 226.867827 
L 335.048219 239.010612 
L 341.28 250.101688 
L 341.28 250.101688 
" clip-path="url(#p865e448766)" style="fill: none; stroke: #ff2200; stroke-opacity: 0.5; stroke-width: 0.8"/>
    <path d="M 207.704038 341.28 
L 204.920816 339.288086 
L 198.268699 334.462041 
L 198.102857 334.340533 
L 191.284898 329.215459 
L 189.222465 327.644082 
L 184.466939 323.985984 
L 180.409832 320.826122 
L 177.64898 318.654967 
L 171.812141 314.008163 
L 170.83102 313.219419 
L 164.013061 307.653311 
L 163.455228 307.190204 
L 157.195102 301.943622 
L 155.34123 300.372245 
L 150.377143 296.124132 
L 147.407543 293.554286 
L 143.559184 290.191642 
L 139.648222 286.736327 
L 136.741224 284.142828 
L 132.057583 279.918367 
L 129.923265 277.974236 
L 124.630183 273.100408 
L 123.105306 271.682273 
L 117.360813 266.282449 
L 116.287347 265.263199 
L 110.244482 259.46449 
L 109.469388 258.713123 
L 103.276408 252.646531 
L 102.651429 252.027994 
L 96.452006 245.828571 
L 95.833469 245.203592 
L 89.766877 239.010612 
L 89.01551 238.235518 
L 83.216801 232.192653 
L 82.197551 231.119187 
L 76.797727 225.374694 
L 75.379592 223.849817 
L 70.505764 218.556735 
L 68.561633 216.422417 
L 64.337172 211.738776 
L 61.743673 208.831778 
L 58.288358 204.920816 
L 54.925714 201.072457 
L 52.355868 198.102857 
L 48.107755 193.13877 
L 46.536378 191.284898 
L 41.289796 185.024772 
L 40.826689 184.466939 
L 35.260581 177.64898 
L 34.471837 176.667859 
L 29.825033 170.83102 
L 27.653878 168.070168 
L 24.494016 164.013061 
L 20.835918 159.257535 
L 19.264541 157.195102 
L 14.139467 150.377143 
L 14.017959 150.211301 
L 9.191914 143.559184 
L 7.2 140.775962 
M 140.775962 7.2 
L 143.559184 9.191914 
L 150.211301 14.017959 
L 150.377143 14.139467 
L 157.195102 19.264541 
L 159.257535 20.835918 
L 164.013061 24.494016 
L 168.070168 27.653878 
L 170.83102 29.825033 
L 176.667859 34.471837 
L 177.64898 35.260581 
L 184.466939 40.826689 
L 185.024772 41.289796 
L 191.284898 46.536378 
L 193.13877 48.107755 
L 198.102857 52.355868 
L 201.072457 54.925714 
L 204.920816 58.288358 
L 208.831778 61.743673 
L 211.738776 64.337172 
L 216.422417 68.561633 
L 218.556735 70.505764 
L 223.849817 75.379592 
L 225.374694 76.797727 
L 231.119187 82.197551 
L 232.192653 83.216801 
L 238.235518 89.01551 
L 239.010612 89.766877 
L 245.203592 95.833469 
L 245.828571 96.452006 
L 252.027994 102.651429 
L 252.646531 103.276408 
L 258.713123 109.469388 
L 259.46449 110.244482 
L 265.263199 116.287347 
L 266.282449 117.360813 
L 271.682273 123.105306 
L 273.100408 124.630183 
L 277.974236 129.923265 
L 279.918367 132.057583 
L 284.142828 136.741224 
L 286.736327 139.648222 
L 290.191642 143.559184 
L 293.554286 147.407543 
L 296.124132 150.377143 
L 300.372245 155.34123 
L 301.943622 157.195102 
L 307.190204 163.455228 
L 307.653311 164.013061 
L 313.219419 170.83102 
L 314.008163 171.812141 
L 318.654967 177.64898 
L 320.826122 180.409832 
L 323.985984 184.466939 
L 327.644082 189.222465 
L 329.215459 191.284898 
L 334.340533 198.102857 
L 334.462041 198.268699 
L 339.288086 204.920816 
L 341.28 207.704038 
" clip-path="url(#p865e448766)" style="fill: none; stroke: #ff3300; stroke-opacity: 0.5; stroke-width: 0.8"/>
    <path d="M 178.503057 341.28 
L 177.64898 340.606871 
L 170.83102 335.152219 
L 169.980497 334.462041 
L 164.013061 329.579593 
L 161.671092 327.644082 
L 157.195102 323.91409 
L 153.52623 320.826122 
L 150.377143 318.153368 
L 145.541071 314.008163 
L 143.559184 312.295007 
L 137.710963 307.190204 
L 136.741224 306.336502 
L 130.031435 300.372245 
L 129.923265 300.275265 
L 123.105306 294.085518 
L 122.52578 293.554286 
L 116.287347 287.787667 
L 115.160234 286.736327 
L 109.469388 281.383073 
L 107.926216 279.918367 
L 102.651429 274.868998 
L 100.820233 273.100408 
L 95.833469 268.242612 
L 93.838917 266.282449 
L 89.01551 261.500985 
L 86.979015 259.46449 
L 82.197551 254.641083 
L 80.237388 252.646531 
L 75.379592 247.659767 
L 73.611002 245.828571 
L 68.561633 240.553784 
L 67.096927 239.010612 
L 61.743673 233.319766 
L 60.692333 232.192653 
L 54.925714 225.95422 
L 54.394482 225.374694 
L 48.204735 218.556735 
L 48.107755 218.448565 
L 42.143498 211.738776 
L 41.289796 210.769037 
L 36.184993 204.920816 
L 34.471837 202.938929 
L 30.326632 198.102857 
L 27.653878 194.95377 
L 24.56591 191.284898 
L 20.835918 186.808908 
L 18.900407 184.466939 
L 14.017959 178.499503 
L 13.327781 177.64898 
L 7.873129 170.83102 
L 7.2 169.976943 
M 169.976943 7.2 
L 170.83102 7.873129 
L 177.64898 13.327781 
L 178.499503 14.017959 
L 184.466939 18.900407 
L 186.808908 20.835918 
L 191.284898 24.56591 
L 194.95377 27.653878 
L 198.102857 30.326632 
L 202.938929 34.471837 
L 204.920816 36.184993 
L 210.769037 41.289796 
L 211.738776 42.143498 
L 218.448565 48.107755 
L 218.556735 48.204735 
L 225.374694 54.394482 
L 225.95422 54.925714 
L 232.192653 60.692333 
L 233.319766 61.743673 
L 239.010612 67.096927 
L 240.553784 68.561633 
L 245.828571 73.611002 
L 247.659767 75.379592 
L 252.646531 80.237388 
L 254.641083 82.197551 
L 259.46449 86.979015 
L 261.500985 89.01551 
L 266.282449 93.838917 
L 268.242612 95.833469 
L 273.100408 100.820233 
L 274.868998 102.651429 
L 279.918367 107.926216 
L 281.383073 109.469388 
L 286.736327 115.160234 
L 287.787667 116.287347 
L 293.554286 122.52578 
L 294.085518 123.105306 
L 300.275265 129.923265 
L 300.372245 130.031435 
L 306.336502 136.741224 
L 307.190204 137.710963 
L 312.295007 143.559184 
L 314.008163 145.541071 
L 318.153368 150.377143 
L 320.826122 153.52623 
L 323.91409 157.195102 
L 327.644082 161.671092 
L 329.579593 164.013061 
L 334.462041 169.980497 
L 335.152219 170.83102 
L 340.606871 177.64898 
L 341.28 178.503057 
" clip-path="url(#p865e448766)" style="fill: none; stroke: #ff4400; stroke-opacity: 0.5; stroke-width: 0.8"/>
    <path d="M 154.811833 341.28 
L 150.377143 337.540299 
L 146.75884 334.462041 
L 143.559184 331.719478 
L 138.845899 327.644082 
L 136.741224 325.810464 
L 131.069388 320.826122 
L 129.923265 319.811235 
L 123.425808 314.008163 
L 123.105306 313.719711 
L 116.287347 307.520926 
L 115.927048 307.190204 
L 109.469388 301.218082 
L 108.562159 300.372245 
L 102.651429 294.81974 
L 101.315109 293.554286 
L 95.833469 288.323714 
L 94.18309 286.736327 
L 89.01551 281.727749 
L 87.163387 279.918367 
L 82.197551 275.029521 
L 80.253367 273.100408 
L 75.379592 268.226633 
L 73.450479 266.282449 
L 68.561633 261.316613 
L 66.752251 259.46449 
L 61.743673 254.29691 
L 60.156286 252.646531 
L 54.925714 247.164891 
L 53.66026 245.828571 
L 48.107755 239.917841 
L 47.261918 239.010612 
L 41.289796 232.552952 
L 40.959074 232.192653 
L 34.760289 225.374694 
L 34.471837 225.054192 
L 28.668765 218.556735 
L 27.653878 217.410612 
L 22.669536 211.738776 
L 20.835918 209.634101 
L 16.760522 204.920816 
L 14.017959 201.72116 
L 10.939701 198.102857 
L 7.2 193.668167 
M 193.668167 7.2 
L 198.102857 10.939701 
L 201.72116 14.017959 
L 204.920816 16.760522 
L 209.634101 20.835918 
L 211.738776 22.669536 
L 217.410612 27.653878 
L 218.556735 28.668765 
L 225.054192 34.471837 
L 225.374694 34.760289 
L 232.192653 40.959074 
L 232.552952 41.289796 
L 239.010612 47.261918 
L 239.917841 48.107755 
L 245.828571 53.66026 
L 247.164891 54.925714 
L 252.646531 60.156286 
L 254.29691 61.743673 
L 259.46449 66.752251 
L 261.316613 68.561633 
L 266.282449 73.450479 
L 268.226633 75.379592 
L 273.100408 80.253367 
L 275.029521 82.197551 
L 279.918367 87.163387 
L 281.727749 89.01551 
L 286.736327 94.18309 
L 288.323714 95.833469 
L 293.554286 101.315109 
L 294.81974 102.651429 
L 300.372245 108.562159 
L 301.218082 109.469388 
L 307.190204 115.927048 
L 307.520926 116.287347 
L 313.719711 123.105306 
L 314.008163 123.425808 
L 319.811235 129.923265 
L 320.826122 131.069388 
L 325.810464 136.741224 
L 327.644082 138.845899 
L 331.719478 143.559184 
L 334.462041 146.75884 
L 337.540299 150.377143 
L 341.28 154.811833 
" clip-path="url(#p865e448766)" style="fill: none; stroke: #ff5500; stroke-opacity: 0.5; stroke-width: 0.8"/>
    <path d="M 134.309663 341.28 
L 129.923265 337.434391 
L 126.55921 334.462041 
L 123.105306 331.389257 
L 118.927995 327.644082 
L 116.287347 325.260163 
L 111.413287 320.826122 
L 109.469388 319.045348 
L 104.012438 314.008163 
L 102.651429 312.743 
L 96.72288 307.190204 
L 95.833469 306.351257 
L 89.542121 300.372245 
L 89.01551 299.868203 
L 82.467744 293.554286 
L 82.197551 293.291868 
L 75.497402 286.736327 
L 75.379592 286.620224 
L 68.628817 279.918367 
L 68.561633 279.851183 
L 61.859776 273.100408 
L 61.743673 272.982598 
L 55.188132 266.282449 
L 54.925714 266.012256 
L 48.611797 259.46449 
L 48.107755 258.937879 
L 42.128743 252.646531 
L 41.289796 251.75712 
L 35.737 245.828571 
L 34.471837 244.467562 
L 29.434652 239.010612 
L 27.653878 237.066713 
L 23.219837 232.192653 
L 20.835918 229.552005 
L 17.090743 225.374694 
L 14.017959 221.92079 
L 11.045609 218.556735 
L 7.2 214.170337 
M 214.170337 7.2 
L 218.556735 11.045609 
L 221.92079 14.017959 
L 225.374694 17.090743 
L 229.552005 20.835918 
L 232.192653 23.219837 
L 237.066713 27.653878 
L 239.010612 29.434652 
L 244.467562 34.471837 
L 245.828571 35.737 
L 251.75712 41.289796 
L 252.646531 42.128743 
L 258.937879 48.107755 
L 259.46449 48.611797 
L 266.012256 54.925714 
L 266.282449 55.188132 
L 272.982598 61.743673 
L 273.100408 61.859776 
L 279.851183 68.561633 
L 279.918367 68.628817 
L 286.620224 75.379592 
L 286.736327 75.497402 
L 293.291868 82.197551 
L 293.554286 82.467744 
L 299.868203 89.01551 
L 300.372245 89.542121 
L 306.351257 95.833469 
L 307.190204 96.72288 
L 312.743 102.651429 
L 314.008163 104.012438 
L 319.045348 109.469388 
L 320.826122 111.413287 
L 325.260163 116.287347 
L 327.644082 118.927995 
L 331.389257 123.105306 
L 334.462041 126.55921 
L 337.434391 129.923265 
L 341.28 134.309663 
" clip-path="url(#p865e448766)" style="fill: none; stroke: #ff6600; stroke-opacity: 0.5; stroke-width: 0.8"/>
    <path d="M 115.963136 341.28 
L 109.469388 335.402747 
L 108.437224 334.462041 
L 102.651429 329.155324 
L 101.015118 327.644082 
L 95.833469 322.827805 
L 93.694685 320.826122 
L 89.01551 316.418642 
L 86.473849 314.008163 
L 82.197551 309.926242 
L 79.350592 307.190204 
L 75.379592 303.348975 
L 72.32295 300.372245 
L 68.561633 296.685164 
L 65.389009 293.554286 
L 61.743673 289.933091 
L 58.546909 286.736327 
L 54.925714 283.090991 
L 51.794836 279.918367 
L 48.107755 276.15705 
L 45.131025 273.100408 
L 41.289796 269.129408 
L 38.553758 266.282449 
L 34.471837 262.006151 
L 32.061358 259.46449 
L 27.653878 254.785315 
L 25.652195 252.646531 
L 20.835918 247.464882 
L 19.324676 245.828571 
L 14.017959 240.042776 
L 13.077253 239.010612 
L 7.2 232.516864 
M 232.516864 7.2 
L 239.010612 13.077253 
L 240.042776 14.017959 
L 245.828571 19.324676 
L 247.464882 20.835918 
L 252.646531 25.652195 
L 254.785315 27.653878 
L 259.46449 32.061358 
L 262.006151 34.471837 
L 266.282449 38.553758 
L 269.129408 41.289796 
L 273.100408 45.131025 
L 276.15705 48.107755 
L 279.918367 51.794836 
L 283.090991 54.925714 
L 286.736327 58.546909 
L 289.933091 61.743673 
L 293.554286 65.389009 
L 296.685164 68.561633 
L 300.372245 72.32295 
L 303.348975 75.379592 
L 307.190204 79.350592 
L 309.926242 82.197551 
L 314.008163 86.473849 
L 316.418642 89.01551 
L 320.826122 93.694685 
L 322.827805 95.833469 
L 327.644082 101.015118 
L 329.155324 102.651429 
L 334.462041 108.437224 
L 335.402747 109.469388 
L 341.28 115.963136 
" clip-path="url(#p865e448766)" style="fill: none; stroke: #ff7700; stroke-opacity: 0.5; stroke-width: 0.8"/>
    <path d="M 99.266958 341.28 
L 95.833469 338.115399 
L 91.895434 334.462041 
L 89.01551 331.774112 
L 84.619026 327.644082 
L 82.197551 325.355492 
L 77.435906 320.826122 
L 75.379592 318.858116 
L 70.34429 314.008163 
L 68.561633 312.280526 
L 63.342442 307.190204 
L 61.743673 305.621227 
L 56.428667 300.372245 
L 54.925714 298.878686 
L 49.601314 293.554286 
L 48.107755 292.051333 
L 42.858773 286.736327 
L 41.289796 285.137558 
L 36.199474 279.918367 
L 34.471837 278.13571 
L 29.621884 273.100408 
L 27.653878 271.044094 
L 23.124508 266.282449 
L 20.835918 263.860974 
L 16.705888 259.46449 
L 14.017959 256.584566 
L 10.364601 252.646531 
L 7.2 249.213042 
M 249.213042 7.2 
L 252.646531 10.364601 
L 256.584566 14.017959 
L 259.46449 16.705888 
L 263.860974 20.835918 
L 266.282449 23.124508 
L 271.044094 27.653878 
L 273.100408 29.621884 
L 278.13571 34.471837 
L 279.918367 36.199474 
L 285.137558 41.289796 
L 286.736327 42.858773 
L 292.051333 48.107755 
L 293.554286 49.601314 
L 298.878686 54.925714 
L 300.372245 56.428667 
L 305.621227 61.743673 
L 307.190204 63.342442 
L 312.280526 68.561633 
L 314.008163 70.34429 
L 318.858116 75.379592 
L 320.826122 77.435906 
L 325.355492 82.197551 
L 327.644082 84.619026 
L 331.774112 89.01551 
L 334.462041 91.895434 
L 338.115399 95.833469 
L 341.28 99.266958 
" clip-path="url(#p865e448766)" style="fill: none; stroke: #ff8800; stroke-opacity: 0.5; stroke-width: 0.8"/>
    <path d="M 83.782831 341.28 
L 82.197551 339.794939 
L 76.539476 334.462041 
L 75.379592 333.362497 
L 69.38392 327.644082 
L 68.561633 326.85526 
L 62.314575 320.826122 
L 61.743673 320.271914 
L 55.329893 314.008163 
L 54.925714 313.611117 
L 48.428362 307.190204 
L 48.107755 306.871495 
L 41.608505 300.372245 
L 41.289796 300.051638 
L 34.868883 293.554286 
L 34.471837 293.150107 
L 28.208086 286.736327 
L 27.653878 286.165425 
L 21.62474 279.918367 
L 20.835918 279.09608 
L 15.117503 273.100408 
L 14.017959 271.940524 
L 8.685061 266.282449 
L 7.2 264.697169 
M 264.697169 7.2 
L 266.282449 8.685061 
L 271.940524 14.017959 
L 273.100408 15.117503 
L 279.09608 20.835918 
L 279.918367 21.62474 
L 286.165425 27.653878 
L 286.736327 28.208086 
L 293.150107 34.471837 
L 293.554286 34.868883 
L 300.051638 41.289796 
L 300.372245 41.608505 
L 306.871495 48.107755 
L 307.190204 48.428362 
L 313.611117 54.925714 
L 314.008163 55.329893 
L 320.271914 61.743673 
L 320.826122 62.314575 
L 326.85526 68.561633 
L 327.644082 69.38392 
L 333.362497 75.379592 
L 334.462041 76.539476 
L 339.794939 82.197551 
L 341.28 83.782831 
" clip-path="url(#p865e448766)" style="fill: none; stroke: #ff9900; stroke-opacity: 0.5; stroke-width: 0.8"/>
    <path d="M 69.300573 341.28 
L 68.561633 340.5776 
L 62.164898 334.462041 
L 61.743673 334.057107 
L 55.110773 327.644082 
L 54.925714 327.464163 
L 48.136809 320.826122 
L 48.107755 320.797556 
L 41.289796 314.054734 
L 41.242969 314.008163 
L 34.471837 307.237031 
L 34.425266 307.190204 
L 27.682444 300.372245 
L 27.653878 300.343191 
L 21.015837 293.554286 
L 20.835918 293.369227 
L 14.422893 286.736327 
L 14.017959 286.315102 
L 7.9024 279.918367 
L 7.2 279.179427 
M 279.179427 7.2 
L 279.918367 7.9024 
L 286.315102 14.017959 
L 286.736327 14.422893 
L 293.369227 20.835918 
L 293.554286 21.015837 
L 300.343191 27.653878 
L 300.372245 27.682444 
L 307.190204 34.425266 
L 307.237031 34.471837 
L 314.008163 41.242969 
L 314.054734 41.289796 
L 320.797556 48.107755 
L 320.826122 48.136809 
L 327.464163 54.925714 
L 327.644082 55.110773 
L 334.057107 61.743673 
L 334.462041 62.164898 
L 340.5776 68.561633 
L 341.28 69.300573 
" clip-path="url(#p865e448766)" style="fill: none; stroke: #ffaa00; stroke-opacity: 0.5; stroke-width: 0.8"/>
    <path d="M 55.655944 341.28 
L 54.925714 340.576674 
L 48.611691 334.462041 
L 48.107755 333.971436 
L 41.643593 327.644082 
L 41.289796 327.295931 
L 34.75042 320.826122 
L 34.471837 320.549029 
L 27.930971 314.008163 
L 27.653878 313.72958 
L 21.184069 307.190204 
L 20.835918 306.836407 
L 14.508564 300.372245 
L 14.017959 299.868309 
L 7.903326 293.554286 
L 7.2 292.824056 
M 292.824056 7.2 
L 293.554286 7.903326 
L 299.868309 14.017959 
L 300.372245 14.508564 
L 306.836407 20.835918 
L 307.190204 21.184069 
L 313.72958 27.653878 
L 314.008163 27.930971 
L 320.549029 34.471837 
L 320.826122 34.75042 
L 327.295931 41.289796 
L 327.644082 41.643593 
L 333.971436 48.107755 
L 334.462041 48.611691 
L 340.576674 54.925714 
L 341.28 55.655944 
" clip-path="url(#p865e448766)" style="fill: none; stroke: #ffbb00; stroke-opacity: 0.5; stroke-width: 0.8"/>
    <path d="M 42.718741 341.28 
L 41.289796 339.887139 
L 35.75284 334.462041 
L 34.471837 333.200545 
L 28.858384 327.644082 
L 27.653878 326.445721 
L 22.034279 320.826122 
L 20.835918 319.621616 
L 15.279455 314.008163 
L 14.017959 312.72716 
L 8.592861 307.190204 
L 7.2 305.761259 
M 305.761259 7.2 
L 307.190204 8.592861 
L 312.72716 14.017959 
L 314.008163 15.279455 
L 319.621616 20.835918 
L 320.826122 22.034279 
L 326.445721 27.653878 
L 327.644082 28.858384 
L 333.200545 34.471837 
L 334.462041 35.75284 
L 339.887139 41.289796 
L 341.28 42.718741 
" clip-path="url(#p865e448766)" style="fill: none; stroke: #ffcc00; stroke-opacity: 0.5; stroke-width: 0.8"/>
    <path d="M 30.38442 341.28 
L 27.653878 338.589223 
L 23.486233 334.462041 
L 20.835918 331.824655 
L 16.655345 327.644082 
L 14.017959 324.993767 
L 9.890777 320.826122 
L 7.2 318.09558 
M 318.09558 7.2 
L 320.826122 9.890777 
L 324.993767 14.017959 
L 327.644082 16.655345 
L 331.824655 20.835918 
L 334.462041 23.486233 
L 338.589223 27.653878 
L 341.28 30.38442 
" clip-path="url(#p865e448766)" style="fill: none; stroke: #ffdd00; stroke-opacity: 0.5; stroke-width: 0.8"/>
    <path d="M 18.568067 341.28 
L 14.017959 336.751155 
L 11.728845 334.462041 
L 7.2 329.911933 
M 329.911933 7.2 
L 334.462041 11.728845 
L 336.751155 14.017959 
L 341.28 18.568067 
" clip-path="url(#p865e448766)" style="fill: none; stroke: #ffee00; stroke-opacity: 0.5; stroke-width: 0.8"/>
    <path clip-path="url(#p865e448766)" style="fill: none; stroke: #ffff00; stroke-opacity: 0.5; stroke-width: 0.8"/>
   </g>
   <g id="Quiver_1">
    <path d="M 174.24 173.4048 
L 266.9472 173.4048 
L 266.112 171.7344 
L 274.464 174.24 
L 266.112 176.7456 
L 266.9472 175.0752 
L 174.24 175.0752 
L 174.24 173.4048 
" clip-path="url(#p865e448766)" style="fill: #800000"/>
   </g>
   <g id="Quiver_2">
    <path d="M 174.892182 173.718255 
L 232.80591 246.110416 
L 233.588528 244.414743 
L 236.849436 252.501796 
L 229.675439 247.545215 
L 231.501547 247.153906 
L 173.587818 174.761745 
L 174.892182 173.718255 
" clip-path="url(#p865e448766)" style="fill: #000080"/>
   </g>
   <g id="patch_3">
    <path d="M 7.2 341.28 
L 7.2 7.2 
" style="fill: none; stroke: #000000; stroke-width: 0.7; stroke-linejoin: miter; stroke-linecap: square"/>
   </g>
   <g id="patch_4">
    <path d="M 341.28 341.28 
L 341.28 7.2 
" style="fill: none; stroke: #000000; stroke-width: 0.7; stroke-linejoin: miter; stroke-linecap: square"/>
   </g>
   <g id="patch_5">
    <path d="M 7.2 341.28 
L 341.28 341.28 
" style="fill: none; stroke: #000000; stroke-width: 0.7; stroke-linejoin: miter; stroke-linecap: square"/>
   </g>
   <g id="patch_6">
    <path d="M 7.2 7.2 
L 341.28 7.2 
" style="fill: none; stroke: #000000; stroke-width: 0.7; stroke-linejoin: miter; stroke-linecap: square"/>
   </g>
  </g>
 </g>
 <defs>
  <clipPath id="p865e448766">
   <rect x="7.2" y="7.2" width="334.08" height="334.08"/>
  </clipPath>
 </defs>
</svg>
