<?xml version="1.0" encoding="utf-8" standalone="no"?>
<!DOCTYPE svg PUBLIC "-//W3C//DTD SVG 1.1//EN"
  "http://www.w3.org/Graphics/SVG/1.1/DTD/svg11.dtd">
<svg xmlns:xlink="http://www.w3.org/1999/xlink" width="676.74pt" height="372.306562pt" viewBox="0 0 676.74 372.306562" xmlns="http://www.w3.org/2000/svg" version="1.1">
 <metadata>
  <rdf:RDF xmlns:dc="http://purl.org/dc/elements/1.1/" xmlns:cc="http://creativecommons.org/ns#" xmlns:rdf="http://www.w3.org/1999/02/22-rdf-syntax-ns#">
   <cc:Work>
    <dc:type rdf:resource="http://purl.org/dc/dcmitype/StillImage"/>
    <dc:date>2024-11-12T17:14:25.237094</dc:date>
    <dc:format>image/svg+xml</dc:format>
    <dc:creator>
     <cc:Agent>
      <dc:title>Matplotlib v3.8.4, https://matplotlib.org/</dc:title>
     </cc:Agent>
    </dc:creator>
   </cc:Work>
  </rdf:RDF>
 </metadata>
 <defs>
  <style type="text/css">*{stroke-linejoin: round; stroke-linecap: butt}</style>
 </defs>
 <g id="figure_1">
  <g id="patch_1">
   <path d="M 0 372.306562 
L 676.74 372.306562 
L 676.74 0 
L 0 0 
z
" style="fill: #ffffff"/>
  </g>
  <g id="axes_1">
   <g id="patch_2">
    <path d="M 58.953125 330.879062 
L 659.998125 330.879062 
L 659.998125 11.759062 
L 58.953125 11.759062 
z
" style="fill: #ffffff"/>
   </g>
   <g id="matplotlib.axis_1">
    <g id="xtick_1">
     <g id="line2d_1">
      <path d="M 58.953125 330.879062 
L 58.953125 11.759062 
" clip-path="url(#pf0c3d92690)" style="fill: none; stroke: #e6e6e6; stroke-width: 0.8; stroke-linecap: square"/>
     </g>
     <g id="line2d_2">
      <defs>
       <path id="m8bb1aba939" d="M 0 0 
L 0 3.5 
" style="stroke: #000000; stroke-width: 0.8"/>
      </defs>
      <g>
       <use xlink:href="#m8bb1aba939" x="58.953125" y="330.879062" style="stroke: #000000; stroke-width: 0.8"/>
      </g>
     </g>
     <g id="text_1">
      <!-- −0.5 -->
      <g transform="translate(44.383437 346.997187) scale(0.12 -0.12)">
       <defs>
        <path id="DejaVuSans-2212" d="M 678 2272 
L 4684 2272 
L 4684 1741 
L 678 1741 
L 678 2272 
z
" transform="scale(0.015625)"/>
        <path id="DejaVuSans-30" d="M 2034 4250 
Q 1547 4250 1301 3770 
Q 1056 3291 1056 2328 
Q 1056 1369 1301 889 
Q 1547 409 2034 409 
Q 2525 409 2770 889 
Q 3016 1369 3016 2328 
Q 3016 3291 2770 3770 
Q 2525 4250 2034 4250 
z
M 2034 4750 
Q 2819 4750 3233 4129 
Q 3647 3509 3647 2328 
Q 3647 1150 3233 529 
Q 2819 -91 2034 -91 
Q 1250 -91 836 529 
Q 422 1150 422 2328 
Q 422 3509 836 4129 
Q 1250 4750 2034 4750 
z
" transform="scale(0.015625)"/>
        <path id="DejaVuSans-2e" d="M 684 794 
L 1344 794 
L 1344 0 
L 684 0 
L 684 794 
z
" transform="scale(0.015625)"/>
        <path id="DejaVuSans-35" d="M 691 4666 
L 3169 4666 
L 3169 4134 
L 1269 4134 
L 1269 2991 
Q 1406 3038 1543 3061 
Q 1681 3084 1819 3084 
Q 2600 3084 3056 2656 
Q 3513 2228 3513 1497 
Q 3513 744 3044 326 
Q 2575 -91 1722 -91 
Q 1428 -91 1123 -41 
Q 819 9 494 109 
L 494 744 
Q 775 591 1075 516 
Q 1375 441 1709 441 
Q 2250 441 2565 725 
Q 2881 1009 2881 1497 
Q 2881 1984 2565 2268 
Q 2250 2553 1709 2553 
Q 1456 2553 1204 2497 
Q 953 2441 691 2322 
L 691 4666 
z
" transform="scale(0.015625)"/>
       </defs>
       <use xlink:href="#DejaVuSans-2212"/>
       <use xlink:href="#DejaVuSans-30" x="83.789062"/>
       <use xlink:href="#DejaVuSans-2e" x="147.412109"/>
       <use xlink:href="#DejaVuSans-35" x="179.199219"/>
      </g>
     </g>
    </g>
    <g id="xtick_2">
     <g id="line2d_3">
      <path d="M 159.127292 330.879062 
L 159.127292 11.759062 
" clip-path="url(#pf0c3d92690)" style="fill: none; stroke: #e6e6e6; stroke-width: 0.8; stroke-linecap: square"/>
     </g>
     <g id="line2d_4">
      <g>
       <use xlink:href="#m8bb1aba939" x="159.127292" y="330.879062" style="stroke: #000000; stroke-width: 0.8"/>
      </g>
     </g>
     <g id="text_2">
      <!-- 0.0 -->
      <g transform="translate(149.585417 346.997187) scale(0.12 -0.12)">
       <use xlink:href="#DejaVuSans-30"/>
       <use xlink:href="#DejaVuSans-2e" x="63.623047"/>
       <use xlink:href="#DejaVuSans-30" x="95.410156"/>
      </g>
     </g>
    </g>
    <g id="xtick_3">
     <g id="line2d_5">
      <path d="M 259.301458 330.879062 
L 259.301458 11.759062 
" clip-path="url(#pf0c3d92690)" style="fill: none; stroke: #e6e6e6; stroke-width: 0.8; stroke-linecap: square"/>
     </g>
     <g id="line2d_6">
      <g>
       <use xlink:href="#m8bb1aba939" x="259.301458" y="330.879062" style="stroke: #000000; stroke-width: 0.8"/>
      </g>
     </g>
     <g id="text_3">
      <!-- 0.5 -->
      <g transform="translate(249.759583 346.997187) scale(0.12 -0.12)">
       <use xlink:href="#DejaVuSans-30"/>
       <use xlink:href="#DejaVuSans-2e" x="63.623047"/>
       <use xlink:href="#DejaVuSans-35" x="95.410156"/>
      </g>
     </g>
    </g>
    <g id="xtick_4">
     <g id="line2d_7">
      <path d="M 359.475625 330.879062 
L 359.475625 11.759062 
" clip-path="url(#pf0c3d92690)" style="fill: none; stroke: #e6e6e6; stroke-width: 0.8; stroke-linecap: square"/>
     </g>
     <g id="line2d_8">
      <g>
       <use xlink:href="#m8bb1aba939" x="359.475625" y="330.879062" style="stroke: #000000; stroke-width: 0.8"/>
      </g>
     </g>
     <g id="text_4">
      <!-- 1.0 -->
      <g transform="translate(349.93375 346.997187) scale(0.12 -0.12)">
       <defs>
        <path id="DejaVuSans-31" d="M 794 531 
L 1825 531 
L 1825 4091 
L 703 3866 
L 703 4441 
L 1819 4666 
L 2450 4666 
L 2450 531 
L 3481 531 
L 3481 0 
L 794 0 
L 794 531 
z
" transform="scale(0.015625)"/>
       </defs>
       <use xlink:href="#DejaVuSans-31"/>
       <use xlink:href="#DejaVuSans-2e" x="63.623047"/>
       <use xlink:href="#DejaVuSans-30" x="95.410156"/>
      </g>
     </g>
    </g>
    <g id="xtick_5">
     <g id="line2d_9">
      <path d="M 459.649792 330.879062 
L 459.649792 11.759062 
" clip-path="url(#pf0c3d92690)" style="fill: none; stroke: #e6e6e6; stroke-width: 0.8; stroke-linecap: square"/>
     </g>
     <g id="line2d_10">
      <g>
       <use xlink:href="#m8bb1aba939" x="459.649792" y="330.879062" style="stroke: #000000; stroke-width: 0.8"/>
      </g>
     </g>
     <g id="text_5">
      <!-- 1.5 -->
      <g transform="translate(450.107917 346.997187) scale(0.12 -0.12)">
       <use xlink:href="#DejaVuSans-31"/>
       <use xlink:href="#DejaVuSans-2e" x="63.623047"/>
       <use xlink:href="#DejaVuSans-35" x="95.410156"/>
      </g>
     </g>
    </g>
    <g id="xtick_6">
     <g id="line2d_11">
      <path d="M 559.823958 330.879062 
L 559.823958 11.759062 
" clip-path="url(#pf0c3d92690)" style="fill: none; stroke: #e6e6e6; stroke-width: 0.8; stroke-linecap: square"/>
     </g>
     <g id="line2d_12">
      <g>
       <use xlink:href="#m8bb1aba939" x="559.823958" y="330.879062" style="stroke: #000000; stroke-width: 0.8"/>
      </g>
     </g>
     <g id="text_6">
      <!-- 2.0 -->
      <g transform="translate(550.282083 346.997187) scale(0.12 -0.12)">
       <defs>
        <path id="DejaVuSans-32" d="M 1228 531 
L 3431 531 
L 3431 0 
L 469 0 
L 469 531 
Q 828 903 1448 1529 
Q 2069 2156 2228 2338 
Q 2531 2678 2651 2914 
Q 2772 3150 2772 3378 
Q 2772 3750 2511 3984 
Q 2250 4219 1831 4219 
Q 1534 4219 1204 4116 
Q 875 4013 500 3803 
L 500 4441 
Q 881 4594 1212 4672 
Q 1544 4750 1819 4750 
Q 2544 4750 2975 4387 
Q 3406 4025 3406 3419 
Q 3406 3131 3298 2873 
Q 3191 2616 2906 2266 
Q 2828 2175 2409 1742 
Q 1991 1309 1228 531 
z
" transform="scale(0.015625)"/>
       </defs>
       <use xlink:href="#DejaVuSans-32"/>
       <use xlink:href="#DejaVuSans-2e" x="63.623047"/>
       <use xlink:href="#DejaVuSans-30" x="95.410156"/>
      </g>
     </g>
    </g>
    <g id="xtick_7">
     <g id="line2d_13">
      <path d="M 659.998125 330.879062 
L 659.998125 11.759062 
" clip-path="url(#pf0c3d92690)" style="fill: none; stroke: #e6e6e6; stroke-width: 0.8; stroke-linecap: square"/>
     </g>
     <g id="line2d_14">
      <g>
       <use xlink:href="#m8bb1aba939" x="659.998125" y="330.879062" style="stroke: #000000; stroke-width: 0.8"/>
      </g>
     </g>
     <g id="text_7">
      <!-- 2.5 -->
      <g transform="translate(650.45625 346.997187) scale(0.12 -0.12)">
       <use xlink:href="#DejaVuSans-32"/>
       <use xlink:href="#DejaVuSans-2e" x="63.623047"/>
       <use xlink:href="#DejaVuSans-35" x="95.410156"/>
      </g>
     </g>
    </g>
    <g id="text_8">
     <!-- $\beta_0$ -->
     <g transform="translate(353.595625 362.610937) scale(0.12 -0.12)">
      <defs>
       <path id="Cmmi10-af" d="M 172 -1241 
Q 153 -1241 137 -1219 
Q 122 -1197 122 -1178 
L 1106 2778 
Q 1191 3097 1353 3397 
Q 1516 3697 1761 3955 
Q 2006 4213 2300 4363 
Q 2594 4513 2925 4513 
Q 3163 4513 3355 4408 
Q 3547 4303 3658 4114 
Q 3769 3925 3769 3688 
Q 3769 3459 3681 3251 
Q 3594 3044 3437 2864 
Q 3281 2684 3103 2572 
Q 3206 2506 3287 2404 
Q 3369 2303 3419 2192 
Q 3469 2081 3497 1945 
Q 3525 1809 3525 1691 
Q 3525 1363 3384 1044 
Q 3244 725 3001 465 
Q 2759 206 2446 54 
Q 2134 -97 1806 -97 
Q 1447 -97 1159 100 
Q 872 297 763 634 
L 300 -1203 
Q 300 -1241 250 -1241 
L 172 -1241 
z
M 1819 78 
Q 2106 78 2339 267 
Q 2572 456 2723 742 
Q 2875 1028 2954 1348 
Q 3034 1669 3034 1931 
Q 3034 2256 2847 2444 
Q 2628 2363 2419 2363 
Q 1913 2363 1913 2534 
Q 1913 2759 2491 2759 
Q 2697 2759 2869 2694 
Q 3006 2800 3118 3006 
Q 3231 3213 3289 3438 
Q 3347 3663 3347 3859 
Q 3347 4069 3236 4208 
Q 3125 4347 2913 4347 
Q 2522 4347 2186 4106 
Q 1850 3866 1619 3498 
Q 1388 3131 1288 2741 
L 934 1325 
Q 900 1178 891 997 
Q 891 597 1153 337 
Q 1416 78 1819 78 
z
M 2106 2553 
Q 2203 2528 2425 2528 
Q 2534 2528 2644 2566 
Q 2638 2572 2619 2572 
Q 2550 2591 2472 2591 
Q 2181 2591 2106 2553 
z
" transform="scale(0.015625)"/>
       <path id="Cmr10-30" d="M 1600 -141 
Q 816 -141 533 504 
Q 250 1150 250 2041 
Q 250 2597 351 3087 
Q 453 3578 754 3920 
Q 1056 4263 1600 4263 
Q 2022 4263 2290 4056 
Q 2559 3850 2700 3523 
Q 2841 3197 2892 2823 
Q 2944 2450 2944 2041 
Q 2944 1491 2842 1011 
Q 2741 531 2444 195 
Q 2147 -141 1600 -141 
z
M 1600 25 
Q 1956 25 2131 390 
Q 2306 756 2347 1200 
Q 2388 1644 2388 2144 
Q 2388 2625 2347 3031 
Q 2306 3438 2132 3767 
Q 1959 4097 1600 4097 
Q 1238 4097 1063 3765 
Q 888 3434 847 3029 
Q 806 2625 806 2144 
Q 806 1788 823 1472 
Q 841 1156 916 820 
Q 991 484 1158 254 
Q 1325 25 1600 25 
z
" transform="scale(0.015625)"/>
      </defs>
      <use xlink:href="#Cmmi10-af" transform="translate(0 0.484375)"/>
      <use xlink:href="#Cmr10-30" transform="translate(56.494141 -16.521875) scale(0.7)"/>
     </g>
    </g>
   </g>
   <g id="matplotlib.axis_2">
    <g id="ytick_1">
     <g id="line2d_15">
      <path d="M 58.953125 330.879062 
L 659.998125 330.879062 
" clip-path="url(#pf0c3d92690)" style="fill: none; stroke: #e6e6e6; stroke-width: 0.8; stroke-linecap: square"/>
     </g>
     <g id="line2d_16">
      <defs>
       <path id="m9de64b99d0" d="M 0 0 
L -3.5 0 
" style="stroke: #000000; stroke-width: 0.8"/>
      </defs>
      <g>
       <use xlink:href="#m9de64b99d0" x="58.953125" y="330.879062" style="stroke: #000000; stroke-width: 0.8"/>
      </g>
     </g>
     <g id="text_9">
      <!-- −2.5 -->
      <g transform="translate(22.81375 335.438125) scale(0.12 -0.12)">
       <use xlink:href="#DejaVuSans-2212"/>
       <use xlink:href="#DejaVuSans-32" x="83.789062"/>
       <use xlink:href="#DejaVuSans-2e" x="147.412109"/>
       <use xlink:href="#DejaVuSans-35" x="179.199219"/>
      </g>
     </g>
    </g>
    <g id="ytick_2">
     <g id="line2d_17">
      <path d="M 58.953125 277.692396 
L 659.998125 277.692396 
" clip-path="url(#pf0c3d92690)" style="fill: none; stroke: #e6e6e6; stroke-width: 0.8; stroke-linecap: square"/>
     </g>
     <g id="line2d_18">
      <g>
       <use xlink:href="#m9de64b99d0" x="58.953125" y="277.692396" style="stroke: #000000; stroke-width: 0.8"/>
      </g>
     </g>
     <g id="text_10">
      <!-- −2.0 -->
      <g transform="translate(22.81375 282.251458) scale(0.12 -0.12)">
       <use xlink:href="#DejaVuSans-2212"/>
       <use xlink:href="#DejaVuSans-32" x="83.789062"/>
       <use xlink:href="#DejaVuSans-2e" x="147.412109"/>
       <use xlink:href="#DejaVuSans-30" x="179.199219"/>
      </g>
     </g>
    </g>
    <g id="ytick_3">
     <g id="line2d_19">
      <path d="M 58.953125 224.505729 
L 659.998125 224.505729 
" clip-path="url(#pf0c3d92690)" style="fill: none; stroke: #e6e6e6; stroke-width: 0.8; stroke-linecap: square"/>
     </g>
     <g id="line2d_20">
      <g>
       <use xlink:href="#m9de64b99d0" x="58.953125" y="224.505729" style="stroke: #000000; stroke-width: 0.8"/>
      </g>
     </g>
     <g id="text_11">
      <!-- −1.5 -->
      <g transform="translate(22.81375 229.064792) scale(0.12 -0.12)">
       <use xlink:href="#DejaVuSans-2212"/>
       <use xlink:href="#DejaVuSans-31" x="83.789062"/>
       <use xlink:href="#DejaVuSans-2e" x="147.412109"/>
       <use xlink:href="#DejaVuSans-35" x="179.199219"/>
      </g>
     </g>
    </g>
    <g id="ytick_4">
     <g id="line2d_21">
      <path d="M 58.953125 171.319062 
L 659.998125 171.319062 
" clip-path="url(#pf0c3d92690)" style="fill: none; stroke: #e6e6e6; stroke-width: 0.8; stroke-linecap: square"/>
     </g>
     <g id="line2d_22">
      <g>
       <use xlink:href="#m9de64b99d0" x="58.953125" y="171.319062" style="stroke: #000000; stroke-width: 0.8"/>
      </g>
     </g>
     <g id="text_12">
      <!-- −1.0 -->
      <g transform="translate(22.81375 175.878125) scale(0.12 -0.12)">
       <use xlink:href="#DejaVuSans-2212"/>
       <use xlink:href="#DejaVuSans-31" x="83.789062"/>
       <use xlink:href="#DejaVuSans-2e" x="147.412109"/>
       <use xlink:href="#DejaVuSans-30" x="179.199219"/>
      </g>
     </g>
    </g>
    <g id="ytick_5">
     <g id="line2d_23">
      <path d="M 58.953125 118.132396 
L 659.998125 118.132396 
" clip-path="url(#pf0c3d92690)" style="fill: none; stroke: #e6e6e6; stroke-width: 0.8; stroke-linecap: square"/>
     </g>
     <g id="line2d_24">
      <g>
       <use xlink:href="#m9de64b99d0" x="58.953125" y="118.132396" style="stroke: #000000; stroke-width: 0.8"/>
      </g>
     </g>
     <g id="text_13">
      <!-- −0.5 -->
      <g transform="translate(22.81375 122.691458) scale(0.12 -0.12)">
       <use xlink:href="#DejaVuSans-2212"/>
       <use xlink:href="#DejaVuSans-30" x="83.789062"/>
       <use xlink:href="#DejaVuSans-2e" x="147.412109"/>
       <use xlink:href="#DejaVuSans-35" x="179.199219"/>
      </g>
     </g>
    </g>
    <g id="ytick_6">
     <g id="line2d_25">
      <path d="M 58.953125 64.945729 
L 659.998125 64.945729 
" clip-path="url(#pf0c3d92690)" style="fill: none; stroke: #e6e6e6; stroke-width: 0.8; stroke-linecap: square"/>
     </g>
     <g id="line2d_26">
      <g>
       <use xlink:href="#m9de64b99d0" x="58.953125" y="64.945729" style="stroke: #000000; stroke-width: 0.8"/>
      </g>
     </g>
     <g id="text_14">
      <!-- 0.0 -->
      <g transform="translate(32.869375 69.504792) scale(0.12 -0.12)">
       <use xlink:href="#DejaVuSans-30"/>
       <use xlink:href="#DejaVuSans-2e" x="63.623047"/>
       <use xlink:href="#DejaVuSans-30" x="95.410156"/>
      </g>
     </g>
    </g>
    <g id="ytick_7">
     <g id="line2d_27">
      <path d="M 58.953125 11.759062 
L 659.998125 11.759062 
" clip-path="url(#pf0c3d92690)" style="fill: none; stroke: #e6e6e6; stroke-width: 0.8; stroke-linecap: square"/>
     </g>
     <g id="line2d_28">
      <g>
       <use xlink:href="#m9de64b99d0" x="58.953125" y="11.759062" style="stroke: #000000; stroke-width: 0.8"/>
      </g>
     </g>
     <g id="text_15">
      <!-- 0.5 -->
      <g transform="translate(32.869375 16.318125) scale(0.12 -0.12)">
       <use xlink:href="#DejaVuSans-30"/>
       <use xlink:href="#DejaVuSans-2e" x="63.623047"/>
       <use xlink:href="#DejaVuSans-35" x="95.410156"/>
      </g>
     </g>
    </g>
    <g id="text_16">
     <!-- $\beta_1$ -->
     <g transform="translate(16.318125 177.199062) rotate(-90) scale(0.12 -0.12)">
      <defs>
       <path id="Cmr10-31" d="M 594 0 
L 594 225 
Q 1394 225 1394 428 
L 1394 3788 
Q 1063 3628 556 3628 
L 556 3853 
Q 1341 3853 1741 4263 
L 1831 4263 
Q 1853 4263 1873 4245 
Q 1894 4228 1894 4206 
L 1894 428 
Q 1894 225 2694 225 
L 2694 0 
L 594 0 
z
" transform="scale(0.015625)"/>
      </defs>
      <use xlink:href="#Cmmi10-af" transform="translate(0 0.484375)"/>
      <use xlink:href="#Cmr10-31" transform="translate(56.494141 -16.521875) scale(0.7)"/>
     </g>
    </g>
   </g>
   <g id="PathCollection_1">
    <defs>
     <path id="m81516143f1" d="M 0 1.118034 
C 0.296506 1.118034 0.580908 1.000231 0.790569 0.790569 
C 1.000231 0.580908 1.118034 0.296506 1.118034 0 
C 1.118034 -0.296506 1.000231 -0.580908 0.790569 -0.790569 
C 0.580908 -1.000231 0.296506 -1.118034 0 -1.118034 
C -0.296506 -1.118034 -0.580908 -1.000231 -0.790569 -0.790569 
C -1.000231 -0.580908 -1.118034 -0.296506 -1.118034 0 
C -1.118034 0.296506 -1.000231 0.580908 -0.790569 0.790569 
C -0.580908 1.000231 -0.296506 1.118034 0 1.118034 
z
" style="stroke: #000080"/>
    </defs>
    <g clip-path="url(#pf0c3d92690)">
     <use xlink:href="#m81516143f1" x="159.127292" y="64.945729" style="fill: #000080; stroke: #000080"/>
     <use xlink:href="#m81516143f1" x="383.193404" y="26.164155" style="fill: #000080; stroke: #000080"/>
     <use xlink:href="#m81516143f1" x="347.383611" y="58.334172" style="fill: #000080; stroke: #000080"/>
     <use xlink:href="#m81516143f1" x="377.088482" y="70.708089" style="fill: #000080; stroke: #000080"/>
     <use xlink:href="#m81516143f1" x="388.514202" y="86.785042" style="fill: #000080; stroke: #000080"/>
     <use xlink:href="#m81516143f1" x="403.359199" y="100.601261" style="fill: #000080; stroke: #000080"/>
     <use xlink:href="#m81516143f1" x="416.116699" y="113.782895" style="fill: #000080; stroke: #000080"/>
     <use xlink:href="#m81516143f1" x="428.288242" y="125.993202" style="fill: #000080; stroke: #000080"/>
     <use xlink:href="#m81516143f1" x="439.562888" y="137.395931" style="fill: #000080; stroke: #000080"/>
     <use xlink:href="#m81516143f1" x="450.091841" y="148.020578" style="fill: #000080; stroke: #000080"/>
     <use xlink:href="#m81516143f1" x="459.902335" y="157.926393" style="fill: #000080; stroke: #000080"/>
     <use xlink:href="#m81516143f1" x="469.04908" y="167.160421" style="fill: #000080; stroke: #000080"/>
     <use xlink:href="#m81516143f1" x="477.575517" y="175.768632" style="fill: #000080; stroke: #000080"/>
     <use xlink:href="#m81516143f1" x="485.524092" y="183.793332" style="fill: #000080; stroke: #000080"/>
     <use xlink:href="#m81516143f1" x="492.93387" y="191.274102" style="fill: #000080; stroke: #000080"/>
     <use xlink:href="#m81516143f1" x="499.841398" y="198.247805" style="fill: #000080; stroke: #000080"/>
     <use xlink:href="#m81516143f1" x="506.280715" y="204.748812" style="fill: #000080; stroke: #000080"/>
     <use xlink:href="#m81516143f1" x="512.283559" y="210.809163" style="fill: #000080; stroke: #000080"/>
     <use xlink:href="#m81516143f1" x="517.879513" y="216.458728" style="fill: #000080; stroke: #000080"/>
     <use xlink:href="#m81516143f1" x="523.096159" y="221.725351" style="fill: #000080; stroke: #000080"/>
     <use xlink:href="#m81516143f1" x="527.959207" y="226.634987" style="fill: #000080; stroke: #000080"/>
     <use xlink:href="#m81516143f1" x="532.492625" y="231.211836" style="fill: #000080; stroke: #000080"/>
     <use xlink:href="#m81516143f1" x="536.718755" y="235.478453" style="fill: #000080; stroke: #000080"/>
     <use xlink:href="#m81516143f1" x="540.658428" y="239.455868" style="fill: #000080; stroke: #000080"/>
     <use xlink:href="#m81516143f1" x="544.331059" y="243.163684" style="fill: #000080; stroke: #000080"/>
     <use xlink:href="#m81516143f1" x="547.754749" y="246.620174" style="fill: #000080; stroke: #000080"/>
     <use xlink:href="#m81516143f1" x="550.946372" y="249.842373" style="fill: #000080; stroke: #000080"/>
     <use xlink:href="#m81516143f1" x="553.921659" y="252.846164" style="fill: #000080; stroke: #000080"/>
     <use xlink:href="#m81516143f1" x="556.695273" y="255.646349" style="fill: #000080; stroke: #000080"/>
     <use xlink:href="#m81516143f1" x="559.280884" y="258.256731" style="fill: #000080; stroke: #000080"/>
     <use xlink:href="#m81516143f1" x="561.691235" y="260.690174" style="fill: #000080; stroke: #000080"/>
     <use xlink:href="#m81516143f1" x="563.938207" y="262.958672" style="fill: #000080; stroke: #000080"/>
     <use xlink:href="#m81516143f1" x="566.032873" y="265.073405" style="fill: #000080; stroke: #000080"/>
     <use xlink:href="#m81516143f1" x="567.985557" y="267.044796" style="fill: #000080; stroke: #000080"/>
     <use xlink:href="#m81516143f1" x="569.805882" y="268.88256" style="fill: #000080; stroke: #000080"/>
     <use xlink:href="#m81516143f1" x="571.502821" y="270.595757" style="fill: #000080; stroke: #000080"/>
     <use xlink:href="#m81516143f1" x="573.084738" y="272.192828" style="fill: #000080; stroke: #000080"/>
     <use xlink:href="#m81516143f1" x="574.559427" y="273.681645" style="fill: #000080; stroke: #000080"/>
     <use xlink:href="#m81516143f1" x="575.934159" y="275.069547" style="fill: #000080; stroke: #000080"/>
     <use xlink:href="#m81516143f1" x="577.215707" y="276.363373" style="fill: #000080; stroke: #000080"/>
     <use xlink:href="#m81516143f1" x="578.410389" y="277.5695" style="fill: #000080; stroke: #000080"/>
     <use xlink:href="#m81516143f1" x="579.524092" y="278.693872" style="fill: #000080; stroke: #000080"/>
     <use xlink:href="#m81516143f1" x="580.562305" y="279.742032" style="fill: #000080; stroke: #000080"/>
     <use xlink:href="#m81516143f1" x="581.530146" y="280.719144" style="fill: #000080; stroke: #000080"/>
     <use xlink:href="#m81516143f1" x="582.432383" y="281.630025" style="fill: #000080; stroke: #000080"/>
     <use xlink:href="#m81516143f1" x="583.273465" y="282.479165" style="fill: #000080; stroke: #000080"/>
     <use xlink:href="#m81516143f1" x="584.057536" y="283.270747" style="fill: #000080; stroke: #000080"/>
     <use xlink:href="#m81516143f1" x="584.78846" y="284.008674" style="fill: #000080; stroke: #000080"/>
     <use xlink:href="#m81516143f1" x="585.46984" y="284.696582" style="fill: #000080; stroke: #000080"/>
     <use xlink:href="#m81516143f1" x="586.105035" y="285.337862" style="fill: #000080; stroke: #000080"/>
    </g>
   </g>
   <g id="QuadContourSet_1">
    <path d="M 593.215347 292.240634 
L 593.198856 292.19785 
L 593.215347 292.179928 
L 593.229955 292.19785 
L 593.215347 292.240634 
" clip-path="url(#pf0c3d92690)" style="fill: none; stroke: #3b4cc0; stroke-opacity: 0.9"/>
    <path d="M 611.428832 318.019288 
L 611.372289 317.985325 
L 605.35767 314.799053 
L 605.306325 314.761891 
L 600.688501 311.538456 
L 599.286509 310.687103 
L 596.416761 308.315022 
L 593.215347 305.980318 
L 592.252254 305.091588 
L 588.651983 301.868153 
L 587.144186 300.612938 
L 585.271771 298.644719 
L 581.978441 295.421285 
L 581.073024 294.54615 
L 579.144919 292.19785 
L 576.363908 288.974416 
L 575.001862 287.411114 
L 573.85165 285.750982 
L 571.777412 282.527547 
L 569.665402 279.304113 
L 568.930701 277.932611 
L 568.189177 276.080679 
L 567.54013 272.857244 
L 568.182546 269.63381 
L 568.930701 268.881083 
L 575.001862 269.118846 
L 576.048291 269.63381 
L 581.073024 271.768027 
L 582.749295 272.857244 
L 587.144186 275.369097 
L 588.068939 276.080679 
L 592.613597 279.304113 
L 593.215347 279.69909 
L 596.426818 282.527547 
L 599.286509 284.743703 
L 600.322403 285.750982 
L 603.714731 288.974416 
L 605.35767 290.431057 
L 606.948974 292.19785 
L 609.963339 295.421285 
L 611.428832 296.934423 
L 612.754124 298.644719 
L 615.202145 301.868153 
L 617.499994 304.697511 
L 617.756544 305.091588 
L 619.459543 308.315022 
L 620.969294 311.538456 
L 622.02706 314.761891 
L 621.539885 317.985325 
L 617.499994 319.748365 
L 611.428832 318.019288 
z
" clip-path="url(#pf0c3d92690)" style="fill: none; stroke: #3b4cc0; stroke-opacity: 0.9"/>
    <path d="M 615.08441 330.879062 
L 611.428832 328.810015 
L 609.752462 327.655628 
L 605.35767 324.839364 
L 604.818323 324.432194 
L 600.416323 321.208759 
L 599.286509 320.426752 
L 596.289341 317.985325 
L 593.215347 315.654878 
L 592.191342 314.761891 
L 588.396072 311.538456 
L 587.144186 310.514544 
L 584.804552 308.315022 
L 581.127682 305.091588 
L 581.073024 305.043103 
L 577.956797 301.868153 
L 575.001862 299.081006 
L 574.592293 298.644719 
L 571.640121 295.421285 
L 568.930701 292.652121 
L 568.53692 292.19785 
L 565.84672 288.974416 
L 562.967096 285.750982 
L 562.859539 285.624114 
L 560.568946 282.527547 
L 558.094692 279.304113 
L 556.788378 277.577723 
L 555.799297 276.080679 
L 553.796541 272.857244 
L 551.798099 269.63381 
L 550.717216 267.745033 
L 550.06318 266.410376 
L 548.771973 263.186941 
L 547.757644 259.963507 
L 547.216267 256.740073 
L 547.586253 253.516638 
L 550.090179 250.293204 
L 550.717216 249.939041 
L 556.788378 249.84893 
L 558.196735 250.293204 
L 562.859539 251.620429 
L 567.118666 253.516638 
L 568.930701 254.251584 
L 573.439874 256.740073 
L 575.001862 257.531648 
L 578.795112 259.963507 
L 581.073024 261.313557 
L 583.686383 263.186941 
L 587.144186 265.491563 
L 588.319203 266.410376 
L 592.650852 269.63381 
L 593.215347 270.040461 
L 596.551387 272.857244 
L 599.286509 275.004689 
L 600.481504 276.080679 
L 604.165748 279.304113 
L 605.35767 280.314457 
L 607.635871 282.527547 
L 611.172574 285.750982 
L 611.428832 285.986769 
L 614.264188 288.974416 
L 617.499994 292.127743 
L 617.56384 292.19785 
L 620.374067 295.421285 
L 623.403642 298.644719 
L 623.571155 298.830006 
L 625.972975 301.868153 
L 628.647349 305.091588 
L 629.642317 306.313603 
L 631.068234 308.315022 
L 633.322462 311.538456 
L 635.652038 314.761891 
L 635.713479 314.857571 
L 637.438193 317.985325 
L 639.132326 321.208759 
L 640.70631 324.432194 
L 641.78464 327.072413 
L 641.984139 327.655628 
L 642.581162 330.879062 
" clip-path="url(#pf0c3d92690)" style="fill: none; stroke: #3b4cc0; stroke-opacity: 0.9"/>
    <path d="M 591.437857 330.879062 
L 587.480492 327.655628 
L 587.144186 327.383198 
L 583.792676 324.432194 
L 581.073024 322.135932 
L 580.056234 321.208759 
L 576.481383 317.985325 
L 575.001862 316.679874 
L 572.988684 314.761891 
L 569.500933 311.538456 
L 568.930701 311.011736 
L 566.226238 308.315022 
L 562.859539 305.101539 
L 562.849829 305.091588 
L 559.766326 301.868153 
L 556.788378 298.893348 
L 556.556515 298.644719 
L 553.606406 295.421285 
L 550.717216 292.394989 
L 550.541852 292.19785 
L 547.743965 288.974416 
L 544.827954 285.750982 
L 544.646054 285.544917 
L 542.176519 282.527547 
L 539.457324 279.304113 
L 538.574893 278.245418 
L 536.901611 276.080679 
L 534.400026 272.857244 
L 532.503731 270.440291 
L 531.916811 269.63381 
L 529.653262 266.410376 
L 527.349662 263.186941 
L 526.432569 261.865986 
L 525.214268 259.963507 
L 523.210544 256.740073 
L 521.208995 253.516638 
L 520.361408 252.076945 
L 519.399076 250.293204 
L 517.776412 247.06977 
L 516.229158 243.846335 
L 514.781292 240.622901 
L 514.290246 239.331827 
L 513.628246 237.399467 
L 512.763095 234.176032 
L 512.169564 230.952598 
L 511.956669 227.729164 
L 512.300768 224.505729 
L 513.507075 221.282295 
L 514.290246 220.187637 
L 517.714491 218.05886 
L 520.361408 217.144781 
L 526.432569 217.068838 
L 531.81176 218.05886 
L 532.503731 218.177796 
L 538.574893 220.111569 
L 541.412726 221.282295 
L 544.646054 222.546353 
L 548.753804 224.505729 
L 550.717216 225.39568 
L 555.078576 227.729164 
L 556.788378 228.600619 
L 560.791228 230.952598 
L 562.859539 232.112905 
L 566.106708 234.176032 
L 568.930701 235.892626 
L 571.14987 237.399467 
L 575.001862 239.906497 
L 575.998198 240.622901 
L 580.626431 243.846335 
L 581.073024 244.150497 
L 584.954243 247.06977 
L 587.144186 248.648667 
L 589.228221 250.293204 
L 593.215347 253.314269 
L 593.461201 253.516638 
L 597.388012 256.740073 
L 599.286509 258.241752 
L 601.29075 259.963507 
L 605.185303 263.186941 
L 605.35767 263.329502 
L 608.788432 266.410376 
L 611.428832 268.683392 
L 612.45203 269.63381 
L 615.957245 272.857244 
L 617.499994 274.245499 
L 619.3905 276.080679 
L 622.80015 279.304113 
L 623.571155 280.030622 
L 626.028074 282.527547 
L 629.320074 285.750982 
L 629.642317 286.069559 
L 632.367258 288.974416 
L 635.519908 292.19785 
L 635.713479 292.399054 
L 638.410529 295.421285 
L 641.402509 298.644719 
L 641.78464 299.063302 
L 644.160337 301.868153 
L 646.970701 305.091588 
L 647.855802 306.115943 
L 649.619107 308.315022 
L 652.227272 311.538456 
L 653.926963 313.622718 
L 654.789235 314.761891 
L 657.17498 317.985325 
L 659.619965 321.208759 
L 659.998125 321.727893 
" clip-path="url(#pf0c3d92690)" style="fill: none; stroke: #3d50c3; stroke-opacity: 0.9"/>
    <path d="M 560.904427 330.879062 
L 554.003609 324.432194 
L 550.56267 321.208759 
L 537.536956 308.315022 
L 526.432569 296.756183 
L 514.290246 283.356313 
L 505.370901 272.857244 
L 500.099676 266.410376 
L 495.004952 259.963507 
L 487.792775 250.293204 
L 483.198837 243.846335 
L 476.803701 234.176032 
L 470.968707 224.505729 
L 465.720953 214.710867 
L 462.874412 208.388557 
L 460.259972 201.941689 
L 459.163562 198.718254 
L 458.261944 195.49482 
L 457.510603 192.271386 
L 456.942132 189.047951 
L 456.599282 185.824517 
L 456.539258 182.601083 
L 456.840384 179.377648 
L 457.612851 176.154214 
L 459.016752 172.93078 
L 459.649792 171.954919 
L 461.872866 169.707345 
L 465.720953 167.192546 
L 468.002537 166.483911 
L 471.792115 165.61438 
L 477.863277 165.420387 
L 483.934438 166.058246 
L 490.0056 167.320966 
L 496.076761 169.030021 
L 502.147923 171.121677 
L 508.219085 173.50522 
L 514.292178 176.154214 
L 520.964223 179.377648 
L 527.199465 182.601083 
L 533.097474 185.824517 
L 538.729691 189.047951 
L 549.211308 195.49482 
L 550.717216 196.422186 
L 563.839114 205.165123 
L 572.93158 211.611992 
L 577.337917 214.835426 
L 581.70368 218.05886 
L 594.160008 227.729164 
L 606.00045 237.399467 
L 617.499994 247.247923 
L 631.511215 259.963507 
L 638.334668 266.410376 
L 641.78464 269.67449 
L 654.629117 282.527547 
L 659.998125 288.102779 
L 659.998125 288.102779 
" clip-path="url(#pf0c3d92690)" style="fill: none; stroke: #4257c9; stroke-opacity: 0.9"/>
    <path d="M 535.927482 330.879062 
L 529.27421 324.432194 
L 522.75708 317.985325 
L 516.375576 311.538456 
L 510.129185 305.091588 
L 504.017395 298.644719 
L 498.039697 292.19785 
L 492.195585 285.750982 
L 486.484556 279.304113 
L 480.906109 272.857244 
L 475.459745 266.410376 
L 470.144968 259.963507 
L 462.459879 250.293204 
L 457.507692 243.846335 
L 452.689574 237.399467 
L 445.8067 227.729164 
L 439.29299 218.05886 
L 435.131175 211.611992 
L 429.293984 201.907862 
L 423.222822 190.738776 
L 420.82049 185.824517 
L 417.15166 177.800959 
L 415.228033 172.93078 
L 412.96034 166.483911 
L 411.063765 160.037042 
L 410.369599 156.813608 
L 409.813492 153.590174 
L 409.418264 150.366739 
L 409.212055 147.143305 
L 409.229976 143.919871 
L 409.516407 140.696436 
L 410.128275 137.473002 
L 411.150711 134.249568 
L 412.966299 131.026133 
L 415.623022 127.802699 
L 417.15166 126.418068 
L 420.198142 124.579265 
L 423.222822 123.187361 
L 429.293984 121.737845 
L 435.613764 121.35583 
L 441.436307 121.679722 
L 447.507468 122.554801 
L 453.57863 123.831796 
L 459.649792 125.463131 
L 466.869595 127.802699 
L 471.792115 129.569815 
L 477.863277 131.971136 
L 483.934438 134.569086 
L 490.241405 137.473002 
L 496.798966 140.696436 
L 503.035939 143.919871 
L 509.009384 147.143305 
L 514.763579 150.366739 
L 520.361408 153.607985 
L 532.503731 161.035747 
L 545.826356 169.707345 
L 555.265098 176.154214 
L 559.841974 179.377648 
L 568.930701 185.878835 
L 581.744792 195.49482 
L 594.109901 205.165123 
L 606.013718 214.835426 
L 617.505643 224.505729 
L 635.771963 240.622901 
L 653.052219 256.740073 
L 659.998125 263.438498 
L 659.998125 263.438498 
" clip-path="url(#pf0c3d92690)" style="fill: none; stroke: #485fd1; stroke-opacity: 0.9"/>
    <path d="M 485.008233 330.879062 
L 477.863277 323.694776 
L 459.649792 304.833155 
L 441.992237 285.750982 
L 435.365145 278.374639 
L 422.095004 263.186941 
L 411.080499 250.164668 
L 398.098162 234.176032 
L 386.795852 219.663151 
L 378.382246 208.388557 
L 371.39889 198.718254 
L 366.8689 192.271386 
L 360.295551 182.601083 
L 353.981519 172.93078 
L 347.94436 163.260477 
L 342.203253 153.590174 
L 336.779191 143.919871 
L 331.695197 134.249568 
L 327.026222 124.579265 
L 324.159453 118.132396 
L 320.204129 108.462093 
L 319.032185 105.238658 
L 316.866771 98.79179 
L 314.944222 92.344921 
L 313.941913 88.490454 
L 312.720446 82.674618 
L 311.745786 76.227749 
L 311.429675 73.004315 
L 311.245417 69.780881 
L 311.208971 66.557446 
L 311.338978 63.334012 
L 311.657352 60.110578 
L 312.190034 56.887143 
L 312.967951 53.663709 
L 314.038214 50.440275 
L 315.595699 47.21684 
L 317.607069 43.993406 
L 320.18899 40.769972 
L 323.975635 37.546537 
L 326.084236 36.079986 
L 329.496193 34.323103 
L 332.155398 33.168776 
L 338.226559 31.426784 
L 344.297721 30.513924 
L 350.368883 30.205185 
L 356.440044 30.367611 
L 363.753494 31.099669 
L 368.582367 31.805638 
L 374.653529 32.976244 
L 380.724691 34.376361 
L 386.795852 36.023048 
L 392.867014 37.844252 
L 401.454109 40.769972 
L 405.009337 42.034851 
L 411.080499 44.35164 
L 418.075306 47.21684 
L 425.488553 50.440275 
L 432.548728 53.663709 
L 439.308154 56.887143 
L 445.809304 60.110578 
L 452.08701 63.334012 
L 458.170113 66.557446 
L 465.720953 70.671042 
L 477.863277 77.595628 
L 491.700024 85.898052 
L 502.147923 92.395652 
L 516.919155 102.015224 
L 526.548306 108.462093 
L 540.44996 118.132396 
L 550.717216 125.46023 
L 568.930701 138.943022 
L 587.904492 153.590174 
L 600.023951 163.260477 
L 615.708364 176.154214 
L 623.571155 182.745391 
L 642.059325 198.718254 
L 659.998125 214.780994 
L 659.998125 214.780994 
" clip-path="url(#pf0c3d92690)" style="fill: none; stroke: #5a78e4; stroke-opacity: 0.9"/>
    <path d="M 426.937719 330.879062 
L 414.448717 317.985325 
L 405.009337 308.087014 
L 386.795852 288.490841 
L 368.582367 268.245205 
L 352.959469 250.293204 
L 344.297721 240.121343 
L 328.731215 221.282295 
L 320.013074 210.457218 
L 307.870751 194.944711 
L 295.728428 178.888187 
L 283.586105 162.197696 
L 273.081011 147.143305 
L 266.55077 137.473002 
L 260.20962 127.802699 
L 254.06677 118.132396 
L 248.132039 108.462093 
L 242.415903 98.79179 
L 238.736028 92.344921 
L 233.400547 82.674618 
L 228.311885 73.004315 
L 222.874489 62.020228 
L 219.012612 53.663709 
L 216.165141 47.21684 
L 212.217035 37.546537 
L 209.777709 31.099669 
L 206.48144 21.429366 
L 204.50244 14.982497 
L 203.623867 11.759062 
M 464.538715 11.759062 
L 471.792115 16.385869 
L 490.0056 28.33909 
L 508.26574 40.769972 
L 526.564404 53.663709 
L 544.646054 66.817229 
L 562.859539 80.47732 
L 582.379719 95.568355 
L 598.622196 108.462093 
L 606.586971 114.908961 
L 623.571155 128.892381 
L 645.098514 147.143305 
L 656.251254 156.813608 
L 659.998125 160.077547 
L 659.998125 160.077547 
" clip-path="url(#pf0c3d92690)" style="fill: none; stroke: #7da0f9; stroke-opacity: 0.9"/>
    <path d="M 344.362509 330.879062 
L 332.042461 317.985325 
L 310.921988 295.421285 
L 299.087005 282.527547 
L 287.427777 269.63381 
L 273.101722 253.516638 
L 261.845755 240.622901 
L 250.765982 227.729164 
L 239.861963 214.835426 
L 223.85549 195.49482 
L 213.425506 182.601083 
L 203.173481 169.707345 
L 190.637128 153.590174 
L 178.408342 137.473002 
L 166.496485 121.35583 
L 154.9113 105.238658 
L 143.662934 89.121487 
L 131.807064 71.535544 
L 122.280688 56.887143 
L 114.140652 43.993406 
L 107.522418 33.175183 
L 98.698022 18.205931 
L 94.996783 11.759062 
M 573.156191 11.759062 
L 587.144186 22.757602 
L 611.428832 42.263518 
L 635.713479 62.273647 
L 659.998125 82.788965 
L 659.998125 82.788965 
" clip-path="url(#pf0c3d92690)" style="fill: none; stroke: #c1d4f4; stroke-opacity: 0.9"/>
    <path d="M 280.889159 330.879062 
L 277.80367 327.655628 
L 277.514943 327.353437 
L 274.748653 324.432194 
L 271.680803 321.208759 
L 271.443782 320.959208 
L 268.64431 317.985325 
L 265.594399 314.761891 
L 265.37262 314.526989 
L 262.576094 311.538456 
L 259.544421 308.315022 
L 259.301458 308.056134 
L 256.543968 305.091588 
L 253.530831 301.868153 
L 253.230297 301.545982 
L 250.547895 298.644719 
L 247.553592 295.421285 
L 247.159135 294.995856 
L 244.587838 292.19785 
L 241.612666 288.974416 
L 241.087973 288.405064 
L 238.663762 285.750982 
L 235.708017 282.527547 
L 235.016812 281.772896 
L 232.775629 279.304113 
L 229.839607 276.080679 
L 228.94565 275.098629 
L 226.923403 272.857244 
L 224.007399 269.63381 
L 222.874489 268.38152 
L 221.107047 266.410376 
L 218.211355 263.186941 
L 216.803327 261.62081 
L 215.326525 259.963507 
L 212.45144 256.740073 
L 210.732165 254.81572 
L 209.581801 253.516638 
L 206.727615 250.293204 
L 204.661004 247.965455 
L 203.872837 247.06977 
L 201.039845 243.846335 
L 198.589842 241.069199 
L 198.199599 240.622901 
L 195.388091 237.399467 
L 192.562815 234.176032 
L 192.518681 234.125498 
L 189.772318 230.952598 
L 186.969199 227.729164 
L 186.447519 227.127946 
L 184.192488 224.505729 
L 181.411823 221.282295 
L 180.376357 220.081144 
L 178.648564 218.05886 
L 175.890647 214.835426 
L 174.305196 212.984167 
L 173.140511 211.611992 
L 170.405637 208.388557 
L 168.234034 205.83607 
L 167.668291 205.165123 
L 164.956753 201.941689 
L 162.233094 198.718254 
L 162.162872 198.634817 
L 159.543959 195.49482 
L 156.844345 192.271386 
L 156.091711 191.371028 
L 154.167218 189.047951 
L 151.491947 185.824517 
L 150.020549 184.052289 
L 148.826493 182.601083 
L 146.175861 179.377648 
L 143.949388 176.677525 
L 143.521746 176.154214 
L 140.89605 172.93078 
L 138.259651 169.707345 
L 137.878226 169.239409 
L 135.652476 166.483911 
L 133.041755 163.260477 
L 131.807064 161.735058 
L 130.445101 160.037042 
L 127.860357 156.813608 
L 125.735903 154.170275 
L 125.273888 153.590174 
L 122.715421 150.366739 
L 120.147356 147.143305 
L 119.664741 146.535472 
L 117.606907 143.919871 
L 115.065891 140.696436 
L 113.59358 138.828597 
L 112.534779 137.473002 
L 110.021113 134.249568 
L 107.522418 131.05634 
L 107.498997 131.026133 
L 105.012984 127.802699 
L 102.518591 124.579265 
L 101.451256 123.197654 
L 100.041465 121.35583 
L 97.575528 118.132396 
L 95.380095 115.269072 
L 95.106518 114.908961 
L 92.669343 111.685527 
L 90.224595 108.462093 
L 89.308933 107.251788 
L 87.799996 105.238658 
L 85.38484 102.015224 
L 83.237771 99.155238 
L 82.967447 98.79179 
L 80.582193 95.568355 
L 78.190246 92.344921 
L 77.16661 90.962218 
L 75.816615 89.121487 
L 73.455428 85.898052 
L 71.095448 82.684763 
L 71.088067 82.674618 
L 68.757953 79.451184 
L 66.422098 76.227749 
L 65.024287 74.296541 
L 64.09778 73.004315 
L 61.793887 69.780881 
L 59.484685 66.557446 
L 58.953125 65.811889 
M 646.00501 11.759062 
L 647.855802 13.299769 
L 649.857266 14.982497 
L 653.708537 18.205931 
L 653.926963 18.388733 
L 657.524352 21.429366 
L 659.998125 23.509736 
" clip-path="url(#pf0c3d92690)" style="fill: none; stroke: #f2cab5; stroke-opacity: 0.9"/>
    <path d="M 180.092213 330.879062 
L 177.047841 327.655628 
L 174.305196 324.762736 
L 173.993968 324.432194 
L 170.963446 321.208759 
L 168.234034 318.316545 
L 167.923601 317.985325 
L 164.907106 314.761891 
L 162.162872 311.8405 
L 161.881089 311.538456 
L 158.878799 308.315022 
L 156.091711 305.33421 
L 155.86641 305.091588 
L 152.878503 301.868153 
L 150.020549 298.797275 
L 149.879543 298.644719 
L 146.906195 295.421285 
L 143.949388 292.229288 
L 143.920466 292.19785 
L 140.961854 288.974416 
L 137.990666 285.750982 
L 137.878226 285.628735 
L 135.045456 282.527547 
L 132.089383 279.304113 
L 131.807064 278.995708 
L 129.156981 276.080679 
L 126.2162 272.857244 
L 125.735903 272.330052 
L 123.296406 269.63381 
L 120.371096 266.410376 
L 119.664741 265.631324 
L 117.46371 263.186941 
L 114.554046 259.963507 
L 113.59358 258.899071 
L 111.658869 256.740073 
L 108.765031 253.516638 
L 107.522418 252.132829 
L 105.881862 250.293204 
L 103.004026 247.06977 
L 101.451256 245.332131 
L 100.132668 243.846335 
L 97.27101 240.622901 
L 95.380095 238.496496 
L 94.411264 237.399467 
L 91.565961 234.176032 
L 89.308933 231.625438 
L 88.717628 230.952598 
L 85.888857 227.729164 
L 83.237771 224.71846 
L 83.051738 224.505729 
L 80.239674 221.282295 
L 77.416948 218.05886 
L 77.16661 217.772333 
L 74.618392 214.835426 
L 71.812777 211.611992 
L 71.095448 210.786833 
L 69.024988 208.388557 
L 66.236662 205.165123 
L 65.024287 203.763454 
L 63.45944 201.941689 
L 60.688581 198.718254 
L 58.953125 196.701649 
" clip-path="url(#pf0c3d92690)" style="fill: none; stroke: #b40426; stroke-opacity: 0.9"/>
   </g>
   <g id="patch_3">
    <path d="M 58.953125 330.879062 
L 58.953125 11.759062 
" style="fill: none; stroke: #000000; stroke-width: 0.7; stroke-linejoin: miter; stroke-linecap: square"/>
   </g>
   <g id="patch_4">
    <path d="M 659.998125 330.879062 
L 659.998125 11.759062 
" style="fill: none; stroke: #000000; stroke-width: 0.7; stroke-linejoin: miter; stroke-linecap: square"/>
   </g>
   <g id="patch_5">
    <path d="M 58.953125 330.879062 
L 659.998125 330.879062 
" style="fill: none; stroke: #000000; stroke-width: 0.7; stroke-linejoin: miter; stroke-linecap: square"/>
   </g>
   <g id="patch_6">
    <path d="M 58.953125 11.759062 
L 659.998125 11.759062 
" style="fill: none; stroke: #000000; stroke-width: 0.7; stroke-linejoin: miter; stroke-linecap: square"/>
   </g>
   <g id="patch_7">
    <path d="M 161.100042 64.604284 
Q 271.162254 45.554612 380.67364 26.600278 
" style="fill: none; stroke: #000080; stroke-width: 0.5; stroke-linecap: round"/>
    <path d="M 376.39115 25.311759 
L 380.67364 26.600278 
L 377.073331 29.253159 
" style="fill: none; stroke: #000080; stroke-width: 0.5; stroke-linecap: round"/>
   </g>
   <g id="patch_8">
    <path d="M 381.704972 27.5013 
Q 365.288996 42.248725 349.288874 56.622564 
" style="fill: none; stroke: #000080; stroke-width: 0.5; stroke-linecap: round"/>
    <path d="M 353.601058 55.437208 
L 349.288874 56.622564 
L 350.9279 52.461603 
" style="fill: none; stroke: #000080; stroke-width: 0.5; stroke-linecap: round"/>
   </g>
   <g id="patch_9">
    <path d="M 349.229287 59.103011 
Q 362.235573 64.520933 374.725823 69.723896 
" style="fill: none; stroke: #000080; stroke-width: 0.5; stroke-linecap: round"/>
    <path d="M 371.802444 66.339541 
L 374.725823 69.723896 
L 370.264312 70.031986 
" style="fill: none; stroke: #000080; stroke-width: 0.5; stroke-linecap: round"/>
   </g>
   <g id="patch_10">
    <path d="M 378.246117 72.33698 
Q 382.799822 78.744427 387.029691 84.69621 
" style="fill: none; stroke: #000080; stroke-width: 0.5; stroke-linecap: round"/>
    <path d="M 386.342745 80.277149 
L 387.029691 84.69621 
L 383.082274 82.59433 
" style="fill: none; stroke: #000080; stroke-width: 0.5; stroke-linecap: round"/>
   </g>
   <g id="patch_11">
    <path d="M 389.974781 88.144401 
Q 395.933396 93.690076 401.482801 98.8549 
" style="fill: none; stroke: #000080; stroke-width: 0.5; stroke-linecap: round"/>
    <path d="M 399.917308 94.665719 
L 401.482801 98.8549 
L 397.192161 97.593786 
" style="fill: none; stroke: #000080; stroke-width: 0.5; stroke-linecap: round"/>
   </g>
   <g id="patch_12">
    <path d="M 404.751435 102.039784 
Q 409.738999 107.193164 414.337793 111.944849 
" style="fill: none; stroke: #000080; stroke-width: 0.5; stroke-linecap: round"/>
    <path d="M 412.993132 107.679654 
L 414.337793 111.944849 
L 410.118841 110.461462 
" style="fill: none; stroke: #000080; stroke-width: 0.5; stroke-linecap: round"/>
   </g>
   <g id="patch_13">
    <path d="M 417.528194 115.198885 
Q 422.202878 119.888457 426.482906 124.182116 
" style="fill: none; stroke: #000080; stroke-width: 0.5; stroke-linecap: round"/>
    <path d="M 425.075439 119.937232 
L 426.482906 124.182116 
L 422.242519 122.761159 
" style="fill: none; stroke: #000080; stroke-width: 0.5; stroke-linecap: round"/>
   </g>
   <g id="patch_14">
    <path d="M 429.69482 127.415759 
Q 433.926573 131.695586 437.765281 135.577902 
" style="fill: none; stroke: #000080; stroke-width: 0.5; stroke-linecap: round"/>
    <path d="M 436.375052 131.327342 
L 437.765281 135.577902 
L 433.530695 134.139749 
" style="fill: none; stroke: #000080; stroke-width: 0.5; stroke-linecap: round"/>
   </g>
   <g id="patch_15">
    <path d="M 440.968976 138.814798 
Q 444.82548 142.706353 448.288492 146.200839 
" style="fill: none; stroke: #000080; stroke-width: 0.5; stroke-linecap: round"/>
    <path d="M 446.893485 141.951844 
L 448.288492 146.200839 
L 444.052292 144.767447 
" style="fill: none; stroke: #000080; stroke-width: 0.5; stroke-linecap: round"/>
   </g>
   <g id="patch_16">
    <path d="M 451.497788 149.440186 
Q 454.997289 152.973688 458.103421 156.11 
" style="fill: none; stroke: #000080; stroke-width: 0.5; stroke-linecap: round"/>
    <path d="M 456.709735 151.860572 
L 458.103421 156.11 
L 453.867667 154.675291 
" style="fill: none; stroke: #000080; stroke-width: 0.5; stroke-linecap: round"/>
   </g>
   <g id="patch_17">
    <path d="M 461.311416 159.34892 
Q 464.476567 162.544274 467.248314 165.342471 
" style="fill: none; stroke: #000080; stroke-width: 0.5; stroke-linecap: round"/>
    <path d="M 465.854263 161.093163 
L 467.248314 165.342471 
L 463.012437 163.908127 
" style="fill: none; stroke: #000080; stroke-width: 0.5; stroke-linecap: round"/>
   </g>
   <g id="patch_18">
    <path d="M 470.458357 168.583214 
Q 473.313214 171.465451 475.774677 173.950521 
" style="fill: none; stroke: #000080; stroke-width: 0.5; stroke-linecap: round"/>
    <path d="M 474.380727 169.701179 
L 475.774677 173.950521 
L 471.538834 172.516076 
" style="fill: none; stroke: #000080; stroke-width: 0.5; stroke-linecap: round"/>
   </g>
   <g id="patch_19">
    <path d="M 478.982431 177.189019 
Q 481.548947 179.780115 483.722066 181.974048 
" style="fill: none; stroke: #000080; stroke-width: 0.5; stroke-linecap: round"/>
    <path d="M 482.328088 177.724715 
L 483.722066 181.974048 
L 479.486213 180.539631 
" style="fill: none; stroke: #000080; stroke-width: 0.5; stroke-linecap: round"/>
   </g>
   <g id="patch_20">
    <path d="M 486.933324 185.216066 
Q 489.228943 187.533679 491.131166 189.454127 
" style="fill: none; stroke: #000080; stroke-width: 0.5; stroke-linecap: round"/>
    <path d="M 489.737196 185.204792 
L 491.131166 189.454127 
L 486.895316 188.019703 
" style="fill: none; stroke: #000080; stroke-width: 0.5; stroke-linecap: round"/>
   </g>
   <g id="patch_21">
    <path d="M 494.340334 192.694041 
Q 496.38846 194.761788 498.04319 196.43237 
" style="fill: none; stroke: #000080; stroke-width: 0.5; stroke-linecap: round"/>
    <path d="M 496.649217 192.183035 
L 498.04319 196.43237 
L 493.807339 194.997947 
" style="fill: none; stroke: #000080; stroke-width: 0.5; stroke-linecap: round"/>
   </g>
   <g id="patch_22">
    <path d="M 501.246855 199.666726 
Q 503.059585 201.496823 504.47892 202.929755 
" style="fill: none; stroke: #000080; stroke-width: 0.5; stroke-linecap: round"/>
    <path d="M 503.084948 198.680421 
L 504.47892 202.929755 
L 500.243069 201.495332 
" style="fill: none; stroke: #000080; stroke-width: 0.5; stroke-linecap: round"/>
   </g>
   <g id="patch_23">
    <path d="M 507.690563 206.172166 
Q 509.283982 207.780851 510.484006 208.992371 
" style="fill: none; stroke: #000080; stroke-width: 0.5; stroke-linecap: round"/>
    <path d="M 509.090034 204.743037 
L 510.484006 208.992371 
L 506.248156 207.557948 
" style="fill: none; stroke: #000080; stroke-width: 0.5; stroke-linecap: round"/>
   </g>
   <g id="patch_24">
    <path d="M 513.690744 212.22983 
Q 515.080524 213.632924 516.076908 214.638853 
" style="fill: none; stroke: #000080; stroke-width: 0.5; stroke-linecap: round"/>
    <path d="M 514.682936 210.389519 
L 516.076908 214.638853 
L 511.841057 213.20443 
" style="fill: none; stroke: #000080; stroke-width: 0.5; stroke-linecap: round"/>
   </g>
   <g id="patch_25">
    <path d="M 519.28811 217.880819 
Q 520.488352 219.09256 521.295198 219.907136 
" style="fill: none; stroke: #000080; stroke-width: 0.5; stroke-linecap: round"/>
    <path d="M 519.901226 215.657802 
L 521.295198 219.907136 
L 517.059348 218.472713 
" style="fill: none; stroke: #000080; stroke-width: 0.5; stroke-linecap: round"/>
   </g>
   <g id="patch_26">
    <path d="M 524.504259 223.14694 
Q 525.528259 224.180751 526.158864 224.817397 
" style="fill: none; stroke: #000080; stroke-width: 0.5; stroke-linecap: round"/>
    <path d="M 524.764892 220.568063 
L 526.158864 224.817397 
L 521.923014 223.382974 
" style="fill: none; stroke: #000080; stroke-width: 0.5; stroke-linecap: round"/>
   </g>
   <g id="patch_27">
    <path d="M 529.364832 228.054079 
Q 530.22467 228.922153 530.691111 229.393064 
" style="fill: none; stroke: #000080; stroke-width: 0.5; stroke-linecap: round"/>
    <path d="M 529.297139 225.143729 
L 530.691111 229.393064 
L 526.455261 227.958641 
" style="fill: none; stroke: #000080; stroke-width: 0.5; stroke-linecap: round"/>
   </g>
   <g id="patch_28">
    <path d="M 533.902023 232.634736 
Q 534.607581 233.347054 534.919744 233.662207 
" style="fill: none; stroke: #000080; stroke-width: 0.5; stroke-linecap: round"/>
    <path d="M 533.525772 229.412873 
L 534.919744 233.662207 
L 530.683893 232.227784 
" style="fill: none; stroke: #000080; stroke-width: 0.5; stroke-linecap: round"/>
   </g>
   <g id="patch_29">
    <path d="M 538.124957 236.898127 
Q 538.687813 237.466375 538.857273 237.637459 
" style="fill: none; stroke: #000080; stroke-width: 0.5; stroke-linecap: round"/>
    <path d="M 537.463301 233.388124 
L 538.857273 237.637459 
L 534.621423 236.203036 
" style="fill: none; stroke: #000080; stroke-width: 0.5; stroke-linecap: round"/>
   </g>
   <g id="patch_30">
    <path d="M 542.06615 240.877077 
Q 542.494138 241.309165 542.52873 241.344089 
" style="fill: none; stroke: #000080; stroke-width: 0.5; stroke-linecap: round"/>
    <path d="M 541.134758 237.094755 
L 542.52873 241.344089 
L 538.29288 239.909666 
" style="fill: none; stroke: #000080; stroke-width: 0.5; stroke-linecap: round"/>
   </g>
   <g id="patch_31">
    <path d="M 545.73865 244.58476 
Q 546.042837 244.891861 545.953628 244.801797 
" style="fill: none; stroke: #000080; stroke-width: 0.5; stroke-linecap: round"/>
    <path d="M 544.559656 240.552463 
L 545.953628 244.801797 
L 541.717777 243.367374 
" style="fill: none; stroke: #000080; stroke-width: 0.5; stroke-linecap: round"/>
   </g>
   <g id="patch_32">
    <path d="M 549.160435 248.039326 
Q 549.350539 248.231252 549.147248 248.026013 
" style="fill: none; stroke: #000080; stroke-width: 0.5; stroke-linecap: round"/>
    <path d="M 547.753276 243.776679 
L 549.147248 248.026013 
L 544.911397 246.59159 
" style="fill: none; stroke: #000080; stroke-width: 0.5; stroke-linecap: round"/>
   </g>
   <g id="patch_33">
    <path d="M 552.355566 251.265067 
Q 552.433564 251.343813 552.118167 251.025394 
" style="fill: none; stroke: #000080; stroke-width: 0.5; stroke-linecap: round"/>
    <path d="M 550.724195 246.77606 
L 552.118167 251.025394 
L 547.882317 249.590971 
" style="fill: none; stroke: #000080; stroke-width: 0.5; stroke-linecap: round"/>
   </g>
   <g id="patch_34">
    <path d="M 555.327426 254.265398 
Q 556.01135 254.955874 556.301877 255.249185 
" style="fill: none; stroke: #000080; stroke-width: 0.5; stroke-linecap: round"/>
    <path d="M 554.907905 250.99985 
L 556.301877 255.249185 
L 552.066026 253.814762 
" style="fill: none; stroke: #000080; stroke-width: 0.5; stroke-linecap: round"/>
   </g>
   <g id="patch_35">
    <path d="M 558.101704 257.066254 
Q 558.691294 257.661493 558.887488 257.859566 
" style="fill: none; stroke: #000080; stroke-width: 0.5; stroke-linecap: round"/>
    <path d="M 557.493516 253.610232 
L 558.887488 257.859566 
L 554.651637 256.425143 
" style="fill: none; stroke: #000080; stroke-width: 0.5; stroke-linecap: round"/>
   </g>
   <g id="patch_36">
    <path d="M 560.686138 259.675447 
Q 561.188687 260.182811 561.29784 260.293009 
" style="fill: none; stroke: #000080; stroke-width: 0.5; stroke-linecap: round"/>
    <path d="M 559.903868 256.043675 
L 561.29784 260.293009 
L 557.061989 258.858586 
" style="fill: none; stroke: #000080; stroke-width: 0.5; stroke-linecap: round"/>
   </g>
   <g id="patch_37">
    <path d="M 563.097787 262.1102 
Q 563.517997 262.534436 563.544811 262.561507 
" style="fill: none; stroke: #000080; stroke-width: 0.5; stroke-linecap: round"/>
    <path d="M 562.150839 258.312173 
L 563.544811 262.561507 
L 559.30896 261.127084 
" style="fill: none; stroke: #000080; stroke-width: 0.5; stroke-linecap: round"/>
   </g>
   <g id="patch_38">
    <path d="M 565.347606 264.381573 
Q 565.690239 264.727489 565.639477 264.67624 
" style="fill: none; stroke: #000080; stroke-width: 0.5; stroke-linecap: round"/>
    <path d="M 564.245505 260.426906 
L 565.639477 264.67624 
L 561.403626 263.241817 
" style="fill: none; stroke: #000080; stroke-width: 0.5; stroke-linecap: round"/>
   </g>
   <g id="patch_39">
    <path d="M 567.442085 266.496118 
Q 567.713821 266.770457 567.592161 266.647631 
" style="fill: none; stroke: #000080; stroke-width: 0.5; stroke-linecap: round"/>
    <path d="M 566.198189 262.398297 
L 567.592161 266.647631 
L 563.35631 265.213208 
" style="fill: none; stroke: #000080; stroke-width: 0.5; stroke-linecap: round"/>
   </g>
   <g id="patch_40">
    <path d="M 569.391687 268.464397 
Q 569.598785 268.673479 569.412486 268.485396 
" style="fill: none; stroke: #000080; stroke-width: 0.5; stroke-linecap: round"/>
    <path d="M 568.018514 264.236062 
L 569.412486 268.485396 
L 565.176636 267.050973 
" style="fill: none; stroke: #000080; stroke-width: 0.5; stroke-linecap: round"/>
   </g>
   <g id="patch_41">
    <path d="M 571.214474 270.304647 
Q 571.358648 270.450202 571.109426 270.198592 
" style="fill: none; stroke: #000080; stroke-width: 0.5; stroke-linecap: round"/>
    <path d="M 569.715454 265.949258 
L 571.109426 270.198592 
L 566.873575 268.764169 
" style="fill: none; stroke: #000080; stroke-width: 0.5; stroke-linecap: round"/>
   </g>
   <g id="patch_42">
    <path d="M 572.908626 272.015029 
Q 572.996682 272.103928 572.691342 271.795663 
" style="fill: none; stroke: #000080; stroke-width: 0.5; stroke-linecap: round"/>
    <path d="M 571.29737 267.546329 
L 572.691342 271.795663 
L 568.455491 270.36124 
" style="fill: none; stroke: #000080; stroke-width: 0.5; stroke-linecap: round"/>
   </g>
   <g id="patch_43">
    <path d="M 574.493182 273.614765 
Q 574.526304 273.648205 574.166032 273.284481 
" style="fill: none; stroke: #000080; stroke-width: 0.5; stroke-linecap: round"/>
    <path d="M 572.77206 269.035146 
L 574.166032 273.284481 
L 569.930181 271.850058 
" style="fill: none; stroke: #000080; stroke-width: 0.5; stroke-linecap: round"/>
   </g>
   <g id="patch_44">
    <path d="M 574.559427 273.681645 
Q 575.246793 274.375596 575.540763 274.672382 
" style="fill: none; stroke: #000080; stroke-width: 0.5; stroke-linecap: round"/>
    <path d="M 574.146791 270.423048 
L 575.540763 274.672382 
L 571.304912 273.237959 
" style="fill: none; stroke: #000080; stroke-width: 0.5; stroke-linecap: round"/>
   </g>
   <g id="patch_45">
    <path d="M 575.934159 275.069547 
Q 576.574933 275.71646 576.822311 275.966208 
" style="fill: none; stroke: #000080; stroke-width: 0.5; stroke-linecap: round"/>
    <path d="M 575.428339 271.716874 
L 576.822311 275.966208 
L 572.586461 274.531785 
" style="fill: none; stroke: #000080; stroke-width: 0.5; stroke-linecap: round"/>
   </g>
   <g id="patch_46">
    <path d="M 577.215707 276.363373 
Q 577.813048 276.966436 578.016993 277.172335 
" style="fill: none; stroke: #000080; stroke-width: 0.5; stroke-linecap: round"/>
    <path d="M 576.623021 272.923001 
L 578.016993 277.172335 
L 573.781142 275.737912 
" style="fill: none; stroke: #000080; stroke-width: 0.5; stroke-linecap: round"/>
   </g>
   <g id="patch_47">
    <path d="M 578.410389 277.5695 
Q 578.96724 278.131686 579.130696 278.296708 
" style="fill: none; stroke: #000080; stroke-width: 0.5; stroke-linecap: round"/>
    <path d="M 577.736724 274.047373 
L 579.130696 278.296708 
L 574.894845 276.862285 
" style="fill: none; stroke: #000080; stroke-width: 0.5; stroke-linecap: round"/>
   </g>
   <g id="patch_48">
    <path d="M 579.524092 278.693872 
Q 580.043198 279.217952 580.168909 279.344867 
" style="fill: none; stroke: #000080; stroke-width: 0.5; stroke-linecap: round"/>
    <path d="M 578.774937 275.095533 
L 580.168909 279.344867 
L 575.933059 277.910444 
" style="fill: none; stroke: #000080; stroke-width: 0.5; stroke-linecap: round"/>
   </g>
   <g id="patch_49">
    <path d="M 580.562305 279.742032 
Q 581.046225 280.230588 581.13675 280.32198 
" style="fill: none; stroke: #000080; stroke-width: 0.5; stroke-linecap: round"/>
    <path d="M 579.742778 276.072645 
L 581.13675 280.32198 
L 576.900899 278.887557 
" style="fill: none; stroke: #000080; stroke-width: 0.5; stroke-linecap: round"/>
   </g>
   <g id="patch_50">
    <path d="M 581.530146 280.719144 
Q 581.981264 281.174585 582.038987 281.232861 
" style="fill: none; stroke: #000080; stroke-width: 0.5; stroke-linecap: round"/>
    <path d="M 580.645015 276.983526 
L 582.038987 281.232861 
L 577.803137 279.798438 
" style="fill: none; stroke: #000080; stroke-width: 0.5; stroke-linecap: round"/>
   </g>
   <g id="patch_51">
    <path d="M 582.432383 281.630025 
Q 582.852924 282.054595 582.880069 282.082 
" style="fill: none; stroke: #000080; stroke-width: 0.5; stroke-linecap: round"/>
    <path d="M 581.486097 277.832666 
L 582.880069 282.082 
L 578.644218 280.647577 
" style="fill: none; stroke: #000080; stroke-width: 0.5; stroke-linecap: round"/>
   </g>
   <g id="patch_52">
    <path d="M 583.273465 282.479165 
Q 583.6655 282.874956 583.66414 282.873582 
" style="fill: none; stroke: #000080; stroke-width: 0.5; stroke-linecap: round"/>
    <path d="M 582.270168 278.624248 
L 583.66414 282.873582 
L 579.428289 281.439159 
" style="fill: none; stroke: #000080; stroke-width: 0.5; stroke-linecap: round"/>
   </g>
   <g id="patch_53">
    <path d="M 584.057536 283.270747 
Q 584.422998 283.63971 584.395064 283.611509 
" style="fill: none; stroke: #000080; stroke-width: 0.5; stroke-linecap: round"/>
    <path d="M 583.001092 279.362175 
L 584.395064 283.611509 
L 580.159214 282.177086 
" style="fill: none; stroke: #000080; stroke-width: 0.5; stroke-linecap: round"/>
   </g>
   <g id="patch_54">
    <path d="M 584.78846 284.008674 
Q 585.12915 284.352628 585.076445 284.299417 
" style="fill: none; stroke: #000080; stroke-width: 0.5; stroke-linecap: round"/>
    <path d="M 583.682473 280.050083 
L 585.076445 284.299417 
L 580.840594 282.864994 
" style="fill: none; stroke: #000080; stroke-width: 0.5; stroke-linecap: round"/>
   </g>
   <g id="patch_55">
    <path d="M 585.46984 284.696582 
Q 585.787438 285.017222 585.711639 284.940697 
" style="fill: none; stroke: #000080; stroke-width: 0.5; stroke-linecap: round"/>
    <path d="M 584.317667 280.691363 
L 585.711639 284.940697 
L 581.475789 283.506274 
" style="fill: none; stroke: #000080; stroke-width: 0.5; stroke-linecap: round"/>
   </g>
  </g>
 </g>
 <defs>
  <clipPath id="pf0c3d92690">
   <rect x="58.953125" y="11.759062" width="601.045" height="319.12"/>
  </clipPath>
 </defs>
</svg>
