<?xml version="1.0" encoding="utf-8" standalone="no"?>
<!DOCTYPE svg PUBLIC "-//W3C//DTD SVG 1.1//EN"
  "http://www.w3.org/Graphics/SVG/1.1/DTD/svg11.dtd">
<svg xmlns:xlink="http://www.w3.org/1999/xlink" width="397.695pt" height="375.186562pt" viewBox="0 0 397.695 375.186562" xmlns="http://www.w3.org/2000/svg" version="1.1">
 <metadata>
  <rdf:RDF xmlns:dc="http://purl.org/dc/elements/1.1/" xmlns:cc="http://creativecommons.org/ns#" xmlns:rdf="http://www.w3.org/1999/02/22-rdf-syntax-ns#">
   <cc:Work>
    <dc:type rdf:resource="http://purl.org/dc/dcmitype/StillImage"/>
    <dc:date>2024-11-19T00:41:40.661460</dc:date>
    <dc:format>image/svg+xml</dc:format>
    <dc:creator>
     <cc:Agent>
      <dc:title>Matplotlib v3.8.4, https://matplotlib.org/</dc:title>
     </cc:Agent>
    </dc:creator>
   </cc:Work>
  </rdf:RDF>
 </metadata>
 <defs>
  <style type="text/css">*{stroke-linejoin: round; stroke-linecap: butt}</style>
 </defs>
 <g id="figure_1">
  <g id="patch_1">
   <path d="M -0 375.186562 
L 397.695 375.186562 
L 397.695 0 
L -0 0 
z
" style="fill: #ffffff"/>
  </g>
  <g id="axes_1">
   <g id="patch_2">
    <path d="M 58.953125 333.759062 
L 380.953125 333.759062 
L 380.953125 11.759062 
L 58.953125 11.759062 
z
" style="fill: #ffffff"/>
   </g>
   <g id="matplotlib.axis_1">
    <g id="xtick_1">
     <g id="line2d_1">
      <path d="M 58.953125 333.759062 
L 58.953125 11.759062 
" clip-path="url(#pd4ff042598)" style="fill: none; stroke: #e6e6e6; stroke-width: 0.8; stroke-linecap: square"/>
     </g>
     <g id="line2d_2">
      <defs>
       <path id="m945ddc9289" d="M 0 0 
L 0 3.5 
" style="stroke: #000000; stroke-width: 0.8"/>
      </defs>
      <g>
       <use xlink:href="#m945ddc9289" x="58.953125" y="333.759062" style="stroke: #000000; stroke-width: 0.8"/>
      </g>
     </g>
     <g id="text_1">
      <!-- −0.5 -->
      <g transform="translate(44.383438 349.877187) scale(0.12 -0.12)">
       <defs>
        <path id="DejaVuSans-2212" d="M 678 2272 
L 4684 2272 
L 4684 1741 
L 678 1741 
L 678 2272 
z
" transform="scale(0.015625)"/>
        <path id="DejaVuSans-30" d="M 2034 4250 
Q 1547 4250 1301 3770 
Q 1056 3291 1056 2328 
Q 1056 1369 1301 889 
Q 1547 409 2034 409 
Q 2525 409 2770 889 
Q 3016 1369 3016 2328 
Q 3016 3291 2770 3770 
Q 2525 4250 2034 4250 
z
M 2034 4750 
Q 2819 4750 3233 4129 
Q 3647 3509 3647 2328 
Q 3647 1150 3233 529 
Q 2819 -91 2034 -91 
Q 1250 -91 836 529 
Q 422 1150 422 2328 
Q 422 3509 836 4129 
Q 1250 4750 2034 4750 
z
" transform="scale(0.015625)"/>
        <path id="DejaVuSans-2e" d="M 684 794 
L 1344 794 
L 1344 0 
L 684 0 
L 684 794 
z
" transform="scale(0.015625)"/>
        <path id="DejaVuSans-35" d="M 691 4666 
L 3169 4666 
L 3169 4134 
L 1269 4134 
L 1269 2991 
Q 1406 3038 1543 3061 
Q 1681 3084 1819 3084 
Q 2600 3084 3056 2656 
Q 3513 2228 3513 1497 
Q 3513 744 3044 326 
Q 2575 -91 1722 -91 
Q 1428 -91 1123 -41 
Q 819 9 494 109 
L 494 744 
Q 775 591 1075 516 
Q 1375 441 1709 441 
Q 2250 441 2565 725 
Q 2881 1009 2881 1497 
Q 2881 1984 2565 2268 
Q 2250 2553 1709 2553 
Q 1456 2553 1204 2497 
Q 953 2441 691 2322 
L 691 4666 
z
" transform="scale(0.015625)"/>
       </defs>
       <use xlink:href="#DejaVuSans-2212"/>
       <use xlink:href="#DejaVuSans-30" x="83.789062"/>
       <use xlink:href="#DejaVuSans-2e" x="147.412109"/>
       <use xlink:href="#DejaVuSans-35" x="179.199219"/>
      </g>
     </g>
    </g>
    <g id="xtick_2">
     <g id="line2d_3">
      <path d="M 112.619792 333.759062 
L 112.619792 11.759062 
" clip-path="url(#pd4ff042598)" style="fill: none; stroke: #e6e6e6; stroke-width: 0.8; stroke-linecap: square"/>
     </g>
     <g id="line2d_4">
      <g>
       <use xlink:href="#m945ddc9289" x="112.619792" y="333.759062" style="stroke: #000000; stroke-width: 0.8"/>
      </g>
     </g>
     <g id="text_2">
      <!-- 0.0 -->
      <g transform="translate(103.077917 349.877187) scale(0.12 -0.12)">
       <use xlink:href="#DejaVuSans-30"/>
       <use xlink:href="#DejaVuSans-2e" x="63.623047"/>
       <use xlink:href="#DejaVuSans-30" x="95.410156"/>
      </g>
     </g>
    </g>
    <g id="xtick_3">
     <g id="line2d_5">
      <path d="M 166.286458 333.759062 
L 166.286458 11.759062 
" clip-path="url(#pd4ff042598)" style="fill: none; stroke: #e6e6e6; stroke-width: 0.8; stroke-linecap: square"/>
     </g>
     <g id="line2d_6">
      <g>
       <use xlink:href="#m945ddc9289" x="166.286458" y="333.759062" style="stroke: #000000; stroke-width: 0.8"/>
      </g>
     </g>
     <g id="text_3">
      <!-- 0.5 -->
      <g transform="translate(156.744583 349.877187) scale(0.12 -0.12)">
       <use xlink:href="#DejaVuSans-30"/>
       <use xlink:href="#DejaVuSans-2e" x="63.623047"/>
       <use xlink:href="#DejaVuSans-35" x="95.410156"/>
      </g>
     </g>
    </g>
    <g id="xtick_4">
     <g id="line2d_7">
      <path d="M 219.953125 333.759062 
L 219.953125 11.759062 
" clip-path="url(#pd4ff042598)" style="fill: none; stroke: #e6e6e6; stroke-width: 0.8; stroke-linecap: square"/>
     </g>
     <g id="line2d_8">
      <g>
       <use xlink:href="#m945ddc9289" x="219.953125" y="333.759062" style="stroke: #000000; stroke-width: 0.8"/>
      </g>
     </g>
     <g id="text_4">
      <!-- 1.0 -->
      <g transform="translate(210.41125 349.877187) scale(0.12 -0.12)">
       <defs>
        <path id="DejaVuSans-31" d="M 794 531 
L 1825 531 
L 1825 4091 
L 703 3866 
L 703 4441 
L 1819 4666 
L 2450 4666 
L 2450 531 
L 3481 531 
L 3481 0 
L 794 0 
L 794 531 
z
" transform="scale(0.015625)"/>
       </defs>
       <use xlink:href="#DejaVuSans-31"/>
       <use xlink:href="#DejaVuSans-2e" x="63.623047"/>
       <use xlink:href="#DejaVuSans-30" x="95.410156"/>
      </g>
     </g>
    </g>
    <g id="xtick_5">
     <g id="line2d_9">
      <path d="M 273.619792 333.759062 
L 273.619792 11.759062 
" clip-path="url(#pd4ff042598)" style="fill: none; stroke: #e6e6e6; stroke-width: 0.8; stroke-linecap: square"/>
     </g>
     <g id="line2d_10">
      <g>
       <use xlink:href="#m945ddc9289" x="273.619792" y="333.759062" style="stroke: #000000; stroke-width: 0.8"/>
      </g>
     </g>
     <g id="text_5">
      <!-- 1.5 -->
      <g transform="translate(264.077917 349.877187) scale(0.12 -0.12)">
       <use xlink:href="#DejaVuSans-31"/>
       <use xlink:href="#DejaVuSans-2e" x="63.623047"/>
       <use xlink:href="#DejaVuSans-35" x="95.410156"/>
      </g>
     </g>
    </g>
    <g id="xtick_6">
     <g id="line2d_11">
      <path d="M 327.286458 333.759062 
L 327.286458 11.759062 
" clip-path="url(#pd4ff042598)" style="fill: none; stroke: #e6e6e6; stroke-width: 0.8; stroke-linecap: square"/>
     </g>
     <g id="line2d_12">
      <g>
       <use xlink:href="#m945ddc9289" x="327.286458" y="333.759062" style="stroke: #000000; stroke-width: 0.8"/>
      </g>
     </g>
     <g id="text_6">
      <!-- 2.0 -->
      <g transform="translate(317.744583 349.877187) scale(0.12 -0.12)">
       <defs>
        <path id="DejaVuSans-32" d="M 1228 531 
L 3431 531 
L 3431 0 
L 469 0 
L 469 531 
Q 828 903 1448 1529 
Q 2069 2156 2228 2338 
Q 2531 2678 2651 2914 
Q 2772 3150 2772 3378 
Q 2772 3750 2511 3984 
Q 2250 4219 1831 4219 
Q 1534 4219 1204 4116 
Q 875 4013 500 3803 
L 500 4441 
Q 881 4594 1212 4672 
Q 1544 4750 1819 4750 
Q 2544 4750 2975 4387 
Q 3406 4025 3406 3419 
Q 3406 3131 3298 2873 
Q 3191 2616 2906 2266 
Q 2828 2175 2409 1742 
Q 1991 1309 1228 531 
z
" transform="scale(0.015625)"/>
       </defs>
       <use xlink:href="#DejaVuSans-32"/>
       <use xlink:href="#DejaVuSans-2e" x="63.623047"/>
       <use xlink:href="#DejaVuSans-30" x="95.410156"/>
      </g>
     </g>
    </g>
    <g id="xtick_7">
     <g id="line2d_13">
      <path d="M 380.953125 333.759062 
L 380.953125 11.759062 
" clip-path="url(#pd4ff042598)" style="fill: none; stroke: #e6e6e6; stroke-width: 0.8; stroke-linecap: square"/>
     </g>
     <g id="line2d_14">
      <g>
       <use xlink:href="#m945ddc9289" x="380.953125" y="333.759062" style="stroke: #000000; stroke-width: 0.8"/>
      </g>
     </g>
     <g id="text_7">
      <!-- 2.5 -->
      <g transform="translate(371.41125 349.877187) scale(0.12 -0.12)">
       <use xlink:href="#DejaVuSans-32"/>
       <use xlink:href="#DejaVuSans-2e" x="63.623047"/>
       <use xlink:href="#DejaVuSans-35" x="95.410156"/>
      </g>
     </g>
    </g>
    <g id="text_8">
     <!-- $\beta_0$ -->
     <g transform="translate(214.073125 365.490937) scale(0.12 -0.12)">
      <defs>
       <path id="Cmmi10-af" d="M 172 -1241 
Q 153 -1241 137 -1219 
Q 122 -1197 122 -1178 
L 1106 2778 
Q 1191 3097 1353 3397 
Q 1516 3697 1761 3955 
Q 2006 4213 2300 4363 
Q 2594 4513 2925 4513 
Q 3163 4513 3355 4408 
Q 3547 4303 3658 4114 
Q 3769 3925 3769 3688 
Q 3769 3459 3681 3251 
Q 3594 3044 3437 2864 
Q 3281 2684 3103 2572 
Q 3206 2506 3287 2404 
Q 3369 2303 3419 2192 
Q 3469 2081 3497 1945 
Q 3525 1809 3525 1691 
Q 3525 1363 3384 1044 
Q 3244 725 3001 465 
Q 2759 206 2446 54 
Q 2134 -97 1806 -97 
Q 1447 -97 1159 100 
Q 872 297 763 634 
L 300 -1203 
Q 300 -1241 250 -1241 
L 172 -1241 
z
M 1819 78 
Q 2106 78 2339 267 
Q 2572 456 2723 742 
Q 2875 1028 2954 1348 
Q 3034 1669 3034 1931 
Q 3034 2256 2847 2444 
Q 2628 2363 2419 2363 
Q 1913 2363 1913 2534 
Q 1913 2759 2491 2759 
Q 2697 2759 2869 2694 
Q 3006 2800 3118 3006 
Q 3231 3213 3289 3438 
Q 3347 3663 3347 3859 
Q 3347 4069 3236 4208 
Q 3125 4347 2913 4347 
Q 2522 4347 2186 4106 
Q 1850 3866 1619 3498 
Q 1388 3131 1288 2741 
L 934 1325 
Q 900 1178 891 997 
Q 891 597 1153 337 
Q 1416 78 1819 78 
z
M 2106 2553 
Q 2203 2528 2425 2528 
Q 2534 2528 2644 2566 
Q 2638 2572 2619 2572 
Q 2550 2591 2472 2591 
Q 2181 2591 2106 2553 
z
" transform="scale(0.015625)"/>
       <path id="Cmr10-30" d="M 1600 -141 
Q 816 -141 533 504 
Q 250 1150 250 2041 
Q 250 2597 351 3087 
Q 453 3578 754 3920 
Q 1056 4263 1600 4263 
Q 2022 4263 2290 4056 
Q 2559 3850 2700 3523 
Q 2841 3197 2892 2823 
Q 2944 2450 2944 2041 
Q 2944 1491 2842 1011 
Q 2741 531 2444 195 
Q 2147 -141 1600 -141 
z
M 1600 25 
Q 1956 25 2131 390 
Q 2306 756 2347 1200 
Q 2388 1644 2388 2144 
Q 2388 2625 2347 3031 
Q 2306 3438 2132 3767 
Q 1959 4097 1600 4097 
Q 1238 4097 1063 3765 
Q 888 3434 847 3029 
Q 806 2625 806 2144 
Q 806 1788 823 1472 
Q 841 1156 916 820 
Q 991 484 1158 254 
Q 1325 25 1600 25 
z
" transform="scale(0.015625)"/>
      </defs>
      <use xlink:href="#Cmmi10-af" transform="translate(0 0.484375)"/>
      <use xlink:href="#Cmr10-30" transform="translate(56.494141 -16.521875) scale(0.7)"/>
     </g>
    </g>
   </g>
   <g id="matplotlib.axis_2">
    <g id="ytick_1">
     <g id="line2d_15">
      <path d="M 58.953125 333.759062 
L 380.953125 333.759062 
" clip-path="url(#pd4ff042598)" style="fill: none; stroke: #e6e6e6; stroke-width: 0.8; stroke-linecap: square"/>
     </g>
     <g id="line2d_16">
      <defs>
       <path id="mb0a06e19c1" d="M 0 0 
L -3.5 0 
" style="stroke: #000000; stroke-width: 0.8"/>
      </defs>
      <g>
       <use xlink:href="#mb0a06e19c1" x="58.953125" y="333.759062" style="stroke: #000000; stroke-width: 0.8"/>
      </g>
     </g>
     <g id="text_9">
      <!-- −2.5 -->
      <g transform="translate(22.81375 338.318125) scale(0.12 -0.12)">
       <use xlink:href="#DejaVuSans-2212"/>
       <use xlink:href="#DejaVuSans-32" x="83.789062"/>
       <use xlink:href="#DejaVuSans-2e" x="147.412109"/>
       <use xlink:href="#DejaVuSans-35" x="179.199219"/>
      </g>
     </g>
    </g>
    <g id="ytick_2">
     <g id="line2d_17">
      <path d="M 58.953125 280.092396 
L 380.953125 280.092396 
" clip-path="url(#pd4ff042598)" style="fill: none; stroke: #e6e6e6; stroke-width: 0.8; stroke-linecap: square"/>
     </g>
     <g id="line2d_18">
      <g>
       <use xlink:href="#mb0a06e19c1" x="58.953125" y="280.092396" style="stroke: #000000; stroke-width: 0.8"/>
      </g>
     </g>
     <g id="text_10">
      <!-- −2.0 -->
      <g transform="translate(22.81375 284.651458) scale(0.12 -0.12)">
       <use xlink:href="#DejaVuSans-2212"/>
       <use xlink:href="#DejaVuSans-32" x="83.789062"/>
       <use xlink:href="#DejaVuSans-2e" x="147.412109"/>
       <use xlink:href="#DejaVuSans-30" x="179.199219"/>
      </g>
     </g>
    </g>
    <g id="ytick_3">
     <g id="line2d_19">
      <path d="M 58.953125 226.425729 
L 380.953125 226.425729 
" clip-path="url(#pd4ff042598)" style="fill: none; stroke: #e6e6e6; stroke-width: 0.8; stroke-linecap: square"/>
     </g>
     <g id="line2d_20">
      <g>
       <use xlink:href="#mb0a06e19c1" x="58.953125" y="226.425729" style="stroke: #000000; stroke-width: 0.8"/>
      </g>
     </g>
     <g id="text_11">
      <!-- −1.5 -->
      <g transform="translate(22.81375 230.984792) scale(0.12 -0.12)">
       <use xlink:href="#DejaVuSans-2212"/>
       <use xlink:href="#DejaVuSans-31" x="83.789062"/>
       <use xlink:href="#DejaVuSans-2e" x="147.412109"/>
       <use xlink:href="#DejaVuSans-35" x="179.199219"/>
      </g>
     </g>
    </g>
    <g id="ytick_4">
     <g id="line2d_21">
      <path d="M 58.953125 172.759062 
L 380.953125 172.759062 
" clip-path="url(#pd4ff042598)" style="fill: none; stroke: #e6e6e6; stroke-width: 0.8; stroke-linecap: square"/>
     </g>
     <g id="line2d_22">
      <g>
       <use xlink:href="#mb0a06e19c1" x="58.953125" y="172.759062" style="stroke: #000000; stroke-width: 0.8"/>
      </g>
     </g>
     <g id="text_12">
      <!-- −1.0 -->
      <g transform="translate(22.81375 177.318125) scale(0.12 -0.12)">
       <use xlink:href="#DejaVuSans-2212"/>
       <use xlink:href="#DejaVuSans-31" x="83.789062"/>
       <use xlink:href="#DejaVuSans-2e" x="147.412109"/>
       <use xlink:href="#DejaVuSans-30" x="179.199219"/>
      </g>
     </g>
    </g>
    <g id="ytick_5">
     <g id="line2d_23">
      <path d="M 58.953125 119.092396 
L 380.953125 119.092396 
" clip-path="url(#pd4ff042598)" style="fill: none; stroke: #e6e6e6; stroke-width: 0.8; stroke-linecap: square"/>
     </g>
     <g id="line2d_24">
      <g>
       <use xlink:href="#mb0a06e19c1" x="58.953125" y="119.092396" style="stroke: #000000; stroke-width: 0.8"/>
      </g>
     </g>
     <g id="text_13">
      <!-- −0.5 -->
      <g transform="translate(22.81375 123.651458) scale(0.12 -0.12)">
       <use xlink:href="#DejaVuSans-2212"/>
       <use xlink:href="#DejaVuSans-30" x="83.789062"/>
       <use xlink:href="#DejaVuSans-2e" x="147.412109"/>
       <use xlink:href="#DejaVuSans-35" x="179.199219"/>
      </g>
     </g>
    </g>
    <g id="ytick_6">
     <g id="line2d_25">
      <path d="M 58.953125 65.425729 
L 380.953125 65.425729 
" clip-path="url(#pd4ff042598)" style="fill: none; stroke: #e6e6e6; stroke-width: 0.8; stroke-linecap: square"/>
     </g>
     <g id="line2d_26">
      <g>
       <use xlink:href="#mb0a06e19c1" x="58.953125" y="65.425729" style="stroke: #000000; stroke-width: 0.8"/>
      </g>
     </g>
     <g id="text_14">
      <!-- 0.0 -->
      <g transform="translate(32.869375 69.984792) scale(0.12 -0.12)">
       <use xlink:href="#DejaVuSans-30"/>
       <use xlink:href="#DejaVuSans-2e" x="63.623047"/>
       <use xlink:href="#DejaVuSans-30" x="95.410156"/>
      </g>
     </g>
    </g>
    <g id="ytick_7">
     <g id="line2d_27">
      <path d="M 58.953125 11.759062 
L 380.953125 11.759062 
" clip-path="url(#pd4ff042598)" style="fill: none; stroke: #e6e6e6; stroke-width: 0.8; stroke-linecap: square"/>
     </g>
     <g id="line2d_28">
      <g>
       <use xlink:href="#mb0a06e19c1" x="58.953125" y="11.759062" style="stroke: #000000; stroke-width: 0.8"/>
      </g>
     </g>
     <g id="text_15">
      <!-- 0.5 -->
      <g transform="translate(32.869375 16.318125) scale(0.12 -0.12)">
       <use xlink:href="#DejaVuSans-30"/>
       <use xlink:href="#DejaVuSans-2e" x="63.623047"/>
       <use xlink:href="#DejaVuSans-35" x="95.410156"/>
      </g>
     </g>
    </g>
    <g id="text_16">
     <!-- $\beta_1$ -->
     <g transform="translate(16.318125 178.639062) rotate(-90) scale(0.12 -0.12)">
      <defs>
       <path id="Cmr10-31" d="M 594 0 
L 594 225 
Q 1394 225 1394 428 
L 1394 3788 
Q 1063 3628 556 3628 
L 556 3853 
Q 1341 3853 1741 4263 
L 1831 4263 
Q 1853 4263 1873 4245 
Q 1894 4228 1894 4206 
L 1894 428 
Q 1894 225 2694 225 
L 2694 0 
L 594 0 
z
" transform="scale(0.015625)"/>
      </defs>
      <use xlink:href="#Cmmi10-af" transform="translate(0 0.484375)"/>
      <use xlink:href="#Cmr10-31" transform="translate(56.494141 -16.521875) scale(0.7)"/>
     </g>
    </g>
   </g>
   <g id="PathCollection_1">
    <defs>
     <path id="m45fd5c0890" d="M 0 1.118034 
C 0.296506 1.118034 0.580908 1.000231 0.790569 0.790569 
C 1.000231 0.580908 1.118034 0.296506 1.118034 0 
C 1.118034 -0.296506 1.000231 -0.580908 0.790569 -0.790569 
C 0.580908 -1.000231 0.296506 -1.118034 0 -1.118034 
C -0.296506 -1.118034 -0.580908 -1.000231 -0.790569 -0.790569 
C -1.000231 -0.580908 -1.118034 -0.296506 -1.118034 0 
C -1.118034 0.296506 -1.000231 0.580908 -0.790569 0.790569 
C -0.580908 1.000231 -0.296506 1.118034 0 1.118034 
z
" style="stroke: #000080"/>
    </defs>
    <g clip-path="url(#pd4ff042598)">
     <use xlink:href="#m45fd5c0890" x="112.619792" y="65.425729" style="fill: #000080; stroke: #000080"/>
     <use xlink:href="#m45fd5c0890" x="210.679496" y="33.459398" style="fill: #000080; stroke: #000080"/>
     <use xlink:href="#m45fd5c0890" x="272.854598" y="224.187325" style="fill: #000080; stroke: #000080"/>
     <use xlink:href="#m45fd5c0890" x="303.601536" y="214.164178" style="fill: #000080; stroke: #000080"/>
     <use xlink:href="#m45fd5c0890" x="323.096741" y="273.967537" style="fill: #000080; stroke: #000080"/>
     <use xlink:href="#m45fd5c0890" x="332.737542" y="270.824747" style="fill: #000080; stroke: #000080"/>
     <use xlink:href="#m45fd5c0890" x="338.850327" y="289.576284" style="fill: #000080; stroke: #000080"/>
     <use xlink:href="#m45fd5c0890" x="341.873232" y="288.590852" style="fill: #000080; stroke: #000080"/>
     <use xlink:href="#m45fd5c0890" x="343.789915" y="294.470457" style="fill: #000080; stroke: #000080"/>
     <use xlink:href="#m45fd5c0890" x="344.737756" y="294.161471" style="fill: #000080; stroke: #000080"/>
     <use xlink:href="#m45fd5c0890" x="345.338739" y="296.00504" style="fill: #000080; stroke: #000080"/>
     <use xlink:href="#m45fd5c0890" x="345.635937" y="295.908157" style="fill: #000080; stroke: #000080"/>
     <use xlink:href="#m45fd5c0890" x="345.824377" y="296.486214" style="fill: #000080; stroke: #000080"/>
     <use xlink:href="#m45fd5c0890" x="345.917565" y="296.455836" style="fill: #000080; stroke: #000080"/>
     <use xlink:href="#m45fd5c0890" x="345.976651" y="296.637088" style="fill: #000080; stroke: #000080"/>
     <use xlink:href="#m45fd5c0890" x="346.00587" y="296.627563" style="fill: #000080; stroke: #000080"/>
     <use xlink:href="#m45fd5c0890" x="346.024397" y="296.684395" style="fill: #000080; stroke: #000080"/>
     <use xlink:href="#m45fd5c0890" x="346.033559" y="296.681408" style="fill: #000080; stroke: #000080"/>
     <use xlink:href="#m45fd5c0890" x="346.039368" y="296.699228" style="fill: #000080; stroke: #000080"/>
     <use xlink:href="#m45fd5c0890" x="346.04224" y="296.698291" style="fill: #000080; stroke: #000080"/>
     <use xlink:href="#m45fd5c0890" x="346.044062" y="296.703879" style="fill: #000080; stroke: #000080"/>
     <use xlink:href="#m45fd5c0890" x="346.044963" y="296.703585" style="fill: #000080; stroke: #000080"/>
     <use xlink:href="#m45fd5c0890" x="346.045534" y="296.705337" style="fill: #000080; stroke: #000080"/>
     <use xlink:href="#m45fd5c0890" x="346.045816" y="296.705245" style="fill: #000080; stroke: #000080"/>
     <use xlink:href="#m45fd5c0890" x="346.045995" y="296.705794" style="fill: #000080; stroke: #000080"/>
     <use xlink:href="#m45fd5c0890" x="346.046084" y="296.705766" style="fill: #000080; stroke: #000080"/>
     <use xlink:href="#m45fd5c0890" x="346.04614" y="296.705938" style="fill: #000080; stroke: #000080"/>
     <use xlink:href="#m45fd5c0890" x="346.046168" y="296.705929" style="fill: #000080; stroke: #000080"/>
     <use xlink:href="#m45fd5c0890" x="346.046185" y="296.705983" style="fill: #000080; stroke: #000080"/>
     <use xlink:href="#m45fd5c0890" x="346.046194" y="296.70598" style="fill: #000080; stroke: #000080"/>
     <use xlink:href="#m45fd5c0890" x="346.0462" y="296.705997" style="fill: #000080; stroke: #000080"/>
     <use xlink:href="#m45fd5c0890" x="346.046202" y="296.705996" style="fill: #000080; stroke: #000080"/>
     <use xlink:href="#m45fd5c0890" x="346.046204" y="296.706001" style="fill: #000080; stroke: #000080"/>
     <use xlink:href="#m45fd5c0890" x="346.046205" y="296.706001" style="fill: #000080; stroke: #000080"/>
     <use xlink:href="#m45fd5c0890" x="346.046205" y="296.706003" style="fill: #000080; stroke: #000080"/>
     <use xlink:href="#m45fd5c0890" x="346.046206" y="296.706003" style="fill: #000080; stroke: #000080"/>
     <use xlink:href="#m45fd5c0890" x="346.046206" y="296.706003" style="fill: #000080; stroke: #000080"/>
     <use xlink:href="#m45fd5c0890" x="346.046206" y="296.706003" style="fill: #000080; stroke: #000080"/>
     <use xlink:href="#m45fd5c0890" x="346.046206" y="296.706003" style="fill: #000080; stroke: #000080"/>
     <use xlink:href="#m45fd5c0890" x="346.046206" y="296.706003" style="fill: #000080; stroke: #000080"/>
     <use xlink:href="#m45fd5c0890" x="346.046206" y="296.706003" style="fill: #000080; stroke: #000080"/>
     <use xlink:href="#m45fd5c0890" x="346.046206" y="296.706003" style="fill: #000080; stroke: #000080"/>
     <use xlink:href="#m45fd5c0890" x="346.046206" y="296.706003" style="fill: #000080; stroke: #000080"/>
     <use xlink:href="#m45fd5c0890" x="346.046206" y="296.706003" style="fill: #000080; stroke: #000080"/>
     <use xlink:href="#m45fd5c0890" x="346.046206" y="296.706003" style="fill: #000080; stroke: #000080"/>
     <use xlink:href="#m45fd5c0890" x="346.046206" y="296.706003" style="fill: #000080; stroke: #000080"/>
     <use xlink:href="#m45fd5c0890" x="346.046206" y="296.706003" style="fill: #000080; stroke: #000080"/>
     <use xlink:href="#m45fd5c0890" x="346.046206" y="296.706003" style="fill: #000080; stroke: #000080"/>
     <use xlink:href="#m45fd5c0890" x="346.046206" y="296.706003" style="fill: #000080; stroke: #000080"/>
     <use xlink:href="#m45fd5c0890" x="346.046206" y="296.706003" style="fill: #000080; stroke: #000080"/>
    </g>
   </g>
   <g id="PathCollection_2">
    <defs>
     <path id="mfa31b1a0e6" d="M 0 1.581139 
C 0.419323 1.581139 0.821528 1.41454 1.118034 1.118034 
C 1.41454 0.821528 1.581139 0.419323 1.581139 0 
C 1.581139 -0.419323 1.41454 -0.821528 1.118034 -1.118034 
C 0.821528 -1.41454 0.419323 -1.581139 0 -1.581139 
C -0.419323 -1.581139 -0.821528 -1.41454 -1.118034 -1.118034 
C -1.41454 -0.821528 -1.581139 -0.419323 -1.581139 0 
C -1.581139 0.419323 -1.41454 0.821528 -1.118034 1.118034 
C -0.821528 1.41454 -0.419323 1.581139 0 1.581139 
z
" style="stroke: #800000"/>
    </defs>
    <g clip-path="url(#pd4ff042598)">
     <use xlink:href="#mfa31b1a0e6" x="346.046206" y="296.706003" style="fill: #800000; stroke: #800000"/>
    </g>
   </g>
   <g id="QuadContourSet_1">
    <path d="M 345.175347 294.77193 
L 345.166512 294.728759 
L 345.175347 294.710676 
L 345.183173 294.728759 
L 345.175347 294.77193 
" clip-path="url(#pd4ff042598)" style="fill: none; stroke: #3b4cc0; stroke-opacity: 0.9"/>
    <path d="M 354.932923 320.783231 
L 354.902631 320.748961 
L 351.680398 317.533934 
L 351.65289 317.496436 
L 349.178967 314.243911 
L 348.427872 313.384874 
L 346.890452 310.991386 
L 345.175347 308.635612 
L 344.659386 307.73886 
L 342.7306 304.486335 
L 341.922822 303.219792 
L 340.919706 301.23381 
L 339.155359 297.981285 
L 338.670297 297.098252 
L 337.637346 294.728759 
L 336.147465 291.476234 
L 335.417771 289.898824 
L 334.801564 288.223709 
L 333.690325 284.971184 
L 332.55885 281.718658 
L 332.165246 280.334779 
L 331.767987 278.466133 
L 331.420271 275.213608 
L 331.764435 271.961083 
L 332.165246 271.201562 
L 335.417771 271.441472 
L 335.978378 271.961083 
L 338.670297 274.114561 
L 339.568331 275.213608 
L 341.922822 277.748129 
L 342.418243 278.466133 
L 344.852969 281.718658 
L 345.175347 282.1172 
L 346.89584 284.971184 
L 348.427872 287.20734 
L 348.982836 288.223709 
L 350.80022 291.476234 
L 351.680398 292.946022 
L 352.532912 294.728759 
L 354.147809 297.981285 
L 354.932923 299.508078 
L 355.642926 301.23381 
L 356.954413 304.486335 
L 358.185448 307.341227 
L 358.322891 307.73886 
L 359.235244 310.991386 
L 360.044069 314.243911 
L 360.61075 317.496436 
L 360.349753 320.748961 
L 358.185448 322.527912 
L 354.932923 320.783231 
z
" clip-path="url(#pd4ff042598)" style="fill: none; stroke: #3b4cc0; stroke-opacity: 0.9"/>
    <path d="M 356.891339 333.759062 
L 354.932923 331.671343 
L 354.034835 330.506537 
L 351.680398 327.664857 
L 351.391451 327.254012 
L 349.033152 324.001487 
L 348.427872 323.212422 
L 346.822189 320.748961 
L 345.175347 318.397482 
L 344.626753 317.496436 
L 342.593499 314.243911 
L 341.922822 313.210758 
L 340.669402 310.991386 
L 338.699579 307.73886 
L 338.670297 307.689939 
L 337.000829 304.486335 
L 335.417771 301.674035 
L 335.198351 301.23381 
L 333.616773 297.981285 
L 332.165246 295.18713 
L 331.954284 294.728759 
L 330.513054 291.476234 
L 328.970343 288.223709 
L 328.912721 288.095697 
L 327.685573 284.971184 
L 326.360032 281.718658 
L 325.660196 279.976689 
L 325.130312 278.466133 
L 324.057368 275.213608 
L 322.986736 271.961083 
L 322.40767 270.055259 
L 322.057282 268.708557 
L 321.365539 265.456032 
L 320.822128 262.203507 
L 320.532094 258.950982 
L 320.730309 255.698456 
L 322.071746 252.445931 
L 322.40767 252.088572 
L 325.660196 251.997648 
L 326.4147 252.445931 
L 328.912721 253.785134 
L 331.194478 255.698456 
L 332.165246 256.440035 
L 334.580962 258.950982 
L 335.417771 259.749701 
L 337.449943 262.203507 
L 338.670297 263.565741 
L 340.070361 265.456032 
L 341.922822 267.781453 
L 342.552318 268.708557 
L 344.872928 271.961083 
L 345.175347 272.371404 
L 346.962576 275.213608 
L 348.427872 277.380433 
L 349.068072 278.466133 
L 351.041845 281.718658 
L 351.680398 282.738121 
L 352.900906 284.971184 
L 354.795637 288.223709 
L 354.932923 288.461625 
L 356.451918 291.476234 
L 358.185448 294.65802 
L 358.219653 294.728759 
L 359.725186 297.981285 
L 361.348231 301.23381 
L 361.437973 301.420769 
L 362.724709 304.486335 
L 364.157461 307.73886 
L 364.690499 308.971905 
L 365.454411 310.991386 
L 366.662076 314.243911 
L 367.910108 317.496436 
L 367.943024 317.59298 
L 368.867012 320.748961 
L 369.774615 324.001487 
L 370.617852 327.254012 
L 371.195549 329.918059 
L 371.302428 330.506537 
L 371.622273 333.759062 
" clip-path="url(#pd4ff042598)" style="fill: none; stroke: #3b4cc0; stroke-opacity: 0.9"/>
    <path d="M 344.223086 333.759062 
L 342.102993 330.506537 
L 341.922822 330.231649 
L 340.127306 327.254012 
L 338.670297 324.937027 
L 338.125568 324.001487 
L 336.2104 320.748961 
L 335.417771 319.431729 
L 334.339244 317.496436 
L 332.470739 314.243911 
L 332.165246 313.712437 
L 330.716375 310.991386 
L 328.912721 307.748902 
L 328.907519 307.73886 
L 327.255583 304.486335 
L 325.660196 301.484683 
L 325.535979 301.23381 
L 323.955507 297.981285 
L 322.40767 294.927677 
L 322.313722 294.728759 
L 320.8148 291.476234 
L 319.252595 288.223709 
L 319.155145 288.015784 
L 317.832132 284.971184 
L 316.375368 281.718658 
L 315.90262 280.650409 
L 315.006187 278.466133 
L 313.666004 275.213608 
L 312.650095 272.774842 
L 312.335662 271.961083 
L 311.123003 268.708557 
L 309.888887 265.456032 
L 309.397569 264.123155 
L 308.744884 262.203507 
L 307.671422 258.950982 
L 306.599125 255.698456 
L 306.145044 254.245771 
L 305.629491 252.445931 
L 304.760175 249.193406 
L 303.931259 245.940881 
L 303.155589 242.688355 
L 302.892519 241.38563 
L 302.537863 239.43583 
L 302.074373 236.183305 
L 301.756398 232.93078 
L 301.642343 229.678254 
L 301.826689 226.425729 
L 302.472948 223.173204 
L 302.892519 222.068667 
L 304.727002 219.920679 
L 306.145044 218.99835 
L 309.397569 218.921722 
L 312.279382 219.920679 
L 312.650095 220.040687 
L 315.90262 221.991913 
L 317.422943 223.173204 
L 319.155145 224.44867 
L 321.355805 226.425729 
L 322.40767 227.323712 
L 324.744197 229.678254 
L 325.660196 230.557575 
L 327.804657 232.93078 
L 328.912721 234.101558 
L 330.652339 236.183305 
L 332.165246 237.915391 
L 333.35413 239.43583 
L 335.417771 241.965486 
L 335.951542 242.688355 
L 338.431042 245.940881 
L 338.670297 246.247788 
L 340.749596 249.193406 
L 341.922822 250.786552 
L 343.03931 252.445931 
L 345.175347 255.494261 
L 345.307059 255.698456 
L 347.410784 258.950982 
L 348.427872 260.466214 
L 349.501612 262.203507 
L 351.588054 265.456032 
L 351.680398 265.599879 
L 353.518372 268.708557 
L 354.932923 271.002087 
L 355.481085 271.961083 
L 357.358946 275.213608 
L 358.185448 276.614392 
L 359.198256 278.466133 
L 361.02492 281.718658 
L 361.437973 282.451724 
L 362.754228 284.971184 
L 364.517862 288.223709 
L 364.690499 288.545161 
L 366.150341 291.476234 
L 367.839322 294.728759 
L 367.943024 294.931779 
L 369.387924 297.981285 
L 370.990829 301.23381 
L 371.195549 301.656171 
L 372.46829 304.486335 
L 373.973896 307.73886 
L 374.448074 308.77246 
L 375.392736 310.991386 
L 376.790018 314.243911 
L 377.7006 316.346983 
L 378.162548 317.496436 
L 379.440672 320.748961 
L 380.750532 324.001487 
L 380.953125 324.525306 
" clip-path="url(#pd4ff042598)" style="fill: none; stroke: #3d50c3; stroke-opacity: 0.9"/>
    <path d="M 327.865302 333.759062 
L 322.324875 324.001487 
L 313.669275 307.73886 
L 309.397569 299.32823 
L 302.50972 284.971184 
L 296.387468 271.323867 
L 289.882418 255.5798 
L 285.081684 242.688355 
L 282.809717 236.183305 
L 279.683715 226.425729 
L 276.872317 216.54247 
L 274.624392 206.910578 
L 273.359302 200.405527 
L 272.473756 193.900477 
L 272.169207 190.647951 
L 271.985531 187.395426 
L 271.953374 184.142901 
L 272.114697 180.890376 
L 272.528534 177.63785 
L 273.619792 173.400657 
L 274.810767 171.1328 
L 276.872317 168.595304 
L 278.094638 167.880275 
L 280.124842 167.002896 
L 283.377367 166.807153 
L 286.629893 167.450769 
L 289.882418 168.724884 
L 293.134943 170.449363 
L 296.387468 172.559895 
L 299.639994 174.96495 
L 302.893554 177.63785 
L 306.467992 180.890376 
L 309.808421 184.142901 
L 312.968183 187.395426 
L 315.985551 190.647951 
L 322.40767 198.088738 
L 329.437512 206.910578 
L 335.417771 214.898203 
L 343.476033 226.425729 
L 348.427872 233.830764 
L 358.185448 249.373168 
L 367.943024 266.142066 
L 376.364383 281.718658 
L 379.726926 288.223709 
L 380.953125 290.596731 
L 380.953125 290.596731 
" clip-path="url(#pd4ff042598)" style="fill: none; stroke: #4257c9; stroke-opacity: 0.9"/>
    <path d="M 314.484313 333.759062 
L 309.146829 324.001487 
L 300.663299 307.73886 
L 296.387468 299.243735 
L 289.502985 284.971184 
L 282.089715 268.708557 
L 276.872317 256.676751 
L 271.172356 242.688355 
L 268.651079 236.183305 
L 266.203582 229.678254 
L 262.713969 219.920679 
L 259.442483 210.163103 
L 256.41237 200.405527 
L 253.650301 190.647951 
L 250.852115 179.299457 
L 249.821563 174.385325 
L 248.606684 167.880275 
L 247.590625 161.375224 
L 246.920812 154.870174 
L 246.598601 148.365123 
L 246.608202 145.112598 
L 246.761653 141.860073 
L 247.089451 138.607547 
L 247.637205 135.355022 
L 248.609876 132.102497 
L 250.033172 128.849972 
L 250.852115 127.452845 
L 252.484218 125.597446 
L 254.10464 124.192981 
L 257.357165 122.730384 
L 260.742884 122.344921 
L 263.862216 122.671736 
L 267.114741 123.554712 
L 270.367266 124.843232 
L 273.619792 126.489289 
L 277.487683 128.849972 
L 280.124842 130.633036 
L 286.221485 135.355022 
L 286.629893 135.677424 
L 290.008747 138.607547 
L 293.521852 141.860073 
L 299.639994 147.911452 
L 306.145044 154.888146 
L 312.650095 162.382942 
L 319.787472 171.1328 
L 325.660196 178.6884 
L 335.417771 191.998875 
L 345.65459 206.910578 
L 352.031865 216.668153 
L 360.163115 229.678254 
L 364.690499 237.141419 
L 374.448074 253.96761 
L 380.953125 265.709859 
L 380.953125 265.709859 
" clip-path="url(#pd4ff042598)" style="fill: none; stroke: #485fd1; stroke-opacity: 0.9"/>
    <path d="M 287.205161 333.759062 
L 282.081076 324.001487 
L 275.405744 310.991386 
L 270.367266 300.953154 
L 260.609691 280.780796 
L 252.029471 262.203507 
L 247.59959 252.316236 
L 239.286807 232.93078 
L 234.589489 221.539448 
L 228.084438 205.025056 
L 222.726151 190.647951 
L 219.246422 180.890376 
L 215.910775 171.1328 
L 212.729201 161.375224 
L 209.712635 151.617648 
L 206.873072 141.860073 
L 204.2237 132.102497 
L 201.779048 122.344921 
L 199.59886 112.587345 
L 198.286215 106.082295 
L 196.593342 96.324719 
L 195.559186 89.182941 
L 194.904805 83.314618 
L 194.382647 76.809568 
L 194.114582 70.304517 
L 194.164706 63.799467 
L 194.33527 60.546941 
L 194.620645 57.294416 
L 195.037401 54.041891 
L 195.610777 50.789366 
L 196.445175 47.53684 
L 197.522733 44.284315 
L 198.905955 41.03179 
L 200.934588 37.779265 
L 202.064236 36.299477 
L 203.892136 34.526739 
L 205.316761 33.361994 
L 208.569287 31.604282 
L 211.821812 30.683183 
L 215.074337 30.371658 
L 218.326862 30.53555 
L 222.244923 31.274214 
L 224.831913 31.986555 
L 228.084438 33.167725 
L 231.336963 34.580478 
L 234.589489 36.242026 
L 237.842014 38.079666 
L 242.442409 41.03179 
L 244.347064 42.308084 
L 247.59959 44.645782 
L 254.10464 49.755955 
L 260.609691 55.357232 
L 267.114741 61.397563 
L 273.619792 67.840532 
L 280.124842 74.653643 
L 287.945443 83.314618 
L 293.589072 89.819669 
L 299.639994 97.055396 
L 309.459573 109.33482 
L 319.352116 122.344921 
L 328.912721 135.484653 
L 338.670297 149.475232 
L 348.822945 164.627749 
L 358.185448 179.134065 
L 369.357789 197.153002 
L 375.230038 206.910578 
L 380.953125 216.61323 
L 380.953125 216.61323 
" clip-path="url(#pd4ff042598)" style="fill: none; stroke: #5a78e4; stroke-opacity: 0.9"/>
    <path d="M 256.094835 333.759062 
L 247.59959 317.216492 
L 236.421937 294.728759 
L 228.572375 278.466133 
L 221.579388 263.594262 
L 211.821812 242.182272 
L 202.064236 219.903862 
L 192.30666 196.597928 
L 184.726887 177.63785 
L 178.479993 161.375224 
L 172.486288 145.112598 
L 166.286458 127.434512 
L 161.356603 112.587345 
L 157.240299 99.577244 
L 154.301078 89.819669 
L 151.491375 80.062093 
L 148.818056 70.304517 
L 145.489945 57.294416 
L 143.176884 47.53684 
L 140.266256 33.910749 
L 138.556485 24.769164 
L 136.928783 15.011588 
L 136.458102 11.759062 
M 276.238952 11.759062 
L 281.62212 18.264113 
L 289.507055 28.021689 
L 294.619326 34.526739 
L 302.135411 44.284315 
L 307.035731 50.789366 
L 315.90262 62.816045 
L 328.912721 81.097489 
L 341.922822 100.098984 
L 354.932923 119.819692 
L 367.943024 140.258773 
L 380.953125 161.416094 
L 380.953125 161.416094 
" clip-path="url(#pd4ff042598)" style="fill: none; stroke: #7da0f9; stroke-opacity: 0.9"/>
    <path d="M 211.856521 333.759062 
L 203.628968 317.496436 
L 195.532772 301.23381 
L 182.549085 274.477136 
L 170.652809 249.193406 
L 163.033933 232.606598 
L 151.560218 206.910578 
L 143.518782 188.393752 
L 133.761206 165.244971 
L 125.550849 145.112598 
L 119.100994 128.849972 
L 112.824827 112.587345 
L 106.727744 96.324719 
L 99.662106 76.809568 
L 93.987007 60.546941 
L 87.455945 41.03179 
L 81.720802 23.062019 
L 78.262923 11.759062 
M 334.428983 11.759062 
L 343.195336 24.769164 
L 351.818982 37.779265 
L 364.690499 57.631283 
L 378.850438 80.062093 
L 380.953125 83.429997 
L 380.953125 83.429997 
" clip-path="url(#pd4ff042598)" style="fill: none; stroke: #c1d4f4; stroke-opacity: 0.9"/>
    <path d="M 177.851715 333.759062 
L 176.198715 330.506537 
L 176.044034 330.201619 
L 174.562039 327.254012 
L 172.918489 324.001487 
L 172.791509 323.749683 
L 171.291738 320.748961 
L 169.657798 317.496436 
L 169.538984 317.259414 
L 168.040791 314.243911 
L 166.416622 310.991386 
L 166.286458 310.730161 
L 164.809178 307.73886 
L 163.194939 304.486335 
L 163.033933 304.161256 
L 161.59688 301.23381 
L 159.992732 297.981285 
L 159.781408 297.552017 
L 158.403878 294.728759 
L 156.809978 291.476234 
L 156.528883 290.901744 
L 155.230151 288.223709 
L 153.646659 284.971184 
L 153.276357 284.209722 
L 152.07568 281.718658 
L 150.502755 278.466133 
L 150.023832 277.475221 
L 148.940446 275.213608 
L 147.378245 271.961083 
L 146.771307 270.697491 
L 145.824429 268.708557 
L 144.27311 265.456032 
L 143.518782 263.875766 
L 142.727609 262.203507 
L 141.18733 258.950982 
L 140.266256 257.009262 
L 139.649967 255.698456 
L 138.120884 252.445931 
L 137.013731 250.097174 
L 136.591484 249.193406 
L 135.073755 245.940881 
L 133.761206 243.138681 
L 133.55214 242.688355 
L 132.04592 239.43583 
L 130.532325 236.183305 
L 130.508681 236.132314 
L 129.037362 232.93078 
L 127.535637 229.678254 
L 127.256155 229.071612 
L 126.048059 226.425729 
L 124.558364 223.173204 
L 124.00363 221.961212 
L 123.077993 219.920679 
L 121.600485 216.668153 
L 120.751105 214.800187 
L 120.127144 213.415628 
L 118.66198 210.163103 
L 117.49858 207.58758 
L 117.195492 206.910578 
L 115.74283 203.658052 
L 114.283674 200.405527 
L 114.246054 200.321337 
L 112.843014 197.153002 
L 111.396741 193.900477 
L 110.993529 192.991993 
L 109.962514 190.647951 
L 108.529281 187.395426 
L 107.741004 185.607205 
L 107.101308 184.142901 
L 105.681275 180.890376 
L 104.488479 178.165884 
L 104.259376 177.63785 
L 102.852703 174.385325 
L 101.440295 171.1328 
L 101.235953 170.660641 
L 100.043544 167.880275 
L 98.644893 164.627749 
L 97.983428 163.088564 
L 97.253779 161.375224 
L 95.869044 158.122699 
L 94.730903 155.45551 
L 94.483386 154.870174 
L 93.112729 151.617648 
L 91.73693 148.365123 
L 91.478378 147.751804 
L 90.375927 145.112598 
L 89.014619 141.860073 
L 88.225852 139.975376 
L 87.658617 138.607547 
L 86.311962 135.355022 
L 84.973327 132.132976 
L 84.960779 132.102497 
L 83.628939 128.849972 
L 82.292609 125.597446 
L 81.720802 124.203367 
L 80.965529 122.344921 
L 79.644444 119.092396 
L 78.468277 116.203231 
L 78.321713 115.839871 
L 77.016036 112.587345 
L 75.706302 109.33482 
L 75.215751 108.113593 
L 74.407363 106.082295 
L 73.113483 102.82977 
L 71.963226 99.943973 
L 71.818404 99.577244 
L 70.540544 96.324719 
L 69.259097 93.072194 
L 68.710701 91.677012 
L 67.987463 89.819669 
L 66.722496 86.567143 
L 65.458176 83.324855 
L 65.454221 83.314618 
L 64.205901 80.062093 
L 62.954505 76.809568 
L 62.20565 74.86093 
L 61.709289 73.557042 
L 60.475016 70.304517 
L 59.237899 67.051992 
L 58.953125 66.299706 
M 373.456543 11.759062 
L 374.448074 13.313673 
L 375.520326 15.011588 
L 377.583581 18.264113 
L 377.7006 18.448564 
L 379.627842 21.516638 
L 380.953125 23.615783 
" clip-path="url(#pd4ff042598)" style="fill: none; stroke: #f2cab5; stroke-opacity: 0.9"/>
    <path d="M 123.851405 333.759062 
L 122.220432 330.506537 
L 120.751105 327.587537 
L 120.58437 327.254012 
L 118.960817 324.001487 
L 117.49858 321.08317 
L 117.33227 320.748961 
L 115.716233 317.496436 
L 114.246054 314.548681 
L 114.095093 314.243911 
L 112.486666 310.991386 
L 110.993529 307.983673 
L 110.872828 307.73886 
L 109.272106 304.486335 
L 107.741004 301.387743 
L 107.665462 301.23381 
L 106.07254 297.981285 
L 104.488479 294.76048 
L 104.472984 294.728759 
L 102.887956 291.476234 
L 101.296191 288.223709 
L 101.235953 288.100359 
L 99.718343 284.971184 
L 98.134676 281.718658 
L 97.983428 281.40747 
L 96.56369 278.466133 
L 94.988214 275.213608 
L 94.730903 274.681658 
L 93.423983 271.961083 
L 91.856795 268.708557 
L 91.478378 267.922475 
L 90.299211 265.456032 
L 88.740407 262.203507 
L 88.225852 261.129464 
L 87.189363 258.950982 
L 85.639036 255.698456 
L 84.973327 254.302159 
L 84.094426 252.445931 
L 82.552673 249.193406 
L 81.720802 247.440085 
L 81.01439 245.940881 
L 79.481303 242.688355 
L 78.468277 240.54276 
L 77.949241 239.43583 
L 76.424917 236.183305 
L 75.215751 233.609692 
L 74.898969 232.93078 
L 73.383501 229.678254 
L 71.963226 226.640379 
L 71.863562 226.425729 
L 70.357045 223.173204 
L 68.844815 219.920679 
L 68.710701 219.631565 
L 67.345535 216.668153 
L 65.842473 213.415628 
L 65.458176 212.583023 
L 64.34896 210.163103 
L 62.855161 206.910578 
L 62.20565 205.496259 
L 61.367309 203.658052 
L 59.882867 200.405527 
L 58.953125 198.370723 
" clip-path="url(#pd4ff042598)" style="fill: none; stroke: #b40426; stroke-opacity: 0.9"/>
   </g>
   <g id="line2d_29">
    <path d="M 58.953125 296.706003 
L 380.953125 296.706003 
" clip-path="url(#pd4ff042598)" style="fill: none; stroke-dasharray: 3.7,1.6; stroke-dashoffset: 0; stroke: #800000"/>
   </g>
   <g id="line2d_30">
    <path d="M 346.046206 333.759062 
L 346.046206 11.759062 
" clip-path="url(#pd4ff042598)" style="fill: none; stroke-dasharray: 3.7,1.6; stroke-dashoffset: 0; stroke: #800000"/>
   </g>
   <g id="patch_3">
    <path d="M 58.953125 333.759062 
L 58.953125 11.759062 
" style="fill: none; stroke: #000000; stroke-width: 0.7; stroke-linejoin: miter; stroke-linecap: square"/>
   </g>
   <g id="patch_4">
    <path d="M 380.953125 333.759062 
L 380.953125 11.759062 
" style="fill: none; stroke: #000000; stroke-width: 0.7; stroke-linejoin: miter; stroke-linecap: square"/>
   </g>
   <g id="patch_5">
    <path d="M 58.953125 333.759062 
L 380.953125 333.759062 
" style="fill: none; stroke: #000000; stroke-width: 0.7; stroke-linejoin: miter; stroke-linecap: square"/>
   </g>
   <g id="patch_6">
    <path d="M 58.953125 11.759062 
L 380.953125 11.759062 
" style="fill: none; stroke: #000000; stroke-width: 0.7; stroke-linejoin: miter; stroke-linecap: square"/>
   </g>
   <g id="patch_7">
    <path d="M 114.520058 64.806264 
Q 161.650449 49.442301 207.717861 34.424856 
" style="fill: none; stroke: #000080; stroke-linecap: round"/>
    <path d="M 201.083508 33.4322 
L 207.717861 34.424856 
L 202.943124 39.136744 
" style="fill: none; stroke: #000080; stroke-linecap: round"/>
   </g>
   <g id="patch_8">
    <path d="M 211.299008 35.359809 
Q 241.767316 128.824185 271.889105 221.225583 
" style="fill: none; stroke: #000080; stroke-linecap: round"/>
    <path d="M 272.881761 214.59123 
L 271.889105 221.225583 
L 267.177217 216.450846 
" style="fill: none; stroke: #000080; stroke-linecap: round"/>
   </g>
   <g id="patch_9">
    <path d="M 274.757516 223.566996 
Q 288.227096 219.176068 300.633697 215.13166 
" style="fill: none; stroke: #000080; stroke-linecap: round"/>
    <path d="M 293.999344 214.139003 
L 300.633697 215.13166 
L 295.85896 219.843548 
" style="fill: none; stroke: #000080; stroke-linecap: round"/>
   </g>
   <g id="patch_10">
    <path d="M 304.22147 216.065884 
Q 313.348627 244.064288 322.129264 270.999712 
" style="fill: none; stroke: #000080; stroke-linecap: round"/>
    <path d="M 323.121921 264.36536 
L 322.129264 270.999712 
L 317.417376 266.224975 
" style="fill: none; stroke: #000080; stroke-linecap: round"/>
   </g>
   <g id="patch_11">
    <path d="M 324.993832 273.349107 
Q 327.914738 272.396925 329.772666 271.791263 
" style="fill: none; stroke: #000080; stroke-linecap: round"/>
    <path d="M 323.138313 270.798606 
L 329.772666 271.791263 
L 324.997929 276.503151 
" style="fill: none; stroke: #000080; stroke-linecap: round"/>
   </g>
   <g id="patch_12">
    <path d="M 333.35688 272.724622 
Q 335.793122 280.198021 337.882845 286.608441 
" style="fill: none; stroke: #000080; stroke-linecap: round"/>
    <path d="M 338.875501 279.974089 
L 337.882845 286.608441 
L 333.170957 281.833705 
" style="fill: none; stroke: #000080; stroke-linecap: round"/>
   </g>
   <g id="patch_13">
    <path d="M 340.754403 288.955577 
Q 341.313817 288.773214 340.810252 288.937371 
" style="fill: none; stroke: #000080; stroke-linecap: round"/>
    <path d="M 334.1759 287.944714 
L 340.810252 288.937371 
L 336.035516 293.649259 
" style="fill: none; stroke: #000080; stroke-linecap: round"/>
   </g>
   <g id="patch_14">
    <path d="M 342.49372 290.494259 
Q 342.832326 291.532963 342.824412 291.508688 
" style="fill: none; stroke: #000080; stroke-linecap: round"/>
    <path d="M 343.817069 284.874335 
L 342.824412 291.508688 
L 338.112524 286.733951 
" style="fill: none; stroke: #000080; stroke-linecap: round"/>
   </g>
   <g id="patch_15">
    <path d="M 343.789915 294.470457 
Q 344.263836 294.315964 343.674777 294.50799 
" style="fill: none; stroke: #000080; stroke-linecap: round"/>
    <path d="M 337.040425 293.515334 
L 343.674777 294.50799 
L 338.90004 299.219878 
" style="fill: none; stroke: #000080; stroke-linecap: round"/>
   </g>
   <g id="patch_16">
    <path d="M 344.737756 294.161471 
Q 345.038248 295.083256 344.99222 294.942061 
" style="fill: none; stroke: #000080; stroke-linecap: round"/>
    <path d="M 345.984876 288.307709 
L 344.99222 294.942061 
L 340.280332 290.167325 
" style="fill: none; stroke: #000080; stroke-linecap: round"/>
   </g>
   <g id="patch_17">
    <path d="M 345.338739 296.00504 
Q 345.487338 295.956599 344.572958 296.254676 
" style="fill: none; stroke: #000080; stroke-linecap: round"/>
    <path d="M 337.938606 295.262019 
L 344.572958 296.254676 
L 339.798222 300.966564 
" style="fill: none; stroke: #000080; stroke-linecap: round"/>
   </g>
   <g id="patch_18">
    <path d="M 345.635937 295.908157 
Q 345.730157 296.197186 345.477858 295.423235 
" style="fill: none; stroke: #000080; stroke-linecap: round"/>
    <path d="M 346.470515 288.788883 
L 345.477858 295.423235 
L 340.76597 290.648498 
" style="fill: none; stroke: #000080; stroke-linecap: round"/>
   </g>
   <g id="patch_19">
    <path d="M 345.824377 296.486214 
Q 345.870971 296.471025 344.854586 296.802355 
" style="fill: none; stroke: #000080; stroke-linecap: round"/>
    <path d="M 338.220233 295.809698 
L 344.854586 296.802355 
L 340.079849 301.514243 
" style="fill: none; stroke: #000080; stroke-linecap: round"/>
   </g>
   <g id="patch_20">
    <path d="M 345.917565 296.455836 
Q 345.947108 296.546462 345.630132 295.574109 
" style="fill: none; stroke: #000080; stroke-linecap: round"/>
    <path d="M 346.622789 288.939756 
L 345.630132 295.574109 
L 340.918244 290.799372 
" style="fill: none; stroke: #000080; stroke-linecap: round"/>
   </g>
   <g id="patch_21">
    <path d="M 345.976651 296.637088 
Q 345.991261 296.632325 344.942891 296.974082 
" style="fill: none; stroke: #000080; stroke-linecap: round"/>
    <path d="M 338.308539 295.981425 
L 344.942891 296.974082 
L 340.168154 301.68597 
" style="fill: none; stroke: #000080; stroke-linecap: round"/>
   </g>
   <g id="patch_22">
    <path d="M 346.00587 296.627563 
Q 346.015134 296.655979 345.677878 295.621415 
" style="fill: none; stroke: #000080; stroke-linecap: round"/>
    <path d="M 346.670535 288.987063 
L 345.677878 295.621415 
L 340.96599 290.846679 
" style="fill: none; stroke: #000080; stroke-linecap: round"/>
   </g>
   <g id="patch_23">
    <path d="M 346.024397 296.684395 
Q 346.028978 296.682901 344.97058 297.027927 
" style="fill: none; stroke: #000080; stroke-linecap: round"/>
    <path d="M 338.336227 296.03527 
L 344.97058 297.027927 
L 340.195843 301.739815 
" style="fill: none; stroke: #000080; stroke-linecap: round"/>
   </g>
   <g id="patch_24">
    <path d="M 346.033559 296.681408 
Q 346.036463 296.690318 345.692849 295.636249 
" style="fill: none; stroke: #000080; stroke-linecap: round"/>
    <path d="M 346.685505 289.001896 
L 345.692849 295.636249 
L 340.980961 290.861512 
" style="fill: none; stroke: #000080; stroke-linecap: round"/>
   </g>
   <g id="patch_25">
    <path d="M 346.039368 296.699228 
Q 346.040804 296.69876 344.979261 297.04481 
" style="fill: none; stroke: #000080; stroke-linecap: round"/>
    <path d="M 338.344909 296.052154 
L 344.979261 297.04481 
L 340.204525 301.756698 
" style="fill: none; stroke: #000080; stroke-linecap: round"/>
   </g>
   <g id="patch_26">
    <path d="M 346.04224 296.698291 
Q 346.043151 296.701085 345.697543 295.6409 
" style="fill: none; stroke: #000080; stroke-linecap: round"/>
    <path d="M 346.6902 289.006547 
L 345.697543 295.6409 
L 340.985655 290.866163 
" style="fill: none; stroke: #000080; stroke-linecap: round"/>
   </g>
   <g id="patch_27">
    <path d="M 346.044062 296.703879 
Q 346.044512 296.703732 344.981984 297.050104 
" style="fill: none; stroke: #000080; stroke-linecap: round"/>
    <path d="M 338.347631 296.057448 
L 344.981984 297.050104 
L 340.207247 301.761992 
" style="fill: none; stroke: #000080; stroke-linecap: round"/>
   </g>
   <g id="patch_28">
    <path d="M 346.044963 296.703585 
Q 346.045248 296.704461 345.699015 295.642358 
" style="fill: none; stroke: #000080; stroke-linecap: round"/>
    <path d="M 346.691671 289.008006 
L 345.699015 295.642358 
L 340.987127 290.867621 
" style="fill: none; stroke: #000080; stroke-linecap: round"/>
   </g>
   <g id="patch_29">
    <path d="M 346.045534 296.705337 
Q 346.045675 296.705291 344.982837 297.051764 
" style="fill: none; stroke: #000080; stroke-linecap: round"/>
    <path d="M 338.348485 296.059107 
L 344.982837 297.051764 
L 340.2081 301.763652 
" style="fill: none; stroke: #000080; stroke-linecap: round"/>
   </g>
   <g id="patch_30">
    <path d="M 346.045816 296.705245 
Q 346.045906 296.70552 345.699476 295.642815 
" style="fill: none; stroke: #000080; stroke-linecap: round"/>
    <path d="M 346.692133 289.008463 
L 345.699476 295.642815 
L 340.987588 290.868079 
" style="fill: none; stroke: #000080; stroke-linecap: round"/>
   </g>
   <g id="patch_31">
    <path d="M 346.045995 296.705794 
Q 346.04604 296.70578 344.983105 297.052285 
" style="fill: none; stroke: #000080; stroke-linecap: round"/>
    <path d="M 338.348752 296.059628 
L 344.983105 297.052285 
L 340.208368 301.764173 
" style="fill: none; stroke: #000080; stroke-linecap: round"/>
   </g>
   <g id="patch_32">
    <path d="M 346.046084 296.705766 
Q 346.046112 296.705852 345.699621 295.642959 
" style="fill: none; stroke: #000080; stroke-linecap: round"/>
    <path d="M 346.692278 289.008606 
L 345.699621 295.642959 
L 340.987733 290.868222 
" style="fill: none; stroke: #000080; stroke-linecap: round"/>
   </g>
   <g id="patch_33">
    <path d="M 346.04614 296.705938 
Q 346.046154 296.705933 344.983189 297.052448 
" style="fill: none; stroke: #000080; stroke-linecap: round"/>
    <path d="M 338.348836 296.059791 
L 344.983189 297.052448 
L 340.208452 301.764336 
" style="fill: none; stroke: #000080; stroke-linecap: round"/>
   </g>
   <g id="patch_34">
    <path d="M 346.046168 296.705929 
Q 346.046177 296.705956 345.699666 295.643004 
" style="fill: none; stroke: #000080; stroke-linecap: round"/>
    <path d="M 346.692323 289.008651 
L 345.699666 295.643004 
L 340.987778 290.868267 
" style="fill: none; stroke: #000080; stroke-linecap: round"/>
   </g>
   <g id="patch_35">
    <path d="M 346.046185 296.705983 
Q 346.04619 296.705981 344.983215 297.052499 
" style="fill: none; stroke: #000080; stroke-linecap: round"/>
    <path d="M 338.348862 296.059842 
L 344.983215 297.052499 
L 340.208478 301.764387 
" style="fill: none; stroke: #000080; stroke-linecap: round"/>
   </g>
   <g id="patch_36">
    <path d="M 346.046194 296.70598 
Q 346.046197 296.705988 345.699681 295.643018 
" style="fill: none; stroke: #000080; stroke-linecap: round"/>
    <path d="M 346.692337 289.008665 
L 345.699681 295.643018 
L 340.987793 290.868281 
" style="fill: none; stroke: #000080; stroke-linecap: round"/>
   </g>
   <g id="patch_37">
    <path d="M 346.0462 296.705997 
Q 346.046201 296.705996 344.983223 297.052515 
" style="fill: none; stroke: #000080; stroke-linecap: round"/>
    <path d="M 338.348871 296.059858 
L 344.983223 297.052515 
L 340.208486 301.764403 
" style="fill: none; stroke: #000080; stroke-linecap: round"/>
   </g>
   <g id="patch_38">
    <path d="M 346.046202 296.705996 
Q 346.046203 296.705999 345.699685 295.643022 
" style="fill: none; stroke: #000080; stroke-linecap: round"/>
    <path d="M 346.692342 289.00867 
L 345.699685 295.643022 
L 340.987797 290.868285 
" style="fill: none; stroke: #000080; stroke-linecap: round"/>
   </g>
   <g id="patch_39">
    <path d="M 346.046204 296.706001 
Q 346.046204 296.706001 344.983226 297.05252 
" style="fill: none; stroke: #000080; stroke-linecap: round"/>
    <path d="M 338.348873 296.059863 
L 344.983226 297.05252 
L 340.208489 301.764408 
" style="fill: none; stroke: #000080; stroke-linecap: round"/>
   </g>
   <g id="patch_40">
    <path d="M 346.046205 296.706001 
Q 346.046205 296.706002 345.699686 295.643024 
" style="fill: none; stroke: #000080; stroke-linecap: round"/>
    <path d="M 346.692343 289.008671 
L 345.699686 295.643024 
L 340.987798 290.868287 
" style="fill: none; stroke: #000080; stroke-linecap: round"/>
   </g>
   <g id="patch_41">
    <path d="M 346.046205 296.706003 
Q 346.046206 296.706003 344.983227 297.052521 
" style="fill: none; stroke: #000080; stroke-linecap: round"/>
    <path d="M 338.348874 296.059864 
L 344.983227 297.052521 
L 340.208489 301.764409 
" style="fill: none; stroke: #000080; stroke-linecap: round"/>
   </g>
   <g id="patch_42">
    <path d="M 346.046206 296.706003 
Q 346.046206 296.706003 345.699687 295.643024 
" style="fill: none; stroke: #000080; stroke-linecap: round"/>
    <path d="M 346.692345 289.008672 
L 345.699687 295.643024 
L 340.9878 290.868286 
" style="fill: none; stroke: #000080; stroke-linecap: round"/>
   </g>
   <g id="patch_43">
    <path d="M 346.046206 296.706003 
Q 346.046206 296.706003 344.983227 297.052522 
" style="fill: none; stroke: #000080; stroke-linecap: round"/>
    <path d="M 338.348874 296.059866 
L 344.983227 297.052522 
L 340.208491 301.764411 
" style="fill: none; stroke: #000080; stroke-linecap: round"/>
   </g>
   <g id="patch_44">
    <path d="M 346.046206 296.706003 
Q 346.046206 296.706003 345.699688 295.643024 
" style="fill: none; stroke: #000080; stroke-linecap: round"/>
    <path d="M 346.692351 289.008672 
L 345.699688 295.643024 
L 340.987804 290.868283 
" style="fill: none; stroke: #000080; stroke-linecap: round"/>
   </g>
   <g id="patch_45">
    <path d="M 346.046206 296.706003 
Q 346.046206 296.706003 344.983227 297.052521 
" style="fill: none; stroke: #000080; stroke-linecap: round"/>
    <path d="M 338.348875 296.059858 
L 344.983227 297.052521 
L 340.208485 301.764404 
" style="fill: none; stroke: #000080; stroke-linecap: round"/>
   </g>
   <g id="patch_46">
    <path d="M 346.046206 296.706003 
Q 346.046206 296.706003 345.699683 295.643026 
" style="fill: none; stroke: #000080; stroke-linecap: round"/>
    <path d="M 346.692313 289.008669 
L 345.699683 295.643026 
L 340.987776 290.868307 
" style="fill: none; stroke: #000080; stroke-linecap: round"/>
   </g>
   <g id="patch_47">
    <path d="M 346.046206 296.706003 
Q 346.046206 296.706003 344.983228 297.052524 
" style="fill: none; stroke: #000080; stroke-linecap: round"/>
    <path d="M 338.348873 296.059879 
L 344.983228 297.052524 
L 340.208499 301.76442 
" style="fill: none; stroke: #000080; stroke-linecap: round"/>
   </g>
   <g id="patch_48">
    <path d="M 346.046206 296.706003 
Q 346.046206 296.706003 345.699689 295.643024 
" style="fill: none; stroke: #000080; stroke-linecap: round"/>
    <path d="M 346.692355 289.008673 
L 345.699689 295.643024 
L 340.987808 290.86828 
" style="fill: none; stroke: #000080; stroke-linecap: round"/>
   </g>
   <g id="patch_49">
    <path d="M 346.046206 296.706003 
Q 346.046206 296.706003 344.983227 297.052523 
" style="fill: none; stroke: #000080; stroke-linecap: round"/>
    <path d="M 338.348874 296.059872 
L 344.983227 297.052523 
L 340.208494 301.764415 
" style="fill: none; stroke: #000080; stroke-linecap: round"/>
   </g>
   <g id="patch_50">
    <path d="M 346.046206 296.706003 
Q 346.046206 296.706003 345.699634 295.643042 
" style="fill: none; stroke: #000080; stroke-linecap: round"/>
    <path d="M 346.691956 289.008639 
L 345.699634 295.643042 
L 340.987505 290.868542 
" style="fill: none; stroke: #000080; stroke-linecap: round"/>
   </g>
   <g id="patch_51">
    <path d="M 346.046206 296.706003 
Q 346.046206 296.706003 344.98324 297.052563 
" style="fill: none; stroke: #000080; stroke-linecap: round"/>
    <path d="M 338.34885 296.06016 
L 344.98324 297.052563 
L 340.208684 301.764633 
" style="fill: none; stroke: #000080; stroke-linecap: round"/>
   </g>
   <g id="patch_52">
    <path d="M 346.046206 296.706003 
Q 346.046206 296.706003 345.69988 295.642961 
" style="fill: none; stroke: #000080; stroke-linecap: round"/>
    <path d="M 346.693739 289.008789 
L 345.69988 295.642961 
L 340.988857 290.867371 
" style="fill: none; stroke: #000080; stroke-linecap: round"/>
   </g>
   <g id="patch_53">
    <path d="M 346.046206 296.706003 
Q 346.046206 296.706003 344.983155 297.0523 
" style="fill: none; stroke: #000080; stroke-linecap: round"/>
    <path d="M 338.349009 296.058259 
L 344.983155 297.0523 
L 340.207435 301.763192 
" style="fill: none; stroke: #000080; stroke-linecap: round"/>
   </g>
   <g id="patch_54">
    <path d="M 346.046206 296.706003 
Q 346.046206 296.706003 345.699876 295.642963 
" style="fill: none; stroke: #000080; stroke-linecap: round"/>
    <path d="M 346.693712 289.008787 
L 345.699876 295.642963 
L 340.988837 290.867389 
" style="fill: none; stroke: #000080; stroke-linecap: round"/>
   </g>
   <g id="patch_55">
    <path d="M 346.046206 296.706003 
Q 346.046206 296.706003 344.983229 297.052528 
" style="fill: none; stroke: #000080; stroke-linecap: round"/>
    <path d="M 338.348871 296.059906 
L 344.983229 297.052528 
L 340.208517 301.764441 
" style="fill: none; stroke: #000080; stroke-linecap: round"/>
   </g>
  </g>
 </g>
 <defs>
  <clipPath id="pd4ff042598">
   <rect x="58.953125" y="11.759062" width="322" height="322"/>
  </clipPath>
 </defs>
</svg>
