<?xml version="1.0" encoding="utf-8" standalone="no"?>
<!DOCTYPE svg PUBLIC "-//W3C//DTD SVG 1.1//EN"
  "http://www.w3.org/Graphics/SVG/1.1/DTD/svg11.dtd">
<svg xmlns:xlink="http://www.w3.org/1999/xlink" width="676.74pt" height="372.306562pt" viewBox="0 0 676.74 372.306562" xmlns="http://www.w3.org/2000/svg" version="1.1">
 <metadata>
  <rdf:RDF xmlns:dc="http://purl.org/dc/elements/1.1/" xmlns:cc="http://creativecommons.org/ns#" xmlns:rdf="http://www.w3.org/1999/02/22-rdf-syntax-ns#">
   <cc:Work>
    <dc:type rdf:resource="http://purl.org/dc/dcmitype/StillImage"/>
    <dc:date>2024-11-12T17:14:27.487602</dc:date>
    <dc:format>image/svg+xml</dc:format>
    <dc:creator>
     <cc:Agent>
      <dc:title>Matplotlib v3.8.4, https://matplotlib.org/</dc:title>
     </cc:Agent>
    </dc:creator>
   </cc:Work>
  </rdf:RDF>
 </metadata>
 <defs>
  <style type="text/css">*{stroke-linejoin: round; stroke-linecap: butt}</style>
 </defs>
 <g id="figure_1">
  <g id="patch_1">
   <path d="M 0 372.306562 
L 676.74 372.306562 
L 676.74 0 
L 0 0 
z
" style="fill: #ffffff"/>
  </g>
  <g id="axes_1">
   <g id="patch_2">
    <path d="M 58.953125 330.879062 
L 659.998125 330.879062 
L 659.998125 11.759062 
L 58.953125 11.759062 
z
" style="fill: #ffffff"/>
   </g>
   <g id="matplotlib.axis_1">
    <g id="xtick_1">
     <g id="line2d_1">
      <path d="M 58.953125 330.879062 
L 58.953125 11.759062 
" clip-path="url(#p9daf0f86ef)" style="fill: none; stroke: #e6e6e6; stroke-width: 0.8; stroke-linecap: square"/>
     </g>
     <g id="line2d_2">
      <defs>
       <path id="m88084770fd" d="M 0 0 
L 0 3.5 
" style="stroke: #000000; stroke-width: 0.8"/>
      </defs>
      <g>
       <use xlink:href="#m88084770fd" x="58.953125" y="330.879062" style="stroke: #000000; stroke-width: 0.8"/>
      </g>
     </g>
     <g id="text_1">
      <!-- −0.5 -->
      <g transform="translate(44.383437 346.997187) scale(0.12 -0.12)">
       <defs>
        <path id="DejaVuSans-2212" d="M 678 2272 
L 4684 2272 
L 4684 1741 
L 678 1741 
L 678 2272 
z
" transform="scale(0.015625)"/>
        <path id="DejaVuSans-30" d="M 2034 4250 
Q 1547 4250 1301 3770 
Q 1056 3291 1056 2328 
Q 1056 1369 1301 889 
Q 1547 409 2034 409 
Q 2525 409 2770 889 
Q 3016 1369 3016 2328 
Q 3016 3291 2770 3770 
Q 2525 4250 2034 4250 
z
M 2034 4750 
Q 2819 4750 3233 4129 
Q 3647 3509 3647 2328 
Q 3647 1150 3233 529 
Q 2819 -91 2034 -91 
Q 1250 -91 836 529 
Q 422 1150 422 2328 
Q 422 3509 836 4129 
Q 1250 4750 2034 4750 
z
" transform="scale(0.015625)"/>
        <path id="DejaVuSans-2e" d="M 684 794 
L 1344 794 
L 1344 0 
L 684 0 
L 684 794 
z
" transform="scale(0.015625)"/>
        <path id="DejaVuSans-35" d="M 691 4666 
L 3169 4666 
L 3169 4134 
L 1269 4134 
L 1269 2991 
Q 1406 3038 1543 3061 
Q 1681 3084 1819 3084 
Q 2600 3084 3056 2656 
Q 3513 2228 3513 1497 
Q 3513 744 3044 326 
Q 2575 -91 1722 -91 
Q 1428 -91 1123 -41 
Q 819 9 494 109 
L 494 744 
Q 775 591 1075 516 
Q 1375 441 1709 441 
Q 2250 441 2565 725 
Q 2881 1009 2881 1497 
Q 2881 1984 2565 2268 
Q 2250 2553 1709 2553 
Q 1456 2553 1204 2497 
Q 953 2441 691 2322 
L 691 4666 
z
" transform="scale(0.015625)"/>
       </defs>
       <use xlink:href="#DejaVuSans-2212"/>
       <use xlink:href="#DejaVuSans-30" x="83.789062"/>
       <use xlink:href="#DejaVuSans-2e" x="147.412109"/>
       <use xlink:href="#DejaVuSans-35" x="179.199219"/>
      </g>
     </g>
    </g>
    <g id="xtick_2">
     <g id="line2d_3">
      <path d="M 159.127292 330.879062 
L 159.127292 11.759062 
" clip-path="url(#p9daf0f86ef)" style="fill: none; stroke: #e6e6e6; stroke-width: 0.8; stroke-linecap: square"/>
     </g>
     <g id="line2d_4">
      <g>
       <use xlink:href="#m88084770fd" x="159.127292" y="330.879062" style="stroke: #000000; stroke-width: 0.8"/>
      </g>
     </g>
     <g id="text_2">
      <!-- 0.0 -->
      <g transform="translate(149.585417 346.997187) scale(0.12 -0.12)">
       <use xlink:href="#DejaVuSans-30"/>
       <use xlink:href="#DejaVuSans-2e" x="63.623047"/>
       <use xlink:href="#DejaVuSans-30" x="95.410156"/>
      </g>
     </g>
    </g>
    <g id="xtick_3">
     <g id="line2d_5">
      <path d="M 259.301458 330.879062 
L 259.301458 11.759062 
" clip-path="url(#p9daf0f86ef)" style="fill: none; stroke: #e6e6e6; stroke-width: 0.8; stroke-linecap: square"/>
     </g>
     <g id="line2d_6">
      <g>
       <use xlink:href="#m88084770fd" x="259.301458" y="330.879062" style="stroke: #000000; stroke-width: 0.8"/>
      </g>
     </g>
     <g id="text_3">
      <!-- 0.5 -->
      <g transform="translate(249.759583 346.997187) scale(0.12 -0.12)">
       <use xlink:href="#DejaVuSans-30"/>
       <use xlink:href="#DejaVuSans-2e" x="63.623047"/>
       <use xlink:href="#DejaVuSans-35" x="95.410156"/>
      </g>
     </g>
    </g>
    <g id="xtick_4">
     <g id="line2d_7">
      <path d="M 359.475625 330.879062 
L 359.475625 11.759062 
" clip-path="url(#p9daf0f86ef)" style="fill: none; stroke: #e6e6e6; stroke-width: 0.8; stroke-linecap: square"/>
     </g>
     <g id="line2d_8">
      <g>
       <use xlink:href="#m88084770fd" x="359.475625" y="330.879062" style="stroke: #000000; stroke-width: 0.8"/>
      </g>
     </g>
     <g id="text_4">
      <!-- 1.0 -->
      <g transform="translate(349.93375 346.997187) scale(0.12 -0.12)">
       <defs>
        <path id="DejaVuSans-31" d="M 794 531 
L 1825 531 
L 1825 4091 
L 703 3866 
L 703 4441 
L 1819 4666 
L 2450 4666 
L 2450 531 
L 3481 531 
L 3481 0 
L 794 0 
L 794 531 
z
" transform="scale(0.015625)"/>
       </defs>
       <use xlink:href="#DejaVuSans-31"/>
       <use xlink:href="#DejaVuSans-2e" x="63.623047"/>
       <use xlink:href="#DejaVuSans-30" x="95.410156"/>
      </g>
     </g>
    </g>
    <g id="xtick_5">
     <g id="line2d_9">
      <path d="M 459.649792 330.879062 
L 459.649792 11.759062 
" clip-path="url(#p9daf0f86ef)" style="fill: none; stroke: #e6e6e6; stroke-width: 0.8; stroke-linecap: square"/>
     </g>
     <g id="line2d_10">
      <g>
       <use xlink:href="#m88084770fd" x="459.649792" y="330.879062" style="stroke: #000000; stroke-width: 0.8"/>
      </g>
     </g>
     <g id="text_5">
      <!-- 1.5 -->
      <g transform="translate(450.107917 346.997187) scale(0.12 -0.12)">
       <use xlink:href="#DejaVuSans-31"/>
       <use xlink:href="#DejaVuSans-2e" x="63.623047"/>
       <use xlink:href="#DejaVuSans-35" x="95.410156"/>
      </g>
     </g>
    </g>
    <g id="xtick_6">
     <g id="line2d_11">
      <path d="M 559.823958 330.879062 
L 559.823958 11.759062 
" clip-path="url(#p9daf0f86ef)" style="fill: none; stroke: #e6e6e6; stroke-width: 0.8; stroke-linecap: square"/>
     </g>
     <g id="line2d_12">
      <g>
       <use xlink:href="#m88084770fd" x="559.823958" y="330.879062" style="stroke: #000000; stroke-width: 0.8"/>
      </g>
     </g>
     <g id="text_6">
      <!-- 2.0 -->
      <g transform="translate(550.282083 346.997187) scale(0.12 -0.12)">
       <defs>
        <path id="DejaVuSans-32" d="M 1228 531 
L 3431 531 
L 3431 0 
L 469 0 
L 469 531 
Q 828 903 1448 1529 
Q 2069 2156 2228 2338 
Q 2531 2678 2651 2914 
Q 2772 3150 2772 3378 
Q 2772 3750 2511 3984 
Q 2250 4219 1831 4219 
Q 1534 4219 1204 4116 
Q 875 4013 500 3803 
L 500 4441 
Q 881 4594 1212 4672 
Q 1544 4750 1819 4750 
Q 2544 4750 2975 4387 
Q 3406 4025 3406 3419 
Q 3406 3131 3298 2873 
Q 3191 2616 2906 2266 
Q 2828 2175 2409 1742 
Q 1991 1309 1228 531 
z
" transform="scale(0.015625)"/>
       </defs>
       <use xlink:href="#DejaVuSans-32"/>
       <use xlink:href="#DejaVuSans-2e" x="63.623047"/>
       <use xlink:href="#DejaVuSans-30" x="95.410156"/>
      </g>
     </g>
    </g>
    <g id="xtick_7">
     <g id="line2d_13">
      <path d="M 659.998125 330.879062 
L 659.998125 11.759062 
" clip-path="url(#p9daf0f86ef)" style="fill: none; stroke: #e6e6e6; stroke-width: 0.8; stroke-linecap: square"/>
     </g>
     <g id="line2d_14">
      <g>
       <use xlink:href="#m88084770fd" x="659.998125" y="330.879062" style="stroke: #000000; stroke-width: 0.8"/>
      </g>
     </g>
     <g id="text_7">
      <!-- 2.5 -->
      <g transform="translate(650.45625 346.997187) scale(0.12 -0.12)">
       <use xlink:href="#DejaVuSans-32"/>
       <use xlink:href="#DejaVuSans-2e" x="63.623047"/>
       <use xlink:href="#DejaVuSans-35" x="95.410156"/>
      </g>
     </g>
    </g>
    <g id="text_8">
     <!-- $\beta_0$ -->
     <g transform="translate(353.595625 362.610937) scale(0.12 -0.12)">
      <defs>
       <path id="Cmmi10-af" d="M 172 -1241 
Q 153 -1241 137 -1219 
Q 122 -1197 122 -1178 
L 1106 2778 
Q 1191 3097 1353 3397 
Q 1516 3697 1761 3955 
Q 2006 4213 2300 4363 
Q 2594 4513 2925 4513 
Q 3163 4513 3355 4408 
Q 3547 4303 3658 4114 
Q 3769 3925 3769 3688 
Q 3769 3459 3681 3251 
Q 3594 3044 3437 2864 
Q 3281 2684 3103 2572 
Q 3206 2506 3287 2404 
Q 3369 2303 3419 2192 
Q 3469 2081 3497 1945 
Q 3525 1809 3525 1691 
Q 3525 1363 3384 1044 
Q 3244 725 3001 465 
Q 2759 206 2446 54 
Q 2134 -97 1806 -97 
Q 1447 -97 1159 100 
Q 872 297 763 634 
L 300 -1203 
Q 300 -1241 250 -1241 
L 172 -1241 
z
M 1819 78 
Q 2106 78 2339 267 
Q 2572 456 2723 742 
Q 2875 1028 2954 1348 
Q 3034 1669 3034 1931 
Q 3034 2256 2847 2444 
Q 2628 2363 2419 2363 
Q 1913 2363 1913 2534 
Q 1913 2759 2491 2759 
Q 2697 2759 2869 2694 
Q 3006 2800 3118 3006 
Q 3231 3213 3289 3438 
Q 3347 3663 3347 3859 
Q 3347 4069 3236 4208 
Q 3125 4347 2913 4347 
Q 2522 4347 2186 4106 
Q 1850 3866 1619 3498 
Q 1388 3131 1288 2741 
L 934 1325 
Q 900 1178 891 997 
Q 891 597 1153 337 
Q 1416 78 1819 78 
z
M 2106 2553 
Q 2203 2528 2425 2528 
Q 2534 2528 2644 2566 
Q 2638 2572 2619 2572 
Q 2550 2591 2472 2591 
Q 2181 2591 2106 2553 
z
" transform="scale(0.015625)"/>
       <path id="Cmr10-30" d="M 1600 -141 
Q 816 -141 533 504 
Q 250 1150 250 2041 
Q 250 2597 351 3087 
Q 453 3578 754 3920 
Q 1056 4263 1600 4263 
Q 2022 4263 2290 4056 
Q 2559 3850 2700 3523 
Q 2841 3197 2892 2823 
Q 2944 2450 2944 2041 
Q 2944 1491 2842 1011 
Q 2741 531 2444 195 
Q 2147 -141 1600 -141 
z
M 1600 25 
Q 1956 25 2131 390 
Q 2306 756 2347 1200 
Q 2388 1644 2388 2144 
Q 2388 2625 2347 3031 
Q 2306 3438 2132 3767 
Q 1959 4097 1600 4097 
Q 1238 4097 1063 3765 
Q 888 3434 847 3029 
Q 806 2625 806 2144 
Q 806 1788 823 1472 
Q 841 1156 916 820 
Q 991 484 1158 254 
Q 1325 25 1600 25 
z
" transform="scale(0.015625)"/>
      </defs>
      <use xlink:href="#Cmmi10-af" transform="translate(0 0.484375)"/>
      <use xlink:href="#Cmr10-30" transform="translate(56.494141 -16.521875) scale(0.7)"/>
     </g>
    </g>
   </g>
   <g id="matplotlib.axis_2">
    <g id="ytick_1">
     <g id="line2d_15">
      <path d="M 58.953125 330.879062 
L 659.998125 330.879062 
" clip-path="url(#p9daf0f86ef)" style="fill: none; stroke: #e6e6e6; stroke-width: 0.8; stroke-linecap: square"/>
     </g>
     <g id="line2d_16">
      <defs>
       <path id="md6896b6691" d="M 0 0 
L -3.5 0 
" style="stroke: #000000; stroke-width: 0.8"/>
      </defs>
      <g>
       <use xlink:href="#md6896b6691" x="58.953125" y="330.879062" style="stroke: #000000; stroke-width: 0.8"/>
      </g>
     </g>
     <g id="text_9">
      <!-- −2.5 -->
      <g transform="translate(22.81375 335.438125) scale(0.12 -0.12)">
       <use xlink:href="#DejaVuSans-2212"/>
       <use xlink:href="#DejaVuSans-32" x="83.789062"/>
       <use xlink:href="#DejaVuSans-2e" x="147.412109"/>
       <use xlink:href="#DejaVuSans-35" x="179.199219"/>
      </g>
     </g>
    </g>
    <g id="ytick_2">
     <g id="line2d_17">
      <path d="M 58.953125 277.692396 
L 659.998125 277.692396 
" clip-path="url(#p9daf0f86ef)" style="fill: none; stroke: #e6e6e6; stroke-width: 0.8; stroke-linecap: square"/>
     </g>
     <g id="line2d_18">
      <g>
       <use xlink:href="#md6896b6691" x="58.953125" y="277.692396" style="stroke: #000000; stroke-width: 0.8"/>
      </g>
     </g>
     <g id="text_10">
      <!-- −2.0 -->
      <g transform="translate(22.81375 282.251458) scale(0.12 -0.12)">
       <use xlink:href="#DejaVuSans-2212"/>
       <use xlink:href="#DejaVuSans-32" x="83.789062"/>
       <use xlink:href="#DejaVuSans-2e" x="147.412109"/>
       <use xlink:href="#DejaVuSans-30" x="179.199219"/>
      </g>
     </g>
    </g>
    <g id="ytick_3">
     <g id="line2d_19">
      <path d="M 58.953125 224.505729 
L 659.998125 224.505729 
" clip-path="url(#p9daf0f86ef)" style="fill: none; stroke: #e6e6e6; stroke-width: 0.8; stroke-linecap: square"/>
     </g>
     <g id="line2d_20">
      <g>
       <use xlink:href="#md6896b6691" x="58.953125" y="224.505729" style="stroke: #000000; stroke-width: 0.8"/>
      </g>
     </g>
     <g id="text_11">
      <!-- −1.5 -->
      <g transform="translate(22.81375 229.064792) scale(0.12 -0.12)">
       <use xlink:href="#DejaVuSans-2212"/>
       <use xlink:href="#DejaVuSans-31" x="83.789062"/>
       <use xlink:href="#DejaVuSans-2e" x="147.412109"/>
       <use xlink:href="#DejaVuSans-35" x="179.199219"/>
      </g>
     </g>
    </g>
    <g id="ytick_4">
     <g id="line2d_21">
      <path d="M 58.953125 171.319062 
L 659.998125 171.319062 
" clip-path="url(#p9daf0f86ef)" style="fill: none; stroke: #e6e6e6; stroke-width: 0.8; stroke-linecap: square"/>
     </g>
     <g id="line2d_22">
      <g>
       <use xlink:href="#md6896b6691" x="58.953125" y="171.319062" style="stroke: #000000; stroke-width: 0.8"/>
      </g>
     </g>
     <g id="text_12">
      <!-- −1.0 -->
      <g transform="translate(22.81375 175.878125) scale(0.12 -0.12)">
       <use xlink:href="#DejaVuSans-2212"/>
       <use xlink:href="#DejaVuSans-31" x="83.789062"/>
       <use xlink:href="#DejaVuSans-2e" x="147.412109"/>
       <use xlink:href="#DejaVuSans-30" x="179.199219"/>
      </g>
     </g>
    </g>
    <g id="ytick_5">
     <g id="line2d_23">
      <path d="M 58.953125 118.132396 
L 659.998125 118.132396 
" clip-path="url(#p9daf0f86ef)" style="fill: none; stroke: #e6e6e6; stroke-width: 0.8; stroke-linecap: square"/>
     </g>
     <g id="line2d_24">
      <g>
       <use xlink:href="#md6896b6691" x="58.953125" y="118.132396" style="stroke: #000000; stroke-width: 0.8"/>
      </g>
     </g>
     <g id="text_13">
      <!-- −0.5 -->
      <g transform="translate(22.81375 122.691458) scale(0.12 -0.12)">
       <use xlink:href="#DejaVuSans-2212"/>
       <use xlink:href="#DejaVuSans-30" x="83.789062"/>
       <use xlink:href="#DejaVuSans-2e" x="147.412109"/>
       <use xlink:href="#DejaVuSans-35" x="179.199219"/>
      </g>
     </g>
    </g>
    <g id="ytick_6">
     <g id="line2d_25">
      <path d="M 58.953125 64.945729 
L 659.998125 64.945729 
" clip-path="url(#p9daf0f86ef)" style="fill: none; stroke: #e6e6e6; stroke-width: 0.8; stroke-linecap: square"/>
     </g>
     <g id="line2d_26">
      <g>
       <use xlink:href="#md6896b6691" x="58.953125" y="64.945729" style="stroke: #000000; stroke-width: 0.8"/>
      </g>
     </g>
     <g id="text_14">
      <!-- 0.0 -->
      <g transform="translate(32.869375 69.504792) scale(0.12 -0.12)">
       <use xlink:href="#DejaVuSans-30"/>
       <use xlink:href="#DejaVuSans-2e" x="63.623047"/>
       <use xlink:href="#DejaVuSans-30" x="95.410156"/>
      </g>
     </g>
    </g>
    <g id="ytick_7">
     <g id="line2d_27">
      <path d="M 58.953125 11.759062 
L 659.998125 11.759062 
" clip-path="url(#p9daf0f86ef)" style="fill: none; stroke: #e6e6e6; stroke-width: 0.8; stroke-linecap: square"/>
     </g>
     <g id="line2d_28">
      <g>
       <use xlink:href="#md6896b6691" x="58.953125" y="11.759062" style="stroke: #000000; stroke-width: 0.8"/>
      </g>
     </g>
     <g id="text_15">
      <!-- 0.5 -->
      <g transform="translate(32.869375 16.318125) scale(0.12 -0.12)">
       <use xlink:href="#DejaVuSans-30"/>
       <use xlink:href="#DejaVuSans-2e" x="63.623047"/>
       <use xlink:href="#DejaVuSans-35" x="95.410156"/>
      </g>
     </g>
    </g>
    <g id="text_16">
     <!-- $\beta_1$ -->
     <g transform="translate(16.318125 177.199062) rotate(-90) scale(0.12 -0.12)">
      <defs>
       <path id="Cmr10-31" d="M 594 0 
L 594 225 
Q 1394 225 1394 428 
L 1394 3788 
Q 1063 3628 556 3628 
L 556 3853 
Q 1341 3853 1741 4263 
L 1831 4263 
Q 1853 4263 1873 4245 
Q 1894 4228 1894 4206 
L 1894 428 
Q 1894 225 2694 225 
L 2694 0 
L 594 0 
z
" transform="scale(0.015625)"/>
      </defs>
      <use xlink:href="#Cmmi10-af" transform="translate(0 0.484375)"/>
      <use xlink:href="#Cmr10-31" transform="translate(56.494141 -16.521875) scale(0.7)"/>
     </g>
    </g>
   </g>
   <g id="PathCollection_1">
    <defs>
     <path id="m66df380f5a" d="M 0 1.118034 
C 0.296506 1.118034 0.580908 1.000231 0.790569 0.790569 
C 1.000231 0.580908 1.118034 0.296506 1.118034 0 
C 1.118034 -0.296506 1.000231 -0.580908 0.790569 -0.790569 
C 0.580908 -1.000231 0.296506 -1.118034 0 -1.118034 
C -0.296506 -1.118034 -0.580908 -1.000231 -0.790569 -0.790569 
C -1.000231 -0.580908 -1.118034 -0.296506 -1.118034 0 
C -1.118034 0.296506 -1.000231 0.580908 -0.790569 0.790569 
C -0.580908 1.000231 -0.296506 1.118034 0 1.118034 
z
" style="stroke: #000080"/>
    </defs>
    <g clip-path="url(#p9daf0f86ef)">
     <use xlink:href="#m66df380f5a" x="159.127292" y="64.945729" style="fill: #000080; stroke: #000080"/>
     <use xlink:href="#m66df380f5a" x="292.9688" y="50.616445" style="fill: #000080; stroke: #000080"/>
     <use xlink:href="#m66df380f5a" x="341.156895" y="58.690626" style="fill: #000080; stroke: #000080"/>
     <use xlink:href="#m66df380f5a" x="370.273275" y="70.596237" style="fill: #000080; stroke: #000080"/>
     <use xlink:href="#m66df380f5a" x="387.873345" y="84.465691" style="fill: #000080; stroke: #000080"/>
     <use xlink:href="#m66df380f5a" x="399.15772" y="98.84222" style="fill: #000080; stroke: #000080"/>
     <use xlink:href="#m66df380f5a" x="415.239721" y="110.735991" style="fill: #000080; stroke: #000080"/>
     <use xlink:href="#m66df380f5a" x="426.546132" y="122.892876" style="fill: #000080; stroke: #000080"/>
     <use xlink:href="#m66df380f5a" x="437.826697" y="134.046472" style="fill: #000080; stroke: #000080"/>
     <use xlink:href="#m66df380f5a" x="448.662563" y="144.370611" style="fill: #000080; stroke: #000080"/>
     <use xlink:href="#m66df380f5a" x="455.2541" y="155.027662" style="fill: #000080; stroke: #000080"/>
     <use xlink:href="#m66df380f5a" x="464.641436" y="164.10668" style="fill: #000080; stroke: #000080"/>
     <use xlink:href="#m66df380f5a" x="472.712943" y="172.788988" style="fill: #000080; stroke: #000080"/>
     <use xlink:href="#m66df380f5a" x="482.825885" y="180.164303" style="fill: #000080; stroke: #000080"/>
     <use xlink:href="#m66df380f5a" x="489.536024" y="187.828089" style="fill: #000080; stroke: #000080"/>
     <use xlink:href="#m66df380f5a" x="497.563995" y="194.458129" style="fill: #000080; stroke: #000080"/>
     <use xlink:href="#m66df380f5a" x="506.305793" y="200.354898" style="fill: #000080; stroke: #000080"/>
     <use xlink:href="#m66df380f5a" x="507.985694" y="207.623148" style="fill: #000080; stroke: #000080"/>
     <use xlink:href="#m66df380f5a" x="513.091298" y="213.477135" style="fill: #000080; stroke: #000080"/>
     <use xlink:href="#m66df380f5a" x="516.206938" y="219.397296" style="fill: #000080; stroke: #000080"/>
     <use xlink:href="#m66df380f5a" x="524.84665" y="223.312214" style="fill: #000080; stroke: #000080"/>
     <use xlink:href="#m66df380f5a" x="530.176903" y="227.789529" style="fill: #000080; stroke: #000080"/>
     <use xlink:href="#m66df380f5a" x="532.919494" y="232.555057" style="fill: #000080; stroke: #000080"/>
     <use xlink:href="#m66df380f5a" x="538.123178" y="236.306621" style="fill: #000080; stroke: #000080"/>
     <use xlink:href="#m66df380f5a" x="541.826239" y="240.115767" style="fill: #000080; stroke: #000080"/>
     <use xlink:href="#m66df380f5a" x="544.447987" y="243.865833" style="fill: #000080; stroke: #000080"/>
     <use xlink:href="#m66df380f5a" x="546.697276" y="247.470125" style="fill: #000080; stroke: #000080"/>
     <use xlink:href="#m66df380f5a" x="551.883489" y="249.977495" style="fill: #000080; stroke: #000080"/>
     <use xlink:href="#m66df380f5a" x="553.291549" y="253.27568" style="fill: #000080; stroke: #000080"/>
     <use xlink:href="#m66df380f5a" x="555.953117" y="255.950549" style="fill: #000080; stroke: #000080"/>
     <use xlink:href="#m66df380f5a" x="558.155298" y="258.546069" style="fill: #000080; stroke: #000080"/>
     <use xlink:href="#m66df380f5a" x="560.558477" y="260.862076" style="fill: #000080; stroke: #000080"/>
     <use xlink:href="#m66df380f5a" x="564.32423" y="262.598669" style="fill: #000080; stroke: #000080"/>
     <use xlink:href="#m66df380f5a" x="564.76073" y="265.125535" style="fill: #000080; stroke: #000080"/>
     <use xlink:href="#m66df380f5a" x="567.933593" y="266.648143" style="fill: #000080; stroke: #000080"/>
     <use xlink:href="#m66df380f5a" x="569.875736" y="268.385783" style="fill: #000080; stroke: #000080"/>
     <use xlink:href="#m66df380f5a" x="569.837005" y="270.547409" style="fill: #000080; stroke: #000080"/>
     <use xlink:href="#m66df380f5a" x="571.91493" y="271.957684" style="fill: #000080; stroke: #000080"/>
     <use xlink:href="#m66df380f5a" x="573.516943" y="273.382555" style="fill: #000080; stroke: #000080"/>
     <use xlink:href="#m66df380f5a" x="574.635029" y="274.80185" style="fill: #000080; stroke: #000080"/>
     <use xlink:href="#m66df380f5a" x="575.870723" y="276.088462" style="fill: #000080; stroke: #000080"/>
     <use xlink:href="#m66df380f5a" x="573.848037" y="278.170744" style="fill: #000080; stroke: #000080"/>
     <use xlink:href="#m66df380f5a" x="578.223652" y="278.343919" style="fill: #000080; stroke: #000080"/>
     <use xlink:href="#m66df380f5a" x="579.646518" y="279.288313" style="fill: #000080; stroke: #000080"/>
     <use xlink:href="#m66df380f5a" x="580.569964" y="280.277847" style="fill: #000080; stroke: #000080"/>
     <use xlink:href="#m66df380f5a" x="580.61649" y="281.470163" style="fill: #000080; stroke: #000080"/>
     <use xlink:href="#m66df380f5a" x="583.041998" y="281.895208" style="fill: #000080; stroke: #000080"/>
     <use xlink:href="#m66df380f5a" x="583.433316" y="282.823443" style="fill: #000080; stroke: #000080"/>
     <use xlink:href="#m66df380f5a" x="584.914345" y="283.353399" style="fill: #000080; stroke: #000080"/>
     <use xlink:href="#m66df380f5a" x="584.104038" y="284.476085" style="fill: #000080; stroke: #000080"/>
    </g>
   </g>
   <g id="QuadContourSet_1">
    <path d="M 593.215347 292.240634 
L 593.198856 292.19785 
L 593.215347 292.179928 
L 593.229955 292.19785 
L 593.215347 292.240634 
" clip-path="url(#p9daf0f86ef)" style="fill: none; stroke: #3b4cc0; stroke-opacity: 0.9"/>
    <path d="M 611.428832 318.019288 
L 611.372289 317.985325 
L 605.35767 314.799053 
L 605.306325 314.761891 
L 600.688501 311.538456 
L 599.286509 310.687103 
L 596.416761 308.315022 
L 593.215347 305.980318 
L 592.252254 305.091588 
L 588.651983 301.868153 
L 587.144186 300.612938 
L 585.271771 298.644719 
L 581.978441 295.421285 
L 581.073024 294.54615 
L 579.144919 292.19785 
L 576.363908 288.974416 
L 575.001862 287.411114 
L 573.85165 285.750982 
L 571.777412 282.527547 
L 569.665402 279.304113 
L 568.930701 277.932611 
L 568.189177 276.080679 
L 567.54013 272.857244 
L 568.182546 269.63381 
L 568.930701 268.881083 
L 575.001862 269.118846 
L 576.048291 269.63381 
L 581.073024 271.768027 
L 582.749295 272.857244 
L 587.144186 275.369097 
L 588.068939 276.080679 
L 592.613597 279.304113 
L 593.215347 279.69909 
L 596.426818 282.527547 
L 599.286509 284.743703 
L 600.322403 285.750982 
L 603.714731 288.974416 
L 605.35767 290.431057 
L 606.948974 292.19785 
L 609.963339 295.421285 
L 611.428832 296.934423 
L 612.754124 298.644719 
L 615.202145 301.868153 
L 617.499994 304.697511 
L 617.756544 305.091588 
L 619.459543 308.315022 
L 620.969294 311.538456 
L 622.02706 314.761891 
L 621.539885 317.985325 
L 617.499994 319.748365 
L 611.428832 318.019288 
z
" clip-path="url(#p9daf0f86ef)" style="fill: none; stroke: #3b4cc0; stroke-opacity: 0.9"/>
    <path d="M 615.08441 330.879062 
L 611.428832 328.810015 
L 609.752462 327.655628 
L 605.35767 324.839364 
L 604.818323 324.432194 
L 600.416323 321.208759 
L 599.286509 320.426752 
L 596.289341 317.985325 
L 593.215347 315.654878 
L 592.191342 314.761891 
L 588.396072 311.538456 
L 587.144186 310.514544 
L 584.804552 308.315022 
L 581.127682 305.091588 
L 581.073024 305.043103 
L 577.956797 301.868153 
L 575.001862 299.081006 
L 574.592293 298.644719 
L 571.640121 295.421285 
L 568.930701 292.652121 
L 568.53692 292.19785 
L 565.84672 288.974416 
L 562.967096 285.750982 
L 562.859539 285.624114 
L 560.568946 282.527547 
L 558.094692 279.304113 
L 556.788378 277.577723 
L 555.799297 276.080679 
L 553.796541 272.857244 
L 551.798099 269.63381 
L 550.717216 267.745033 
L 550.06318 266.410376 
L 548.771973 263.186941 
L 547.757644 259.963507 
L 547.216267 256.740073 
L 547.586253 253.516638 
L 550.090179 250.293204 
L 550.717216 249.939041 
L 556.788378 249.84893 
L 558.196735 250.293204 
L 562.859539 251.620429 
L 567.118666 253.516638 
L 568.930701 254.251584 
L 573.439874 256.740073 
L 575.001862 257.531648 
L 578.795112 259.963507 
L 581.073024 261.313557 
L 583.686383 263.186941 
L 587.144186 265.491563 
L 588.319203 266.410376 
L 592.650852 269.63381 
L 593.215347 270.040461 
L 596.551387 272.857244 
L 599.286509 275.004689 
L 600.481504 276.080679 
L 604.165748 279.304113 
L 605.35767 280.314457 
L 607.635871 282.527547 
L 611.172574 285.750982 
L 611.428832 285.986769 
L 614.264188 288.974416 
L 617.499994 292.127743 
L 617.56384 292.19785 
L 620.374067 295.421285 
L 623.403642 298.644719 
L 623.571155 298.830006 
L 625.972975 301.868153 
L 628.647349 305.091588 
L 629.642317 306.313603 
L 631.068234 308.315022 
L 633.322462 311.538456 
L 635.652038 314.761891 
L 635.713479 314.857571 
L 637.438193 317.985325 
L 639.132326 321.208759 
L 640.70631 324.432194 
L 641.78464 327.072413 
L 641.984139 327.655628 
L 642.581162 330.879062 
" clip-path="url(#p9daf0f86ef)" style="fill: none; stroke: #3b4cc0; stroke-opacity: 0.9"/>
    <path d="M 591.437857 330.879062 
L 587.480492 327.655628 
L 587.144186 327.383198 
L 583.792676 324.432194 
L 581.073024 322.135932 
L 580.056234 321.208759 
L 576.481383 317.985325 
L 575.001862 316.679874 
L 572.988684 314.761891 
L 569.500933 311.538456 
L 568.930701 311.011736 
L 566.226238 308.315022 
L 562.859539 305.101539 
L 562.849829 305.091588 
L 559.766326 301.868153 
L 556.788378 298.893348 
L 556.556515 298.644719 
L 553.606406 295.421285 
L 550.717216 292.394989 
L 550.541852 292.19785 
L 547.743965 288.974416 
L 544.827954 285.750982 
L 544.646054 285.544917 
L 542.176519 282.527547 
L 539.457324 279.304113 
L 538.574893 278.245418 
L 536.901611 276.080679 
L 534.400026 272.857244 
L 532.503731 270.440291 
L 531.916811 269.63381 
L 529.653262 266.410376 
L 527.349662 263.186941 
L 526.432569 261.865986 
L 525.214268 259.963507 
L 523.210544 256.740073 
L 521.208995 253.516638 
L 520.361408 252.076945 
L 519.399076 250.293204 
L 517.776412 247.06977 
L 516.229158 243.846335 
L 514.781292 240.622901 
L 514.290246 239.331827 
L 513.628246 237.399467 
L 512.763095 234.176032 
L 512.169564 230.952598 
L 511.956669 227.729164 
L 512.300768 224.505729 
L 513.507075 221.282295 
L 514.290246 220.187637 
L 517.714491 218.05886 
L 520.361408 217.144781 
L 526.432569 217.068838 
L 531.81176 218.05886 
L 532.503731 218.177796 
L 538.574893 220.111569 
L 541.412726 221.282295 
L 544.646054 222.546353 
L 548.753804 224.505729 
L 550.717216 225.39568 
L 555.078576 227.729164 
L 556.788378 228.600619 
L 560.791228 230.952598 
L 562.859539 232.112905 
L 566.106708 234.176032 
L 568.930701 235.892626 
L 571.14987 237.399467 
L 575.001862 239.906497 
L 575.998198 240.622901 
L 580.626431 243.846335 
L 581.073024 244.150497 
L 584.954243 247.06977 
L 587.144186 248.648667 
L 589.228221 250.293204 
L 593.215347 253.314269 
L 593.461201 253.516638 
L 597.388012 256.740073 
L 599.286509 258.241752 
L 601.29075 259.963507 
L 605.185303 263.186941 
L 605.35767 263.329502 
L 608.788432 266.410376 
L 611.428832 268.683392 
L 612.45203 269.63381 
L 615.957245 272.857244 
L 617.499994 274.245499 
L 619.3905 276.080679 
L 622.80015 279.304113 
L 623.571155 280.030622 
L 626.028074 282.527547 
L 629.320074 285.750982 
L 629.642317 286.069559 
L 632.367258 288.974416 
L 635.519908 292.19785 
L 635.713479 292.399054 
L 638.410529 295.421285 
L 641.402509 298.644719 
L 641.78464 299.063302 
L 644.160337 301.868153 
L 646.970701 305.091588 
L 647.855802 306.115943 
L 649.619107 308.315022 
L 652.227272 311.538456 
L 653.926963 313.622718 
L 654.789235 314.761891 
L 657.17498 317.985325 
L 659.619965 321.208759 
L 659.998125 321.727893 
" clip-path="url(#p9daf0f86ef)" style="fill: none; stroke: #3d50c3; stroke-opacity: 0.9"/>
    <path d="M 560.904427 330.879062 
L 554.003609 324.432194 
L 550.56267 321.208759 
L 537.536956 308.315022 
L 526.432569 296.756183 
L 514.290246 283.356313 
L 505.370901 272.857244 
L 500.099676 266.410376 
L 495.004952 259.963507 
L 487.792775 250.293204 
L 483.198837 243.846335 
L 476.803701 234.176032 
L 470.968707 224.505729 
L 465.720953 214.710867 
L 462.874412 208.388557 
L 460.259972 201.941689 
L 459.163562 198.718254 
L 458.261944 195.49482 
L 457.510603 192.271386 
L 456.942132 189.047951 
L 456.599282 185.824517 
L 456.539258 182.601083 
L 456.840384 179.377648 
L 457.612851 176.154214 
L 459.016752 172.93078 
L 459.649792 171.954919 
L 461.872866 169.707345 
L 465.720953 167.192546 
L 468.002537 166.483911 
L 471.792115 165.61438 
L 477.863277 165.420387 
L 483.934438 166.058246 
L 490.0056 167.320966 
L 496.076761 169.030021 
L 502.147923 171.121677 
L 508.219085 173.50522 
L 514.292178 176.154214 
L 520.964223 179.377648 
L 527.199465 182.601083 
L 533.097474 185.824517 
L 538.729691 189.047951 
L 549.211308 195.49482 
L 550.717216 196.422186 
L 563.839114 205.165123 
L 572.93158 211.611992 
L 577.337917 214.835426 
L 581.70368 218.05886 
L 594.160008 227.729164 
L 606.00045 237.399467 
L 617.499994 247.247923 
L 631.511215 259.963507 
L 638.334668 266.410376 
L 641.78464 269.67449 
L 654.629117 282.527547 
L 659.998125 288.102779 
L 659.998125 288.102779 
" clip-path="url(#p9daf0f86ef)" style="fill: none; stroke: #4257c9; stroke-opacity: 0.9"/>
    <path d="M 535.927482 330.879062 
L 529.27421 324.432194 
L 522.75708 317.985325 
L 516.375576 311.538456 
L 510.129185 305.091588 
L 504.017395 298.644719 
L 498.039697 292.19785 
L 492.195585 285.750982 
L 486.484556 279.304113 
L 480.906109 272.857244 
L 475.459745 266.410376 
L 470.144968 259.963507 
L 462.459879 250.293204 
L 457.507692 243.846335 
L 452.689574 237.399467 
L 445.8067 227.729164 
L 439.29299 218.05886 
L 435.131175 211.611992 
L 429.293984 201.907862 
L 423.222822 190.738776 
L 420.82049 185.824517 
L 417.15166 177.800959 
L 415.228033 172.93078 
L 412.96034 166.483911 
L 411.063765 160.037042 
L 410.369599 156.813608 
L 409.813492 153.590174 
L 409.418264 150.366739 
L 409.212055 147.143305 
L 409.229976 143.919871 
L 409.516407 140.696436 
L 410.128275 137.473002 
L 411.150711 134.249568 
L 412.966299 131.026133 
L 415.623022 127.802699 
L 417.15166 126.418068 
L 420.198142 124.579265 
L 423.222822 123.187361 
L 429.293984 121.737845 
L 435.613764 121.35583 
L 441.436307 121.679722 
L 447.507468 122.554801 
L 453.57863 123.831796 
L 459.649792 125.463131 
L 466.869595 127.802699 
L 471.792115 129.569815 
L 477.863277 131.971136 
L 483.934438 134.569086 
L 490.241405 137.473002 
L 496.798966 140.696436 
L 503.035939 143.919871 
L 509.009384 147.143305 
L 514.763579 150.366739 
L 520.361408 153.607985 
L 532.503731 161.035747 
L 545.826356 169.707345 
L 555.265098 176.154214 
L 559.841974 179.377648 
L 568.930701 185.878835 
L 581.744792 195.49482 
L 594.109901 205.165123 
L 606.013718 214.835426 
L 617.505643 224.505729 
L 635.771963 240.622901 
L 653.052219 256.740073 
L 659.998125 263.438498 
L 659.998125 263.438498 
" clip-path="url(#p9daf0f86ef)" style="fill: none; stroke: #485fd1; stroke-opacity: 0.9"/>
    <path d="M 485.008233 330.879062 
L 477.863277 323.694776 
L 459.649792 304.833155 
L 441.992237 285.750982 
L 435.365145 278.374639 
L 422.095004 263.186941 
L 411.080499 250.164668 
L 398.098162 234.176032 
L 386.795852 219.663151 
L 378.382246 208.388557 
L 371.39889 198.718254 
L 366.8689 192.271386 
L 360.295551 182.601083 
L 353.981519 172.93078 
L 347.94436 163.260477 
L 342.203253 153.590174 
L 336.779191 143.919871 
L 331.695197 134.249568 
L 327.026222 124.579265 
L 324.159453 118.132396 
L 320.204129 108.462093 
L 319.032185 105.238658 
L 316.866771 98.79179 
L 314.944222 92.344921 
L 313.941913 88.490454 
L 312.720446 82.674618 
L 311.745786 76.227749 
L 311.429675 73.004315 
L 311.245417 69.780881 
L 311.208971 66.557446 
L 311.338978 63.334012 
L 311.657352 60.110578 
L 312.190034 56.887143 
L 312.967951 53.663709 
L 314.038214 50.440275 
L 315.595699 47.21684 
L 317.607069 43.993406 
L 320.18899 40.769972 
L 323.975635 37.546537 
L 326.084236 36.079986 
L 329.496193 34.323103 
L 332.155398 33.168776 
L 338.226559 31.426784 
L 344.297721 30.513924 
L 350.368883 30.205185 
L 356.440044 30.367611 
L 363.753494 31.099669 
L 368.582367 31.805638 
L 374.653529 32.976244 
L 380.724691 34.376361 
L 386.795852 36.023048 
L 392.867014 37.844252 
L 401.454109 40.769972 
L 405.009337 42.034851 
L 411.080499 44.35164 
L 418.075306 47.21684 
L 425.488553 50.440275 
L 432.548728 53.663709 
L 439.308154 56.887143 
L 445.809304 60.110578 
L 452.08701 63.334012 
L 458.170113 66.557446 
L 465.720953 70.671042 
L 477.863277 77.595628 
L 491.700024 85.898052 
L 502.147923 92.395652 
L 516.919155 102.015224 
L 526.548306 108.462093 
L 540.44996 118.132396 
L 550.717216 125.46023 
L 568.930701 138.943022 
L 587.904492 153.590174 
L 600.023951 163.260477 
L 615.708364 176.154214 
L 623.571155 182.745391 
L 642.059325 198.718254 
L 659.998125 214.780994 
L 659.998125 214.780994 
" clip-path="url(#p9daf0f86ef)" style="fill: none; stroke: #5a78e4; stroke-opacity: 0.9"/>
    <path d="M 426.937719 330.879062 
L 414.448717 317.985325 
L 405.009337 308.087014 
L 386.795852 288.490841 
L 368.582367 268.245205 
L 352.959469 250.293204 
L 344.297721 240.121343 
L 328.731215 221.282295 
L 320.013074 210.457218 
L 307.870751 194.944711 
L 295.728428 178.888187 
L 283.586105 162.197696 
L 273.081011 147.143305 
L 266.55077 137.473002 
L 260.20962 127.802699 
L 254.06677 118.132396 
L 248.132039 108.462093 
L 242.415903 98.79179 
L 238.736028 92.344921 
L 233.400547 82.674618 
L 228.311885 73.004315 
L 222.874489 62.020228 
L 219.012612 53.663709 
L 216.165141 47.21684 
L 212.217035 37.546537 
L 209.777709 31.099669 
L 206.48144 21.429366 
L 204.50244 14.982497 
L 203.623867 11.759062 
M 464.538715 11.759062 
L 471.792115 16.385869 
L 490.0056 28.33909 
L 508.26574 40.769972 
L 526.564404 53.663709 
L 544.646054 66.817229 
L 562.859539 80.47732 
L 582.379719 95.568355 
L 598.622196 108.462093 
L 606.586971 114.908961 
L 623.571155 128.892381 
L 645.098514 147.143305 
L 656.251254 156.813608 
L 659.998125 160.077547 
L 659.998125 160.077547 
" clip-path="url(#p9daf0f86ef)" style="fill: none; stroke: #7da0f9; stroke-opacity: 0.9"/>
    <path d="M 344.362509 330.879062 
L 332.042461 317.985325 
L 310.921988 295.421285 
L 299.087005 282.527547 
L 287.427777 269.63381 
L 273.101722 253.516638 
L 261.845755 240.622901 
L 250.765982 227.729164 
L 239.861963 214.835426 
L 223.85549 195.49482 
L 213.425506 182.601083 
L 203.173481 169.707345 
L 190.637128 153.590174 
L 178.408342 137.473002 
L 166.496485 121.35583 
L 154.9113 105.238658 
L 143.662934 89.121487 
L 131.807064 71.535544 
L 122.280688 56.887143 
L 114.140652 43.993406 
L 107.522418 33.175183 
L 98.698022 18.205931 
L 94.996783 11.759062 
M 573.156191 11.759062 
L 587.144186 22.757602 
L 611.428832 42.263518 
L 635.713479 62.273647 
L 659.998125 82.788965 
L 659.998125 82.788965 
" clip-path="url(#p9daf0f86ef)" style="fill: none; stroke: #c1d4f4; stroke-opacity: 0.9"/>
    <path d="M 280.889159 330.879062 
L 277.80367 327.655628 
L 277.514943 327.353437 
L 274.748653 324.432194 
L 271.680803 321.208759 
L 271.443782 320.959208 
L 268.64431 317.985325 
L 265.594399 314.761891 
L 265.37262 314.526989 
L 262.576094 311.538456 
L 259.544421 308.315022 
L 259.301458 308.056134 
L 256.543968 305.091588 
L 253.530831 301.868153 
L 253.230297 301.545982 
L 250.547895 298.644719 
L 247.553592 295.421285 
L 247.159135 294.995856 
L 244.587838 292.19785 
L 241.612666 288.974416 
L 241.087973 288.405064 
L 238.663762 285.750982 
L 235.708017 282.527547 
L 235.016812 281.772896 
L 232.775629 279.304113 
L 229.839607 276.080679 
L 228.94565 275.098629 
L 226.923403 272.857244 
L 224.007399 269.63381 
L 222.874489 268.38152 
L 221.107047 266.410376 
L 218.211355 263.186941 
L 216.803327 261.62081 
L 215.326525 259.963507 
L 212.45144 256.740073 
L 210.732165 254.81572 
L 209.581801 253.516638 
L 206.727615 250.293204 
L 204.661004 247.965455 
L 203.872837 247.06977 
L 201.039845 243.846335 
L 198.589842 241.069199 
L 198.199599 240.622901 
L 195.388091 237.399467 
L 192.562815 234.176032 
L 192.518681 234.125498 
L 189.772318 230.952598 
L 186.969199 227.729164 
L 186.447519 227.127946 
L 184.192488 224.505729 
L 181.411823 221.282295 
L 180.376357 220.081144 
L 178.648564 218.05886 
L 175.890647 214.835426 
L 174.305196 212.984167 
L 173.140511 211.611992 
L 170.405637 208.388557 
L 168.234034 205.83607 
L 167.668291 205.165123 
L 164.956753 201.941689 
L 162.233094 198.718254 
L 162.162872 198.634817 
L 159.543959 195.49482 
L 156.844345 192.271386 
L 156.091711 191.371028 
L 154.167218 189.047951 
L 151.491947 185.824517 
L 150.020549 184.052289 
L 148.826493 182.601083 
L 146.175861 179.377648 
L 143.949388 176.677525 
L 143.521746 176.154214 
L 140.89605 172.93078 
L 138.259651 169.707345 
L 137.878226 169.239409 
L 135.652476 166.483911 
L 133.041755 163.260477 
L 131.807064 161.735058 
L 130.445101 160.037042 
L 127.860357 156.813608 
L 125.735903 154.170275 
L 125.273888 153.590174 
L 122.715421 150.366739 
L 120.147356 147.143305 
L 119.664741 146.535472 
L 117.606907 143.919871 
L 115.065891 140.696436 
L 113.59358 138.828597 
L 112.534779 137.473002 
L 110.021113 134.249568 
L 107.522418 131.05634 
L 107.498997 131.026133 
L 105.012984 127.802699 
L 102.518591 124.579265 
L 101.451256 123.197654 
L 100.041465 121.35583 
L 97.575528 118.132396 
L 95.380095 115.269072 
L 95.106518 114.908961 
L 92.669343 111.685527 
L 90.224595 108.462093 
L 89.308933 107.251788 
L 87.799996 105.238658 
L 85.38484 102.015224 
L 83.237771 99.155238 
L 82.967447 98.79179 
L 80.582193 95.568355 
L 78.190246 92.344921 
L 77.16661 90.962218 
L 75.816615 89.121487 
L 73.455428 85.898052 
L 71.095448 82.684763 
L 71.088067 82.674618 
L 68.757953 79.451184 
L 66.422098 76.227749 
L 65.024287 74.296541 
L 64.09778 73.004315 
L 61.793887 69.780881 
L 59.484685 66.557446 
L 58.953125 65.811889 
M 646.00501 11.759062 
L 647.855802 13.299769 
L 649.857266 14.982497 
L 653.708537 18.205931 
L 653.926963 18.388733 
L 657.524352 21.429366 
L 659.998125 23.509736 
" clip-path="url(#p9daf0f86ef)" style="fill: none; stroke: #f2cab5; stroke-opacity: 0.9"/>
    <path d="M 180.092213 330.879062 
L 177.047841 327.655628 
L 174.305196 324.762736 
L 173.993968 324.432194 
L 170.963446 321.208759 
L 168.234034 318.316545 
L 167.923601 317.985325 
L 164.907106 314.761891 
L 162.162872 311.8405 
L 161.881089 311.538456 
L 158.878799 308.315022 
L 156.091711 305.33421 
L 155.86641 305.091588 
L 152.878503 301.868153 
L 150.020549 298.797275 
L 149.879543 298.644719 
L 146.906195 295.421285 
L 143.949388 292.229288 
L 143.920466 292.19785 
L 140.961854 288.974416 
L 137.990666 285.750982 
L 137.878226 285.628735 
L 135.045456 282.527547 
L 132.089383 279.304113 
L 131.807064 278.995708 
L 129.156981 276.080679 
L 126.2162 272.857244 
L 125.735903 272.330052 
L 123.296406 269.63381 
L 120.371096 266.410376 
L 119.664741 265.631324 
L 117.46371 263.186941 
L 114.554046 259.963507 
L 113.59358 258.899071 
L 111.658869 256.740073 
L 108.765031 253.516638 
L 107.522418 252.132829 
L 105.881862 250.293204 
L 103.004026 247.06977 
L 101.451256 245.332131 
L 100.132668 243.846335 
L 97.27101 240.622901 
L 95.380095 238.496496 
L 94.411264 237.399467 
L 91.565961 234.176032 
L 89.308933 231.625438 
L 88.717628 230.952598 
L 85.888857 227.729164 
L 83.237771 224.71846 
L 83.051738 224.505729 
L 80.239674 221.282295 
L 77.416948 218.05886 
L 77.16661 217.772333 
L 74.618392 214.835426 
L 71.812777 211.611992 
L 71.095448 210.786833 
L 69.024988 208.388557 
L 66.236662 205.165123 
L 65.024287 203.763454 
L 63.45944 201.941689 
L 60.688581 198.718254 
L 58.953125 196.701649 
" clip-path="url(#p9daf0f86ef)" style="fill: none; stroke: #b40426; stroke-opacity: 0.9"/>
   </g>
   <g id="patch_3">
    <path d="M 58.953125 330.879062 
L 58.953125 11.759062 
" style="fill: none; stroke: #000000; stroke-width: 0.7; stroke-linejoin: miter; stroke-linecap: square"/>
   </g>
   <g id="patch_4">
    <path d="M 659.998125 330.879062 
L 659.998125 11.759062 
" style="fill: none; stroke: #000000; stroke-width: 0.7; stroke-linejoin: miter; stroke-linecap: square"/>
   </g>
   <g id="patch_5">
    <path d="M 58.953125 330.879062 
L 659.998125 330.879062 
" style="fill: none; stroke: #000000; stroke-width: 0.7; stroke-linejoin: miter; stroke-linecap: square"/>
   </g>
   <g id="patch_6">
    <path d="M 58.953125 11.759062 
L 659.998125 11.759062 
" style="fill: none; stroke: #000000; stroke-width: 0.7; stroke-linejoin: miter; stroke-linecap: square"/>
   </g>
   <g id="patch_7">
    <path d="M 161.116452 64.732766 
Q 226.046732 57.781228 290.421171 50.889199 
" style="fill: none; stroke: #000080; stroke-width: 0.5; stroke-linecap: round"/>
    <path d="M 286.230994 49.326376 
L 290.421171 50.889199 
L 286.656807 53.303647 
" style="fill: none; stroke: #000080; stroke-width: 0.5; stroke-linecap: round"/>
   </g>
   <g id="patch_8">
    <path d="M 294.942323 50.94712 
Q 317.06377 54.65369 338.633885 58.267881 
" style="fill: none; stroke: #000080; stroke-width: 0.5; stroke-linecap: round"/>
    <path d="M 335.019383 55.634371 
L 338.633885 58.267881 
L 334.358375 59.579377 
" style="fill: none; stroke: #000080; stroke-width: 0.5; stroke-linecap: round"/>
   </g>
   <g id="patch_9">
    <path d="M 343.008657 59.447806 
Q 355.714062 64.643013 367.902035 69.626643 
" style="fill: none; stroke: #000080; stroke-width: 0.5; stroke-linecap: round"/>
    <path d="M 364.956555 66.261506 
L 367.902035 69.626643 
L 363.442638 69.963945 
" style="fill: none; stroke: #000080; stroke-width: 0.5; stroke-linecap: round"/>
   </g>
   <g id="patch_10">
    <path d="M 371.843789 71.833856 
Q 379.073917 77.531443 385.864975 82.883027 
" style="fill: none; stroke: #000080; stroke-width: 0.5; stroke-linecap: round"/>
    <path d="M 383.961141 78.836373 
L 385.864975 82.883027 
L 381.485351 81.978102 
" style="fill: none; stroke: #000080; stroke-width: 0.5; stroke-linecap: round"/>
   </g>
   <g id="patch_11">
    <path d="M 389.110329 86.041634 
Q 393.517101 91.655953 397.578717 96.830537 
" style="fill: none; stroke: #000080; stroke-width: 0.5; stroke-linecap: round"/>
    <path d="M 396.682229 92.449178 
L 397.578717 96.830537 
L 393.535737 94.918912 
" style="fill: none; stroke: #000080; stroke-width: 0.5; stroke-linecap: round"/>
   </g>
   <g id="patch_12">
    <path d="M 400.763564 100.029855 
Q 407.197608 104.788283 413.182198 109.214308 
" style="fill: none; stroke: #000080; stroke-width: 0.5; stroke-linecap: round"/>
    <path d="M 411.155409 105.227815 
L 413.182198 109.214308 
L 408.77693 108.443843 
" style="fill: none; stroke: #000080; stroke-width: 0.5; stroke-linecap: round"/>
   </g>
   <g id="patch_13">
    <path d="M 416.600576 112.19921 
Q 420.892268 116.813725 424.803253 121.018897 
" style="fill: none; stroke: #000080; stroke-width: 0.5; stroke-linecap: round"/>
    <path d="M 423.54365 116.727813 
L 424.803253 121.018897 
L 420.614624 119.451929 
" style="fill: none; stroke: #000080; stroke-width: 0.5; stroke-linecap: round"/>
   </g>
   <g id="patch_14">
    <path d="M 427.969973 124.300691 
Q 432.187236 128.470486 436.006983 132.24724 
" style="fill: none; stroke: #000080; stroke-width: 0.5; stroke-linecap: round"/>
    <path d="M 434.568781 128.012671 
L 436.006983 132.24724 
L 431.756407 130.857061 
" style="fill: none; stroke: #000080; stroke-width: 0.5; stroke-linecap: round"/>
   </g>
   <g id="patch_15">
    <path d="M 439.273772 135.425208 
Q 443.244983 139.208878 446.811468 142.606935 
" style="fill: none; stroke: #000080; stroke-width: 0.5; stroke-linecap: round"/>
    <path d="M 445.295095 138.399725 
L 446.811468 142.606935 
L 442.535877 141.295707 
" style="fill: none; stroke: #000080; stroke-width: 0.5; stroke-linecap: round"/>
   </g>
   <g id="patch_16">
    <path d="M 449.713411 146.069599 
Q 451.958229 149.69897 453.908989 152.852916 
" style="fill: none; stroke: #000080; stroke-width: 0.5; stroke-linecap: round"/>
    <path d="M 453.505819 148.39899 
L 453.908989 152.852916 
L 450.103946 150.503096 
" style="fill: none; stroke: #000080; stroke-width: 0.5; stroke-linecap: round"/>
   </g>
   <g id="patch_17">
    <path d="M 456.691078 156.417443 
Q 459.947114 159.566538 462.801323 162.327003 
" style="fill: none; stroke: #000080; stroke-width: 0.5; stroke-linecap: round"/>
    <path d="M 461.31648 158.108562 
L 462.801323 162.327003 
L 458.535665 160.983813 
" style="fill: none; stroke: #000080; stroke-width: 0.5; stroke-linecap: round"/>
   </g>
   <g id="patch_18">
    <path d="M 466.003109 165.571395 
Q 468.678197 168.448917 470.972664 170.917015 
" style="fill: none; stroke: #000080; stroke-width: 0.5; stroke-linecap: round"/>
    <path d="M 469.713962 166.625667 
L 470.972664 170.917015 
L 466.784364 169.349167 
" style="fill: none; stroke: #000080; stroke-width: 0.5; stroke-linecap: round"/>
   </g>
   <g id="patch_19">
    <path d="M 474.330125 173.96839 
Q 477.77012 176.47716 480.758452 178.656535 
" style="fill: none; stroke: #000080; stroke-width: 0.5; stroke-linecap: round"/>
    <path d="M 478.705098 174.68366 
L 480.758452 178.656535 
L 476.348139 177.915493 
" style="fill: none; stroke: #000080; stroke-width: 0.5; stroke-linecap: round"/>
   </g>
   <g id="patch_20">
    <path d="M 484.146288 181.672363 
Q 486.181914 183.997292 487.849289 185.901635 
" style="fill: none; stroke: #000080; stroke-width: 0.5; stroke-linecap: round"/>
    <path d="M 486.719041 181.57468 
L 487.849289 185.901635 
L 483.709576 184.209661 
" style="fill: none; stroke: #000080; stroke-width: 0.5; stroke-linecap: round"/>
   </g>
   <g id="patch_21">
    <path d="M 491.078508 189.101976 
Q 493.55015 191.143225 495.590765 192.828502 
" style="fill: none; stroke: #000080; stroke-width: 0.5; stroke-linecap: round"/>
    <path d="M 493.780147 188.739289 
L 495.590765 192.828502 
L 491.233024 191.823469 
" style="fill: none; stroke: #000080; stroke-width: 0.5; stroke-linecap: round"/>
   </g>
   <g id="patch_22">
    <path d="M 499.22229 195.57673 
Q 501.935673 197.407039 504.185619 198.924737 
" style="fill: none; stroke: #000080; stroke-width: 0.5; stroke-linecap: round"/>
    <path d="M 501.987962 195.029829 
L 504.185619 198.924737 
L 499.751099 198.345918 
" style="fill: none; stroke: #000080; stroke-width: 0.5; stroke-linecap: round"/>
   </g>
   <g id="patch_23">
    <path d="M 506.756118 202.303272 
Q 507.145464 203.987813 507.408924 205.127695 
" style="fill: none; stroke: #000080; stroke-width: 0.5; stroke-linecap: round"/>
    <path d="M 508.456785 200.780054 
L 507.408924 205.127695 
L 504.559527 201.680822 
" style="fill: none; stroke: #000080; stroke-width: 0.5; stroke-linecap: round"/>
   </g>
   <g id="patch_24">
    <path d="M 509.29949 209.129521 
Q 510.537197 210.548652 511.407467 211.546487 
" style="fill: none; stroke: #000080; stroke-width: 0.5; stroke-linecap: round"/>
    <path d="M 510.285578 207.217357 
L 511.407467 211.546487 
L 507.27103 209.84652 
" style="fill: none; stroke: #000080; stroke-width: 0.5; stroke-linecap: round"/>
   </g>
   <g id="patch_25">
    <path d="M 514.02386 215.249136 
Q 514.649577 216.438086 515.014948 217.132344 
" style="fill: none; stroke: #000080; stroke-width: 0.5; stroke-linecap: round"/>
    <path d="M 514.921937 212.661175 
L 515.014948 217.132344 
L 511.382207 214.524051 
" style="fill: none; stroke: #000080; stroke-width: 0.5; stroke-linecap: round"/>
   </g>
   <g id="patch_26">
    <path d="M 518.025159 220.221187 
Q 520.524929 221.35391 522.515518 222.255907 
" style="fill: none; stroke: #000080; stroke-width: 0.5; stroke-linecap: round"/>
    <path d="M 519.697582 218.783265 
L 522.515518 222.255907 
L 518.046643 222.426671 
" style="fill: none; stroke: #000080; stroke-width: 0.5; stroke-linecap: round"/>
   </g>
   <g id="patch_27">
    <path d="M 526.379618 224.599879 
Q 527.5125 225.551479 528.217335 226.143528 
" style="fill: none; stroke: #000080; stroke-width: 0.5; stroke-linecap: round"/>
    <path d="M 526.440856 222.039369 
L 528.217335 226.143528 
L 523.86812 225.102216 
" style="fill: none; stroke: #000080; stroke-width: 0.5; stroke-linecap: round"/>
   </g>
   <g id="patch_28">
    <path d="M 531.174574 229.523083 
Q 531.548607 230.173003 531.643802 230.338414 
" style="fill: none; stroke: #000080; stroke-width: 0.5; stroke-linecap: round"/>
    <path d="M 531.382032 225.873945 
L 531.643802 230.338414 
L 527.915165 227.869149 
" style="fill: none; stroke: #000080; stroke-width: 0.5; stroke-linecap: round"/>
   </g>
   <g id="patch_29">
    <path d="M 534.543104 233.725589 
Q 535.520283 234.430079 536.044003 234.807652 
" style="fill: none; stroke: #000080; stroke-width: 0.5; stroke-linecap: round"/>
    <path d="M 533.968936 230.846074 
L 536.044003 234.807652 
L 531.6297 234.090759 
" style="fill: none; stroke: #000080; stroke-width: 0.5; stroke-linecap: round"/>
   </g>
   <g id="patch_30">
    <path d="M 539.51725 237.740631 
Q 539.973862 238.210323 540.04081 238.279189 
" style="fill: none; stroke: #000080; stroke-width: 0.5; stroke-linecap: round"/>
    <path d="M 538.686644 234.017002 
L 540.04081 238.279189 
L 535.818561 236.805209 
" style="fill: none; stroke: #000080; stroke-width: 0.5; stroke-linecap: round"/>
   </g>
   <g id="patch_31">
    <path d="M 542.970693 241.752758 
Q 543.135879 241.989035 542.98076 241.767157 
" style="fill: none; stroke: #000080; stroke-width: 0.5; stroke-linecap: round"/>
    <path d="M 542.327987 237.342919 
L 542.98076 241.767157 
L 539.049705 239.634833 
" style="fill: none; stroke: #000080; stroke-width: 0.5; stroke-linecap: round"/>
   </g>
   <g id="patch_32">
    <path d="M 545.508931 245.565904 
Q 545.572758 245.668182 545.340628 245.296213 
" style="fill: none; stroke: #000080; stroke-width: 0.5; stroke-linecap: round"/>
    <path d="M 544.919644 240.843936 
L 545.340628 245.296213 
L 541.526216 242.961633 
" style="fill: none; stroke: #000080; stroke-width: 0.5; stroke-linecap: round"/>
   </g>
   <g id="patch_33">
    <path d="M 548.497763 248.340604 
Q 549.289639 248.723451 549.578232 248.862976 
" style="fill: none; stroke: #000080; stroke-width: 0.5; stroke-linecap: round"/>
    <path d="M 546.847561 245.321304 
L 549.578232 248.862976 
L 545.106492 248.92251 
" style="fill: none; stroke: #000080; stroke-width: 0.5; stroke-linecap: round"/>
   </g>
   <g id="patch_34">
    <path d="M 552.668648 251.81662 
Q 552.980099 252.54615 553.072059 252.761555 
" style="fill: none; stroke: #000080; stroke-width: 0.5; stroke-linecap: round"/>
    <path d="M 553.340905 248.297508 
L 553.072059 252.761555 
L 549.662128 249.86805 
" style="fill: none; stroke: #000080; stroke-width: 0.5; stroke-linecap: round"/>
   </g>
   <g id="patch_35">
    <path d="M 554.702908 254.694092 
Q 555.328012 255.322321 555.558819 255.554281 
" style="fill: none; stroke: #000080; stroke-width: 0.5; stroke-linecap: round"/>
    <path d="M 554.155185 251.308128 
L 555.558819 255.554281 
L 551.319716 254.129496 
" style="fill: none; stroke: #000080; stroke-width: 0.5; stroke-linecap: round"/>
   </g>
   <g id="patch_36">
    <path d="M 557.245608 257.473896 
Q 557.700453 258.009982 557.793634 258.119807 
" style="fill: none; stroke: #000080; stroke-width: 0.5; stroke-linecap: round"/>
    <path d="M 556.730818 253.775797 
L 557.793634 258.119807 
L 553.680737 256.363654 
" style="fill: none; stroke: #000080; stroke-width: 0.5; stroke-linecap: round"/>
   </g>
   <g id="patch_37">
    <path d="M 559.59392 259.932507 
Q 560.076199 260.397291 560.15596 260.474159 
" style="fill: none; stroke: #000080; stroke-width: 0.5; stroke-linecap: round"/>
    <path d="M 558.663632 256.25836 
L 560.15596 260.474159 
L 555.887924 259.138542 
" style="fill: none; stroke: #000080; stroke-width: 0.5; stroke-linecap: round"/>
   </g>
   <g id="patch_38">
    <path d="M 562.371481 261.69815 
Q 562.438226 261.72893 561.997331 261.52561 
" style="fill: none; stroke: #000080; stroke-width: 0.5; stroke-linecap: round"/>
    <path d="M 559.202504 258.034343 
L 561.997331 261.52561 
L 557.527422 261.666711 
" style="fill: none; stroke: #000080; stroke-width: 0.5; stroke-linecap: round"/>
   </g>
   <g id="patch_39">
    <path d="M 564.66482 264.570315 
Q 564.712775 264.847925 564.665573 264.574676 
" style="fill: none; stroke: #000080; stroke-width: 0.5; stroke-linecap: round"/>
    <path d="M 565.955493 260.292608 
L 564.665573 264.574676 
L 562.013871 260.973499 
" style="fill: none; stroke: #000080; stroke-width: 0.5; stroke-linecap: round"/>
   </g>
   <g id="patch_40">
    <path d="M 566.560958 265.989436 
Q 567.247275 266.31879 567.429603 266.406286 
" style="fill: none; stroke: #000080; stroke-width: 0.5; stroke-linecap: round"/>
    <path d="M 564.688642 262.872572 
L 567.429603 266.406286 
L 562.958056 266.478827 
" style="fill: none; stroke: #000080; stroke-width: 0.5; stroke-linecap: round"/>
   </g>
   <g id="patch_41">
    <path d="M 569.422443 267.980221 
Q 569.649089 268.183002 569.459126 268.013042 
" style="fill: none; stroke: #000080; stroke-width: 0.5; stroke-linecap: round"/>
    <path d="M 567.811671 263.855411 
L 569.459126 268.013042 
L 565.144549 266.836427 
" style="fill: none; stroke: #000080; stroke-width: 0.5; stroke-linecap: round"/>
   </g>
   <g id="patch_42">
    <path d="M 569.839955 270.382754 
Q 569.83848 270.465081 569.847019 269.988482 
" style="fill: none; stroke: #000080; stroke-width: 0.5; stroke-linecap: round"/>
    <path d="M 571.918358 266.024953 
L 569.847019 269.988482 
L 567.919 265.953294 
" style="fill: none; stroke: #000080; stroke-width: 0.5; stroke-linecap: round"/>
   </g>
   <g id="patch_43">
    <path d="M 571.488793 271.668467 
Q 571.701862 271.813076 571.452384 271.643756 
" style="fill: none; stroke: #000080; stroke-width: 0.5; stroke-linecap: round"/>
    <path d="M 569.26581 267.742616 
L 571.452384 271.643756 
L 567.019527 271.052331 
" style="fill: none; stroke: #000080; stroke-width: 0.5; stroke-linecap: round"/>
   </g>
   <g id="patch_44">
    <path d="M 573.407431 273.285152 
Q 573.462187 273.333854 573.09924 273.011039 
" style="fill: none; stroke: #000080; stroke-width: 0.5; stroke-linecap: round"/>
    <path d="M 571.439575 268.858268 
L 573.09924 273.011039 
L 568.781224 271.847108 
" style="fill: none; stroke: #000080; stroke-width: 0.5; stroke-linecap: round"/>
   </g>
   <g id="patch_45">
    <path d="M 573.516943 273.382555 
Q 574.075986 274.092203 574.289097 274.362725 
" style="fill: none; stroke: #000080; stroke-width: 0.5; stroke-linecap: round"/>
    <path d="M 573.384869 269.982956 
L 574.289097 274.362725 
L 570.242746 272.458245 
" style="fill: none; stroke: #000080; stroke-width: 0.5; stroke-linecap: round"/>
   </g>
   <g id="patch_46">
    <path d="M 574.635029 274.80185 
Q 575.252876 275.445156 575.483497 275.68528 
" style="fill: none; stroke: #000080; stroke-width: 0.5; stroke-linecap: round"/>
    <path d="M 574.155202 271.41496 
L 575.483497 275.68528 
L 571.270264 274.185724 
" style="fill: none; stroke: #000080; stroke-width: 0.5; stroke-linecap: round"/>
   </g>
   <g id="patch_47">
    <path d="M 574.478151 277.522064 
Q 574.163094 277.846404 574.237542 277.769763 
" style="fill: none; stroke: #000080; stroke-width: 0.5; stroke-linecap: round"/>
    <path d="M 578.459206 276.29411 
L 574.237542 277.769763 
L 575.590018 273.50704 
" style="fill: none; stroke: #000080; stroke-width: 0.5; stroke-linecap: round"/>
   </g>
   <g id="patch_48">
    <path d="M 575.843557 278.249721 
Q 576.036475 278.257356 575.670813 278.242884 
" style="fill: none; stroke: #000080; stroke-width: 0.5; stroke-linecap: round"/>
    <path d="M 571.753034 276.086264 
L 575.670813 278.242884 
L 571.594849 280.083135 
" style="fill: none; stroke: #000080; stroke-width: 0.5; stroke-linecap: round"/>
   </g>
   <g id="patch_49">
    <path d="M 578.223652 278.343919 
Q 578.935085 278.816116 579.180757 278.979175 
" style="fill: none; stroke: #000080; stroke-width: 0.5; stroke-linecap: round"/>
    <path d="M 576.954047 275.100804 
L 579.180757 278.979175 
L 574.742034 278.43352 
" style="fill: none; stroke: #000080; stroke-width: 0.5; stroke-linecap: round"/>
   </g>
   <g id="patch_50">
    <path d="M 579.646518 279.288313 
Q 580.108241 279.78308 580.188563 279.86915 
" style="fill: none; stroke: #000080; stroke-width: 0.5; stroke-linecap: round"/>
    <path d="M 578.921677 275.580211 
L 580.188563 279.86915 
L 575.99728 278.309295 
" style="fill: none; stroke: #000080; stroke-width: 0.5; stroke-linecap: round"/>
   </g>
   <g id="patch_51">
    <path d="M 580.569964 280.277847 
Q 580.593227 280.874005 580.594693 280.911571 
" style="fill: none; stroke: #000080; stroke-width: 0.5; stroke-linecap: round"/>
    <path d="M 582.437205 276.83663 
L 580.594693 280.911571 
L 578.440247 276.992596 
" style="fill: none; stroke: #000080; stroke-width: 0.5; stroke-linecap: round"/>
   </g>
   <g id="patch_52">
    <path d="M 582.582478 281.814682 
Q 582.812238 281.854945 582.491372 281.798716 
" style="fill: none; stroke: #000080; stroke-width: 0.5; stroke-linecap: round"/>
    <path d="M 578.896629 279.138299 
L 582.491372 281.798716 
L 578.206192 283.078261 
" style="fill: none; stroke: #000080; stroke-width: 0.5; stroke-linecap: round"/>
   </g>
   <g id="patch_53">
    <path d="M 583.041998 281.895208 
Q 583.237657 282.359326 583.216159 282.308329 
" style="fill: none; stroke: #000080; stroke-width: 0.5; stroke-linecap: round"/>
    <path d="M 583.505234 277.845546 
L 583.216159 282.308329 
L 579.819377 279.399399 
" style="fill: none; stroke: #000080; stroke-width: 0.5; stroke-linecap: round"/>
   </g>
   <g id="patch_54">
    <path d="M 583.433316 282.823443 
Q 584.173831 283.088421 584.38801 283.165061 
" style="fill: none; stroke: #000080; stroke-width: 0.5; stroke-linecap: round"/>
    <path d="M 581.29568 279.934349 
L 584.38801 283.165061 
L 579.948043 283.700497 
" style="fill: none; stroke: #000080; stroke-width: 0.5; stroke-linecap: round"/>
   </g>
   <g id="patch_55">
    <path d="M 584.914345 283.353399 
Q 584.509191 283.914742 584.431199 284.022801 
" style="fill: none; stroke: #000080; stroke-width: 0.5; stroke-linecap: round"/>
    <path d="M 588.393886 281.949855 
L 584.431199 284.022801 
L 585.150455 279.608883 
" style="fill: none; stroke: #000080; stroke-width: 0.5; stroke-linecap: round"/>
   </g>
  </g>
 </g>
 <defs>
  <clipPath id="p9daf0f86ef">
   <rect x="58.953125" y="11.759062" width="601.045" height="319.12"/>
  </clipPath>
 </defs>
</svg>
