<?xml version="1.0" encoding="utf-8" standalone="no"?>
<!DOCTYPE svg PUBLIC "-//W3C//DTD SVG 1.1//EN"
  "http://www.w3.org/Graphics/SVG/1.1/DTD/svg11.dtd">
<svg xmlns:xlink="http://www.w3.org/1999/xlink" width="418.393125pt" height="400.8675pt" viewBox="0 0 418.393125 400.8675" xmlns="http://www.w3.org/2000/svg" version="1.1">
 <metadata>
  <rdf:RDF xmlns:dc="http://purl.org/dc/elements/1.1/" xmlns:cc="http://creativecommons.org/ns#" xmlns:rdf="http://www.w3.org/1999/02/22-rdf-syntax-ns#">
   <cc:Work>
    <dc:type rdf:resource="http://purl.org/dc/dcmitype/StillImage"/>
    <dc:date>2024-11-19T00:41:36.065332</dc:date>
    <dc:format>image/svg+xml</dc:format>
    <dc:creator>
     <cc:Agent>
      <dc:title>Matplotlib v3.8.4, https://matplotlib.org/</dc:title>
     </cc:Agent>
    </dc:creator>
   </cc:Work>
  </rdf:RDF>
 </metadata>
 <defs>
  <style type="text/css">*{stroke-linejoin: round; stroke-linecap: butt}</style>
 </defs>
 <g id="figure_1">
  <g id="patch_1">
   <path d="M -0 400.8675 
L 418.393125 400.8675 
L 418.393125 0 
L -0 0 
z
" style="fill: #ffffff"/>
  </g>
  <g id="axes_1">
   <g id="patch_2">
    <path d="M 58.953125 359.44 
L 411.193125 359.44 
L 411.193125 7.2 
L 58.953125 7.2 
z
" style="fill: #ffffff"/>
   </g>
   <g id="matplotlib.axis_1">
    <g id="xtick_1">
     <g id="line2d_1">
      <path d="M 94.177125 359.44 
L 94.177125 7.2 
" clip-path="url(#pb0c9fd48da)" style="fill: none; stroke: #e6e6e6; stroke-width: 0.8; stroke-linecap: square"/>
     </g>
     <g id="line2d_2">
      <defs>
       <path id="m030acf372f" d="M 0 0 
L 0 3.5 
" style="stroke: #000000; stroke-width: 0.8"/>
      </defs>
      <g>
       <use xlink:href="#m030acf372f" x="94.177125" y="359.44" style="stroke: #000000; stroke-width: 0.8"/>
      </g>
     </g>
     <g id="text_1">
      <!-- 1.6 -->
      <g transform="translate(84.63525 375.558125) scale(0.12 -0.12)">
       <defs>
        <path id="DejaVuSans-31" d="M 794 531 
L 1825 531 
L 1825 4091 
L 703 3866 
L 703 4441 
L 1819 4666 
L 2450 4666 
L 2450 531 
L 3481 531 
L 3481 0 
L 794 0 
L 794 531 
z
" transform="scale(0.015625)"/>
        <path id="DejaVuSans-2e" d="M 684 794 
L 1344 794 
L 1344 0 
L 684 0 
L 684 794 
z
" transform="scale(0.015625)"/>
        <path id="DejaVuSans-36" d="M 2113 2584 
Q 1688 2584 1439 2293 
Q 1191 2003 1191 1497 
Q 1191 994 1439 701 
Q 1688 409 2113 409 
Q 2538 409 2786 701 
Q 3034 994 3034 1497 
Q 3034 2003 2786 2293 
Q 2538 2584 2113 2584 
z
M 3366 4563 
L 3366 3988 
Q 3128 4100 2886 4159 
Q 2644 4219 2406 4219 
Q 1781 4219 1451 3797 
Q 1122 3375 1075 2522 
Q 1259 2794 1537 2939 
Q 1816 3084 2150 3084 
Q 2853 3084 3261 2657 
Q 3669 2231 3669 1497 
Q 3669 778 3244 343 
Q 2819 -91 2113 -91 
Q 1303 -91 875 529 
Q 447 1150 447 2328 
Q 447 3434 972 4092 
Q 1497 4750 2381 4750 
Q 2619 4750 2861 4703 
Q 3103 4656 3366 4563 
z
" transform="scale(0.015625)"/>
       </defs>
       <use xlink:href="#DejaVuSans-31"/>
       <use xlink:href="#DejaVuSans-2e" x="63.623047"/>
       <use xlink:href="#DejaVuSans-36" x="95.410156"/>
      </g>
     </g>
    </g>
    <g id="xtick_2">
     <g id="line2d_3">
      <path d="M 164.625125 359.44 
L 164.625125 7.2 
" clip-path="url(#pb0c9fd48da)" style="fill: none; stroke: #e6e6e6; stroke-width: 0.8; stroke-linecap: square"/>
     </g>
     <g id="line2d_4">
      <g>
       <use xlink:href="#m030acf372f" x="164.625125" y="359.44" style="stroke: #000000; stroke-width: 0.8"/>
      </g>
     </g>
     <g id="text_2">
      <!-- 1.8 -->
      <g transform="translate(155.08325 375.558125) scale(0.12 -0.12)">
       <defs>
        <path id="DejaVuSans-38" d="M 2034 2216 
Q 1584 2216 1326 1975 
Q 1069 1734 1069 1313 
Q 1069 891 1326 650 
Q 1584 409 2034 409 
Q 2484 409 2743 651 
Q 3003 894 3003 1313 
Q 3003 1734 2745 1975 
Q 2488 2216 2034 2216 
z
M 1403 2484 
Q 997 2584 770 2862 
Q 544 3141 544 3541 
Q 544 4100 942 4425 
Q 1341 4750 2034 4750 
Q 2731 4750 3128 4425 
Q 3525 4100 3525 3541 
Q 3525 3141 3298 2862 
Q 3072 2584 2669 2484 
Q 3125 2378 3379 2068 
Q 3634 1759 3634 1313 
Q 3634 634 3220 271 
Q 2806 -91 2034 -91 
Q 1263 -91 848 271 
Q 434 634 434 1313 
Q 434 1759 690 2068 
Q 947 2378 1403 2484 
z
M 1172 3481 
Q 1172 3119 1398 2916 
Q 1625 2713 2034 2713 
Q 2441 2713 2670 2916 
Q 2900 3119 2900 3481 
Q 2900 3844 2670 4047 
Q 2441 4250 2034 4250 
Q 1625 4250 1398 4047 
Q 1172 3844 1172 3481 
z
" transform="scale(0.015625)"/>
       </defs>
       <use xlink:href="#DejaVuSans-31"/>
       <use xlink:href="#DejaVuSans-2e" x="63.623047"/>
       <use xlink:href="#DejaVuSans-38" x="95.410156"/>
      </g>
     </g>
    </g>
    <g id="xtick_3">
     <g id="line2d_5">
      <path d="M 235.073125 359.44 
L 235.073125 7.2 
" clip-path="url(#pb0c9fd48da)" style="fill: none; stroke: #e6e6e6; stroke-width: 0.8; stroke-linecap: square"/>
     </g>
     <g id="line2d_6">
      <g>
       <use xlink:href="#m030acf372f" x="235.073125" y="359.44" style="stroke: #000000; stroke-width: 0.8"/>
      </g>
     </g>
     <g id="text_3">
      <!-- 2.0 -->
      <g transform="translate(225.53125 375.558125) scale(0.12 -0.12)">
       <defs>
        <path id="DejaVuSans-32" d="M 1228 531 
L 3431 531 
L 3431 0 
L 469 0 
L 469 531 
Q 828 903 1448 1529 
Q 2069 2156 2228 2338 
Q 2531 2678 2651 2914 
Q 2772 3150 2772 3378 
Q 2772 3750 2511 3984 
Q 2250 4219 1831 4219 
Q 1534 4219 1204 4116 
Q 875 4013 500 3803 
L 500 4441 
Q 881 4594 1212 4672 
Q 1544 4750 1819 4750 
Q 2544 4750 2975 4387 
Q 3406 4025 3406 3419 
Q 3406 3131 3298 2873 
Q 3191 2616 2906 2266 
Q 2828 2175 2409 1742 
Q 1991 1309 1228 531 
z
" transform="scale(0.015625)"/>
        <path id="DejaVuSans-30" d="M 2034 4250 
Q 1547 4250 1301 3770 
Q 1056 3291 1056 2328 
Q 1056 1369 1301 889 
Q 1547 409 2034 409 
Q 2525 409 2770 889 
Q 3016 1369 3016 2328 
Q 3016 3291 2770 3770 
Q 2525 4250 2034 4250 
z
M 2034 4750 
Q 2819 4750 3233 4129 
Q 3647 3509 3647 2328 
Q 3647 1150 3233 529 
Q 2819 -91 2034 -91 
Q 1250 -91 836 529 
Q 422 1150 422 2328 
Q 422 3509 836 4129 
Q 1250 4750 2034 4750 
z
" transform="scale(0.015625)"/>
       </defs>
       <use xlink:href="#DejaVuSans-32"/>
       <use xlink:href="#DejaVuSans-2e" x="63.623047"/>
       <use xlink:href="#DejaVuSans-30" x="95.410156"/>
      </g>
     </g>
    </g>
    <g id="xtick_4">
     <g id="line2d_7">
      <path d="M 305.521125 359.44 
L 305.521125 7.2 
" clip-path="url(#pb0c9fd48da)" style="fill: none; stroke: #e6e6e6; stroke-width: 0.8; stroke-linecap: square"/>
     </g>
     <g id="line2d_8">
      <g>
       <use xlink:href="#m030acf372f" x="305.521125" y="359.44" style="stroke: #000000; stroke-width: 0.8"/>
      </g>
     </g>
     <g id="text_4">
      <!-- 2.2 -->
      <g transform="translate(295.97925 375.558125) scale(0.12 -0.12)">
       <use xlink:href="#DejaVuSans-32"/>
       <use xlink:href="#DejaVuSans-2e" x="63.623047"/>
       <use xlink:href="#DejaVuSans-32" x="95.410156"/>
      </g>
     </g>
    </g>
    <g id="xtick_5">
     <g id="line2d_9">
      <path d="M 375.969125 359.44 
L 375.969125 7.2 
" clip-path="url(#pb0c9fd48da)" style="fill: none; stroke: #e6e6e6; stroke-width: 0.8; stroke-linecap: square"/>
     </g>
     <g id="line2d_10">
      <g>
       <use xlink:href="#m030acf372f" x="375.969125" y="359.44" style="stroke: #000000; stroke-width: 0.8"/>
      </g>
     </g>
     <g id="text_5">
      <!-- 2.4 -->
      <g transform="translate(366.42725 375.558125) scale(0.12 -0.12)">
       <defs>
        <path id="DejaVuSans-34" d="M 2419 4116 
L 825 1625 
L 2419 1625 
L 2419 4116 
z
M 2253 4666 
L 3047 4666 
L 3047 1625 
L 3713 1625 
L 3713 1100 
L 3047 1100 
L 3047 0 
L 2419 0 
L 2419 1100 
L 313 1100 
L 313 1709 
L 2253 4666 
z
" transform="scale(0.015625)"/>
       </defs>
       <use xlink:href="#DejaVuSans-32"/>
       <use xlink:href="#DejaVuSans-2e" x="63.623047"/>
       <use xlink:href="#DejaVuSans-34" x="95.410156"/>
      </g>
     </g>
    </g>
    <g id="text_6">
     <!-- $\beta_0$ -->
     <g transform="translate(229.193125 391.171875) scale(0.12 -0.12)">
      <defs>
       <path id="Cmmi10-af" d="M 172 -1241 
Q 153 -1241 137 -1219 
Q 122 -1197 122 -1178 
L 1106 2778 
Q 1191 3097 1353 3397 
Q 1516 3697 1761 3955 
Q 2006 4213 2300 4363 
Q 2594 4513 2925 4513 
Q 3163 4513 3355 4408 
Q 3547 4303 3658 4114 
Q 3769 3925 3769 3688 
Q 3769 3459 3681 3251 
Q 3594 3044 3437 2864 
Q 3281 2684 3103 2572 
Q 3206 2506 3287 2404 
Q 3369 2303 3419 2192 
Q 3469 2081 3497 1945 
Q 3525 1809 3525 1691 
Q 3525 1363 3384 1044 
Q 3244 725 3001 465 
Q 2759 206 2446 54 
Q 2134 -97 1806 -97 
Q 1447 -97 1159 100 
Q 872 297 763 634 
L 300 -1203 
Q 300 -1241 250 -1241 
L 172 -1241 
z
M 1819 78 
Q 2106 78 2339 267 
Q 2572 456 2723 742 
Q 2875 1028 2954 1348 
Q 3034 1669 3034 1931 
Q 3034 2256 2847 2444 
Q 2628 2363 2419 2363 
Q 1913 2363 1913 2534 
Q 1913 2759 2491 2759 
Q 2697 2759 2869 2694 
Q 3006 2800 3118 3006 
Q 3231 3213 3289 3438 
Q 3347 3663 3347 3859 
Q 3347 4069 3236 4208 
Q 3125 4347 2913 4347 
Q 2522 4347 2186 4106 
Q 1850 3866 1619 3498 
Q 1388 3131 1288 2741 
L 934 1325 
Q 900 1178 891 997 
Q 891 597 1153 337 
Q 1416 78 1819 78 
z
M 2106 2553 
Q 2203 2528 2425 2528 
Q 2534 2528 2644 2566 
Q 2638 2572 2619 2572 
Q 2550 2591 2472 2591 
Q 2181 2591 2106 2553 
z
" transform="scale(0.015625)"/>
       <path id="Cmr10-30" d="M 1600 -141 
Q 816 -141 533 504 
Q 250 1150 250 2041 
Q 250 2597 351 3087 
Q 453 3578 754 3920 
Q 1056 4263 1600 4263 
Q 2022 4263 2290 4056 
Q 2559 3850 2700 3523 
Q 2841 3197 2892 2823 
Q 2944 2450 2944 2041 
Q 2944 1491 2842 1011 
Q 2741 531 2444 195 
Q 2147 -141 1600 -141 
z
M 1600 25 
Q 1956 25 2131 390 
Q 2306 756 2347 1200 
Q 2388 1644 2388 2144 
Q 2388 2625 2347 3031 
Q 2306 3438 2132 3767 
Q 1959 4097 1600 4097 
Q 1238 4097 1063 3765 
Q 888 3434 847 3029 
Q 806 2625 806 2144 
Q 806 1788 823 1472 
Q 841 1156 916 820 
Q 991 484 1158 254 
Q 1325 25 1600 25 
z
" transform="scale(0.015625)"/>
      </defs>
      <use xlink:href="#Cmmi10-af" transform="translate(0 0.484375)"/>
      <use xlink:href="#Cmr10-30" transform="translate(56.494141 -16.521875) scale(0.7)"/>
     </g>
    </g>
   </g>
   <g id="matplotlib.axis_2">
    <g id="ytick_1">
     <g id="line2d_11">
      <path d="M 58.953125 324.216 
L 411.193125 324.216 
" clip-path="url(#pb0c9fd48da)" style="fill: none; stroke: #e6e6e6; stroke-width: 0.8; stroke-linecap: square"/>
     </g>
     <g id="line2d_12">
      <defs>
       <path id="ma2bfcfcd6b" d="M 0 0 
L -3.5 0 
" style="stroke: #000000; stroke-width: 0.8"/>
      </defs>
      <g>
       <use xlink:href="#ma2bfcfcd6b" x="58.953125" y="324.216" style="stroke: #000000; stroke-width: 0.8"/>
      </g>
     </g>
     <g id="text_7">
      <!-- −2.4 -->
      <g transform="translate(22.81375 328.775062) scale(0.12 -0.12)">
       <defs>
        <path id="DejaVuSans-2212" d="M 678 2272 
L 4684 2272 
L 4684 1741 
L 678 1741 
L 678 2272 
z
" transform="scale(0.015625)"/>
       </defs>
       <use xlink:href="#DejaVuSans-2212"/>
       <use xlink:href="#DejaVuSans-32" x="83.789062"/>
       <use xlink:href="#DejaVuSans-2e" x="147.412109"/>
       <use xlink:href="#DejaVuSans-34" x="179.199219"/>
      </g>
     </g>
    </g>
    <g id="ytick_2">
     <g id="line2d_13">
      <path d="M 58.953125 253.768 
L 411.193125 253.768 
" clip-path="url(#pb0c9fd48da)" style="fill: none; stroke: #e6e6e6; stroke-width: 0.8; stroke-linecap: square"/>
     </g>
     <g id="line2d_14">
      <g>
       <use xlink:href="#ma2bfcfcd6b" x="58.953125" y="253.768" style="stroke: #000000; stroke-width: 0.8"/>
      </g>
     </g>
     <g id="text_8">
      <!-- −2.2 -->
      <g transform="translate(22.81375 258.327063) scale(0.12 -0.12)">
       <use xlink:href="#DejaVuSans-2212"/>
       <use xlink:href="#DejaVuSans-32" x="83.789062"/>
       <use xlink:href="#DejaVuSans-2e" x="147.412109"/>
       <use xlink:href="#DejaVuSans-32" x="179.199219"/>
      </g>
     </g>
    </g>
    <g id="ytick_3">
     <g id="line2d_15">
      <path d="M 58.953125 183.32 
L 411.193125 183.32 
" clip-path="url(#pb0c9fd48da)" style="fill: none; stroke: #e6e6e6; stroke-width: 0.8; stroke-linecap: square"/>
     </g>
     <g id="line2d_16">
      <g>
       <use xlink:href="#ma2bfcfcd6b" x="58.953125" y="183.32" style="stroke: #000000; stroke-width: 0.8"/>
      </g>
     </g>
     <g id="text_9">
      <!-- −2.0 -->
      <g transform="translate(22.81375 187.879062) scale(0.12 -0.12)">
       <use xlink:href="#DejaVuSans-2212"/>
       <use xlink:href="#DejaVuSans-32" x="83.789062"/>
       <use xlink:href="#DejaVuSans-2e" x="147.412109"/>
       <use xlink:href="#DejaVuSans-30" x="179.199219"/>
      </g>
     </g>
    </g>
    <g id="ytick_4">
     <g id="line2d_17">
      <path d="M 58.953125 112.872 
L 411.193125 112.872 
" clip-path="url(#pb0c9fd48da)" style="fill: none; stroke: #e6e6e6; stroke-width: 0.8; stroke-linecap: square"/>
     </g>
     <g id="line2d_18">
      <g>
       <use xlink:href="#ma2bfcfcd6b" x="58.953125" y="112.872" style="stroke: #000000; stroke-width: 0.8"/>
      </g>
     </g>
     <g id="text_10">
      <!-- −1.8 -->
      <g transform="translate(22.81375 117.431062) scale(0.12 -0.12)">
       <use xlink:href="#DejaVuSans-2212"/>
       <use xlink:href="#DejaVuSans-31" x="83.789062"/>
       <use xlink:href="#DejaVuSans-2e" x="147.412109"/>
       <use xlink:href="#DejaVuSans-38" x="179.199219"/>
      </g>
     </g>
    </g>
    <g id="ytick_5">
     <g id="line2d_19">
      <path d="M 58.953125 42.424 
L 411.193125 42.424 
" clip-path="url(#pb0c9fd48da)" style="fill: none; stroke: #e6e6e6; stroke-width: 0.8; stroke-linecap: square"/>
     </g>
     <g id="line2d_20">
      <g>
       <use xlink:href="#ma2bfcfcd6b" x="58.953125" y="42.424" style="stroke: #000000; stroke-width: 0.8"/>
      </g>
     </g>
     <g id="text_11">
      <!-- −1.6 -->
      <g transform="translate(22.81375 46.983062) scale(0.12 -0.12)">
       <use xlink:href="#DejaVuSans-2212"/>
       <use xlink:href="#DejaVuSans-31" x="83.789062"/>
       <use xlink:href="#DejaVuSans-2e" x="147.412109"/>
       <use xlink:href="#DejaVuSans-36" x="179.199219"/>
      </g>
     </g>
    </g>
    <g id="text_12">
     <!-- $\beta_1$ -->
     <g transform="translate(16.318125 189.2) rotate(-90) scale(0.12 -0.12)">
      <defs>
       <path id="Cmr10-31" d="M 594 0 
L 594 225 
Q 1394 225 1394 428 
L 1394 3788 
Q 1063 3628 556 3628 
L 556 3853 
Q 1341 3853 1741 4263 
L 1831 4263 
Q 1853 4263 1873 4245 
Q 1894 4228 1894 4206 
L 1894 428 
Q 1894 225 2694 225 
L 2694 0 
L 594 0 
z
" transform="scale(0.015625)"/>
      </defs>
      <use xlink:href="#Cmmi10-af" transform="translate(0 0.484375)"/>
      <use xlink:href="#Cmr10-31" transform="translate(56.494141 -16.521875) scale(0.7)"/>
     </g>
    </g>
   </g>
   <g id="PathCollection_1">
    <defs>
     <path id="m819773a669" d="M 0 1.581139 
C 0.419323 1.581139 0.821528 1.41454 1.118034 1.118034 
C 1.41454 0.821528 1.581139 0.419323 1.581139 0 
C 1.581139 -0.419323 1.41454 -0.821528 1.118034 -1.118034 
C 0.821528 -1.41454 0.419323 -1.581139 0 -1.581139 
C -0.419323 -1.581139 -0.821528 -1.41454 -1.118034 -1.118034 
C -1.41454 -0.821528 -1.581139 -0.419323 -1.581139 0 
C -1.581139 0.419323 -1.41454 0.821528 -1.118034 1.118034 
C -0.821528 1.41454 -0.419323 1.581139 0 1.581139 
z
" style="stroke: #800000"/>
    </defs>
    <g clip-path="url(#pb0c9fd48da)">
     <use xlink:href="#m819773a669" x="296.637723" y="237.841526" style="fill: #800000; stroke: #800000"/>
    </g>
   </g>
   <g id="QuadContourSet_1">
    <path d="M 319.053112 232.74279 
L 325.80161 246.669083 
L 331.497272 259.816566 
L 332.998393 263.374545 
L 336.993842 274.048485 
L 340.49117 284.722424 
L 342.422503 291.838384 
L 343.591509 296.633739 
L 344.048871 298.954343 
L 344.626715 302.512323 
L 345.066756 306.070303 
L 345.315729 309.628283 
L 345.288863 313.186263 
L 344.842533 316.744242 
L 343.591509 320.530033 
L 340.033529 323.210389 
L 336.475549 323.104158 
L 332.917569 321.723555 
L 329.35959 319.580822 
L 325.670892 316.744242 
L 321.788761 313.186263 
L 318.278119 309.628283 
L 315.018211 306.070303 
L 311.569691 301.996532 
L 304.453731 292.805153 
L 296.386375 281.164444 
L 293.779792 277.238989 
L 285.368154 263.374545 
L 283.105852 259.530112 
L 275.575526 245.584646 
L 268.561824 231.352727 
L 262.267893 217.120808 
L 260.825811 213.562828 
L 258.014997 206.446869 
L 254.280699 195.772929 
L 251.084034 185.01539 
L 249.522445 177.98303 
L 248.858975 174.425051 
L 248.320168 170.867071 
L 247.957174 167.309091 
L 247.853561 163.751111 
L 248.155828 160.193131 
L 249.146392 156.635152 
L 251.084034 153.526624 
L 252.033804 153.077172 
L 254.642014 152.314914 
L 258.408256 153.077172 
L 261.757973 154.730794 
L 265.315953 157.109652 
L 269.044908 160.193131 
L 272.773617 163.751111 
L 276.184827 167.309091 
L 279.547872 171.099932 
L 286.663832 179.994768 
L 293.779792 189.856915 
L 302.244236 202.888889 
L 303.523919 204.915318 
L 303.523919 204.915318 
" clip-path="url(#pb0c9fd48da)" style="fill: none; stroke: #3b4cc0; stroke-opacity: 0.9"/>
    <path d="M 331.724541 359.44 
L 328.529844 355.88202 
L 325.4413 352.32404 
L 318.68565 344.074302 
L 311.372466 334.534141 
L 303.707195 323.860202 
L 297.337771 314.556373 
L 287.294599 298.954343 
L 283.105852 292.164242 
L 274.572779 277.606465 
L 273.010209 274.8988 
M 257.943154 246.807309 
L 250.335921 231.352727 
L 243.727908 217.120808 
L 236.852115 201.214862 
L 231.833576 188.65697 
L 229.123295 181.54101 
L 225.327839 170.867071 
L 221.843122 160.193131 
L 218.712453 149.519192 
L 216.043378 138.845253 
L 215.254303 135.287273 
L 213.948712 128.171313 
L 212.930697 121.055354 
L 212.568862 117.497374 
L 212.336022 113.939394 
L 212.265229 110.381414 
L 212.401877 106.823434 
L 212.810064 103.265455 
L 213.583326 99.707475 
L 214.863734 96.149495 
L 215.504236 94.908349 
L 217.478213 92.591515 
L 219.062216 91.280713 
L 222.620196 90.069563 
L 226.178176 90.12498 
L 229.736155 91.007309 
L 233.524735 92.591515 
L 236.852115 94.43538 
L 240.410095 96.75732 
L 244.315868 99.707475 
L 248.506195 103.265455 
L 252.370857 106.823434 
L 255.989415 110.381414 
L 259.417465 113.939394 
L 262.695031 117.497374 
L 265.851657 121.055354 
L 268.909631 124.613333 
L 275.989893 133.3912 
L 283.105852 142.770983 
L 290.460846 153.077172 
L 297.677079 163.751111 
L 304.558127 174.425051 
L 313.214743 188.65697 
L 317.380596 195.772929 
L 322.24363 204.300343 
L 331.08154 220.678788 
L 334.762357 227.794747 
L 338.342391 234.910707 
L 341.822128 242.026667 
L 345.202051 249.142626 
L 348.482639 256.258586 
L 353.211569 266.932525 
L 356.22355 274.048485 
L 359.133762 281.164444 
L 363.276477 291.838384 
L 365.894625 298.954343 
L 369.555219 309.628283 
L 372.884681 320.302222 
L 375.835598 330.976162 
L 377.488875 338.092121 
L 379.171307 346.380421 
L 380.063309 352.32404 
L 380.773441 359.44 
L 380.773441 359.44 
" clip-path="url(#pb0c9fd48da)" style="fill: none; stroke: #3f53c6; stroke-opacity: 0.9"/>
    <path d="M 290.481665 359.44 
L 285.922236 352.32404 
L 279.212038 341.650101 
L 272.318449 330.383264 
M 252.271452 295.816052 
L 244.212694 281.164444 
L 240.39222 274.048485 
L 229.309416 252.700606 
L 220.478012 234.910707 
L 215.329447 224.236768 
L 207.082303 206.446869 
L 200.728924 192.214949 
L 193.146987 174.425051 
L 187.040398 159.416713 
L 179.924438 140.864419 
L 175.349112 128.171313 
L 170.506528 113.939394 
L 168.209308 106.823434 
L 164.935321 96.149495 
L 161.880072 85.475556 
L 158.21893 71.243636 
L 155.823875 60.569697 
L 154.406411 53.453737 
L 153.180074 46.337778 
L 152.126069 39.221818 
L 151.300217 32.105859 
L 150.781692 24.989899 
L 150.592192 17.873939 
L 150.649621 14.31596 
L 150.828372 10.75798 
L 151.147183 7.2 
M 215.974512 7.2 
L 222.620196 13.474577 
L 230.445265 21.431919 
L 237.063805 28.547879 
L 243.968074 36.364981 
L 252.326308 46.337778 
L 258.199994 53.592028 
L 268.873933 67.436068 
L 279.547872 82.017215 
L 290.221812 97.324696 
L 301.293745 113.939394 
L 311.569691 130.028399 
L 322.24363 147.44152 
L 333.896043 167.309091 
L 341.93233 181.54101 
L 347.807234 192.214949 
L 355.411463 206.446869 
L 359.113386 213.537693 
M 376.921356 249.325213 
L 383.516109 263.374545 
L 389.970574 277.606465 
L 397.674796 295.396364 
L 404.077165 310.873297 
L 411.193125 329.061826 
L 411.193125 329.061826 
" clip-path="url(#pb0c9fd48da)" style="fill: none; stroke: #516ddb; stroke-opacity: 0.9"/>
    <path d="M 236.86876 359.44 
L 229.736155 346.969747 
L 220.611292 330.70251 
M 201.541171 295.578205 
L 194.156357 281.520822 
L 183.030518 259.816566 
L 172.39886 238.468687 
L 162.075478 217.120808 
L 150.44236 192.214949 
L 142.392616 174.425051 
L 136.110565 160.193131 
L 128.467309 142.403232 
L 122.512684 128.171313 
L 113.887477 106.823434 
L 108.32549 92.591515 
L 101.612332 74.801616 
L 93.934409 53.453737 
L 87.416963 34.359599 
L 82.098376 17.873939 
L 78.804305 7.2 
M 288.32379 7.2 
L 297.337771 20.628365 
L 311.770316 42.779798 
L 325.2212 64.127677 
L 332.917569 76.638817 
L 347.149489 100.377855 
L 361.381408 124.915526 
L 363.430331 128.535253 
M 382.823481 163.479894 
L 394.366119 185.09899 
L 404.077165 203.7556 
L 411.193125 217.73884 
L 411.193125 217.73884 
" clip-path="url(#pb0c9fd48da)" style="fill: none; stroke: #86a9fc; stroke-opacity: 0.9"/>
    <path d="M 192.982575 359.44 
L 183.211494 341.650101 
L 169.250499 315.661871 
L 154.922998 288.280404 
L 140.44365 259.816566 
L 128.118366 234.910707 
L 124.761523 228.018236 
M 107.577748 191.920949 
L 97.859666 170.867071 
L 86.672922 145.961212 
L 76.743024 123.229655 
L 66.069085 98.034955 
L 58.953125 80.756414 
M 336.485711 7.2 
L 351.688283 32.105859 
L 354.729973 37.159955 
M 375.012663 71.589582 
L 382.998952 85.475556 
L 397.045238 110.381414 
L 411.193125 136.109421 
L 411.193125 136.109421 
" clip-path="url(#pb0c9fd48da)" style="fill: none; stroke: #c7d7f0; stroke-opacity: 0.9"/>
    <path d="M 158.598475 359.44 
L 158.576559 359.399764 
L 156.678111 355.88202 
L 155.01858 352.82377 
L 154.749871 352.32404 
L 152.838314 348.766061 
L 151.4606 346.212634 
L 150.923513 345.208081 
L 149.02056 341.650101 
L 147.90262 339.566224 
L 147.11899 338.092121 
L 145.224825 334.534141 
L 144.34464 332.883969 
L 143.336276 330.976162 
L 142.978857 330.301594 
M 124.477373 294.870068 
L 122.996761 292.002034 
L 122.913037 291.838384 
L 121.096744 288.280404 
L 119.438782 285.049804 
L 119.272277 284.722424 
L 117.46607 281.164444 
L 115.880802 278.057098 
L 115.652967 277.606465 
L 113.857025 274.048485 
L 112.322822 271.023229 
L 112.055085 270.490505 
L 110.269587 266.932525 
L 108.764842 263.947499 
L 108.478609 263.374545 
L 106.703735 259.816566 
L 105.206862 256.82919 
L 104.923516 256.258586 
L 103.159444 252.700606 
L 101.648883 249.66757 
L 101.389785 249.142626 
L 99.636694 245.584646 
L 98.090903 242.46189 
L 97.877394 242.026667 
L 96.135461 238.468687 
L 94.532923 235.211383 
L 94.386321 234.910707 
L 92.655724 231.352727 
L 90.974943 227.915264 
L 90.916543 227.794747 
L 89.197459 224.236768 
L 87.468953 220.678788 
L 87.416963 220.571455 
L 85.760646 217.120808 
L 84.044038 213.562828 
L 83.858984 213.178365 
L 82.345261 210.004848 
L 80.640731 206.446869 
L 80.301004 205.736571 
L 78.951283 202.888889 
L 77.259009 199.330909 
L 76.743024 198.245189 
L 75.578689 195.772929 
L 73.89885 192.214949 
L 73.185044 190.703314 
L 72.227458 188.65697 
L 70.560232 185.09899 
L 69.627064 183.110019 
L 68.897567 181.54101 
L 67.243132 177.98303 
L 66.069085 175.464353 
L 65.588993 174.425051 
L 63.947528 170.867071 
L 62.511105 167.765343 
L 62.301716 167.309091 
L 60.673396 163.751111 
L 59.037198 160.193131 
L 58.953125 160.009675 
M 372.747558 7.2 
L 374.858148 10.75798 
L 375.613327 12.028241 
L 376.960431 14.31596 
L 379.065498 17.873939 
L 379.171307 18.052896 
L 381.150129 21.431919 
L 382.729287 24.114387 
L 383.239834 24.989899 
L 383.363475 25.201716 
M 403.32989 59.818292 
L 403.758418 60.569697 
L 404.077165 61.128644 
L 405.771448 64.127677 
L 407.635145 67.409085 
L 407.790774 67.685657 
L 409.79103 71.243636 
L 411.193125 73.72606 
" clip-path="url(#pb0c9fd48da)" style="fill: none; stroke: #f3c7b1; stroke-opacity: 0.9"/>
    <path d="M 103.510195 359.44 
L 101.648883 355.944061 
L 101.616086 355.88202 
L 99.738334 352.32404 
L 98.090903 349.215741 
L 97.854264 348.766061 
L 95.983677 345.208081 
L 94.532923 342.458365 
L 94.109518 341.650101 
L 92.246209 338.092121 
L 90.974943 335.671555 
L 90.381832 334.534141 
L 89.512396 332.867346 
M 71.178218 297.347677 
L 70.181572 295.396364 
L 69.627064 294.31074 
L 68.373223 291.838384 
L 66.564031 288.280404 
L 66.069085 287.306819 
L 64.764576 284.722424 
L 62.963565 281.164444 
L 62.511105 280.270213 
L 61.17288 277.606465 
L 59.380162 274.048485 
L 58.953125 273.200484 
" clip-path="url(#pb0c9fd48da)" style="fill: none; stroke: #b40426; stroke-opacity: 0.9"/>
   </g>
   <g id="line2d_21">
    <path d="M 58.953125 237.841526 
L 411.193125 237.841526 
" clip-path="url(#pb0c9fd48da)" style="fill: none; stroke-dasharray: 3.7,1.6; stroke-dashoffset: 0; stroke: #800000"/>
   </g>
   <g id="line2d_22">
    <path d="M 296.637723 359.44 
L 296.637723 7.2 
" clip-path="url(#pb0c9fd48da)" style="fill: none; stroke-dasharray: 3.7,1.6; stroke-dashoffset: 0; stroke: #800000"/>
   </g>
   <g id="patch_3">
    <path d="M 58.953125 359.44 
L 58.953125 7.2 
" style="fill: none; stroke: #000000; stroke-width: 0.7; stroke-linejoin: miter; stroke-linecap: square"/>
   </g>
   <g id="patch_4">
    <path d="M 411.193125 359.44 
L 411.193125 7.2 
" style="fill: none; stroke: #000000; stroke-width: 0.7; stroke-linejoin: miter; stroke-linecap: square"/>
   </g>
   <g id="patch_5">
    <path d="M 58.953125 359.44 
L 411.193125 359.44 
" style="fill: none; stroke: #000000; stroke-width: 0.7; stroke-linejoin: miter; stroke-linecap: square"/>
   </g>
   <g id="patch_6">
    <path d="M 58.953125 7.2 
L 411.193125 7.2 
" style="fill: none; stroke: #000000; stroke-width: 0.7; stroke-linejoin: miter; stroke-linecap: square"/>
   </g>
   <g id="text_13">
    <g clip-path="url(#pb0c9fd48da)">
     <!-- 980 -->
     <g style="fill: #3b4cc0; opacity: 0.9" transform="translate(303.07993 210.300312) rotate(-299.282672) scale(0.12 -0.12)">
      <defs>
       <path id="DejaVuSans-39" d="M 703 97 
L 703 672 
Q 941 559 1184 500 
Q 1428 441 1663 441 
Q 2288 441 2617 861 
Q 2947 1281 2994 2138 
Q 2813 1869 2534 1725 
Q 2256 1581 1919 1581 
Q 1219 1581 811 2004 
Q 403 2428 403 3163 
Q 403 3881 828 4315 
Q 1253 4750 1959 4750 
Q 2769 4750 3195 4129 
Q 3622 3509 3622 2328 
Q 3622 1225 3098 567 
Q 2575 -91 1691 -91 
Q 1453 -91 1209 -44 
Q 966 3 703 97 
z
M 1959 2075 
Q 2384 2075 2632 2365 
Q 2881 2656 2881 3163 
Q 2881 3666 2632 3958 
Q 2384 4250 1959 4250 
Q 1534 4250 1286 3958 
Q 1038 3666 1038 3163 
Q 1038 2656 1286 2365 
Q 1534 2075 1959 2075 
z
" transform="scale(0.015625)"/>
      </defs>
      <use xlink:href="#DejaVuSans-39"/>
      <use xlink:href="#DejaVuSans-38" x="63.623047"/>
      <use xlink:href="#DejaVuSans-30" x="127.246094"/>
     </g>
    </g>
   </g>
   <g id="text_14">
    <g clip-path="url(#pb0c9fd48da)">
     <!-- 990 -->
     <g style="fill: #3f53c6; opacity: 0.9" transform="translate(256.961703 252.435774) rotate(-298.362447) scale(0.12 -0.12)">
      <use xlink:href="#DejaVuSans-39"/>
      <use xlink:href="#DejaVuSans-39" x="63.623047"/>
      <use xlink:href="#DejaVuSans-30" x="127.246094"/>
     </g>
    </g>
   </g>
   <g id="text_15">
    <g clip-path="url(#pb0c9fd48da)">
     <!-- 1020 -->
     <g style="fill: #516ddb; opacity: 0.9" transform="translate(251.584183 301.673007) rotate(-300.300964) scale(0.12 -0.12)">
      <use xlink:href="#DejaVuSans-31"/>
      <use xlink:href="#DejaVuSans-30" x="63.623047"/>
      <use xlink:href="#DejaVuSans-32" x="127.246094"/>
      <use xlink:href="#DejaVuSans-30" x="190.869141"/>
     </g>
    </g>
   </g>
   <g id="text_16">
    <g clip-path="url(#pb0c9fd48da)">
     <!-- 1020 -->
     <g style="fill: #516ddb; opacity: 0.9" transform="translate(358.374342 219.182585) rotate(-296.605558) scale(0.12 -0.12)">
      <use xlink:href="#DejaVuSans-31"/>
      <use xlink:href="#DejaVuSans-30" x="63.623047"/>
      <use xlink:href="#DejaVuSans-32" x="127.246094"/>
      <use xlink:href="#DejaVuSans-30" x="190.869141"/>
     </g>
    </g>
   </g>
   <g id="text_17">
    <g clip-path="url(#pb0c9fd48da)">
     <!-- 1100 -->
     <g style="fill: #86a9fc; opacity: 0.9" transform="translate(200.769883 301.369801) rotate(-298.629546) scale(0.12 -0.12)">
      <use xlink:href="#DejaVuSans-31"/>
      <use xlink:href="#DejaVuSans-31" x="63.623047"/>
      <use xlink:href="#DejaVuSans-30" x="127.246094"/>
      <use xlink:href="#DejaVuSans-30" x="190.869141"/>
     </g>
    </g>
   </g>
   <g id="text_18">
    <g clip-path="url(#pb0c9fd48da)">
     <!-- 1100 -->
     <g style="fill: #86a9fc; opacity: 0.9" transform="translate(362.877226 134.240089) rotate(-299.16104) scale(0.12 -0.12)">
      <use xlink:href="#DejaVuSans-31"/>
      <use xlink:href="#DejaVuSans-31" x="63.623047"/>
      <use xlink:href="#DejaVuSans-30" x="127.246094"/>
      <use xlink:href="#DejaVuSans-30" x="190.869141"/>
     </g>
    </g>
   </g>
   <g id="text_19">
    <g clip-path="url(#pb0c9fd48da)">
     <!-- 1200 -->
     <g style="fill: #c7d7f0; opacity: 0.9" transform="translate(106.513703 197.663604) rotate(-295.593985) scale(0.12 -0.12)">
      <use xlink:href="#DejaVuSans-31"/>
      <use xlink:href="#DejaVuSans-32" x="63.623047"/>
      <use xlink:href="#DejaVuSans-30" x="127.246094"/>
      <use xlink:href="#DejaVuSans-30" x="190.869141"/>
     </g>
    </g>
   </g>
   <g id="text_20">
    <g clip-path="url(#pb0c9fd48da)">
     <!-- 1200 -->
     <g style="fill: #c7d7f0; opacity: 0.9" transform="translate(354.302812 42.888603) rotate(-300.666951) scale(0.12 -0.12)">
      <use xlink:href="#DejaVuSans-31"/>
      <use xlink:href="#DejaVuSans-32" x="63.623047"/>
      <use xlink:href="#DejaVuSans-30" x="127.246094"/>
      <use xlink:href="#DejaVuSans-30" x="190.869141"/>
     </g>
    </g>
   </g>
   <g id="text_21">
    <g clip-path="url(#pb0c9fd48da)">
     <!-- 1300 -->
     <g style="fill: #f3c7b1; opacity: 0.9" transform="translate(123.634797 300.640471) rotate(-297.72873) scale(0.12 -0.12)">
      <defs>
       <path id="DejaVuSans-33" d="M 2597 2516 
Q 3050 2419 3304 2112 
Q 3559 1806 3559 1356 
Q 3559 666 3084 287 
Q 2609 -91 1734 -91 
Q 1441 -91 1130 -33 
Q 819 25 488 141 
L 488 750 
Q 750 597 1062 519 
Q 1375 441 1716 441 
Q 2309 441 2620 675 
Q 2931 909 2931 1356 
Q 2931 1769 2642 2001 
Q 2353 2234 1838 2234 
L 1294 2234 
L 1294 2753 
L 1863 2753 
Q 2328 2753 2575 2939 
Q 2822 3125 2822 3475 
Q 2822 3834 2567 4026 
Q 2313 4219 1838 4219 
Q 1578 4219 1281 4162 
Q 984 4106 628 3988 
L 628 4550 
Q 988 4650 1302 4700 
Q 1616 4750 1894 4750 
Q 2613 4750 3031 4423 
Q 3450 4097 3450 3541 
Q 3450 3153 3228 2886 
Q 3006 2619 2597 2516 
z
" transform="scale(0.015625)"/>
      </defs>
      <use xlink:href="#DejaVuSans-31"/>
      <use xlink:href="#DejaVuSans-33" x="63.623047"/>
      <use xlink:href="#DejaVuSans-30" x="127.246094"/>
      <use xlink:href="#DejaVuSans-30" x="190.869141"/>
     </g>
    </g>
   </g>
   <g id="text_22">
    <g clip-path="url(#pb0c9fd48da)">
     <!-- 1300 -->
     <g style="fill: #f3c7b1; opacity: 0.9" transform="translate(382.873118 30.933389) rotate(-300.136253) scale(0.12 -0.12)">
      <use xlink:href="#DejaVuSans-31"/>
      <use xlink:href="#DejaVuSans-33" x="63.623047"/>
      <use xlink:href="#DejaVuSans-30" x="127.246094"/>
      <use xlink:href="#DejaVuSans-30" x="190.869141"/>
     </g>
    </g>
   </g>
   <g id="text_23">
    <g clip-path="url(#pb0c9fd48da)">
     <!-- 1500 -->
     <g style="fill: #b40426; opacity: 0.9" transform="translate(70.322738 303.106888) rotate(-297.453522) scale(0.12 -0.12)">
      <defs>
       <path id="DejaVuSans-35" d="M 691 4666 
L 3169 4666 
L 3169 4134 
L 1269 4134 
L 1269 2991 
Q 1406 3038 1543 3061 
Q 1681 3084 1819 3084 
Q 2600 3084 3056 2656 
Q 3513 2228 3513 1497 
Q 3513 744 3044 326 
Q 2575 -91 1722 -91 
Q 1428 -91 1123 -41 
Q 819 9 494 109 
L 494 744 
Q 775 591 1075 516 
Q 1375 441 1709 441 
Q 2250 441 2565 725 
Q 2881 1009 2881 1497 
Q 2881 1984 2565 2268 
Q 2250 2553 1709 2553 
Q 1456 2553 1204 2497 
Q 953 2441 691 2322 
L 691 4666 
z
" transform="scale(0.015625)"/>
      </defs>
      <use xlink:href="#DejaVuSans-31"/>
      <use xlink:href="#DejaVuSans-35" x="63.623047"/>
      <use xlink:href="#DejaVuSans-30" x="127.246094"/>
      <use xlink:href="#DejaVuSans-30" x="190.869141"/>
     </g>
    </g>
   </g>
  </g>
 </g>
 <defs>
  <clipPath id="pb0c9fd48da">
   <rect x="58.953125" y="7.2" width="352.24" height="352.24"/>
  </clipPath>
 </defs>
</svg>
