<?xml version="1.0" encoding="utf-8" standalone="no"?>
<!DOCTYPE svg PUBLIC "-//W3C//DTD SVG 1.1//EN"
  "http://www.w3.org/Graphics/SVG/1.1/DTD/svg11.dtd">
<svg xmlns:xlink="http://www.w3.org/1999/xlink" width="676.603125pt" height="372.7875pt" viewBox="0 0 676.603125 372.7875" xmlns="http://www.w3.org/2000/svg" version="1.1">
 <metadata>
  <rdf:RDF xmlns:dc="http://purl.org/dc/elements/1.1/" xmlns:cc="http://creativecommons.org/ns#" xmlns:rdf="http://www.w3.org/1999/02/22-rdf-syntax-ns#">
   <cc:Work>
    <dc:type rdf:resource="http://purl.org/dc/dcmitype/StillImage"/>
    <dc:date>2024-11-12T17:14:22.781096</dc:date>
    <dc:format>image/svg+xml</dc:format>
    <dc:creator>
     <cc:Agent>
      <dc:title>Matplotlib v3.8.4, https://matplotlib.org/</dc:title>
     </cc:Agent>
    </dc:creator>
   </cc:Work>
  </rdf:RDF>
 </metadata>
 <defs>
  <style type="text/css">*{stroke-linejoin: round; stroke-linecap: butt}</style>
 </defs>
 <g id="figure_1">
  <g id="patch_1">
   <path d="M 0 372.7875 
L 676.603125 372.7875 
L 676.603125 0 
L 0 0 
z
" style="fill: #ffffff"/>
  </g>
  <g id="axes_1">
   <g id="patch_2">
    <path d="M 58.953125 331.36 
L 669.403125 331.36 
L 669.403125 7.2 
L 58.953125 7.2 
z
" style="fill: #ffffff"/>
   </g>
   <g id="matplotlib.axis_1">
    <g id="xtick_1">
     <g id="line2d_1">
      <path d="M 119.998125 331.36 
L 119.998125 7.2 
" clip-path="url(#pa7b3482995)" style="fill: none; stroke: #e6e6e6; stroke-width: 0.8; stroke-linecap: square"/>
     </g>
     <g id="line2d_2">
      <defs>
       <path id="m8638d1b4f7" d="M 0 0 
L 0 3.5 
" style="stroke: #000000; stroke-width: 0.8"/>
      </defs>
      <g>
       <use xlink:href="#m8638d1b4f7" x="119.998125" y="331.36" style="stroke: #000000; stroke-width: 0.8"/>
      </g>
     </g>
     <g id="text_1">
      <!-- 1.6 -->
      <g transform="translate(110.45625 347.478125) scale(0.12 -0.12)">
       <defs>
        <path id="DejaVuSans-31" d="M 794 531 
L 1825 531 
L 1825 4091 
L 703 3866 
L 703 4441 
L 1819 4666 
L 2450 4666 
L 2450 531 
L 3481 531 
L 3481 0 
L 794 0 
L 794 531 
z
" transform="scale(0.015625)"/>
        <path id="DejaVuSans-2e" d="M 684 794 
L 1344 794 
L 1344 0 
L 684 0 
L 684 794 
z
" transform="scale(0.015625)"/>
        <path id="DejaVuSans-36" d="M 2113 2584 
Q 1688 2584 1439 2293 
Q 1191 2003 1191 1497 
Q 1191 994 1439 701 
Q 1688 409 2113 409 
Q 2538 409 2786 701 
Q 3034 994 3034 1497 
Q 3034 2003 2786 2293 
Q 2538 2584 2113 2584 
z
M 3366 4563 
L 3366 3988 
Q 3128 4100 2886 4159 
Q 2644 4219 2406 4219 
Q 1781 4219 1451 3797 
Q 1122 3375 1075 2522 
Q 1259 2794 1537 2939 
Q 1816 3084 2150 3084 
Q 2853 3084 3261 2657 
Q 3669 2231 3669 1497 
Q 3669 778 3244 343 
Q 2819 -91 2113 -91 
Q 1303 -91 875 529 
Q 447 1150 447 2328 
Q 447 3434 972 4092 
Q 1497 4750 2381 4750 
Q 2619 4750 2861 4703 
Q 3103 4656 3366 4563 
z
" transform="scale(0.015625)"/>
       </defs>
       <use xlink:href="#DejaVuSans-31"/>
       <use xlink:href="#DejaVuSans-2e" x="63.623047"/>
       <use xlink:href="#DejaVuSans-36" x="95.410156"/>
      </g>
     </g>
    </g>
    <g id="xtick_2">
     <g id="line2d_3">
      <path d="M 242.088125 331.36 
L 242.088125 7.2 
" clip-path="url(#pa7b3482995)" style="fill: none; stroke: #e6e6e6; stroke-width: 0.8; stroke-linecap: square"/>
     </g>
     <g id="line2d_4">
      <g>
       <use xlink:href="#m8638d1b4f7" x="242.088125" y="331.36" style="stroke: #000000; stroke-width: 0.8"/>
      </g>
     </g>
     <g id="text_2">
      <!-- 1.8 -->
      <g transform="translate(232.54625 347.478125) scale(0.12 -0.12)">
       <defs>
        <path id="DejaVuSans-38" d="M 2034 2216 
Q 1584 2216 1326 1975 
Q 1069 1734 1069 1313 
Q 1069 891 1326 650 
Q 1584 409 2034 409 
Q 2484 409 2743 651 
Q 3003 894 3003 1313 
Q 3003 1734 2745 1975 
Q 2488 2216 2034 2216 
z
M 1403 2484 
Q 997 2584 770 2862 
Q 544 3141 544 3541 
Q 544 4100 942 4425 
Q 1341 4750 2034 4750 
Q 2731 4750 3128 4425 
Q 3525 4100 3525 3541 
Q 3525 3141 3298 2862 
Q 3072 2584 2669 2484 
Q 3125 2378 3379 2068 
Q 3634 1759 3634 1313 
Q 3634 634 3220 271 
Q 2806 -91 2034 -91 
Q 1263 -91 848 271 
Q 434 634 434 1313 
Q 434 1759 690 2068 
Q 947 2378 1403 2484 
z
M 1172 3481 
Q 1172 3119 1398 2916 
Q 1625 2713 2034 2713 
Q 2441 2713 2670 2916 
Q 2900 3119 2900 3481 
Q 2900 3844 2670 4047 
Q 2441 4250 2034 4250 
Q 1625 4250 1398 4047 
Q 1172 3844 1172 3481 
z
" transform="scale(0.015625)"/>
       </defs>
       <use xlink:href="#DejaVuSans-31"/>
       <use xlink:href="#DejaVuSans-2e" x="63.623047"/>
       <use xlink:href="#DejaVuSans-38" x="95.410156"/>
      </g>
     </g>
    </g>
    <g id="xtick_3">
     <g id="line2d_5">
      <path d="M 364.178125 331.36 
L 364.178125 7.2 
" clip-path="url(#pa7b3482995)" style="fill: none; stroke: #e6e6e6; stroke-width: 0.8; stroke-linecap: square"/>
     </g>
     <g id="line2d_6">
      <g>
       <use xlink:href="#m8638d1b4f7" x="364.178125" y="331.36" style="stroke: #000000; stroke-width: 0.8"/>
      </g>
     </g>
     <g id="text_3">
      <!-- 2.0 -->
      <g transform="translate(354.63625 347.478125) scale(0.12 -0.12)">
       <defs>
        <path id="DejaVuSans-32" d="M 1228 531 
L 3431 531 
L 3431 0 
L 469 0 
L 469 531 
Q 828 903 1448 1529 
Q 2069 2156 2228 2338 
Q 2531 2678 2651 2914 
Q 2772 3150 2772 3378 
Q 2772 3750 2511 3984 
Q 2250 4219 1831 4219 
Q 1534 4219 1204 4116 
Q 875 4013 500 3803 
L 500 4441 
Q 881 4594 1212 4672 
Q 1544 4750 1819 4750 
Q 2544 4750 2975 4387 
Q 3406 4025 3406 3419 
Q 3406 3131 3298 2873 
Q 3191 2616 2906 2266 
Q 2828 2175 2409 1742 
Q 1991 1309 1228 531 
z
" transform="scale(0.015625)"/>
        <path id="DejaVuSans-30" d="M 2034 4250 
Q 1547 4250 1301 3770 
Q 1056 3291 1056 2328 
Q 1056 1369 1301 889 
Q 1547 409 2034 409 
Q 2525 409 2770 889 
Q 3016 1369 3016 2328 
Q 3016 3291 2770 3770 
Q 2525 4250 2034 4250 
z
M 2034 4750 
Q 2819 4750 3233 4129 
Q 3647 3509 3647 2328 
Q 3647 1150 3233 529 
Q 2819 -91 2034 -91 
Q 1250 -91 836 529 
Q 422 1150 422 2328 
Q 422 3509 836 4129 
Q 1250 4750 2034 4750 
z
" transform="scale(0.015625)"/>
       </defs>
       <use xlink:href="#DejaVuSans-32"/>
       <use xlink:href="#DejaVuSans-2e" x="63.623047"/>
       <use xlink:href="#DejaVuSans-30" x="95.410156"/>
      </g>
     </g>
    </g>
    <g id="xtick_4">
     <g id="line2d_7">
      <path d="M 486.268125 331.36 
L 486.268125 7.2 
" clip-path="url(#pa7b3482995)" style="fill: none; stroke: #e6e6e6; stroke-width: 0.8; stroke-linecap: square"/>
     </g>
     <g id="line2d_8">
      <g>
       <use xlink:href="#m8638d1b4f7" x="486.268125" y="331.36" style="stroke: #000000; stroke-width: 0.8"/>
      </g>
     </g>
     <g id="text_4">
      <!-- 2.2 -->
      <g transform="translate(476.72625 347.478125) scale(0.12 -0.12)">
       <use xlink:href="#DejaVuSans-32"/>
       <use xlink:href="#DejaVuSans-2e" x="63.623047"/>
       <use xlink:href="#DejaVuSans-32" x="95.410156"/>
      </g>
     </g>
    </g>
    <g id="xtick_5">
     <g id="line2d_9">
      <path d="M 608.358125 331.36 
L 608.358125 7.2 
" clip-path="url(#pa7b3482995)" style="fill: none; stroke: #e6e6e6; stroke-width: 0.8; stroke-linecap: square"/>
     </g>
     <g id="line2d_10">
      <g>
       <use xlink:href="#m8638d1b4f7" x="608.358125" y="331.36" style="stroke: #000000; stroke-width: 0.8"/>
      </g>
     </g>
     <g id="text_5">
      <!-- 2.4 -->
      <g transform="translate(598.81625 347.478125) scale(0.12 -0.12)">
       <defs>
        <path id="DejaVuSans-34" d="M 2419 4116 
L 825 1625 
L 2419 1625 
L 2419 4116 
z
M 2253 4666 
L 3047 4666 
L 3047 1625 
L 3713 1625 
L 3713 1100 
L 3047 1100 
L 3047 0 
L 2419 0 
L 2419 1100 
L 313 1100 
L 313 1709 
L 2253 4666 
z
" transform="scale(0.015625)"/>
       </defs>
       <use xlink:href="#DejaVuSans-32"/>
       <use xlink:href="#DejaVuSans-2e" x="63.623047"/>
       <use xlink:href="#DejaVuSans-34" x="95.410156"/>
      </g>
     </g>
    </g>
    <g id="text_6">
     <!-- $\beta_0$ -->
     <g transform="translate(358.298125 363.091875) scale(0.12 -0.12)">
      <defs>
       <path id="Cmmi10-af" d="M 172 -1241 
Q 153 -1241 137 -1219 
Q 122 -1197 122 -1178 
L 1106 2778 
Q 1191 3097 1353 3397 
Q 1516 3697 1761 3955 
Q 2006 4213 2300 4363 
Q 2594 4513 2925 4513 
Q 3163 4513 3355 4408 
Q 3547 4303 3658 4114 
Q 3769 3925 3769 3688 
Q 3769 3459 3681 3251 
Q 3594 3044 3437 2864 
Q 3281 2684 3103 2572 
Q 3206 2506 3287 2404 
Q 3369 2303 3419 2192 
Q 3469 2081 3497 1945 
Q 3525 1809 3525 1691 
Q 3525 1363 3384 1044 
Q 3244 725 3001 465 
Q 2759 206 2446 54 
Q 2134 -97 1806 -97 
Q 1447 -97 1159 100 
Q 872 297 763 634 
L 300 -1203 
Q 300 -1241 250 -1241 
L 172 -1241 
z
M 1819 78 
Q 2106 78 2339 267 
Q 2572 456 2723 742 
Q 2875 1028 2954 1348 
Q 3034 1669 3034 1931 
Q 3034 2256 2847 2444 
Q 2628 2363 2419 2363 
Q 1913 2363 1913 2534 
Q 1913 2759 2491 2759 
Q 2697 2759 2869 2694 
Q 3006 2800 3118 3006 
Q 3231 3213 3289 3438 
Q 3347 3663 3347 3859 
Q 3347 4069 3236 4208 
Q 3125 4347 2913 4347 
Q 2522 4347 2186 4106 
Q 1850 3866 1619 3498 
Q 1388 3131 1288 2741 
L 934 1325 
Q 900 1178 891 997 
Q 891 597 1153 337 
Q 1416 78 1819 78 
z
M 2106 2553 
Q 2203 2528 2425 2528 
Q 2534 2528 2644 2566 
Q 2638 2572 2619 2572 
Q 2550 2591 2472 2591 
Q 2181 2591 2106 2553 
z
" transform="scale(0.015625)"/>
       <path id="Cmr10-30" d="M 1600 -141 
Q 816 -141 533 504 
Q 250 1150 250 2041 
Q 250 2597 351 3087 
Q 453 3578 754 3920 
Q 1056 4263 1600 4263 
Q 2022 4263 2290 4056 
Q 2559 3850 2700 3523 
Q 2841 3197 2892 2823 
Q 2944 2450 2944 2041 
Q 2944 1491 2842 1011 
Q 2741 531 2444 195 
Q 2147 -141 1600 -141 
z
M 1600 25 
Q 1956 25 2131 390 
Q 2306 756 2347 1200 
Q 2388 1644 2388 2144 
Q 2388 2625 2347 3031 
Q 2306 3438 2132 3767 
Q 1959 4097 1600 4097 
Q 1238 4097 1063 3765 
Q 888 3434 847 3029 
Q 806 2625 806 2144 
Q 806 1788 823 1472 
Q 841 1156 916 820 
Q 991 484 1158 254 
Q 1325 25 1600 25 
z
" transform="scale(0.015625)"/>
      </defs>
      <use xlink:href="#Cmmi10-af" transform="translate(0 0.484375)"/>
      <use xlink:href="#Cmr10-30" transform="translate(56.494141 -16.521875) scale(0.7)"/>
     </g>
    </g>
   </g>
   <g id="matplotlib.axis_2">
    <g id="ytick_1">
     <g id="line2d_11">
      <path d="M 58.953125 298.944 
L 669.403125 298.944 
" clip-path="url(#pa7b3482995)" style="fill: none; stroke: #e6e6e6; stroke-width: 0.8; stroke-linecap: square"/>
     </g>
     <g id="line2d_12">
      <defs>
       <path id="m9ec1d8014d" d="M 0 0 
L -3.5 0 
" style="stroke: #000000; stroke-width: 0.8"/>
      </defs>
      <g>
       <use xlink:href="#m9ec1d8014d" x="58.953125" y="298.944" style="stroke: #000000; stroke-width: 0.8"/>
      </g>
     </g>
     <g id="text_7">
      <!-- −2.4 -->
      <g transform="translate(22.81375 303.503062) scale(0.12 -0.12)">
       <defs>
        <path id="DejaVuSans-2212" d="M 678 2272 
L 4684 2272 
L 4684 1741 
L 678 1741 
L 678 2272 
z
" transform="scale(0.015625)"/>
       </defs>
       <use xlink:href="#DejaVuSans-2212"/>
       <use xlink:href="#DejaVuSans-32" x="83.789062"/>
       <use xlink:href="#DejaVuSans-2e" x="147.412109"/>
       <use xlink:href="#DejaVuSans-34" x="179.199219"/>
      </g>
     </g>
    </g>
    <g id="ytick_2">
     <g id="line2d_13">
      <path d="M 58.953125 234.112 
L 669.403125 234.112 
" clip-path="url(#pa7b3482995)" style="fill: none; stroke: #e6e6e6; stroke-width: 0.8; stroke-linecap: square"/>
     </g>
     <g id="line2d_14">
      <g>
       <use xlink:href="#m9ec1d8014d" x="58.953125" y="234.112" style="stroke: #000000; stroke-width: 0.8"/>
      </g>
     </g>
     <g id="text_8">
      <!-- −2.2 -->
      <g transform="translate(22.81375 238.671063) scale(0.12 -0.12)">
       <use xlink:href="#DejaVuSans-2212"/>
       <use xlink:href="#DejaVuSans-32" x="83.789062"/>
       <use xlink:href="#DejaVuSans-2e" x="147.412109"/>
       <use xlink:href="#DejaVuSans-32" x="179.199219"/>
      </g>
     </g>
    </g>
    <g id="ytick_3">
     <g id="line2d_15">
      <path d="M 58.953125 169.28 
L 669.403125 169.28 
" clip-path="url(#pa7b3482995)" style="fill: none; stroke: #e6e6e6; stroke-width: 0.8; stroke-linecap: square"/>
     </g>
     <g id="line2d_16">
      <g>
       <use xlink:href="#m9ec1d8014d" x="58.953125" y="169.28" style="stroke: #000000; stroke-width: 0.8"/>
      </g>
     </g>
     <g id="text_9">
      <!-- −2.0 -->
      <g transform="translate(22.81375 173.839063) scale(0.12 -0.12)">
       <use xlink:href="#DejaVuSans-2212"/>
       <use xlink:href="#DejaVuSans-32" x="83.789062"/>
       <use xlink:href="#DejaVuSans-2e" x="147.412109"/>
       <use xlink:href="#DejaVuSans-30" x="179.199219"/>
      </g>
     </g>
    </g>
    <g id="ytick_4">
     <g id="line2d_17">
      <path d="M 58.953125 104.448 
L 669.403125 104.448 
" clip-path="url(#pa7b3482995)" style="fill: none; stroke: #e6e6e6; stroke-width: 0.8; stroke-linecap: square"/>
     </g>
     <g id="line2d_18">
      <g>
       <use xlink:href="#m9ec1d8014d" x="58.953125" y="104.448" style="stroke: #000000; stroke-width: 0.8"/>
      </g>
     </g>
     <g id="text_10">
      <!-- −1.8 -->
      <g transform="translate(22.81375 109.007063) scale(0.12 -0.12)">
       <use xlink:href="#DejaVuSans-2212"/>
       <use xlink:href="#DejaVuSans-31" x="83.789062"/>
       <use xlink:href="#DejaVuSans-2e" x="147.412109"/>
       <use xlink:href="#DejaVuSans-38" x="179.199219"/>
      </g>
     </g>
    </g>
    <g id="ytick_5">
     <g id="line2d_19">
      <path d="M 58.953125 39.616 
L 669.403125 39.616 
" clip-path="url(#pa7b3482995)" style="fill: none; stroke: #e6e6e6; stroke-width: 0.8; stroke-linecap: square"/>
     </g>
     <g id="line2d_20">
      <g>
       <use xlink:href="#m9ec1d8014d" x="58.953125" y="39.616" style="stroke: #000000; stroke-width: 0.8"/>
      </g>
     </g>
     <g id="text_11">
      <!-- −1.6 -->
      <g transform="translate(22.81375 44.175063) scale(0.12 -0.12)">
       <use xlink:href="#DejaVuSans-2212"/>
       <use xlink:href="#DejaVuSans-31" x="83.789062"/>
       <use xlink:href="#DejaVuSans-2e" x="147.412109"/>
       <use xlink:href="#DejaVuSans-36" x="179.199219"/>
      </g>
     </g>
    </g>
    <g id="text_12">
     <!-- $\beta_1$ -->
     <g transform="translate(16.318125 175.16) rotate(-90) scale(0.12 -0.12)">
      <defs>
       <path id="Cmr10-31" d="M 594 0 
L 594 225 
Q 1394 225 1394 428 
L 1394 3788 
Q 1063 3628 556 3628 
L 556 3853 
Q 1341 3853 1741 4263 
L 1831 4263 
Q 1853 4263 1873 4245 
Q 1894 4228 1894 4206 
L 1894 428 
Q 1894 225 2694 225 
L 2694 0 
L 594 0 
z
" transform="scale(0.015625)"/>
      </defs>
      <use xlink:href="#Cmmi10-af" transform="translate(0 0.484375)"/>
      <use xlink:href="#Cmr10-31" transform="translate(56.494141 -16.521875) scale(0.7)"/>
     </g>
    </g>
   </g>
   <g id="QuadContourSet_1">
    <path d="M 508.517955 213.500712 
L 509.082923 214.070703 
L 521.415246 227.578997 
L 528.740892 236.40404 
L 533.887642 242.952727 
L 540.81196 252.775758 
L 546.079893 261.180459 
L 548.578474 265.873131 
L 551.778212 272.421818 
L 553.038686 275.696162 
L 554.04012 278.970505 
L 554.802733 282.244848 
L 555.234216 285.519192 
L 555.187656 288.793535 
L 554.414143 292.067879 
L 552.246054 295.551872 
L 546.079893 298.018555 
L 539.913731 297.920792 
L 533.747569 296.650249 
L 527.581408 294.678331 
L 521.188705 292.067879 
L 514.460774 288.793535 
L 508.37665 285.519192 
L 502.727062 282.244848 
L 496.7506 278.495831 
L 484.418277 270.037175 
L 470.437134 259.324444 
L 465.919792 255.71192 
L 453.587468 245.05244 
L 440.87731 233.129697 
L 428.151102 220.032323 
L 419.442354 210.209293 
L 416.562598 206.934949 
L 408.808851 197.111919 
L 403.937566 190.563232 
L 397.465837 180.740202 
L 391.925852 170.840236 
L 390.528112 167.642828 
L 389.219537 164.368485 
L 388.06971 161.094141 
L 387.13593 157.819798 
L 386.506843 154.545455 
L 386.327276 151.271111 
L 386.851122 147.996768 
L 388.567818 144.722424 
L 391.925852 141.861703 
L 393.571852 141.448081 
L 398.092014 140.746589 
L 404.619105 141.448081 
L 410.424337 142.969879 
L 416.590499 145.159098 
L 423.052969 147.996768 
L 429.515013 151.271111 
L 435.426816 154.545455 
L 441.255145 158.034096 
L 450.808813 164.368485 
L 455.52358 167.642828 
L 460.129657 170.917172 
L 472.085953 180.150741 
L 484.498236 190.581451 
L 484.498236 190.581451 
" clip-path="url(#pa7b3482995)" style="fill: none; stroke: #3b4cc0; stroke-opacity: 0.9"/>
    <path d="M 531.679989 331.36 
L 526.143416 328.085657 
L 520.79081 324.811313 
L 515.249085 321.296738 
L 502.916761 313.014248 
L 487.503876 301.890909 
L 483.124491 298.616566 
L 474.680084 292.067879 
L 470.53893 288.793535 
L 462.508233 282.244848 
L 458.553192 278.970505 
L 447.086181 269.147475 
L 432.633053 256.050101 
L 428.523852 252.249924 
M 404.961321 228.898263 
L 402.756554 226.58101 
L 393.603062 216.75798 
L 390.629334 213.483636 
L 382.012639 203.660606 
L 379.177309 200.386263 
L 367.261206 185.748313 
L 360.919718 177.465859 
L 353.866765 167.642828 
L 347.289044 157.819798 
L 342.596559 150.325982 
L 337.56642 141.448081 
L 335.82424 138.173737 
L 332.686294 131.625051 
L 329.831089 125.076364 
L 327.568433 118.527677 
L 326.612101 115.253333 
L 325.80416 111.97899 
L 325.177081 108.704646 
L 324.773559 105.430303 
L 324.650871 102.15596 
L 324.887689 98.881616 
L 325.595097 95.607273 
L 326.9352 92.332929 
L 329.154214 89.058586 
L 330.264236 87.916382 
L 333.68524 85.784242 
L 336.430398 84.577935 
L 342.596559 83.463336 
L 348.762721 83.514336 
L 354.928883 84.326327 
L 361.494685 85.784242 
L 367.261206 87.481118 
L 373.427367 89.617956 
L 380.196272 92.332929 
L 387.458325 95.607273 
L 394.155983 98.881616 
L 400.427129 102.15596 
L 406.368116 105.430303 
L 412.048305 108.704646 
L 417.518901 111.97899 
L 422.818526 115.253333 
L 435.088984 123.331443 
L 447.421307 131.963485 
L 460.167888 141.448081 
L 472.67399 151.271111 
L 484.5992 161.094141 
L 499.60156 174.191515 
L 503.285792 177.465859 
L 517.280163 190.563232 
L 524.011082 197.111919 
L 530.565637 203.660606 
L 533.837184 206.934949 
L 546.242934 220.032323 
L 558.412216 233.660523 
L 570.744539 248.443101 
L 576.910701 256.269377 
L 586.361115 269.147475 
L 590.8985 275.696162 
L 595.409186 282.509258 
L 601.575347 292.720255 
L 606.485424 301.890909 
L 608.126715 305.165253 
L 610.991929 311.713939 
L 613.55189 318.262626 
L 614.587791 321.53697 
L 615.453557 324.811313 
L 616.16339 328.085657 
L 616.684251 331.36 
L 616.684251 331.36 
" clip-path="url(#pa7b3482995)" style="fill: none; stroke: #3f53c6; stroke-opacity: 0.9"/>
    <path d="M 460.203968 331.36 
L 453.587468 325.895063 
L 435.088984 310.174622 
L 426.672764 302.78801 
M 395.796854 274.531804 
L 383.388531 262.598788 
L 373.39639 252.775758 
L 354.928883 233.910333 
L 341.878872 220.032323 
L 329.961317 206.934949 
L 315.668594 190.563232 
L 307.379087 180.740202 
L 301.991156 174.191515 
L 296.704215 167.642828 
L 288.970499 157.819798 
L 283.962899 151.271111 
L 279.05772 144.722424 
L 271.935815 134.899394 
L 267.323889 128.350707 
L 260.673345 118.527677 
L 254.324175 108.704646 
L 248.299699 98.881616 
L 242.625711 89.058586 
L 237.330808 79.235556 
L 232.499896 69.412525 
L 230.98586 66.138182 
L 228.176318 59.589495 
L 225.439489 52.761224 
L 223.282395 46.492121 
L 221.298519 39.943434 
L 219.647357 33.394747 
L 218.995376 30.120404 
L 218.483194 26.846061 
L 218.096745 23.571717 
L 217.852133 20.297374 
L 217.768331 17.02303 
L 217.867859 13.748687 
L 218.177644 10.474343 
L 218.730159 7.2 
M 331.079248 7.2 
L 342.596559 12.974378 
L 356.157806 20.297374 
L 367.628076 26.846061 
L 379.593529 34.039996 
L 394.078776 43.217778 
L 404.258176 49.893731 
L 418.388807 59.589495 
L 428.922822 67.039389 
L 447.421307 80.683243 
L 466.709962 95.607273 
L 478.941859 105.430303 
L 490.8446 115.253333 
L 509.082923 130.843384 
L 527.581408 147.315215 
L 545.962809 164.368485 
L 552.811052 170.917172 
L 566.191891 184.014545 
L 576.910701 194.779174 
L 580.435702 198.407943 
M 608.941881 228.828738 
L 621.437436 242.952727 
L 632.623354 256.050101 
L 645.975167 272.421818 
L 657.070802 286.664956 
L 665.929328 298.616566 
L 669.403125 303.403524 
L 669.403125 303.403524 
" clip-path="url(#pa7b3482995)" style="fill: none; stroke: #516ddb; stroke-opacity: 0.9"/>
    <path d="M 367.290052 331.36 
L 356.709097 321.53697 
L 346.263113 311.713939 
L 337.455249 303.334026 
M 307.59333 274.108095 
L 299.388221 265.873131 
L 280.246534 246.227071 
L 262.436458 227.43573 
L 246.563619 210.209293 
L 237.669456 200.386263 
L 219.273327 179.517762 
L 203.558046 161.094141 
L 194.608681 150.367106 
L 179.424774 131.625051 
L 169.105104 118.527677 
L 156.597642 102.15596 
L 144.517968 85.784242 
L 132.88372 69.412525 
L 120.614741 51.344011 
L 113.193555 39.943434 
L 104.988132 26.846061 
L 99.065033 17.02303 
L 93.356238 7.2 
M 456.464261 7.2 
L 468.894044 17.02303 
L 481.10894 26.846061 
L 493.119931 36.669091 
L 504.937265 46.492121 
L 516.570512 56.315152 
L 533.747569 71.103267 
L 554.063903 89.058586 
L 568.548986 102.15596 
L 579.231774 111.97899 
L 588.401401 120.513727 
M 618.598153 149.427388 
L 627.134637 157.819798 
L 644.738479 175.456085 
L 663.236963 194.490192 
L 669.403125 200.955026 
L 669.403125 200.955026 
" clip-path="url(#pa7b3482995)" style="fill: none; stroke: #86a9fc; stroke-opacity: 0.9"/>
    <path d="M 291.233041 331.36 
L 274.299256 314.988283 
L 254.388385 295.342222 
L 237.771812 278.643475 
L 215.79224 256.050101 
L 203.288335 242.952727 
L 190.964418 229.855354 
L 178.820038 216.75798 
L 171.962478 209.279448 
M 144.164129 178.269907 
L 126.380157 157.819798 
L 108.282418 136.45105 
L 93.49368 118.527677 
L 82.894088 105.430303 
L 67.379149 85.784242 
L 58.953125 74.892617 
M 539.931341 7.2 
L 564.578378 28.616824 
L 573.628766 36.622844 
M 604.732551 64.655483 
L 620.541175 79.235556 
L 641.428488 98.881616 
L 655.12009 111.97899 
L 669.403125 125.832972 
L 669.403125 125.832972 
" clip-path="url(#pa7b3482995)" style="fill: none; stroke: #c7d7f0; stroke-opacity: 0.9"/>
    <path d="M 231.643631 331.36 
L 231.60565 331.322972 
L 228.315541 328.085657 
L 225.439489 325.271205 
L 224.973802 324.811313 
L 221.660976 321.53697 
L 219.273327 319.187098 
L 218.342529 318.262626 
L 215.044612 314.988283 
L 213.107165 313.07053 
L 211.749094 311.713939 
L 208.466409 308.439596 
L 206.941004 306.920973 
L 205.193457 305.165253 
L 203.133297 303.100544 
M 173.865174 273.336607 
L 172.980877 272.421818 
L 169.944034 269.298079 
L 169.798935 269.147475 
L 166.651207 265.873131 
L 163.777872 262.90007 
L 163.489312 262.598788 
L 160.359062 259.324444 
L 157.611711 256.46481 
L 157.216862 256.050101 
L 154.104402 252.775758 
L 151.445549 249.99167 
L 150.981548 249.501414 
L 147.887188 246.227071 
L 145.279388 243.480006 
L 144.783331 242.952727 
L 141.707382 239.678384 
L 139.113226 236.929157 
L 138.622172 236.40404 
L 135.564945 233.129697 
L 132.947064 230.33845 
L 132.498035 229.855354 
L 129.459838 226.58101 
L 126.780903 223.707195 
L 126.410881 223.306667 
L 123.392022 220.032323 
L 120.614741 217.034686 
L 120.360672 216.75798 
L 117.361458 213.483636 
L 114.44858 210.320202 
L 114.34737 210.209293 
L 111.368109 206.934949 
L 108.372519 203.660606 
L 108.282418 203.561829 
L 105.411935 200.386263 
L 102.436965 197.111919 
L 102.116256 196.758104 
L 99.492898 193.837576 
L 96.538859 190.563232 
L 95.950095 189.909558 
L 93.61096 187.288889 
L 90.678162 184.014545 
L 89.783933 183.015377 
L 87.766082 180.740202 
L 84.854834 177.465859 
L 83.617771 176.074728 
L 81.958225 174.191515 
L 79.068838 170.917172 
L 77.45161 169.086758 
L 76.187353 167.642828 
L 73.320133 164.368485 
L 71.285448 162.050593 
L 70.453425 161.094141 
L 67.608681 157.819798 
L 65.119287 154.965335 
L 64.756405 154.545455 
L 61.934444 151.271111 
L 59.098828 147.996768 
L 58.953125 147.827936 
M 602.774983 7.2 
L 606.432746 10.474343 
L 607.741509 11.643342 
L 610.076109 13.748687 
L 613.724299 17.02303 
L 613.90767 17.187721 
L 617.33707 20.297374 
L 620.073832 22.765999 
L 620.958637 23.571717 
L 623.125834 25.543267 
M 653.913387 53.889584 
L 656.518397 56.315152 
L 657.070802 56.82954 
L 660.00708 59.589495 
L 663.236963 62.609314 
L 663.506676 62.863838 
L 666.973222 66.138182 
L 669.403125 68.422711 
" clip-path="url(#pa7b3482995)" style="fill: none; stroke: #f3c7b1; stroke-opacity: 0.9"/>
    <path d="M 136.172814 331.36 
L 132.947064 328.142752 
L 132.890226 328.085657 
L 129.635986 324.811313 
L 126.780903 321.950802 
L 126.370796 321.53697 
L 123.128972 318.262626 
L 120.614741 315.732113 
L 119.880958 314.988283 
L 116.651748 311.713939 
L 114.44858 309.486337 
L 113.420688 308.439596 
L 110.503544 305.469901 
M 81.486229 275.617376 
L 78.4126 272.421818 
L 77.45161 271.422738 
L 75.278639 269.147475 
L 72.143215 265.873131 
L 71.285448 264.977159 
L 69.024668 262.598788 
L 65.903424 259.324444 
L 65.119287 258.5015 
L 62.800074 256.050101 
L 59.693203 252.775758 
L 58.953125 251.995358 
" clip-path="url(#pa7b3482995)" style="fill: none; stroke: #b40426; stroke-opacity: 0.9"/>
   </g>
   <g id="patch_3">
    <path d="M 58.953125 331.36 
L 58.953125 7.2 
" style="fill: none; stroke: #000000; stroke-width: 0.7; stroke-linejoin: miter; stroke-linecap: square"/>
   </g>
   <g id="patch_4">
    <path d="M 669.403125 331.36 
L 669.403125 7.2 
" style="fill: none; stroke: #000000; stroke-width: 0.7; stroke-linejoin: miter; stroke-linecap: square"/>
   </g>
   <g id="patch_5">
    <path d="M 58.953125 331.36 
L 669.403125 331.36 
" style="fill: none; stroke: #000000; stroke-width: 0.7; stroke-linejoin: miter; stroke-linecap: square"/>
   </g>
   <g id="patch_6">
    <path d="M 58.953125 7.2 
L 669.403125 7.2 
" style="fill: none; stroke: #000000; stroke-width: 0.7; stroke-linejoin: miter; stroke-linecap: square"/>
   </g>
   <g id="text_13">
    <g clip-path="url(#pa7b3482995)">
     <!-- 980 -->
     <g style="fill: #3b4cc0; opacity: 0.9" transform="translate(486.319628 196.0395) rotate(-314.914759) scale(0.12 -0.12)">
      <defs>
       <path id="DejaVuSans-39" d="M 703 97 
L 703 672 
Q 941 559 1184 500 
Q 1428 441 1663 441 
Q 2288 441 2617 861 
Q 2947 1281 2994 2138 
Q 2813 1869 2534 1725 
Q 2256 1581 1919 1581 
Q 1219 1581 811 2004 
Q 403 2428 403 3163 
Q 403 3881 828 4315 
Q 1253 4750 1959 4750 
Q 2769 4750 3195 4129 
Q 3622 3509 3622 2328 
Q 3622 1225 3098 567 
Q 2575 -91 1691 -91 
Q 1453 -91 1209 -44 
Q 966 3 703 97 
z
M 1959 2075 
Q 2384 2075 2632 2365 
Q 2881 2656 2881 3163 
Q 2881 3666 2632 3958 
Q 2384 4250 1959 4250 
Q 1534 4250 1286 3958 
Q 1038 3666 1038 3163 
Q 1038 2656 1286 2365 
Q 1534 2075 1959 2075 
z
" transform="scale(0.015625)"/>
      </defs>
      <use xlink:href="#DejaVuSans-39"/>
      <use xlink:href="#DejaVuSans-38" x="63.623047"/>
      <use xlink:href="#DejaVuSans-30" x="127.246094"/>
     </g>
    </g>
   </g>
   <g id="text_14">
    <g clip-path="url(#pa7b3482995)">
     <!-- 990 -->
     <g style="fill: #3f53c6; opacity: 0.9" transform="translate(406.269555 234.745972) rotate(-313.840742) scale(0.12 -0.12)">
      <use xlink:href="#DejaVuSans-39"/>
      <use xlink:href="#DejaVuSans-39" x="63.623047"/>
      <use xlink:href="#DejaVuSans-30" x="127.246094"/>
     </g>
    </g>
   </g>
   <g id="text_15">
    <g clip-path="url(#pa7b3482995)">
     <!-- 1020 -->
     <g style="fill: #516ddb; opacity: 0.9" transform="translate(397.804138 280.585232) rotate(-316.074224) scale(0.12 -0.12)">
      <use xlink:href="#DejaVuSans-31"/>
      <use xlink:href="#DejaVuSans-30" x="63.623047"/>
      <use xlink:href="#DejaVuSans-32" x="127.246094"/>
      <use xlink:href="#DejaVuSans-30" x="190.869141"/>
     </g>
    </g>
   </g>
   <g id="text_16">
    <g clip-path="url(#pa7b3482995)">
     <!-- 1020 -->
     <g style="fill: #516ddb; opacity: 0.9" transform="translate(582.22357 204.277103) rotate(-311.663192) scale(0.12 -0.12)">
      <use xlink:href="#DejaVuSans-31"/>
      <use xlink:href="#DejaVuSans-30" x="63.623047"/>
      <use xlink:href="#DejaVuSans-32" x="127.246094"/>
      <use xlink:href="#DejaVuSans-30" x="190.869141"/>
     </g>
    </g>
   </g>
   <g id="text_17">
    <g clip-path="url(#pa7b3482995)">
     <!-- 1100 -->
     <g style="fill: #86a9fc; opacity: 0.9" transform="translate(309.432865 280.144681) rotate(-314.155463) scale(0.12 -0.12)">
      <use xlink:href="#DejaVuSans-31"/>
      <use xlink:href="#DejaVuSans-31" x="63.623047"/>
      <use xlink:href="#DejaVuSans-30" x="127.246094"/>
      <use xlink:href="#DejaVuSans-30" x="190.869141"/>
     </g>
    </g>
   </g>
   <g id="text_18">
    <g clip-path="url(#pa7b3482995)">
     <!-- 1100 -->
     <g style="fill: #86a9fc; opacity: 0.9" transform="translate(590.468392 126.393694) rotate(-314.783501) scale(0.12 -0.12)">
      <use xlink:href="#DejaVuSans-31"/>
      <use xlink:href="#DejaVuSans-31" x="63.623047"/>
      <use xlink:href="#DejaVuSans-30" x="127.246094"/>
      <use xlink:href="#DejaVuSans-30" x="190.869141"/>
     </g>
    </g>
   </g>
   <g id="text_19">
    <g clip-path="url(#pa7b3482995)">
     <!-- 1200 -->
     <g style="fill: #c7d7f0; opacity: 0.9" transform="translate(145.564776 184.358119) rotate(-310.414515) scale(0.12 -0.12)">
      <use xlink:href="#DejaVuSans-31"/>
      <use xlink:href="#DejaVuSans-32" x="63.623047"/>
      <use xlink:href="#DejaVuSans-30" x="127.246094"/>
      <use xlink:href="#DejaVuSans-30" x="190.869141"/>
     </g>
    </g>
   </g>
   <g id="text_20">
    <g clip-path="url(#pa7b3482995)">
     <!-- 1200 -->
     <g style="fill: #c7d7f0; opacity: 0.9" transform="translate(575.886255 42.469041) rotate(-316.506984) scale(0.12 -0.12)">
      <use xlink:href="#DejaVuSans-31"/>
      <use xlink:href="#DejaVuSans-32" x="63.623047"/>
      <use xlink:href="#DejaVuSans-30" x="127.246094"/>
      <use xlink:href="#DejaVuSans-30" x="190.869141"/>
     </g>
    </g>
   </g>
   <g id="text_21">
    <g clip-path="url(#pa7b3482995)">
     <!-- 1300 -->
     <g style="fill: #f3c7b1; opacity: 0.9" transform="translate(175.597352 279.372903) rotate(-313.06022) scale(0.12 -0.12)">
      <defs>
       <path id="DejaVuSans-33" d="M 2597 2516 
Q 3050 2419 3304 2112 
Q 3559 1806 3559 1356 
Q 3559 666 3084 287 
Q 2609 -91 1734 -91 
Q 1441 -91 1130 -33 
Q 819 25 488 141 
L 488 750 
Q 750 597 1062 519 
Q 1375 441 1716 441 
Q 2309 441 2620 675 
Q 2931 909 2931 1356 
Q 2931 1769 2642 2001 
Q 2353 2234 1838 2234 
L 1294 2234 
L 1294 2753 
L 1863 2753 
Q 2328 2753 2575 2939 
Q 2822 3125 2822 3475 
Q 2822 3834 2567 4026 
Q 2313 4219 1838 4219 
Q 1578 4219 1281 4162 
Q 984 4106 628 3988 
L 628 4550 
Q 988 4650 1302 4700 
Q 1616 4750 1894 4750 
Q 2613 4750 3031 4423 
Q 3450 4097 3450 3541 
Q 3450 3153 3228 2886 
Q 3006 2619 2597 2516 
z
" transform="scale(0.015625)"/>
      </defs>
      <use xlink:href="#DejaVuSans-31"/>
      <use xlink:href="#DejaVuSans-33" x="63.623047"/>
      <use xlink:href="#DejaVuSans-30" x="127.246094"/>
      <use xlink:href="#DejaVuSans-30" x="190.869141"/>
     </g>
    </g>
   </g>
   <g id="text_22">
    <g clip-path="url(#pa7b3482995)">
     <!-- 1300 -->
     <g style="fill: #f3c7b1; opacity: 0.9" transform="translate(625.301721 31.416799) rotate(-315.903239) scale(0.12 -0.12)">
      <use xlink:href="#DejaVuSans-31"/>
      <use xlink:href="#DejaVuSans-33" x="63.623047"/>
      <use xlink:href="#DejaVuSans-30" x="127.246094"/>
      <use xlink:href="#DejaVuSans-30" x="190.869141"/>
     </g>
    </g>
   </g>
   <g id="text_23">
    <g clip-path="url(#pa7b3482995)">
     <!-- 1500 -->
     <g style="fill: #b40426; opacity: 0.9" transform="translate(83.157106 281.612062) rotate(-312.725569) scale(0.12 -0.12)">
      <defs>
       <path id="DejaVuSans-35" d="M 691 4666 
L 3169 4666 
L 3169 4134 
L 1269 4134 
L 1269 2991 
Q 1406 3038 1543 3061 
Q 1681 3084 1819 3084 
Q 2600 3084 3056 2656 
Q 3513 2228 3513 1497 
Q 3513 744 3044 326 
Q 2575 -91 1722 -91 
Q 1428 -91 1123 -41 
Q 819 9 494 109 
L 494 744 
Q 775 591 1075 516 
Q 1375 441 1709 441 
Q 2250 441 2565 725 
Q 2881 1009 2881 1497 
Q 2881 1984 2565 2268 
Q 2250 2553 1709 2553 
Q 1456 2553 1204 2497 
Q 953 2441 691 2322 
L 691 4666 
z
" transform="scale(0.015625)"/>
      </defs>
      <use xlink:href="#DejaVuSans-31"/>
      <use xlink:href="#DejaVuSans-35" x="63.623047"/>
      <use xlink:href="#DejaVuSans-30" x="127.246094"/>
      <use xlink:href="#DejaVuSans-30" x="190.869141"/>
     </g>
    </g>
   </g>
  </g>
 </g>
 <defs>
  <clipPath id="pa7b3482995">
   <rect x="58.953125" y="7.2" width="610.45" height="324.16"/>
  </clipPath>
 </defs>
</svg>
