<?xml version="1.0" encoding="utf-8" standalone="no"?>
<!DOCTYPE svg PUBLIC "-//W3C//DTD SVG 1.1//EN"
  "http://www.w3.org/Graphics/SVG/1.1/DTD/svg11.dtd">
<svg xmlns:xlink="http://www.w3.org/1999/xlink" width="423.83pt" height="316.277268pt" viewBox="0 0 423.83 316.277268" xmlns="http://www.w3.org/2000/svg" version="1.1">
 <metadata>
  <rdf:RDF xmlns:dc="http://purl.org/dc/elements/1.1/" xmlns:cc="http://creativecommons.org/ns#" xmlns:rdf="http://www.w3.org/1999/02/22-rdf-syntax-ns#">
   <cc:Work>
    <dc:type rdf:resource="http://purl.org/dc/dcmitype/StillImage"/>
    <dc:date>2024-06-18T23:14:27.525565</dc:date>
    <dc:format>image/svg+xml</dc:format>
    <dc:creator>
     <cc:Agent>
      <dc:title>Matplotlib v3.8.2, https://matplotlib.org/</dc:title>
     </cc:Agent>
    </dc:creator>
   </cc:Work>
  </rdf:RDF>
 </metadata>
 <defs>
  <style type="text/css">*{stroke-linejoin: round; stroke-linecap: butt}</style>
 </defs>
 <g id="figure_1">
  <g id="patch_1">
   <path d="M 0 316.277268 
L 423.83 316.277268 
L 423.83 0 
L 0 0 
z
" style="fill: #ffffff"/>
  </g>
  <g id="axes_1">
   <g id="patch_2">
    <path d="M 58.441875 277.237933 
L 361.001875 277.237933 
L 361.001875 10.999219 
L 58.441875 10.999219 
z
" style="fill: #ffffff"/>
   </g>
   <g id="matplotlib.axis_1">
    <g id="xtick_1">
     <g id="line2d_1">
      <path d="M 70.011009 277.237933 
L 70.011009 10.999219 
" clip-path="url(#pb8ed46d538)" style="fill: none; stroke: #e6e6e6; stroke-width: 0.8; stroke-linecap: square"/>
     </g>
     <g id="line2d_2">
      <defs>
       <path id="m25a2186d52" d="M 0 0 
L 0 3.5 
" style="stroke: #000000; stroke-width: 0.8"/>
      </defs>
      <g>
       <use xlink:href="#m25a2186d52" x="70.011009" y="277.237933" style="stroke: #000000; stroke-width: 0.8"/>
      </g>
     </g>
     <g id="text_1">
      <text style="font: 10px 'DejaVu Sans', 'Bitstream Vera Sans', 'Computer Modern Sans Serif', 'Lucida Grande', 'Verdana', 'Geneva', 'Lucid', 'Arial', 'Helvetica', 'Avant Garde', sans-serif" transform="translate(62.964248 307.606707) rotate(-45)">1987</text>
     </g>
    </g>
    <g id="xtick_2">
     <g id="line2d_3">
      <path d="M 97.850355 277.237933 
L 97.850355 10.999219 
" clip-path="url(#pb8ed46d538)" style="fill: none; stroke: #e6e6e6; stroke-width: 0.8; stroke-linecap: square"/>
     </g>
     <g id="line2d_4">
      <g>
       <use xlink:href="#m25a2186d52" x="97.850355" y="277.237933" style="stroke: #000000; stroke-width: 0.8"/>
      </g>
     </g>
     <g id="text_2">
      <text style="font: 10px 'DejaVu Sans', 'Bitstream Vera Sans', 'Computer Modern Sans Serif', 'Lucida Grande', 'Verdana', 'Geneva', 'Lucid', 'Arial', 'Helvetica', 'Avant Garde', sans-serif" transform="translate(90.803594 307.606707) rotate(-45)">1989</text>
     </g>
    </g>
    <g id="xtick_3">
     <g id="line2d_5">
      <path d="M 125.651618 277.237933 
L 125.651618 10.999219 
" clip-path="url(#pb8ed46d538)" style="fill: none; stroke: #e6e6e6; stroke-width: 0.8; stroke-linecap: square"/>
     </g>
     <g id="line2d_6">
      <g>
       <use xlink:href="#m25a2186d52" x="125.651618" y="277.237933" style="stroke: #000000; stroke-width: 0.8"/>
      </g>
     </g>
     <g id="text_3">
      <text style="font: 10px 'DejaVu Sans', 'Bitstream Vera Sans', 'Computer Modern Sans Serif', 'Lucida Grande', 'Verdana', 'Geneva', 'Lucid', 'Arial', 'Helvetica', 'Avant Garde', sans-serif" transform="translate(118.604857 307.606707) rotate(-45)">1991</text>
     </g>
    </g>
    <g id="xtick_4">
     <g id="line2d_7">
      <path d="M 153.490965 277.237933 
L 153.490965 10.999219 
" clip-path="url(#pb8ed46d538)" style="fill: none; stroke: #e6e6e6; stroke-width: 0.8; stroke-linecap: square"/>
     </g>
     <g id="line2d_8">
      <g>
       <use xlink:href="#m25a2186d52" x="153.490965" y="277.237933" style="stroke: #000000; stroke-width: 0.8"/>
      </g>
     </g>
     <g id="text_4">
      <text style="font: 10px 'DejaVu Sans', 'Bitstream Vera Sans', 'Computer Modern Sans Serif', 'Lucida Grande', 'Verdana', 'Geneva', 'Lucid', 'Arial', 'Helvetica', 'Avant Garde', sans-serif" transform="translate(146.444204 307.606707) rotate(-45)">1993</text>
     </g>
    </g>
    <g id="xtick_5">
     <g id="line2d_9">
      <path d="M 181.292228 277.237933 
L 181.292228 10.999219 
" clip-path="url(#pb8ed46d538)" style="fill: none; stroke: #e6e6e6; stroke-width: 0.8; stroke-linecap: square"/>
     </g>
     <g id="line2d_10">
      <g>
       <use xlink:href="#m25a2186d52" x="181.292228" y="277.237933" style="stroke: #000000; stroke-width: 0.8"/>
      </g>
     </g>
     <g id="text_5">
      <text style="font: 10px 'DejaVu Sans', 'Bitstream Vera Sans', 'Computer Modern Sans Serif', 'Lucida Grande', 'Verdana', 'Geneva', 'Lucid', 'Arial', 'Helvetica', 'Avant Garde', sans-serif" transform="translate(174.245467 307.606707) rotate(-45)">1995</text>
     </g>
    </g>
    <g id="xtick_6">
     <g id="line2d_11">
      <path d="M 209.131574 277.237933 
L 209.131574 10.999219 
" clip-path="url(#pb8ed46d538)" style="fill: none; stroke: #e6e6e6; stroke-width: 0.8; stroke-linecap: square"/>
     </g>
     <g id="line2d_12">
      <g>
       <use xlink:href="#m25a2186d52" x="209.131574" y="277.237933" style="stroke: #000000; stroke-width: 0.8"/>
      </g>
     </g>
     <g id="text_6">
      <text style="font: 10px 'DejaVu Sans', 'Bitstream Vera Sans', 'Computer Modern Sans Serif', 'Lucida Grande', 'Verdana', 'Geneva', 'Lucid', 'Arial', 'Helvetica', 'Avant Garde', sans-serif" transform="translate(202.084813 307.606707) rotate(-45)">1997</text>
     </g>
    </g>
    <g id="xtick_7">
     <g id="line2d_13">
      <path d="M 236.932837 277.237933 
L 236.932837 10.999219 
" clip-path="url(#pb8ed46d538)" style="fill: none; stroke: #e6e6e6; stroke-width: 0.8; stroke-linecap: square"/>
     </g>
     <g id="line2d_14">
      <g>
       <use xlink:href="#m25a2186d52" x="236.932837" y="277.237933" style="stroke: #000000; stroke-width: 0.8"/>
      </g>
     </g>
     <g id="text_7">
      <text style="font: 10px 'DejaVu Sans', 'Bitstream Vera Sans', 'Computer Modern Sans Serif', 'Lucida Grande', 'Verdana', 'Geneva', 'Lucid', 'Arial', 'Helvetica', 'Avant Garde', sans-serif" transform="translate(229.886076 307.606707) rotate(-45)">1999</text>
     </g>
    </g>
    <g id="xtick_8">
     <g id="line2d_15">
      <path d="M 264.772184 277.237933 
L 264.772184 10.999219 
" clip-path="url(#pb8ed46d538)" style="fill: none; stroke: #e6e6e6; stroke-width: 0.8; stroke-linecap: square"/>
     </g>
     <g id="line2d_16">
      <g>
       <use xlink:href="#m25a2186d52" x="264.772184" y="277.237933" style="stroke: #000000; stroke-width: 0.8"/>
      </g>
     </g>
     <g id="text_8">
      <text style="font: 10px 'DejaVu Sans', 'Bitstream Vera Sans', 'Computer Modern Sans Serif', 'Lucida Grande', 'Verdana', 'Geneva', 'Lucid', 'Arial', 'Helvetica', 'Avant Garde', sans-serif" transform="translate(257.725423 307.606707) rotate(-45)">2001</text>
     </g>
    </g>
    <g id="xtick_9">
     <g id="line2d_17">
      <path d="M 292.573446 277.237933 
L 292.573446 10.999219 
" clip-path="url(#pb8ed46d538)" style="fill: none; stroke: #e6e6e6; stroke-width: 0.8; stroke-linecap: square"/>
     </g>
     <g id="line2d_18">
      <g>
       <use xlink:href="#m25a2186d52" x="292.573446" y="277.237933" style="stroke: #000000; stroke-width: 0.8"/>
      </g>
     </g>
     <g id="text_9">
      <text style="font: 10px 'DejaVu Sans', 'Bitstream Vera Sans', 'Computer Modern Sans Serif', 'Lucida Grande', 'Verdana', 'Geneva', 'Lucid', 'Arial', 'Helvetica', 'Avant Garde', sans-serif" transform="translate(285.526685 307.606707) rotate(-45)">2003</text>
     </g>
    </g>
    <g id="xtick_10">
     <g id="line2d_19">
      <path d="M 320.412793 277.237933 
L 320.412793 10.999219 
" clip-path="url(#pb8ed46d538)" style="fill: none; stroke: #e6e6e6; stroke-width: 0.8; stroke-linecap: square"/>
     </g>
     <g id="line2d_20">
      <g>
       <use xlink:href="#m25a2186d52" x="320.412793" y="277.237933" style="stroke: #000000; stroke-width: 0.8"/>
      </g>
     </g>
     <g id="text_10">
      <text style="font: 10px 'DejaVu Sans', 'Bitstream Vera Sans', 'Computer Modern Sans Serif', 'Lucida Grande', 'Verdana', 'Geneva', 'Lucid', 'Arial', 'Helvetica', 'Avant Garde', sans-serif" transform="translate(313.366032 307.606707) rotate(-45)">2005</text>
     </g>
    </g>
    <g id="xtick_11">
     <g id="line2d_21">
      <path d="M 348.214056 277.237933 
L 348.214056 10.999219 
" clip-path="url(#pb8ed46d538)" style="fill: none; stroke: #e6e6e6; stroke-width: 0.8; stroke-linecap: square"/>
     </g>
     <g id="line2d_22">
      <g>
       <use xlink:href="#m25a2186d52" x="348.214056" y="277.237933" style="stroke: #000000; stroke-width: 0.8"/>
      </g>
     </g>
     <g id="text_11">
      <text style="font: 10px 'DejaVu Sans', 'Bitstream Vera Sans', 'Computer Modern Sans Serif', 'Lucida Grande', 'Verdana', 'Geneva', 'Lucid', 'Arial', 'Helvetica', 'Avant Garde', sans-serif" transform="translate(341.167295 307.606707) rotate(-45)">2007</text>
     </g>
    </g>
   </g>
   <g id="matplotlib.axis_2">
    <g id="ytick_1">
     <g id="line2d_23">
      <path d="M 58.441875 277.237933 
L 361.001875 277.237933 
" clip-path="url(#pb8ed46d538)" style="fill: none; stroke: #e6e6e6; stroke-width: 0.8; stroke-linecap: square"/>
     </g>
     <g id="line2d_24">
      <defs>
       <path id="m402e6f850c" d="M 0 0 
L -3.5 0 
" style="stroke: #000000; stroke-width: 0.8"/>
      </defs>
      <g>
       <use xlink:href="#m402e6f850c" x="58.441875" y="277.237933" style="stroke: #000000; stroke-width: 0.8"/>
      </g>
     </g>
     <g id="text_12">
      <text style="font: 10px 'DejaVu Sans', 'Bitstream Vera Sans', 'Computer Modern Sans Serif', 'Lucida Grande', 'Verdana', 'Geneva', 'Lucid', 'Arial', 'Helvetica', 'Avant Garde', sans-serif; text-anchor: end" x="51.441875" y="281.037152" transform="rotate(-0 51.441875 281.037152)">0.000</text>
     </g>
    </g>
    <g id="ytick_2">
     <g id="line2d_25">
      <path d="M 58.441875 226.75632 
L 361.001875 226.75632 
" clip-path="url(#pb8ed46d538)" style="fill: none; stroke: #e6e6e6; stroke-width: 0.8; stroke-linecap: square"/>
     </g>
     <g id="line2d_26">
      <g>
       <use xlink:href="#m402e6f850c" x="58.441875" y="226.75632" style="stroke: #000000; stroke-width: 0.8"/>
      </g>
     </g>
     <g id="text_13">
      <text style="font: 10px 'DejaVu Sans', 'Bitstream Vera Sans', 'Computer Modern Sans Serif', 'Lucida Grande', 'Verdana', 'Geneva', 'Lucid', 'Arial', 'Helvetica', 'Avant Garde', sans-serif; text-anchor: end" x="51.441875" y="230.555538" transform="rotate(-0 51.441875 230.555538)">0.001</text>
     </g>
    </g>
    <g id="ytick_3">
     <g id="line2d_27">
      <path d="M 58.441875 176.274706 
L 361.001875 176.274706 
" clip-path="url(#pb8ed46d538)" style="fill: none; stroke: #e6e6e6; stroke-width: 0.8; stroke-linecap: square"/>
     </g>
     <g id="line2d_28">
      <g>
       <use xlink:href="#m402e6f850c" x="58.441875" y="176.274706" style="stroke: #000000; stroke-width: 0.8"/>
      </g>
     </g>
     <g id="text_14">
      <text style="font: 10px 'DejaVu Sans', 'Bitstream Vera Sans', 'Computer Modern Sans Serif', 'Lucida Grande', 'Verdana', 'Geneva', 'Lucid', 'Arial', 'Helvetica', 'Avant Garde', sans-serif; text-anchor: end" x="51.441875" y="180.073925" transform="rotate(-0 51.441875 180.073925)">0.002</text>
     </g>
    </g>
    <g id="ytick_4">
     <g id="line2d_29">
      <path d="M 58.441875 125.793093 
L 361.001875 125.793093 
" clip-path="url(#pb8ed46d538)" style="fill: none; stroke: #e6e6e6; stroke-width: 0.8; stroke-linecap: square"/>
     </g>
     <g id="line2d_30">
      <g>
       <use xlink:href="#m402e6f850c" x="58.441875" y="125.793093" style="stroke: #000000; stroke-width: 0.8"/>
      </g>
     </g>
     <g id="text_15">
      <text style="font: 10px 'DejaVu Sans', 'Bitstream Vera Sans', 'Computer Modern Sans Serif', 'Lucida Grande', 'Verdana', 'Geneva', 'Lucid', 'Arial', 'Helvetica', 'Avant Garde', sans-serif; text-anchor: end" x="51.441875" y="129.592312" transform="rotate(-0 51.441875 129.592312)">0.003</text>
     </g>
    </g>
    <g id="ytick_5">
     <g id="line2d_31">
      <path d="M 58.441875 75.31148 
L 361.001875 75.31148 
" clip-path="url(#pb8ed46d538)" style="fill: none; stroke: #e6e6e6; stroke-width: 0.8; stroke-linecap: square"/>
     </g>
     <g id="line2d_32">
      <g>
       <use xlink:href="#m402e6f850c" x="58.441875" y="75.31148" style="stroke: #000000; stroke-width: 0.8"/>
      </g>
     </g>
     <g id="text_16">
      <text style="font: 10px 'DejaVu Sans', 'Bitstream Vera Sans', 'Computer Modern Sans Serif', 'Lucida Grande', 'Verdana', 'Geneva', 'Lucid', 'Arial', 'Helvetica', 'Avant Garde', sans-serif; text-anchor: end" x="51.441875" y="79.110698" transform="rotate(-0 51.441875 79.110698)">0.004</text>
     </g>
    </g>
    <g id="ytick_6">
     <g id="line2d_33">
      <path d="M 58.441875 24.829866 
L 361.001875 24.829866 
" clip-path="url(#pb8ed46d538)" style="fill: none; stroke: #e6e6e6; stroke-width: 0.8; stroke-linecap: square"/>
     </g>
     <g id="line2d_34">
      <g>
       <use xlink:href="#m402e6f850c" x="58.441875" y="24.829866" style="stroke: #000000; stroke-width: 0.8"/>
      </g>
     </g>
     <g id="text_17">
      <text style="font: 10px 'DejaVu Sans', 'Bitstream Vera Sans', 'Computer Modern Sans Serif', 'Lucida Grande', 'Verdana', 'Geneva', 'Lucid', 'Arial', 'Helvetica', 'Avant Garde', sans-serif; text-anchor: end" x="51.441875" y="28.629085" transform="rotate(-0 51.441875 28.629085)">0.005</text>
     </g>
    </g>
    <g id="text_18">
     <text style="font: 12px 'DejaVu Sans', 'Bitstream Vera Sans', 'Computer Modern Sans Serif', 'Lucida Grande', 'Verdana', 'Geneva', 'Lucid', 'Arial', 'Helvetica', 'Avant Garde', sans-serif; text-anchor: middle" x="16.318125" y="144.118576" transform="rotate(-90 16.318125 144.118576)">Import penetration</text>
    </g>
   </g>
   <g id="line2d_35">
    <path d="M 65.440938 264.302473 
L 68.830407 263.252426 
L 72.334128 262.371171 
L 75.837849 261.909641 
L 79.341569 261.474324 
L 82.769122 261.153381 
L 86.272843 260.056879 
L 89.776564 258.547274 
L 93.280285 257.453993 
L 96.669754 256.330203 
L 100.173475 254.056873 
L 103.677195 251.717524 
L 107.180916 250.551597 
L 110.570385 249.250587 
L 114.074106 247.703554 
L 117.577827 246.032673 
L 121.081548 244.950728 
L 124.471017 244.422005 
L 127.974737 243.005023 
L 131.478458 240.182568 
L 134.982179 237.679569 
L 138.409732 235.371939 
L 141.913453 232.093947 
L 145.417173 229.744384 
L 148.920894 228.266426 
L 152.310363 225.998358 
L 155.814084 223.608157 
L 159.317805 221.779369 
L 162.821526 220.112751 
L 166.210995 219.178999 
L 169.714715 216.094487 
L 173.218436 213.371128 
L 176.722157 210.969831 
L 180.111626 208.351815 
L 183.615347 206.020555 
L 187.119068 204.455892 
L 190.622788 204.132628 
L 194.050341 204.882736 
L 197.554062 203.685692 
L 201.057783 200.547974 
L 204.561504 197.894574 
L 207.950973 194.898313 
L 211.454693 192.440745 
L 214.958414 189.850204 
L 218.462135 187.606106 
L 221.851604 185.483259 
L 225.355325 184.080071 
L 228.859046 183.037585 
L 232.362766 182.595549 
L 235.752235 181.362573 
L 239.255956 179.331604 
L 242.759677 177.671045 
L 246.263398 174.747198 
L 249.690951 172.571085 
L 253.194671 167.366803 
L 256.698392 162.168476 
L 260.202113 159.08436 
L 263.591582 158.657378 
L 267.095303 159.235607 
L 270.599024 159.992847 
L 274.102744 160.582076 
L 277.492213 157.722445 
L 280.995934 151.175914 
L 284.499655 144.946835 
L 288.003376 136.784305 
L 291.392845 131.234322 
L 294.896566 128.667007 
L 298.400286 122.39507 
L 301.904007 118.143444 
L 305.33156 111.303572 
L 308.835281 102.102235 
L 312.339002 94.023555 
L 315.842722 85.030805 
L 319.232191 77.274177 
L 322.735912 69.894119 
L 326.239633 62.412138 
L 329.743354 58.804891 
L 333.132823 52.744672 
L 336.636544 45.748225 
L 340.140264 35.051629 
L 343.643985 27.288241 
L 347.033454 23.004042 
L 350.537175 18.179277 
L 354.040896 15.965949 
" clip-path="url(#pb8ed46d538)" style="fill: none; stroke: #000080; stroke-width: 1.5; stroke-linecap: square"/>
   </g>
   <g id="patch_3">
    <path d="M 58.441875 277.237933 
L 58.441875 10.999219 
" style="fill: none; stroke: #000000; stroke-width: 0.8; stroke-linejoin: miter; stroke-linecap: square"/>
   </g>
   <g id="patch_4">
    <path d="M 361.001875 277.237933 
L 361.001875 10.999219 
" style="fill: none; stroke: #000000; stroke-width: 0.8; stroke-linejoin: miter; stroke-linecap: square"/>
   </g>
   <g id="patch_5">
    <path d="M 58.441875 277.237933 
L 361.001875 277.237933 
" style="fill: none; stroke: #000000; stroke-width: 0.8; stroke-linejoin: miter; stroke-linecap: square"/>
   </g>
   <g id="patch_6">
    <path d="M 58.441875 10.999219 
L 361.001875 10.999219 
" style="fill: none; stroke: #000000; stroke-width: 0.8; stroke-linejoin: miter; stroke-linecap: square"/>
   </g>
   <g id="legend_1">
    <g id="patch_7">
     <path d="M 120.753875 42.947864 
L 325.397 42.947864 
Q 327.197 42.947864 327.197 41.147864 
L 327.197 15.627239 
Q 327.197 13.827239 325.397 13.827239 
L 120.753875 13.827239 
Q 118.953875 13.827239 118.953875 15.627239 
L 118.953875 41.147864 
Q 118.953875 42.947864 120.753875 42.947864 
z
" style="fill: #ffffff; opacity: 0.8; stroke: #cccccc; stroke-linejoin: miter"/>
    </g>
    <g id="line2d_36">
     <path d="M 122.553875 21.115833 
L 131.553875 21.115833 
L 140.553875 21.115833 
" style="fill: none; stroke: #000080; stroke-width: 1.5; stroke-linecap: square"/>
    </g>
    <g id="text_19">
     <text style="font: 9px 'DejaVu Sans', 'Bitstream Vera Sans', 'Computer Modern Sans Serif', 'Lucida Grande', 'Verdana', 'Geneva', 'Lucid', 'Arial', 'Helvetica', 'Avant Garde', sans-serif; text-anchor: start" x="147.753875" y="24.265833" transform="rotate(-0 147.753875 24.265833)">China import penetration ratio</text>
    </g>
    <g id="line2d_37">
     <path d="M 122.553875 34.326146 
L 131.553875 34.326146 
L 140.553875 34.326146 
" style="fill: none; stroke-dasharray: 5.55,2.4; stroke-dashoffset: 0; stroke: #800000; stroke-width: 1.5"/>
    </g>
    <g id="text_20">
     <text style="font: 9px 'DejaVu Sans', 'Bitstream Vera Sans', 'Computer Modern Sans Serif', 'Lucida Grande', 'Verdana', 'Geneva', 'Lucid', 'Arial', 'Helvetica', 'Avant Garde', sans-serif; text-anchor: start" x="147.753875" y="37.476146" transform="rotate(-0 147.753875 37.476146)">Manufacturing employment/population</text>
    </g>
   </g>
  </g>
  <g id="axes_2">
   <g id="matplotlib.axis_3">
    <g id="ytick_7">
     <g id="line2d_38">
      <defs>
       <path id="m8892c5b060" d="M 0 0 
L 3.5 0 
" style="stroke: #000000; stroke-width: 0.8"/>
      </defs>
      <g>
       <use xlink:href="#m8892c5b060" x="361.001875" y="269.223588" style="stroke: #000000; stroke-width: 0.8"/>
      </g>
     </g>
     <g id="text_21">
      <text style="font: 10px 'DejaVu Sans', 'Bitstream Vera Sans', 'Computer Modern Sans Serif', 'Lucida Grande', 'Verdana', 'Geneva', 'Lucid', 'Arial', 'Helvetica', 'Avant Garde', sans-serif; text-anchor: start" x="368.001875" y="273.022807" transform="rotate(-0 368.001875 273.022807)">0.090</text>
     </g>
    </g>
    <g id="ytick_8">
     <g id="line2d_39">
      <g>
       <use xlink:href="#m8892c5b060" x="361.001875" y="204.667496" style="stroke: #000000; stroke-width: 0.8"/>
      </g>
     </g>
     <g id="text_22">
      <text style="font: 10px 'DejaVu Sans', 'Bitstream Vera Sans', 'Computer Modern Sans Serif', 'Lucida Grande', 'Verdana', 'Geneva', 'Lucid', 'Arial', 'Helvetica', 'Avant Garde', sans-serif; text-anchor: start" x="368.001875" y="208.466714" transform="rotate(-0 368.001875 208.466714)">0.105</text>
     </g>
    </g>
    <g id="ytick_9">
     <g id="line2d_40">
      <g>
       <use xlink:href="#m8892c5b060" x="361.001875" y="140.111403" style="stroke: #000000; stroke-width: 0.8"/>
      </g>
     </g>
     <g id="text_23">
      <text style="font: 10px 'DejaVu Sans', 'Bitstream Vera Sans', 'Computer Modern Sans Serif', 'Lucida Grande', 'Verdana', 'Geneva', 'Lucid', 'Arial', 'Helvetica', 'Avant Garde', sans-serif; text-anchor: start" x="368.001875" y="143.910622" transform="rotate(-0 368.001875 143.910622)">0.120</text>
     </g>
    </g>
    <g id="ytick_10">
     <g id="line2d_41">
      <g>
       <use xlink:href="#m8892c5b060" x="361.001875" y="75.555311" style="stroke: #000000; stroke-width: 0.8"/>
      </g>
     </g>
     <g id="text_24">
      <text style="font: 10px 'DejaVu Sans', 'Bitstream Vera Sans', 'Computer Modern Sans Serif', 'Lucida Grande', 'Verdana', 'Geneva', 'Lucid', 'Arial', 'Helvetica', 'Avant Garde', sans-serif; text-anchor: start" x="368.001875" y="79.35453" transform="rotate(-0 368.001875 79.35453)">0.135</text>
     </g>
    </g>
    <g id="ytick_11">
     <g id="line2d_42">
      <g>
       <use xlink:href="#m8892c5b060" x="361.001875" y="10.999219" style="stroke: #000000; stroke-width: 0.8"/>
      </g>
     </g>
     <g id="text_25">
      <text style="font: 10px 'DejaVu Sans', 'Bitstream Vera Sans', 'Computer Modern Sans Serif', 'Lucida Grande', 'Verdana', 'Geneva', 'Lucid', 'Arial', 'Helvetica', 'Avant Garde', sans-serif; text-anchor: start" x="368.001875" y="14.798438" transform="rotate(-0 368.001875 14.798438)">0.150</text>
     </g>
    </g>
    <g id="text_26">
     <text style="font: 12px 'DejaVu Sans', 'Bitstream Vera Sans', 'Computer Modern Sans Serif', 'Lucida Grande', 'Verdana', 'Geneva', 'Lucid', 'Arial', 'Helvetica', 'Avant Garde', sans-serif; text-anchor: middle" x="407.511875" y="144.118576" transform="rotate(-270 407.511875 144.118576)">Manufacturing emp./pop.</text>
    </g>
   </g>
   <g id="line2d_43">
    <path d="M 64.260337 24.099288 
L 65.440938 24.341599 
L 66.507288 24.837435 
L 67.687889 24.537663 
L 68.830407 27.467097 
L 70.011009 25.733027 
L 71.153526 25.08036 
L 72.334128 25.940225 
L 73.514729 22.139503 
L 74.657247 23.404134 
L 75.837849 21.92459 
L 76.980366 21.706076 
L 78.160968 23.64158 
L 79.341569 23.446232 
L 80.446003 21.426389 
L 81.626605 22.132058 
L 82.769122 20.548984 
L 83.949724 21.803474 
L 85.092242 22.45145 
L 86.272843 26.07332 
L 87.453445 24.408706 
L 88.595962 23.849934 
L 89.776564 24.775102 
L 90.919082 23.92567 
L 92.099683 26.747159 
L 93.280285 25.512784 
L 94.346635 25.809291 
L 95.527236 27.708797 
L 96.669754 27.768167 
L 97.850355 31.347356 
L 98.992873 32.351796 
L 100.173475 33.906789 
L 101.354076 34.249912 
L 103.677195 38.953135 
L 104.819713 38.431466 
L 106.000315 47.867258 
L 107.180916 43.985083 
L 108.247266 45.283466 
L 109.427868 45.33179 
L 110.570385 48.157358 
L 111.750987 47.326683 
L 114.074106 53.681356 
L 115.254708 54.579487 
L 116.397225 56.164658 
L 117.577827 61.608355 
L 119.900946 64.413698 
L 121.081548 68.78312 
L 122.147897 72.218701 
L 123.328499 75.248552 
L 124.471017 74.3192 
L 125.651618 75.919319 
L 126.794136 76.093986 
L 127.974737 75.73442 
L 129.155339 78.537176 
L 130.297857 78.87448 
L 132.620976 81.794959 
L 133.801577 87.095269 
L 134.982179 87.191854 
L 136.086613 89.772721 
L 137.267214 89.948184 
L 138.409732 91.043284 
L 139.590333 92.841597 
L 140.732851 93.531942 
L 141.913453 94.955484 
L 143.094054 95.202817 
L 144.236572 93.45624 
L 145.417173 95.041107 
L 146.559691 95.166428 
L 147.740293 93.755705 
L 148.920894 93.540773 
L 149.987244 94.488378 
L 151.167846 95.196997 
L 152.310363 98.349842 
L 153.490965 99.782074 
L 154.633482 99.821614 
L 155.814084 100.708741 
L 156.994686 98.267235 
L 158.137203 99.28246 
L 159.317805 99.145402 
L 160.460322 99.635234 
L 161.640924 101.110288 
L 162.821526 101.190045 
L 163.887875 98.889236 
L 166.210995 98.366325 
L 167.391596 95.852054 
L 168.534114 95.715543 
L 169.714715 96.57405 
L 170.895317 96.082735 
L 172.037835 96.509515 
L 174.360954 95.00712 
L 175.541555 93.910367 
L 176.722157 94.140566 
L 177.788507 94.17592 
L 178.969108 95.733452 
L 180.111626 93.210301 
L 181.292228 94.020108 
L 182.434745 96.637921 
L 183.615347 95.892835 
L 184.795948 96.828333 
L 185.938466 98.276446 
L 187.119068 98.074214 
L 188.261585 96.925582 
L 189.442187 98.115089 
L 190.622788 98.846624 
L 191.727222 100.96476 
L 194.050341 102.055279 
L 195.230943 102.050943 
L 196.37346 104.571035 
L 197.554062 102.596628 
L 198.734664 104.591115 
L 199.877181 105.741711 
L 201.057783 105.805684 
L 202.2003 106.014796 
L 203.380902 106.995841 
L 204.561504 106.164625 
L 205.627853 107.393216 
L 206.808455 107.613133 
L 207.950973 107.617489 
L 209.131574 107.198354 
L 210.274092 108.206017 
L 211.454693 106.787334 
L 212.635295 106.60726 
L 213.777813 104.926279 
L 214.958414 104.896161 
L 216.100932 104.67235 
L 217.281533 103.457651 
L 218.462135 103.27512 
L 219.528485 103.461441 
L 220.709086 103.11462 
L 221.851604 104.416294 
L 223.032206 105.25066 
L 224.174723 111.601647 
L 225.355325 107.1193 
L 226.535926 110.150858 
L 227.678444 111.52376 
L 228.859046 113.387234 
L 230.001563 114.875199 
L 231.182165 116.994319 
L 232.362766 117.845567 
L 233.429116 117.762856 
L 234.609718 119.394088 
L 235.752235 120.305916 
L 236.932837 122.334141 
L 238.075355 122.354338 
L 239.255956 122.968056 
L 241.579075 124.731734 
L 243.902195 126.026471 
L 245.082796 133.699371 
L 246.263398 134.362853 
L 247.367831 133.768529 
L 248.548433 135.05006 
L 249.690951 134.29482 
L 250.871552 134.525244 
L 252.01407 132.590341 
L 254.375273 136.250908 
L 255.517791 137.022604 
L 257.84091 140.374589 
L 259.021511 144.660558 
L 260.202113 146.584039 
L 261.268463 150.065468 
L 262.449064 152.889915 
L 263.591582 156.241943 
L 264.772184 160.761139 
L 265.914701 165.770743 
L 267.095303 169.00885 
L 268.275904 174.833279 
L 270.599024 184.384065 
L 271.741541 187.996675 
L 272.922143 190.331419 
L 274.102744 194.955349 
L 275.169094 196.550529 
L 277.492213 201.1485 
L 278.672815 201.898751 
L 279.815333 203.131348 
L 282.176536 209.51553 
L 284.499655 211.708945 
L 285.642173 214.159006 
L 286.822774 218.155959 
L 288.003376 221.148962 
L 289.069726 222.684774 
L 290.250327 227.314473 
L 291.392845 228.91826 
L 292.573446 232.408143 
L 293.715964 233.42838 
L 294.896566 234.076897 
L 298.400286 237.428615 
L 299.542804 237.123802 
L 300.723406 237.73966 
L 301.904007 237.682662 
L 303.008441 238.118245 
L 304.189042 237.0298 
L 305.33156 236.852994 
L 306.512162 238.269118 
L 307.654679 238.984465 
L 308.835281 238.184773 
L 310.015882 238.170625 
L 311.1584 239.211591 
L 312.339002 240.977193 
L 313.481519 241.26944 
L 314.662121 242.057485 
L 315.842722 242.529287 
L 316.909072 242.720632 
L 318.089674 244.756376 
L 320.412793 246.280577 
L 321.555311 246.842023 
L 322.735912 248.452117 
L 323.916514 249.732 
L 325.059031 249.371718 
L 326.239633 249.688772 
L 327.382151 249.421739 
L 328.562752 249.433389 
L 329.743354 250.615981 
L 330.809704 250.936269 
L 331.990305 250.77679 
L 333.132823 251.93701 
L 334.313424 252.414567 
L 335.455942 253.186737 
L 336.636544 254.910696 
L 337.817145 255.73251 
L 338.959663 258.146995 
L 340.140264 260.061276 
L 341.282782 261.640224 
L 342.463384 262.899386 
L 343.643985 262.79455 
L 344.710335 263.728729 
L 345.890937 262.847103 
L 347.033454 263.904169 
L 348.214056 265.362228 
L 349.356573 266.014075 
L 350.537175 266.952946 
L 351.717777 269.707785 
L 352.860294 269.854892 
L 354.040896 271.689702 
L 355.183413 272.204816 
L 355.183413 272.204816 
" clip-path="url(#pb8ed46d538)" style="fill: none; stroke-dasharray: 5.55,2.4; stroke-dashoffset: 0; stroke: #800000; stroke-width: 1.5"/>
   </g>
   <g id="patch_8">
    <path d="M 58.441875 277.237933 
L 58.441875 10.999219 
" style="fill: none; stroke: #000000; stroke-width: 0.8; stroke-linejoin: miter; stroke-linecap: square"/>
   </g>
   <g id="patch_9">
    <path d="M 361.001875 277.237933 
L 361.001875 10.999219 
" style="fill: none; stroke: #000000; stroke-width: 0.8; stroke-linejoin: miter; stroke-linecap: square"/>
   </g>
   <g id="patch_10">
    <path d="M 58.441875 277.237933 
L 361.001875 277.237933 
" style="fill: none; stroke: #000000; stroke-width: 0.8; stroke-linejoin: miter; stroke-linecap: square"/>
   </g>
   <g id="patch_11">
    <path d="M 58.441875 10.999219 
L 361.001875 10.999219 
" style="fill: none; stroke: #000000; stroke-width: 0.8; stroke-linejoin: miter; stroke-linecap: square"/>
   </g>
  </g>
 </g>
 <defs>
  <clipPath id="pb8ed46d538">
   <rect x="58.441875" y="10.999219" width="302.56" height="266.238714"/>
  </clipPath>
 </defs>
</svg>
