<?xml version="1.0" encoding="utf-8" standalone="no"?>
<!DOCTYPE svg PUBLIC "-//W3C//DTD SVG 1.1//EN"
  "http://www.w3.org/Graphics/SVG/1.1/DTD/svg11.dtd">
<svg xmlns:xlink="http://www.w3.org/1999/xlink" width="898.689375pt" height="381.198125pt" viewBox="0 0 898.689375 381.198125" xmlns="http://www.w3.org/2000/svg" version="1.1">
 <metadata>
  <rdf:RDF xmlns:dc="http://purl.org/dc/elements/1.1/" xmlns:cc="http://creativecommons.org/ns#" xmlns:rdf="http://www.w3.org/1999/02/22-rdf-syntax-ns#">
   <cc:Work>
    <dc:type rdf:resource="http://purl.org/dc/dcmitype/StillImage"/>
    <dc:date>2024-06-13T01:52:31.003917</dc:date>
    <dc:format>image/svg+xml</dc:format>
    <dc:creator>
     <cc:Agent>
      <dc:title>Matplotlib v3.8.2, https://matplotlib.org/</dc:title>
     </cc:Agent>
    </dc:creator>
   </cc:Work>
  </rdf:RDF>
 </metadata>
 <defs>
  <style type="text/css">*{stroke-linejoin: round; stroke-linecap: butt}</style>
 </defs>
 <g id="figure_1">
  <g id="patch_1">
   <path d="M 0 381.198125 
L 898.689375 381.198125 
L 898.689375 0 
L 0 0 
z
" style="fill: #ffffff"/>
  </g>
  <g id="axes_1">
   <g id="patch_2">
    <path d="M 52.079375 357.32 
L 891.489375 357.32 
L 891.489375 7.2 
L 52.079375 7.2 
z
" style="fill: #ffffff"/>
   </g>
   <g id="patch_3">
    <path d="M 480.614114 357.32 
L 480.614114 7.2 
L 702.631389 7.2 
L 702.631389 357.32 
z
" clip-path="url(#p93eb2f8b18)" style="fill: #008000; opacity: 0.1; stroke: #008000; stroke-linejoin: miter"/>
   </g>
   <g id="matplotlib.axis_1">
    <g id="xtick_1">
     <g id="line2d_1">
      <path d="M 72.62227 357.32 
L 72.62227 7.2 
" clip-path="url(#p93eb2f8b18)" style="fill: none; stroke: #e6e6e6; stroke-width: 0.8; stroke-linecap: square"/>
     </g>
     <g id="line2d_2">
      <defs>
       <path id="m11e6937ff6" d="M 0 0 
L 0 3.5 
" style="stroke: #000000; stroke-width: 0.8"/>
      </defs>
      <g>
       <use xlink:href="#m11e6937ff6" x="72.62227" y="357.32" style="stroke: #000000; stroke-width: 0.8"/>
      </g>
     </g>
     <g id="text_1">
      <text style="font: 10px 'DejaVu Sans', 'Bitstream Vera Sans', 'Computer Modern Sans Serif', 'Lucida Grande', 'Verdana', 'Geneva', 'Lucid', 'Arial', 'Helvetica', 'Avant Garde', sans-serif; text-anchor: middle" x="72.62227" y="371.918438" transform="rotate(-0 72.62227 371.918438)">1948</text>
     </g>
    </g>
    <g id="xtick_2">
     <g id="line2d_3">
      <path d="M 125.484904 357.32 
L 125.484904 7.2 
" clip-path="url(#p93eb2f8b18)" style="fill: none; stroke: #e6e6e6; stroke-width: 0.8; stroke-linecap: square"/>
     </g>
     <g id="line2d_4">
      <g>
       <use xlink:href="#m11e6937ff6" x="125.484904" y="357.32" style="stroke: #000000; stroke-width: 0.8"/>
      </g>
     </g>
     <g id="text_2">
      <text style="font: 10px 'DejaVu Sans', 'Bitstream Vera Sans', 'Computer Modern Sans Serif', 'Lucida Grande', 'Verdana', 'Geneva', 'Lucid', 'Arial', 'Helvetica', 'Avant Garde', sans-serif; text-anchor: middle" x="125.484904" y="371.918438" transform="rotate(-0 125.484904 371.918438)">1953</text>
     </g>
    </g>
    <g id="xtick_3">
     <g id="line2d_5">
      <path d="M 178.347539 357.32 
L 178.347539 7.2 
" clip-path="url(#p93eb2f8b18)" style="fill: none; stroke: #e6e6e6; stroke-width: 0.8; stroke-linecap: square"/>
     </g>
     <g id="line2d_6">
      <g>
       <use xlink:href="#m11e6937ff6" x="178.347539" y="357.32" style="stroke: #000000; stroke-width: 0.8"/>
      </g>
     </g>
     <g id="text_3">
      <text style="font: 10px 'DejaVu Sans', 'Bitstream Vera Sans', 'Computer Modern Sans Serif', 'Lucida Grande', 'Verdana', 'Geneva', 'Lucid', 'Arial', 'Helvetica', 'Avant Garde', sans-serif; text-anchor: middle" x="178.347539" y="371.918438" transform="rotate(-0 178.347539 371.918438)">1958</text>
     </g>
    </g>
    <g id="xtick_4">
     <g id="line2d_7">
      <path d="M 231.210173 357.32 
L 231.210173 7.2 
" clip-path="url(#p93eb2f8b18)" style="fill: none; stroke: #e6e6e6; stroke-width: 0.8; stroke-linecap: square"/>
     </g>
     <g id="line2d_8">
      <g>
       <use xlink:href="#m11e6937ff6" x="231.210173" y="357.32" style="stroke: #000000; stroke-width: 0.8"/>
      </g>
     </g>
     <g id="text_4">
      <text style="font: 10px 'DejaVu Sans', 'Bitstream Vera Sans', 'Computer Modern Sans Serif', 'Lucida Grande', 'Verdana', 'Geneva', 'Lucid', 'Arial', 'Helvetica', 'Avant Garde', sans-serif; text-anchor: middle" x="231.210173" y="371.918438" transform="rotate(-0 231.210173 371.918438)">1963</text>
     </g>
    </g>
    <g id="xtick_5">
     <g id="line2d_9">
      <path d="M 284.101758 357.32 
L 284.101758 7.2 
" clip-path="url(#p93eb2f8b18)" style="fill: none; stroke: #e6e6e6; stroke-width: 0.8; stroke-linecap: square"/>
     </g>
     <g id="line2d_10">
      <g>
       <use xlink:href="#m11e6937ff6" x="284.101758" y="357.32" style="stroke: #000000; stroke-width: 0.8"/>
      </g>
     </g>
     <g id="text_5">
      <text style="font: 10px 'DejaVu Sans', 'Bitstream Vera Sans', 'Computer Modern Sans Serif', 'Lucida Grande', 'Verdana', 'Geneva', 'Lucid', 'Arial', 'Helvetica', 'Avant Garde', sans-serif; text-anchor: middle" x="284.101758" y="371.918438" transform="rotate(-0 284.101758 371.918438)">1968</text>
     </g>
    </g>
    <g id="xtick_6">
     <g id="line2d_11">
      <path d="M 336.964392 357.32 
L 336.964392 7.2 
" clip-path="url(#p93eb2f8b18)" style="fill: none; stroke: #e6e6e6; stroke-width: 0.8; stroke-linecap: square"/>
     </g>
     <g id="line2d_12">
      <g>
       <use xlink:href="#m11e6937ff6" x="336.964392" y="357.32" style="stroke: #000000; stroke-width: 0.8"/>
      </g>
     </g>
     <g id="text_6">
      <text style="font: 10px 'DejaVu Sans', 'Bitstream Vera Sans', 'Computer Modern Sans Serif', 'Lucida Grande', 'Verdana', 'Geneva', 'Lucid', 'Arial', 'Helvetica', 'Avant Garde', sans-serif; text-anchor: middle" x="336.964392" y="371.918438" transform="rotate(-0 336.964392 371.918438)">1973</text>
     </g>
    </g>
    <g id="xtick_7">
     <g id="line2d_13">
      <path d="M 389.827027 357.32 
L 389.827027 7.2 
" clip-path="url(#p93eb2f8b18)" style="fill: none; stroke: #e6e6e6; stroke-width: 0.8; stroke-linecap: square"/>
     </g>
     <g id="line2d_14">
      <g>
       <use xlink:href="#m11e6937ff6" x="389.827027" y="357.32" style="stroke: #000000; stroke-width: 0.8"/>
      </g>
     </g>
     <g id="text_7">
      <text style="font: 10px 'DejaVu Sans', 'Bitstream Vera Sans', 'Computer Modern Sans Serif', 'Lucida Grande', 'Verdana', 'Geneva', 'Lucid', 'Arial', 'Helvetica', 'Avant Garde', sans-serif; text-anchor: middle" x="389.827027" y="371.918438" transform="rotate(-0 389.827027 371.918438)">1978</text>
     </g>
    </g>
    <g id="xtick_8">
     <g id="line2d_15">
      <path d="M 442.689661 357.32 
L 442.689661 7.2 
" clip-path="url(#p93eb2f8b18)" style="fill: none; stroke: #e6e6e6; stroke-width: 0.8; stroke-linecap: square"/>
     </g>
     <g id="line2d_16">
      <g>
       <use xlink:href="#m11e6937ff6" x="442.689661" y="357.32" style="stroke: #000000; stroke-width: 0.8"/>
      </g>
     </g>
     <g id="text_8">
      <text style="font: 10px 'DejaVu Sans', 'Bitstream Vera Sans', 'Computer Modern Sans Serif', 'Lucida Grande', 'Verdana', 'Geneva', 'Lucid', 'Arial', 'Helvetica', 'Avant Garde', sans-serif; text-anchor: middle" x="442.689661" y="371.918438" transform="rotate(-0 442.689661 371.918438)">1983</text>
     </g>
    </g>
    <g id="xtick_9">
     <g id="line2d_17">
      <path d="M 495.581246 357.32 
L 495.581246 7.2 
" clip-path="url(#p93eb2f8b18)" style="fill: none; stroke: #e6e6e6; stroke-width: 0.8; stroke-linecap: square"/>
     </g>
     <g id="line2d_18">
      <g>
       <use xlink:href="#m11e6937ff6" x="495.581246" y="357.32" style="stroke: #000000; stroke-width: 0.8"/>
      </g>
     </g>
     <g id="text_9">
      <text style="font: 10px 'DejaVu Sans', 'Bitstream Vera Sans', 'Computer Modern Sans Serif', 'Lucida Grande', 'Verdana', 'Geneva', 'Lucid', 'Arial', 'Helvetica', 'Avant Garde', sans-serif; text-anchor: middle" x="495.581246" y="371.918438" transform="rotate(-0 495.581246 371.918438)">1988</text>
     </g>
    </g>
    <g id="xtick_10">
     <g id="line2d_19">
      <path d="M 548.44388 357.32 
L 548.44388 7.2 
" clip-path="url(#p93eb2f8b18)" style="fill: none; stroke: #e6e6e6; stroke-width: 0.8; stroke-linecap: square"/>
     </g>
     <g id="line2d_20">
      <g>
       <use xlink:href="#m11e6937ff6" x="548.44388" y="357.32" style="stroke: #000000; stroke-width: 0.8"/>
      </g>
     </g>
     <g id="text_10">
      <text style="font: 10px 'DejaVu Sans', 'Bitstream Vera Sans', 'Computer Modern Sans Serif', 'Lucida Grande', 'Verdana', 'Geneva', 'Lucid', 'Arial', 'Helvetica', 'Avant Garde', sans-serif; text-anchor: middle" x="548.44388" y="371.918438" transform="rotate(-0 548.44388 371.918438)">1993</text>
     </g>
    </g>
    <g id="xtick_11">
     <g id="line2d_21">
      <path d="M 601.306515 357.32 
L 601.306515 7.2 
" clip-path="url(#p93eb2f8b18)" style="fill: none; stroke: #e6e6e6; stroke-width: 0.8; stroke-linecap: square"/>
     </g>
     <g id="line2d_22">
      <g>
       <use xlink:href="#m11e6937ff6" x="601.306515" y="357.32" style="stroke: #000000; stroke-width: 0.8"/>
      </g>
     </g>
     <g id="text_11">
      <text style="font: 10px 'DejaVu Sans', 'Bitstream Vera Sans', 'Computer Modern Sans Serif', 'Lucida Grande', 'Verdana', 'Geneva', 'Lucid', 'Arial', 'Helvetica', 'Avant Garde', sans-serif; text-anchor: middle" x="601.306515" y="371.918438" transform="rotate(-0 601.306515 371.918438)">1998</text>
     </g>
    </g>
    <g id="xtick_12">
     <g id="line2d_23">
      <path d="M 654.169149 357.32 
L 654.169149 7.2 
" clip-path="url(#p93eb2f8b18)" style="fill: none; stroke: #e6e6e6; stroke-width: 0.8; stroke-linecap: square"/>
     </g>
     <g id="line2d_24">
      <g>
       <use xlink:href="#m11e6937ff6" x="654.169149" y="357.32" style="stroke: #000000; stroke-width: 0.8"/>
      </g>
     </g>
     <g id="text_12">
      <text style="font: 10px 'DejaVu Sans', 'Bitstream Vera Sans', 'Computer Modern Sans Serif', 'Lucida Grande', 'Verdana', 'Geneva', 'Lucid', 'Arial', 'Helvetica', 'Avant Garde', sans-serif; text-anchor: middle" x="654.169149" y="371.918438" transform="rotate(-0 654.169149 371.918438)">2003</text>
     </g>
    </g>
    <g id="xtick_13">
     <g id="line2d_25">
      <path d="M 707.060734 357.32 
L 707.060734 7.2 
" clip-path="url(#p93eb2f8b18)" style="fill: none; stroke: #e6e6e6; stroke-width: 0.8; stroke-linecap: square"/>
     </g>
     <g id="line2d_26">
      <g>
       <use xlink:href="#m11e6937ff6" x="707.060734" y="357.32" style="stroke: #000000; stroke-width: 0.8"/>
      </g>
     </g>
     <g id="text_13">
      <text style="font: 10px 'DejaVu Sans', 'Bitstream Vera Sans', 'Computer Modern Sans Serif', 'Lucida Grande', 'Verdana', 'Geneva', 'Lucid', 'Arial', 'Helvetica', 'Avant Garde', sans-serif; text-anchor: middle" x="707.060734" y="371.918438" transform="rotate(-0 707.060734 371.918438)">2008</text>
     </g>
    </g>
    <g id="xtick_14">
     <g id="line2d_27">
      <path d="M 759.923368 357.32 
L 759.923368 7.2 
" clip-path="url(#p93eb2f8b18)" style="fill: none; stroke: #e6e6e6; stroke-width: 0.8; stroke-linecap: square"/>
     </g>
     <g id="line2d_28">
      <g>
       <use xlink:href="#m11e6937ff6" x="759.923368" y="357.32" style="stroke: #000000; stroke-width: 0.8"/>
      </g>
     </g>
     <g id="text_14">
      <text style="font: 10px 'DejaVu Sans', 'Bitstream Vera Sans', 'Computer Modern Sans Serif', 'Lucida Grande', 'Verdana', 'Geneva', 'Lucid', 'Arial', 'Helvetica', 'Avant Garde', sans-serif; text-anchor: middle" x="759.923368" y="371.918438" transform="rotate(-0 759.923368 371.918438)">2013</text>
     </g>
    </g>
    <g id="xtick_15">
     <g id="line2d_29">
      <path d="M 812.786003 357.32 
L 812.786003 7.2 
" clip-path="url(#p93eb2f8b18)" style="fill: none; stroke: #e6e6e6; stroke-width: 0.8; stroke-linecap: square"/>
     </g>
     <g id="line2d_30">
      <g>
       <use xlink:href="#m11e6937ff6" x="812.786003" y="357.32" style="stroke: #000000; stroke-width: 0.8"/>
      </g>
     </g>
     <g id="text_15">
      <text style="font: 10px 'DejaVu Sans', 'Bitstream Vera Sans', 'Computer Modern Sans Serif', 'Lucida Grande', 'Verdana', 'Geneva', 'Lucid', 'Arial', 'Helvetica', 'Avant Garde', sans-serif; text-anchor: middle" x="812.786003" y="371.918438" transform="rotate(-0 812.786003 371.918438)">2018</text>
     </g>
    </g>
    <g id="xtick_16">
     <g id="line2d_31">
      <path d="M 865.648637 357.32 
L 865.648637 7.2 
" clip-path="url(#p93eb2f8b18)" style="fill: none; stroke: #e6e6e6; stroke-width: 0.8; stroke-linecap: square"/>
     </g>
     <g id="line2d_32">
      <g>
       <use xlink:href="#m11e6937ff6" x="865.648637" y="357.32" style="stroke: #000000; stroke-width: 0.8"/>
      </g>
     </g>
     <g id="text_16">
      <text style="font: 10px 'DejaVu Sans', 'Bitstream Vera Sans', 'Computer Modern Sans Serif', 'Lucida Grande', 'Verdana', 'Geneva', 'Lucid', 'Arial', 'Helvetica', 'Avant Garde', sans-serif; text-anchor: middle" x="865.648637" y="371.918438" transform="rotate(-0 865.648637 371.918438)">2023</text>
     </g>
    </g>
   </g>
   <g id="matplotlib.axis_2">
    <g id="ytick_1">
     <g id="line2d_33">
      <path d="M 52.079375 356.086147 
L 891.489375 356.086147 
" clip-path="url(#p93eb2f8b18)" style="fill: none; stroke: #e6e6e6; stroke-width: 0.8; stroke-linecap: square"/>
     </g>
     <g id="line2d_34">
      <defs>
       <path id="me1db3f1a0d" d="M 0 0 
L -3.5 0 
" style="stroke: #000000; stroke-width: 0.8"/>
      </defs>
      <g>
       <use xlink:href="#me1db3f1a0d" x="52.079375" y="356.086147" style="stroke: #000000; stroke-width: 0.8"/>
      </g>
     </g>
     <g id="text_17">
      <text style="font: 10px 'DejaVu Sans', 'Bitstream Vera Sans', 'Computer Modern Sans Serif', 'Lucida Grande', 'Verdana', 'Geneva', 'Lucid', 'Arial', 'Helvetica', 'Avant Garde', sans-serif; text-anchor: end" x="45.079375" y="359.885366" transform="rotate(-0 45.079375 359.885366)">0.07</text>
     </g>
    </g>
    <g id="ytick_2">
     <g id="line2d_35">
      <path d="M 52.079375 302.338019 
L 891.489375 302.338019 
" clip-path="url(#p93eb2f8b18)" style="fill: none; stroke: #e6e6e6; stroke-width: 0.8; stroke-linecap: square"/>
     </g>
     <g id="line2d_36">
      <g>
       <use xlink:href="#me1db3f1a0d" x="52.079375" y="302.338019" style="stroke: #000000; stroke-width: 0.8"/>
      </g>
     </g>
     <g id="text_18">
      <text style="font: 10px 'DejaVu Sans', 'Bitstream Vera Sans', 'Computer Modern Sans Serif', 'Lucida Grande', 'Verdana', 'Geneva', 'Lucid', 'Arial', 'Helvetica', 'Avant Garde', sans-serif; text-anchor: end" x="45.079375" y="306.137237" transform="rotate(-0 45.079375 306.137237)">0.10</text>
     </g>
    </g>
    <g id="ytick_3">
     <g id="line2d_37">
      <path d="M 52.079375 248.58989 
L 891.489375 248.58989 
" clip-path="url(#p93eb2f8b18)" style="fill: none; stroke: #e6e6e6; stroke-width: 0.8; stroke-linecap: square"/>
     </g>
     <g id="line2d_38">
      <g>
       <use xlink:href="#me1db3f1a0d" x="52.079375" y="248.58989" style="stroke: #000000; stroke-width: 0.8"/>
      </g>
     </g>
     <g id="text_19">
      <text style="font: 10px 'DejaVu Sans', 'Bitstream Vera Sans', 'Computer Modern Sans Serif', 'Lucida Grande', 'Verdana', 'Geneva', 'Lucid', 'Arial', 'Helvetica', 'Avant Garde', sans-serif; text-anchor: end" x="45.079375" y="252.389109" transform="rotate(-0 45.079375 252.389109)">0.13</text>
     </g>
    </g>
    <g id="ytick_4">
     <g id="line2d_39">
      <path d="M 52.079375 194.841761 
L 891.489375 194.841761 
" clip-path="url(#p93eb2f8b18)" style="fill: none; stroke: #e6e6e6; stroke-width: 0.8; stroke-linecap: square"/>
     </g>
     <g id="line2d_40">
      <g>
       <use xlink:href="#me1db3f1a0d" x="52.079375" y="194.841761" style="stroke: #000000; stroke-width: 0.8"/>
      </g>
     </g>
     <g id="text_20">
      <text style="font: 10px 'DejaVu Sans', 'Bitstream Vera Sans', 'Computer Modern Sans Serif', 'Lucida Grande', 'Verdana', 'Geneva', 'Lucid', 'Arial', 'Helvetica', 'Avant Garde', sans-serif; text-anchor: end" x="45.079375" y="198.64098" transform="rotate(-0 45.079375 198.64098)">0.16</text>
     </g>
    </g>
    <g id="ytick_5">
     <g id="line2d_41">
      <path d="M 52.079375 141.093633 
L 891.489375 141.093633 
" clip-path="url(#p93eb2f8b18)" style="fill: none; stroke: #e6e6e6; stroke-width: 0.8; stroke-linecap: square"/>
     </g>
     <g id="line2d_42">
      <g>
       <use xlink:href="#me1db3f1a0d" x="52.079375" y="141.093633" style="stroke: #000000; stroke-width: 0.8"/>
      </g>
     </g>
     <g id="text_21">
      <text style="font: 10px 'DejaVu Sans', 'Bitstream Vera Sans', 'Computer Modern Sans Serif', 'Lucida Grande', 'Verdana', 'Geneva', 'Lucid', 'Arial', 'Helvetica', 'Avant Garde', sans-serif; text-anchor: end" x="45.079375" y="144.892851" transform="rotate(-0 45.079375 144.892851)">0.19</text>
     </g>
    </g>
    <g id="ytick_6">
     <g id="line2d_43">
      <path d="M 52.079375 87.345504 
L 891.489375 87.345504 
" clip-path="url(#p93eb2f8b18)" style="fill: none; stroke: #e6e6e6; stroke-width: 0.8; stroke-linecap: square"/>
     </g>
     <g id="line2d_44">
      <g>
       <use xlink:href="#me1db3f1a0d" x="52.079375" y="87.345504" style="stroke: #000000; stroke-width: 0.8"/>
      </g>
     </g>
     <g id="text_22">
      <text style="font: 10px 'DejaVu Sans', 'Bitstream Vera Sans', 'Computer Modern Sans Serif', 'Lucida Grande', 'Verdana', 'Geneva', 'Lucid', 'Arial', 'Helvetica', 'Avant Garde', sans-serif; text-anchor: end" x="45.079375" y="91.144723" transform="rotate(-0 45.079375 91.144723)">0.22</text>
     </g>
    </g>
    <g id="ytick_7">
     <g id="line2d_45">
      <path d="M 52.079375 33.597375 
L 891.489375 33.597375 
" clip-path="url(#p93eb2f8b18)" style="fill: none; stroke: #e6e6e6; stroke-width: 0.8; stroke-linecap: square"/>
     </g>
     <g id="line2d_46">
      <g>
       <use xlink:href="#me1db3f1a0d" x="52.079375" y="33.597375" style="stroke: #000000; stroke-width: 0.8"/>
      </g>
     </g>
     <g id="text_23">
      <text style="font: 10px 'DejaVu Sans', 'Bitstream Vera Sans', 'Computer Modern Sans Serif', 'Lucida Grande', 'Verdana', 'Geneva', 'Lucid', 'Arial', 'Helvetica', 'Avant Garde', sans-serif; text-anchor: end" x="45.079375" y="37.396594" transform="rotate(-0 45.079375 37.396594)">0.25</text>
     </g>
    </g>
    <g id="text_24">
     <text style="font: 12px 'DejaVu Sans', 'Bitstream Vera Sans', 'Computer Modern Sans Serif', 'Lucida Grande', 'Verdana', 'Geneva', 'Lucid', 'Arial', 'Helvetica', 'Avant Garde', sans-serif; text-anchor: middle" x="16.318125" y="182.26" transform="rotate(-90 16.318125 182.26)">Manufacturing employment/population</text>
    </g>
   </g>
   <g id="line2d_47">
    <path d="M 68.221875 51.060263 
L 69.119324 57.041804 
L 69.958873 53.088193 
L 70.856322 62.71829 
L 71.724821 56.241877 
L 72.62227 60.674093 
L 73.490768 61.014213 
L 75.285666 56.06792 
L 76.154165 56.38903 
L 77.051614 59.673656 
L 77.920113 68.927733 
L 78.817562 72.682126 
L 80.52561 83.093623 
L 81.423059 86.832753 
L 82.291558 93.428167 
L 83.189006 94.122958 
L 84.057505 99.597773 
L 84.954954 98.742655 
L 85.852403 97.062079 
L 86.720902 110.097452 
L 87.618351 109.279329 
L 88.48685 103.486959 
L 89.384299 99.096215 
L 90.281748 99.025043 
L 91.092347 94.990737 
L 91.989796 93.218558 
L 92.858294 83.832305 
L 93.755743 81.868423 
L 94.624242 75.654119 
L 95.521691 67.599962 
L 97.287639 58.56527 
L 98.185088 56.881961 
L 99.053587 54.813286 
L 99.951036 49.079143 
L 100.848485 44.284128 
L 101.659084 48.110499 
L 102.556532 41.887545 
L 103.425031 43.617469 
L 104.32248 40.219754 
L 105.190979 45.612369 
L 106.088428 45.770055 
L 106.985877 46.618261 
L 107.854376 50.244975 
L 108.751825 48.172542 
L 109.620324 49.926542 
L 110.517773 49.122393 
L 111.415221 47.941633 
L 112.25477 42.399955 
L 113.152219 41.376863 
L 114.020718 44.322519 
L 114.918167 53.726707 
L 115.786666 56.251937 
L 116.684115 39.105928 
L 117.581564 35.354356 
L 118.450063 27.894806 
L 119.347512 27.282853 
L 120.216011 24.506459 
L 121.113459 27.744351 
L 122.010908 25.756286 
L 122.821507 23.584914 
L 123.718956 19.380432 
L 124.587455 13.933077 
L 125.484904 17.197845 
L 126.353403 16.869541 
L 127.250852 17.226055 
L 128.148301 20.194689 
L 129.0168 26.066693 
L 129.914249 33.860641 
L 130.782747 36.956901 
L 131.680196 43.11601 
L 132.577645 52.956915 
L 133.388244 54.695971 
L 134.285693 59.336239 
L 135.154192 60.179521 
L 136.051641 59.781447 
L 136.92014 62.649882 
L 137.817589 66.071908 
L 138.715038 68.399015 
L 140.480985 62.44867 
L 141.349484 57.961971 
L 142.246933 60.046736 
L 143.144382 55.705529 
L 143.954981 53.579813 
L 144.85243 54.853321 
L 145.720929 50.35688 
L 146.618378 48.47601 
L 147.486877 52.085456 
L 148.384326 53.164576 
L 149.281775 53.771624 
L 150.150273 53.066009 
L 151.047722 52.486854 
L 151.916221 53.880833 
L 152.81367 53.093032 
L 153.711119 50.992118 
L 154.550668 52.948326 
L 155.448117 51.360927 
L 156.316616 54.74315 
L 157.214065 56.173061 
L 158.082564 66.341821 
L 158.980013 54.429515 
L 159.877461 55.497626 
L 160.74596 52.42987 
L 161.643409 53.70881 
L 162.511908 52.883311 
L 163.409357 50.77766 
L 164.306806 52.93215 
L 165.117405 53.257015 
L 166.014854 52.192995 
L 166.883353 53.549607 
L 167.780802 57.377842 
L 168.649301 59.672167 
L 169.546749 55.339103 
L 170.444198 61.80825 
L 171.312697 64.786025 
L 172.210146 68.689843 
L 173.078645 73.936251 
L 173.976094 77.489611 
L 176.581591 97.312721 
L 177.45009 101.14372 
L 178.347539 100.060457 
L 179.216037 99.794597 
L 180.113486 99.040951 
L 181.010935 95.313693 
L 181.879434 99.63884 
L 182.776883 88.875006 
L 183.645382 88.027869 
L 184.542831 85.972053 
L 185.44028 81.19543 
L 186.250879 79.869344 
L 187.148328 78.158744 
L 188.016827 74.525881 
L 188.914275 73.363864 
L 189.782774 73.114406 
L 190.680223 83.497974 
L 191.577672 82.794941 
L 192.446171 86.893054 
L 193.34362 81.522587 
L 194.212119 77.105985 
L 195.109568 73.956664 
L 196.846566 70.078272 
L 197.744015 78.420313 
L 198.612513 80.725219 
L 199.509962 85.282702 
L 200.378461 85.570468 
L 201.27591 87.47428 
L 202.173359 89.981666 
L 203.041858 91.023876 
L 203.939307 97.127233 
L 204.807806 101.086354 
L 205.705255 103.503436 
L 207.413303 106.417805 
L 208.310751 103.504032 
L 209.17925 101.775583 
L 210.076699 102.819254 
L 210.945198 99.764002 
L 211.842647 98.127541 
L 212.740096 96.728482 
L 213.608595 96.628338 
L 214.506044 93.040879 
L 215.374543 90.105122 
L 216.271992 90.397835 
L 217.980039 88.365294 
L 218.877488 85.743517 
L 219.745987 87.554246 
L 220.643436 87.220498 
L 221.511935 85.929591 
L 222.409384 89.839782 
L 223.306833 89.502389 
L 224.175332 88.172628 
L 225.072781 88.903245 
L 225.94128 89.061908 
L 226.838728 90.043008 
L 227.736177 90.755641 
L 228.546776 91.084587 
L 229.444225 91.627043 
L 230.312724 91.387039 
L 231.210173 90.690286 
L 232.078672 91.934816 
L 232.976121 91.062186 
L 233.87357 92.184482 
L 234.742069 92.000934 
L 235.639518 93.702634 
L 236.508016 91.54878 
L 237.405465 92.379903 
L 238.302914 93.465005 
L 239.142463 92.935197 
L 240.039912 95.543352 
L 240.908411 95.520561 
L 241.80586 92.939729 
L 242.674359 91.628746 
L 243.571808 90.725926 
L 244.469257 88.587331 
L 245.337756 94.842537 
L 246.235204 88.00361 
L 248.001152 85.888725 
L 248.898601 86.31552 
L 249.7092 85.305058 
L 251.475148 85.072376 
L 252.372597 82.930778 
L 253.241096 82.035467 
L 255.035994 77.448419 
L 255.904492 77.778215 
L 256.801941 75.209533 
L 257.67044 74.68763 
L 258.567889 72.998563 
L 259.465338 68.268267 
L 260.275937 66.26149 
L 261.173386 64.928691 
L 262.041885 62.965894 
L 262.939334 61.51459 
L 263.807833 61.369418 
L 264.705282 60.207809 
L 265.60273 60.168976 
L 266.471229 59.313818 
L 267.368678 60.994118 
L 268.237177 60.766803 
L 269.134626 59.937622 
L 270.032075 60.575277 
L 270.842674 60.4029 
L 271.740123 64.312292 
L 272.608622 65.364029 
L 273.506071 68.504328 
L 274.37457 70.186216 
L 275.272018 68.709241 
L 276.169467 71.795488 
L 277.037966 73.65953 
L 277.935415 69.404944 
L 278.803914 70.06698 
L 279.701363 64.878512 
L 280.598812 68.030164 
L 281.438361 67.869912 
L 282.33581 66.478934 
L 283.204309 68.175404 
L 284.101758 68.741079 
L 284.970256 67.11764 
L 285.867705 66.531696 
L 286.765154 66.824458 
L 287.633653 66.182628 
L 288.531102 66.535851 
L 290.29705 66.236822 
L 291.194499 67.243551 
L 292.005098 66.30105 
L 292.902547 67.435021 
L 293.771046 65.868613 
L 294.668494 67.655086 
L 295.536993 68.281488 
L 296.434442 66.941723 
L 297.331891 71.119903 
L 298.20039 72.301076 
L 299.097839 75.027 
L 299.966338 75.762325 
L 300.863787 78.862258 
L 302.571835 82.775391 
L 303.469284 87.192607 
L 304.337782 89.892496 
L 305.235231 92.047586 
L 306.10373 95.151964 
L 307.898628 99.394353 
L 308.767127 112.037613 
L 309.664576 116.435592 
L 310.533075 110.865262 
L 311.430524 112.280533 
L 312.327973 112.561215 
L 313.138572 113.76671 
L 314.03602 115.498615 
L 314.904519 114.702419 
L 315.801968 114.663264 
L 316.670467 117.696989 
L 317.567916 119.360489 
L 318.465365 118.783739 
L 319.333864 119.977392 
L 320.231313 121.617814 
L 321.099812 121.566454 
L 321.997261 121.356354 
L 322.894709 119.974875 
L 323.734258 120.596021 
L 325.500206 118.220231 
L 326.397655 118.239692 
L 327.266154 120.558327 
L 328.163603 118.313561 
L 329.061052 117.117559 
L 330.827 113.224687 
L 331.695499 111.577582 
L 332.592947 107.233014 
L 333.490396 108.230658 
L 334.300995 108.581962 
L 335.198444 108.557835 
L 336.066943 107.701376 
L 336.964392 109.244579 
L 337.832891 109.637185 
L 338.73034 108.622018 
L 339.627789 110.386399 
L 340.496288 109.744185 
L 341.393737 110.739295 
L 342.262235 110.522623 
L 343.159684 112.408201 
L 344.057133 114.756648 
L 344.867732 115.157265 
L 345.765181 114.451843 
L 346.63368 115.963916 
L 347.531129 117.007176 
L 348.399628 119.027515 
L 349.297077 120.098784 
L 350.194526 123.286069 
L 351.063025 125.880934 
L 351.960473 132.374515 
L 353.726421 147.833118 
L 355.434469 157.40778 
L 356.331918 160.022883 
L 357.200417 161.93169 
L 358.097866 161.948615 
L 358.966365 163.693103 
L 359.863814 161.391073 
L 361.629761 158.706726 
L 362.52721 157.869132 
L 363.395709 156.231815 
L 364.293158 155.256392 
L 365.190607 153.64682 
L 366.030156 152.7758 
L 366.927605 153.270314 
L 367.796104 154.139574 
L 368.693553 154.11983 
L 369.562052 156.430127 
L 370.459501 155.627627 
L 371.356949 153.712778 
L 372.225448 156.392226 
L 373.122897 155.762261 
L 373.991396 155.395842 
L 374.888845 153.378013 
L 375.786294 154.581279 
L 377.494342 153.095359 
L 378.362841 152.703243 
L 379.26029 152.586565 
L 380.128789 150.774451 
L 381.026237 151.975673 
L 381.923686 151.219089 
L 382.792185 152.022033 
L 383.689634 153.392742 
L 384.558133 151.118423 
L 385.455582 151.268371 
L 386.353031 150.333177 
L 387.16363 150.105176 
L 388.061079 150.390135 
L 388.929578 150.100182 
L 389.827027 150.395288 
L 391.592974 149.326962 
L 392.490423 149.164087 
L 394.256371 148.355752 
L 395.12487 147.819505 
L 396.022319 147.685019 
L 396.919768 148.746465 
L 397.730367 148.26954 
L 398.627816 146.987222 
L 399.496315 145.969288 
L 400.393763 146.713392 
L 401.262262 148.249334 
L 402.159711 150.678313 
L 403.05716 151.427656 
L 403.925659 152.839912 
L 404.823108 154.728599 
L 407.486505 158.782318 
L 408.326054 158.04286 
L 409.223503 162.596212 
L 410.092001 167.74276 
L 410.98945 171.264665 
L 411.857949 175.939792 
L 412.755398 173.477334 
L 413.652847 172.938613 
L 414.521346 172.803052 
L 415.418795 171.688547 
L 416.287294 170.414314 
L 417.184743 172.371827 
L 418.082192 173.419046 
L 418.892791 173.74053 
L 420.658738 173.673595 
L 421.556187 170.947754 
L 422.424686 171.471488 
L 423.322135 172.563086 
L 424.219584 171.929132 
L 425.088083 176.401173 
L 425.985532 179.568284 
L 426.854031 181.729781 
L 427.75148 185.10667 
L 428.648928 187.210336 
L 429.459527 189.506536 
L 431.225475 196.206904 
L 432.122924 197.819495 
L 432.991423 200.9585 
L 433.888872 203.308086 
L 434.786321 205.219768 
L 435.65482 208.852461 
L 436.552269 211.717206 
L 437.420768 212.313463 
L 438.318216 211.12716 
L 440.026264 210.765909 
L 440.923713 210.01288 
L 441.792212 208.462973 
L 442.689661 209.904951 
L 443.55816 208.018925 
L 444.455609 208.234535 
L 445.353058 206.211871 
L 446.221557 203.504133 
L 447.987504 201.561773 
L 448.884953 200.006022 
L 449.782402 199.461766 
L 450.621951 198.467156 
L 451.5194 198.385113 
L 452.387899 199.064089 
L 454.153847 198.339706 
L 455.051296 197.28642 
L 455.948745 197.959292 
L 456.817244 198.283582 
L 457.714692 198.783699 
L 458.583191 199.688338 
L 459.48064 200.260691 
L 460.378089 201.300994 
L 461.188688 202.818601 
L 462.086137 203.649176 
L 462.954636 203.897266 
L 463.852085 203.808743 
L 464.720584 205.331626 
L 465.618033 205.572957 
L 466.515482 207.622042 
L 467.38398 208.342231 
L 468.281429 208.488407 
L 469.149928 209.063854 
L 470.944826 210.754393 
L 471.755425 212.131155 
L 472.652874 212.473752 
L 473.521373 213.309639 
L 474.418822 215.528264 
L 475.287321 216.130077 
L 476.18477 216.298554 
L 477.082218 216.711152 
L 477.950717 217.298946 
L 478.848166 217.637243 
L 479.716665 217.495448 
L 480.614114 218.211234 
L 481.511563 218.312105 
L 482.322162 218.518517 
L 483.219611 218.393725 
L 484.08811 219.61322 
L 484.985559 218.891343 
L 485.854058 218.619644 
L 486.751506 218.977598 
L 487.648955 217.395395 
L 488.517454 217.921848 
L 489.414903 217.305929 
L 490.283402 217.214963 
L 491.180851 218.020695 
L 492.0783 217.939373 
L 492.917849 217.098532 
L 493.815298 217.392295 
L 494.683797 216.733277 
L 495.581246 217.255509 
L 496.449744 217.525255 
L 497.347193 219.033004 
L 498.244642 218.340041 
L 499.113141 218.10743 
L 500.01059 218.492568 
L 500.879089 218.138958 
L 501.776538 219.313516 
L 502.673987 218.799658 
L 503.484586 218.923091 
L 504.382035 219.713837 
L 505.250534 219.738552 
L 506.147982 221.228533 
L 507.016481 221.646671 
L 507.91393 222.294 
L 508.811379 222.436838 
L 510.577327 224.394744 
L 511.445826 224.177578 
L 512.343275 228.105605 
L 513.240724 226.489494 
L 514.051323 227.029998 
L 514.948772 227.050115 
L 515.81727 228.226371 
L 516.714719 227.880569 
L 518.480667 230.525957 
L 519.378116 230.89984 
L 520.246615 231.559731 
L 521.144064 233.825888 
L 522.910012 234.993725 
L 524.61806 238.242871 
L 525.515508 239.504168 
L 526.384007 239.117288 
L 527.281456 239.783401 
L 528.149955 239.856114 
L 529.047404 239.70643 
L 529.944853 240.873189 
L 530.813352 241.013606 
L 532.5793 242.229372 
L 533.476749 244.435839 
L 534.374197 244.476046 
L 535.213746 245.550436 
L 536.111195 245.623479 
L 536.979694 246.079359 
L 537.877143 246.827979 
L 538.745642 247.115363 
L 539.643091 247.707969 
L 540.54054 247.810932 
L 541.409039 247.083849 
L 542.306488 247.743613 
L 543.174987 247.795783 
L 544.072435 247.208513 
L 544.969884 247.119039 
L 545.780483 247.513517 
L 546.677932 247.808508 
L 547.546431 249.121007 
L 548.44388 249.717231 
L 549.312379 249.733691 
L 550.209828 250.102993 
L 551.107277 249.086618 
L 551.975776 249.509246 
L 552.873225 249.45219 
L 553.741723 249.656103 
L 554.639172 250.270153 
L 555.536621 250.303355 
L 556.34722 249.345551 
L 558.113168 249.127868 
L 559.010617 248.081202 
L 559.879116 248.024374 
L 560.776565 248.381762 
L 561.674014 248.177232 
L 562.542513 248.354897 
L 564.30846 247.729465 
L 565.205909 247.272897 
L 566.913957 247.383444 
L 567.811406 248.031829 
L 568.679905 246.981467 
L 569.577354 247.318581 
L 570.445853 248.408351 
L 571.343302 248.098179 
L 572.240751 248.487618 
L 573.109249 249.090453 
L 574.006698 249.006266 
L 574.875197 248.528102 
L 575.772646 249.023282 
L 576.670095 249.327812 
L 577.509644 250.209571 
L 579.275592 250.663544 
L 580.173041 250.661738 
L 581.04154 251.710828 
L 581.938989 250.888902 
L 582.836437 251.719187 
L 583.704936 252.198169 
L 585.470884 252.311852 
L 586.368333 252.720251 
L 587.265782 252.374224 
L 588.076381 252.885674 
L 589.842329 252.979037 
L 590.739778 252.804555 
L 591.608277 253.224035 
L 592.505725 252.633451 
L 593.403174 252.558488 
L 594.271673 251.858712 
L 596.037621 251.753004 
L 596.93507 251.247337 
L 597.832519 251.171351 
L 598.643118 251.248915 
L 599.540567 251.104537 
L 600.409066 251.646411 
L 601.306515 251.993749 
L 602.175013 254.637603 
L 603.072462 252.771646 
L 603.969911 254.033653 
L 604.83841 254.605179 
L 607.501807 256.882519 
L 608.399256 257.236885 
L 609.209855 257.202453 
L 610.107304 257.881519 
L 610.975803 258.261104 
L 611.873251 259.105434 
L 612.74175 259.113842 
L 613.639199 259.369326 
L 615.405147 260.103528 
L 617.171095 260.642515 
L 618.068544 263.836667 
L 618.965993 264.112868 
L 619.805542 263.865457 
L 620.70299 264.398946 
L 621.571489 264.084547 
L 622.468938 264.18047 
L 623.337437 263.374989 
L 625.132335 264.898847 
L 626.000834 265.220096 
L 627.766782 266.615494 
L 628.664231 268.399701 
L 629.56168 269.200427 
L 630.372279 270.649712 
L 631.269727 271.825501 
L 632.138226 273.220917 
L 633.035675 275.102214 
L 633.904174 277.187663 
L 634.801623 278.535655 
L 635.699072 280.960307 
L 637.46502 284.936205 
L 638.333519 286.440099 
L 639.230968 287.41203 
L 640.128416 289.336926 
L 640.939015 290.000984 
L 642.704963 291.915074 
L 643.602412 292.227396 
L 644.470911 292.740514 
L 646.265809 295.398186 
L 648.031757 296.311283 
L 648.900256 297.331219 
L 649.797704 298.995111 
L 650.695153 300.241069 
L 651.505752 300.880412 
L 652.403201 302.80771 
L 653.2717 303.475351 
L 654.169149 304.928155 
L 655.037648 305.35287 
L 655.935097 305.62284 
L 658.598494 307.018128 
L 659.466992 306.891237 
L 660.364441 307.147613 
L 661.26189 307.123885 
L 662.101439 307.305214 
L 662.998888 306.852105 
L 663.867387 306.778502 
L 664.764836 307.368021 
L 665.633335 307.665813 
L 666.530784 307.332909 
L 667.428233 307.327019 
L 668.296732 307.760363 
L 669.19418 308.495366 
L 670.062679 308.617025 
L 670.960128 308.945081 
L 672.668176 309.221142 
L 673.565625 310.068602 
L 676.200072 310.936837 
L 677.99497 312.139906 
L 678.863468 311.989924 
L 679.760917 312.12191 
L 680.629416 312.010747 
L 681.526865 312.015597 
L 682.424314 312.507898 
L 683.234913 312.641231 
L 684.132362 312.574841 
L 685.000861 313.057829 
L 685.89831 313.256632 
L 686.766809 313.578079 
L 687.664258 314.295745 
L 688.561706 314.637859 
L 689.430205 315.642985 
L 691.196153 317.097182 
L 692.093602 317.621359 
L 692.991051 317.577716 
L 693.80165 317.966606 
L 694.699099 317.599593 
L 695.567598 318.03964 
L 696.465047 318.646615 
L 698.230994 319.308815 
L 699.128443 320.455628 
L 699.996942 320.516867 
L 700.894391 321.28068 
L 701.76289 321.495117 
L 702.660339 321.889918 
L 703.557788 321.802169 
L 704.397337 322.497466 
L 705.294786 323.052813 
L 706.163285 324.007533 
L 707.060734 324.714351 
L 708.826681 326.73839 
L 709.72413 327.629346 
L 710.592629 329.41406 
L 711.490078 330.490162 
L 712.358577 332.637336 
L 713.256026 335.56536 
L 714.153475 337.973482 
L 714.964074 339.595642 
L 716.730022 344.164541 
L 717.62747 345.711897 
L 718.495969 346.196388 
L 719.393418 346.513052 
L 720.290867 346.499485 
L 721.159366 347.079195 
L 722.056815 347.498956 
L 722.925314 347.225539 
L 723.822763 347.726946 
L 725.530811 348.216792 
L 726.42826 348.375466 
L 727.296758 347.498153 
L 728.194207 346.850549 
L 729.062706 346.729741 
L 729.960155 347.16824 
L 731.726103 346.668957 
L 732.623552 346.830252 
L 735.286949 345.222674 
L 736.994996 344.931254 
L 737.863495 344.769246 
L 739.629443 344.213181 
L 741.424341 344.696695 
L 742.29284 344.417638 
L 743.190289 344.682408 
L 744.058788 344.191952 
L 745.853685 344.120226 
L 747.590683 343.359027 
L 749.356631 343.607197 
L 750.22513 343.163305 
L 751.122579 343.044248 
L 752.020028 343.467784 
L 752.888527 343.736777 
L 753.785976 343.672086 
L 754.654475 343.813794 
L 755.551923 343.668576 
L 756.449372 343.11838 
L 757.259971 342.809632 
L 758.15742 343.145284 
L 760.791867 343.511791 
L 761.689316 343.171697 
L 762.586765 343.037415 
L 763.455264 341.8517 
L 764.352713 342.118753 
L 765.221211 341.998025 
L 766.11866 342.173743 
L 767.016109 342.003059 
L 767.826708 342.329555 
L 768.724157 341.57783 
L 769.592656 341.72284 
L 770.490105 341.467336 
L 771.358604 341.518417 
L 772.256053 341.410667 
L 773.153502 341.123197 
L 774.022001 341.08355 
L 775.787948 340.629016 
L 776.685397 341.255182 
L 777.582846 340.80666 
L 778.393445 340.679949 
L 780.159393 341.341673 
L 781.056842 340.804662 
L 781.925341 340.575236 
L 782.82279 340.77774 
L 783.720239 340.280712 
L 785.486186 340.901265 
L 786.354685 341.353465 
L 787.252134 341.332691 
L 788.149583 341.854051 
L 788.989132 342.585776 
L 790.75508 342.353042 
L 792.521028 342.261238 
L 793.418477 342.851841 
L 794.315925 342.995009 
L 797.847821 342.700185 
L 800.453318 342.947865 
L 801.321817 342.607366 
L 802.219266 342.569484 
L 803.087765 342.792087 
L 803.985213 342.408298 
L 804.882662 342.775308 
L 805.751161 341.910916 
L 806.64861 341.978263 
L 807.517109 341.627537 
L 808.414558 341.645225 
L 809.312007 342.13742 
L 810.122606 341.770023 
L 813.654501 341.219146 
L 814.55195 340.473057 
L 818.083846 341.02954 
L 818.981295 340.468276 
L 819.878744 340.609339 
L 821.586792 340.207376 
L 823.352739 340.689383 
L 824.221238 341.019762 
L 825.118687 341.188529 
L 826.016136 341.471359 
L 826.884635 342.335724 
L 827.782084 341.913287 
L 828.650583 342.281138 
L 829.548032 342.108564 
L 830.445481 342.234265 
L 831.28503 341.316027 
L 832.182478 350.586923 
L 833.050977 349.428469 
L 833.948426 347.332197 
L 834.816925 347.06493 
L 835.714374 347.238736 
L 836.611823 346.194853 
L 837.480322 346.550166 
L 838.377771 345.934946 
L 839.24627 345.602162 
L 840.143719 345.034931 
L 841.041168 344.811883 
L 841.851766 344.420809 
L 842.749215 345.28289 
L 843.617714 344.801638 
L 844.515163 345.040435 
L 846.281111 343.977032 
L 848.047059 343.075229 
L 848.944508 343.087268 
L 849.813007 342.795236 
L 850.710456 343.505004 
L 852.418503 342.751999 
L 853.315952 341.949128 
L 854.184451 342.046024 
L 855.950399 341.153472 
L 856.847848 341.403107 
L 859.511245 340.570081 
L 860.379744 341.056685 
L 861.277192 341.709438 
L 862.174641 342.060572 
L 862.98524 342.503747 
L 863.882689 342.397 
L 864.751188 342.571602 
L 866.517136 342.780527 
L 867.414585 343.360035 
L 868.312034 343.268211 
L 869.180533 343.455947 
L 870.077982 343.52125 
L 870.94648 342.835844 
L 871.843929 342.626516 
L 872.741378 342.847242 
L 873.580927 343.298578 
L 874.478376 343.30616 
L 875.346875 343.014738 
L 875.346875 343.014738 
" clip-path="url(#p93eb2f8b18)" style="fill: none; stroke-dasharray: 5.55,2.4; stroke-dashoffset: 0; stroke: #800000; stroke-width: 1.5"/>
   </g>
   <g id="patch_4">
    <path d="M 52.079375 357.32 
L 52.079375 7.2 
" style="fill: none; stroke: #000000; stroke-width: 0.8; stroke-linejoin: miter; stroke-linecap: square"/>
   </g>
   <g id="patch_5">
    <path d="M 891.489375 357.32 
L 891.489375 7.2 
" style="fill: none; stroke: #000000; stroke-width: 0.8; stroke-linejoin: miter; stroke-linecap: square"/>
   </g>
   <g id="patch_6">
    <path d="M 52.079375 357.32 
L 891.489375 357.32 
" style="fill: none; stroke: #000000; stroke-width: 0.8; stroke-linejoin: miter; stroke-linecap: square"/>
   </g>
   <g id="patch_7">
    <path d="M 52.079375 7.2 
L 891.489375 7.2 
" style="fill: none; stroke: #000000; stroke-width: 0.8; stroke-linejoin: miter; stroke-linecap: square"/>
   </g>
   <g id="legend_1">
    <g id="patch_8">
     <path d="M 62.473475 287.296 
L 289.854725 287.296 
Q 291.854725 287.296 291.854725 285.296 
L 291.854725 256.93975 
Q 291.854725 254.93975 289.854725 254.93975 
L 62.473475 254.93975 
Q 60.473475 254.93975 60.473475 256.93975 
L 60.473475 285.296 
Q 60.473475 287.296 62.473475 287.296 
z
" style="fill: #ffffff; opacity: 0.8; stroke: #cccccc; stroke-linejoin: miter"/>
    </g>
    <g id="line2d_48">
     <path d="M 64.473475 263.038188 
L 74.473475 263.038188 
L 84.473475 263.038188 
" style="fill: none; stroke-dasharray: 5.55,2.4; stroke-dashoffset: 0; stroke: #800000; stroke-width: 1.5"/>
    </g>
    <g id="text_25">
     <text style="font: 10px 'DejaVu Sans', 'Bitstream Vera Sans', 'Computer Modern Sans Serif', 'Lucida Grande', 'Verdana', 'Geneva', 'Lucid', 'Arial', 'Helvetica', 'Avant Garde', sans-serif; text-anchor: start" x="92.473475" y="266.538188" transform="rotate(-0 92.473475 266.538188)">Manufacturing employment/population</text>
    </g>
    <g id="patch_9">
     <path d="M 64.473475 281.216313 
L 84.473475 281.216313 
L 84.473475 274.216313 
L 64.473475 274.216313 
z
" style="fill: #008000; opacity: 0.1; stroke: #008000; stroke-linejoin: miter"/>
    </g>
    <g id="text_26">
     <text style="font: 10px 'DejaVu Sans', 'Bitstream Vera Sans', 'Computer Modern Sans Serif', 'Lucida Grande', 'Verdana', 'Geneva', 'Lucid', 'Arial', 'Helvetica', 'Avant Garde', sans-serif; text-anchor: start" x="92.473475" y="281.216313" transform="rotate(-0 92.473475 281.216313)">Original sample</text>
    </g>
   </g>
  </g>
 </g>
 <defs>
  <clipPath id="p93eb2f8b18">
   <rect x="52.079375" y="7.2" width="839.41" height="350.12"/>
  </clipPath>
 </defs>
</svg>
