<?xml version="1.0" encoding="utf-8" standalone="no"?>
<!DOCTYPE svg PUBLIC "-//W3C//DTD SVG 1.1//EN"
  "http://www.w3.org/Graphics/SVG/1.1/DTD/svg11.dtd">
<svg xmlns:xlink="http://www.w3.org/1999/xlink" width="380.622171pt" height="381.198125pt" viewBox="0 0 380.622171 381.198125" xmlns="http://www.w3.org/2000/svg" version="1.1">
 <metadata>
  <rdf:RDF xmlns:dc="http://purl.org/dc/elements/1.1/" xmlns:cc="http://creativecommons.org/ns#" xmlns:rdf="http://www.w3.org/1999/02/22-rdf-syntax-ns#">
   <cc:Work>
    <dc:type rdf:resource="http://purl.org/dc/dcmitype/StillImage"/>
    <dc:date>2024-06-13T01:45:06.954783</dc:date>
    <dc:format>image/svg+xml</dc:format>
    <dc:creator>
     <cc:Agent>
      <dc:title>Matplotlib v3.8.2, https://matplotlib.org/</dc:title>
     </cc:Agent>
    </dc:creator>
   </cc:Work>
  </rdf:RDF>
 </metadata>
 <defs>
  <style type="text/css">*{stroke-linejoin: round; stroke-linecap: butt}</style>
 </defs>
 <g id="figure_1">
  <g id="patch_1">
   <path d="M 0 381.198125 
L 380.622171 381.198125 
L 380.622171 0 
L 0 0 
z
" style="fill: #ffffff"/>
  </g>
  <g id="axes_1">
   <g id="patch_2">
    <path d="M 64.804375 357.32 
L 366.49899 357.32 
L 366.49899 7.2 
L 64.804375 7.2 
z
" style="fill: #ffffff"/>
   </g>
   <g id="matplotlib.axis_1">
    <g id="xtick_1">
     <g id="line2d_1">
      <path d="M 75.522991 357.32 
L 75.522991 7.2 
" clip-path="url(#pab002d05e6)" style="fill: none; stroke: #e6e6e6; stroke-width: 0.8; stroke-linecap: square"/>
     </g>
     <g id="line2d_2">
      <defs>
       <path id="m34e0e3cd2f" d="M 0 0 
L 0 3.5 
" style="stroke: #000000; stroke-width: 0.8"/>
      </defs>
      <g>
       <use xlink:href="#m34e0e3cd2f" x="75.522991" y="357.32" style="stroke: #000000; stroke-width: 0.8"/>
      </g>
     </g>
     <g id="text_1">
      <text style="font: 10px 'DejaVu Sans', 'Bitstream Vera Sans', 'Computer Modern Sans Serif', 'Lucida Grande', 'Verdana', 'Geneva', 'Lucid', 'Arial', 'Helvetica', 'Avant Garde', sans-serif; text-anchor: middle" x="75.522991" y="371.918438" transform="rotate(-0 75.522991 371.918438)">1965</text>
     </g>
    </g>
    <g id="xtick_2">
     <g id="line2d_3">
      <path d="M 124.690953 357.32 
L 124.690953 7.2 
" clip-path="url(#pab002d05e6)" style="fill: none; stroke: #e6e6e6; stroke-width: 0.8; stroke-linecap: square"/>
     </g>
     <g id="line2d_4">
      <g>
       <use xlink:href="#m34e0e3cd2f" x="124.690953" y="357.32" style="stroke: #000000; stroke-width: 0.8"/>
      </g>
     </g>
     <g id="text_2">
      <text style="font: 10px 'DejaVu Sans', 'Bitstream Vera Sans', 'Computer Modern Sans Serif', 'Lucida Grande', 'Verdana', 'Geneva', 'Lucid', 'Arial', 'Helvetica', 'Avant Garde', sans-serif; text-anchor: middle" x="124.690953" y="371.918438" transform="rotate(-0 124.690953 371.918438)">1975</text>
     </g>
    </g>
    <g id="xtick_3">
     <g id="line2d_5">
      <path d="M 173.858915 357.32 
L 173.858915 7.2 
" clip-path="url(#pab002d05e6)" style="fill: none; stroke: #e6e6e6; stroke-width: 0.8; stroke-linecap: square"/>
     </g>
     <g id="line2d_6">
      <g>
       <use xlink:href="#m34e0e3cd2f" x="173.858915" y="357.32" style="stroke: #000000; stroke-width: 0.8"/>
      </g>
     </g>
     <g id="text_3">
      <text style="font: 10px 'DejaVu Sans', 'Bitstream Vera Sans', 'Computer Modern Sans Serif', 'Lucida Grande', 'Verdana', 'Geneva', 'Lucid', 'Arial', 'Helvetica', 'Avant Garde', sans-serif; text-anchor: middle" x="173.858915" y="371.918438" transform="rotate(-0 173.858915 371.918438)">1985</text>
     </g>
    </g>
    <g id="xtick_4">
     <g id="line2d_7">
      <path d="M 223.026877 357.32 
L 223.026877 7.2 
" clip-path="url(#pab002d05e6)" style="fill: none; stroke: #e6e6e6; stroke-width: 0.8; stroke-linecap: square"/>
     </g>
     <g id="line2d_8">
      <g>
       <use xlink:href="#m34e0e3cd2f" x="223.026877" y="357.32" style="stroke: #000000; stroke-width: 0.8"/>
      </g>
     </g>
     <g id="text_4">
      <text style="font: 10px 'DejaVu Sans', 'Bitstream Vera Sans', 'Computer Modern Sans Serif', 'Lucida Grande', 'Verdana', 'Geneva', 'Lucid', 'Arial', 'Helvetica', 'Avant Garde', sans-serif; text-anchor: middle" x="223.026877" y="371.918438" transform="rotate(-0 223.026877 371.918438)">1995</text>
     </g>
    </g>
    <g id="xtick_5">
     <g id="line2d_9">
      <path d="M 272.194839 357.32 
L 272.194839 7.2 
" clip-path="url(#pab002d05e6)" style="fill: none; stroke: #e6e6e6; stroke-width: 0.8; stroke-linecap: square"/>
     </g>
     <g id="line2d_10">
      <g>
       <use xlink:href="#m34e0e3cd2f" x="272.194839" y="357.32" style="stroke: #000000; stroke-width: 0.8"/>
      </g>
     </g>
     <g id="text_5">
      <text style="font: 10px 'DejaVu Sans', 'Bitstream Vera Sans', 'Computer Modern Sans Serif', 'Lucida Grande', 'Verdana', 'Geneva', 'Lucid', 'Arial', 'Helvetica', 'Avant Garde', sans-serif; text-anchor: middle" x="272.194839" y="371.918438" transform="rotate(-0 272.194839 371.918438)">2005</text>
     </g>
    </g>
    <g id="xtick_6">
     <g id="line2d_11">
      <path d="M 321.362801 357.32 
L 321.362801 7.2 
" clip-path="url(#pab002d05e6)" style="fill: none; stroke: #e6e6e6; stroke-width: 0.8; stroke-linecap: square"/>
     </g>
     <g id="line2d_12">
      <g>
       <use xlink:href="#m34e0e3cd2f" x="321.362801" y="357.32" style="stroke: #000000; stroke-width: 0.8"/>
      </g>
     </g>
     <g id="text_6">
      <text style="font: 10px 'DejaVu Sans', 'Bitstream Vera Sans', 'Computer Modern Sans Serif', 'Lucida Grande', 'Verdana', 'Geneva', 'Lucid', 'Arial', 'Helvetica', 'Avant Garde', sans-serif; text-anchor: middle" x="321.362801" y="371.918438" transform="rotate(-0 321.362801 371.918438)">2015</text>
     </g>
    </g>
    <g id="xtick_7">
     <g id="line2d_13">
      <path d="M 360.697171 357.32 
L 360.697171 7.2 
" clip-path="url(#pab002d05e6)" style="fill: none; stroke: #e6e6e6; stroke-width: 0.8; stroke-linecap: square"/>
     </g>
     <g id="line2d_14">
      <g>
       <use xlink:href="#m34e0e3cd2f" x="360.697171" y="357.32" style="stroke: #000000; stroke-width: 0.8"/>
      </g>
     </g>
     <g id="text_7">
      <text style="font: 10px 'DejaVu Sans', 'Bitstream Vera Sans', 'Computer Modern Sans Serif', 'Lucida Grande', 'Verdana', 'Geneva', 'Lucid', 'Arial', 'Helvetica', 'Avant Garde', sans-serif; text-anchor: middle" x="360.697171" y="371.918438" transform="rotate(-0 360.697171 371.918438)">2023</text>
     </g>
    </g>
    <g id="xtick_8">
     <g id="line2d_15">
      <path d="M 100.106972 357.32 
L 100.106972 7.2 
" clip-path="url(#pab002d05e6)" style="fill: none; stroke: #e6e6e6; stroke-width: 0.6; stroke-linecap: square"/>
     </g>
     <g id="line2d_16">
      <defs>
       <path id="mbfc1598bb7" d="M 0 0 
L 0 2 
" style="stroke: #000000; stroke-width: 0.6"/>
      </defs>
      <g>
       <use xlink:href="#mbfc1598bb7" x="100.106972" y="357.32" style="stroke: #000000; stroke-width: 0.6"/>
      </g>
     </g>
    </g>
    <g id="xtick_9">
     <g id="line2d_17">
      <path d="M 149.274934 357.32 
L 149.274934 7.2 
" clip-path="url(#pab002d05e6)" style="fill: none; stroke: #e6e6e6; stroke-width: 0.6; stroke-linecap: square"/>
     </g>
     <g id="line2d_18">
      <g>
       <use xlink:href="#mbfc1598bb7" x="149.274934" y="357.32" style="stroke: #000000; stroke-width: 0.6"/>
      </g>
     </g>
    </g>
    <g id="xtick_10">
     <g id="line2d_19">
      <path d="M 198.442896 357.32 
L 198.442896 7.2 
" clip-path="url(#pab002d05e6)" style="fill: none; stroke: #e6e6e6; stroke-width: 0.6; stroke-linecap: square"/>
     </g>
     <g id="line2d_20">
      <g>
       <use xlink:href="#mbfc1598bb7" x="198.442896" y="357.32" style="stroke: #000000; stroke-width: 0.6"/>
      </g>
     </g>
    </g>
    <g id="xtick_11">
     <g id="line2d_21">
      <path d="M 247.610858 357.32 
L 247.610858 7.2 
" clip-path="url(#pab002d05e6)" style="fill: none; stroke: #e6e6e6; stroke-width: 0.6; stroke-linecap: square"/>
     </g>
     <g id="line2d_22">
      <g>
       <use xlink:href="#mbfc1598bb7" x="247.610858" y="357.32" style="stroke: #000000; stroke-width: 0.6"/>
      </g>
     </g>
    </g>
    <g id="xtick_12">
     <g id="line2d_23">
      <path d="M 296.77882 357.32 
L 296.77882 7.2 
" clip-path="url(#pab002d05e6)" style="fill: none; stroke: #e6e6e6; stroke-width: 0.6; stroke-linecap: square"/>
     </g>
     <g id="line2d_24">
      <g>
       <use xlink:href="#mbfc1598bb7" x="296.77882" y="357.32" style="stroke: #000000; stroke-width: 0.6"/>
      </g>
     </g>
    </g>
    <g id="xtick_13">
     <g id="line2d_25">
      <path d="M 345.946782 357.32 
L 345.946782 7.2 
" clip-path="url(#pab002d05e6)" style="fill: none; stroke: #e6e6e6; stroke-width: 0.6; stroke-linecap: square"/>
     </g>
     <g id="line2d_26">
      <g>
       <use xlink:href="#mbfc1598bb7" x="345.946782" y="357.32" style="stroke: #000000; stroke-width: 0.6"/>
      </g>
     </g>
    </g>
   </g>
   <g id="matplotlib.axis_2">
    <g id="ytick_1">
     <g id="line2d_27">
      <path d="M 64.804375 349.672035 
L 366.49899 349.672035 
" clip-path="url(#pab002d05e6)" style="fill: none; stroke: #e6e6e6; stroke-width: 0.8; stroke-linecap: square"/>
     </g>
     <g id="line2d_28">
      <defs>
       <path id="mdd55098703" d="M 0 0 
L -3.5 0 
" style="stroke: #000000; stroke-width: 0.8"/>
      </defs>
      <g>
       <use xlink:href="#mdd55098703" x="64.804375" y="349.672035" style="stroke: #000000; stroke-width: 0.8"/>
      </g>
     </g>
     <g id="text_8">
      <text style="font: 10px 'DejaVu Sans', 'Bitstream Vera Sans', 'Computer Modern Sans Serif', 'Lucida Grande', 'Verdana', 'Geneva', 'Lucid', 'Arial', 'Helvetica', 'Avant Garde', sans-serif; text-anchor: end" x="57.804375" y="353.471254" transform="rotate(-0 57.804375 353.471254)">1</text>
     </g>
    </g>
    <g id="ytick_2">
     <g id="line2d_29">
      <path d="M 64.804375 277.32952 
L 366.49899 277.32952 
" clip-path="url(#pab002d05e6)" style="fill: none; stroke: #e6e6e6; stroke-width: 0.8; stroke-linecap: square"/>
     </g>
     <g id="line2d_30">
      <g>
       <use xlink:href="#mdd55098703" x="64.804375" y="277.32952" style="stroke: #000000; stroke-width: 0.8"/>
      </g>
     </g>
     <g id="text_9">
      <text style="font: 10px 'DejaVu Sans', 'Bitstream Vera Sans', 'Computer Modern Sans Serif', 'Lucida Grande', 'Verdana', 'Geneva', 'Lucid', 'Arial', 'Helvetica', 'Avant Garde', sans-serif; text-anchor: end" x="57.804375" y="281.128739" transform="rotate(-0 57.804375 281.128739)">10</text>
     </g>
    </g>
    <g id="ytick_3">
     <g id="line2d_31">
      <path d="M 64.804375 204.987004 
L 366.49899 204.987004 
" clip-path="url(#pab002d05e6)" style="fill: none; stroke: #e6e6e6; stroke-width: 0.8; stroke-linecap: square"/>
     </g>
     <g id="line2d_32">
      <g>
       <use xlink:href="#mdd55098703" x="64.804375" y="204.987004" style="stroke: #000000; stroke-width: 0.8"/>
      </g>
     </g>
     <g id="text_10">
      <text style="font: 10px 'DejaVu Sans', 'Bitstream Vera Sans', 'Computer Modern Sans Serif', 'Lucida Grande', 'Verdana', 'Geneva', 'Lucid', 'Arial', 'Helvetica', 'Avant Garde', sans-serif; text-anchor: end" x="57.804375" y="208.786223" transform="rotate(-0 57.804375 208.786223)">100</text>
     </g>
    </g>
    <g id="ytick_4">
     <g id="line2d_33">
      <path d="M 64.804375 132.644489 
L 366.49899 132.644489 
" clip-path="url(#pab002d05e6)" style="fill: none; stroke: #e6e6e6; stroke-width: 0.8; stroke-linecap: square"/>
     </g>
     <g id="line2d_34">
      <g>
       <use xlink:href="#mdd55098703" x="64.804375" y="132.644489" style="stroke: #000000; stroke-width: 0.8"/>
      </g>
     </g>
     <g id="text_11">
      <text style="font: 10px 'DejaVu Sans', 'Bitstream Vera Sans', 'Computer Modern Sans Serif', 'Lucida Grande', 'Verdana', 'Geneva', 'Lucid', 'Arial', 'Helvetica', 'Avant Garde', sans-serif; text-anchor: end" x="57.804375" y="136.443707" transform="rotate(-0 57.804375 136.443707)">1,000</text>
     </g>
    </g>
    <g id="ytick_5">
     <g id="line2d_35">
      <path d="M 64.804375 60.301973 
L 366.49899 60.301973 
" clip-path="url(#pab002d05e6)" style="fill: none; stroke: #e6e6e6; stroke-width: 0.8; stroke-linecap: square"/>
     </g>
     <g id="line2d_36">
      <g>
       <use xlink:href="#mdd55098703" x="64.804375" y="60.301973" style="stroke: #000000; stroke-width: 0.8"/>
      </g>
     </g>
     <g id="text_12">
      <text style="font: 10px 'DejaVu Sans', 'Bitstream Vera Sans', 'Computer Modern Sans Serif', 'Lucida Grande', 'Verdana', 'Geneva', 'Lucid', 'Arial', 'Helvetica', 'Avant Garde', sans-serif; text-anchor: end" x="57.804375" y="64.101192" transform="rotate(-0 57.804375 64.101192)">10,000</text>
     </g>
    </g>
    <g id="text_13">
     <text style="font: 12px 'DejaVu Sans', 'Bitstream Vera Sans', 'Computer Modern Sans Serif', 'Lucida Grande', 'Verdana', 'Geneva', 'Lucid', 'Arial', 'Helvetica', 'Avant Garde', sans-serif; text-anchor: middle" x="16.318125" y="182.26" transform="rotate(-90 16.318125 182.26)">Value when we invested $1 in 1964</text>
    </g>
   </g>
   <g id="line2d_37">
    <path d="M 70.606195 349.672035 
L 75.522991 337.038052 
L 80.439787 338.124845 
L 85.356583 334.201717 
L 90.273379 316.121025 
L 95.190176 310.550338 
L 100.106972 312.02986 
L 105.023768 293.475654 
L 109.940564 291.028618 
L 114.85736 291.824052 
L 119.774157 312.794891 
L 124.690953 312.019099 
L 129.607749 285.946563 
L 134.524545 273.885181 
L 139.441341 269.631044 
L 144.358138 247.463487 
L 149.274934 238.551028 
L 154.19173 229.876046 
L 159.108526 219.665906 
L 164.025322 203.180008 
L 168.942119 204.039955 
L 173.858915 183.268276 
L 178.775711 179.096565 
L 183.692507 177.683594 
L 188.609304 163.054796 
L 193.5261 143.794925 
L 198.442896 152.047301 
L 203.359692 142.479302 
L 208.276488 134.284726 
L 213.193285 123.961287 
L 218.110081 116.950573 
L 223.026877 102.698755 
L 227.943673 100.808842 
L 232.860469 91.40345 
L 237.777266 78.207115 
L 242.694062 85.178582 
L 247.610858 77.76827 
L 252.527654 75.78973 
L 257.44445 77.006888 
L 262.361247 72.39805 
L 267.278043 71.075317 
L 272.194839 70.824974 
L 277.111635 64.041287 
L 282.028432 56.1141 
L 286.945228 68.138556 
L 291.862024 67.301521 
L 296.77882 61.208929 
L 301.695616 62.721402 
L 306.612413 57.842417 
L 311.529209 48.953625 
L 316.446005 41.444203 
L 321.362801 45.639486 
L 326.279597 39.033518 
L 331.196394 32.811793 
L 336.11319 31.944181 
L 341.029986 28.665403 
L 345.946782 27.920278 
L 350.863578 19.774149 
L 355.780375 18.541914 
L 360.697171 13.933077 
" clip-path="url(#pab002d05e6)" style="fill: none; stroke: #000080; stroke-width: 1.5; stroke-linecap: square"/>
   </g>
   <g id="line2d_38">
    <path d="M 70.606195 349.672035 
L 75.522991 346.677584 
L 80.439787 350.586923 
L 85.356583 342.127215 
L 90.273379 338.848437 
L 95.190176 341.605014 
L 100.106972 340.403003 
L 105.023768 336.121439 
L 109.940564 330.682595 
L 114.85736 335.714769 
L 119.774157 345.345163 
L 124.690953 335.408621 
L 129.607749 328.751774 
L 134.524545 331.167219 
L 139.441341 329.218194 
L 144.358138 323.964863 
L 149.274934 315.170918 
L 154.19173 316.782448 
L 159.108526 310.689857 
L 164.025322 304.339528 
L 168.942119 302.479212 
L 173.858915 293.851941 
L 178.775711 288.492469 
L 183.692507 286.929674 
L 188.609304 282.104533 
L 193.5261 273.453397 
L 198.442896 274.442769 
L 203.359692 266.079214 
L 208.276488 263.777834 
L 213.193285 260.754835 
L 218.110081 260.349033 
L 223.026877 250.321027 
L 227.943673 243.817065 
L 232.860469 234.762978 
L 237.777266 226.860211 
L 242.694062 220.871309 
L 247.610858 223.868902 
L 252.527654 227.849483 
L 257.44445 235.695936 
L 262.361247 227.768749 
L 267.278043 224.518288 
L 272.194839 223.015337 
L 277.111635 218.406499 
L 282.028432 216.724358 
L 286.945228 231.240567 
L 291.862024 223.855082 
L 296.77882 219.436739 
L 301.695616 218.783794 
L 306.612413 214.120741 
L 311.529209 205.303058 
L 316.446005 201.269205 
L 321.362801 200.832405 
L 326.279597 197.271849 
L 331.196394 191.075909 
L 336.11319 192.489634 
L 341.029986 183.886246 
L 345.946782 178.579799 
L 350.863578 170.652611 
L 355.780375 176.925872 
L 360.697171 169.590099 
" clip-path="url(#pab002d05e6)" style="fill: none; stroke: #800000; stroke-width: 1.5; stroke-linecap: square"/>
   </g>
   <g id="patch_3">
    <path d="M 64.804375 357.32 
L 64.804375 7.2 
" style="fill: none; stroke: #000000; stroke-width: 0.8; stroke-linejoin: miter; stroke-linecap: square"/>
   </g>
   <g id="patch_4">
    <path d="M 366.49899 357.32 
L 366.49899 7.2 
" style="fill: none; stroke: #000000; stroke-width: 0.8; stroke-linejoin: miter; stroke-linecap: square"/>
   </g>
   <g id="patch_5">
    <path d="M 64.804375 357.32 
L 366.49899 357.32 
" style="fill: none; stroke: #000000; stroke-width: 0.8; stroke-linejoin: miter; stroke-linecap: square"/>
   </g>
   <g id="patch_6">
    <path d="M 64.804375 7.2 
L 366.49899 7.2 
" style="fill: none; stroke: #000000; stroke-width: 0.8; stroke-linejoin: miter; stroke-linecap: square"/>
   </g>
   <g id="legend_1">
    <g id="patch_7">
     <path d="M 71.804375 44.55625 
L 204.521563 44.55625 
Q 206.521563 44.55625 206.521563 42.55625 
L 206.521563 14.2 
Q 206.521563 12.2 204.521563 12.2 
L 71.804375 12.2 
Q 69.804375 12.2 69.804375 14.2 
L 69.804375 42.55625 
Q 69.804375 44.55625 71.804375 44.55625 
z
" style="fill: #ffffff; opacity: 0.8; stroke: #cccccc; stroke-linejoin: miter"/>
    </g>
    <g id="line2d_39">
     <path d="M 73.804375 20.298438 
L 83.804375 20.298438 
L 93.804375 20.298438 
" style="fill: none; stroke: #000080; stroke-width: 1.5; stroke-linecap: square"/>
    </g>
    <g id="text_14">
     <text style="font: 10px 'DejaVu Sans', 'Bitstream Vera Sans', 'Computer Modern Sans Serif', 'Lucida Grande', 'Verdana', 'Geneva', 'Lucid', 'Arial', 'Helvetica', 'Avant Garde', sans-serif; text-anchor: start" x="101.804375" y="23.798438" transform="rotate(-0 101.804375 23.798438)">Berkshire Hathaway</text>
    </g>
    <g id="line2d_40">
     <path d="M 73.804375 34.976563 
L 83.804375 34.976563 
L 93.804375 34.976563 
" style="fill: none; stroke: #800000; stroke-width: 1.5; stroke-linecap: square"/>
    </g>
    <g id="text_15">
     <text style="font: 10px 'DejaVu Sans', 'Bitstream Vera Sans', 'Computer Modern Sans Serif', 'Lucida Grande', 'Verdana', 'Geneva', 'Lucid', 'Arial', 'Helvetica', 'Avant Garde', sans-serif; text-anchor: start" x="101.804375" y="38.476563" transform="rotate(-0 101.804375 38.476563)">S&amp;P 500</text>
    </g>
   </g>
  </g>
 </g>
 <defs>
  <clipPath id="pab002d05e6">
   <rect x="64.804375" y="7.2" width="301.694615" height="350.12"/>
  </clipPath>
 </defs>
</svg>
