<?xml version="1.0" encoding="utf-8" standalone="no"?>
<!DOCTYPE svg PUBLIC "-//W3C//DTD SVG 1.1//EN"
  "http://www.w3.org/Graphics/SVG/1.1/DTD/svg11.dtd">
<svg xmlns:xlink="http://www.w3.org/1999/xlink" width="679.33875pt" height="376.811984pt" viewBox="0 0 679.33875 376.811984" xmlns="http://www.w3.org/2000/svg" version="1.1">
 <metadata>
  <rdf:RDF xmlns:dc="http://purl.org/dc/elements/1.1/" xmlns:cc="http://creativecommons.org/ns#" xmlns:rdf="http://www.w3.org/1999/02/22-rdf-syntax-ns#">
   <cc:Work>
    <dc:type rdf:resource="http://purl.org/dc/dcmitype/StillImage"/>
    <dc:date>2025-01-27T23:05:56.555140</dc:date>
    <dc:format>image/svg+xml</dc:format>
    <dc:creator>
     <cc:Agent>
      <dc:title>Matplotlib v3.10.0, https://matplotlib.org/</dc:title>
     </cc:Agent>
    </dc:creator>
   </cc:Work>
  </rdf:RDF>
 </metadata>
 <defs>
  <style type="text/css">*{stroke-linejoin: round; stroke-linecap: butt}</style>
 </defs>
 <g id="figure_1">
  <g id="patch_1">
   <path d="M 0 376.811984 
L 679.33875 376.811984 
L 679.33875 0 
L 0 0 
z
" style="fill: #ffffff"/>
  </g>
  <g id="axes_1">
   <g id="patch_2">
    <path d="M 45.08375 262.167465 
L 672.13875 262.167465 
L 672.13875 7.2 
L 45.08375 7.2 
z
" style="fill: #ffffff"/>
   </g>
   <g id="matplotlib.axis_1">
    <g id="xtick_1">
     <g id="line2d_1">
      <path d="M 96.088224 262.167465 
L 96.088224 7.2 
" clip-path="url(#p361c535b4b)" style="fill: none; stroke: #e6e6e6; stroke-width: 0.8; stroke-linecap: square"/>
     </g>
     <g id="line2d_2">
      <defs>
       <path id="mddbc827903" d="M 0 0 
L 0 3.5 
" style="stroke: #000000; stroke-width: 0.8"/>
      </defs>
      <g>
       <use xlink:href="#mddbc827903" x="96.088224" y="262.167465" style="stroke: #000000; stroke-width: 0.8"/>
      </g>
     </g>
     <g id="text_1">
      <!-- df.replace -->
      <g transform="translate(72.910147 326.744077) rotate(-45) scale(0.12 -0.12)">
       <defs>
        <path id="DejaVuSansMono-64" d="M 2681 3053 
L 2681 4863 
L 3256 4863 
L 3256 0 
L 2681 0 
L 2681 441 
Q 2538 181 2298 45 
Q 2059 -91 1747 -91 
Q 1113 -91 748 401 
Q 384 894 384 1759 
Q 384 2613 750 3098 
Q 1116 3584 1747 3584 
Q 2063 3584 2303 3448 
Q 2544 3313 2681 3053 
z
M 991 1747 
Q 991 1078 1203 737 
Q 1416 397 1831 397 
Q 2247 397 2464 740 
Q 2681 1084 2681 1747 
Q 2681 2413 2464 2755 
Q 2247 3097 1831 3097 
Q 1416 3097 1203 2756 
Q 991 2416 991 1747 
z
" transform="scale(0.015625)"/>
        <path id="DejaVuSansMono-66" d="M 3322 4863 
L 3322 4384 
L 2669 4384 
Q 2359 4384 2239 4257 
Q 2119 4131 2119 3809 
L 2119 3500 
L 3322 3500 
L 3322 3053 
L 2119 3053 
L 2119 0 
L 1544 0 
L 1544 3053 
L 609 3053 
L 609 3500 
L 1544 3500 
L 1544 3744 
Q 1544 4319 1808 4591 
Q 2072 4863 2631 4863 
L 3322 4863 
z
" transform="scale(0.015625)"/>
        <path id="DejaVuSansMono-2e" d="M 1528 953 
L 2316 953 
L 2316 0 
L 1528 0 
L 1528 953 
z
" transform="scale(0.015625)"/>
        <path id="DejaVuSansMono-72" d="M 3609 2778 
Q 3425 2922 3234 2987 
Q 3044 3053 2816 3053 
Q 2278 3053 1993 2715 
Q 1709 2378 1709 1741 
L 1709 0 
L 1131 0 
L 1131 3500 
L 1709 3500 
L 1709 2816 
Q 1853 3188 2151 3386 
Q 2450 3584 2859 3584 
Q 3072 3584 3256 3531 
Q 3441 3478 3609 3366 
L 3609 2778 
z
" transform="scale(0.015625)"/>
        <path id="DejaVuSansMono-65" d="M 3475 1894 
L 3475 1613 
L 984 1613 
L 984 1594 
Q 984 1022 1282 709 
Q 1581 397 2125 397 
Q 2400 397 2700 484 
Q 3000 572 3341 750 
L 3341 178 
Q 3013 44 2708 -23 
Q 2403 -91 2119 -91 
Q 1303 -91 843 398 
Q 384 888 384 1747 
Q 384 2584 834 3084 
Q 1284 3584 2034 3584 
Q 2703 3584 3089 3131 
Q 3475 2678 3475 1894 
z
M 2900 2063 
Q 2888 2569 2661 2833 
Q 2434 3097 2009 3097 
Q 1594 3097 1325 2822 
Q 1056 2547 1006 2059 
L 2900 2063 
z
" transform="scale(0.015625)"/>
        <path id="DejaVuSansMono-70" d="M 1172 441 
L 1172 -1331 
L 594 -1331 
L 594 3500 
L 1172 3500 
L 1172 3053 
Q 1316 3313 1555 3448 
Q 1794 3584 2106 3584 
Q 2741 3584 3102 3093 
Q 3463 2603 3463 1734 
Q 3463 881 3100 395 
Q 2738 -91 2106 -91 
Q 1788 -91 1548 45 
Q 1309 181 1172 441 
z
M 2859 1747 
Q 2859 2416 2648 2756 
Q 2438 3097 2022 3097 
Q 1603 3097 1387 2755 
Q 1172 2413 1172 1747 
Q 1172 1084 1387 740 
Q 1603 397 2022 397 
Q 2438 397 2648 737 
Q 2859 1078 2859 1747 
z
" transform="scale(0.015625)"/>
        <path id="DejaVuSansMono-6c" d="M 1997 1269 
Q 1997 881 2139 684 
Q 2281 488 2559 488 
L 3231 488 
L 3231 0 
L 2503 0 
Q 1988 0 1705 331 
Q 1422 663 1422 1269 
L 1422 4447 
L 500 4447 
L 500 4897 
L 1997 4897 
L 1997 1269 
z
" transform="scale(0.015625)"/>
        <path id="DejaVuSansMono-61" d="M 2194 1759 
L 2003 1759 
Q 1500 1759 1245 1582 
Q 991 1406 991 1056 
Q 991 741 1181 566 
Q 1372 391 1709 391 
Q 2184 391 2456 720 
Q 2728 1050 2731 1631 
L 2731 1759 
L 2194 1759 
z
M 3309 1997 
L 3309 0 
L 2731 0 
L 2731 519 
Q 2547 206 2267 57 
Q 1988 -91 1588 -91 
Q 1053 -91 734 211 
Q 416 513 416 1019 
Q 416 1603 808 1906 
Q 1200 2209 1959 2209 
L 2731 2209 
L 2731 2300 
Q 2728 2719 2518 2908 
Q 2309 3097 1850 3097 
Q 1556 3097 1256 3012 
Q 956 2928 672 2766 
L 672 3341 
Q 991 3463 1283 3523 
Q 1575 3584 1850 3584 
Q 2284 3584 2592 3456 
Q 2900 3328 3091 3072 
Q 3209 2916 3259 2686 
Q 3309 2456 3309 1997 
z
" transform="scale(0.015625)"/>
        <path id="DejaVuSansMono-63" d="M 3316 178 
Q 3084 44 2839 -23 
Q 2594 -91 2338 -91 
Q 1525 -91 1067 396 
Q 609 884 609 1747 
Q 609 2609 1067 3096 
Q 1525 3584 2338 3584 
Q 2591 3584 2831 3518 
Q 3072 3453 3316 3316 
L 3316 2713 
Q 3088 2916 2858 3006 
Q 2628 3097 2338 3097 
Q 1797 3097 1506 2747 
Q 1216 2397 1216 1747 
Q 1216 1100 1508 748 
Q 1800 397 2338 397 
Q 2638 397 2875 489 
Q 3113 581 3316 775 
L 3316 178 
z
" transform="scale(0.015625)"/>
       </defs>
       <use xlink:href="#DejaVuSansMono-64"/>
       <use xlink:href="#DejaVuSansMono-66" transform="translate(60.205078 0)"/>
       <use xlink:href="#DejaVuSansMono-2e" transform="translate(120.410156 0)"/>
       <use xlink:href="#DejaVuSansMono-72" transform="translate(180.615234 0)"/>
       <use xlink:href="#DejaVuSansMono-65" transform="translate(240.820312 0)"/>
       <use xlink:href="#DejaVuSansMono-70" transform="translate(301.025391 0)"/>
       <use xlink:href="#DejaVuSansMono-6c" transform="translate(361.230469 0)"/>
       <use xlink:href="#DejaVuSansMono-61" transform="translate(421.435547 0)"/>
       <use xlink:href="#DejaVuSansMono-63" transform="translate(481.640625 0)"/>
       <use xlink:href="#DejaVuSansMono-65" transform="translate(541.845703 0)"/>
      </g>
     </g>
    </g>
    <g id="xtick_2">
     <g id="line2d_3">
      <path d="M 171.094803 262.167465 
L 171.094803 7.2 
" clip-path="url(#p361c535b4b)" style="fill: none; stroke: #e6e6e6; stroke-width: 0.8; stroke-linecap: square"/>
     </g>
     <g id="line2d_4">
      <g>
       <use xlink:href="#mddbc827903" x="171.094803" y="262.167465" style="stroke: #000000; stroke-width: 0.8"/>
      </g>
     </g>
     <g id="text_2">
      <!-- df.fillna -->
      <g transform="translate(150.470929 321.635672) rotate(-45) scale(0.12 -0.12)">
       <defs>
        <path id="DejaVuSansMono-69" d="M 800 3500 
L 2272 3500 
L 2272 447 
L 3413 447 
L 3413 0 
L 556 0 
L 556 447 
L 1697 447 
L 1697 3053 
L 800 3053 
L 800 3500 
z
M 1697 4863 
L 2272 4863 
L 2272 4134 
L 1697 4134 
L 1697 4863 
z
" transform="scale(0.015625)"/>
        <path id="DejaVuSansMono-6e" d="M 3284 2169 
L 3284 0 
L 2706 0 
L 2706 2169 
Q 2706 2641 2540 2862 
Q 2375 3084 2022 3084 
Q 1619 3084 1401 2798 
Q 1184 2513 1184 1978 
L 1184 0 
L 609 0 
L 609 3500 
L 1184 3500 
L 1184 2975 
Q 1338 3275 1600 3429 
Q 1863 3584 2222 3584 
Q 2756 3584 3020 3232 
Q 3284 2881 3284 2169 
z
" transform="scale(0.015625)"/>
       </defs>
       <use xlink:href="#DejaVuSansMono-64"/>
       <use xlink:href="#DejaVuSansMono-66" transform="translate(60.205078 0)"/>
       <use xlink:href="#DejaVuSansMono-2e" transform="translate(120.410156 0)"/>
       <use xlink:href="#DejaVuSansMono-66" transform="translate(180.615234 0)"/>
       <use xlink:href="#DejaVuSansMono-69" transform="translate(240.820312 0)"/>
       <use xlink:href="#DejaVuSansMono-6c" transform="translate(301.025391 0)"/>
       <use xlink:href="#DejaVuSansMono-6c" transform="translate(361.230469 0)"/>
       <use xlink:href="#DejaVuSansMono-6e" transform="translate(421.435547 0)"/>
       <use xlink:href="#DejaVuSansMono-61" transform="translate(481.640625 0)"/>
      </g>
     </g>
    </g>
    <g id="xtick_3">
     <g id="line2d_5">
      <path d="M 246.101382 262.167465 
L 246.101382 7.2 
" clip-path="url(#p361c535b4b)" style="fill: none; stroke: #e6e6e6; stroke-width: 0.8; stroke-linecap: square"/>
     </g>
     <g id="line2d_6">
      <g>
       <use xlink:href="#mddbc827903" x="246.101382" y="262.167465" style="stroke: #000000; stroke-width: 0.8"/>
      </g>
     </g>
     <g id="text_3">
      <!-- df.sort_values -->
      <g transform="translate(212.588498 347.177695) rotate(-45) scale(0.12 -0.12)">
       <defs>
        <path id="DejaVuSansMono-73" d="M 3041 3378 
L 3041 2816 
Q 2794 2959 2544 3031 
Q 2294 3103 2034 3103 
Q 1644 3103 1451 2976 
Q 1259 2850 1259 2591 
Q 1259 2356 1403 2240 
Q 1547 2125 2119 2016 
L 2350 1972 
Q 2778 1891 2998 1647 
Q 3219 1403 3219 1013 
Q 3219 494 2850 201 
Q 2481 -91 1825 -91 
Q 1566 -91 1281 -36 
Q 997 19 666 128 
L 666 722 
Q 988 556 1281 473 
Q 1575 391 1838 391 
Q 2219 391 2428 545 
Q 2638 700 2638 978 
Q 2638 1378 1872 1531 
L 1847 1538 
L 1631 1581 
Q 1134 1678 906 1908 
Q 678 2138 678 2534 
Q 678 3038 1018 3311 
Q 1359 3584 1991 3584 
Q 2272 3584 2531 3532 
Q 2791 3481 3041 3378 
z
" transform="scale(0.015625)"/>
        <path id="DejaVuSansMono-6f" d="M 1925 3097 
Q 1488 3097 1263 2756 
Q 1038 2416 1038 1747 
Q 1038 1081 1263 739 
Q 1488 397 1925 397 
Q 2366 397 2591 739 
Q 2816 1081 2816 1747 
Q 2816 2416 2591 2756 
Q 2366 3097 1925 3097 
z
M 1925 3584 
Q 2653 3584 3039 3112 
Q 3425 2641 3425 1747 
Q 3425 850 3040 379 
Q 2656 -91 1925 -91 
Q 1197 -91 812 379 
Q 428 850 428 1747 
Q 428 2641 812 3112 
Q 1197 3584 1925 3584 
z
" transform="scale(0.015625)"/>
        <path id="DejaVuSansMono-74" d="M 1919 4494 
L 1919 3500 
L 3225 3500 
L 3225 3053 
L 1919 3053 
L 1919 1153 
Q 1919 766 2066 612 
Q 2213 459 2578 459 
L 3225 459 
L 3225 0 
L 2522 0 
Q 1875 0 1609 259 
Q 1344 519 1344 1153 
L 1344 3053 
L 409 3053 
L 409 3500 
L 1344 3500 
L 1344 4494 
L 1919 4494 
z
" transform="scale(0.015625)"/>
        <path id="DejaVuSansMono-5f" d="M 3853 -1259 
L 3853 -1509 
L 0 -1509 
L 0 -1259 
L 3853 -1259 
z
" transform="scale(0.015625)"/>
        <path id="DejaVuSansMono-76" d="M 313 3500 
L 909 3500 
L 1925 563 
L 2944 3500 
L 3541 3500 
L 2297 0 
L 1556 0 
L 313 3500 
z
" transform="scale(0.015625)"/>
        <path id="DejaVuSansMono-75" d="M 609 1325 
L 609 3494 
L 1184 3494 
L 1184 1325 
Q 1184 853 1351 631 
Q 1519 409 1869 409 
Q 2275 409 2490 695 
Q 2706 981 2706 1516 
L 2706 3494 
L 3284 3494 
L 3284 0 
L 2706 0 
L 2706 525 
Q 2553 222 2289 65 
Q 2025 -91 1672 -91 
Q 1134 -91 871 261 
Q 609 613 609 1325 
z
" transform="scale(0.015625)"/>
       </defs>
       <use xlink:href="#DejaVuSansMono-64"/>
       <use xlink:href="#DejaVuSansMono-66" transform="translate(60.205078 0)"/>
       <use xlink:href="#DejaVuSansMono-2e" transform="translate(120.410156 0)"/>
       <use xlink:href="#DejaVuSansMono-73" transform="translate(180.615234 0)"/>
       <use xlink:href="#DejaVuSansMono-6f" transform="translate(240.820312 0)"/>
       <use xlink:href="#DejaVuSansMono-72" transform="translate(301.025391 0)"/>
       <use xlink:href="#DejaVuSansMono-74" transform="translate(361.230469 0)"/>
       <use xlink:href="#DejaVuSansMono-5f" transform="translate(421.435547 0)"/>
       <use xlink:href="#DejaVuSansMono-76" transform="translate(481.640625 0)"/>
       <use xlink:href="#DejaVuSansMono-61" transform="translate(541.845703 0)"/>
       <use xlink:href="#DejaVuSansMono-6c" transform="translate(602.050781 0)"/>
       <use xlink:href="#DejaVuSansMono-75" transform="translate(662.255859 0)"/>
       <use xlink:href="#DejaVuSansMono-65" transform="translate(722.460938 0)"/>
       <use xlink:href="#DejaVuSansMono-73" transform="translate(782.666016 0)"/>
      </g>
     </g>
    </g>
    <g id="xtick_4">
     <g id="line2d_7">
      <path d="M 321.107961 262.167465 
L 321.107961 7.2 
" clip-path="url(#p361c535b4b)" style="fill: none; stroke: #e6e6e6; stroke-width: 0.8; stroke-linecap: square"/>
     </g>
     <g id="line2d_8">
      <g>
       <use xlink:href="#mddbc827903" x="321.107961" y="262.167465" style="stroke: #000000; stroke-width: 0.8"/>
      </g>
     </g>
     <g id="text_4">
      <!-- df.drop_duplicates -->
      <g transform="translate(277.378267 367.611313) rotate(-45) scale(0.12 -0.12)">
       <use xlink:href="#DejaVuSansMono-64"/>
       <use xlink:href="#DejaVuSansMono-66" transform="translate(60.205078 0)"/>
       <use xlink:href="#DejaVuSansMono-2e" transform="translate(120.410156 0)"/>
       <use xlink:href="#DejaVuSansMono-64" transform="translate(180.615234 0)"/>
       <use xlink:href="#DejaVuSansMono-72" transform="translate(240.820312 0)"/>
       <use xlink:href="#DejaVuSansMono-6f" transform="translate(301.025391 0)"/>
       <use xlink:href="#DejaVuSansMono-70" transform="translate(361.230469 0)"/>
       <use xlink:href="#DejaVuSansMono-5f" transform="translate(421.435547 0)"/>
       <use xlink:href="#DejaVuSansMono-64" transform="translate(481.640625 0)"/>
       <use xlink:href="#DejaVuSansMono-75" transform="translate(541.845703 0)"/>
       <use xlink:href="#DejaVuSansMono-70" transform="translate(602.050781 0)"/>
       <use xlink:href="#DejaVuSansMono-6c" transform="translate(662.255859 0)"/>
       <use xlink:href="#DejaVuSansMono-69" transform="translate(722.460938 0)"/>
       <use xlink:href="#DejaVuSansMono-63" transform="translate(782.666016 0)"/>
       <use xlink:href="#DejaVuSansMono-61" transform="translate(842.871094 0)"/>
       <use xlink:href="#DejaVuSansMono-74" transform="translate(903.076172 0)"/>
       <use xlink:href="#DejaVuSansMono-65" transform="translate(963.28125 0)"/>
       <use xlink:href="#DejaVuSansMono-73" transform="translate(1023.486328 0)"/>
      </g>
     </g>
    </g>
    <g id="xtick_5">
     <g id="line2d_9">
      <path d="M 396.114539 262.167465 
L 396.114539 7.2 
" clip-path="url(#p361c535b4b)" style="fill: none; stroke: #e6e6e6; stroke-width: 0.8; stroke-linecap: square"/>
     </g>
     <g id="line2d_10">
      <g>
       <use xlink:href="#mddbc827903" x="396.114539" y="262.167465" style="stroke: #000000; stroke-width: 0.8"/>
      </g>
     </g>
     <g id="text_5">
      <!-- df.reset_index -->
      <g transform="translate(362.579116 347.132617) rotate(-45) scale(0.12 -0.12)">
       <defs>
        <path id="DejaVuSansMono-78" d="M 3494 3500 
L 2241 1825 
L 3616 0 
L 2950 0 
L 1925 1403 
L 903 0 
L 238 0 
L 1613 1825 
L 359 3500 
L 997 3500 
L 1925 2234 
L 2847 3500 
L 3494 3500 
z
" transform="scale(0.015625)"/>
       </defs>
       <use xlink:href="#DejaVuSansMono-64"/>
       <use xlink:href="#DejaVuSansMono-66" transform="translate(60.205078 0)"/>
       <use xlink:href="#DejaVuSansMono-2e" transform="translate(120.410156 0)"/>
       <use xlink:href="#DejaVuSansMono-72" transform="translate(180.615234 0)"/>
       <use xlink:href="#DejaVuSansMono-65" transform="translate(240.820312 0)"/>
       <use xlink:href="#DejaVuSansMono-73" transform="translate(301.025391 0)"/>
       <use xlink:href="#DejaVuSansMono-65" transform="translate(361.230469 0)"/>
       <use xlink:href="#DejaVuSansMono-74" transform="translate(421.435547 0)"/>
       <use xlink:href="#DejaVuSansMono-5f" transform="translate(481.640625 0)"/>
       <use xlink:href="#DejaVuSansMono-69" transform="translate(541.845703 0)"/>
       <use xlink:href="#DejaVuSansMono-6e" transform="translate(602.050781 0)"/>
       <use xlink:href="#DejaVuSansMono-64" transform="translate(662.255859 0)"/>
       <use xlink:href="#DejaVuSansMono-65" transform="translate(722.460938 0)"/>
       <use xlink:href="#DejaVuSansMono-78" transform="translate(782.666016 0)"/>
      </g>
     </g>
    </g>
    <g id="xtick_6">
     <g id="line2d_11">
      <path d="M 471.121118 262.167465 
L 471.121118 7.2 
" clip-path="url(#p361c535b4b)" style="fill: none; stroke: #e6e6e6; stroke-width: 0.8; stroke-linecap: square"/>
     </g>
     <g id="line2d_12">
      <g>
       <use xlink:href="#mddbc827903" x="471.121118" y="262.167465" style="stroke: #000000; stroke-width: 0.8"/>
      </g>
     </g>
     <g id="text_6">
      <!-- df.drop -->
      <g transform="translate(455.605649 311.418863) rotate(-45) scale(0.12 -0.12)">
       <use xlink:href="#DejaVuSansMono-64"/>
       <use xlink:href="#DejaVuSansMono-66" transform="translate(60.205078 0)"/>
       <use xlink:href="#DejaVuSansMono-2e" transform="translate(120.410156 0)"/>
       <use xlink:href="#DejaVuSansMono-64" transform="translate(180.615234 0)"/>
       <use xlink:href="#DejaVuSansMono-72" transform="translate(240.820312 0)"/>
       <use xlink:href="#DejaVuSansMono-6f" transform="translate(301.025391 0)"/>
       <use xlink:href="#DejaVuSansMono-70" transform="translate(361.230469 0)"/>
      </g>
     </g>
    </g>
    <g id="xtick_7">
     <g id="line2d_13">
      <path d="M 546.127697 262.167465 
L 546.127697 7.2 
" clip-path="url(#p361c535b4b)" style="fill: none; stroke: #e6e6e6; stroke-width: 0.8; stroke-linecap: square"/>
     </g>
     <g id="line2d_14">
      <g>
       <use xlink:href="#mddbc827903" x="546.127697" y="262.167465" style="stroke: #000000; stroke-width: 0.8"/>
      </g>
     </g>
     <g id="text_7">
      <!-- df.dropna -->
      <g transform="translate(525.503823 321.635672) rotate(-45) scale(0.12 -0.12)">
       <use xlink:href="#DejaVuSansMono-64"/>
       <use xlink:href="#DejaVuSansMono-66" transform="translate(60.205078 0)"/>
       <use xlink:href="#DejaVuSansMono-2e" transform="translate(120.410156 0)"/>
       <use xlink:href="#DejaVuSansMono-64" transform="translate(180.615234 0)"/>
       <use xlink:href="#DejaVuSansMono-72" transform="translate(240.820312 0)"/>
       <use xlink:href="#DejaVuSansMono-6f" transform="translate(301.025391 0)"/>
       <use xlink:href="#DejaVuSansMono-70" transform="translate(361.230469 0)"/>
       <use xlink:href="#DejaVuSansMono-6e" transform="translate(421.435547 0)"/>
       <use xlink:href="#DejaVuSansMono-61" transform="translate(481.640625 0)"/>
      </g>
     </g>
    </g>
    <g id="xtick_8">
     <g id="line2d_15">
      <path d="M 621.134276 262.167465 
L 621.134276 7.2 
" clip-path="url(#p361c535b4b)" style="fill: none; stroke: #e6e6e6; stroke-width: 0.8; stroke-linecap: square"/>
     </g>
     <g id="line2d_16">
      <g>
       <use xlink:href="#mddbc827903" x="621.134276" y="262.167465" style="stroke: #000000; stroke-width: 0.8"/>
      </g>
     </g>
     <g id="text_8">
      <!-- df.rename -->
      <g transform="translate(600.510402 321.635672) rotate(-45) scale(0.12 -0.12)">
       <defs>
        <path id="DejaVuSansMono-6d" d="M 2113 3144 
Q 2219 3369 2383 3476 
Q 2547 3584 2778 3584 
Q 3200 3584 3373 3257 
Q 3547 2931 3547 2028 
L 3547 0 
L 3022 0 
L 3022 2003 
Q 3022 2744 2939 2923 
Q 2856 3103 2638 3103 
Q 2388 3103 2295 2911 
Q 2203 2719 2203 2003 
L 2203 0 
L 1678 0 
L 1678 2003 
Q 1678 2753 1589 2928 
Q 1500 3103 1269 3103 
Q 1041 3103 952 2911 
Q 863 2719 863 2003 
L 863 0 
L 341 0 
L 341 3500 
L 863 3500 
L 863 3200 
Q 966 3388 1120 3486 
Q 1275 3584 1472 3584 
Q 1709 3584 1867 3475 
Q 2025 3366 2113 3144 
z
" transform="scale(0.015625)"/>
       </defs>
       <use xlink:href="#DejaVuSansMono-64"/>
       <use xlink:href="#DejaVuSansMono-66" transform="translate(60.205078 0)"/>
       <use xlink:href="#DejaVuSansMono-2e" transform="translate(120.410156 0)"/>
       <use xlink:href="#DejaVuSansMono-72" transform="translate(180.615234 0)"/>
       <use xlink:href="#DejaVuSansMono-65" transform="translate(240.820312 0)"/>
       <use xlink:href="#DejaVuSansMono-6e" transform="translate(301.025391 0)"/>
       <use xlink:href="#DejaVuSansMono-61" transform="translate(361.230469 0)"/>
       <use xlink:href="#DejaVuSansMono-6d" transform="translate(421.435547 0)"/>
       <use xlink:href="#DejaVuSansMono-65" transform="translate(481.640625 0)"/>
      </g>
     </g>
    </g>
   </g>
   <g id="matplotlib.axis_2">
    <g id="ytick_1">
     <g id="line2d_17">
      <path d="M 45.08375 262.167465 
L 672.13875 262.167465 
" clip-path="url(#p361c535b4b)" style="fill: none; stroke: #e6e6e6; stroke-width: 0.8; stroke-linecap: square"/>
     </g>
     <g id="line2d_18">
      <defs>
       <path id="m31999ba8ed" d="M 0 0 
L -3.5 0 
" style="stroke: #000000; stroke-width: 0.8"/>
      </defs>
      <g>
       <use xlink:href="#m31999ba8ed" x="45.08375" y="262.167465" style="stroke: #000000; stroke-width: 0.8"/>
      </g>
     </g>
     <g id="text_9">
      <!-- 0 -->
      <g transform="translate(30.44875 266.726528) scale(0.12 -0.12)">
       <defs>
        <path id="DejaVuSans-30" d="M 2034 4250 
Q 1547 4250 1301 3770 
Q 1056 3291 1056 2328 
Q 1056 1369 1301 889 
Q 1547 409 2034 409 
Q 2525 409 2770 889 
Q 3016 1369 3016 2328 
Q 3016 3291 2770 3770 
Q 2525 4250 2034 4250 
z
M 2034 4750 
Q 2819 4750 3233 4129 
Q 3647 3509 3647 2328 
Q 3647 1150 3233 529 
Q 2819 -91 2034 -91 
Q 1250 -91 836 529 
Q 422 1150 422 2328 
Q 422 3509 836 4129 
Q 1250 4750 2034 4750 
z
" transform="scale(0.015625)"/>
       </defs>
       <use xlink:href="#DejaVuSans-30"/>
      </g>
     </g>
    </g>
    <g id="ytick_2">
     <g id="line2d_19">
      <path d="M 45.08375 232.234904 
L 672.13875 232.234904 
" clip-path="url(#p361c535b4b)" style="fill: none; stroke: #e6e6e6; stroke-width: 0.8; stroke-linecap: square"/>
     </g>
     <g id="line2d_20">
      <g>
       <use xlink:href="#m31999ba8ed" x="45.08375" y="232.234904" style="stroke: #000000; stroke-width: 0.8"/>
      </g>
     </g>
     <g id="text_10">
      <!-- 2 -->
      <g transform="translate(30.44875 236.793966) scale(0.12 -0.12)">
       <defs>
        <path id="DejaVuSans-32" d="M 1228 531 
L 3431 531 
L 3431 0 
L 469 0 
L 469 531 
Q 828 903 1448 1529 
Q 2069 2156 2228 2338 
Q 2531 2678 2651 2914 
Q 2772 3150 2772 3378 
Q 2772 3750 2511 3984 
Q 2250 4219 1831 4219 
Q 1534 4219 1204 4116 
Q 875 4013 500 3803 
L 500 4441 
Q 881 4594 1212 4672 
Q 1544 4750 1819 4750 
Q 2544 4750 2975 4387 
Q 3406 4025 3406 3419 
Q 3406 3131 3298 2873 
Q 3191 2616 2906 2266 
Q 2828 2175 2409 1742 
Q 1991 1309 1228 531 
z
" transform="scale(0.015625)"/>
       </defs>
       <use xlink:href="#DejaVuSans-32"/>
      </g>
     </g>
    </g>
    <g id="ytick_3">
     <g id="line2d_21">
      <path d="M 45.08375 202.302342 
L 672.13875 202.302342 
" clip-path="url(#p361c535b4b)" style="fill: none; stroke: #e6e6e6; stroke-width: 0.8; stroke-linecap: square"/>
     </g>
     <g id="line2d_22">
      <g>
       <use xlink:href="#m31999ba8ed" x="45.08375" y="202.302342" style="stroke: #000000; stroke-width: 0.8"/>
      </g>
     </g>
     <g id="text_11">
      <!-- 4 -->
      <g transform="translate(30.44875 206.861405) scale(0.12 -0.12)">
       <defs>
        <path id="DejaVuSans-34" d="M 2419 4116 
L 825 1625 
L 2419 1625 
L 2419 4116 
z
M 2253 4666 
L 3047 4666 
L 3047 1625 
L 3713 1625 
L 3713 1100 
L 3047 1100 
L 3047 0 
L 2419 0 
L 2419 1100 
L 313 1100 
L 313 1709 
L 2253 4666 
z
" transform="scale(0.015625)"/>
       </defs>
       <use xlink:href="#DejaVuSans-34"/>
      </g>
     </g>
    </g>
    <g id="ytick_4">
     <g id="line2d_23">
      <path d="M 45.08375 172.36978 
L 672.13875 172.36978 
" clip-path="url(#p361c535b4b)" style="fill: none; stroke: #e6e6e6; stroke-width: 0.8; stroke-linecap: square"/>
     </g>
     <g id="line2d_24">
      <g>
       <use xlink:href="#m31999ba8ed" x="45.08375" y="172.36978" style="stroke: #000000; stroke-width: 0.8"/>
      </g>
     </g>
     <g id="text_12">
      <!-- 6 -->
      <g transform="translate(30.44875 176.928843) scale(0.12 -0.12)">
       <defs>
        <path id="DejaVuSans-36" d="M 2113 2584 
Q 1688 2584 1439 2293 
Q 1191 2003 1191 1497 
Q 1191 994 1439 701 
Q 1688 409 2113 409 
Q 2538 409 2786 701 
Q 3034 994 3034 1497 
Q 3034 2003 2786 2293 
Q 2538 2584 2113 2584 
z
M 3366 4563 
L 3366 3988 
Q 3128 4100 2886 4159 
Q 2644 4219 2406 4219 
Q 1781 4219 1451 3797 
Q 1122 3375 1075 2522 
Q 1259 2794 1537 2939 
Q 1816 3084 2150 3084 
Q 2853 3084 3261 2657 
Q 3669 2231 3669 1497 
Q 3669 778 3244 343 
Q 2819 -91 2113 -91 
Q 1303 -91 875 529 
Q 447 1150 447 2328 
Q 447 3434 972 4092 
Q 1497 4750 2381 4750 
Q 2619 4750 2861 4703 
Q 3103 4656 3366 4563 
z
" transform="scale(0.015625)"/>
       </defs>
       <use xlink:href="#DejaVuSans-36"/>
      </g>
     </g>
    </g>
    <g id="ytick_5">
     <g id="line2d_25">
      <path d="M 45.08375 142.437219 
L 672.13875 142.437219 
" clip-path="url(#p361c535b4b)" style="fill: none; stroke: #e6e6e6; stroke-width: 0.8; stroke-linecap: square"/>
     </g>
     <g id="line2d_26">
      <g>
       <use xlink:href="#m31999ba8ed" x="45.08375" y="142.437219" style="stroke: #000000; stroke-width: 0.8"/>
      </g>
     </g>
     <g id="text_13">
      <!-- 8 -->
      <g transform="translate(30.44875 146.996281) scale(0.12 -0.12)">
       <defs>
        <path id="DejaVuSans-38" d="M 2034 2216 
Q 1584 2216 1326 1975 
Q 1069 1734 1069 1313 
Q 1069 891 1326 650 
Q 1584 409 2034 409 
Q 2484 409 2743 651 
Q 3003 894 3003 1313 
Q 3003 1734 2745 1975 
Q 2488 2216 2034 2216 
z
M 1403 2484 
Q 997 2584 770 2862 
Q 544 3141 544 3541 
Q 544 4100 942 4425 
Q 1341 4750 2034 4750 
Q 2731 4750 3128 4425 
Q 3525 4100 3525 3541 
Q 3525 3141 3298 2862 
Q 3072 2584 2669 2484 
Q 3125 2378 3379 2068 
Q 3634 1759 3634 1313 
Q 3634 634 3220 271 
Q 2806 -91 2034 -91 
Q 1263 -91 848 271 
Q 434 634 434 1313 
Q 434 1759 690 2068 
Q 947 2378 1403 2484 
z
M 1172 3481 
Q 1172 3119 1398 2916 
Q 1625 2713 2034 2713 
Q 2441 2713 2670 2916 
Q 2900 3119 2900 3481 
Q 2900 3844 2670 4047 
Q 2441 4250 2034 4250 
Q 1625 4250 1398 4047 
Q 1172 3844 1172 3481 
z
" transform="scale(0.015625)"/>
       </defs>
       <use xlink:href="#DejaVuSans-38"/>
      </g>
     </g>
    </g>
    <g id="ytick_6">
     <g id="line2d_27">
      <path d="M 45.08375 112.504657 
L 672.13875 112.504657 
" clip-path="url(#p361c535b4b)" style="fill: none; stroke: #e6e6e6; stroke-width: 0.8; stroke-linecap: square"/>
     </g>
     <g id="line2d_28">
      <g>
       <use xlink:href="#m31999ba8ed" x="45.08375" y="112.504657" style="stroke: #000000; stroke-width: 0.8"/>
      </g>
     </g>
     <g id="text_14">
      <!-- 10 -->
      <g transform="translate(22.81375 117.06372) scale(0.12 -0.12)">
       <defs>
        <path id="DejaVuSans-31" d="M 794 531 
L 1825 531 
L 1825 4091 
L 703 3866 
L 703 4441 
L 1819 4666 
L 2450 4666 
L 2450 531 
L 3481 531 
L 3481 0 
L 794 0 
L 794 531 
z
" transform="scale(0.015625)"/>
       </defs>
       <use xlink:href="#DejaVuSans-31"/>
       <use xlink:href="#DejaVuSans-30" transform="translate(63.623047 0)"/>
      </g>
     </g>
    </g>
    <g id="ytick_7">
     <g id="line2d_29">
      <path d="M 45.08375 82.572096 
L 672.13875 82.572096 
" clip-path="url(#p361c535b4b)" style="fill: none; stroke: #e6e6e6; stroke-width: 0.8; stroke-linecap: square"/>
     </g>
     <g id="line2d_30">
      <g>
       <use xlink:href="#m31999ba8ed" x="45.08375" y="82.572096" style="stroke: #000000; stroke-width: 0.8"/>
      </g>
     </g>
     <g id="text_15">
      <!-- 12 -->
      <g transform="translate(22.81375 87.131158) scale(0.12 -0.12)">
       <use xlink:href="#DejaVuSans-31"/>
       <use xlink:href="#DejaVuSans-32" transform="translate(63.623047 0)"/>
      </g>
     </g>
    </g>
    <g id="ytick_8">
     <g id="line2d_31">
      <path d="M 45.08375 52.639534 
L 672.13875 52.639534 
" clip-path="url(#p361c535b4b)" style="fill: none; stroke: #e6e6e6; stroke-width: 0.8; stroke-linecap: square"/>
     </g>
     <g id="line2d_32">
      <g>
       <use xlink:href="#m31999ba8ed" x="45.08375" y="52.639534" style="stroke: #000000; stroke-width: 0.8"/>
      </g>
     </g>
     <g id="text_16">
      <!-- 14 -->
      <g transform="translate(22.81375 57.198596) scale(0.12 -0.12)">
       <use xlink:href="#DejaVuSans-31"/>
       <use xlink:href="#DejaVuSans-34" transform="translate(63.623047 0)"/>
      </g>
     </g>
    </g>
    <g id="ytick_9">
     <g id="line2d_33">
      <path d="M 45.08375 22.706972 
L 672.13875 22.706972 
" clip-path="url(#p361c535b4b)" style="fill: none; stroke: #e6e6e6; stroke-width: 0.8; stroke-linecap: square"/>
     </g>
     <g id="line2d_34">
      <g>
       <use xlink:href="#m31999ba8ed" x="45.08375" y="22.706972" style="stroke: #000000; stroke-width: 0.8"/>
      </g>
     </g>
     <g id="text_17">
      <!-- 16 -->
      <g transform="translate(22.81375 27.266035) scale(0.12 -0.12)">
       <use xlink:href="#DejaVuSans-31"/>
       <use xlink:href="#DejaVuSans-36" transform="translate(63.623047 0)"/>
      </g>
     </g>
    </g>
    <g id="text_18">
     <!-- Time (s) -->
     <g transform="translate(16.318125 159.07842) rotate(-90) scale(0.12 -0.12)">
      <defs>
       <path id="DejaVuSans-54" d="M -19 4666 
L 3928 4666 
L 3928 4134 
L 2272 4134 
L 2272 0 
L 1638 0 
L 1638 4134 
L -19 4134 
L -19 4666 
z
" transform="scale(0.015625)"/>
       <path id="DejaVuSans-69" d="M 603 3500 
L 1178 3500 
L 1178 0 
L 603 0 
L 603 3500 
z
M 603 4863 
L 1178 4863 
L 1178 4134 
L 603 4134 
L 603 4863 
z
" transform="scale(0.015625)"/>
       <path id="DejaVuSans-6d" d="M 3328 2828 
Q 3544 3216 3844 3400 
Q 4144 3584 4550 3584 
Q 5097 3584 5394 3201 
Q 5691 2819 5691 2113 
L 5691 0 
L 5113 0 
L 5113 2094 
Q 5113 2597 4934 2840 
Q 4756 3084 4391 3084 
Q 3944 3084 3684 2787 
Q 3425 2491 3425 1978 
L 3425 0 
L 2847 0 
L 2847 2094 
Q 2847 2600 2669 2842 
Q 2491 3084 2119 3084 
Q 1678 3084 1418 2786 
Q 1159 2488 1159 1978 
L 1159 0 
L 581 0 
L 581 3500 
L 1159 3500 
L 1159 2956 
Q 1356 3278 1631 3431 
Q 1906 3584 2284 3584 
Q 2666 3584 2933 3390 
Q 3200 3197 3328 2828 
z
" transform="scale(0.015625)"/>
       <path id="DejaVuSans-65" d="M 3597 1894 
L 3597 1613 
L 953 1613 
Q 991 1019 1311 708 
Q 1631 397 2203 397 
Q 2534 397 2845 478 
Q 3156 559 3463 722 
L 3463 178 
Q 3153 47 2828 -22 
Q 2503 -91 2169 -91 
Q 1331 -91 842 396 
Q 353 884 353 1716 
Q 353 2575 817 3079 
Q 1281 3584 2069 3584 
Q 2775 3584 3186 3129 
Q 3597 2675 3597 1894 
z
M 3022 2063 
Q 3016 2534 2758 2815 
Q 2500 3097 2075 3097 
Q 1594 3097 1305 2825 
Q 1016 2553 972 2059 
L 3022 2063 
z
" transform="scale(0.015625)"/>
       <path id="DejaVuSans-20" transform="scale(0.015625)"/>
       <path id="DejaVuSans-28" d="M 1984 4856 
Q 1566 4138 1362 3434 
Q 1159 2731 1159 2009 
Q 1159 1288 1364 580 
Q 1569 -128 1984 -844 
L 1484 -844 
Q 1016 -109 783 600 
Q 550 1309 550 2009 
Q 550 2706 781 3412 
Q 1013 4119 1484 4856 
L 1984 4856 
z
" transform="scale(0.015625)"/>
       <path id="DejaVuSans-73" d="M 2834 3397 
L 2834 2853 
Q 2591 2978 2328 3040 
Q 2066 3103 1784 3103 
Q 1356 3103 1142 2972 
Q 928 2841 928 2578 
Q 928 2378 1081 2264 
Q 1234 2150 1697 2047 
L 1894 2003 
Q 2506 1872 2764 1633 
Q 3022 1394 3022 966 
Q 3022 478 2636 193 
Q 2250 -91 1575 -91 
Q 1294 -91 989 -36 
Q 684 19 347 128 
L 347 722 
Q 666 556 975 473 
Q 1284 391 1588 391 
Q 1994 391 2212 530 
Q 2431 669 2431 922 
Q 2431 1156 2273 1281 
Q 2116 1406 1581 1522 
L 1381 1569 
Q 847 1681 609 1914 
Q 372 2147 372 2553 
Q 372 3047 722 3315 
Q 1072 3584 1716 3584 
Q 2034 3584 2315 3537 
Q 2597 3491 2834 3397 
z
" transform="scale(0.015625)"/>
       <path id="DejaVuSans-29" d="M 513 4856 
L 1013 4856 
Q 1481 4119 1714 3412 
Q 1947 2706 1947 2009 
Q 1947 1309 1714 600 
Q 1481 -109 1013 -844 
L 513 -844 
Q 928 -128 1133 580 
Q 1338 1288 1338 2009 
Q 1338 2731 1133 3434 
Q 928 4138 513 4856 
z
" transform="scale(0.015625)"/>
      </defs>
      <use xlink:href="#DejaVuSans-54"/>
      <use xlink:href="#DejaVuSans-69" transform="translate(57.958984 0)"/>
      <use xlink:href="#DejaVuSans-6d" transform="translate(85.742188 0)"/>
      <use xlink:href="#DejaVuSans-65" transform="translate(183.154297 0)"/>
      <use xlink:href="#DejaVuSans-20" transform="translate(244.677734 0)"/>
      <use xlink:href="#DejaVuSans-28" transform="translate(276.464844 0)"/>
      <use xlink:href="#DejaVuSans-73" transform="translate(315.478516 0)"/>
      <use xlink:href="#DejaVuSans-29" transform="translate(367.578125 0)"/>
     </g>
    </g>
   </g>
   <g id="patch_3">
    <path d="M 73.58625 262.167465 
L 93.588004 262.167465 
L 93.588004 177.945103 
L 73.58625 177.945103 
z
" clip-path="url(#p361c535b4b)" style="fill: #800000"/>
   </g>
   <g id="patch_4">
    <path d="M 98.588443 262.167465 
L 118.590197 262.167465 
L 118.590197 166.08365 
L 98.588443 166.08365 
z
" clip-path="url(#p361c535b4b)" style="fill: #000080"/>
   </g>
   <g id="patch_5">
    <path d="M 148.592829 262.167465 
L 168.594583 262.167465 
L 168.594583 108.5835 
L 148.592829 108.5835 
z
" clip-path="url(#p361c535b4b)" style="fill: #800000"/>
   </g>
   <g id="patch_6">
    <path d="M 173.595022 262.167465 
L 193.596776 262.167465 
L 193.596776 109.353525 
L 173.595022 109.353525 
z
" clip-path="url(#p361c535b4b)" style="fill: #000080"/>
   </g>
   <g id="patch_7">
    <path d="M 223.599408 262.167465 
L 243.601162 262.167465 
L 243.601162 130.126824 
L 223.599408 130.126824 
z
" clip-path="url(#p361c535b4b)" style="fill: #800000"/>
   </g>
   <g id="patch_8">
    <path d="M 248.601601 262.167465 
L 268.603355 262.167465 
L 268.603355 130.276211 
L 248.601601 130.276211 
z
" clip-path="url(#p361c535b4b)" style="fill: #000080"/>
   </g>
   <g id="patch_9">
    <path d="M 298.605987 262.167465 
L 318.607741 262.167465 
L 318.607741 180.920378 
L 298.605987 180.920378 
z
" clip-path="url(#p361c535b4b)" style="fill: #800000"/>
   </g>
   <g id="patch_10">
    <path d="M 323.60818 262.167465 
L 343.609934 262.167465 
L 343.609934 175.999307 
L 323.60818 175.999307 
z
" clip-path="url(#p361c535b4b)" style="fill: #000080"/>
   </g>
   <g id="patch_11">
    <path d="M 373.612566 262.167465 
L 393.61432 262.167465 
L 393.61432 209.505951 
L 373.612566 209.505951 
z
" clip-path="url(#p361c535b4b)" style="fill: #800000"/>
   </g>
   <g id="patch_12">
    <path d="M 398.614759 262.167465 
L 418.616513 262.167465 
L 418.616513 161.373345 
L 398.614759 161.373345 
z
" clip-path="url(#p361c535b4b)" style="fill: #000080"/>
   </g>
   <g id="patch_13">
    <path d="M 448.619145 262.167465 
L 468.620899 262.167465 
L 468.620899 155.034069 
L 448.619145 155.034069 
z
" clip-path="url(#p361c535b4b)" style="fill: #800000"/>
   </g>
   <g id="patch_14">
    <path d="M 473.621338 262.167465 
L 493.623092 262.167465 
L 493.623092 214.073487 
L 473.621338 214.073487 
z
" clip-path="url(#p361c535b4b)" style="fill: #000080"/>
   </g>
   <g id="patch_15">
    <path d="M 523.625724 262.167465 
L 543.627478 262.167465 
L 543.627478 170.039075 
L 523.625724 170.039075 
z
" clip-path="url(#p361c535b4b)" style="fill: #800000"/>
   </g>
   <g id="patch_16">
    <path d="M 548.627917 262.167465 
L 568.629671 262.167465 
L 568.629671 169.277933 
L 548.627917 169.277933 
z
" clip-path="url(#p361c535b4b)" style="fill: #000080"/>
   </g>
   <g id="patch_17">
    <path d="M 598.632303 262.167465 
L 618.634057 262.167465 
L 618.634057 171.563886 
L 598.632303 171.563886 
z
" clip-path="url(#p361c535b4b)" style="fill: #800000"/>
   </g>
   <g id="patch_18">
    <path d="M 623.634496 262.167465 
L 643.63625 262.167465 
L 643.63625 246.179552 
L 623.634496 246.179552 
z
" clip-path="url(#p361c535b4b)" style="fill: #000080"/>
   </g>
   <g id="LineCollection_1">
    <path d="M 83.587127 185.162374 
L 83.587127 138.354797 
" clip-path="url(#p361c535b4b)" style="fill: none; stroke: #e95c3b; stroke-width: 2"/>
   </g>
   <g id="line2d_35">
    <defs>
     <path id="mc64e7a8851" d="M 3 0 
L -3 -0 
" style="stroke: #e95c3b; stroke-width: 2"/>
    </defs>
    <g clip-path="url(#p361c535b4b)">
     <use xlink:href="#mc64e7a8851" x="83.587127" y="185.162374" style="fill: #e95c3b; stroke: #e95c3b; stroke-width: 2"/>
    </g>
   </g>
   <g id="line2d_36">
    <g clip-path="url(#p361c535b4b)">
     <use xlink:href="#mc64e7a8851" x="83.587127" y="138.354797" style="fill: #e95c3b; stroke: #e95c3b; stroke-width: 2"/>
    </g>
   </g>
   <g id="LineCollection_2">
    <path d="M 108.58932 177.2011 
L 108.58932 113.561942 
" clip-path="url(#p361c535b4b)" style="fill: none; stroke: #a7c9de; stroke-width: 2"/>
   </g>
   <g id="line2d_37">
    <defs>
     <path id="m8600b6e030" d="M 3 0 
L -3 -0 
" style="stroke: #a7c9de; stroke-width: 2"/>
    </defs>
    <g clip-path="url(#p361c535b4b)">
     <use xlink:href="#m8600b6e030" x="108.58932" y="177.2011" style="fill: #a7c9de; stroke: #a7c9de; stroke-width: 2"/>
    </g>
   </g>
   <g id="line2d_38">
    <g clip-path="url(#p361c535b4b)">
     <use xlink:href="#m8600b6e030" x="108.58932" y="113.561942" style="fill: #a7c9de; stroke: #a7c9de; stroke-width: 2"/>
    </g>
   </g>
   <g id="LineCollection_3">
    <path d="M 158.593706 115.59339 
L 158.593706 77.733035 
" clip-path="url(#p361c535b4b)" style="fill: none; stroke: #e95c3b; stroke-width: 2"/>
   </g>
   <g id="line2d_39">
    <g clip-path="url(#p361c535b4b)">
     <use xlink:href="#mc64e7a8851" x="158.593706" y="115.59339" style="fill: #e95c3b; stroke: #e95c3b; stroke-width: 2"/>
    </g>
   </g>
   <g id="line2d_40">
    <g clip-path="url(#p361c535b4b)">
     <use xlink:href="#mc64e7a8851" x="158.593706" y="77.733035" style="fill: #e95c3b; stroke: #e95c3b; stroke-width: 2"/>
    </g>
   </g>
   <g id="LineCollection_4">
    <path d="M 183.595899 128.786748 
L 183.595899 19.341308 
" clip-path="url(#p361c535b4b)" style="fill: none; stroke: #a7c9de; stroke-width: 2"/>
   </g>
   <g id="line2d_41">
    <g clip-path="url(#p361c535b4b)">
     <use xlink:href="#m8600b6e030" x="183.595899" y="128.786748" style="fill: #a7c9de; stroke: #a7c9de; stroke-width: 2"/>
    </g>
   </g>
   <g id="line2d_42">
    <g clip-path="url(#p361c535b4b)">
     <use xlink:href="#m8600b6e030" x="183.595899" y="19.341308" style="fill: #a7c9de; stroke: #a7c9de; stroke-width: 2"/>
    </g>
   </g>
   <g id="LineCollection_5">
    <path d="M 233.600285 139.635603 
L 233.600285 86.187109 
" clip-path="url(#p361c535b4b)" style="fill: none; stroke: #e95c3b; stroke-width: 2"/>
   </g>
   <g id="line2d_43">
    <g clip-path="url(#p361c535b4b)">
     <use xlink:href="#mc64e7a8851" x="233.600285" y="139.635603" style="fill: #e95c3b; stroke: #e95c3b; stroke-width: 2"/>
    </g>
   </g>
   <g id="line2d_44">
    <g clip-path="url(#p361c535b4b)">
     <use xlink:href="#mc64e7a8851" x="233.600285" y="86.187109" style="fill: #e95c3b; stroke: #e95c3b; stroke-width: 2"/>
    </g>
   </g>
   <g id="LineCollection_6">
    <path d="M 258.602478 139.824717 
L 258.602478 85.701289 
" clip-path="url(#p361c535b4b)" style="fill: none; stroke: #a7c9de; stroke-width: 2"/>
   </g>
   <g id="line2d_45">
    <g clip-path="url(#p361c535b4b)">
     <use xlink:href="#m8600b6e030" x="258.602478" y="139.824717" style="fill: #a7c9de; stroke: #a7c9de; stroke-width: 2"/>
    </g>
   </g>
   <g id="line2d_46">
    <g clip-path="url(#p361c535b4b)">
     <use xlink:href="#m8600b6e030" x="258.602478" y="85.701289" style="fill: #a7c9de; stroke: #a7c9de; stroke-width: 2"/>
    </g>
   </g>
   <g id="LineCollection_7">
    <path d="M 308.606864 190.689824 
L 308.606864 148.003408 
" clip-path="url(#p361c535b4b)" style="fill: none; stroke: #e95c3b; stroke-width: 2"/>
   </g>
   <g id="line2d_47">
    <g clip-path="url(#p361c535b4b)">
     <use xlink:href="#mc64e7a8851" x="308.606864" y="190.689824" style="fill: #e95c3b; stroke: #e95c3b; stroke-width: 2"/>
    </g>
   </g>
   <g id="line2d_48">
    <g clip-path="url(#p361c535b4b)">
     <use xlink:href="#mc64e7a8851" x="308.606864" y="148.003408" style="fill: #e95c3b; stroke: #e95c3b; stroke-width: 2"/>
    </g>
   </g>
   <g id="LineCollection_8">
    <path d="M 333.609057 190.986668 
L 333.609057 144.234094 
" clip-path="url(#p361c535b4b)" style="fill: none; stroke: #a7c9de; stroke-width: 2"/>
   </g>
   <g id="line2d_49">
    <g clip-path="url(#p361c535b4b)">
     <use xlink:href="#m8600b6e030" x="333.609057" y="190.986668" style="fill: #a7c9de; stroke: #a7c9de; stroke-width: 2"/>
    </g>
   </g>
   <g id="line2d_50">
    <g clip-path="url(#p361c535b4b)">
     <use xlink:href="#m8600b6e030" x="333.609057" y="144.234094" style="fill: #a7c9de; stroke: #a7c9de; stroke-width: 2"/>
    </g>
   </g>
   <g id="LineCollection_9">
    <path d="M 383.613443 215.485981 
L 383.613443 186.649725 
" clip-path="url(#p361c535b4b)" style="fill: none; stroke: #e95c3b; stroke-width: 2"/>
   </g>
   <g id="line2d_51">
    <g clip-path="url(#p361c535b4b)">
     <use xlink:href="#mc64e7a8851" x="383.613443" y="215.485981" style="fill: #e95c3b; stroke: #e95c3b; stroke-width: 2"/>
    </g>
   </g>
   <g id="line2d_52">
    <g clip-path="url(#p361c535b4b)">
     <use xlink:href="#mc64e7a8851" x="383.613443" y="186.649725" style="fill: #e95c3b; stroke: #e95c3b; stroke-width: 2"/>
    </g>
   </g>
   <g id="LineCollection_10">
    <path d="M 408.615636 168.090032 
L 408.615636 140.970047 
" clip-path="url(#p361c535b4b)" style="fill: none; stroke: #a7c9de; stroke-width: 2"/>
   </g>
   <g id="line2d_53">
    <g clip-path="url(#p361c535b4b)">
     <use xlink:href="#m8600b6e030" x="408.615636" y="168.090032" style="fill: #a7c9de; stroke: #a7c9de; stroke-width: 2"/>
    </g>
   </g>
   <g id="line2d_54">
    <g clip-path="url(#p361c535b4b)">
     <use xlink:href="#m8600b6e030" x="408.615636" y="140.970047" style="fill: #a7c9de; stroke: #a7c9de; stroke-width: 2"/>
    </g>
   </g>
   <g id="LineCollection_11">
    <path d="M 458.620022 172.247392 
L 458.620022 127.044166 
" clip-path="url(#p361c535b4b)" style="fill: none; stroke: #e95c3b; stroke-width: 2"/>
   </g>
   <g id="line2d_55">
    <g clip-path="url(#p361c535b4b)">
     <use xlink:href="#mc64e7a8851" x="458.620022" y="172.247392" style="fill: #e95c3b; stroke: #e95c3b; stroke-width: 2"/>
    </g>
   </g>
   <g id="line2d_56">
    <g clip-path="url(#p361c535b4b)">
     <use xlink:href="#mc64e7a8851" x="458.620022" y="127.044166" style="fill: #e95c3b; stroke: #e95c3b; stroke-width: 2"/>
    </g>
   </g>
   <g id="LineCollection_12">
    <path d="M 483.622215 220.531352 
L 483.622215 201.696125 
" clip-path="url(#p361c535b4b)" style="fill: none; stroke: #a7c9de; stroke-width: 2"/>
   </g>
   <g id="line2d_57">
    <g clip-path="url(#p361c535b4b)">
     <use xlink:href="#m8600b6e030" x="483.622215" y="220.531352" style="fill: #a7c9de; stroke: #a7c9de; stroke-width: 2"/>
    </g>
   </g>
   <g id="line2d_58">
    <g clip-path="url(#p361c535b4b)">
     <use xlink:href="#m8600b6e030" x="483.622215" y="201.696125" style="fill: #a7c9de; stroke: #a7c9de; stroke-width: 2"/>
    </g>
   </g>
   <g id="LineCollection_13">
    <path d="M 533.626601 182.455837 
L 533.626601 140.88572 
" clip-path="url(#p361c535b4b)" style="fill: none; stroke: #e95c3b; stroke-width: 2"/>
   </g>
   <g id="line2d_59">
    <g clip-path="url(#p361c535b4b)">
     <use xlink:href="#mc64e7a8851" x="533.626601" y="182.455837" style="fill: #e95c3b; stroke: #e95c3b; stroke-width: 2"/>
    </g>
   </g>
   <g id="line2d_60">
    <g clip-path="url(#p361c535b4b)">
     <use xlink:href="#mc64e7a8851" x="533.626601" y="140.88572" style="fill: #e95c3b; stroke: #e95c3b; stroke-width: 2"/>
    </g>
   </g>
   <g id="LineCollection_14">
    <path d="M 558.628794 182.681363 
L 558.628794 139.029204 
" clip-path="url(#p361c535b4b)" style="fill: none; stroke: #a7c9de; stroke-width: 2"/>
   </g>
   <g id="line2d_61">
    <g clip-path="url(#p361c535b4b)">
     <use xlink:href="#m8600b6e030" x="558.628794" y="182.681363" style="fill: #a7c9de; stroke: #a7c9de; stroke-width: 2"/>
    </g>
   </g>
   <g id="line2d_62">
    <g clip-path="url(#p361c535b4b)">
     <use xlink:href="#m8600b6e030" x="558.628794" y="139.029204" style="fill: #a7c9de; stroke: #a7c9de; stroke-width: 2"/>
    </g>
   </g>
   <g id="LineCollection_15">
    <path d="M 608.63318 185.161606 
L 608.63318 137.971923 
" clip-path="url(#p361c535b4b)" style="fill: none; stroke: #e95c3b; stroke-width: 2"/>
   </g>
   <g id="line2d_63">
    <g clip-path="url(#p361c535b4b)">
     <use xlink:href="#mc64e7a8851" x="608.63318" y="185.161606" style="fill: #e95c3b; stroke: #e95c3b; stroke-width: 2"/>
    </g>
   </g>
   <g id="line2d_64">
    <g clip-path="url(#p361c535b4b)">
     <use xlink:href="#mc64e7a8851" x="608.63318" y="137.971923" style="fill: #e95c3b; stroke: #e95c3b; stroke-width: 2"/>
    </g>
   </g>
   <g id="LineCollection_16">
    <path d="M 633.635373 250.184521 
L 633.635373 243.902187 
" clip-path="url(#p361c535b4b)" style="fill: none; stroke: #a7c9de; stroke-width: 2"/>
   </g>
   <g id="line2d_65">
    <g clip-path="url(#p361c535b4b)">
     <use xlink:href="#m8600b6e030" x="633.635373" y="250.184521" style="fill: #a7c9de; stroke: #a7c9de; stroke-width: 2"/>
    </g>
   </g>
   <g id="line2d_66">
    <g clip-path="url(#p361c535b4b)">
     <use xlink:href="#m8600b6e030" x="633.635373" y="243.902187" style="fill: #a7c9de; stroke: #a7c9de; stroke-width: 2"/>
    </g>
   </g>
   <g id="line2d_67">
    <path d="M 83.587127 177.945103 
" clip-path="url(#p361c535b4b)" style="fill: none; stroke: #e95c3b; stroke-width: 2; stroke-linecap: square"/>
   </g>
   <g id="line2d_68">
    <path d="M 108.58932 166.08365 
" clip-path="url(#p361c535b4b)" style="fill: none; stroke: #a7c9de; stroke-width: 2; stroke-linecap: square"/>
   </g>
   <g id="line2d_69">
    <path d="M 158.593706 108.5835 
" clip-path="url(#p361c535b4b)" style="fill: none; stroke: #e95c3b; stroke-width: 2; stroke-linecap: square"/>
   </g>
   <g id="line2d_70">
    <path d="M 183.595899 109.353525 
" clip-path="url(#p361c535b4b)" style="fill: none; stroke: #a7c9de; stroke-width: 2; stroke-linecap: square"/>
   </g>
   <g id="line2d_71">
    <path d="M 233.600285 130.126824 
" clip-path="url(#p361c535b4b)" style="fill: none; stroke: #e95c3b; stroke-width: 2; stroke-linecap: square"/>
   </g>
   <g id="line2d_72">
    <path d="M 258.602478 130.276211 
" clip-path="url(#p361c535b4b)" style="fill: none; stroke: #a7c9de; stroke-width: 2; stroke-linecap: square"/>
   </g>
   <g id="line2d_73">
    <path d="M 308.606864 180.920378 
" clip-path="url(#p361c535b4b)" style="fill: none; stroke: #e95c3b; stroke-width: 2; stroke-linecap: square"/>
   </g>
   <g id="line2d_74">
    <path d="M 333.609057 175.999307 
" clip-path="url(#p361c535b4b)" style="fill: none; stroke: #a7c9de; stroke-width: 2; stroke-linecap: square"/>
   </g>
   <g id="line2d_75">
    <path d="M 383.613443 209.505951 
" clip-path="url(#p361c535b4b)" style="fill: none; stroke: #e95c3b; stroke-width: 2; stroke-linecap: square"/>
   </g>
   <g id="line2d_76">
    <path d="M 408.615636 161.373345 
" clip-path="url(#p361c535b4b)" style="fill: none; stroke: #a7c9de; stroke-width: 2; stroke-linecap: square"/>
   </g>
   <g id="line2d_77">
    <path d="M 458.620022 155.034069 
" clip-path="url(#p361c535b4b)" style="fill: none; stroke: #e95c3b; stroke-width: 2; stroke-linecap: square"/>
   </g>
   <g id="line2d_78">
    <path d="M 483.622215 214.073487 
" clip-path="url(#p361c535b4b)" style="fill: none; stroke: #a7c9de; stroke-width: 2; stroke-linecap: square"/>
   </g>
   <g id="line2d_79">
    <path d="M 533.626601 170.039075 
" clip-path="url(#p361c535b4b)" style="fill: none; stroke: #e95c3b; stroke-width: 2; stroke-linecap: square"/>
   </g>
   <g id="line2d_80">
    <path d="M 558.628794 169.277933 
" clip-path="url(#p361c535b4b)" style="fill: none; stroke: #a7c9de; stroke-width: 2; stroke-linecap: square"/>
   </g>
   <g id="line2d_81">
    <path d="M 608.63318 171.563886 
" clip-path="url(#p361c535b4b)" style="fill: none; stroke: #e95c3b; stroke-width: 2; stroke-linecap: square"/>
   </g>
   <g id="line2d_82">
    <path d="M 633.635373 246.179552 
" clip-path="url(#p361c535b4b)" style="fill: none; stroke: #a7c9de; stroke-width: 2; stroke-linecap: square"/>
   </g>
   <g id="patch_19">
    <path d="M 45.08375 262.167465 
L 45.08375 7.2 
" style="fill: none; stroke: #000000; stroke-width: 0.7; stroke-linejoin: miter; stroke-linecap: square"/>
   </g>
   <g id="patch_20">
    <path d="M 672.13875 262.167465 
L 672.13875 7.2 
" style="fill: none; stroke: #000000; stroke-width: 0.7; stroke-linejoin: miter; stroke-linecap: square"/>
   </g>
   <g id="patch_21">
    <path d="M 45.08375 262.167465 
L 672.13875 262.167465 
" style="fill: none; stroke: #000000; stroke-width: 0.7; stroke-linejoin: miter; stroke-linecap: square"/>
   </g>
   <g id="patch_22">
    <path d="M 45.08375 7.2 
L 672.13875 7.2 
" style="fill: none; stroke: #000000; stroke-width: 0.7; stroke-linejoin: miter; stroke-linecap: square"/>
   </g>
   <g id="legend_1">
    <g id="patch_23">
     <path d="M 581.90625 52.0275 
L 663.73875 52.0275 
Q 666.13875 52.0275 666.13875 49.6275 
L 666.13875 15.6 
Q 666.13875 13.2 663.73875 13.2 
L 581.90625 13.2 
Q 579.50625 13.2 579.50625 15.6 
L 579.50625 49.6275 
Q 579.50625 52.0275 581.90625 52.0275 
z
" style="fill: #ffffff; opacity: 0.8; stroke: #cccccc; stroke-linejoin: miter"/>
    </g>
    <g id="patch_24">
     <path d="M 584.30625 27.118125 
L 608.30625 27.118125 
L 608.30625 18.718125 
L 584.30625 18.718125 
z
" style="fill: #800000"/>
    </g>
    <g id="text_19">
     <!-- Inplace -->
     <g transform="translate(617.90625 27.118125) scale(0.12 -0.12)">
      <defs>
       <path id="DejaVuSans-49" d="M 628 4666 
L 1259 4666 
L 1259 0 
L 628 0 
L 628 4666 
z
" transform="scale(0.015625)"/>
       <path id="DejaVuSans-6e" d="M 3513 2113 
L 3513 0 
L 2938 0 
L 2938 2094 
Q 2938 2591 2744 2837 
Q 2550 3084 2163 3084 
Q 1697 3084 1428 2787 
Q 1159 2491 1159 1978 
L 1159 0 
L 581 0 
L 581 3500 
L 1159 3500 
L 1159 2956 
Q 1366 3272 1645 3428 
Q 1925 3584 2291 3584 
Q 2894 3584 3203 3211 
Q 3513 2838 3513 2113 
z
" transform="scale(0.015625)"/>
       <path id="DejaVuSans-70" d="M 1159 525 
L 1159 -1331 
L 581 -1331 
L 581 3500 
L 1159 3500 
L 1159 2969 
Q 1341 3281 1617 3432 
Q 1894 3584 2278 3584 
Q 2916 3584 3314 3078 
Q 3713 2572 3713 1747 
Q 3713 922 3314 415 
Q 2916 -91 2278 -91 
Q 1894 -91 1617 61 
Q 1341 213 1159 525 
z
M 3116 1747 
Q 3116 2381 2855 2742 
Q 2594 3103 2138 3103 
Q 1681 3103 1420 2742 
Q 1159 2381 1159 1747 
Q 1159 1113 1420 752 
Q 1681 391 2138 391 
Q 2594 391 2855 752 
Q 3116 1113 3116 1747 
z
" transform="scale(0.015625)"/>
       <path id="DejaVuSans-6c" d="M 603 4863 
L 1178 4863 
L 1178 0 
L 603 0 
L 603 4863 
z
" transform="scale(0.015625)"/>
       <path id="DejaVuSans-61" d="M 2194 1759 
Q 1497 1759 1228 1600 
Q 959 1441 959 1056 
Q 959 750 1161 570 
Q 1363 391 1709 391 
Q 2188 391 2477 730 
Q 2766 1069 2766 1631 
L 2766 1759 
L 2194 1759 
z
M 3341 1997 
L 3341 0 
L 2766 0 
L 2766 531 
Q 2569 213 2275 61 
Q 1981 -91 1556 -91 
Q 1019 -91 701 211 
Q 384 513 384 1019 
Q 384 1609 779 1909 
Q 1175 2209 1959 2209 
L 2766 2209 
L 2766 2266 
Q 2766 2663 2505 2880 
Q 2244 3097 1772 3097 
Q 1472 3097 1187 3025 
Q 903 2953 641 2809 
L 641 3341 
Q 956 3463 1253 3523 
Q 1550 3584 1831 3584 
Q 2591 3584 2966 3190 
Q 3341 2797 3341 1997 
z
" transform="scale(0.015625)"/>
       <path id="DejaVuSans-63" d="M 3122 3366 
L 3122 2828 
Q 2878 2963 2633 3030 
Q 2388 3097 2138 3097 
Q 1578 3097 1268 2742 
Q 959 2388 959 1747 
Q 959 1106 1268 751 
Q 1578 397 2138 397 
Q 2388 397 2633 464 
Q 2878 531 3122 666 
L 3122 134 
Q 2881 22 2623 -34 
Q 2366 -91 2075 -91 
Q 1284 -91 818 406 
Q 353 903 353 1747 
Q 353 2603 823 3093 
Q 1294 3584 2113 3584 
Q 2378 3584 2631 3529 
Q 2884 3475 3122 3366 
z
" transform="scale(0.015625)"/>
      </defs>
      <use xlink:href="#DejaVuSans-49"/>
      <use xlink:href="#DejaVuSans-6e" transform="translate(29.492188 0)"/>
      <use xlink:href="#DejaVuSans-70" transform="translate(92.871094 0)"/>
      <use xlink:href="#DejaVuSans-6c" transform="translate(156.347656 0)"/>
      <use xlink:href="#DejaVuSans-61" transform="translate(184.130859 0)"/>
      <use xlink:href="#DejaVuSans-63" transform="translate(245.410156 0)"/>
      <use xlink:href="#DejaVuSans-65" transform="translate(300.390625 0)"/>
     </g>
    </g>
    <g id="patch_25">
     <path d="M 584.30625 44.731875 
L 608.30625 44.731875 
L 608.30625 36.331875 
L 584.30625 36.331875 
z
" style="fill: #000080"/>
    </g>
    <g id="text_20">
     <!-- Copy -->
     <g transform="translate(617.90625 44.731875) scale(0.12 -0.12)">
      <defs>
       <path id="DejaVuSans-43" d="M 4122 4306 
L 4122 3641 
Q 3803 3938 3442 4084 
Q 3081 4231 2675 4231 
Q 1875 4231 1450 3742 
Q 1025 3253 1025 2328 
Q 1025 1406 1450 917 
Q 1875 428 2675 428 
Q 3081 428 3442 575 
Q 3803 722 4122 1019 
L 4122 359 
Q 3791 134 3420 21 
Q 3050 -91 2638 -91 
Q 1578 -91 968 557 
Q 359 1206 359 2328 
Q 359 3453 968 4101 
Q 1578 4750 2638 4750 
Q 3056 4750 3426 4639 
Q 3797 4528 4122 4306 
z
" transform="scale(0.015625)"/>
       <path id="DejaVuSans-6f" d="M 1959 3097 
Q 1497 3097 1228 2736 
Q 959 2375 959 1747 
Q 959 1119 1226 758 
Q 1494 397 1959 397 
Q 2419 397 2687 759 
Q 2956 1122 2956 1747 
Q 2956 2369 2687 2733 
Q 2419 3097 1959 3097 
z
M 1959 3584 
Q 2709 3584 3137 3096 
Q 3566 2609 3566 1747 
Q 3566 888 3137 398 
Q 2709 -91 1959 -91 
Q 1206 -91 779 398 
Q 353 888 353 1747 
Q 353 2609 779 3096 
Q 1206 3584 1959 3584 
z
" transform="scale(0.015625)"/>
       <path id="DejaVuSans-79" d="M 2059 -325 
Q 1816 -950 1584 -1140 
Q 1353 -1331 966 -1331 
L 506 -1331 
L 506 -850 
L 844 -850 
Q 1081 -850 1212 -737 
Q 1344 -625 1503 -206 
L 1606 56 
L 191 3500 
L 800 3500 
L 1894 763 
L 2988 3500 
L 3597 3500 
L 2059 -325 
z
" transform="scale(0.015625)"/>
      </defs>
      <use xlink:href="#DejaVuSans-43"/>
      <use xlink:href="#DejaVuSans-6f" transform="translate(69.824219 0)"/>
      <use xlink:href="#DejaVuSans-70" transform="translate(131.005859 0)"/>
      <use xlink:href="#DejaVuSans-79" transform="translate(194.482422 0)"/>
     </g>
    </g>
   </g>
  </g>
 </g>
 <defs>
  <clipPath id="p361c535b4b">
   <rect x="45.08375" y="7.2" width="627.055" height="254.967465"/>
  </clipPath>
 </defs>
</svg>
